<?xml version="1.0" standalone="no"?>
<!DOCTYPE svg PUBLIC "-//W3C//DTD SVG 1.1//EN" "http://www.w3.org/Graphics/SVG/1.1/DTD/svg11.dtd" >
<svg xmlns="http://www.w3.org/2000/svg" xmlns:xlink="http://www.w3.org/1999/xlink" version="1.1">
<metadata>
Created by FontForge 20170731 at Fri Mar 20 20:29:10 2020
 By Aleksey,,,
Copyright 2020 Mans Greback AB
</metadata>
<defs>
<font id="SicretMonoPERSONAL" horiz-adv-x="500" >
  <font-face 
    font-family="Sicret Mono PERSONAL"
    font-weight="400"
    font-stretch="normal"
    units-per-em="1000"
    panose-1="0 0 0 0 0 0 0 0 0 0"
    ascent="800"
    descent="-200"
    x-height="664"
    cap-height="664"
    bbox="-116 -14 556 750"
    underline-thickness="77"
    underline-position="-15"
    unicode-range="U+0002-F8FF"
  />
<missing-glyph 
 />
    <glyph glyph-name=".notdef" 
 />
    <glyph glyph-name="uni0000" 
 />
    <glyph glyph-name="uni0000" 
 />
    <glyph glyph-name="uni000D" unicode="&#xd;" 
 />
    <glyph glyph-name="uni0002" 
d="M86 500q0 35 12.5 64.5t35 52t52.5 35t64 12.5q35 0 64.5 -12.5t52 -35t35 -52t12.5 -64.5v-250q0 -34 -12.5 -64t-35 -52.5t-52 -35t-64.5 -12.5q-34 0 -64 12.5t-52.5 35t-35 52.5t-12.5 64v250zM164 250q0 -19 7 -34t18 -27q12 -11 27 -18t34 -7t34 7t27 18
q11 12 18 27t7 34v250q0 19 -7 34t-18 27q-12 11 -27 18t-34 7t-34 -7t-27 -18q-11 -12 -18 -27t-7 -34v-250z" />
    <glyph glyph-name="uni0009" unicode="&#x9;" 
 />
    <glyph glyph-name="uni000A" unicode="&#xa;" 
 />
    <glyph glyph-name="space" unicode=" " 
 />
    <glyph glyph-name="exclam" unicode="!" 
d="M211 664h78v-328h-78v328zM289 250v-164h-78v164h78z" />
    <glyph glyph-name="quotedbl" unicode="&#x22;" 
d="M336 664h78v-164h-78v164zM164 664v-164h-78v164h78z" />
    <glyph glyph-name="numbersign" unicode="#" 
d="M86 750h78v-86h172v86h78v-500h-78v86h-172v-86h-78v500zM164 414h172v172h-172v-172z" />
    <glyph glyph-name="dollar" unicode="$" 
d="M164 250q0 -19 7 -34t18 -27q12 -11 27 -18t34 -7t34 7t27 18q11 12 18 27t7 34t-7 34t-18 27q-12 11 -27 18t-34 7q-34 0 -64 12.5t-52.5 35t-35 52.5t-12.5 64q0 35 12.5 64.5t35 52t52.5 35t64 12.5q19 0 34 7t27 18q11 12 18 27t7 34h78q0 -42 -14 -69t-43 -56
q29 -29 43 -56t14 -69h-78q0 19 -7 34t-18 27q-12 11 -27 18t-34 7t-34 -7t-27 -18q-11 -12 -18 -27t-7 -34t7 -34t18 -27q12 -11 27 -18t34 -7q35 0 64.5 -12.5t52 -35t35 -52t12.5 -64.5q0 -34 -12.5 -64t-35 -52.5t-52 -35t-64.5 -12.5q-19 0 -34 -7t-27 -18
q-11 -12 -18 -27t-7 -34h-78q0 42 14 69t43 56q-29 29 -43 56t-14 69h78z" />
    <glyph glyph-name="percent" unicode="%" 
d="M86 250q0 20 5.5 40.5t15.5 39.5t24.5 34.5t32.5 25.5q36 24 86 24q19 0 34 7t27 18q11 12 18 27t7 34v164h78v-164q0 -20 -5.5 -40.5t-15.5 -39.5t-24.5 -34.5t-32.5 -25.5q-36 -24 -86 -24q-19 0 -34 -7t-27 -18q-11 -12 -18 -27t-7 -34v-164h-78v164zM336 86v164h78
v-164h-78zM86 664h78v-164h-78v164z" />
    <glyph glyph-name="ampersand" unicode="&#x26;" 
d="M86 500q0 35 12.5 64.5t35 52t52.5 35t64 12.5q35 0 64.5 -12.5t52 -35t35 -52t12.5 -64.5h-78q0 19 -7 34t-18 27q-12 11 -27 18t-34 7t-34 -7t-27 -18q-11 -12 -18 -27t-7 -34t7 -34t18 -27q12 -11 27 -18t34 -7h250v-78h-86v-86q0 -34 -12.5 -64t-35 -52.5t-52 -35
t-64.5 -12.5q-34 0 -64 12.5t-52.5 35t-35 52.5t-12.5 64q0 42 14 69t43 56q-29 29 -43 56t-14 69zM189 311q-11 -12 -18 -27t-7 -34t7 -34t18 -27q12 -11 27 -18t34 -7t34 7t27 18q11 12 18 27t7 34v86h-86q-19 0 -34 -7t-27 -18z" />
    <glyph glyph-name="quotesingle" unicode="'" 
d="M211 500v164h78v-164h-78z" />
    <glyph glyph-name="parenleft" unicode="(" 
d="M211 500q0 35 12.5 64.5t35 52t52.5 35t64 12.5v-78q-19 0 -34 -7t-27 -18q-11 -12 -18 -27t-7 -34v-250q0 -19 7 -34t18 -27q12 -11 27 -18t34 -7v-78q-34 0 -64 12.5t-52.5 35t-35 52.5t-12.5 64v250z" />
    <glyph glyph-name="parenright" unicode=")" 
d="M186 189q11 12 18 27t7 34v250q0 19 -7 34t-18 27q-12 11 -27 18t-34 7v78q35 0 64.5 -12.5t52 -35t35 -52t12.5 -64.5v-250q0 -34 -12.5 -64t-35 -52.5t-52 -35t-64.5 -12.5v78q19 0 34 7t27 18z" />
    <glyph glyph-name="asterisk" unicode="*" 
d="M86 750h78q0 -19 7 -34t18 -27q12 -11 27 -18t34 -7t34 7t27 18q11 12 18 27t7 34h78q0 -42 -14 -69t-43 -56q29 -29 43 -56t14 -69h-78q0 19 -7 34t-18 27q-12 11 -27 18t-34 7t-34 -7t-27 -18q-11 -12 -18 -27t-7 -34h-78q0 42 14 69t43 56q-29 29 -43 56t-14 69z" />
    <glyph glyph-name="plus" unicode="+" 
d="M289 336v-112h-78v112h-112v78h112v112h78v-112h112v-78h-112z" />
    <glyph glyph-name="comma" unicode="," 
d="M289 280v-280h-78v280h78z" />
    <glyph glyph-name="hyphen" unicode="-" 
d="M125 414h250v-78h-250v78z" />
    <glyph glyph-name="period" unicode="." 
d="M299 184v-98h-98v98h98z" />
    <glyph glyph-name="slash" unicode="/" 
d="M86 250q0 35 12.5 64.5t35 52t52.5 35t64 12.5q19 0 34 7t27 18q11 12 18 27t7 34v164h78v-164q0 -34 -12.5 -64t-35 -52.5t-52 -35t-64.5 -12.5q-19 0 -34 -7t-27 -18q-11 -12 -18 -27t-7 -34v-164h-78v164z" />
    <glyph glyph-name="zero" unicode="0" 
d="M86 500q0 35 12.5 64.5t35 52t52.5 35t64 12.5q35 0 64.5 -12.5t52 -35t35 -52t12.5 -64.5v-250q0 -34 -12.5 -64t-35 -52.5t-52 -35t-64.5 -12.5q-34 0 -64 12.5t-52.5 35t-35 52.5t-12.5 64v250zM164 250q0 -19 7 -34t18 -27q12 -11 27 -18t34 -7t34 7t27 18
q11 12 18 27t7 34v250q0 19 -7 34t-18 27q-12 11 -27 18t-34 7t-34 -7t-27 -18q-11 -12 -18 -27t-7 -34v-250z" />
    <glyph glyph-name="one" unicode="1" 
d="M99 164h112v422h-112v78h190v-500h112v-78h-302v78z" />
    <glyph glyph-name="two" unicode="2" 
d="M86 250q0 35 12.5 64.5t35 52t52.5 35t64 12.5q19 0 34 7t27 18q11 12 18 27t7 34t-7 34t-18 27q-12 11 -27 18t-34 7t-34 -7t-27 -18q-11 -12 -18 -27t-7 -34h-78q0 35 12.5 64.5t35 52t52.5 35t64 12.5q35 0 64.5 -12.5t52 -35t35 -52t12.5 -64.5q0 -34 -12.5 -64
t-35 -52.5t-52 -35t-64.5 -12.5q-19 0 -34 -7t-27 -18q-11 -12 -18 -27t-7 -34v-86h250v-78h-328v164z" />
    <glyph glyph-name="three" unicode="3" 
d="M164 500h-78q0 35 12.5 64.5t35 52t52.5 35t64 12.5q35 0 64.5 -12.5t52 -35t35 -52t12.5 -64.5q0 -42 -14 -69t-43 -56q29 -29 43 -56t14 -69q0 -34 -12.5 -64t-35 -52.5t-52 -35t-64.5 -12.5q-34 0 -64 12.5t-52.5 35t-35 52.5t-12.5 64h78q0 -19 7 -34t18 -27
q12 -11 27 -18t34 -7t34 7t27 18q11 12 18 27t7 34t-7 34t-18 27q-12 11 -27 18t-34 7v78q19 0 34 7t27 18q11 12 18 27t7 34t-7 34t-18 27q-12 11 -27 18t-34 7t-34 -7t-27 -18q-11 -12 -18 -27t-7 -34z" />
    <glyph glyph-name="four" unicode="4" 
d="M86 336v328h78v-250h172v250h78v-578h-78v250h-250z" />
    <glyph glyph-name="five" unicode="5" 
d="M164 250q0 -19 7 -34t18 -27q12 -11 27 -18t34 -7t34 7t27 18q11 12 18 27t7 34t-7 34t-18 27q-12 11 -27 18t-34 7h-164v328h328v-78h-250v-172h86q35 0 64.5 -12.5t52 -35t35 -52t12.5 -64.5q0 -34 -12.5 -64t-35 -52.5t-52 -35t-64.5 -12.5q-34 0 -64 12.5t-52.5 35
t-35 52.5t-12.5 64h78z" />
    <glyph glyph-name="six" unicode="6" 
d="M86 500q0 35 12.5 64.5t35 52t52.5 35t64 12.5q35 0 64.5 -12.5t52 -35t35 -52t12.5 -64.5h-78q0 19 -7 34t-18 27q-12 11 -27 18t-34 7t-34 -7t-27 -18q-11 -12 -18 -27t-7 -34v-86h86q35 0 64.5 -12.5t52 -35t35 -52t12.5 -64.5q0 -34 -12.5 -64t-35 -52.5t-52 -35
t-64.5 -12.5q-34 0 -64 12.5t-52.5 35t-35 52.5t-12.5 64v250zM164 336v-86q0 -19 7 -34t18 -27q12 -11 27 -18t34 -7t34 7t27 18q11 12 18 27t7 34t-7 34t-18 27q-12 11 -27 18t-34 7h-86z" />
    <glyph glyph-name="seven" unicode="7" 
d="M86 586v78h328v-578h-78v500h-250z" />
    <glyph glyph-name="eight" unicode="8" 
d="M86 250q0 42 14 69t43 56q-29 29 -43 56t-14 69q0 35 12.5 64.5t35 52t52.5 35t64 12.5q35 0 64.5 -12.5t52 -35t35 -52t12.5 -64.5q0 -42 -14 -69t-43 -56q29 -29 43 -56t14 -69q0 -34 -12.5 -64t-35 -52.5t-52 -35t-64.5 -12.5q-34 0 -64 12.5t-52.5 35t-35 52.5
t-12.5 64zM189 561q-11 -12 -18 -27t-7 -34t7 -34t18 -27q12 -11 27 -18t34 -7t34 7t27 18q11 12 18 27t7 34t-7 34t-18 27q-12 11 -27 18t-34 7t-34 -7t-27 -18zM189 311q-11 -12 -18 -27t-7 -34t7 -34t18 -27q12 -11 27 -18t34 -7t34 7t27 18q11 12 18 27t7 34t-7 34
t-18 27q-12 11 -27 18t-34 7t-34 -7t-27 -18z" />
    <glyph glyph-name="nine" unicode="9" 
d="M164 250q0 -19 7 -34t18 -27q12 -11 27 -18t34 -7t34 7t27 18q11 12 18 27t7 34v86h-86q-34 0 -64 12.5t-52.5 35t-35 52.5t-12.5 64q0 35 12.5 64.5t35 52t52.5 35t64 12.5q35 0 64.5 -12.5t52 -35t35 -52t12.5 -64.5v-250q0 -34 -12.5 -64t-35 -52.5t-52 -35
t-64.5 -12.5q-34 0 -64 12.5t-52.5 35t-35 52.5t-12.5 64h78zM164 500q0 -19 7 -34t18 -27q12 -11 27 -18t34 -7h86v86q0 19 -7 34t-18 27q-12 11 -27 18t-34 7t-34 -7t-27 -18q-11 -12 -18 -27t-7 -34z" />
    <glyph glyph-name="colon" unicode=":" 
d="M211 500h78v-164h-78v164zM211 250h78v-164h-78v164z" />
    <glyph glyph-name="semicolon" unicode=";" 
d="M211 250h78v-250h-78v250zM211 500h78v-164h-78v164z" />
    <glyph glyph-name="less" unicode="&#x3c;" 
d="M125 336v78q19 0 34 7t27 18q11 12 18 27t7 34h78q0 -42 -14 -69t-43 -56q29 -29 43 -56t14 -69h-78q0 19 -7 34t-18 27q-12 11 -27 18t-34 7z" />
    <glyph glyph-name="equal" unicode="=" 
d="M106 540h288v-77h-288v77zM394 290v-77h-288v77h288z" />
    <glyph glyph-name="greater" unicode="&#x3e;" 
d="M289 500q0 -19 7 -34t18 -27q12 -11 27 -18t34 -7v-78q-19 0 -34 -7t-27 -18q-11 -12 -18 -27t-7 -34h-78q0 42 14 69t43 56q-29 29 -43 56t-14 69h78z" />
    <glyph glyph-name="question" unicode="?" 
d="M86 250q0 35 12.5 64.5t35 52t52.5 35t64 12.5q19 0 34 7t27 18q11 12 18 27t7 34t-7 34t-18 27q-12 11 -27 18t-34 7t-34 -7t-27 -18q-11 -12 -18 -27t-7 -34h-78q0 35 12.5 64.5t35 52t52.5 35t64 12.5q35 0 64.5 -12.5t52 -35t35 -52t12.5 -64.5q0 -34 -12.5 -64
t-35 -52.5t-52 -35t-64.5 -12.5q-19 0 -34 -7t-27 -18q-11 -12 -18 -27t-7 -34h-78zM86 0v164h78v-164h-78z" />
    <glyph glyph-name="at" unicode="@" 
d="M86 500q0 35 12.5 64.5t35 52t52.5 35t64 12.5q35 0 64.5 -12.5t52 -35t35 -52t12.5 -64.5v-250q0 -34 -12.5 -64t-35 -52.5t-52 -35t-64.5 -12.5q-34 0 -64 12.5t-52.5 35t-35 52.5t-12.5 64q0 35 12.5 64.5t35 52t52.5 35t64 12.5h86v86q0 19 -7 34t-18 27
q-12 11 -27 18t-34 7t-34 -7t-27 -18q-11 -12 -18 -27t-7 -34h-78zM164 250q0 -19 7 -34t18 -27q12 -11 27 -18t34 -7t34 7t27 18q11 12 18 27t7 34v86h-86q-19 0 -34 -7t-27 -18q-11 -12 -18 -27t-7 -34z" />
    <glyph glyph-name="A" unicode="A" 
d="M86 500q0 35 12.5 64.5t35 52t52.5 35t64 12.5q35 0 64.5 -12.5t52 -35t35 -52t12.5 -64.5v-414h-78v250h-172v-250h-78v414zM336 414v86q0 19 -7 34t-18 27q-12 11 -27 18t-34 7t-34 -7t-27 -18q-11 -12 -18 -27t-7 -34v-86h172z" />
    <glyph glyph-name="B" unicode="B" 
d="M86 86v578h164q35 0 64.5 -12.5t52 -35t35 -52t12.5 -64.5q0 -42 -14 -69t-43 -56q29 -29 43 -56t14 -69q0 -34 -12.5 -64t-35 -52.5t-52 -35t-64.5 -12.5h-164zM250 414q19 0 34 7t27 18q11 12 18 27t7 34t-7 34t-18 27q-12 11 -27 18t-34 7h-86v-172h86zM164 336v-172
h86q19 0 34 7t27 18q11 12 18 27t7 34t-7 34t-18 27q-12 11 -27 18t-34 7h-86z" />
    <glyph glyph-name="C" unicode="C" 
d="M86 500q0 35 12.5 64.5t35 52t52.5 35t64 12.5q35 0 64.5 -12.5t52 -35t35 -52t12.5 -64.5h-78q0 19 -7 34t-18 27q-12 11 -27 18t-34 7t-34 -7t-27 -18q-11 -12 -18 -27t-7 -34v-250q0 -19 7 -34t18 -27q12 -11 27 -18t34 -7t34 7t27 18q11 12 18 27t7 34h78
q0 -34 -12.5 -64t-35 -52.5t-52 -35t-64.5 -12.5q-34 0 -64 12.5t-52.5 35t-35 52.5t-12.5 64v250z" />
    <glyph glyph-name="D" unicode="D" 
d="M250 664q35 0 64.5 -12.5t52 -35t35 -52t12.5 -64.5v-250q0 -34 -12.5 -64t-35 -52.5t-52 -35t-64.5 -12.5h-164v578h164zM164 586v-422h86q19 0 34 7t27 18q11 12 18 27t7 34v250q0 19 -7 34t-18 27q-12 11 -27 18t-34 7h-86z" />
    <glyph glyph-name="E" unicode="E" 
d="M86 664h328v-78h-250v-172h250v-78h-250v-172h250v-78h-328v578z" />
    <glyph glyph-name="F" unicode="F" 
d="M86 86v578h328v-78h-250v-172h250v-78h-250v-250h-78z" />
    <glyph glyph-name="G" unicode="G" 
d="M86 500q0 35 12.5 64.5t35 52t52.5 35t64 12.5q35 0 64.5 -12.5t52 -35t35 -52t12.5 -64.5h-78q0 19 -7 34t-18 27q-12 11 -27 18t-34 7t-34 -7t-27 -18q-11 -12 -18 -27t-7 -34v-250q0 -19 7 -34t18 -27q12 -11 27 -18t34 -7t34 7t27 18q11 12 18 27t7 34v86h-86v78h164
v-164q0 -34 -12.5 -64t-35 -52.5t-52 -35t-64.5 -12.5q-34 0 -64 12.5t-52.5 35t-35 52.5t-12.5 64v250z" />
    <glyph glyph-name="H" unicode="H" 
d="M164 664v-250h172v250h78v-578h-78v250h-172v-250h-78v578h78z" />
    <glyph glyph-name="I" unicode="I" 
d="M103 86v78h108v422h-108v78h295v-78h-109v-422h109v-78h-295z" />
    <glyph glyph-name="J" unicode="J" 
d="M86 250h78q0 -19 7 -34t18 -27q12 -11 27 -18t34 -7t34 7t27 18q11 12 18 27t7 34v336h-112v78h190v-414q0 -34 -12.5 -64t-35 -52.5t-52 -35t-64.5 -12.5q-34 0 -64 12.5t-52.5 35t-35 52.5t-12.5 64z" />
    <glyph glyph-name="K" unicode="K" 
d="M164 664v-250h86q19 0 34 7t27 18q11 12 18 27t7 34v164h78v-164q0 -42 -14 -69t-43 -56q-10 -9 -21 -15v-24l30 30q23 -22 35.5 -50.5t12.5 -65.5v-164h-78v164q0 19 -7 34t-18 27q-12 11 -27 18t-34 7h-86v-250h-78v578h78z" />
    <glyph glyph-name="L" unicode="L" 
d="M86 664h78v-500h250v-78h-328v578z" />
    <glyph glyph-name="M" unicode="M" 
d="M40 523q0 61 27 101t88 40q38 0 60 -18.5t35 -50.5q13 32 35 50.5t60 18.5q61 0 88 -40t27 -101v-437h-66v414q0 35 -12.5 60.5t-47.5 25.5t-47.5 -25.5t-12.5 -60.5v-414h-48v414q0 35 -12.5 60.5t-47.5 25.5t-47.5 -25.5t-12.5 -60.5v-414h-66v437z" />
    <glyph glyph-name="N" unicode="N" 
d="M86 86v578h164q35 0 64.5 -12.5t52 -35t35 -52t12.5 -64.5v-414h-78v414q0 19 -7 34t-18 27q-12 11 -27 18t-34 7h-86v-500h-78z" />
    <glyph glyph-name="O" unicode="O" 
d="M86 500q0 35 12.5 64.5t35 52t52.5 35t64 12.5q35 0 64.5 -12.5t52 -35t35 -52t12.5 -64.5v-250q0 -34 -12.5 -64t-35 -52.5t-52 -35t-64.5 -12.5q-34 0 -64 12.5t-52.5 35t-35 52.5t-12.5 64v250zM164 250q0 -19 7 -34t18 -27q12 -11 27 -18t34 -7t34 7t27 18
q11 12 18 27t7 34v250q0 19 -7 34t-18 27q-12 11 -27 18t-34 7t-34 -7t-27 -18q-11 -12 -18 -27t-7 -34v-250z" />
    <glyph glyph-name="P" unicode="P" 
d="M86 86v578h164q35 0 64.5 -12.5t52 -35t35 -52t12.5 -64.5q0 -34 -12.5 -64t-35 -52.5t-52 -35t-64.5 -12.5h-86v-250h-78zM250 414q19 0 34 7t27 18q11 12 18 27t7 34t-7 34t-18 27q-12 11 -27 18t-34 7h-86v-172h86z" />
    <glyph glyph-name="Q" unicode="Q" 
d="M86 500q0 35 12.5 64.5t35 52t52.5 35t64 12.5q35 0 64.5 -12.5t52 -35t35 -52t12.5 -64.5v-250q0 -42 -14 -69t-43 -56q29 -29 43 -56t14 -69h-78q0 19 -7 34t-18 27q-12 11 -27 18t-34 7q-34 0 -64 12.5t-52.5 35t-35 52.5t-12.5 64v250zM164 250q0 -19 7 -34t18 -27
q12 -11 27 -18t34 -7t34 7t27 18q11 12 18 27t7 34v250q0 19 -7 34t-18 27q-12 11 -27 18t-34 7t-34 -7t-27 -18q-11 -12 -18 -27t-7 -34v-250z" />
    <glyph glyph-name="R" unicode="R" 
d="M86 86v578h164q35 0 64.5 -12.5t52 -35t35 -52t12.5 -64.5q0 -42 -14 -69t-43 -56q29 -29 43 -56t14 -69v-164h-78v164q0 19 -7 34t-18 27q-12 11 -27 18t-34 7h-86v-250h-78zM250 414q19 0 34 7t27 18q11 12 18 27t7 34t-7 34t-18 27q-12 11 -27 18t-34 7h-86v-172h86z
" />
    <glyph glyph-name="S" unicode="S" 
d="M86 500q0 35 12.5 64.5t35 52t52.5 35t64 12.5q35 0 64.5 -12.5t52 -35t35 -52t12.5 -64.5h-78q0 19 -7 34t-18 27q-12 11 -27 18t-34 7t-34 -7t-27 -18q-11 -12 -18 -27t-7 -34t7 -34t18 -27q12 -11 27 -18t34 -7q35 0 64.5 -12.5t52 -35t35 -52t12.5 -64.5
q0 -34 -12.5 -64t-35 -52.5t-52 -35t-64.5 -12.5q-34 0 -64 12.5t-52.5 35t-35 52.5t-12.5 64h78q0 -19 7 -34t18 -27q12 -11 27 -18t34 -7t34 7t27 18q11 12 18 27t7 34t-7 34t-18 27q-12 11 -27 18t-34 7q-34 0 -64 12.5t-52.5 35t-35 52.5t-12.5 64z" />
    <glyph glyph-name="T" unicode="T" 
d="M88 664h325v-78h-124v-500h-78v500h-123v78z" />
    <glyph glyph-name="U" unicode="U" 
d="M164 664v-414q0 -19 7 -34t18 -27q12 -11 27 -18t34 -7t34 7t27 18q11 12 18 27t7 34v414h78v-414q0 -34 -12.5 -64t-35 -52.5t-52 -35t-64.5 -12.5q-34 0 -64 12.5t-52.5 35t-35 52.5t-12.5 64v414h78z" />
    <glyph glyph-name="V" unicode="V" 
d="M164 664v-500h86q19 0 34 7t27 18q11 12 18 27t7 34v414h78v-414q0 -34 -12.5 -64t-35 -52.5t-52 -35t-64.5 -12.5h-164v578h78z" />
    <glyph glyph-name="W" unicode="W" 
d="M155 86q-30 0 -52 11t-36 30t-20.5 45t-6.5 56v436h66v-414q0 -35 12.5 -60.5t47.5 -25.5t47.5 25.5t12.5 60.5v414h48v-414q0 -35 12.5 -60.5t47.5 -25.5t47.5 25.5t12.5 60.5v414h66v-436q0 -30 -6.5 -56t-20.5 -45t-36 -30t-52 -11q-38 0 -59.5 18.5t-35.5 50.5
q-13 -32 -35 -50.5t-60 -18.5z" />
    <glyph glyph-name="X" unicode="X" 
d="M86 664h78v-164q0 -19 7 -34t18 -27q12 -11 27 -18t34 -7t34 7t27 18q11 12 18 27t7 34v164h78v-164q0 -42 -14 -69t-43 -56q29 -29 43 -56t14 -69v-164h-78v164q0 19 -7 34t-18 27q-12 11 -27 18t-34 7t-34 -7t-27 -18q-11 -12 -18 -27t-7 -34v-164h-78v164q0 42 14 69
t43 56q-29 29 -43 56t-14 69v164z" />
    <glyph glyph-name="Y" unicode="Y" 
d="M86 500v164h78v-164q0 -19 7 -34t18 -27q12 -11 27 -18t34 -7h86v250h78v-578h-78v250h-86q-34 0 -64 12.5t-52.5 35t-35 52.5t-12.5 64z" />
    <glyph glyph-name="Z" unicode="Z" 
d="M86 664h328v-164q0 -34 -12.5 -64t-35 -52.5t-52 -35t-64.5 -12.5q-19 0 -34 -7t-27 -18q-11 -12 -18 -27t-7 -34v-86h250v-78h-328v164q0 35 12.5 64.5t35 52t52.5 35t64 12.5q19 0 34 7t27 18q11 12 18 27t7 34v86h-250v78z" />
    <glyph glyph-name="bracketleft" unicode="[" 
d="M211 664h164v-78h-86v-422h86v-78h-164v578z" />
    <glyph glyph-name="backslash" unicode="\" 
d="M86 664h78v-164q0 -19 7 -34t18 -27q12 -11 27 -18t34 -7q35 0 64.5 -12.5t52 -35t35 -52t12.5 -64.5v-164h-78v164q0 19 -7 34t-18 27q-12 11 -27 18t-34 7q-34 0 -64 12.5t-52.5 35t-35 52.5t-12.5 64v164z" />
    <glyph glyph-name="bracketright" unicode="]" 
d="M125 164h86v422h-86v78h164v-578h-164v78z" />
    <glyph glyph-name="asciicircum" unicode="^" 
d="M125 664q19 0 34 7t27 18q11 12 18 27t7 34h78q0 -19 7 -34t18 -27q12 -11 27 -18t34 -7v-78q-42 0 -69 14t-56 43q-29 -29 -56 -43t-69 -14v78z" />
    <glyph glyph-name="underscore" unicode="_" 
d="M125 164h250v-78h-250v78z" />
    <glyph glyph-name="grave" unicode="`" 
d="M86 750h78q0 -19 7 -34t18 -27q12 -11 27 -18t34 -7v-78q-34 0 -64 12.5t-52.5 35t-35 52.5t-12.5 64z" />
    <glyph glyph-name="a" unicode="a" 
d="M86 500q0 35 12.5 64.5t35 52t52.5 35t64 12.5q35 0 64.5 -12.5t52 -35t35 -52t12.5 -64.5v-414h-78v250h-172v-250h-78v414zM336 414v86q0 19 -7 34t-18 27q-12 11 -27 18t-34 7t-34 -7t-27 -18q-11 -12 -18 -27t-7 -34v-86h172z" />
    <glyph glyph-name="b" unicode="b" 
d="M86 86v578h164q35 0 64.5 -12.5t52 -35t35 -52t12.5 -64.5q0 -42 -14 -69t-43 -56q29 -29 43 -56t14 -69q0 -34 -12.5 -64t-35 -52.5t-52 -35t-64.5 -12.5h-164zM250 414q19 0 34 7t27 18q11 12 18 27t7 34t-7 34t-18 27q-12 11 -27 18t-34 7h-86v-172h86zM164 336v-172
h86q19 0 34 7t27 18q11 12 18 27t7 34t-7 34t-18 27q-12 11 -27 18t-34 7h-86z" />
    <glyph glyph-name="c" unicode="c" 
d="M86 500q0 35 12.5 64.5t35 52t52.5 35t64 12.5q35 0 64.5 -12.5t52 -35t35 -52t12.5 -64.5h-78q0 19 -7 34t-18 27q-12 11 -27 18t-34 7t-34 -7t-27 -18q-11 -12 -18 -27t-7 -34v-250q0 -19 7 -34t18 -27q12 -11 27 -18t34 -7t34 7t27 18q11 12 18 27t7 34h78
q0 -34 -12.5 -64t-35 -52.5t-52 -35t-64.5 -12.5q-34 0 -64 12.5t-52.5 35t-35 52.5t-12.5 64v250z" />
    <glyph glyph-name="d" unicode="d" 
d="M250 664q35 0 64.5 -12.5t52 -35t35 -52t12.5 -64.5v-250q0 -34 -12.5 -64t-35 -52.5t-52 -35t-64.5 -12.5h-164v578h164zM164 586v-422h86q19 0 34 7t27 18q11 12 18 27t7 34v250q0 19 -7 34t-18 27q-12 11 -27 18t-34 7h-86z" />
    <glyph glyph-name="e" unicode="e" 
d="M86 664h328v-78h-250v-172h250v-78h-250v-172h250v-78h-328v578z" />
    <glyph glyph-name="f" unicode="f" 
d="M86 86v578h328v-78h-250v-172h250v-78h-250v-250h-78z" />
    <glyph glyph-name="g" unicode="g" 
d="M86 500q0 35 12.5 64.5t35 52t52.5 35t64 12.5q35 0 64.5 -12.5t52 -35t35 -52t12.5 -64.5h-78q0 19 -7 34t-18 27q-12 11 -27 18t-34 7t-34 -7t-27 -18q-11 -12 -18 -27t-7 -34v-250q0 -19 7 -34t18 -27q12 -11 27 -18t34 -7t34 7t27 18q11 12 18 27t7 34v86h-86v78h164
v-164q0 -34 -12.5 -64t-35 -52.5t-52 -35t-64.5 -12.5q-34 0 -64 12.5t-52.5 35t-35 52.5t-12.5 64v250z" />
    <glyph glyph-name="h" unicode="h" 
d="M164 664v-250h172v250h78v-578h-78v250h-172v-250h-78v578h78z" />
    <glyph glyph-name="i" unicode="i" 
d="M103 86v78h108v422h-108v78h295v-78h-109v-422h109v-78h-295z" />
    <glyph glyph-name="j" unicode="j" 
d="M86 250h78q0 -19 7 -34t18 -27q12 -11 27 -18t34 -7t34 7t27 18q11 12 18 27t7 34v336h-112v78h190v-414q0 -34 -12.5 -64t-35 -52.5t-52 -35t-64.5 -12.5q-34 0 -64 12.5t-52.5 35t-35 52.5t-12.5 64z" />
    <glyph glyph-name="k" unicode="k" 
d="M164 664v-250h86q19 0 34 7t27 18q11 12 18 27t7 34v164h78v-164q0 -42 -14 -69t-43 -56q29 -29 43 -56t14 -69v-164h-78v164q0 19 -7 34t-18 27q-12 11 -27 18t-34 7h-86v-250h-78v578h78z" />
    <glyph glyph-name="l" unicode="l" 
d="M86 664h78v-500h250v-78h-328v578z" />
    <glyph glyph-name="m" unicode="m" 
d="M40 523q0 61 27 101t88 40q38 0 60 -18.5t35 -50.5q13 32 35 50.5t60 18.5q61 0 88 -40t27 -101v-437h-66v414q0 35 -12.5 60.5t-47.5 25.5t-47.5 -25.5t-12.5 -60.5v-414h-48v414q0 35 -12.5 60.5t-47.5 25.5t-47.5 -25.5t-12.5 -60.5v-414h-66v437z" />
    <glyph glyph-name="n" unicode="n" 
d="M86 86v578h164q35 0 64.5 -12.5t52 -35t35 -52t12.5 -64.5v-414h-78v414q0 19 -7 34t-18 27q-12 11 -27 18t-34 7h-86v-500h-78z" />
    <glyph glyph-name="o" unicode="o" 
d="M86 500q0 35 12.5 64.5t35 52t52.5 35t64 12.5q35 0 64.5 -12.5t52 -35t35 -52t12.5 -64.5v-250q0 -34 -12.5 -64t-35 -52.5t-52 -35t-64.5 -12.5q-34 0 -64 12.5t-52.5 35t-35 52.5t-12.5 64v250zM164 250q0 -19 7 -34t18 -27q12 -11 27 -18t34 -7t34 7t27 18
q11 12 18 27t7 34v250q0 19 -7 34t-18 27q-12 11 -27 18t-34 7t-34 -7t-27 -18q-11 -12 -18 -27t-7 -34v-250z" />
    <glyph glyph-name="p" unicode="p" 
d="M86 86v578h164q35 0 64.5 -12.5t52 -35t35 -52t12.5 -64.5q0 -34 -12.5 -64t-35 -52.5t-52 -35t-64.5 -12.5h-86v-250h-78zM250 414q19 0 34 7t27 18q11 12 18 27t7 34t-7 34t-18 27q-12 11 -27 18t-34 7h-86v-172h86z" />
    <glyph glyph-name="q" unicode="q" 
d="M86 500q0 35 12.5 64.5t35 52t52.5 35t64 12.5q35 0 64.5 -12.5t52 -35t35 -52t12.5 -64.5v-250q0 -42 -14 -69t-43 -56q29 -29 43 -56t14 -69h-78q0 19 -7 34t-18 27q-12 11 -27 18t-34 7q-34 0 -64 12.5t-52.5 35t-35 52.5t-12.5 64v250zM164 250q0 -19 7 -34t18 -27
q12 -11 27 -18t34 -7t34 7t27 18q11 12 18 27t7 34v250q0 19 -7 34t-18 27q-12 11 -27 18t-34 7t-34 -7t-27 -18q-11 -12 -18 -27t-7 -34v-250z" />
    <glyph glyph-name="r" unicode="r" 
d="M86 86v578h164q35 0 64.5 -12.5t52 -35t35 -52t12.5 -64.5q0 -42 -14 -69t-43 -56q29 -29 43 -56t14 -69v-164h-78v164q0 19 -7 34t-18 27q-12 11 -27 18t-34 7h-86v-250h-78zM250 414q19 0 34 7t27 18q11 12 18 27t7 34t-7 34t-18 27q-12 11 -27 18t-34 7h-86v-172h86z
" />
    <glyph glyph-name="s" unicode="s" 
d="M86 500q0 35 12.5 64.5t35 52t52.5 35t64 12.5q35 0 64.5 -12.5t52 -35t35 -52t12.5 -64.5h-78q0 19 -7 34t-18 27q-12 11 -27 18t-34 7t-34 -7t-27 -18q-11 -12 -18 -27t-7 -34t7 -34t18 -27q12 -11 27 -18t34 -7q35 0 64.5 -12.5t52 -35t35 -52t12.5 -64.5
q0 -34 -12.5 -64t-35 -52.5t-52 -35t-64.5 -12.5q-34 0 -64 12.5t-52.5 35t-35 52.5t-12.5 64h78q0 -19 7 -34t18 -27q12 -11 27 -18t34 -7t34 7t27 18q11 12 18 27t7 34t-7 34t-18 27q-12 11 -27 18t-34 7q-34 0 -64 12.5t-52.5 35t-35 52.5t-12.5 64z" />
    <glyph glyph-name="t" unicode="t" 
d="M88 664h325v-78h-124v-500h-78v500h-123v78z" />
    <glyph glyph-name="u" unicode="u" 
d="M164 664v-414q0 -19 7 -34t18 -27q12 -11 27 -18t34 -7t34 7t27 18q11 12 18 27t7 34v414h78v-414q0 -34 -12.5 -64t-35 -52.5t-52 -35t-64.5 -12.5q-34 0 -64 12.5t-52.5 35t-35 52.5t-12.5 64v414h78z" />
    <glyph glyph-name="v" unicode="v" 
d="M164 664v-500h86q19 0 34 7t27 18q11 12 18 27t7 34v414h78v-414q0 -34 -12.5 -64t-35 -52.5t-52 -35t-64.5 -12.5h-164v578h78z" />
    <glyph glyph-name="w" unicode="w" 
d="M155 86q-30 0 -52 11t-36 30t-20.5 45t-6.5 56v436h66v-414q0 -35 12.5 -60.5t47.5 -25.5t47.5 25.5t12.5 60.5v414h48v-414q0 -35 12.5 -60.5t47.5 -25.5t47.5 25.5t12.5 60.5v414h66v-436q0 -30 -6.5 -56t-20.5 -45t-36 -30t-52 -11q-38 0 -59.5 18.5t-35.5 50.5
q-13 -32 -35 -50.5t-60 -18.5z" />
    <glyph glyph-name="x" unicode="x" 
d="M86 664h78v-164q0 -19 7 -34t18 -27q12 -11 27 -18t34 -7t34 7t27 18q11 12 18 27t7 34v164h78v-164q0 -42 -14 -69t-43 -56q29 -29 43 -56t14 -69v-164h-78v164q0 19 -7 34t-18 27q-12 11 -27 18t-34 7t-34 -7t-27 -18q-11 -12 -18 -27t-7 -34v-164h-78v164q0 42 14 69
t43 56q-29 29 -43 56t-14 69v164z" />
    <glyph glyph-name="y" unicode="y" 
d="M86 500v164h78v-164q0 -19 7 -34t18 -27q12 -11 27 -18t34 -7h86v250h78v-578h-78v250h-86q-34 0 -64 12.5t-52.5 35t-35 52.5t-12.5 64z" />
    <glyph glyph-name="z" unicode="z" 
d="M86 664h328v-164q0 -34 -12.5 -64t-35 -52.5t-52 -35t-64.5 -12.5q-19 0 -34 -7t-27 -18q-11 -12 -18 -27t-7 -34v-86h250v-78h-328v164q0 35 12.5 64.5t35 52t52.5 35t64 12.5q19 0 34 7t27 18q11 12 18 27t7 34v86h-250v78z" />
    <glyph glyph-name="braceleft" unicode="{" 
d="M186 311q-12 11 -27 18t-34 7v78q19 0 34 7t27 18q11 12 18 27t7 34q0 35 12.5 64.5t35 52t52.5 35t64 12.5v-78q-19 0 -34 -7t-27 -18q-11 -12 -18 -27t-7 -34q0 -42 -14 -69t-43 -56q29 -29 43 -56t14 -69q0 -19 7 -34t18 -27q12 -11 27 -18t34 -7v-78q-34 0 -64 12.5
t-52.5 35t-35 52.5t-12.5 64q0 19 -7 34t-18 27z" />
    <glyph glyph-name="bar" unicode="|" 
d="M211 0v750h78v-750h-78z" />
    <glyph glyph-name="braceright" unicode="}" 
d="M186 189q11 12 18 27t7 34q0 42 14 69t43 56q-29 29 -43 56t-14 69q0 19 -7 34t-18 27q-12 11 -27 18t-34 7v78q35 0 64.5 -12.5t52 -35t35 -52t12.5 -64.5q0 -19 7 -34t18 -27q12 -11 27 -18t34 -7v-78q-19 0 -34 -7t-27 -18q-11 -12 -18 -27t-7 -34q0 -34 -12.5 -64
t-35 -52.5t-52 -35t-64.5 -12.5v78q19 0 34 7t27 18z" />
    <glyph glyph-name="asciitilde" unicode="~" 
d="M86 250q0 35 12.5 64.5t35 52t52.5 35t64 12.5q19 0 34 7t27 18q11 12 18 27t7 34h78q0 -34 -12.5 -64t-35 -52.5t-52 -35t-64.5 -12.5q-19 0 -34 -7t-27 -18q-11 -12 -18 -27t-7 -34h-78z" />
    <glyph glyph-name="uni00A0" unicode="&#xa0;" 
 />
    <glyph glyph-name="exclamdown" unicode="&#xa1;" 
d="M211 414h78v-328h-78v328zM211 500v164h78v-164h-78z" />
    <glyph glyph-name="cent" unicode="&#xa2;" 
d="M86 500q0 35 12.5 64.5t35 52t52.5 35t64 12.5q19 0 34 7t27 18q11 12 18 27t7 34h78q0 -42 -14 -69t-43 -56q29 -29 43 -56t14 -69h-78q0 19 -7 34t-18 27q-12 11 -27 18t-34 7t-34 -7t-27 -18q-11 -12 -18 -27t-7 -34v-250q0 -19 7 -34t18 -27q12 -11 27 -18t34 -7
t34 7t27 18q11 12 18 27t7 34h78q0 -34 -12.5 -64t-35 -52.5t-52 -35t-64.5 -12.5q-19 0 -34 -7t-27 -18q-11 -12 -18 -27t-7 -34h-78q0 42 14 69t43 56q-29 29 -43 56t-14 69v250z" />
    <glyph glyph-name="sterling" unicode="&#xa3;" 
d="M86 500q0 35 12.5 64.5t35 52t52.5 35t64 12.5q35 0 64.5 -12.5t52 -35t35 -52t12.5 -64.5h-78q0 19 -7 34t-18 27q-12 11 -27 18t-34 7t-34 -7t-27 -18q-11 -12 -18 -27t-7 -34v-86h250v-78h-250v-172h250v-78h-328v414z" />
    <glyph glyph-name="currency" unicode="&#xa4;" 
d="M86 250q0 42 14 69t43 56q-29 29 -43 56t-14 69h78q0 -19 7 -34t18 -27q12 -11 27 -18t34 -7t34 7t27 18q11 12 18 27t7 34h78q0 -42 -14 -69t-43 -56q29 -29 43 -56t14 -69t-14 -69t-43 -56q29 -29 43 -56t14 -69h-78q0 19 -7 34t-18 27q-12 11 -27 18t-34 7t-34 -7
t-27 -18q-11 -12 -18 -27t-7 -34h-78q0 42 14 69t43 56q-29 29 -43 56t-14 69zM189 189q12 -11 27 -18t34 -7t34 7t27 18q11 12 18 27t7 34t-7 34t-18 27q-12 11 -27 18t-34 7t-34 -7t-27 -18q-11 -12 -18 -27t-7 -34t7 -34t18 -27z" />
    <glyph glyph-name="yen" unicode="&#xa5;" 
d="M86 500v164h78v-164q0 -19 7 -34t18 -27q12 -11 27 -18t34 -7h86v250h78v-664h-78v86h-123v78h123v172h-86q-34 0 -64 12.5t-52.5 35t-35 52.5t-12.5 64z" />
    <glyph glyph-name="brokenbar" unicode="&#xa6;" 
d="M289 250v-250h-78v250h78zM211 500v250h78v-250h-78z" />
    <glyph glyph-name="section" unicode="&#xa7;" 
d="M336 250q0 19 -7 34t-18 27q-12 11 -27 18t-34 7t-34 -7t-27 -18q-11 -12 -18 -27t-7 -34t7 -34t18 -27q12 -11 27 -18t34 -7t34 7t27 18q11 12 18 27t7 34zM250 86q-34 0 -64 12.5t-52.5 35t-35 52.5t-12.5 64q0 42 14 69t43 56q-29 29 -43 56t-14 69q0 35 12.5 64.5
t35 52t52.5 35t64 12.5q35 0 64.5 -12.5t52 -35t35 -52t12.5 -64.5h-78q0 19 -7 34t-18 27q-12 11 -27 18t-34 7t-34 -7t-27 -18q-11 -12 -18 -27t-7 -34t7 -34t18 -27q12 -11 27 -18t34 -7q35 0 64.5 -12.5t52 -35t35 -52t12.5 -64.5q0 -42 -14 -69t-43 -56q29 -29 43 -56
t14 -69h-78q0 19 -7 34t-18 27q-12 11 -27 18t-34 7z" />
    <glyph glyph-name="dieresis" unicode="&#xa8;" 
d="M336 750h78v-164h-78v164zM86 586v164h78v-164h-78z" />
    <glyph glyph-name="copyright" unicode="&#xa9;" 
d="M86 500q0 35 12.5 64.5t35 52t52.5 35t64 12.5q35 0 64.5 -12.5t52 -35t35 -52t12.5 -64.5h-78q0 19 -7 34t-18 27q-12 11 -27 18t-34 7t-34 -7t-27 -18q-11 -12 -18 -27t-7 -34v-250q0 -19 7 -34t18 -27q12 -11 27 -18t34 -7t34 7t27 18q11 12 18 27t7 34h78
q0 -34 -12.5 -64t-35 -52.5t-52 -35t-64.5 -12.5q-34 0 -64 12.5t-52.5 35t-35 52.5t-12.5 64v250z" />
    <glyph glyph-name="ordfeminine" unicode="&#xaa;" 
d="M86 500q0 35 12.5 64.5t35 52t52.5 35t64 12.5h164v-328h-164q-34 0 -64 12.5t-52.5 35t-35 52.5t-12.5 64zM164 500q0 -19 7 -34t18 -27q12 -11 27 -18t34 -7h86v172h-86q-19 0 -34 -7t-27 -18q-11 -12 -18 -27t-7 -34z" />
    <glyph glyph-name="guillemotleft" unicode="&#xab;" 
d="M250 414q19 0 34 7t27 18q11 12 18 27t7 34h78q0 -42 -14 -69t-43 -56q29 -29 43 -56t14 -69h-78q0 19 -7 34t-18 27q-12 11 -27 18t-34 7v78zM0 336v78q19 0 34 7t27 18q11 12 18 27t7 34h78q0 -42 -14 -69t-43 -56q29 -29 43 -56t14 -69h-78q0 19 -7 34t-18 27
q-12 11 -27 18t-34 7z" />
    <glyph glyph-name="logicalnot" unicode="&#xac;" 
d="M414 414v-164h-78v86h-250v78h328z" />
    <glyph glyph-name="uni00AD" unicode="&#xad;" 
 />
    <glyph glyph-name="registered" unicode="&#xae;" 
d="M86 86v578h164q35 0 64.5 -12.5t52 -35t35 -52t12.5 -64.5q0 -42 -14 -69t-43 -56q29 -29 43 -56t14 -69v-164h-78v164q0 19 -7 34t-18 27q-12 11 -27 18t-34 7h-86v-250h-78zM250 414q19 0 34 7t27 18q11 12 18 27t7 34t-7 34t-18 27q-12 11 -27 18t-34 7h-86v-172h86z
" />
    <glyph glyph-name="macron" unicode="&#xaf;" 
d="M125 664h250v-78h-250v78z" />
    <glyph glyph-name="degree" unicode="&#xb0;" 
d="M86 500q0 35 12.5 64.5t35 52t52.5 35t64 12.5q35 0 64.5 -12.5t52 -35t35 -52t12.5 -64.5q0 -34 -12.5 -64t-35 -52.5t-52 -35t-64.5 -12.5q-34 0 -64 12.5t-52.5 35t-35 52.5t-12.5 64zM189 561q-11 -12 -18 -27t-7 -34t7 -34t18 -27q12 -11 27 -18t34 -7t34 7t27 18
q11 12 18 27t7 34t-7 34t-18 27q-12 11 -27 18t-34 7t-34 -7t-27 -18z" />
    <glyph glyph-name="plusminus" unicode="&#xb1;" 
d="M99 514h112v112h78v-112h112v-78h-112v-112h-78v112h-112v78zM99 195h302v-77h-302v77z" />
    <glyph glyph-name="twosuperior" unicode="&#xb2;" 
d="M86 250q0 35 12.5 64.5t35 52t52.5 35t64 12.5q19 0 34 7t27 18q11 12 18 27t7 34t-7 34t-18 27q-12 11 -27 18t-34 7t-34 -7t-27 -18q-11 -12 -18 -27t-7 -34h-78q0 35 12.5 64.5t35 52t52.5 35t64 12.5q35 0 64.5 -12.5t52 -35t35 -52t12.5 -64.5q0 -34 -12.5 -64
t-35 -52.5t-52 -35t-64.5 -12.5q-19 0 -34 -7t-27 -18q-11 -12 -18 -27t-7 -34v-86h250v-78h-328v164z" />
    <glyph glyph-name="threesuperior" unicode="&#xb3;" 
d="M164 500h-78q0 35 12.5 64.5t35 52t52.5 35t64 12.5q35 0 64.5 -12.5t52 -35t35 -52t12.5 -64.5q0 -42 -14 -69t-43 -56q29 -29 43 -56t14 -69q0 -34 -12.5 -64t-35 -52.5t-52 -35t-64.5 -12.5q-34 0 -64 12.5t-52.5 35t-35 52.5t-12.5 64h78q0 -19 7 -34t18 -27
q12 -11 27 -18t34 -7t34 7t27 18q11 12 18 27t7 34t-7 34t-18 27q-12 11 -27 18t-34 7v78q19 0 34 7t27 18q11 12 18 27t7 34t-7 34t-18 27q-12 11 -27 18t-34 7t-34 -7t-27 -18q-11 -12 -18 -27t-7 -34z" />
    <glyph glyph-name="acute" unicode="&#xb4;" 
d="M250 664q19 0 34 7t27 18q11 12 18 27t7 34h78q0 -34 -12.5 -64t-35 -52.5t-52 -35t-64.5 -12.5v78z" />
    <glyph glyph-name="mu" unicode="&#xb5;" 
d="M164 664v-414q0 -19 7 -34t18 -27q12 -11 27 -18t34 -7t34 7t27 18q11 12 18 27t7 34v414h78v-414q0 -34 -12.5 -64t-35 -52.5t-52 -35t-64.5 -12.5q-34 0 -64 12.5t-52.5 35t-35 52.5t-12.5 64v414h78z" />
    <glyph glyph-name="paragraph" unicode="&#xb6;" 
d="M79 500q0 35 12.5 65t34.5 52t52 34.5t65 12.5h175v-578h-59v500h-95v-500h-59v254q-28 6 -51.5 21t-40 36.5t-25.5 47.5t-9 55zM156 500q0 -23 13.5 -45t35.5 -32v154q-22 -10 -35.5 -32t-13.5 -45z" />
    <glyph glyph-name="periodcentered" unicode="&#xb7;" 
d="M289 500v-164h-78v164h78z" />
    <glyph glyph-name="cedilla" unicode="&#xb8;" 
d="M211 0q0 35 12.5 64.5t35 52t52.5 35t64 12.5v-78q-19 0 -34 -7t-27 -18q-11 -12 -18 -27t-7 -34h-78z" />
    <glyph glyph-name="onesuperior" unicode="&#xb9;" 
d="M99 164h112v422h-112v78h190v-500h112v-78h-302v78z" />
    <glyph glyph-name="ordmasculine" unicode="&#xba;" 
d="M86 500q0 35 12.5 64.5t35 52t52.5 35t64 12.5q35 0 64.5 -12.5t52 -35t35 -52t12.5 -64.5q0 -34 -12.5 -64t-35 -52.5t-52 -35t-64.5 -12.5q-34 0 -64 12.5t-52.5 35t-35 52.5t-12.5 64zM189 561q-11 -12 -18 -27t-7 -34t7 -34t18 -27q12 -11 27 -18t34 -7t34 7t27 18
q11 12 18 27t7 34t-7 34t-18 27q-12 11 -27 18t-34 7t-34 -7t-27 -18z" />
    <glyph glyph-name="guillemotright" unicode="&#xbb;" 
d="M251 406q0 -27 -18 -45l-47 47q-1 -1 -1 -2h1h65zM188 408q14 0 25.5 -5.5t19.5 -13.5l-47 -47q2 -2 2 0v1v65zM186 344h-1q0 -1 1 -2l47 47q18 -16 18 -45h-65zM188 408v1q-1 0 -2 -1l47 -47q-18 -18 -45 -18v65zM314 406q0 -27 -18 -45l-47 47q-1 -1 -1 -2h1h65z
M250 408q14 0 26 -5.5t20 -13.5l-47 -47q1 -1 1 0v1v65zM249 344h-1q0 -1 1 -2l47 47q18 -16 18 -45h-65zM250 408v1l-1 -1l47 -47q-18 -18 -46 -18v65zM251 406q0 -27 -18 -45l-47 47q-1 -1 -1 -2h1h65zM188 408q14 0 25.5 -5.5t19.5 -13.5l-47 -47q2 -2 2 0v1v65zM186 344
h-1q0 -1 1 -2l47 47q18 -16 18 -45h-65zM188 408v1q-1 0 -2 -1l47 -47q-18 -18 -45 -18v65zM314 406q0 -27 -18 -45l-47 47q-1 -1 -1 -2h1h65zM250 408q14 0 26 -5.5t20 -13.5l-47 -47q1 -1 1 0v1v65zM249 344h-1q0 -1 1 -2l47 47q18 -16 18 -45h-65zM250 408v1l-1 -1
l47 -47q-18 -18 -46 -18v65z" />
    <glyph glyph-name="onequarter" unicode="&#xbc;" 
d="M86 250q0 35 12.5 64.5t35 52t52.5 35t64 12.5q19 0 34 7t27 18q11 12 18 27t7 34v164h78v-164q0 -34 -12.5 -64t-35 -52.5t-52 -35t-64.5 -12.5q-19 0 -34 -7t-27 -18q-11 -12 -18 -27t-7 -34v-164h-78v164zM328 250v-86h86v-78h-164v164h78zM171 664v-195h-77v195h77z
" />
    <glyph glyph-name="onehalf" unicode="&#xbd;" 
d="M86 86v164q0 35 12.5 64.5t35 52t52.5 35t64 12.5q19 0 34 7t27 18q11 12 18 27t7 34v164h78v-164q0 -34 -12.5 -64t-35 -52.5t-52 -35t-64.5 -12.5q-19 0 -34 -7t-27 -18q-11 -12 -18 -27t-7 -34v-164h-78zM250 250q35 0 65 -12.5t52 -34.5t34.5 -52t12.5 -65h-78
q0 18 -7 33.5t-18.5 27.5t-27 19t-33.5 7v77zM94 658h77v-177h-77v177z" />
    <glyph glyph-name="threequarters" unicode="&#xbe;" 
d="M86 250q0 35 12.5 64.5t35 52t52.5 35t64 12.5q19 0 34 7t27 18q11 12 18 27t7 34v164h78v-164q0 -34 -12.5 -64t-35 -52.5t-52 -35t-64.5 -12.5q-19 0 -34 -7t-27 -18q-11 -12 -18 -27t-7 -34v-164h-78v164zM250 86v164h78v-86h86v-78h-164zM86 578q18 0 33.5 7
t27.5 18.5t19 27t7 33.5h77q0 -35 -12.5 -65t-34.5 -52t-52 -34.5t-65 -12.5v78z" />
    <glyph glyph-name="questiondown" unicode="&#xbf;" 
d="M86 250q0 35 12.5 64.5t35 52t52.5 35t64 12.5q19 0 34 7t27 18q11 12 18 27t7 34t-7 34t-18 27q-12 11 -27 18t-34 7t-34 -7t-27 -18q-11 -12 -18 -27t-7 -34h-78q0 35 12.5 64.5t35 52t52.5 35t64 12.5q35 0 64.5 -12.5t52 -35t35 -52t12.5 -64.5q0 -34 -12.5 -64
t-35 -52.5t-52 -35t-64.5 -12.5q-19 0 -34 -7t-27 -18q-11 -12 -18 -27t-7 -34h-78zM86 0v164h78v-164h-78z" />
    <glyph glyph-name="Agrave" unicode="&#xc0;" 
d="M86 500q0 42 14 69t43 56q-29 29 -43 56t-14 69h78q0 -19 7 -34t18 -27q12 -11 27 -18t34 -7q35 0 64.5 -12.5t52 -35t35 -52t12.5 -64.5v-414h-78v250h-172v-250h-78v414zM336 414v86q0 19 -7 34t-18 27q-12 11 -27 18t-34 7t-34 -7t-27 -18q-11 -12 -18 -27t-7 -34v-86
h172z" />
    <glyph glyph-name="Aacute" unicode="&#xc1;" 
d="M86 500q0 35 12.5 64.5t35 52t52.5 35t64 12.5q19 0 34 7t27 18q11 12 18 27t7 34h78q0 -42 -14 -69t-43 -56q29 -29 43 -56t14 -69v-414h-78v250h-172v-250h-78v414zM336 414v86q0 19 -7 34t-18 27q-12 11 -27 18t-34 7t-34 -7t-27 -18q-11 -12 -18 -27t-7 -34v-86h172z
" />
    <glyph glyph-name="Acircumflex" unicode="&#xc2;" 
d="M86 0v250q0 35 12.5 64.5t35 52t52.5 35t64 12.5q35 0 64.5 -12.5t52 -35t35 -52t12.5 -64.5v-250h-78v86h-172v-86h-78zM86 500q0 35 12.5 64.5t35 52t52.5 35t64 12.5q35 0 64.5 -12.5t52 -35t35 -52t12.5 -64.5h-78q0 19 -7 34t-18 27q-12 11 -27 18t-34 7t-34 -7
t-27 -18q-11 -12 -18 -27t-7 -34h-78zM336 164v86q0 19 -7 34t-18 27q-12 11 -27 18t-34 7t-34 -7t-27 -18q-11 -12 -18 -27t-7 -34v-86h172z" />
    <glyph glyph-name="Atilde" unicode="&#xc3;" 
d="M86 250q0 35 12.5 64.5t35 52t52.5 35t64 12.5q35 0 64.5 -12.5t52 -35t35 -52t12.5 -64.5v-250h-78v86h-172v-86h-78v250zM86 500q0 35 12.5 64.5t35 52t52.5 35t64 12.5q19 0 34 7t27 18q11 12 18 27t7 34h78q0 -34 -12.5 -64t-35 -52.5t-52 -35t-64.5 -12.5
q-19 0 -34 -7t-27 -18q-11 -12 -18 -27t-7 -34h-78zM336 164v86q0 19 -7 34t-18 27q-12 11 -27 18t-34 7t-34 -7t-27 -18q-11 -12 -18 -27t-7 -34v-86h172z" />
    <glyph glyph-name="Adieresis" unicode="&#xc4;" 
d="M86 250q0 20 5.5 40.5t15.5 39.5t24.5 34.5t32.5 25.5q36 24 86 24t86 -24q18 -10 32.5 -25.5t24.5 -34.5t15.5 -39.5t5.5 -40.5v-250h-78v86h-172v-86h-78v250zM336 164v86q0 19 -7 34t-18 27q-12 11 -27 18t-34 7t-34 -7t-27 -18q-11 -12 -18 -27t-7 -34v-86h172z
M336 500v164h78v-164h-78zM86 664h78v-164h-78v164z" />
    <glyph glyph-name="Aring" unicode="&#xc5;" 
d="M86 250q0 42 14 69t43 56q-29 29 -43 56t-14 69q0 35 12.5 64.5t35 52t52.5 35t64 12.5q35 0 64.5 -12.5t52 -35t35 -52t12.5 -64.5q0 -42 -14 -69t-43 -56q29 -29 43 -56t14 -69v-250h-78v86h-172v-86h-78v250zM336 164v86q0 19 -7 34t-18 27q-12 11 -27 18t-34 7
t-34 -7t-27 -18q-11 -12 -18 -27t-7 -34v-86h172zM164 500q0 -19 7 -34t18 -27q12 -11 27 -18t34 -7t34 7t27 18q11 12 18 27t7 34t-7 34t-18 27q-12 11 -27 18t-34 7t-34 -7t-27 -18q-11 -12 -18 -27t-7 -34z" />
    <glyph glyph-name="AE" unicode="&#xc6;" 
d="M30 500q0 35 12.5 65t34.5 52t52 34.5t65 12.5h276v-78h-181v-172h181v-78h-181v-172h181v-78h-232v250h-130v-250h-78v414zM238 414v172h-44q-19 0 -34 -7t-27 -18q-11 -12 -18 -27t-7 -34v-86h130z" />
    <glyph glyph-name="Ccedilla" unicode="&#xc7;" 
d="M86 500q0 35 12.5 64.5t35 52t52.5 35t64 12.5q35 0 64.5 -12.5t52 -35t35 -52t12.5 -64.5h-78q0 19 -7 34t-18 27q-12 11 -27 18t-34 7t-34 -7t-27 -18q-11 -12 -18 -27t-7 -34v-250q0 -19 7 -34t18 -27q12 -11 27 -18t34 -7t34 7t27 18q11 12 18 27t7 34h78
q0 -34 -12.5 -64t-35 -52.5t-52 -35t-64.5 -12.5q-19 0 -34 -7t-27 -18q-11 -12 -18 -27t-7 -34h-78q0 42 14 69t43 56q-29 29 -43 56t-14 69v250z" />
    <glyph glyph-name="Egrave" unicode="&#xc8;" 
d="M164 336v-172h250v-78h-328v414q0 42 14 69t43 56q-29 29 -43 56t-14 69h78q0 -19 7 -34t18 -27q12 -11 27 -18t34 -7h164v-78h-164q-19 0 -34 -7t-27 -18q-11 -12 -18 -27t-7 -34v-86h250v-78h-250z" />
    <glyph glyph-name="Eacute" unicode="&#xc9;" 
d="M86 86v578h164q19 0 34 7t27 18q11 12 18 27t7 34h78q0 -34 -12.5 -64t-35 -52.5t-52 -35t-64.5 -12.5h-86v-172h250v-78h-250v-172h250v-78h-328z" />
    <glyph glyph-name="Ecircumflex" unicode="&#xca;" 
d="M86 250q0 35 12.5 64.5t35 52t52.5 35t64 12.5q35 0 64.5 -12.5t52 -35t35 -52t12.5 -64.5v-164h-250v-86h-78v250zM86 500q0 35 12.5 64.5t35 52t52.5 35t64 12.5q35 0 64.5 -12.5t52 -35t35 -52t12.5 -64.5h-78q0 19 -7 34t-18 27q-12 11 -27 18t-34 7t-34 -7t-27 -18
q-11 -12 -18 -27t-7 -34h-78zM164 164h172v86q0 19 -7 34t-18 27q-12 11 -27 18t-34 7t-34 -7t-27 -18q-11 -12 -18 -27t-7 -34v-86z" />
    <glyph glyph-name="Edieresis" unicode="&#xcb;" 
d="M164 750v-86h172v86h78v-164h-250v-172h250v-78h-250v-172h250v-78h-328v664h78z" />
    <glyph glyph-name="Igrave" unicode="&#xcc;" 
d="M211 86v414h78v-414h-78zM289 750q0 -19 7 -34t18 -27q12 -11 27 -18t34 -7v-78q-34 0 -64 12.5t-52.5 35t-35 52.5t-12.5 64h78z" />
    <glyph glyph-name="Iacute" unicode="&#xcd;" 
d="M211 500h78v-414h-78v414zM125 664q19 0 34 7t27 18q11 12 18 27t7 34h78q0 -34 -12.5 -64t-35 -52.5t-52 -35t-64.5 -12.5v78z" />
    <glyph glyph-name="Icircumflex" unicode="&#xce;" 
d="M289 500v-414h-78v414h78zM125 664q19 0 34 7t27 18q11 12 18 27t7 34h78q0 -19 7 -34t18 -27q12 -11 27 -18t34 -7v-78q-42 0 -69 14t-56 43q-29 -29 -56 -43t-69 -14v78z" />
    <glyph glyph-name="Idieresis" unicode="&#xcf;" 
d="M289 500v-414h-78v414h78zM125 586v78h250v-78h-250z" />
    <glyph glyph-name="Eth" unicode="&#xd0;" 
d="M86 86v578h164q35 0 64.5 -12.5t52 -35t35 -52t12.5 -64.5v-250q0 -34 -12.5 -64t-35 -52.5t-52 -35t-64.5 -12.5h-164zM164 336v-172h86q19 0 34 7t27 18q11 12 18 27t7 34v250q0 19 -7 34t-18 27q-12 11 -27 18t-34 7h-86v-172h86v-78h-86z" />
    <glyph glyph-name="Ntilde" unicode="&#xd1;" 
d="M86 86v328h164q35 0 64.5 -12.5t52 -35t35 -52t12.5 -64.5v-164h-78v164q0 19 -7 34t-18 27q-12 11 -27 18t-34 7h-86v-250h-78zM86 664h328v-78h-328v78z" />
    <glyph glyph-name="Ograve" unicode="&#xd2;" 
d="M86 500q0 42 14 69t43 56q-29 29 -43 56t-14 69h78q0 -19 7 -34t18 -27q12 -11 27 -18t34 -7q35 0 64.5 -12.5t52 -35t35 -52t12.5 -64.5v-250q0 -34 -12.5 -64t-35 -52.5t-52 -35t-64.5 -12.5q-34 0 -64 12.5t-52.5 35t-35 52.5t-12.5 64v250zM164 250q0 -19 7 -34
t18 -27q12 -11 27 -18t34 -7t34 7t27 18q11 12 18 27t7 34v250q0 19 -7 34t-18 27q-12 11 -27 18t-34 7t-34 -7t-27 -18q-11 -12 -18 -27t-7 -34v-250z" />
    <glyph glyph-name="Oacute" unicode="&#xd3;" 
d="M86 500q0 35 12.5 64.5t35 52t52.5 35t64 12.5q19 0 34 7t27 18q11 12 18 27t7 34h78q0 -42 -14 -69t-43 -56q29 -29 43 -56t14 -69v-250q0 -34 -12.5 -64t-35 -52.5t-52 -35t-64.5 -12.5q-34 0 -64 12.5t-52.5 35t-35 52.5t-12.5 64v250zM164 250q0 -19 7 -34t18 -27
q12 -11 27 -18t34 -7t34 7t27 18q11 12 18 27t7 34v250q0 19 -7 34t-18 27q-12 11 -27 18t-34 7t-34 -7t-27 -18q-11 -12 -18 -27t-7 -34v-250z" />
    <glyph glyph-name="Ocircumflex" unicode="&#xd4;" 
d="M86 250q0 35 12.5 64.5t35 52t52.5 35t64 12.5q35 0 64.5 -12.5t52 -35t35 -52t12.5 -64.5q0 -34 -12.5 -64t-35 -52.5t-52 -35t-64.5 -12.5q-34 0 -64 12.5t-52.5 35t-35 52.5t-12.5 64zM86 500q0 35 12.5 64.5t35 52t52.5 35t64 12.5q35 0 64.5 -12.5t52 -35t35 -52
t12.5 -64.5h-78q0 19 -7 34t-18 27q-12 11 -27 18t-34 7t-34 -7t-27 -18q-11 -12 -18 -27t-7 -34h-78zM189 189q12 -11 27 -18t34 -7t34 7t27 18q11 12 18 27t7 34t-7 34t-18 27q-12 11 -27 18t-34 7t-34 -7t-27 -18q-11 -12 -18 -27t-7 -34t7 -34t18 -27z" />
    <glyph glyph-name="Otilde" unicode="&#xd5;" 
d="M86 250q0 35 12.5 64.5t35 52t52.5 35t64 12.5q35 0 64.5 -12.5t52 -35t35 -52t12.5 -64.5q0 -34 -12.5 -64t-35 -52.5t-52 -35t-64.5 -12.5q-34 0 -64 12.5t-52.5 35t-35 52.5t-12.5 64zM86 500q0 35 12.5 64.5t35 52t52.5 35t64 12.5q19 0 34 7t27 18q11 12 18 27t7 34
h78q0 -34 -12.5 -64t-35 -52.5t-52 -35t-64.5 -12.5q-19 0 -34 -7t-27 -18q-11 -12 -18 -27t-7 -34h-78zM189 311q-11 -12 -18 -27t-7 -34t7 -34t18 -27q12 -11 27 -18t34 -7t34 7t27 18q11 12 18 27t7 34t-7 34t-18 27q-12 11 -27 18t-34 7t-34 -7t-27 -18z" />
    <glyph glyph-name="Odieresis" unicode="&#xd6;" 
d="M86 250q0 35 12.5 64.5t35 52t52.5 35t64 12.5q35 0 64.5 -12.5t52 -35t35 -52t12.5 -64.5q0 -34 -12.5 -64t-35 -52.5t-52 -35t-64.5 -12.5q-34 0 -64 12.5t-52.5 35t-35 52.5t-12.5 64zM164 250q0 -19 7 -34t18 -27q12 -11 27 -18t34 -7t34 7t27 18q11 12 18 27t7 34
t-7 34t-18 27q-12 11 -27 18t-34 7t-34 -7t-27 -18q-11 -12 -18 -27t-7 -34zM336 500v164h78v-164h-78zM86 664h78v-164h-78v164z" />
    <glyph glyph-name="multiply" unicode="&#xd7;" 
d="M86 500h78q0 -19 7 -34t18 -27q12 -11 27 -18t34 -7t34 7t27 18q11 12 18 27t7 34h78q0 -42 -14 -69t-43 -56q29 -29 43 -56t14 -69h-78q0 19 -7 34t-18 27q-12 11 -27 18t-34 7t-34 -7t-27 -18q-11 -12 -18 -27t-7 -34h-78q0 42 14 69t43 56q-29 29 -43 56t-14 69z" />
    <glyph glyph-name="Oslash" unicode="&#xd8;" 
d="M86 0q0 42 14 69t43 56q-29 29 -43 56t-14 69v250q0 35 12.5 64.5t35 52t52.5 35t64 12.5q19 0 34 7t27 18q11 12 18 27t7 34h78q0 -42 -14 -69t-43 -56q29 -29 43 -56t14 -69v-250q0 -34 -12.5 -64t-35 -52.5t-52 -35t-64.5 -12.5q-19 0 -34 -7t-27 -18q-11 -12 -18 -27
t-7 -34h-78zM164 250q0 -19 7 -34t18 -27q12 -11 27 -18t34 -7t34 7t27 18q11 12 18 27t7 34v250q0 19 -7 34t-18 27q-12 11 -27 18t-34 7t-34 -7t-27 -18q-11 -12 -18 -27t-7 -34v-250z" />
    <glyph glyph-name="Ugrave" unicode="&#xd9;" 
d="M164 500v-250q0 -19 7 -34t18 -27q12 -11 27 -18t34 -7t34 7t27 18q11 12 18 27t7 34v250h78v-250q0 -34 -12.5 -64t-35 -52.5t-52 -35t-64.5 -12.5q-34 0 -64 12.5t-52.5 35t-35 52.5t-12.5 64v250h78zM164 750q0 -19 7 -34t18 -27q12 -11 27 -18t34 -7v-78
q-34 0 -64 12.5t-52.5 35t-35 52.5t-12.5 64h78z" />
    <glyph glyph-name="Uacute" unicode="&#xda;" 
d="M86 500h78v-250q0 -19 7 -34t18 -27q12 -11 27 -18t34 -7t34 7t27 18q11 12 18 27t7 34v250h78v-250q0 -34 -12.5 -64t-35 -52.5t-52 -35t-64.5 -12.5q-34 0 -64 12.5t-52.5 35t-35 52.5t-12.5 64v250zM250 664q19 0 34 7t27 18q11 12 18 27t7 34h78q0 -34 -12.5 -64
t-35 -52.5t-52 -35t-64.5 -12.5v78z" />
    <glyph glyph-name="Ucircumflex" unicode="&#xdb;" 
d="M86 414h78v-164q0 -19 7 -34t18 -27q12 -11 27 -18t34 -7t34 7t27 18q11 12 18 27t7 34v164h78v-164q0 -34 -12.5 -64t-35 -52.5t-52 -35t-64.5 -12.5q-34 0 -64 12.5t-52.5 35t-35 52.5t-12.5 64v164zM86 500q0 35 12.5 64.5t35 52t52.5 35t64 12.5q35 0 64.5 -12.5
t52 -35t35 -52t12.5 -64.5h-78q0 19 -7 34t-18 27q-12 11 -27 18t-34 7t-34 -7t-27 -18q-11 -12 -18 -27t-7 -34h-78z" />
    <glyph glyph-name="Udieresis" unicode="&#xdc;" 
d="M86 500h78v-250q0 -19 7 -34t18 -27q12 -11 27 -18t34 -7t34 7t27 18q11 12 18 27t7 34v250h78v-250q0 -34 -12.5 -64t-35 -52.5t-52 -35t-64.5 -12.5q-34 0 -64 12.5t-52.5 35t-35 52.5t-12.5 64v250zM336 750h78v-164h-78v164zM86 586v164h78v-164h-78z" />
    <glyph glyph-name="Yacute" unicode="&#xdd;" 
d="M86 250v250h78v-250q0 -19 7 -34t18 -27q12 -11 27 -18t34 -7h86v336h78v-500h-78v86h-86q-34 0 -64 12.5t-52.5 35t-35 52.5t-12.5 64zM250 586v78q19 0 34 7t27 18q11 12 18 27t7 34h78q0 -34 -12.5 -64t-35 -52.5t-52 -35t-64.5 -12.5z" />
    <glyph glyph-name="Thorn" unicode="&#xde;" 
d="M164 664v-116h86q35 0 64.5 -12.5t52 -35t35 -52t12.5 -64.5t-12.5 -65t-34.5 -52t-52 -34.5t-65 -12.5h-86v-134h-78v578h78zM164 470v-172h86q19 0 34 7t27 18q11 12 18 27t7 34q0 18 -7 33.5t-18.5 27t-27 18.5t-33.5 7h-86z" />
    <glyph glyph-name="germandbls" unicode="&#xdf;" 
d="M86 500q0 35 12.5 64.5t35 52t52.5 35t64 12.5q35 0 64.5 -12.5t52 -35t35 -52t12.5 -64.5q0 -42 -14 -69t-43 -56q29 -29 43 -56t14 -69q0 -34 -12.5 -64t-35 -52.5t-52 -35t-64.5 -12.5v78q19 0 34 7t27 18q11 12 18 27t7 34t-7 34t-18 27q-12 11 -27 18t-34 7v78
q19 0 34 7t27 18q11 12 18 27t7 34t-7 34t-18 27q-12 11 -27 18t-34 7t-34 -7t-27 -18q-11 -12 -18 -27t-7 -34v-414h-78v414z" />
    <glyph glyph-name="agrave" unicode="&#xe0;" 
d="M86 500q0 42 14 69t43 56q-29 29 -43 56t-14 69h78q0 -19 7 -34t18 -27q12 -11 27 -18t34 -7q35 0 64.5 -12.5t52 -35t35 -52t12.5 -64.5v-414h-78v250h-172v-250h-78v414zM336 414v86q0 19 -7 34t-18 27q-12 11 -27 18t-34 7t-34 -7t-27 -18q-11 -12 -18 -27t-7 -34v-86
h172z" />
    <glyph glyph-name="aacute" unicode="&#xe1;" 
d="M86 500q0 35 12.5 64.5t35 52t52.5 35t64 12.5q19 0 34 7t27 18q11 12 18 27t7 34h78q0 -42 -14 -69t-43 -56q29 -29 43 -56t14 -69v-414h-78v250h-172v-250h-78v414zM336 414v86q0 19 -7 34t-18 27q-12 11 -27 18t-34 7t-34 -7t-27 -18q-11 -12 -18 -27t-7 -34v-86h172z
" />
    <glyph glyph-name="acircumflex" unicode="&#xe2;" 
d="M86 0v250q0 35 12.5 64.5t35 52t52.5 35t64 12.5q35 0 64.5 -12.5t52 -35t35 -52t12.5 -64.5v-250h-78v86h-172v-86h-78zM86 500q0 35 12.5 64.5t35 52t52.5 35t64 12.5q35 0 64.5 -12.5t52 -35t35 -52t12.5 -64.5h-78q0 19 -7 34t-18 27q-12 11 -27 18t-34 7t-34 -7
t-27 -18q-11 -12 -18 -27t-7 -34h-78zM336 164v86q0 19 -7 34t-18 27q-12 11 -27 18t-34 7t-34 -7t-27 -18q-11 -12 -18 -27t-7 -34v-86h172z" />
    <glyph glyph-name="atilde" unicode="&#xe3;" 
d="M86 250q0 35 12.5 64.5t35 52t52.5 35t64 12.5q35 0 64.5 -12.5t52 -35t35 -52t12.5 -64.5v-250h-78v86h-172v-86h-78v250zM86 500q0 35 12.5 64.5t35 52t52.5 35t64 12.5q19 0 34 7t27 18q11 12 18 27t7 34h78q0 -34 -12.5 -64t-35 -52.5t-52 -35t-64.5 -12.5
q-19 0 -34 -7t-27 -18q-11 -12 -18 -27t-7 -34h-78zM336 164v86q0 19 -7 34t-18 27q-12 11 -27 18t-34 7t-34 -7t-27 -18q-11 -12 -18 -27t-7 -34v-86h172z" />
    <glyph glyph-name="adieresis" unicode="&#xe4;" 
d="M86 250q0 20 5.5 40.5t15.5 39.5t24.5 34.5t32.5 25.5q36 24 86 24t86 -24q18 -10 32.5 -25.5t24.5 -34.5t15.5 -39.5t5.5 -40.5v-250h-78v86h-172v-86h-78v250zM336 164v86q0 19 -7 34t-18 27q-12 11 -27 18t-34 7t-34 -7t-27 -18q-11 -12 -18 -27t-7 -34v-86h172z
M336 500v164h78v-164h-78zM86 664h78v-164h-78v164z" />
    <glyph glyph-name="aring" unicode="&#xe5;" 
d="M86 250q0 42 14 69t43 56q-29 29 -43 56t-14 69q0 35 12.5 64.5t35 52t52.5 35t64 12.5q35 0 64.5 -12.5t52 -35t35 -52t12.5 -64.5q0 -42 -14 -69t-43 -56q29 -29 43 -56t14 -69v-250h-78v86h-172v-86h-78v250zM336 164v86q0 19 -7 34t-18 27q-12 11 -27 18t-34 7
t-34 -7t-27 -18q-11 -12 -18 -27t-7 -34v-86h172zM164 500q0 -19 7 -34t18 -27q12 -11 27 -18t34 -7t34 7t27 18q11 12 18 27t7 34t-7 34t-18 27q-12 11 -27 18t-34 7t-34 -7t-27 -18q-11 -12 -18 -27t-7 -34z" />
    <glyph glyph-name="ae" unicode="&#xe6;" 
d="M30 500q0 35 12.5 65t34.5 52t52 34.5t65 12.5h276v-78h-181v-172h181v-78h-181v-172h181v-78h-232v250h-130v-250h-78v414zM238 414v172h-44q-19 0 -34 -7t-27 -18q-11 -12 -18 -27t-7 -34v-86h130z" />
    <glyph glyph-name="ccedilla" unicode="&#xe7;" 
d="M86 500q0 35 12.5 64.5t35 52t52.5 35t64 12.5q35 0 64.5 -12.5t52 -35t35 -52t12.5 -64.5h-78q0 19 -7 34t-18 27q-12 11 -27 18t-34 7t-34 -7t-27 -18q-11 -12 -18 -27t-7 -34v-250q0 -19 7 -34t18 -27q12 -11 27 -18t34 -7t34 7t27 18q11 12 18 27t7 34h78
q0 -34 -12.5 -64t-35 -52.5t-52 -35t-64.5 -12.5q-19 0 -34 -7t-27 -18q-11 -12 -18 -27t-7 -34h-78q0 42 14 69t43 56q-29 29 -43 56t-14 69v250z" />
    <glyph glyph-name="egrave" unicode="&#xe8;" 
d="M86 86v414q0 42 14 69t43 56q-29 29 -43 56t-14 69h78q0 -19 7 -34t18 -27q12 -11 27 -18t34 -7h164v-78h-164q-19 0 -34 -7t-27 -18q-11 -12 -18 -27t-7 -34v-86h250v-78h-250v-172h250v-78h-328z" />
    <glyph glyph-name="eacute" unicode="&#xe9;" 
d="M86 86v578h164q19 0 34 7t27 18q11 12 18 27t7 34h78q0 -34 -12.5 -64t-35 -52.5t-52 -35t-64.5 -12.5h-86v-172h250v-78h-250v-172h250v-78h-328z" />
    <glyph glyph-name="ecircumflex" unicode="&#xea;" 
d="M86 250q0 35 12.5 64.5t35 52t52.5 35t64 12.5q35 0 64.5 -12.5t52 -35t35 -52t12.5 -64.5v-164h-250v-86h-78v250zM86 500q0 35 12.5 64.5t35 52t52.5 35t64 12.5q35 0 64.5 -12.5t52 -35t35 -52t12.5 -64.5h-78q0 19 -7 34t-18 27q-12 11 -27 18t-34 7t-34 -7t-27 -18
q-11 -12 -18 -27t-7 -34h-78zM164 164h172v86q0 19 -7 34t-18 27q-12 11 -27 18t-34 7t-34 -7t-27 -18q-11 -12 -18 -27t-7 -34v-86z" />
    <glyph glyph-name="edieresis" unicode="&#xeb;" 
d="M164 750v-86h172v86h78v-164h-250v-172h250v-78h-250v-172h250v-78h-328v664h78z" />
    <glyph glyph-name="igrave" unicode="&#xec;" 
d="M211 86v414h78v-414h-78zM289 750q0 -19 7 -34t18 -27q12 -11 27 -18t34 -7v-78q-34 0 -64 12.5t-52.5 35t-35 52.5t-12.5 64h78z" />
    <glyph glyph-name="iacute" unicode="&#xed;" 
d="M211 500h78v-414h-78v414zM125 664q19 0 34 7t27 18q11 12 18 27t7 34h78q0 -34 -12.5 -64t-35 -52.5t-52 -35t-64.5 -12.5v78z" />
    <glyph glyph-name="icircumflex" unicode="&#xee;" 
d="M289 500v-414h-78v414h78zM125 664q19 0 34 7t27 18q11 12 18 27t7 34h78q0 -19 7 -34t18 -27q12 -11 27 -18t34 -7v-78q-42 0 -69 14t-56 43q-29 -29 -56 -43t-69 -14v78z" />
    <glyph glyph-name="idieresis" unicode="&#xef;" 
d="M289 500v-414h-78v414h78zM125 586v78h250v-78h-250z" />
    <glyph glyph-name="eth" unicode="&#xf0;" 
d="M86 86v578h164q35 0 64.5 -12.5t52 -35t35 -52t12.5 -64.5v-250q0 -34 -12.5 -64t-35 -52.5t-52 -35t-64.5 -12.5h-164zM164 336v-172h86q19 0 34 7t27 18q11 12 18 27t7 34v250q0 19 -7 34t-18 27q-12 11 -27 18t-34 7h-86v-172h86v-78h-86z" />
    <glyph glyph-name="ntilde" unicode="&#xf1;" 
d="M86 86v328h164q35 0 64.5 -12.5t52 -35t35 -52t12.5 -64.5v-164h-78v164q0 19 -7 34t-18 27q-12 11 -27 18t-34 7h-86v-250h-78zM86 664h328v-78h-328v78z" />
    <glyph glyph-name="ograve" unicode="&#xf2;" 
d="M86 500q0 42 14 69t43 56q-29 29 -43 56t-14 69h78q0 -19 7 -34t18 -27q12 -11 27 -18t34 -7q35 0 64.5 -12.5t52 -35t35 -52t12.5 -64.5v-250q0 -34 -12.5 -64t-35 -52.5t-52 -35t-64.5 -12.5q-34 0 -64 12.5t-52.5 35t-35 52.5t-12.5 64v250zM164 250q0 -19 7 -34
t18 -27q12 -11 27 -18t34 -7t34 7t27 18q11 12 18 27t7 34v250q0 19 -7 34t-18 27q-12 11 -27 18t-34 7t-34 -7t-27 -18q-11 -12 -18 -27t-7 -34v-250z" />
    <glyph glyph-name="oacute" unicode="&#xf3;" 
d="M86 500q0 35 12.5 64.5t35 52t52.5 35t64 12.5q19 0 34 7t27 18q11 12 18 27t7 34h78q0 -42 -14 -69t-43 -56q29 -29 43 -56t14 -69v-250q0 -34 -12.5 -64t-35 -52.5t-52 -35t-64.5 -12.5q-34 0 -64 12.5t-52.5 35t-35 52.5t-12.5 64v250zM164 250q0 -19 7 -34t18 -27
q12 -11 27 -18t34 -7t34 7t27 18q11 12 18 27t7 34v250q0 19 -7 34t-18 27q-12 11 -27 18t-34 7t-34 -7t-27 -18q-11 -12 -18 -27t-7 -34v-250z" />
    <glyph glyph-name="ocircumflex" unicode="&#xf4;" 
d="M86 250q0 35 12.5 64.5t35 52t52.5 35t64 12.5q35 0 64.5 -12.5t52 -35t35 -52t12.5 -64.5q0 -34 -12.5 -64t-35 -52.5t-52 -35t-64.5 -12.5q-34 0 -64 12.5t-52.5 35t-35 52.5t-12.5 64zM86 500q0 35 12.5 64.5t35 52t52.5 35t64 12.5q35 0 64.5 -12.5t52 -35t35 -52
t12.5 -64.5h-78q0 19 -7 34t-18 27q-12 11 -27 18t-34 7t-34 -7t-27 -18q-11 -12 -18 -27t-7 -34h-78zM189 189q12 -11 27 -18t34 -7t34 7t27 18q11 12 18 27t7 34t-7 34t-18 27q-12 11 -27 18t-34 7t-34 -7t-27 -18q-11 -12 -18 -27t-7 -34t7 -34t18 -27z" />
    <glyph glyph-name="otilde" unicode="&#xf5;" 
d="M86 250q0 35 12.5 64.5t35 52t52.5 35t64 12.5q35 0 64.5 -12.5t52 -35t35 -52t12.5 -64.5q0 -34 -12.5 -64t-35 -52.5t-52 -35t-64.5 -12.5q-34 0 -64 12.5t-52.5 35t-35 52.5t-12.5 64zM86 500q0 35 12.5 64.5t35 52t52.5 35t64 12.5q19 0 34 7t27 18q11 12 18 27t7 34
h78q0 -34 -12.5 -64t-35 -52.5t-52 -35t-64.5 -12.5q-19 0 -34 -7t-27 -18q-11 -12 -18 -27t-7 -34h-78zM189 311q-11 -12 -18 -27t-7 -34t7 -34t18 -27q12 -11 27 -18t34 -7t34 7t27 18q11 12 18 27t7 34t-7 34t-18 27q-12 11 -27 18t-34 7t-34 -7t-27 -18z" />
    <glyph glyph-name="odieresis" unicode="&#xf6;" 
d="M86 250q0 35 12.5 64.5t35 52t52.5 35t64 12.5q35 0 64.5 -12.5t52 -35t35 -52t12.5 -64.5q0 -34 -12.5 -64t-35 -52.5t-52 -35t-64.5 -12.5q-34 0 -64 12.5t-52.5 35t-35 52.5t-12.5 64zM164 250q0 -19 7 -34t18 -27q12 -11 27 -18t34 -7t34 7t27 18q11 12 18 27t7 34
t-7 34t-18 27q-12 11 -27 18t-34 7t-34 -7t-27 -18q-11 -12 -18 -27t-7 -34zM336 500v164h78v-164h-78zM86 664h78v-164h-78v164z" />
    <glyph glyph-name="divide" unicode="&#xf7;" 
d="M103 414h295v-78h-295v78zM211 500v153h78v-153h-78zM289 250v-152h-78v152h78z" />
    <glyph glyph-name="oslash" unicode="&#xf8;" 
d="M86 0q0 42 14 69t43 56q-29 29 -43 56t-14 69v250q0 35 12.5 64.5t35 52t52.5 35t64 12.5q19 0 34 7t27 18q11 12 18 27t7 34h78q0 -42 -14 -69t-43 -56q29 -29 43 -56t14 -69v-250q0 -34 -12.5 -64t-35 -52.5t-52 -35t-64.5 -12.5q-19 0 -34 -7t-27 -18q-11 -12 -18 -27
t-7 -34h-78zM164 250q0 -19 7 -34t18 -27q12 -11 27 -18t34 -7t34 7t27 18q11 12 18 27t7 34v250q0 19 -7 34t-18 27q-12 11 -27 18t-34 7t-34 -7t-27 -18q-11 -12 -18 -27t-7 -34v-250z" />
    <glyph glyph-name="ugrave" unicode="&#xf9;" 
d="M164 500v-250q0 -19 7 -34t18 -27q12 -11 27 -18t34 -7t34 7t27 18q11 12 18 27t7 34v250h78v-250q0 -34 -12.5 -64t-35 -52.5t-52 -35t-64.5 -12.5q-34 0 -64 12.5t-52.5 35t-35 52.5t-12.5 64v250h78zM164 750q0 -19 7 -34t18 -27q12 -11 27 -18t34 -7v-78
q-34 0 -64 12.5t-52.5 35t-35 52.5t-12.5 64h78z" />
    <glyph glyph-name="uacute" unicode="&#xfa;" 
d="M86 500h78v-250q0 -19 7 -34t18 -27q12 -11 27 -18t34 -7t34 7t27 18q11 12 18 27t7 34v250h78v-250q0 -34 -12.5 -64t-35 -52.5t-52 -35t-64.5 -12.5q-34 0 -64 12.5t-52.5 35t-35 52.5t-12.5 64v250zM250 664q19 0 34 7t27 18q11 12 18 27t7 34h78q0 -34 -12.5 -64
t-35 -52.5t-52 -35t-64.5 -12.5v78z" />
    <glyph glyph-name="ucircumflex" unicode="&#xfb;" 
d="M86 414h78v-164q0 -19 7 -34t18 -27q12 -11 27 -18t34 -7t34 7t27 18q11 12 18 27t7 34v164h78v-164q0 -34 -12.5 -64t-35 -52.5t-52 -35t-64.5 -12.5q-34 0 -64 12.5t-52.5 35t-35 52.5t-12.5 64v164zM86 500q0 35 12.5 64.5t35 52t52.5 35t64 12.5q35 0 64.5 -12.5
t52 -35t35 -52t12.5 -64.5h-78q0 19 -7 34t-18 27q-12 11 -27 18t-34 7t-34 -7t-27 -18q-11 -12 -18 -27t-7 -34h-78z" />
    <glyph glyph-name="udieresis" unicode="&#xfc;" 
d="M86 500h78v-250q0 -19 7 -34t18 -27q12 -11 27 -18t34 -7t34 7t27 18q11 12 18 27t7 34v250h78v-250q0 -34 -12.5 -64t-35 -52.5t-52 -35t-64.5 -12.5q-34 0 -64 12.5t-52.5 35t-35 52.5t-12.5 64v250zM336 750h78v-164h-78v164zM86 586v164h78v-164h-78z" />
    <glyph glyph-name="yacute" unicode="&#xfd;" 
d="M86 250v250h78v-250q0 -19 7 -34t18 -27q12 -11 27 -18t34 -7h86v336h78v-500h-78v86h-86q-34 0 -64 12.5t-52.5 35t-35 52.5t-12.5 64zM250 586v78q19 0 34 7t27 18q11 12 18 27t7 34h78q0 -34 -12.5 -64t-35 -52.5t-52 -35t-64.5 -12.5z" />
    <glyph glyph-name="thorn" unicode="&#xfe;" 
d="M164 664v-116h86q35 0 64.5 -12.5t52 -35t35 -52t12.5 -64.5t-12.5 -65t-34.5 -52t-52 -34.5t-65 -12.5h-86v-134h-78v578h78zM164 470v-172h86q19 0 34 7t27 18q11 12 18 27t7 34q0 18 -7 33.5t-18.5 27t-27 18.5t-33.5 7h-86z" />
    <glyph glyph-name="ydieresis" unicode="&#xff;" 
d="M86 414h78v-164q0 -19 7 -34t18 -27q12 -11 27 -18t34 -7h86v250h78v-414h-78v86h-86q-34 0 -64 12.5t-52.5 35t-35 52.5t-12.5 64v164zM336 500v164h78v-164h-78zM86 664h78v-164h-78v164z" />
    <glyph glyph-name="Amacron" unicode="&#x100;" 
d="M86 250q0 35 12.5 64.5t35 52t52.5 35t64 12.5q35 0 64.5 -12.5t52 -35t35 -52t12.5 -64.5v-250h-78v86h-172v-86h-78v250zM336 164v86q0 19 -7 34t-18 27q-12 11 -27 18t-34 7t-34 -7t-27 -18q-11 -12 -18 -27t-7 -34v-86h172zM86 664h328v-78h-328v78z" />
    <glyph glyph-name="amacron" unicode="&#x101;" 
d="M86 250q0 35 12.5 64.5t35 52t52.5 35t64 12.5q35 0 64.5 -12.5t52 -35t35 -52t12.5 -64.5v-250h-78v86h-172v-86h-78v250zM336 164v86q0 19 -7 34t-18 27q-12 11 -27 18t-34 7t-34 -7t-27 -18q-11 -12 -18 -27t-7 -34v-86h172zM86 664h328v-78h-328v78z" />
    <glyph glyph-name="Abreve" unicode="&#x102;" 
d="M86 500q0 42 14 69t43 56q-29 29 -43 56t-14 69h78q0 -19 7 -34t18 -27q12 -11 27 -18t34 -7t34 7t27 18q11 12 18 27t7 34h78q0 -42 -14 -69t-43 -56q29 -29 43 -56t14 -69v-414h-78v250h-172v-250h-78v414zM336 414v86q0 19 -7 34t-18 27q-12 11 -27 18t-34 7t-34 -7
t-27 -18q-11 -12 -18 -27t-7 -34v-86h172z" />
    <glyph glyph-name="abreve" unicode="&#x103;" 
d="M86 500q0 42 14 69t43 56q-29 29 -43 56t-14 69h78q0 -19 7 -34t18 -27q12 -11 27 -18t34 -7t34 7t27 18q11 12 18 27t7 34h78q0 -42 -14 -69t-43 -56q29 -29 43 -56t14 -69v-414h-78v250h-172v-250h-78v414zM336 414v86q0 19 -7 34t-18 27q-12 11 -27 18t-34 7t-34 -7
t-27 -18q-11 -12 -18 -27t-7 -34v-86h172z" />
    <glyph glyph-name="Aogonek" unicode="&#x104;" 
d="M86 500q0 35 12.5 64.5t35 52t52.5 35t64 12.5q35 0 64.5 -12.5t52 -35t35 -52t12.5 -64.5v-500h-78v336h-172v-250h-78v414zM336 414v86q0 19 -7 34t-18 27q-12 11 -27 18t-34 7t-34 -7t-27 -18q-11 -12 -18 -27t-7 -34v-86h172z" />
    <glyph glyph-name="aogonek" unicode="&#x105;" 
d="M86 500q0 35 12.5 64.5t35 52t52.5 35t64 12.5q35 0 64.5 -12.5t52 -35t35 -52t12.5 -64.5v-500h-78v336h-172v-250h-78v414zM336 414v86q0 19 -7 34t-18 27q-12 11 -27 18t-34 7t-34 -7t-27 -18q-11 -12 -18 -27t-7 -34v-86h172z" />
    <glyph glyph-name="Cacute" unicode="&#x106;" 
d="M86 500q0 35 12.5 64.5t35 52t52.5 35t64 12.5q19 0 34 7t27 18q11 12 18 27t7 34h78q0 -42 -14 -69t-43 -56q29 -29 43 -56t14 -69h-78q0 19 -7 34t-18 27q-12 11 -27 18t-34 7t-34 -7t-27 -18q-11 -12 -18 -27t-7 -34v-250q0 -19 7 -34t18 -27q12 -11 27 -18t34 -7
t34 7t27 18q11 12 18 27t7 34h78q0 -34 -12.5 -64t-35 -52.5t-52 -35t-64.5 -12.5q-34 0 -64 12.5t-52.5 35t-35 52.5t-12.5 64v250z" />
    <glyph glyph-name="cacute" unicode="&#x107;" 
d="M86 500q0 35 12.5 64.5t35 52t52.5 35t64 12.5q19 0 34 7t27 18q11 12 18 27t7 34h78q0 -42 -14 -69t-43 -56q29 -29 43 -56t14 -69h-78q0 19 -7 34t-18 27q-12 11 -27 18t-34 7t-34 -7t-27 -18q-11 -12 -18 -27t-7 -34v-250q0 -19 7 -34t18 -27q12 -11 27 -18t34 -7
t34 7t27 18q11 12 18 27t7 34h78q0 -34 -12.5 -64t-35 -52.5t-52 -35t-64.5 -12.5q-34 0 -64 12.5t-52.5 35t-35 52.5t-12.5 64v250z" />
    <glyph glyph-name="Ccircumflex" unicode="&#x108;" 
d="M86 250q0 35 12.5 64.5t35 52t52.5 35t64 12.5q35 0 64.5 -12.5t52 -35t35 -52t12.5 -64.5h-78q0 19 -7 34t-18 27q-12 11 -27 18t-34 7t-34 -7t-27 -18q-11 -12 -18 -27t-7 -34t7 -34t18 -27q12 -11 27 -18t34 -7h164v-78h-164q-34 0 -64 12.5t-52.5 35t-35 52.5
t-12.5 64zM86 500q0 35 12.5 64.5t35 52t52.5 35t64 12.5q35 0 64.5 -12.5t52 -35t35 -52t12.5 -64.5h-78q0 19 -7 34t-18 27q-12 11 -27 18t-34 7t-34 -7t-27 -18q-11 -12 -18 -27t-7 -34h-78z" />
    <glyph glyph-name="ccircumflex" unicode="&#x109;" 
d="M86 250q0 35 12.5 64.5t35 52t52.5 35t64 12.5q35 0 64.5 -12.5t52 -35t35 -52t12.5 -64.5h-78q0 19 -7 34t-18 27q-12 11 -27 18t-34 7t-34 -7t-27 -18q-11 -12 -18 -27t-7 -34t7 -34t18 -27q12 -11 27 -18t34 -7h164v-78h-164q-34 0 -64 12.5t-52.5 35t-35 52.5
t-12.5 64zM86 500q0 35 12.5 64.5t35 52t52.5 35t64 12.5q35 0 64.5 -12.5t52 -35t35 -52t12.5 -64.5h-78q0 19 -7 34t-18 27q-12 11 -27 18t-34 7t-34 -7t-27 -18q-11 -12 -18 -27t-7 -34h-78z" />
    <glyph glyph-name="Cdotaccent" unicode="&#x10a;" 
d="M86 500q0 35 12.5 64.5t35 52t52.5 35t64 12.5h86v86h78v-164h-164q-19 0 -34 -7t-27 -18q-11 -12 -18 -27t-7 -34v-250q0 -19 7 -34t18 -27q12 -11 27 -18t34 -7t34 7t27 18q11 12 18 27t7 34h78q0 -34 -12.5 -64t-35 -52.5t-52 -35t-64.5 -12.5q-34 0 -64 12.5
t-52.5 35t-35 52.5t-12.5 64v250z" />
    <glyph glyph-name="cdotaccent" unicode="&#x10b;" 
d="M86 500q0 35 12.5 64.5t35 52t52.5 35t64 12.5h86v86h78v-164h-164q-19 0 -34 -7t-27 -18q-11 -12 -18 -27t-7 -34v-250q0 -19 7 -34t18 -27q12 -11 27 -18t34 -7t34 7t27 18q11 12 18 27t7 34h78q0 -34 -12.5 -64t-35 -52.5t-52 -35t-64.5 -12.5q-34 0 -64 12.5
t-52.5 35t-35 52.5t-12.5 64v250z" />
    <glyph glyph-name="Ccaron" unicode="&#x10c;" 
d="M164 750q0 -19 7 -34t18 -27q12 -11 27 -18t34 -7t34 7t27 18q11 12 18 27t7 34h78q0 -42 -14 -69t-43 -56q29 -29 43 -56t14 -69h-78q0 19 -7 34t-18 27q-12 11 -27 18t-34 7t-34 -7t-27 -18q-11 -12 -18 -27t-7 -34v-250q0 -19 7 -34t18 -27q12 -11 27 -18t34 -7t34 7
t27 18q11 12 18 27t7 34h78q0 -34 -12.5 -64t-35 -52.5t-52 -35t-64.5 -12.5q-34 0 -64 12.5t-52.5 35t-35 52.5t-12.5 64v250q0 42 14 69t43 56q-29 29 -43 56t-14 69h78z" />
    <glyph glyph-name="ccaron" unicode="&#x10d;" 
d="M164 750q0 -19 7 -34t18 -27q12 -11 27 -18t34 -7t34 7t27 18q11 12 18 27t7 34h78q0 -42 -14 -69t-43 -56q29 -29 43 -56t14 -69h-78q0 19 -7 34t-18 27q-12 11 -27 18t-34 7t-34 -7t-27 -18q-11 -12 -18 -27t-7 -34v-250q0 -19 7 -34t18 -27q12 -11 27 -18t34 -7t34 7
t27 18q11 12 18 27t7 34h78q0 -34 -12.5 -64t-35 -52.5t-52 -35t-64.5 -12.5q-34 0 -64 12.5t-52.5 35t-35 52.5t-12.5 64v250q0 42 14 69t43 56q-29 29 -43 56t-14 69h78z" />
    <glyph glyph-name="Dcaron" unicode="&#x10e;" 
d="M86 86v414q0 42 14 69t43 56q-29 29 -43 56t-14 69h78q0 -19 7 -34t18 -27q12 -11 27 -18t34 -7t34 7t27 18q11 12 18 27t7 34h78q0 -42 -14 -69t-43 -56q29 -29 43 -56t14 -69v-250q0 -34 -12.5 -64t-35 -52.5t-52 -35t-64.5 -12.5h-164zM164 164h86q19 0 34 7t27 18
q11 12 18 27t7 34v250q0 19 -7 34t-18 27q-12 11 -27 18t-34 7t-34 -7t-27 -18q-11 -12 -18 -27t-7 -34v-336z" />
    <glyph glyph-name="dcaron" unicode="&#x10f;" 
d="M86 86v414q0 42 14 69t43 56q-29 29 -43 56t-14 69h78q0 -19 7 -34t18 -27q12 -11 27 -18t34 -7t34 7t27 18q11 12 18 27t7 34h78q0 -42 -14 -69t-43 -56q29 -29 43 -56t14 -69v-250q0 -34 -12.5 -64t-35 -52.5t-52 -35t-64.5 -12.5h-164zM164 164h86q19 0 34 7t27 18
q11 12 18 27t7 34v250q0 19 -7 34t-18 27q-12 11 -27 18t-34 7t-34 -7t-27 -18q-11 -12 -18 -27t-7 -34v-336z" />
    <glyph glyph-name="Dcroat" unicode="&#x110;" 
d="M86 86v578h164q35 0 64.5 -12.5t52 -35t35 -52t12.5 -64.5v-250q0 -34 -12.5 -64t-35 -52.5t-52 -35t-64.5 -12.5h-164zM164 336v-172h86q19 0 34 7t27 18q11 12 18 27t7 34v250q0 19 -7 34t-18 27q-12 11 -27 18t-34 7h-86v-172h86v-78h-86z" />
    <glyph glyph-name="dcroat" unicode="&#x111;" 
d="M86 86v578h164q35 0 64.5 -12.5t52 -35t35 -52t12.5 -64.5v-250q0 -34 -12.5 -64t-35 -52.5t-52 -35t-64.5 -12.5h-164zM164 336v-172h86q19 0 34 7t27 18q11 12 18 27t7 34v250q0 19 -7 34t-18 27q-12 11 -27 18t-34 7h-86v-172h86v-78h-86z" />
    <glyph glyph-name="Emacron" unicode="&#x112;" 
d="M86 250q0 35 12.5 64.5t35 52t52.5 35t64 12.5q35 0 64.5 -12.5t52 -35t35 -52t12.5 -64.5v-164h-250v-86h-78v250zM164 164h172v86q0 19 -7 34t-18 27q-12 11 -27 18t-34 7t-34 -7t-27 -18q-11 -12 -18 -27t-7 -34v-86zM86 586v78h328v-78h-328z" />
    <glyph glyph-name="emacron" unicode="&#x113;" 
d="M86 250q0 35 12.5 64.5t35 52t52.5 35t64 12.5q35 0 64.5 -12.5t52 -35t35 -52t12.5 -64.5v-164h-250v-86h-78v250zM164 164h172v86q0 19 -7 34t-18 27q-12 11 -27 18t-34 7t-34 -7t-27 -18q-11 -12 -18 -27t-7 -34v-86zM86 586v78h328v-78h-328z" />
    <glyph glyph-name="Ebreve" unicode="&#x114;" 
d="M164 750q0 -19 7 -34t18 -27q12 -11 27 -18t34 -7t34 7t27 18q11 12 18 27t7 34h78q0 -42 -14 -69t-43 -56q29 -29 43 -56t14 -69h-78q0 19 -7 34t-18 27q-12 11 -27 18t-34 7t-34 -7t-27 -18q-11 -12 -18 -27t-7 -34v-86h250v-78h-250v-172h250v-78h-328v414q0 42 14 69
t43 56q-29 29 -43 56t-14 69h78z" />
    <glyph glyph-name="ebreve" unicode="&#x115;" 
d="M164 750q0 -19 7 -34t18 -27q12 -11 27 -18t34 -7t34 7t27 18q11 12 18 27t7 34h78q0 -42 -14 -69t-43 -56q29 -29 43 -56t14 -69h-78q0 19 -7 34t-18 27q-12 11 -27 18t-34 7t-34 -7t-27 -18q-11 -12 -18 -27t-7 -34v-86h250v-78h-250v-172h250v-78h-328v414q0 42 14 69
t43 56q-29 29 -43 56t-14 69h78z" />
    <glyph glyph-name="Edotaccent" unicode="&#x116;" 
d="M336 664v86h78v-164h-250v-172h250v-78h-250v-172h250v-78h-328v578h250z" />
    <glyph glyph-name="edotaccent" unicode="&#x117;" 
d="M336 664v86h78v-164h-250v-172h250v-78h-250v-172h250v-78h-328v578h250z" />
    <glyph glyph-name="Eogonek" unicode="&#x118;" 
d="M164 414h250v-78h-250v-86q0 -19 7 -34t18 -27q12 -11 27 -18t34 -7h164v-78h-164q-19 0 -34 -7t-27 -18q-11 -12 -18 -27t-7 -34h-78q0 42 14 69t43 56q-29 29 -43 56t-14 69v414h328v-78h-250v-172z" />
    <glyph glyph-name="eogonek" unicode="&#x119;" 
d="M164 414h250v-78h-250v-86q0 -19 7 -34t18 -27q12 -11 27 -18t34 -7h164v-78h-164q-19 0 -34 -7t-27 -18q-11 -12 -18 -27t-7 -34h-78q0 42 14 69t43 56q-29 29 -43 56t-14 69v414h328v-78h-250v-172z" />
    <glyph glyph-name="Ecaron" unicode="&#x11a;" 
d="M164 750q0 -19 7 -34t18 -27q12 -11 27 -18t34 -7t34 7t27 18q11 12 18 27t7 34h78q0 -42 -14 -69t-43 -56q29 -29 43 -56t14 -69h-78q0 19 -7 34t-18 27q-12 11 -27 18t-34 7t-34 -7t-27 -18q-11 -12 -18 -27t-7 -34v-86h250v-78h-250v-172h250v-78h-328v414q0 42 14 69
t43 56q-29 29 -43 56t-14 69h78z" />
    <glyph glyph-name="ecaron" unicode="&#x11b;" 
d="M164 750q0 -19 7 -34t18 -27q12 -11 27 -18t34 -7t34 7t27 18q11 12 18 27t7 34h78q0 -42 -14 -69t-43 -56q29 -29 43 -56t14 -69h-78q0 19 -7 34t-18 27q-12 11 -27 18t-34 7t-34 -7t-27 -18q-11 -12 -18 -27t-7 -34v-86h250v-78h-250v-172h250v-78h-328v414q0 42 14 69
t43 56q-29 29 -43 56t-14 69h78z" />
    <glyph glyph-name="Gcircumflex" unicode="&#x11c;" 
d="M86 250q0 35 12.5 64.5t35 52t52.5 35t64 12.5h164v-78h-164q-19 0 -34 -7t-27 -18q-11 -12 -18 -27t-7 -34t7 -34t18 -27q12 -11 27 -18t34 -7h86v86h78v-164h-164q-34 0 -64 12.5t-52.5 35t-35 52.5t-12.5 64zM86 500q0 35 12.5 64.5t35 52t52.5 35t64 12.5
q35 0 64.5 -12.5t52 -35t35 -52t12.5 -64.5h-78q0 19 -7 34t-18 27q-12 11 -27 18t-34 7t-34 -7t-27 -18q-11 -12 -18 -27t-7 -34h-78z" />
    <glyph glyph-name="gcircumflex" unicode="&#x11d;" 
d="M86 250q0 35 12.5 64.5t35 52t52.5 35t64 12.5h164v-78h-164q-19 0 -34 -7t-27 -18q-11 -12 -18 -27t-7 -34t7 -34t18 -27q12 -11 27 -18t34 -7h86v86h78v-164h-164q-34 0 -64 12.5t-52.5 35t-35 52.5t-12.5 64zM86 500q0 35 12.5 64.5t35 52t52.5 35t64 12.5
q35 0 64.5 -12.5t52 -35t35 -52t12.5 -64.5h-78q0 19 -7 34t-18 27q-12 11 -27 18t-34 7t-34 -7t-27 -18q-11 -12 -18 -27t-7 -34h-78z" />
    <glyph glyph-name="Gbreve" unicode="&#x11e;" 
d="M164 750q0 -19 7 -34t18 -27q12 -11 27 -18t34 -7t34 7t27 18q11 12 18 27t7 34h78q0 -42 -14 -69t-43 -56q29 -29 43 -56t14 -69h-78q0 19 -7 34t-18 27q-12 11 -27 18t-34 7t-34 -7t-27 -18q-11 -12 -18 -27t-7 -34v-250q0 -19 7 -34t18 -27q12 -11 27 -18t34 -7t34 7
t27 18q11 12 18 27t7 34v86h-86v78h164v-164q0 -34 -12.5 -64t-35 -52.5t-52 -35t-64.5 -12.5q-34 0 -64 12.5t-52.5 35t-35 52.5t-12.5 64v250q0 42 14 69t43 56q-29 29 -43 56t-14 69h78z" />
    <glyph glyph-name="gbreve" unicode="&#x11f;" 
d="M164 750q0 -19 7 -34t18 -27q12 -11 27 -18t34 -7t34 7t27 18q11 12 18 27t7 34h78q0 -42 -14 -69t-43 -56q29 -29 43 -56t14 -69h-78q0 19 -7 34t-18 27q-12 11 -27 18t-34 7t-34 -7t-27 -18q-11 -12 -18 -27t-7 -34v-250q0 -19 7 -34t18 -27q12 -11 27 -18t34 -7t34 7
t27 18q11 12 18 27t7 34v86h-86v78h164v-164q0 -34 -12.5 -64t-35 -52.5t-52 -35t-64.5 -12.5q-34 0 -64 12.5t-52.5 35t-35 52.5t-12.5 64v250q0 42 14 69t43 56q-29 29 -43 56t-14 69h78z" />
    <glyph glyph-name="Gdotaccent" unicode="&#x120;" 
d="M86 500q0 35 12.5 64.5t35 52t52.5 35t64 12.5q19 0 34 7t27 18q11 12 18 27t7 34h78q0 -42 -14 -69t-43 -56q29 -29 43 -56t14 -69h-78q0 19 -7 34t-18 27q-12 11 -27 18t-34 7t-34 -7t-27 -18q-11 -12 -18 -27t-7 -34v-250q0 -19 7 -34t18 -27q12 -11 27 -18t34 -7
t34 7t27 18q11 12 18 27t7 34v86h-86v78h164v-164q0 -34 -12.5 -64t-35 -52.5t-52 -35t-64.5 -12.5q-34 0 -64 12.5t-52.5 35t-35 52.5t-12.5 64v250z" />
    <glyph glyph-name="gdotaccent" unicode="&#x121;" 
d="M86 500q0 35 12.5 64.5t35 52t52.5 35t64 12.5q19 0 34 7t27 18q11 12 18 27t7 34h78q0 -42 -14 -69t-43 -56q29 -29 43 -56t14 -69h-78q0 19 -7 34t-18 27q-12 11 -27 18t-34 7t-34 -7t-27 -18q-11 -12 -18 -27t-7 -34v-250q0 -19 7 -34t18 -27q12 -11 27 -18t34 -7
t34 7t27 18q11 12 18 27t7 34v86h-86v78h164v-164q0 -34 -12.5 -64t-35 -52.5t-52 -35t-64.5 -12.5q-34 0 -64 12.5t-52.5 35t-35 52.5t-12.5 64v250z" />
    <glyph glyph-name="uni0122" unicode="&#x122;" 
d="M86 0q0 42 14 69t43 56q-29 29 -43 56t-14 69v250q0 35 12.5 64.5t35 52t52.5 35t64 12.5q35 0 64.5 -12.5t52 -35t35 -52t12.5 -64.5h-78q0 19 -7 34t-18 27q-12 11 -27 18t-34 7t-34 -7t-27 -18q-11 -12 -18 -27t-7 -34v-250q0 -19 7 -34t18 -27q12 -11 27 -18t34 -7
t34 7t27 18q11 12 18 27t7 34v86h-86v78h164v-164q0 -34 -12.5 -64t-35 -52.5t-52 -35t-64.5 -12.5q-19 0 -34 -7t-27 -18q-11 -12 -18 -27t-7 -34h-78z" />
    <glyph glyph-name="uni0123" unicode="&#x123;" 
d="M86 0q0 42 14 69t43 56q-29 29 -43 56t-14 69v250q0 35 12.5 64.5t35 52t52.5 35t64 12.5q35 0 64.5 -12.5t52 -35t35 -52t12.5 -64.5h-78q0 19 -7 34t-18 27q-12 11 -27 18t-34 7t-34 -7t-27 -18q-11 -12 -18 -27t-7 -34v-250q0 -19 7 -34t18 -27q12 -11 27 -18t34 -7
t34 7t27 18q11 12 18 27t7 34v86h-86v78h164v-164q0 -34 -12.5 -64t-35 -52.5t-52 -35t-64.5 -12.5q-19 0 -34 -7t-27 -18q-11 -12 -18 -27t-7 -34h-78z" />
    <glyph glyph-name="Hcircumflex" unicode="&#x124;" 
d="M164 414v-250h172v250h78v-414h-78v86h-172v-86h-78v414h78zM86 500q0 35 12.5 64.5t35 52t52.5 35t64 12.5q35 0 64.5 -12.5t52 -35t35 -52t12.5 -64.5h-78q0 19 -7 34t-18 27q-12 11 -27 18t-34 7t-34 -7t-27 -18q-11 -12 -18 -27t-7 -34h-78z" />
    <glyph glyph-name="hcircumflex" unicode="&#x125;" 
d="M164 414v-250h172v250h78v-414h-78v86h-172v-86h-78v414h78zM86 500q0 35 12.5 64.5t35 52t52.5 35t64 12.5q35 0 64.5 -12.5t52 -35t35 -52t12.5 -64.5h-78q0 19 -7 34t-18 27q-12 11 -27 18t-34 7t-34 -7t-27 -18q-11 -12 -18 -27t-7 -34h-78z" />
    <glyph glyph-name="Hbar" unicode="&#x126;" 
d="M86 86v664h78v-86h172v86h78v-664h-78v250h-172v-250h-78zM164 414h172v172h-172v-172z" />
    <glyph glyph-name="hbar" unicode="&#x127;" 
d="M86 86v664h78v-86h172v86h78v-664h-78v250h-172v-250h-78zM164 414h172v172h-172v-172z" />
    <glyph glyph-name="Itilde" unicode="&#x128;" 
d="M289 500v-414h-78v414h78zM125 586v78h250v-78h-250z" />
    <glyph glyph-name="itilde" unicode="&#x129;" 
d="M289 500v-414h-78v414h78zM125 586v78h250v-78h-250z" />
    <glyph glyph-name="Imacron" unicode="&#x12a;" 
d="M289 500v-414h-78v414h78zM125 586v78h250v-78h-250z" />
    <glyph glyph-name="imacron" unicode="&#x12b;" 
d="M289 500v-414h-78v414h78zM125 586v78h250v-78h-250z" />
    <glyph glyph-name="Ibreve" unicode="&#x12c;" 
d="M125 586v78q42 0 69 -14t56 -43q29 29 56 43t69 14v-78q-19 0 -34 -7t-27 -18q-11 -12 -18 -27t-7 -34v-414h-78v414q0 19 -7 34t-18 27q-12 11 -27 18t-34 7z" />
    <glyph glyph-name="ibreve" unicode="&#x12d;" 
d="M125 586v78q42 0 69 -14t56 -43q29 29 56 43t69 14v-78q-19 0 -34 -7t-27 -18q-11 -12 -18 -27t-7 -34v-414h-78v414q0 19 -7 34t-18 27q-12 11 -27 18t-34 7z" />
    <glyph glyph-name="Iogonek" unicode="&#x12e;" 
d="M289 664v-664h-78v664h78z" />
    <glyph glyph-name="iogonek" unicode="&#x12f;" 
d="M289 664v-664h-78v664h78z" />
    <glyph glyph-name="Idotaccent" unicode="&#x130;" 
d="M289 500v-414h-78v414h78zM211 586v164h78v-164h-78z" />
    <glyph glyph-name="dotlessi" unicode="&#x131;" 
d="M103 86v78h108v422h-108v78h295v-78h-109v-422h109v-78h-295z" />
    <glyph glyph-name="Jcircumflex" unicode="&#x134;" 
d="M86 250h78q0 -19 7 -34t18 -27q12 -11 27 -18t34 -7t34 7t27 18q11 12 18 27t7 34v250h78v-250q0 -34 -12.5 -64t-35 -52.5t-52 -35t-64.5 -12.5q-34 0 -64 12.5t-52.5 35t-35 52.5t-12.5 64zM311 689q11 12 18 27t7 34h78q0 -19 7 -34t18 -27q12 -11 27 -18t34 -7v-78
q-42 0 -69 14t-56 43q-29 -29 -56 -43t-69 -14v78q19 0 34 7t27 18z" />
    <glyph glyph-name="jcircumflex" unicode="&#x135;" 
d="M86 250h78q0 -19 7 -34t18 -27q12 -11 27 -18t34 -7t34 7t27 18q11 12 18 27t7 34v250h78v-250q0 -34 -12.5 -64t-35 -52.5t-52 -35t-64.5 -12.5q-34 0 -64 12.5t-52.5 35t-35 52.5t-12.5 64zM311 689q11 12 18 27t7 34h78q0 -19 7 -34t18 -27q12 -11 27 -18t34 -7v-78
q-42 0 -69 14t-56 43q-29 -29 -56 -43t-69 -14v78q19 0 34 7t27 18z" />
    <glyph glyph-name="uni0136" unicode="&#x136;" 
d="M164 664v-250h86q19 0 34 7t27 18q11 12 18 27t7 34v164h78v-164q0 -42 -14 -69t-43 -56q29 -29 43 -56t14 -69v-164h-164v78h86v86q0 19 -7 34t-18 27q-12 11 -27 18t-34 7h-86v-250h-78v578h78z" />
    <glyph glyph-name="uni0137" unicode="&#x137;" 
d="M164 664v-250h86q19 0 34 7t27 18q11 12 18 27t7 34v164h78v-164q0 -42 -14 -69t-43 -56q29 -29 43 -56t14 -69v-164h-164v78h86v86q0 19 -7 34t-18 27q-12 11 -27 18t-34 7h-86v-250h-78v578h78z" />
    <glyph glyph-name="kgreenlandic" unicode="&#x138;" 
d="M164 664v-250h86q19 0 34 7t27 18q11 12 18 27t7 34v164h78v-164q0 -42 -14 -69t-43 -56q29 -29 43 -56t14 -69v-164h-78v164q0 19 -7 34t-18 27q-12 11 -27 18t-34 7h-86v-250h-78v578h78z" />
    <glyph glyph-name="Lacute" unicode="&#x139;" 
d="M164 664v-500h250v-78h-328v578h78zM250 664q19 0 34 7t27 18q11 12 18 27t7 34h78q0 -34 -12.5 -64t-35 -52.5t-52 -35t-64.5 -12.5v78z" />
    <glyph glyph-name="lacute" unicode="&#x13a;" 
d="M164 664v-500h250v-78h-328v578h78zM250 664q19 0 34 7t27 18q11 12 18 27t7 34h78q0 -34 -12.5 -64t-35 -52.5t-52 -35t-64.5 -12.5v78z" />
    <glyph glyph-name="uni013B" unicode="&#x13b;" 
d="M164 664v-414q0 -19 7 -34t18 -27q12 -11 27 -18t34 -7h164v-78h-164q-19 0 -34 -7t-27 -18q-11 -12 -18 -27t-7 -34h-78q0 42 14 69t43 56q-29 29 -43 56t-14 69v414h78z" />
    <glyph glyph-name="uni013C" unicode="&#x13c;" 
d="M164 664v-414q0 -19 7 -34t18 -27q12 -11 27 -18t34 -7h164v-78h-164q-19 0 -34 -7t-27 -18q-11 -12 -18 -27t-7 -34h-78q0 42 14 69t43 56q-29 29 -43 56t-14 69v414h78z" />
    <glyph glyph-name="Lcaron" unicode="&#x13d;" 
d="M164 664v-500h250v-78h-328v578h78zM336 500v164h78v-164h-78z" />
    <glyph glyph-name="lcaron" unicode="&#x13e;" 
d="M164 664v-500h250v-78h-328v578h78zM336 500v164h78v-164h-78z" />
    <glyph glyph-name="Ldot" unicode="&#x13f;" 
d="M86 664h78v-500h250v-78h-328v578zM336 500h78v-164h-78v164z" />
    <glyph glyph-name="ldot" unicode="&#x140;" 
d="M86 664h78v-500h250v-78h-328v578zM336 500h78v-164h-78v164z" />
    <glyph glyph-name="Lslash" unicode="&#x141;" 
d="M164 664v-250h124v-78h-124v-172h250v-78h-328v578h78z" />
    <glyph glyph-name="lslash" unicode="&#x142;" 
d="M164 664v-250h124v-78h-124v-172h250v-78h-328v578h78z" />
    <glyph glyph-name="Nacute" unicode="&#x143;" 
d="M250 664q19 0 34 7t27 18q11 12 18 27t7 34h78q0 -42 -14 -69t-43 -56q29 -29 43 -56t14 -69v-414h-78v414q0 19 -7 34t-18 27q-12 11 -27 18t-34 7h-86v-500h-78v578h164z" />
    <glyph glyph-name="nacute" unicode="&#x144;" 
d="M250 664q19 0 34 7t27 18q11 12 18 27t7 34h78q0 -42 -14 -69t-43 -56q29 -29 43 -56t14 -69v-414h-78v414q0 19 -7 34t-18 27q-12 11 -27 18t-34 7h-86v-500h-78v578h164z" />
    <glyph glyph-name="uni0145" unicode="&#x145;" 
d="M250 664q35 0 64.5 -12.5t52 -35t35 -52t12.5 -64.5v-414h-164v78h86v336q0 19 -7 34t-18 27q-12 11 -27 18t-34 7h-86v-500h-78v578h164z" />
    <glyph glyph-name="uni0146" unicode="&#x146;" 
d="M250 664q35 0 64.5 -12.5t52 -35t35 -52t12.5 -64.5v-414h-164v78h86v336q0 19 -7 34t-18 27q-12 11 -27 18t-34 7h-86v-500h-78v578h164z" />
    <glyph glyph-name="Ncaron" unicode="&#x147;" 
d="M164 750q0 -19 7 -34t18 -27q12 -11 27 -18t34 -7t34 7t27 18q11 12 18 27t7 34h78q0 -42 -14 -69t-43 -56q29 -29 43 -56t14 -69v-414h-78v414q0 19 -7 34t-18 27q-12 11 -27 18t-34 7t-34 -7t-27 -18q-11 -12 -18 -27t-7 -34v-414h-78v414q0 42 14 69t43 56
q-29 29 -43 56t-14 69h78z" />
    <glyph glyph-name="ncaron" unicode="&#x148;" 
d="M164 750q0 -19 7 -34t18 -27q12 -11 27 -18t34 -7t34 7t27 18q11 12 18 27t7 34h78q0 -42 -14 -69t-43 -56q29 -29 43 -56t14 -69v-414h-78v414q0 19 -7 34t-18 27q-12 11 -27 18t-34 7t-34 -7t-27 -18q-11 -12 -18 -27t-7 -34v-414h-78v414q0 42 14 69t43 56
q-29 29 -43 56t-14 69h78z" />
    <glyph glyph-name="napostrophe" unicode="&#x149;" 
d="M86 750h78v-86h86q35 0 64.5 -12.5t52 -35t35 -52t12.5 -64.5v-414h-78v414q0 19 -7 34t-18 27q-12 11 -27 18t-34 7h-86v-500h-78v664z" />
    <glyph glyph-name="Eng" unicode="&#x14a;" 
d="M86 86v578h164q35 0 64.5 -12.5t52 -35t35 -52t12.5 -64.5v-250q0 -34 -12.5 -64t-35 -52.5t-52 -35t-64.5 -12.5v78q19 0 34 7t27 18q11 12 18 27t7 34v250q0 19 -7 34t-18 27q-12 11 -27 18t-34 7h-86v-500h-78z" />
    <glyph glyph-name="eng" unicode="&#x14b;" 
d="M86 86v578h164q35 0 64.5 -12.5t52 -35t35 -52t12.5 -64.5v-250q0 -34 -12.5 -64t-35 -52.5t-52 -35t-64.5 -12.5v78q19 0 34 7t27 18q11 12 18 27t7 34v250q0 19 -7 34t-18 27q-12 11 -27 18t-34 7h-86v-500h-78z" />
    <glyph glyph-name="Omacron" unicode="&#x14c;" 
d="M86 250q0 35 12.5 64.5t35 52t52.5 35t64 12.5q35 0 64.5 -12.5t52 -35t35 -52t12.5 -64.5q0 -34 -12.5 -64t-35 -52.5t-52 -35t-64.5 -12.5q-34 0 -64 12.5t-52.5 35t-35 52.5t-12.5 64zM86 586v78h328v-78h-328zM164 250q0 -19 7 -34t18 -27q12 -11 27 -18t34 -7t34 7
t27 18q11 12 18 27t7 34t-7 34t-18 27q-12 11 -27 18t-34 7t-34 -7t-27 -18q-11 -12 -18 -27t-7 -34z" />
    <glyph glyph-name="omacron" unicode="&#x14d;" 
d="M86 250q0 35 12.5 64.5t35 52t52.5 35t64 12.5q35 0 64.5 -12.5t52 -35t35 -52t12.5 -64.5q0 -34 -12.5 -64t-35 -52.5t-52 -35t-64.5 -12.5q-34 0 -64 12.5t-52.5 35t-35 52.5t-12.5 64zM86 586v78h328v-78h-328zM164 250q0 -19 7 -34t18 -27q12 -11 27 -18t34 -7t34 7
t27 18q11 12 18 27t7 34t-7 34t-18 27q-12 11 -27 18t-34 7t-34 -7t-27 -18q-11 -12 -18 -27t-7 -34z" />
    <glyph glyph-name="Obreve" unicode="&#x14e;" 
d="M164 750q0 -19 7 -34t18 -27q12 -11 27 -18t34 -7t34 7t27 18q11 12 18 27t7 34h78q0 -42 -14 -69t-43 -56q29 -29 43 -56t14 -69v-250q0 -34 -12.5 -64t-35 -52.5t-52 -35t-64.5 -12.5q-34 0 -64 12.5t-52.5 35t-35 52.5t-12.5 64v250q0 42 14 69t43 56q-29 29 -43 56
t-14 69h78zM164 250q0 -19 7 -34t18 -27q12 -11 27 -18t34 -7t34 7t27 18q11 12 18 27t7 34v250q0 19 -7 34t-18 27q-12 11 -27 18t-34 7t-34 -7t-27 -18q-11 -12 -18 -27t-7 -34v-250z" />
    <glyph glyph-name="obreve" unicode="&#x14f;" 
d="M164 750q0 -19 7 -34t18 -27q12 -11 27 -18t34 -7t34 7t27 18q11 12 18 27t7 34h78q0 -42 -14 -69t-43 -56q29 -29 43 -56t14 -69v-250q0 -34 -12.5 -64t-35 -52.5t-52 -35t-64.5 -12.5q-34 0 -64 12.5t-52.5 35t-35 52.5t-12.5 64v250q0 42 14 69t43 56q-29 29 -43 56
t-14 69h78zM164 250q0 -19 7 -34t18 -27q12 -11 27 -18t34 -7t34 7t27 18q11 12 18 27t7 34v250q0 19 -7 34t-18 27q-12 11 -27 18t-34 7t-34 -7t-27 -18q-11 -12 -18 -27t-7 -34v-250z" />
    <glyph glyph-name="Ohungarumlaut" unicode="&#x150;" 
d="M86 250q0 35 12.5 64.5t35 52t52.5 35t64 12.5q35 0 64.5 -12.5t52 -35t35 -52t12.5 -64.5q0 -34 -12.5 -64t-35 -52.5t-52 -35t-64.5 -12.5q-34 0 -64 12.5t-52.5 35t-35 52.5t-12.5 64zM189 311q-11 -12 -18 -27t-7 -34t7 -34t18 -27q12 -11 27 -18t34 -7t34 7t27 18
q11 12 18 27t7 34t-7 34t-18 27q-12 11 -27 18t-34 7t-34 -7t-27 -18zM250 664q19 0 34 7t27 18q11 12 18 27t7 34h78q0 -34 -12.5 -64t-35 -52.5t-52 -35t-64.5 -12.5v78zM0 664q19 0 34 7t27 18q11 12 18 27t7 34h78q0 -34 -12.5 -64t-35 -52.5t-52 -35t-64.5 -12.5v78z
" />
    <glyph glyph-name="ohungarumlaut" unicode="&#x151;" 
d="M86 250q0 35 12.5 64.5t35 52t52.5 35t64 12.5q35 0 64.5 -12.5t52 -35t35 -52t12.5 -64.5q0 -34 -12.5 -64t-35 -52.5t-52 -35t-64.5 -12.5q-34 0 -64 12.5t-52.5 35t-35 52.5t-12.5 64zM189 311q-11 -12 -18 -27t-7 -34t7 -34t18 -27q12 -11 27 -18t34 -7t34 7t27 18
q11 12 18 27t7 34t-7 34t-18 27q-12 11 -27 18t-34 7t-34 -7t-27 -18zM250 664q19 0 34 7t27 18q11 12 18 27t7 34h78q0 -34 -12.5 -64t-35 -52.5t-52 -35t-64.5 -12.5v78zM0 664q19 0 34 7t27 18q11 12 18 27t7 34h78q0 -34 -12.5 -64t-35 -52.5t-52 -35t-64.5 -12.5v78z
" />
    <glyph glyph-name="OE" unicode="&#x152;" 
d="M48 500q0 35 12.5 64.5t34 52t51.5 35t65 12.5h242v-78h-164v-172h164v-78h-164v-172h164v-78h-242q-35 0 -65 12.5t-51.5 35t-34 52.5t-12.5 64v250zM125 250q0 -18 7 -33.5t18.5 -27t27 -18.5t33.5 -7h38v422h-38q-18 0 -33.5 -7t-27 -18.5t-18.5 -27t-7 -33.5v-250z
" />
    <glyph glyph-name="oe" unicode="&#x153;" 
d="M48 500q0 35 12.5 64.5t34 52t51.5 35t65 12.5h242v-78h-164v-172h164v-78h-164v-172h164v-78h-242q-35 0 -65 12.5t-51.5 35t-34 52.5t-12.5 64v250zM125 250q0 -18 7 -33.5t18.5 -27t27 -18.5t33.5 -7h38v422h-38q-18 0 -33.5 -7t-27 -18.5t-18.5 -27t-7 -33.5v-250z
" />
    <glyph glyph-name="Racute" unicode="&#x154;" 
d="M86 86v578h164q19 0 34 7t27 18q11 12 18 27t7 34h78q0 -42 -14 -69t-43 -56q29 -29 43 -56t14 -69t-14 -69t-43 -56q29 -29 43 -56t14 -69v-164h-78v164q0 19 -7 34t-18 27q-12 11 -27 18t-34 7h-86v-250h-78zM250 414q19 0 34 7t27 18q11 12 18 27t7 34t-7 34t-18 27
q-12 11 -27 18t-34 7h-86v-172h86z" />
    <glyph glyph-name="racute" unicode="&#x155;" 
d="M86 86v578h164q19 0 34 7t27 18q11 12 18 27t7 34h78q0 -42 -14 -69t-43 -56q29 -29 43 -56t14 -69t-14 -69t-43 -56q29 -29 43 -56t14 -69v-164h-78v164q0 19 -7 34t-18 27q-12 11 -27 18t-34 7h-86v-250h-78zM250 414q19 0 34 7t27 18q11 12 18 27t7 34t-7 34t-18 27
q-12 11 -27 18t-34 7h-86v-172h86z" />
    <glyph glyph-name="uni0156" unicode="&#x156;" 
d="M86 86v578h164q35 0 64.5 -12.5t52 -35t35 -52t12.5 -64.5q0 -42 -14 -69t-43 -56q29 -29 43 -56t14 -69v-164h-164v78h86v86q0 19 -7 34t-18 27q-12 11 -27 18t-34 7h-86v-250h-78zM250 414q19 0 34 7t27 18q11 12 18 27t7 34t-7 34t-18 27q-12 11 -27 18t-34 7h-86
v-172h86z" />
    <glyph glyph-name="uni0157" unicode="&#x157;" 
d="M86 86v578h164q35 0 64.5 -12.5t52 -35t35 -52t12.5 -64.5q0 -42 -14 -69t-43 -56q29 -29 43 -56t14 -69v-164h-164v78h86v86q0 19 -7 34t-18 27q-12 11 -27 18t-34 7h-86v-250h-78zM250 414q19 0 34 7t27 18q11 12 18 27t7 34t-7 34t-18 27q-12 11 -27 18t-34 7h-86
v-172h86z" />
    <glyph glyph-name="Rcaron" unicode="&#x158;" 
d="M86 500q0 42 14 69t43 56q-29 29 -43 56t-14 69h78q0 -19 7 -34t18 -27q12 -11 27 -18t34 -7t34 7t27 18q11 12 18 27t7 34h78q0 -42 -14 -69t-43 -56q29 -29 43 -56t14 -69t-14 -69t-43 -56q29 -29 43 -56t14 -69v-164h-78v164q0 19 -7 34t-18 27q-12 11 -27 18t-34 7
h-86v-250h-78v414zM250 414q19 0 34 7t27 18q11 12 18 27t7 34t-7 34t-18 27q-12 11 -27 18t-34 7t-34 -7t-27 -18q-11 -12 -18 -27t-7 -34v-86h86z" />
    <glyph glyph-name="rcaron" unicode="&#x159;" 
d="M86 500q0 42 14 69t43 56q-29 29 -43 56t-14 69h78q0 -19 7 -34t18 -27q12 -11 27 -18t34 -7t34 7t27 18q11 12 18 27t7 34h78q0 -42 -14 -69t-43 -56q29 -29 43 -56t14 -69t-14 -69t-43 -56q29 -29 43 -56t14 -69v-164h-78v164q0 19 -7 34t-18 27q-12 11 -27 18t-34 7
h-86v-250h-78v414zM250 414q19 0 34 7t27 18q11 12 18 27t7 34t-7 34t-18 27q-12 11 -27 18t-34 7t-34 -7t-27 -18q-11 -12 -18 -27t-7 -34v-86h86z" />
    <glyph glyph-name="Sacute" unicode="&#x15a;" 
d="M86 500q0 35 12.5 64.5t35 52t52.5 35t64 12.5q19 0 34 7t27 18q11 12 18 27t7 34h78q0 -42 -14 -69t-43 -56q29 -29 43 -56t14 -69h-78q0 19 -7 34t-18 27q-12 11 -27 18t-34 7t-34 -7t-27 -18q-11 -12 -18 -27t-7 -34t7 -34t18 -27q12 -11 27 -18t34 -7
q35 0 64.5 -12.5t52 -35t35 -52t12.5 -64.5q0 -34 -12.5 -64t-35 -52.5t-52 -35t-64.5 -12.5q-34 0 -64 12.5t-52.5 35t-35 52.5t-12.5 64h78q0 -19 7 -34t18 -27q12 -11 27 -18t34 -7t34 7t27 18q11 12 18 27t7 34t-7 34t-18 27q-12 11 -27 18t-34 7q-34 0 -64 12.5
t-52.5 35t-35 52.5t-12.5 64z" />
    <glyph glyph-name="sacute" unicode="&#x15b;" 
d="M86 500q0 35 12.5 64.5t35 52t52.5 35t64 12.5q19 0 34 7t27 18q11 12 18 27t7 34h78q0 -42 -14 -69t-43 -56q29 -29 43 -56t14 -69h-78q0 19 -7 34t-18 27q-12 11 -27 18t-34 7t-34 -7t-27 -18q-11 -12 -18 -27t-7 -34t7 -34t18 -27q12 -11 27 -18t34 -7
q35 0 64.5 -12.5t52 -35t35 -52t12.5 -64.5q0 -34 -12.5 -64t-35 -52.5t-52 -35t-64.5 -12.5q-34 0 -64 12.5t-52.5 35t-35 52.5t-12.5 64h78q0 -19 7 -34t18 -27q12 -11 27 -18t34 -7t34 7t27 18q11 12 18 27t7 34t-7 34t-18 27q-12 11 -27 18t-34 7q-34 0 -64 12.5
t-52.5 35t-35 52.5t-12.5 64z" />
    <glyph glyph-name="Scircumflex" unicode="&#x15c;" 
d="M86 250q0 35 12.5 64.5t35 52t52.5 35t64 12.5q35 0 64.5 -12.5t52 -35t35 -52t12.5 -64.5h-78q0 19 -7 34t-18 27q-12 11 -27 18t-34 7t-34 -7t-27 -18q-11 -12 -18 -27t-7 -34t7 -34t18 -27q12 -11 27 -18t34 -7q35 0 64.5 -12.5t52 -35t35 -52t12.5 -64.5h-78
q0 19 -7 34t-18 27q-12 11 -27 18t-34 7q-34 0 -64 12.5t-52.5 35t-35 52.5t-12.5 64zM86 500q0 35 12.5 64.5t35 52t52.5 35t64 12.5q35 0 64.5 -12.5t52 -35t35 -52t12.5 -64.5h-78q0 19 -7 34t-18 27q-12 11 -27 18t-34 7t-34 -7t-27 -18q-11 -12 -18 -27t-7 -34h-78z
" />
    <glyph glyph-name="scircumflex" unicode="&#x15d;" 
d="M86 250q0 35 12.5 64.5t35 52t52.5 35t64 12.5q35 0 64.5 -12.5t52 -35t35 -52t12.5 -64.5h-78q0 19 -7 34t-18 27q-12 11 -27 18t-34 7t-34 -7t-27 -18q-11 -12 -18 -27t-7 -34t7 -34t18 -27q12 -11 27 -18t34 -7q35 0 64.5 -12.5t52 -35t35 -52t12.5 -64.5h-78
q0 19 -7 34t-18 27q-12 11 -27 18t-34 7q-34 0 -64 12.5t-52.5 35t-35 52.5t-12.5 64zM86 500q0 35 12.5 64.5t35 52t52.5 35t64 12.5q35 0 64.5 -12.5t52 -35t35 -52t12.5 -64.5h-78q0 19 -7 34t-18 27q-12 11 -27 18t-34 7t-34 -7t-27 -18q-11 -12 -18 -27t-7 -34h-78z
" />
    <glyph glyph-name="Scedilla" unicode="&#x15e;" 
d="M86 500q0 35 12.5 64.5t35 52t52.5 35t64 12.5q35 0 64.5 -12.5t52 -35t35 -52t12.5 -64.5h-78q0 19 -7 34t-18 27q-12 11 -27 18t-34 7t-34 -7t-27 -18q-11 -12 -18 -27t-7 -34t7 -34t18 -27q12 -11 27 -18t34 -7q35 0 64.5 -12.5t52 -35t35 -52t12.5 -64.5
q0 -34 -12.5 -64t-35 -52.5t-52 -35t-64.5 -12.5q-19 0 -34 -7t-27 -18q-11 -12 -18 -27t-7 -34h-78q0 42 14 69t43 56q-29 29 -43 56t-14 69h78q0 -19 7 -34t18 -27q12 -11 27 -18t34 -7t34 7t27 18q11 12 18 27t7 34t-7 34t-18 27q-12 11 -27 18t-34 7q-34 0 -64 12.5
t-52.5 35t-35 52.5t-12.5 64z" />
    <glyph glyph-name="scedilla" unicode="&#x15f;" 
d="M86 500q0 35 12.5 64.5t35 52t52.5 35t64 12.5q35 0 64.5 -12.5t52 -35t35 -52t12.5 -64.5h-78q0 19 -7 34t-18 27q-12 11 -27 18t-34 7t-34 -7t-27 -18q-11 -12 -18 -27t-7 -34t7 -34t18 -27q12 -11 27 -18t34 -7q35 0 64.5 -12.5t52 -35t35 -52t12.5 -64.5
q0 -34 -12.5 -64t-35 -52.5t-52 -35t-64.5 -12.5q-19 0 -34 -7t-27 -18q-11 -12 -18 -27t-7 -34h-78q0 42 14 69t43 56q-29 29 -43 56t-14 69h78q0 -19 7 -34t18 -27q12 -11 27 -18t34 -7t34 7t27 18q11 12 18 27t7 34t-7 34t-18 27q-12 11 -27 18t-34 7q-34 0 -64 12.5
t-52.5 35t-35 52.5t-12.5 64z" />
    <glyph glyph-name="Scaron" unicode="&#x160;" 
d="M86 500q0 42 14 69t43 56q-29 29 -43 56t-14 69h78q0 -19 7 -34t18 -27q12 -11 27 -18t34 -7t34 7t27 18q11 12 18 27t7 34h78q0 -42 -14 -69t-43 -56q29 -29 43 -56t14 -69h-78q0 19 -7 34t-18 27q-12 11 -27 18t-34 7t-34 -7t-27 -18q-11 -12 -18 -27t-7 -34t7 -34
t18 -27q12 -11 27 -18t34 -7q35 0 64.5 -12.5t52 -35t35 -52t12.5 -64.5q0 -34 -12.5 -64t-35 -52.5t-52 -35t-64.5 -12.5q-34 0 -64 12.5t-52.5 35t-35 52.5t-12.5 64h78q0 -19 7 -34t18 -27q12 -11 27 -18t34 -7t34 7t27 18q11 12 18 27t7 34t-7 34t-18 27q-12 11 -27 18
t-34 7q-34 0 -64 12.5t-52.5 35t-35 52.5t-12.5 64z" />
    <glyph glyph-name="scaron" unicode="&#x161;" 
d="M86 500q0 42 14 69t43 56q-29 29 -43 56t-14 69h78q0 -19 7 -34t18 -27q12 -11 27 -18t34 -7t34 7t27 18q11 12 18 27t7 34h78q0 -42 -14 -69t-43 -56q29 -29 43 -56t14 -69h-78q0 19 -7 34t-18 27q-12 11 -27 18t-34 7t-34 -7t-27 -18q-11 -12 -18 -27t-7 -34t7 -34
t18 -27q12 -11 27 -18t34 -7q35 0 64.5 -12.5t52 -35t35 -52t12.5 -64.5q0 -34 -12.5 -64t-35 -52.5t-52 -35t-64.5 -12.5q-34 0 -64 12.5t-52.5 35t-35 52.5t-12.5 64h78q0 -19 7 -34t18 -27q12 -11 27 -18t34 -7t34 7t27 18q11 12 18 27t7 34t-7 34t-18 27q-12 11 -27 18
t-34 7q-34 0 -64 12.5t-52.5 35t-35 52.5t-12.5 64z" />
    <glyph glyph-name="uni0162" unicode="&#x162;" 
d="M88 664h325v-78h-124v-586h-78v586h-123v78z" />
    <glyph glyph-name="uni0163" unicode="&#x163;" 
d="M88 664h325v-78h-124v-586h-78v586h-123v78z" />
    <glyph glyph-name="Tcaron" unicode="&#x164;" 
d="M88 336v78h325v-78h-124v-250h-78v250h-123zM125 664q42 0 69 -14t56 -43q29 29 56 43t69 14v-78q-19 0 -34 -7t-27 -18q-11 -12 -18 -27t-7 -34h-78q0 19 -7 34t-18 27q-12 11 -27 18t-34 7v78z" />
    <glyph glyph-name="tcaron" unicode="&#x165;" 
d="M88 336v78h325v-78h-124v-250h-78v250h-123zM125 664q42 0 69 -14t56 -43q29 29 56 43t69 14v-78q-19 0 -34 -7t-27 -18q-11 -12 -18 -27t-7 -34h-78q0 19 -7 34t-18 27q-12 11 -27 18t-34 7v78z" />
    <glyph glyph-name="Tbar" unicode="&#x166;" 
d="M88 664h325v-78h-124v-172h37v-78h-37v-250h-78v250h-112v78h112v172h-123v78z" />
    <glyph glyph-name="tbar" unicode="&#x167;" 
d="M88 664h325v-78h-124v-172h37v-78h-37v-250h-78v250h-112v78h112v172h-123v78z" />
    <glyph glyph-name="Utilde" unicode="&#x168;" 
d="M86 500h78v-250q0 -19 7 -34t18 -27q12 -11 27 -18t34 -7t34 7t27 18q11 12 18 27t7 34v250h78v-250q0 -34 -12.5 -64t-35 -52.5t-52 -35t-64.5 -12.5q-34 0 -64 12.5t-52.5 35t-35 52.5t-12.5 64v250zM86 664h328v-78h-328v78z" />
    <glyph glyph-name="utilde" unicode="&#x169;" 
d="M86 500h78v-250q0 -19 7 -34t18 -27q12 -11 27 -18t34 -7t34 7t27 18q11 12 18 27t7 34v250h78v-250q0 -34 -12.5 -64t-35 -52.5t-52 -35t-64.5 -12.5q-34 0 -64 12.5t-52.5 35t-35 52.5t-12.5 64v250zM86 664h328v-78h-328v78z" />
    <glyph glyph-name="Umacron" unicode="&#x16a;" 
d="M86 500h78v-250q0 -19 7 -34t18 -27q12 -11 27 -18t34 -7t34 7t27 18q11 12 18 27t7 34v250h78v-250q0 -34 -12.5 -64t-35 -52.5t-52 -35t-64.5 -12.5q-34 0 -64 12.5t-52.5 35t-35 52.5t-12.5 64v250zM86 664h328v-78h-328v78z" />
    <glyph glyph-name="umacron" unicode="&#x16b;" 
d="M86 500h78v-250q0 -19 7 -34t18 -27q12 -11 27 -18t34 -7t34 7t27 18q11 12 18 27t7 34v250h78v-250q0 -34 -12.5 -64t-35 -52.5t-52 -35t-64.5 -12.5q-34 0 -64 12.5t-52.5 35t-35 52.5t-12.5 64v250zM86 664h328v-78h-328v78z" />
    <glyph glyph-name="Ubreve" unicode="&#x16c;" 
d="M164 500v-250q0 -19 7 -34t18 -27q12 -11 27 -18t34 -7t34 7t27 18q11 12 18 27t7 34v250h78v-250q0 -34 -12.5 -64t-35 -52.5t-52 -35t-64.5 -12.5q-34 0 -64 12.5t-52.5 35t-35 52.5t-12.5 64v250h78zM164 750q0 -19 7 -34t18 -27q12 -11 27 -18t34 -7t34 7t27 18
q11 12 18 27t7 34h78q0 -34 -12.5 -64t-35 -52.5t-52 -35t-64.5 -12.5q-34 0 -64 12.5t-52.5 35t-35 52.5t-12.5 64h78z" />
    <glyph glyph-name="ubreve" unicode="&#x16d;" 
d="M164 500v-250q0 -19 7 -34t18 -27q12 -11 27 -18t34 -7t34 7t27 18q11 12 18 27t7 34v250h78v-250q0 -34 -12.5 -64t-35 -52.5t-52 -35t-64.5 -12.5q-34 0 -64 12.5t-52.5 35t-35 52.5t-12.5 64v250h78zM164 750q0 -19 7 -34t18 -27q12 -11 27 -18t34 -7t34 7t27 18
q11 12 18 27t7 34h78q0 -34 -12.5 -64t-35 -52.5t-52 -35t-64.5 -12.5q-34 0 -64 12.5t-52.5 35t-35 52.5t-12.5 64h78z" />
    <glyph glyph-name="Uring" unicode="&#x16e;" 
d="M86 500q0 35 12.5 64.5t35 52t52.5 35t64 12.5q35 0 64.5 -12.5t52 -35t35 -52t12.5 -64.5q0 -34 -12.5 -64t-35 -52.5t-52 -35t-64.5 -12.5q-34 0 -64 12.5t-52.5 35t-35 52.5t-12.5 64zM86 250h78q0 -19 7 -34t18 -27q12 -11 27 -18t34 -7t34 7t27 18q11 12 18 27t7 34
h78q0 -34 -12.5 -64t-35 -52.5t-52 -35t-64.5 -12.5q-34 0 -64 12.5t-52.5 35t-35 52.5t-12.5 64zM189 439q12 -11 27 -18t34 -7t34 7t27 18q11 12 18 27t7 34t-7 34t-18 27q-12 11 -27 18t-34 7t-34 -7t-27 -18q-11 -12 -18 -27t-7 -34t7 -34t18 -27z" />
    <glyph glyph-name="uring" unicode="&#x16f;" 
d="M86 500q0 35 12.5 64.5t35 52t52.5 35t64 12.5q35 0 64.5 -12.5t52 -35t35 -52t12.5 -64.5q0 -34 -12.5 -64t-35 -52.5t-52 -35t-64.5 -12.5q-34 0 -64 12.5t-52.5 35t-35 52.5t-12.5 64zM86 250h78q0 -19 7 -34t18 -27q12 -11 27 -18t34 -7t34 7t27 18q11 12 18 27t7 34
h78q0 -34 -12.5 -64t-35 -52.5t-52 -35t-64.5 -12.5q-34 0 -64 12.5t-52.5 35t-35 52.5t-12.5 64zM189 439q12 -11 27 -18t34 -7t34 7t27 18q11 12 18 27t7 34t-7 34t-18 27q-12 11 -27 18t-34 7t-34 -7t-27 -18q-11 -12 -18 -27t-7 -34t7 -34t18 -27z" />
    <glyph glyph-name="Uhungarumlaut" unicode="&#x170;" 
d="M86 500h78v-250q0 -19 7 -34t18 -27q12 -11 27 -18t34 -7t34 7t27 18q11 12 18 27t7 34v250h78v-250q0 -34 -12.5 -64t-35 -52.5t-52 -35t-64.5 -12.5q-34 0 -64 12.5t-52.5 35t-35 52.5t-12.5 64v250zM250 664q19 0 34 7t27 18q11 12 18 27t7 34h78q0 -34 -12.5 -64
t-35 -52.5t-52 -35t-64.5 -12.5v78zM0 664q19 0 34 7t27 18q11 12 18 27t7 34h78q0 -34 -12.5 -64t-35 -52.5t-52 -35t-64.5 -12.5v78z" />
    <glyph glyph-name="uhungarumlaut" unicode="&#x171;" 
d="M86 500h78v-250q0 -19 7 -34t18 -27q12 -11 27 -18t34 -7t34 7t27 18q11 12 18 27t7 34v250h78v-250q0 -34 -12.5 -64t-35 -52.5t-52 -35t-64.5 -12.5q-34 0 -64 12.5t-52.5 35t-35 52.5t-12.5 64v250zM250 664q19 0 34 7t27 18q11 12 18 27t7 34h78q0 -34 -12.5 -64
t-35 -52.5t-52 -35t-64.5 -12.5v78zM0 664q19 0 34 7t27 18q11 12 18 27t7 34h78q0 -34 -12.5 -64t-35 -52.5t-52 -35t-64.5 -12.5v78z" />
    <glyph glyph-name="Uogonek" unicode="&#x172;" 
d="M86 664h78v-414q0 -19 7 -34t18 -27q12 -11 27 -18t34 -7t34 7t27 18q11 12 18 27t7 34v414h78v-414q0 -34 -12.5 -64t-35 -52.5t-52 -35t-64.5 -12.5q-19 0 -34 -7t-27 -18q-11 -12 -18 -27t-7 -34h-78q0 42 14 69t43 56q-29 29 -43 56t-14 69v414z" />
    <glyph glyph-name="uogonek" unicode="&#x173;" 
d="M86 664h78v-414q0 -19 7 -34t18 -27q12 -11 27 -18t34 -7t34 7t27 18q11 12 18 27t7 34v414h78v-414q0 -34 -12.5 -64t-35 -52.5t-52 -35t-64.5 -12.5q-19 0 -34 -7t-27 -18q-11 -12 -18 -27t-7 -34h-78q0 42 14 69t43 56q-29 29 -43 56t-14 69v414z" />
    <glyph glyph-name="Wcircumflex" unicode="&#x174;" 
d="M106 526v-276q0 -35 12.5 -60.5t47.5 -25.5t47.5 25.5t12.5 60.5v276h48v-276q0 -35 12.5 -60.5t47.5 -25.5t47.5 25.5t12.5 60.5v276h66v-298q0 -30 -6.5 -56t-20.5 -45t-36 -30t-52 -11q-38 0 -59.5 18.5t-35.5 50.5q-13 -32 -35 -50.5t-60 -18.5q-30 0 -52 11t-36 30
t-20.5 45t-6.5 56v298h66zM125 664q19 0 34 7t27 18q11 12 18 27t7 34h78q0 -19 7 -34t18 -27q12 -11 27 -18t34 -7v-78q-42 0 -69 14t-56 43q-29 -29 -56 -43t-69 -14v78z" />
    <glyph glyph-name="wcircumflex" unicode="&#x175;" 
d="M106 526v-276q0 -35 12.5 -60.5t47.5 -25.5t47.5 25.5t12.5 60.5v276h48v-276q0 -35 12.5 -60.5t47.5 -25.5t47.5 25.5t12.5 60.5v276h66v-298q0 -30 -6.5 -56t-20.5 -45t-36 -30t-52 -11q-38 0 -59.5 18.5t-35.5 50.5q-13 -32 -35 -50.5t-60 -18.5q-30 0 -52 11t-36 30
t-20.5 45t-6.5 56v298h66zM125 664q19 0 34 7t27 18q11 12 18 27t7 34h78q0 -19 7 -34t18 -27q12 -11 27 -18t34 -7v-78q-42 0 -69 14t-56 43q-29 -29 -56 -43t-69 -14v78z" />
    <glyph glyph-name="Ycircumflex" unicode="&#x176;" 
d="M86 414h78v-164q0 -19 7 -34t18 -27q12 -11 27 -18t34 -7h86v250h78v-414h-78v86h-86q-34 0 -64 12.5t-52.5 35t-35 52.5t-12.5 64v164zM86 500q0 35 12.5 64.5t35 52t52.5 35t64 12.5q35 0 64.5 -12.5t52 -35t35 -52t12.5 -64.5h-78q0 19 -7 34t-18 27q-12 11 -27 18
t-34 7t-34 -7t-27 -18q-11 -12 -18 -27t-7 -34h-78z" />
    <glyph glyph-name="ycircumflex" unicode="&#x177;" 
d="M86 414h78v-164q0 -19 7 -34t18 -27q12 -11 27 -18t34 -7h86v250h78v-414h-78v86h-86q-34 0 -64 12.5t-52.5 35t-35 52.5t-12.5 64v164zM86 500q0 35 12.5 64.5t35 52t52.5 35t64 12.5q35 0 64.5 -12.5t52 -35t35 -52t12.5 -64.5h-78q0 19 -7 34t-18 27q-12 11 -27 18
t-34 7t-34 -7t-27 -18q-11 -12 -18 -27t-7 -34h-78z" />
    <glyph glyph-name="Ydieresis" unicode="&#x178;" 
d="M86 414h78v-164q0 -19 7 -34t18 -27q12 -11 27 -18t34 -7h86v250h78v-414h-78v86h-86q-34 0 -64 12.5t-52.5 35t-35 52.5t-12.5 64v164zM336 500v164h78v-164h-78zM86 664h78v-164h-78v164z" />
    <glyph glyph-name="Zacute" unicode="&#x179;" 
d="M86 586v78h164q19 0 34 7t27 18q11 12 18 27t7 34h78q0 -42 -14 -69t-43 -56q29 -29 43 -56t14 -69q0 -34 -12.5 -64t-35 -52.5t-52 -35t-64.5 -12.5q-19 0 -34 -7t-27 -18q-11 -12 -18 -27t-7 -34v-86h250v-78h-328v164q0 35 12.5 64.5t35 52t52.5 35t64 12.5q19 0 34 7
t27 18q11 12 18 27t7 34t-7 34t-18 27q-12 11 -27 18t-34 7h-164z" />
    <glyph glyph-name="zacute" unicode="&#x17a;" 
d="M86 586v78h164q19 0 34 7t27 18q11 12 18 27t7 34h78q0 -42 -14 -69t-43 -56q29 -29 43 -56t14 -69q0 -34 -12.5 -64t-35 -52.5t-52 -35t-64.5 -12.5q-19 0 -34 -7t-27 -18q-11 -12 -18 -27t-7 -34v-86h250v-78h-328v164q0 35 12.5 64.5t35 52t52.5 35t64 12.5q19 0 34 7
t27 18q11 12 18 27t7 34t-7 34t-18 27q-12 11 -27 18t-34 7h-164z" />
    <glyph glyph-name="Zdotaccent" unicode="&#x17b;" 
d="M86 250q0 20 5.5 40.5t15.5 39.5t24.5 34.5t32.5 25.5q36 24 86 24q19 0 34 7t27 18q11 12 18 27t7 34v86h-250v164h78v-86h250v-164q0 -34 -12.5 -64t-35 -52.5t-52 -35t-64.5 -12.5q-19 0 -34 -7t-27 -18q-11 -12 -18 -27t-7 -34v-86h250v-78h-328v164z" />
    <glyph glyph-name="zdotaccent" unicode="&#x17c;" 
d="M86 250q0 20 5.5 40.5t15.5 39.5t24.5 34.5t32.5 25.5q36 24 86 24q19 0 34 7t27 18q11 12 18 27t7 34v86h-250v164h78v-86h250v-164q0 -34 -12.5 -64t-35 -52.5t-52 -35t-64.5 -12.5q-19 0 -34 -7t-27 -18q-11 -12 -18 -27t-7 -34v-86h250v-78h-328v164z" />
    <glyph glyph-name="Zcaron" unicode="&#x17d;" 
d="M86 500q0 42 14 69t43 56q-29 29 -43 56t-14 69h78q0 -19 7 -34t18 -27q12 -11 27 -18t34 -7t34 7t27 18q11 12 18 27t7 34h78q0 -42 -14 -69t-43 -56q29 -29 43 -56t14 -69q0 -34 -12.5 -64t-35 -52.5t-52 -35t-64.5 -12.5q-19 0 -34 -7t-27 -18q-11 -12 -18 -27t-7 -34
v-86h250v-78h-328v164q0 35 12.5 64.5t35 52t52.5 35t64 12.5q19 0 34 7t27 18q11 12 18 27t7 34t-7 34t-18 27q-12 11 -27 18t-34 7t-34 -7t-27 -18q-11 -12 -18 -27t-7 -34h-78z" />
    <glyph glyph-name="zcaron" unicode="&#x17e;" 
d="M86 500q0 42 14 69t43 56q-29 29 -43 56t-14 69h78q0 -19 7 -34t18 -27q12 -11 27 -18t34 -7t34 7t27 18q11 12 18 27t7 34h78q0 -42 -14 -69t-43 -56q29 -29 43 -56t14 -69q0 -34 -12.5 -64t-35 -52.5t-52 -35t-64.5 -12.5q-19 0 -34 -7t-27 -18q-11 -12 -18 -27t-7 -34
v-86h250v-78h-328v164q0 35 12.5 64.5t35 52t52.5 35t64 12.5q19 0 34 7t27 18q11 12 18 27t7 34t-7 34t-18 27q-12 11 -27 18t-34 7t-34 -7t-27 -18q-11 -12 -18 -27t-7 -34h-78z" />
    <glyph glyph-name="longs" unicode="&#x17f;" 
d="M211 500q0 35 12.5 64.5t35 52t52.5 35t64 12.5v-78q-19 0 -34 -7t-27 -18q-11 -12 -18 -27t-7 -34v-414h-78v414z" />
    <glyph glyph-name="florin" unicode="&#x192;" 
d="M125 164q19 0 34 7t27 18q11 12 18 27t7 34v250q0 35 12.5 64.5t35 52t52.5 35t64 12.5v-78q-19 0 -34 -7t-27 -18q-11 -12 -18 -27t-7 -34v-86h86v-78h-86v-86q0 -34 -12.5 -64t-35 -52.5t-52 -35t-64.5 -12.5v78z" />
    <glyph glyph-name="uni01F4" unicode="&#x1f4;" 
d="M86 500q0 35 12.5 64.5t35 52t52.5 35t64 12.5q19 0 34 7t27 18q11 12 18 27t7 34h78q0 -42 -14 -69t-43 -56q29 -29 43 -56t14 -69h-78q0 19 -7 34t-18 27q-12 11 -27 18t-34 7t-34 -7t-27 -18q-11 -12 -18 -27t-7 -34v-250q0 -19 7 -34t18 -27q12 -11 27 -18t34 -7
t34 7t27 18q11 12 18 27t7 34v86h-86v78h164v-164q0 -34 -12.5 -64t-35 -52.5t-52 -35t-64.5 -12.5q-34 0 -64 12.5t-52.5 35t-35 52.5t-12.5 64v250z" />
    <glyph glyph-name="uni01F5" unicode="&#x1f5;" 
d="M86 500q0 35 12.5 64.5t35 52t52.5 35t64 12.5q19 0 34 7t27 18q11 12 18 27t7 34h78q0 -42 -14 -69t-43 -56q29 -29 43 -56t14 -69h-78q0 19 -7 34t-18 27q-12 11 -27 18t-34 7t-34 -7t-27 -18q-11 -12 -18 -27t-7 -34v-250q0 -19 7 -34t18 -27q12 -11 27 -18t34 -7
t34 7t27 18q11 12 18 27t7 34v86h-86v78h164v-164q0 -34 -12.5 -64t-35 -52.5t-52 -35t-64.5 -12.5q-34 0 -64 12.5t-52.5 35t-35 52.5t-12.5 64v250z" />
    <glyph glyph-name="Aringacute" unicode="&#x1fa;" 
d="M86 250q0 42 14 69t43 56q-29 29 -43 56t-14 69q0 35 12.5 64.5t35 52t52.5 35t64 12.5q19 0 34 7t27 18q11 12 18 27t7 34h78q0 -42 -14 -69t-43 -56q29 -29 43 -56t14 -69t-14 -69t-43 -56q29 -29 43 -56t14 -69v-250h-78v86h-172v-86h-78v250zM336 164v86q0 19 -7 34
t-18 27q-12 11 -27 18t-34 7t-34 -7t-27 -18q-11 -12 -18 -27t-7 -34v-86h172zM164 500q0 -19 7 -34t18 -27q12 -11 27 -18t34 -7t34 7t27 18q11 12 18 27t7 34t-7 34t-18 27q-12 11 -27 18t-34 7t-34 -7t-27 -18q-11 -12 -18 -27t-7 -34z" />
    <glyph glyph-name="aringacute" unicode="&#x1fb;" 
d="M86 250q0 42 14 69t43 56q-29 29 -43 56t-14 69q0 35 12.5 64.5t35 52t52.5 35t64 12.5q19 0 34 7t27 18q11 12 18 27t7 34h78q0 -42 -14 -69t-43 -56q29 -29 43 -56t14 -69t-14 -69t-43 -56q29 -29 43 -56t14 -69v-250h-78v86h-172v-86h-78v250zM336 164v86q0 19 -7 34
t-18 27q-12 11 -27 18t-34 7t-34 -7t-27 -18q-11 -12 -18 -27t-7 -34v-86h172zM164 500q0 -19 7 -34t18 -27q12 -11 27 -18t34 -7t34 7t27 18q11 12 18 27t7 34t-7 34t-18 27q-12 11 -27 18t-34 7t-34 -7t-27 -18q-11 -12 -18 -27t-7 -34z" />
    <glyph glyph-name="AEacute" unicode="&#x1fc;" 
d="M30 407q0 34 13.5 61.5t36 47t52.5 30t62 10.5h44v103h51v-103h181v-65h-181v-137h181v-65h-181v-138h181v-65h-232v203h-130v-203h-78v321zM238 354v137h-44q-17 0 -32.5 -6.5t-27.5 -18t-19 -26.5t-7 -33v-53h130z" />
    <glyph glyph-name="aeacute" unicode="&#x1fd;" 
d="M30 407q0 34 13.5 61.5t36 47t52.5 30t62 10.5h44v103h51v-103h181v-65h-181v-137h181v-65h-181v-138h181v-65h-232v203h-130v-203h-78v321zM238 354v137h-44q-17 0 -32.5 -6.5t-27.5 -18t-19 -26.5t-7 -33v-53h130z" />
    <glyph glyph-name="Oslashacute" unicode="&#x1fe;" 
d="M86 0q0 42 14 69t43 56q-29 29 -43 56t-14 69v250q0 42 14 69t43 56q-29 29 -43 56t-14 69h78q0 -19 7 -34t18 -27q12 -11 27 -18t34 -7t34 7t27 18q11 12 18 27t7 34h78q0 -42 -14 -69t-43 -56q29 -29 43 -56t14 -69v-250q0 -34 -12.5 -64t-35 -52.5t-52 -35
t-64.5 -12.5q-19 0 -34 -7t-27 -18q-11 -12 -18 -27t-7 -34h-78zM164 250q0 -19 7 -34t18 -27q12 -11 27 -18t34 -7t34 7t27 18q11 12 18 27t7 34v250q0 19 -7 34t-18 27q-12 11 -27 18t-34 7t-34 -7t-27 -18q-11 -12 -18 -27t-7 -34v-250z" />
    <glyph glyph-name="oslashacute" unicode="&#x1ff;" 
d="M86 0q0 42 14 69t43 56q-29 29 -43 56t-14 69v250q0 42 14 69t43 56q-29 29 -43 56t-14 69h78q0 -19 7 -34t18 -27q12 -11 27 -18t34 -7t34 7t27 18q11 12 18 27t7 34h78q0 -42 -14 -69t-43 -56q29 -29 43 -56t14 -69v-250q0 -34 -12.5 -64t-35 -52.5t-52 -35
t-64.5 -12.5q-19 0 -34 -7t-27 -18q-11 -12 -18 -27t-7 -34h-78zM164 250q0 -19 7 -34t18 -27q12 -11 27 -18t34 -7t34 7t27 18q11 12 18 27t7 34v250q0 19 -7 34t-18 27q-12 11 -27 18t-34 7t-34 -7t-27 -18q-11 -12 -18 -27t-7 -34v-250z" />
    <glyph glyph-name="uni0218" unicode="&#x218;" 
d="M86 500q0 35 12.5 64.5t35 52t52.5 35t64 12.5q35 0 64.5 -12.5t52 -35t35 -52t12.5 -64.5h-78q0 19 -7 34t-18 27q-12 11 -27 18t-34 7t-34 -7t-27 -18q-11 -12 -18 -27t-7 -34t7 -34t18 -27q12 -11 27 -18t34 -7q35 0 64.5 -12.5t52 -35t35 -52t12.5 -64.5
q0 -34 -12.5 -64t-35 -52.5t-52 -35t-64.5 -12.5q-19 0 -34 -7t-27 -18q-11 -12 -18 -27t-7 -34h-78q0 42 14 69t43 56q-29 29 -43 56t-14 69h78q0 -19 7 -34t18 -27q12 -11 27 -18t34 -7t34 7t27 18q11 12 18 27t7 34t-7 34t-18 27q-12 11 -27 18t-34 7q-34 0 -64 12.5
t-52.5 35t-35 52.5t-12.5 64z" />
    <glyph glyph-name="uni0219" unicode="&#x219;" 
d="M86 500q0 35 12.5 64.5t35 52t52.5 35t64 12.5q35 0 64.5 -12.5t52 -35t35 -52t12.5 -64.5h-78q0 19 -7 34t-18 27q-12 11 -27 18t-34 7t-34 -7t-27 -18q-11 -12 -18 -27t-7 -34t7 -34t18 -27q12 -11 27 -18t34 -7q35 0 64.5 -12.5t52 -35t35 -52t12.5 -64.5
q0 -34 -12.5 -64t-35 -52.5t-52 -35t-64.5 -12.5q-19 0 -34 -7t-27 -18q-11 -12 -18 -27t-7 -34h-78q0 42 14 69t43 56q-29 29 -43 56t-14 69h78q0 -19 7 -34t18 -27q12 -11 27 -18t34 -7t34 7t27 18q11 12 18 27t7 34t-7 34t-18 27q-12 11 -27 18t-34 7q-34 0 -64 12.5
t-52.5 35t-35 52.5t-12.5 64z" />
    <glyph glyph-name="uni021A" unicode="&#x21a;" 
d="M88 664h325v-78h-124v-336h-78v336h-123v78zM211 0v164h78v-164h-78z" />
    <glyph glyph-name="uni021B" unicode="&#x21b;" 
d="M88 664h325v-78h-124v-336h-78v336h-123v78zM211 0v164h78v-164h-78z" />
    <glyph glyph-name="uni0237" unicode="&#x237;" 
d="M86 250h78q0 -19 7 -34t18 -27q12 -11 27 -18t34 -7t34 7t27 18q11 12 18 27t7 34v336h-112v78h190v-414q0 -34 -12.5 -64t-35 -52.5t-52 -35t-64.5 -12.5q-34 0 -64 12.5t-52.5 35t-35 52.5t-12.5 64z" />
    <glyph glyph-name="uni02BC" unicode="&#x2bc;" 
d="M289 750v-164h-78v164h78z" />
    <glyph glyph-name="circumflex" unicode="&#x2c6;" 
d="M125 664q19 0 34 7t27 18q11 12 18 27t7 34h78q0 -19 7 -34t18 -27q12 -11 27 -18t34 -7v-78q-42 0 -69 14t-56 43q-29 -29 -56 -43t-69 -14v78z" />
    <glyph glyph-name="caron" unicode="&#x2c7;" 
d="M125 586v78q42 0 69 -14t56 -43q29 29 56 43t69 14v-78q-19 0 -34 -7t-27 -18q-11 -12 -18 -27t-7 -34h-78q0 19 -7 34t-18 27q-12 11 -27 18t-34 7z" />
    <glyph glyph-name="uni02C9" unicode="&#x2c9;" 
d="M125 664h250v-78h-250v78z" />
    <glyph glyph-name="breve" unicode="&#x2d8;" 
d="M164 750q0 -19 7 -34t18 -27q12 -11 27 -18t34 -7t34 7t27 18q11 12 18 27t7 34h78q0 -34 -12.5 -64t-35 -52.5t-52 -35t-64.5 -12.5q-34 0 -64 12.5t-52.5 35t-35 52.5t-12.5 64h78z" />
    <glyph glyph-name="dotaccent" unicode="&#x2d9;" 
d="M289 750v-164h-78v164h78z" />
    <glyph glyph-name="ring" unicode="&#x2da;" 
d="M86 500q0 35 12.5 64.5t35 52t52.5 35t64 12.5q35 0 64.5 -12.5t52 -35t35 -52t12.5 -64.5q0 -34 -12.5 -64t-35 -52.5t-52 -35t-64.5 -12.5q-34 0 -64 12.5t-52.5 35t-35 52.5t-12.5 64zM189 561q-11 -12 -18 -27t-7 -34t7 -34t18 -27q12 -11 27 -18t34 -7t34 7t27 18
q11 12 18 27t7 34t-7 34t-18 27q-12 11 -27 18t-34 7t-34 -7t-27 -18z" />
    <glyph glyph-name="ogonek" unicode="&#x2db;" 
d="M211 0q0 35 12.5 64.5t35 52t52.5 35t64 12.5v-78q-19 0 -34 -7t-27 -18q-11 -12 -18 -27t-7 -34h-78z" />
    <glyph glyph-name="tilde" unicode="&#x2dc;" 
d="M86 500q0 35 12.5 64.5t35 52t52.5 35t64 12.5q19 0 34 7t27 18q11 12 18 27t7 34h78q0 -34 -12.5 -64t-35 -52.5t-52 -35t-64.5 -12.5q-19 0 -34 -7t-27 -18q-11 -12 -18 -27t-7 -34h-78z" />
    <glyph glyph-name="hungarumlaut" unicode="&#x2dd;" 
d="M250 664q19 0 34 7t27 18q11 12 18 27t7 34h78q0 -34 -12.5 -64t-35 -52.5t-52 -35t-64.5 -12.5v78zM0 664q19 0 34 7t27 18q11 12 18 27t7 34h78q0 -34 -12.5 -64t-35 -52.5t-52 -35t-64.5 -12.5v78z" />
    <glyph glyph-name="gravecomb" unicode="&#x300;" 
d="M86 750h78q0 -19 7 -34t18 -27q12 -11 27 -18t34 -7v-78q-34 0 -64 12.5t-52.5 35t-35 52.5t-12.5 64z" />
    <glyph glyph-name="acutecomb" unicode="&#x301;" 
d="M250 664q19 0 34 7t27 18q11 12 18 27t7 34h78q0 -34 -12.5 -64t-35 -52.5t-52 -35t-64.5 -12.5v78z" />
    <glyph glyph-name="uni0302" unicode="&#x302;" 
d="M120 586v78q19 0 34 7t27 18q11 12 18 27t7 34h78q0 -19 7 -34t18 -27q12 -11 27 -18t34 -7v-78q-42 0 -69 14t-56 43q-29 -29 -56 -43t-69 -14z" />
    <glyph glyph-name="tildecomb" unicode="&#x303;" 
d="M86 500q0 35 12.5 64.5t35 52t52.5 35t64 12.5q19 0 34 7t27 18q11 12 18 27t7 34h78q0 -34 -12.5 -64t-35 -52.5t-52 -35t-64.5 -12.5q-19 0 -34 -7t-27 -18q-11 -12 -18 -27t-7 -34h-78z" />
    <glyph glyph-name="uni0304" unicode="&#x304;" 
d="M125 664h250v-78h-250v78z" />
    <glyph glyph-name="uni0306" unicode="&#x306;" 
d="M164 750q0 -19 7 -34t18 -27q12 -11 27 -18t34 -7t34 7t27 18q11 12 18 27t7 34h78q0 -34 -12.5 -64t-35 -52.5t-52 -35t-64.5 -12.5q-34 0 -64 12.5t-52.5 35t-35 52.5t-12.5 64h78z" />
    <glyph glyph-name="uni0307" unicode="&#x307;" 
d="M289 750v-164h-78v164h78z" />
    <glyph glyph-name="uni0308" unicode="&#x308;" 
d="M336 750h78v-164h-78v164zM86 586v164h78v-164h-78z" />
    <glyph glyph-name="uni030A" unicode="&#x30a;" 
d="M86 500q0 35 12.5 64.5t35 52t52.5 35t64 12.5q35 0 64.5 -12.5t52 -35t35 -52t12.5 -64.5q0 -34 -12.5 -64t-35 -52.5t-52 -35t-64.5 -12.5q-34 0 -64 12.5t-52.5 35t-35 52.5t-12.5 64zM189 561q-11 -12 -18 -27t-7 -34t7 -34t18 -27q12 -11 27 -18t34 -7t34 7t27 18
q11 12 18 27t7 34t-7 34t-18 27q-12 11 -27 18t-34 7t-34 -7t-27 -18z" />
    <glyph glyph-name="uni030B" unicode="&#x30b;" 
d="M250 664q19 0 34 7t27 18q11 12 18 27t7 34h78q0 -34 -12.5 -64t-35 -52.5t-52 -35t-64.5 -12.5v78zM0 664q19 0 34 7t27 18q11 12 18 27t7 34h78q0 -34 -12.5 -64t-35 -52.5t-52 -35t-64.5 -12.5v78z" />
    <glyph glyph-name="uni030C" unicode="&#x30c;" 
d="M125 586v78q42 0 69 -14t56 -43q29 29 56 43t69 14v-78q-19 0 -34 -7t-27 -18q-11 -12 -18 -27t-7 -34h-78q0 19 -7 34t-18 27q-12 11 -27 18t-34 7z" />
    <glyph glyph-name="uni0312" unicode="&#x312;" 
d="M289 750v-164h-78v164h78z" />
    <glyph glyph-name="uni0315" unicode="&#x315;" 
d="M289 750v-164h-78v164h78z" />
    <glyph glyph-name="uni0326" unicode="&#x326;" 
d="M289 250v-250h-78v250h78z" />
    <glyph glyph-name="uni0327" unicode="&#x327;" 
d="M211 0q0 35 12.5 64.5t35 52t52.5 35t64 12.5v-78q-19 0 -34 -7t-27 -18q-11 -12 -18 -27t-7 -34h-78z" />
    <glyph glyph-name="uni0328" unicode="&#x328;" 
d="M211 0q0 35 12.5 64.5t35 52t52.5 35t64 12.5v-78q-19 0 -34 -7t-27 -18q-11 -12 -18 -27t-7 -34h-78z" />
    <glyph glyph-name="uni0344" unicode="&#x344;" 
d="M125 664h86v86h78v-86h86v-78h-250v78zM-39 586v164h78v-164h-78z" />
    <glyph glyph-name="uni0370" unicode="&#x370;" 
d="M289 664v-250h86v-78h-86v-250h-78v578h78z" />
    <glyph glyph-name="uni0371" unicode="&#x371;" 
d="M289 664v-250h86v-78h-86v-250h-78v578h78z" />
    <glyph glyph-name="uni0372" unicode="&#x372;" 
d="M-1 500v164h502v-164h-55v86h-157v-500h-78v500h-157v-86h-55z" />
    <glyph glyph-name="uni0373" unicode="&#x373;" 
d="M-1 500v164h502v-164h-55v86h-157v-500h-78v500h-157v-86h-55z" />
    <glyph glyph-name="uni0374" unicode="&#x374;" 
d="M250 664q19 0 34 7t27 18q11 12 18 27t7 34h78q0 -34 -12.5 -64t-35 -52.5t-52 -35t-64.5 -12.5v78z" />
    <glyph glyph-name="uni0375" unicode="&#x375;" 
d="M211 0q0 35 12.5 64.5t35 52t52.5 35t64 12.5v-78q-19 0 -34 -7t-27 -18q-11 -12 -18 -27t-7 -34h-78z" />
    <glyph glyph-name="uni0376" unicode="&#x376;" 
d="M0 664q42 0 69 -14t56 -43q29 29 56 43t69 14h164v-578h-78v500h-86q-19 0 -34 -7t-27 -18q-11 -12 -18 -27t-7 -34v-414h-78v414q0 19 -7 34t-18 27q-12 11 -27 18t-34 7v78z" />
    <glyph glyph-name="uni0377" unicode="&#x377;" 
d="M0 664q42 0 69 -14t56 -43q29 29 56 43t69 14h164v-578h-78v500h-86q-19 0 -34 -7t-27 -18q-11 -12 -18 -27t-7 -34v-414h-78v414q0 19 -7 34t-18 27q-12 11 -27 18t-34 7v78z" />
    <glyph glyph-name="uni037A" unicode="&#x37a;" 
d="M289 250v-250h-78v250h78z" />
    <glyph glyph-name="uni037B" unicode="&#x37b;" 
d="M86 500q0 35 12.5 64.5t35 52t52.5 35t64 12.5q35 0 64.5 -12.5t52 -35t35 -52t12.5 -64.5v-250q0 -34 -12.5 -64t-35 -52.5t-52 -35t-64.5 -12.5q-34 0 -64 12.5t-52.5 35t-35 52.5t-12.5 64h78q0 -19 7 -34t18 -27q12 -11 27 -18t34 -7t34 7t27 18q11 12 18 27t7 34
v250q0 19 -7 34t-18 27q-12 11 -27 18t-34 7t-34 -7t-27 -18q-11 -12 -18 -27t-7 -34h-78z" />
    <glyph glyph-name="uni037C" unicode="&#x37c;" 
d="M86 500q0 35 12.5 64.5t35 52t52.5 35t64 12.5q35 0 64.5 -12.5t52 -35t35 -52t12.5 -64.5h-78q0 19 -7 34t-18 27q-12 11 -27 18t-34 7t-34 -7t-27 -18q-11 -12 -18 -27t-7 -34v-250q0 -19 7 -34t18 -27q12 -11 27 -18t34 -7t34 7t27 18q11 12 18 27t7 34h78
q0 -34 -12.5 -64t-35 -52.5t-52 -35t-64.5 -12.5q-34 0 -64 12.5t-52.5 35t-35 52.5t-12.5 64v250zM250 336v78h164v-78h-164z" />
    <glyph glyph-name="uni037D" unicode="&#x37d;" 
d="M164 250q0 -19 7 -34t18 -27q12 -11 27 -18t34 -7t34 7t27 18q11 12 18 27t7 34v250q0 19 -7 34t-18 27q-12 11 -27 18t-34 7t-34 -7t-27 -18q-11 -12 -18 -27t-7 -34h-78q0 35 12.5 64.5t35 52t52.5 35t64 12.5q35 0 64.5 -12.5t52 -35t35 -52t12.5 -64.5v-250
q0 -34 -12.5 -64t-35 -52.5t-52 -35t-64.5 -12.5q-34 0 -64 12.5t-52.5 35t-35 52.5t-12.5 64h78zM86 414h164v-78h-164v78z" />
    <glyph glyph-name="uni037E" unicode="&#x37e;" 
d="M211 250h78v-250h-78v250zM211 500h78v-164h-78v164z" />
    <glyph glyph-name="uni037F" unicode="&#x37f;" 
d="M164 250q0 -19 7 -34t18 -27q12 -11 27 -18t34 -7t34 7t27 18q11 12 18 27t7 34v336h-86v78h164v-414q0 -34 -12.5 -64t-35 -52.5t-52 -35t-64.5 -12.5q-34 0 -64 12.5t-52.5 35t-35 52.5t-12.5 64h78z" />
    <glyph glyph-name="tonos" unicode="&#x384;" 
d="M250 664q19 0 34 7t27 18q11 12 18 27t7 34h78q0 -34 -12.5 -64t-35 -52.5t-52 -35t-64.5 -12.5v78z" />
    <glyph glyph-name="dieresistonos" unicode="&#x385;" 
d="M125 664h86v86h78v-86h86v-78h-250v78zM-39 586v164h78v-164h-78z" />
    <glyph glyph-name="Alphatonos" unicode="&#x386;" 
d="M130 500q0 35 12.5 65t34.5 52t52 34.5t65 12.5t64.5 -12.5t52 -35t35 -52t12.5 -64.5v-414h-78v250h-172v-250h-78v414zM380 414v86q0 18 -7 33.5t-18.5 27t-27 18.5t-33.5 7q-19 0 -34 -7t-27 -18q-11 -12 -18 -27t-7 -34v-86h172zM76 750v-164h-40v164h40z" />
    <glyph glyph-name="anoteleia" unicode="&#x387;" 
d="M211 250v164h78v-164h-78z" />
    <glyph glyph-name="Epsilontonos" unicode="&#x388;" 
d="M84 86v578h328v-78h-250v-172h250v-78h-250v-172h250v-78h-328zM-16 750h40v-164h-40v164z" />
    <glyph glyph-name="Etatonos" unicode="&#x389;" 
d="M164 336v-250h-78v578h78v-250h172v250h78v-578h-78v250h-172zM25 750v-164h-40v164h40z" />
    <glyph glyph-name="Iotatonos" unicode="&#x38a;" horiz-adv-x="499" 
d="M214 86v578h77v-578h-77zM143 750v-164h-40v164h40z" />
    <glyph glyph-name="Omicrontonos" unicode="&#x38c;" 
d="M86 500q0 35 12.5 64.5t35 52t52.5 35t64 12.5q35 0 64.5 -12.5t52 -35t35 -52t12.5 -64.5v-250q0 -34 -12.5 -64t-35 -52.5t-52 -35t-64.5 -12.5q-34 0 -64 12.5t-52.5 35t-35 52.5t-12.5 64v250zM164 250q0 -19 7 -34t18 -27q12 -11 27 -18t34 -7t34 7t27 18
q11 12 18 27t7 34v250q0 19 -7 34t-18 27q-12 11 -27 18t-34 7t-34 -7t-27 -18q-11 -12 -18 -27t-7 -34v-250zM36 586v164h40v-164h-40z" />
    <glyph glyph-name="Upsilontonos" unicode="&#x38e;" 
d="M164 664v-164q0 -19 7 -34t18 -27q12 -11 27 -18t34 -7h86v250h78v-578h-78v250h-86q-34 0 -64 12.5t-52.5 35t-35 52.5t-12.5 64v164h78zM14 750h40v-164h-40v164z" />
    <glyph glyph-name="Omegatonos" unicode="&#x38f;" 
d="M86 164v336q0 35 12.5 64.5t35 52t52.5 35t64 12.5q35 0 64.5 -12.5t52 -35t35 -52t12.5 -64.5v-336h86v-78h-500v78h86zM336 164v336q0 19 -7 34t-18 27q-12 11 -27 18t-34 7t-34 -7t-27 -18q-11 -12 -18 -27t-7 -34v-336h172zM5 586v164h40v-164h-40z" />
    <glyph glyph-name="iotadieresistonos" unicode="&#x390;" 
d="M211 86v414h78v-414h-78zM125 664h86v86h78v-86h86v-78h-250v78z" />
    <glyph glyph-name="Alpha" unicode="&#x391;" 
d="M86 500q0 35 12.5 64.5t35 52t52.5 35t64 12.5q35 0 64.5 -12.5t52 -35t35 -52t12.5 -64.5v-414h-78v250h-172v-250h-78v414zM336 414v86q0 19 -7 34t-18 27q-12 11 -27 18t-34 7t-34 -7t-27 -18q-11 -12 -18 -27t-7 -34v-86h172z" />
    <glyph glyph-name="Beta" unicode="&#x392;" 
d="M86 86v578h164q35 0 64.5 -12.5t52 -35t35 -52t12.5 -64.5q0 -42 -14 -69t-43 -56q29 -29 43 -56t14 -69q0 -34 -12.5 -64t-35 -52.5t-52 -35t-64.5 -12.5h-164zM250 414q19 0 34 7t27 18q11 12 18 27t7 34t-7 34t-18 27q-12 11 -27 18t-34 7h-86v-172h86zM164 336v-172
h86q19 0 34 7t27 18q11 12 18 27t7 34t-7 34t-18 27q-12 11 -27 18t-34 7h-86z" />
    <glyph glyph-name="Gamma" unicode="&#x393;" 
d="M86 664h328v-78h-250v-500h-78v578z" />
    <glyph glyph-name="uni0394" unicode="&#x394;" 
d="M250 664q35 0 64.5 -12.5t52 -35t35 -52t12.5 -64.5v-414h-328v578h164zM164 164h172v336q0 19 -7 34t-18 27q-12 11 -27 18t-34 7h-86v-422z" />
    <glyph glyph-name="Epsilon" unicode="&#x395;" 
d="M86 664h328v-78h-250v-172h250v-78h-250v-172h250v-78h-328v578z" />
    <glyph glyph-name="Zeta" unicode="&#x396;" 
d="M86 664h328v-164q0 -34 -12.5 -64t-35 -52.5t-52 -35t-64.5 -12.5q-19 0 -34 -7t-27 -18q-11 -12 -18 -27t-7 -34v-86h250v-78h-328v164q0 35 12.5 64.5t35 52t52.5 35t64 12.5q19 0 34 7t27 18q11 12 18 27t7 34v86h-250v78z" />
    <glyph glyph-name="Eta" unicode="&#x397;" 
d="M164 664v-250h172v250h78v-578h-78v250h-172v-250h-78v578h78z" />
    <glyph glyph-name="Theta" unicode="&#x398;" 
d="M86 500q0 35 12.5 64.5t35 52t52.5 35t64 12.5q35 0 64.5 -12.5t52 -35t35 -52t12.5 -64.5v-250q0 -34 -12.5 -64t-35 -52.5t-52 -35t-64.5 -12.5q-34 0 -64 12.5t-52.5 35t-35 52.5t-12.5 64v250zM164 250q0 -19 7 -34t18 -27q12 -11 27 -18t34 -7t34 7t27 18
q11 12 18 27t7 34v86h-172v-86zM336 414v86q0 19 -7 34t-18 27q-12 11 -27 18t-34 7t-34 -7t-27 -18q-11 -12 -18 -27t-7 -34v-86h172z" />
    <glyph glyph-name="Iota" unicode="&#x399;" 
d="M103 86v78h108v422h-108v78h295v-78h-109v-422h109v-78h-295z" />
    <glyph glyph-name="Kappa" unicode="&#x39a;" 
d="M164 664v-250h86q19 0 34 7t27 18q11 12 18 27t7 34v164h78v-164q0 -42 -14 -69t-43 -56q-10 -9 -21 -15v-24l30 30q23 -22 35.5 -50.5t12.5 -65.5v-164h-78v164q0 19 -7 34t-18 27q-12 11 -27 18t-34 7h-86v-250h-78v578h78z" />
    <glyph glyph-name="Lambda" unicode="&#x39b;" 
d="M86 86v414q0 35 12.5 64.5t35 52t52.5 35t64 12.5h164v-578h-78v500h-86q-19 0 -34 -7t-27 -18q-11 -12 -18 -27t-7 -34v-414h-78z" />
    <glyph glyph-name="Mu" unicode="&#x39c;" 
d="M40 523q0 61 27 101t88 40q38 0 60 -18.5t35 -50.5q13 32 35 50.5t60 18.5q61 0 88 -40t27 -101v-437h-66v414q0 35 -12.5 60.5t-47.5 25.5t-47.5 -25.5t-12.5 -60.5v-414h-48v414q0 35 -12.5 60.5t-47.5 25.5t-47.5 -25.5t-12.5 -60.5v-414h-66v437z" />
    <glyph glyph-name="Nu" unicode="&#x39d;" 
d="M86 86v578h164q35 0 64.5 -12.5t52 -35t35 -52t12.5 -64.5v-414h-78v414q0 19 -7 34t-18 27q-12 11 -27 18t-34 7h-86v-500h-78z" />
    <glyph glyph-name="Xi" unicode="&#x39e;" 
d="M86 164h328v-78h-328v78zM250 666v-2h164v-78h-164v2h-164v78h164zM86 416h164v-2h164v-78h-164v2h-164v78z" />
    <glyph glyph-name="Omicron" unicode="&#x39f;" 
d="M86 500q0 35 12.5 64.5t35 52t52.5 35t64 12.5q35 0 64.5 -12.5t52 -35t35 -52t12.5 -64.5v-250q0 -34 -12.5 -64t-35 -52.5t-52 -35t-64.5 -12.5q-34 0 -64 12.5t-52.5 35t-35 52.5t-12.5 64v250zM164 250q0 -19 7 -34t18 -27q12 -11 27 -18t34 -7t34 7t27 18
q11 12 18 27t7 34v250q0 19 -7 34t-18 27q-12 11 -27 18t-34 7t-34 -7t-27 -18q-11 -12 -18 -27t-7 -34v-250z" />
    <glyph glyph-name="Pi" unicode="&#x3a0;" 
d="M86 86v578h328v-578h-78v500h-172v-500h-78z" />
    <glyph glyph-name="Rho" unicode="&#x3a1;" 
d="M86 86v578h164q35 0 64.5 -12.5t52 -35t35 -52t12.5 -64.5q0 -34 -12.5 -64t-35 -52.5t-52 -35t-64.5 -12.5h-86v-250h-78zM250 414q19 0 34 7t27 18q11 12 18 27t7 34t-7 34t-18 27q-12 11 -27 18t-34 7h-86v-172h86z" />
    <glyph glyph-name="Sigma" unicode="&#x3a3;" 
d="M86 250q0 42 14 69t43 56q-29 29 -43 56t-14 69v164h328v-78h-250v-86q0 -19 7 -34t18 -27q12 -11 27 -18t34 -7h164v-78h-164q-19 0 -34 -7t-27 -18q-11 -12 -18 -27t-7 -34v-86h250v-78h-328v164z" />
    <glyph glyph-name="Tau" unicode="&#x3a4;" 
d="M88 664h325v-78h-124v-500h-78v500h-123v78z" />
    <glyph glyph-name="Upsilon" unicode="&#x3a5;" 
d="M86 500v164h78v-164q0 -19 7 -34t18 -27q12 -11 27 -18t34 -7h86v250h78v-578h-78v250h-86q-34 0 -64 12.5t-52.5 35t-35 52.5t-12.5 64z" />
    <glyph glyph-name="Phi" unicode="&#x3a6;" 
d="M69 400q0 33 11 61.5t31 50.5t47.5 35.5t60.5 15.5v113h62v-112q32 -2 59.5 -16t47.5 -36t31.5 -51t11.5 -61t-11.5 -61t-31.5 -51t-47.5 -36t-59.5 -16v-150h-62v151q-33 2 -60.5 15.5t-47.5 35.5t-31 50.5t-11 61.5zM286 314q18 0 33.5 7t27.5 18.5t19 27t7 33.5
t-7 33.5t-19 27t-27.5 18.5t-33.5 7h-5v-172h5zM128 400q0 -19 7 -34t18 -27q12 -11 27 -18t34 -7h5v172h-5q-19 0 -34 -7t-27 -18q-11 -12 -18 -27t-7 -34z" />
    <glyph glyph-name="Chi" unicode="&#x3a7;" 
d="M86 664h78v-164q0 -19 7 -34t18 -27q12 -11 27 -18t34 -7t34 7t27 18q11 12 18 27t7 34v164h78v-164q0 -42 -14 -69t-43 -56q29 -29 43 -56t14 -69v-164h-78v164q0 19 -7 34t-18 27q-12 11 -27 18t-34 7t-34 -7t-27 -18q-11 -12 -18 -27t-7 -34v-164h-78v164q0 42 14 69
t43 56q-29 29 -43 56t-14 69v164z" />
    <glyph glyph-name="Psi" unicode="&#x3a8;" 
d="M86 500v164h78v-164q0 -19 7 -34t18 -27q12 -11 27 -18t34 -7h86v250h78v-578h-78v250h-86q-34 0 -64 12.5t-52.5 35t-35 52.5t-12.5 64z" />
    <glyph glyph-name="uni03A9" unicode="&#x3a9;" 
d="M0 164h86v336q0 35 12.5 64.5t35 52t52.5 35t64 12.5q35 0 64.5 -12.5t52 -35t35 -52t12.5 -64.5v-336h86v-78h-500v78zM336 164v336q0 19 -7 34t-18 27q-12 11 -27 18t-34 7t-34 -7t-27 -18q-11 -12 -18 -27t-7 -34v-336h172z" />
    <glyph glyph-name="Iotadieresis" unicode="&#x3aa;" 
d="M289 500v-414h-78v414h78zM125 586v78h250v-78h-250z" />
    <glyph glyph-name="Upsilondieresis" unicode="&#x3ab;" 
d="M86 414h78v-164q0 -19 7 -34t18 -27q12 -11 27 -18t34 -7h86v250h78v-414h-78v86h-86q-34 0 -64 12.5t-52.5 35t-35 52.5t-12.5 64v164zM336 500v164h78v-164h-78zM86 664h78v-164h-78v164z" />
    <glyph glyph-name="alphatonos" unicode="&#x3ac;" 
d="M130 500q0 35 12.5 65t34.5 52t52 34.5t65 12.5t64.5 -12.5t52 -35t35 -52t12.5 -64.5v-414h-78v250h-172v-250h-78v414zM380 414v86q0 18 -7 33.5t-18.5 27t-27 18.5t-33.5 7q-19 0 -34 -7t-27 -18q-11 -12 -18 -27t-7 -34v-86h172zM76 750v-164h-40v164h40z" />
    <glyph glyph-name="epsilontonos" unicode="&#x3ad;" 
d="M84 86v578h328v-78h-250v-172h250v-78h-250v-172h250v-78h-328zM-16 750h40v-164h-40v164z" />
    <glyph glyph-name="etatonos" unicode="&#x3ae;" 
d="M164 336v-250h-78v578h78v-250h172v250h78v-578h-78v250h-172zM25 750v-164h-40v164h40z" />
    <glyph glyph-name="iotatonos" unicode="&#x3af;" horiz-adv-x="499" 
d="M214 86v578h77v-578h-77zM143 750v-164h-40v164h40z" />
    <glyph glyph-name="upsilondieresistonos" unicode="&#x3b0;" 
d="M164 414v-164q0 -19 7 -34t18 -27q12 -11 27 -18t34 -7h86v250h78v-414h-78v86h-86q-34 0 -64 12.5t-52.5 35t-35 52.5t-12.5 64v164h78zM124 524v77h86v87h78v-87h86v-77h-250z" />
    <glyph glyph-name="alpha" unicode="&#x3b1;" 
d="M86 500q0 35 12.5 64.5t35 52t52.5 35t64 12.5q35 0 64.5 -12.5t52 -35t35 -52t12.5 -64.5v-414h-78v250h-172v-250h-78v414zM336 414v86q0 19 -7 34t-18 27q-12 11 -27 18t-34 7t-34 -7t-27 -18q-11 -12 -18 -27t-7 -34v-86h172z" />
    <glyph glyph-name="beta" unicode="&#x3b2;" 
d="M86 86v578h164q35 0 64.5 -12.5t52 -35t35 -52t12.5 -64.5q0 -42 -14 -69t-43 -56q29 -29 43 -56t14 -69q0 -34 -12.5 -64t-35 -52.5t-52 -35t-64.5 -12.5h-164zM250 414q19 0 34 7t27 18q11 12 18 27t7 34t-7 34t-18 27q-12 11 -27 18t-34 7h-86v-172h86zM164 336v-172
h86q19 0 34 7t27 18q11 12 18 27t7 34t-7 34t-18 27q-12 11 -27 18t-34 7h-86z" />
    <glyph glyph-name="gamma" unicode="&#x3b3;" 
d="M86 664h328v-78h-250v-500h-78v578z" />
    <glyph glyph-name="delta" unicode="&#x3b4;" 
d="M250 664q35 0 64.5 -12.5t52 -35t35 -52t12.5 -64.5v-414h-328v578h164zM164 164h172v336q0 19 -7 34t-18 27q-12 11 -27 18t-34 7h-86v-422z" />
    <glyph glyph-name="epsilon" unicode="&#x3b5;" 
d="M86 664h328v-78h-250v-172h250v-78h-250v-172h250v-78h-328v578z" />
    <glyph glyph-name="zeta" unicode="&#x3b6;" 
d="M86 664h328v-164q0 -34 -12.5 -64t-35 -52.5t-52 -35t-64.5 -12.5q-19 0 -34 -7t-27 -18q-11 -12 -18 -27t-7 -34v-86h250v-78h-328v164q0 35 12.5 64.5t35 52t52.5 35t64 12.5q19 0 34 7t27 18q11 12 18 27t7 34v86h-250v78z" />
    <glyph glyph-name="eta" unicode="&#x3b7;" 
d="M164 664v-250h172v250h78v-578h-78v250h-172v-250h-78v578h78z" />
    <glyph glyph-name="theta" unicode="&#x3b8;" 
d="M86 500q0 35 12.5 64.5t35 52t52.5 35t64 12.5q35 0 64.5 -12.5t52 -35t35 -52t12.5 -64.5v-250q0 -34 -12.5 -64t-35 -52.5t-52 -35t-64.5 -12.5q-34 0 -64 12.5t-52.5 35t-35 52.5t-12.5 64v250zM164 250q0 -19 7 -34t18 -27q12 -11 27 -18t34 -7t34 7t27 18
q11 12 18 27t7 34v86h-172v-86zM336 414v86q0 19 -7 34t-18 27q-12 11 -27 18t-34 7t-34 -7t-27 -18q-11 -12 -18 -27t-7 -34v-86h172z" />
    <glyph glyph-name="iota" unicode="&#x3b9;" 
d="M103 86v78h108v422h-108v78h295v-78h-109v-422h109v-78h-295z" />
    <glyph glyph-name="kappa" unicode="&#x3ba;" 
d="M164 664v-250h86q19 0 34 7t27 18q11 12 18 27t7 34v164h78v-164q0 -42 -14 -69t-43 -56q29 -29 43 -56t14 -69v-164h-78v164q0 19 -7 34t-18 27q-12 11 -27 18t-34 7h-86v-250h-78v578h78z" />
    <glyph glyph-name="lambda" unicode="&#x3bb;" 
d="M86 86v414q0 35 12.5 64.5t35 52t52.5 35t64 12.5h164v-578h-78v500h-86q-19 0 -34 -7t-27 -18q-11 -12 -18 -27t-7 -34v-414h-78z" />
    <glyph glyph-name="uni03BC" unicode="&#x3bc;" 
d="M164 664v-414q0 -19 7 -34t18 -27q12 -11 27 -18t34 -7t34 7t27 18q11 12 18 27t7 34v414h78v-414q0 -34 -12.5 -64t-35 -52.5t-52 -35t-64.5 -12.5q-34 0 -64 12.5t-52.5 35t-35 52.5t-12.5 64v414h78z" />
    <glyph glyph-name="nu" unicode="&#x3bd;" 
d="M86 86v578h164q35 0 64.5 -12.5t52 -35t35 -52t12.5 -64.5v-414h-78v414q0 19 -7 34t-18 27q-12 11 -27 18t-34 7h-86v-500h-78z" />
    <glyph glyph-name="xi" unicode="&#x3be;" 
d="M86 164h328v-78h-328v78zM250 666v-2h164v-78h-164v2h-164v78h164zM86 416h164v-2h164v-78h-164v2h-164v78z" />
    <glyph glyph-name="omicron" unicode="&#x3bf;" 
d="M86 500q0 35 12.5 64.5t35 52t52.5 35t64 12.5q35 0 64.5 -12.5t52 -35t35 -52t12.5 -64.5v-250q0 -34 -12.5 -64t-35 -52.5t-52 -35t-64.5 -12.5q-34 0 -64 12.5t-52.5 35t-35 52.5t-12.5 64v250zM164 250q0 -19 7 -34t18 -27q12 -11 27 -18t34 -7t34 7t27 18
q11 12 18 27t7 34v250q0 19 -7 34t-18 27q-12 11 -27 18t-34 7t-34 -7t-27 -18q-11 -12 -18 -27t-7 -34v-250z" />
    <glyph glyph-name="pi" unicode="&#x3c0;" 
d="M86 86v578h328v-578h-78v500h-172v-500h-78z" />
    <glyph glyph-name="rho" unicode="&#x3c1;" 
d="M86 86v578h164q35 0 64.5 -12.5t52 -35t35 -52t12.5 -64.5q0 -34 -12.5 -64t-35 -52.5t-52 -35t-64.5 -12.5h-86v-250h-78zM250 414q19 0 34 7t27 18q11 12 18 27t7 34t-7 34t-18 27q-12 11 -27 18t-34 7h-86v-172h86z" />
    <glyph glyph-name="sigma1" unicode="&#x3c2;" 
d="M86 250q0 42 14 69t43 56q-29 29 -43 56t-14 69v164h328v-78h-250v-86q0 -19 7 -34t18 -27q12 -11 27 -18t34 -7h164v-78h-164q-19 0 -34 -7t-27 -18q-11 -12 -18 -27t-7 -34v-86h250v-78h-328v164z" />
    <glyph glyph-name="sigma" unicode="&#x3c3;" 
d="M86 250q0 42 14 69t43 56q-29 29 -43 56t-14 69v164h328v-78h-250v-86q0 -19 7 -34t18 -27q12 -11 27 -18t34 -7h164v-78h-164q-19 0 -34 -7t-27 -18q-11 -12 -18 -27t-7 -34v-86h250v-78h-328v164z" />
    <glyph glyph-name="tau" unicode="&#x3c4;" 
d="M88 664h325v-78h-124v-500h-78v500h-123v78z" />
    <glyph glyph-name="upsilon" unicode="&#x3c5;" 
d="M86 500v164h78v-164q0 -19 7 -34t18 -27q12 -11 27 -18t34 -7h86v250h78v-578h-78v250h-86q-34 0 -64 12.5t-52.5 35t-35 52.5t-12.5 64z" />
    <glyph glyph-name="phi" unicode="&#x3c6;" 
d="M69 400q0 33 11 61.5t31 50.5t47.5 35.5t60.5 15.5v113h62v-112q32 -2 59.5 -16t47.5 -36t31.5 -51t11.5 -61t-11.5 -61t-31.5 -51t-47.5 -36t-59.5 -16v-150h-62v151q-33 2 -60.5 15.5t-47.5 35.5t-31 50.5t-11 61.5zM286 314q18 0 33.5 7t27.5 18.5t19 27t7 33.5
t-7 33.5t-19 27t-27.5 18.5t-33.5 7h-5v-172h5zM128 400q0 -19 7 -34t18 -27q12 -11 27 -18t34 -7h5v172h-5q-19 0 -34 -7t-27 -18q-11 -12 -18 -27t-7 -34z" />
    <glyph glyph-name="chi" unicode="&#x3c7;" 
d="M86 664h78v-164q0 -19 7 -34t18 -27q12 -11 27 -18t34 -7t34 7t27 18q11 12 18 27t7 34v164h78v-164q0 -42 -14 -69t-43 -56q-10 -9 -21 -15v-24l30 30q23 -22 35.5 -50.5t12.5 -65.5v-164h-78v164q0 19 -7 34t-18 27q-12 11 -27 18t-34 7t-34 -7t-27 -18
q-11 -12 -18 -27t-7 -34v-164h-78v164q0 42 14 69t43 56q-29 29 -43 56t-14 69v164z" />
    <glyph glyph-name="psi" unicode="&#x3c8;" 
d="M86 500v164h78v-164q0 -19 7 -34t18 -27q12 -11 27 -18t34 -7h86v250h78v-578h-78v250h-86q-34 0 -64 12.5t-52.5 35t-35 52.5t-12.5 64z" />
    <glyph glyph-name="omega" unicode="&#x3c9;" 
d="M0 164h86v336q0 35 12.5 64.5t35 52t52.5 35t64 12.5q35 0 64.5 -12.5t52 -35t35 -52t12.5 -64.5v-336h86v-78h-500v78zM336 164v336q0 19 -7 34t-18 27q-12 11 -27 18t-34 7t-34 -7t-27 -18q-11 -12 -18 -27t-7 -34v-336h172z" />
    <glyph glyph-name="iotadieresis" unicode="&#x3ca;" 
d="M289 500v-414h-78v414h78zM125 586v78h250v-78h-250z" />
    <glyph glyph-name="upsilondieresis" unicode="&#x3cb;" 
d="M86 414h78v-164q0 -19 7 -34t18 -27q12 -11 27 -18t34 -7h86v250h78v-414h-78v86h-86q-34 0 -64 12.5t-52.5 35t-35 52.5t-12.5 64v164zM336 500v164h78v-164h-78zM86 664h78v-164h-78v164z" />
    <glyph glyph-name="omicrontonos" unicode="&#x3cc;" 
d="M86 500q0 35 12.5 64.5t35 52t52.5 35t64 12.5q35 0 64.5 -12.5t52 -35t35 -52t12.5 -64.5v-250q0 -34 -12.5 -64t-35 -52.5t-52 -35t-64.5 -12.5q-34 0 -64 12.5t-52.5 35t-35 52.5t-12.5 64v250zM164 250q0 -19 7 -34t18 -27q12 -11 27 -18t34 -7t34 7t27 18
q11 12 18 27t7 34v250q0 19 -7 34t-18 27q-12 11 -27 18t-34 7t-34 -7t-27 -18q-11 -12 -18 -27t-7 -34v-250zM36 586v164h40v-164h-40z" />
    <glyph glyph-name="upsilontonos" unicode="&#x3cd;" 
d="M164 664v-164q0 -19 7 -34t18 -27q12 -11 27 -18t34 -7h86v250h78v-578h-78v250h-86q-34 0 -64 12.5t-52.5 35t-35 52.5t-12.5 64v164h78zM14 750h40v-164h-40v164z" />
    <glyph glyph-name="omegatonos" unicode="&#x3ce;" 
d="M86 164v336q0 35 12.5 64.5t35 52t52.5 35t64 12.5q35 0 64.5 -12.5t52 -35t35 -52t12.5 -64.5v-336h86v-78h-500v78h86zM336 164v336q0 19 -7 34t-18 27q-12 11 -27 18t-34 7t-34 -7t-27 -18q-11 -12 -18 -27t-7 -34v-336h172zM5 586v164h40v-164h-40z" />
    <glyph glyph-name="theta1" unicode="&#x3d1;" 
d="M86 500q0 35 12.5 64.5t35 52t52.5 35t64 12.5q35 0 64.5 -12.5t52 -35t35 -52t12.5 -64.5v-250q0 -34 -12.5 -64t-35 -52.5t-52 -35t-64.5 -12.5q-34 0 -64 12.5t-52.5 35t-35 52.5t-12.5 64v250zM164 250q0 -19 7 -34t18 -27q12 -11 27 -18t34 -7t34 7t27 18
q11 12 18 27t7 34v86h-172v-86zM336 414v86q0 19 -7 34t-18 27q-12 11 -27 18t-34 7t-34 -7t-27 -18q-11 -12 -18 -27t-7 -34v-86h172z" />
    <glyph glyph-name="phi1" unicode="&#x3d5;" 
d="M69 400q0 33 11 61.5t31 50.5t47.5 35.5t60.5 15.5v113h62v-112q32 -2 59.5 -16t47.5 -36t31.5 -51t11.5 -61t-11.5 -61t-31.5 -51t-47.5 -36t-59.5 -16v-150h-62v151q-33 2 -60.5 15.5t-47.5 35.5t-31 50.5t-11 61.5zM286 314q18 0 33.5 7t27.5 18.5t19 27t7 33.5
t-7 33.5t-19 27t-27.5 18.5t-33.5 7h-5v-172h5zM128 400q0 -19 7 -34t18 -27q12 -11 27 -18t34 -7h5v172h-5q-19 0 -34 -7t-27 -18q-11 -12 -18 -27t-7 -34z" />
    <glyph glyph-name="omega1" unicode="&#x3d6;" 
d="M0 164h86v336q0 35 12.5 64.5t35 52t52.5 35t64 12.5q35 0 64.5 -12.5t52 -35t35 -52t12.5 -64.5v-336h86v-78h-500v78zM336 164v336q0 19 -7 34t-18 27q-12 11 -27 18t-34 7t-34 -7t-27 -18q-11 -12 -18 -27t-7 -34v-336h172z" />
    <glyph glyph-name="uni03F2" unicode="&#x3f2;" 
d="M86 500q0 35 12.5 64.5t35 52t52.5 35t64 12.5q35 0 64.5 -12.5t52 -35t35 -52t12.5 -64.5h-78q0 19 -7 34t-18 27q-12 11 -27 18t-34 7t-34 -7t-27 -18q-11 -12 -18 -27t-7 -34v-250q0 -19 7 -34t18 -27q12 -11 27 -18t34 -7t34 7t27 18q11 12 18 27t7 34h78
q0 -34 -12.5 -64t-35 -52.5t-52 -35t-64.5 -12.5q-34 0 -64 12.5t-52.5 35t-35 52.5t-12.5 64v250z" />
    <glyph glyph-name="uni03F3" unicode="&#x3f3;" 
d="M164 250q0 -19 7 -34t18 -27q12 -11 27 -18t34 -7t34 7t27 18q11 12 18 27t7 34v336h-86v78h164v-414q0 -34 -12.5 -64t-35 -52.5t-52 -35t-64.5 -12.5q-34 0 -64 12.5t-52.5 35t-35 52.5t-12.5 64h78z" />
    <glyph glyph-name="uni03F4" unicode="&#x3f4;" 
d="M86 500q0 35 12.5 64.5t35 52t52.5 35t64 12.5q35 0 64.5 -12.5t52 -35t35 -52t12.5 -64.5v-250q0 -34 -12.5 -64t-35 -52.5t-52 -35t-64.5 -12.5q-34 0 -64 12.5t-52.5 35t-35 52.5t-12.5 64v250zM164 250q0 -19 7 -34t18 -27q12 -11 27 -18t34 -7t34 7t27 18
q11 12 18 27t7 34v86h-172v-86zM336 414v86q0 19 -7 34t-18 27q-12 11 -27 18t-34 7t-34 -7t-27 -18q-11 -12 -18 -27t-7 -34v-86h172z" />
    <glyph glyph-name="uni03F5" unicode="&#x3f5;" 
d="M86 500q0 35 12.5 64.5t35 52t52.5 35t64 12.5q35 0 64.5 -12.5t52 -35t35 -52t12.5 -64.5h-78q0 19 -7 34t-18 27q-12 11 -27 18t-34 7t-34 -7t-27 -18q-11 -12 -18 -27t-7 -34v-86h250v-78h-250v-86q0 -19 7 -34t18 -27q12 -11 27 -18t34 -7t34 7t27 18q11 12 18 27
t7 34h78q0 -34 -12.5 -64t-35 -52.5t-52 -35t-64.5 -12.5q-34 0 -64 12.5t-52.5 35t-35 52.5t-12.5 64v250z" />
    <glyph glyph-name="uni03F6" unicode="&#x3f6;" 
d="M86 414h250v86q0 19 -7 34t-18 27q-12 11 -27 18t-34 7t-34 -7t-27 -18q-11 -12 -18 -27t-7 -34h-78q0 35 12.5 64.5t35 52t52.5 35t64 12.5q35 0 64.5 -12.5t52 -35t35 -52t12.5 -64.5v-250q0 -34 -12.5 -64t-35 -52.5t-52 -35t-64.5 -12.5q-34 0 -64 12.5t-52.5 35
t-35 52.5t-12.5 64h78q0 -19 7 -34t18 -27q12 -11 27 -18t34 -7t34 7t27 18q11 12 18 27t7 34v86h-250v78z" />
    <glyph glyph-name="uni03F7" unicode="&#x3f7;" 
d="M164 664v-116h86q35 0 64.5 -12.5t52 -35t35 -52t12.5 -64.5t-12.5 -65t-34.5 -52t-52 -34.5t-65 -12.5h-86v-134h-78v578h78zM164 470v-172h86q19 0 34 7t27 18q11 12 18 27t7 34q0 18 -7 33.5t-18.5 27t-27 18.5t-33.5 7h-86z" />
    <glyph glyph-name="uni03F8" unicode="&#x3f8;" 
d="M164 664v-116h86q35 0 64.5 -12.5t52 -35t35 -52t12.5 -64.5t-12.5 -65t-34.5 -52t-52 -34.5t-65 -12.5h-86v-134h-78v578h78zM164 470v-172h86q19 0 34 7t27 18q11 12 18 27t7 34q0 18 -7 33.5t-18.5 27t-27 18.5t-33.5 7h-86z" />
    <glyph glyph-name="uni03F9" unicode="&#x3f9;" 
d="M86 500q0 35 12.5 64.5t35 52t52.5 35t64 12.5q35 0 64.5 -12.5t52 -35t35 -52t12.5 -64.5h-78q0 19 -7 34t-18 27q-12 11 -27 18t-34 7t-34 -7t-27 -18q-11 -12 -18 -27t-7 -34v-250q0 -19 7 -34t18 -27q12 -11 27 -18t34 -7t34 7t27 18q11 12 18 27t7 34h78
q0 -34 -12.5 -64t-35 -52.5t-52 -35t-64.5 -12.5q-34 0 -64 12.5t-52.5 35t-35 52.5t-12.5 64v250z" />
    <glyph glyph-name="uni03FA" unicode="&#x3fa;" 
d="M40 523q0 61 27 101t88 40q38 0 60 -18.5t35 -50.5q13 32 35 50.5t60 18.5q61 0 88 -40t27 -101v-437h-66v414q0 35 -12.5 60.5t-47.5 25.5t-47.5 -25.5t-12.5 -60.5v-414h-48v414q0 35 -12.5 60.5t-47.5 25.5t-47.5 -25.5t-12.5 -60.5v-414h-66v437z" />
    <glyph glyph-name="uni03FB" unicode="&#x3fb;" 
d="M40 523q0 61 27 101t88 40q38 0 60 -18.5t35 -50.5q13 32 35 50.5t60 18.5q61 0 88 -40t27 -101v-437h-66v414q0 35 -12.5 60.5t-47.5 25.5t-47.5 -25.5t-12.5 -60.5v-414h-48v414q0 35 -12.5 60.5t-47.5 25.5t-47.5 -25.5t-12.5 -60.5v-414h-66v437z" />
    <glyph glyph-name="uni03FC" unicode="&#x3fc;" 
d="M250 664q35 0 64.5 -12.5t52 -35t35 -52t12.5 -64.5q0 -34 -12.5 -64t-35 -52.5t-52 -35t-64.5 -12.5h-86v-172h86v-78h-86v-86h-78v664h164zM250 414q19 0 34 7t27 18q11 12 18 27t7 34t-7 34t-18 27q-12 11 -27 18t-34 7h-86v-172h86z" />
    <glyph glyph-name="uni03FD" unicode="&#x3fd;" 
d="M86 500q0 35 12.5 64.5t35 52t52.5 35t64 12.5q35 0 64.5 -12.5t52 -35t35 -52t12.5 -64.5v-250q0 -34 -12.5 -64t-35 -52.5t-52 -35t-64.5 -12.5q-34 0 -64 12.5t-52.5 35t-35 52.5t-12.5 64h78q0 -19 7 -34t18 -27q12 -11 27 -18t34 -7t34 7t27 18q11 12 18 27t7 34
v250q0 19 -7 34t-18 27q-12 11 -27 18t-34 7t-34 -7t-27 -18q-11 -12 -18 -27t-7 -34h-78z" />
    <glyph glyph-name="uni03FE" unicode="&#x3fe;" 
d="M86 500q0 35 12.5 64.5t35 52t52.5 35t64 12.5q35 0 64.5 -12.5t52 -35t35 -52t12.5 -64.5h-78q0 19 -7 34t-18 27q-12 11 -27 18t-34 7t-34 -7t-27 -18q-11 -12 -18 -27t-7 -34v-250q0 -19 7 -34t18 -27q12 -11 27 -18t34 -7t34 7t27 18q11 12 18 27t7 34h78
q0 -34 -12.5 -64t-35 -52.5t-52 -35t-64.5 -12.5q-34 0 -64 12.5t-52.5 35t-35 52.5t-12.5 64v250zM250 336v78h164v-78h-164z" />
    <glyph glyph-name="uni03FF" unicode="&#x3ff;" 
d="M164 250q0 -19 7 -34t18 -27q12 -11 27 -18t34 -7t34 7t27 18q11 12 18 27t7 34v250q0 19 -7 34t-18 27q-12 11 -27 18t-34 7t-34 -7t-27 -18q-11 -12 -18 -27t-7 -34h-78q0 35 12.5 64.5t35 52t52.5 35t64 12.5q35 0 64.5 -12.5t52 -35t35 -52t12.5 -64.5v-250
q0 -34 -12.5 -64t-35 -52.5t-52 -35t-64.5 -12.5q-34 0 -64 12.5t-52.5 35t-35 52.5t-12.5 64h78zM86 414h164v-78h-164v78z" />
    <glyph glyph-name="uni0400" unicode="&#x400;" 
d="M164 336v-172h250v-78h-328v414q0 42 14 69t43 56q-29 29 -43 56t-14 69h78q0 -19 7 -34t18 -27q12 -11 27 -18t34 -7h164v-78h-164q-19 0 -34 -7t-27 -18q-11 -12 -18 -27t-7 -34v-86h250v-78h-250z" />
    <glyph glyph-name="uni0401" unicode="&#x401;" 
d="M164 750v-86h172v86h78v-164h-250v-172h250v-78h-250v-172h250v-78h-328v664h78z" />
    <glyph glyph-name="uni0402" unicode="&#x402;" 
d="M-19 586v78h288v-78h-105v-172h86q35 0 64.5 -12.5t52 -35t35 -52t12.5 -64.5q0 -34 -12.5 -64t-35 -52.5t-52 -35t-64.5 -12.5v78q19 0 34 7t27 18q11 12 18 27t7 34t-7 34t-18 27q-12 11 -27 18t-34 7h-86v-250h-78v500h-105z" />
    <glyph glyph-name="uni0403" unicode="&#x403;" 
d="M86 86v578h164q19 0 34 7t27 18q11 12 18 27t7 34h78q0 -34 -12.5 -64t-35 -52.5t-52 -35t-64.5 -12.5h-86v-500h-78z" />
    <glyph glyph-name="uni0404" unicode="&#x404;" 
d="M86 500q0 35 12.5 64.5t35 52t52.5 35t64 12.5q35 0 64.5 -12.5t52 -35t35 -52t12.5 -64.5h-78q0 19 -7 34t-18 27q-12 11 -27 18t-34 7t-34 -7t-27 -18q-11 -12 -18 -27t-7 -34v-86h250v-78h-250v-86q0 -19 7 -34t18 -27q12 -11 27 -18t34 -7t34 7t27 18q11 12 18 27
t7 34h78q0 -34 -12.5 -64t-35 -52.5t-52 -35t-64.5 -12.5q-34 0 -64 12.5t-52.5 35t-35 52.5t-12.5 64v250z" />
    <glyph glyph-name="uni0405" unicode="&#x405;" 
d="M86 500q0 35 12.5 64.5t35 52t52.5 35t64 12.5q35 0 64.5 -12.5t52 -35t35 -52t12.5 -64.5h-78q0 19 -7 34t-18 27q-12 11 -27 18t-34 7t-34 -7t-27 -18q-11 -12 -18 -27t-7 -34t7 -34t18 -27q12 -11 27 -18t34 -7q35 0 64.5 -12.5t52 -35t35 -52t12.5 -64.5
q0 -34 -12.5 -64t-35 -52.5t-52 -35t-64.5 -12.5q-34 0 -64 12.5t-52.5 35t-35 52.5t-12.5 64h78q0 -19 7 -34t18 -27q12 -11 27 -18t34 -7t34 7t27 18q11 12 18 27t7 34t-7 34t-18 27q-12 11 -27 18t-34 7q-34 0 -64 12.5t-52.5 35t-35 52.5t-12.5 64z" />
    <glyph glyph-name="uni0406" unicode="&#x406;" 
d="M103 86v78h108v422h-108v78h295v-78h-109v-422h109v-78h-295z" />
    <glyph glyph-name="uni0407" unicode="&#x407;" 
d="M289 500v-414h-78v414h78zM125 586v78h250v-78h-250z" />
    <glyph glyph-name="uni0408" unicode="&#x408;" 
d="M86 250h78q0 -19 7 -34t18 -27q12 -11 27 -18t34 -7t34 7t27 18q11 12 18 27t7 34v336h-112v78h190v-414q0 -34 -12.5 -64t-35 -52.5t-52 -35t-64.5 -12.5q-34 0 -64 12.5t-52.5 35t-35 52.5t-12.5 64z" />
    <glyph glyph-name="uni0409" unicode="&#x409;" 
d="M4 164q18 0 33.5 7t27 18.5t18.5 27t7 33.5v414h184v-250h44q35 0 64.5 -12.5t51.5 -35t34.5 -52t12.5 -64.5q0 -34 -12.5 -64t-34.5 -52.5t-51.5 -35t-64.5 -12.5h-95v500h-70v-336q0 -34 -10 -63.5t-29 -52t-47 -35.5t-63 -13v78zM274 336v-172h44q18 0 33.5 7t27 18.5
t18.5 27t7 33.5t-7 33.5t-18.5 27t-27 18.5t-33.5 7h-44z" />
    <glyph glyph-name="uni040A" unicode="&#x40a;" 
d="M-5 86v578h59v-250h161v250h55v-500h75q19 0 34 7t27 18q11 12 18 27t7 34t-7 34t-18 27q-12 11 -27 18t-34 7v78q35 0 64.5 -12.5t52 -35t35 -52t12.5 -64.5q0 -34 -12.5 -64t-35 -52.5t-52 -35t-64.5 -12.5h-130v250h-161v-250h-59z" />
    <glyph glyph-name="uni040B" unicode="&#x40b;" 
d="M-19 664h288v-78h-105v-172h86q35 0 64.5 -12.5t52 -35t35 -52t12.5 -64.5v-164h-78v164q0 19 -7 34t-18 27q-12 11 -27 18t-34 7h-86v-250h-78v500h-105v78z" />
    <glyph glyph-name="uni040C" unicode="&#x40c;" 
d="M164 664v-250h86q19 0 34 7t27 18q11 12 18 27t7 34h78q0 -42 -14 -69t-43 -56q29 -29 43 -56t14 -69v-164h-78v164q0 19 -7 34t-18 27q-12 11 -27 18t-34 7h-86v-250h-78v578h78zM250 664q19 0 34 7t27 18q11 12 18 27t7 34h78q0 -34 -12.5 -64t-35 -52.5t-52 -35
t-64.5 -12.5v78z" />
    <glyph glyph-name="uni040D" unicode="&#x40d;" 
d="M0 414q42 0 69 -14t56 -43q29 29 56 43t69 14h164v-328h-78v250h-86q-19 0 -34 -7t-27 -18q-11 -12 -18 -27t-7 -34v-164h-78v164q0 19 -7 34t-18 27q-12 11 -27 18t-34 7v78zM164 750q0 -19 7 -34t18 -27q12 -11 27 -18t34 -7v-78q-34 0 -64 12.5t-52.5 35t-35 52.5
t-12.5 64h78z" />
    <glyph glyph-name="uni040E" unicode="&#x40e;" 
d="M250 164q19 0 34 7t27 18q11 12 18 27t7 34v86h-86q-34 0 -64 12.5t-52.5 35t-35 52.5t-12.5 64h78q0 -19 7 -34t18 -27q12 -11 27 -18t34 -7h86v86h78v-250q0 -34 -12.5 -64t-35 -52.5t-52 -35t-64.5 -12.5h-164v78h164zM164 750q0 -19 7 -34t18 -27q12 -11 27 -18
t34 -7t34 7t27 18q11 12 18 27t7 34h78q0 -34 -12.5 -64t-35 -52.5t-52 -35t-64.5 -12.5q-34 0 -64 12.5t-52.5 35t-35 52.5t-12.5 64h78z" />
    <glyph glyph-name="uni040F" unicode="&#x40f;" 
d="M164 664v-500h172v500h78v-578h-250v-86h-78v664h78z" />
    <glyph glyph-name="uni0410" unicode="&#x410;" 
d="M86 500q0 35 12.5 64.5t35 52t52.5 35t64 12.5q35 0 64.5 -12.5t52 -35t35 -52t12.5 -64.5v-414h-78v250h-172v-250h-78v414zM336 414v86q0 19 -7 34t-18 27q-12 11 -27 18t-34 7t-34 -7t-27 -18q-11 -12 -18 -27t-7 -34v-86h172z" />
    <glyph glyph-name="uni0411" unicode="&#x411;" 
d="M86 664h328v-78h-250v-172h86q35 0 64.5 -12.5t52 -35t35 -52t12.5 -64.5q0 -34 -12.5 -64t-35 -52.5t-52 -35t-64.5 -12.5h-164v578zM164 336v-172h86q19 0 34 7t27 18q11 12 18 27t7 34t-7 34t-18 27q-12 11 -27 18t-34 7h-86z" />
    <glyph glyph-name="uni0412" unicode="&#x412;" 
d="M86 86v578h164q35 0 64.5 -12.5t52 -35t35 -52t12.5 -64.5q0 -42 -14 -69t-43 -56q29 -29 43 -56t14 -69q0 -34 -12.5 -64t-35 -52.5t-52 -35t-64.5 -12.5h-164zM250 414q19 0 34 7t27 18q11 12 18 27t7 34t-7 34t-18 27q-12 11 -27 18t-34 7h-86v-172h86zM164 336v-172
h86q19 0 34 7t27 18q11 12 18 27t7 34t-7 34t-18 27q-12 11 -27 18t-34 7h-86z" />
    <glyph glyph-name="uni0413" unicode="&#x413;" 
d="M86 664h328v-78h-250v-500h-78v578z" />
    <glyph glyph-name="uni0414" unicode="&#x414;" 
d="M86 0v664h328v-664h-78v86h-172v-86h-78zM164 164h172v422h-172v-422z" />
    <glyph glyph-name="uni0415" unicode="&#x415;" 
d="M86 664h328v-78h-250v-172h250v-78h-250v-172h250v-78h-328v578z" />
    <glyph glyph-name="uni0416" unicode="&#x416;" 
d="M6 250q0 42 14 69t43 56q-29 29 -43 56t-14 69v164h59v-164q0 -18 7 -33.5t18.5 -27t27 -18.5t33.5 -7h72v250h55v-250h71q18 0 33.5 7t27 18.5t18.5 27t7 33.5v164h59v-164q0 -42 -14 -69t-43 -56q29 -29 43 -56t14 -69v-164h-59v164q0 18 -7 33.5t-18.5 27t-27 18.5
t-33.5 7h-71v-250h-55v250h-72q-18 0 -33.5 -7t-27 -18.5t-18.5 -27t-7 -33.5v-164h-59v164z" />
    <glyph glyph-name="uni0417" unicode="&#x417;" 
d="M86 336v78h164q19 0 34 7t27 18q11 12 18 27t7 34t-7 34t-18 27q-12 11 -27 18t-34 7t-34 -7t-27 -18q-11 -12 -18 -27t-7 -34h-78q0 35 12.5 64.5t35 52t52.5 35t64 12.5q35 0 64.5 -12.5t52 -35t35 -52t12.5 -64.5q0 -42 -14 -69t-43 -56q29 -29 43 -56t14 -69
q0 -34 -12.5 -64t-35 -52.5t-52 -35t-64.5 -12.5q-34 0 -64 12.5t-52.5 35t-35 52.5t-12.5 64h78q0 -19 7 -34t18 -27q12 -11 27 -18t34 -7t34 7t27 18q11 12 18 27t7 34t-7 34t-18 27q-12 11 -27 18t-34 7h-164z" />
    <glyph glyph-name="uni0418" unicode="&#x418;" 
d="M0 664q42 0 69 -14t56 -43q29 29 56 43t69 14h164v-578h-78v500h-86q-19 0 -34 -7t-27 -18q-11 -12 -18 -27t-7 -34v-414h-78v414q0 19 -7 34t-18 27q-12 11 -27 18t-34 7v78z" />
    <glyph glyph-name="uni0419" unicode="&#x419;" 
d="M0 414q42 0 69 -14t56 -43q29 29 56 43t69 14h164v-328h-78v250h-86q-19 0 -34 -7t-27 -18q-11 -12 -18 -27t-7 -34v-164h-78v164q0 19 -7 34t-18 27q-12 11 -27 18t-34 7v78zM164 750q0 -19 7 -34t18 -27q12 -11 27 -18t34 -7t34 7t27 18q11 12 18 27t7 34h78
q0 -34 -12.5 -64t-35 -52.5t-52 -35t-64.5 -12.5q-34 0 -64 12.5t-52.5 35t-35 52.5t-12.5 64h78z" />
    <glyph glyph-name="uni041A" unicode="&#x41a;" 
d="M164 664v-250h86q19 0 34 7t27 18q11 12 18 27t7 34v164h78v-164q0 -42 -14 -69t-43 -56q29 -29 43 -56t14 -69v-164h-78v164q0 19 -7 34t-18 27q-12 11 -27 18t-34 7h-86v-250h-78v578h78z" />
    <glyph glyph-name="uni041B" unicode="&#x41b;" 
d="M0 86v78q19 0 34 7t27 18q11 12 18 27t7 34v414h328v-578h-78v500h-172v-336q0 -34 -12.5 -64t-35 -52.5t-52 -35t-64.5 -12.5z" />
    <glyph glyph-name="uni041C" unicode="&#x41c;" 
d="M40 523q0 61 27 101t88 40q38 0 60 -18.5t35 -50.5q13 32 35 50.5t60 18.5q61 0 88 -40t27 -101v-437h-66v414q0 35 -12.5 60.5t-47.5 25.5t-47.5 -25.5t-12.5 -60.5v-414h-48v414q0 35 -12.5 60.5t-47.5 25.5t-47.5 -25.5t-12.5 -60.5v-414h-66v437z" />
    <glyph glyph-name="uni041D" unicode="&#x41d;" 
d="M164 664v-250h172v250h78v-578h-78v250h-172v-250h-78v578h78z" />
    <glyph glyph-name="uni041E" unicode="&#x41e;" 
d="M86 500q0 35 12.5 64.5t35 52t52.5 35t64 12.5q35 0 64.5 -12.5t52 -35t35 -52t12.5 -64.5v-250q0 -34 -12.5 -64t-35 -52.5t-52 -35t-64.5 -12.5q-34 0 -64 12.5t-52.5 35t-35 52.5t-12.5 64v250zM164 250q0 -19 7 -34t18 -27q12 -11 27 -18t34 -7t34 7t27 18
q11 12 18 27t7 34v250q0 19 -7 34t-18 27q-12 11 -27 18t-34 7t-34 -7t-27 -18q-11 -12 -18 -27t-7 -34v-250z" />
    <glyph glyph-name="uni041F" unicode="&#x41f;" 
d="M86 86v578h328v-578h-78v500h-172v-500h-78z" />
    <glyph glyph-name="uni0420" unicode="&#x420;" 
d="M86 86v578h164q35 0 64.5 -12.5t52 -35t35 -52t12.5 -64.5q0 -34 -12.5 -64t-35 -52.5t-52 -35t-64.5 -12.5h-86v-250h-78zM250 414q19 0 34 7t27 18q11 12 18 27t7 34t-7 34t-18 27q-12 11 -27 18t-34 7h-86v-172h86z" />
    <glyph glyph-name="uni0421" unicode="&#x421;" 
d="M86 500q0 35 12.5 64.5t35 52t52.5 35t64 12.5q35 0 64.5 -12.5t52 -35t35 -52t12.5 -64.5h-78q0 19 -7 34t-18 27q-12 11 -27 18t-34 7t-34 -7t-27 -18q-11 -12 -18 -27t-7 -34v-250q0 -19 7 -34t18 -27q12 -11 27 -18t34 -7t34 7t27 18q11 12 18 27t7 34h78
q0 -34 -12.5 -64t-35 -52.5t-52 -35t-64.5 -12.5q-34 0 -64 12.5t-52.5 35t-35 52.5t-12.5 64v250z" />
    <glyph glyph-name="uni0422" unicode="&#x422;" 
d="M88 664h325v-78h-124v-500h-78v500h-123v78z" />
    <glyph glyph-name="uni0423" unicode="&#x423;" 
d="M86 164h164q19 0 34 7t27 18q11 12 18 27t7 34v86h-86q-34 0 -64 12.5t-52.5 35t-35 52.5t-12.5 64v164h78v-164q0 -19 7 -34t18 -27q12 -11 27 -18t34 -7h86v250h78v-414q0 -34 -12.5 -64t-35 -52.5t-52 -35t-64.5 -12.5h-164v78z" />
    <glyph glyph-name="uni0424" unicode="&#x424;" 
d="M69 400q0 33 11 61.5t31 50.5t47.5 35.5t60.5 15.5v113h62v-112q32 -2 59.5 -16t47.5 -36t31.5 -51t11.5 -61t-11.5 -61t-31.5 -51t-47.5 -36t-59.5 -16v-150h-62v151q-33 2 -60.5 15.5t-47.5 35.5t-31 50.5t-11 61.5zM286 314q18 0 33.5 7t27.5 18.5t19 27t7 33.5
t-7 33.5t-19 27t-27.5 18.5t-33.5 7h-5v-172h5zM128 400q0 -19 7 -34t18 -27q12 -11 27 -18t34 -7h5v172h-5q-19 0 -34 -7t-27 -18q-11 -12 -18 -27t-7 -34z" />
    <glyph glyph-name="uni0425" unicode="&#x425;" 
d="M86 664h78v-164q0 -19 7 -34t18 -27q12 -11 27 -18t34 -7t34 7t27 18q11 12 18 27t7 34v164h78v-164q0 -42 -14 -69t-43 -56q29 -29 43 -56t14 -69v-164h-78v164q0 19 -7 34t-18 27q-12 11 -27 18t-34 7t-34 -7t-27 -18q-11 -12 -18 -27t-7 -34v-164h-78v164q0 42 14 69
t43 56q-29 29 -43 56t-14 69v164z" />
    <glyph glyph-name="uni0426" unicode="&#x426;" 
d="M86 664h78v-500h172v500h78v-664h-78v86h-250v578z" />
    <glyph glyph-name="uni0427" unicode="&#x427;" 
d="M86 500v164h78v-164q0 -19 7 -34t18 -27q12 -11 27 -18t34 -7h86v250h78v-578h-78v250h-86q-34 0 -64 12.5t-52.5 35t-35 52.5t-12.5 64z" />
    <glyph glyph-name="uni0428" unicode="&#x428;" 
d="M28 86v578h62v-500h133v500h55v-500h132v500h63v-578h-445z" />
    <glyph glyph-name="uni0429" unicode="&#x429;" 
d="M28 86v578h62v-500h133v500h55v-500h132v500h63v-651h-63v73h-382z" />
    <glyph glyph-name="uni042A" unicode="&#x42a;" 
d="M-19 664h183v-250h86q35 0 64.5 -12.5t52 -35t35 -52t12.5 -64.5q0 -34 -12.5 -64t-35 -52.5t-52 -35t-64.5 -12.5h-164v500h-105v78zM164 336v-172h86q19 0 34 7t27 18q11 12 18 27t7 34t-7 34t-18 27q-12 11 -27 18t-34 7h-86z" />
    <glyph glyph-name="uni042B" unicode="&#x42b;" 
d="M74 86v578h67v-250q34 -1 62 -14.5t48.5 -35.5t31.5 -51.5t11 -62.5q0 -34 -12 -64t-33 -52.5t-50.5 -35t-64.5 -12.5h-60zM432 664v-578h-59v578h59zM141 336v-172h8q18 0 33.5 7t27.5 18.5t19 27t7 33.5t-7 33.5t-19 27t-27.5 18.5t-33.5 7h-8z" />
    <glyph glyph-name="uni042C" unicode="&#x42c;" 
d="M164 664v-250h86q35 0 64.5 -12.5t52 -35t35 -52t12.5 -64.5q0 -34 -12.5 -64t-35 -52.5t-52 -35t-64.5 -12.5h-164v578h78zM164 336v-172h86q19 0 34 7t27 18q11 12 18 27t7 34t-7 34t-18 27q-12 11 -27 18t-34 7h-86z" />
    <glyph glyph-name="uni042D" unicode="&#x42d;" 
d="M86 414h250v86q0 19 -7 34t-18 27q-12 11 -27 18t-34 7t-34 -7t-27 -18q-11 -12 -18 -27t-7 -34h-78q0 35 12.5 64.5t35 52t52.5 35t64 12.5q35 0 64.5 -12.5t52 -35t35 -52t12.5 -64.5v-250q0 -34 -12.5 -64t-35 -52.5t-52 -35t-64.5 -12.5q-34 0 -64 12.5t-52.5 35
t-35 52.5t-12.5 64h78q0 -19 7 -34t18 -27q12 -11 27 -18t34 -7t34 7t27 18q11 12 18 27t7 34v86h-250v78z" />
    <glyph glyph-name="uni042E" unicode="&#x42e;" 
d="M85 414h91v86q0 34 10 63.5t29 52t47 35.5t63 13t63 -13t47 -35.5t29 -52t10 -63.5v-250q0 -34 -10 -63.5t-29 -52t-47 -35.5t-63 -13t-63 13t-47 35.5t-29 52t-10 63.5v86h-91v-250h-59v578h59v-250zM239 500v-250q0 -19 7 -34t18 -27q12 -11 27 -18t34 -7t34 7t27 18
q11 12 18 27t7 34v250q0 19 -7 34t-18 27q-12 11 -27 18t-34 7t-34 -7t-27 -18q-11 -12 -18 -27t-7 -34z" />
    <glyph glyph-name="uni042F" unicode="&#x42f;" 
d="M86 86v164q0 42 14 69t43 56q-29 29 -43 56t-14 69q0 35 12.5 64.5t35 52t52.5 35t64 12.5h164v-578h-78v250h-86q-19 0 -34 -7t-27 -18q-11 -12 -18 -27t-7 -34v-164h-78zM164 500q0 -19 7 -34t18 -27q12 -11 27 -18t34 -7h86v172h-86q-19 0 -34 -7t-27 -18
q-11 -12 -18 -27t-7 -34z" />
    <glyph glyph-name="uni0430" unicode="&#x430;" 
d="M86 500q0 35 12.5 64.5t35 52t52.5 35t64 12.5q35 0 64.5 -12.5t52 -35t35 -52t12.5 -64.5v-414h-78v250h-172v-250h-78v414zM336 414v86q0 19 -7 34t-18 27q-12 11 -27 18t-34 7t-34 -7t-27 -18q-11 -12 -18 -27t-7 -34v-86h172z" />
    <glyph glyph-name="uni0431" unicode="&#x431;" 
d="M86 664h328v-78h-250v-172h86q35 0 64.5 -12.5t52 -35t35 -52t12.5 -64.5q0 -34 -12.5 -64t-35 -52.5t-52 -35t-64.5 -12.5h-164v578zM164 336v-172h86q19 0 34 7t27 18q11 12 18 27t7 34t-7 34t-18 27q-12 11 -27 18t-34 7h-86z" />
    <glyph glyph-name="uni0432" unicode="&#x432;" 
d="M86 86v578h164q35 0 64.5 -12.5t52 -35t35 -52t12.5 -64.5q0 -42 -14 -69t-43 -56q29 -29 43 -56t14 -69q0 -34 -12.5 -64t-35 -52.5t-52 -35t-64.5 -12.5h-164zM250 414q19 0 34 7t27 18q11 12 18 27t7 34t-7 34t-18 27q-12 11 -27 18t-34 7h-86v-172h86zM164 336v-172
h86q19 0 34 7t27 18q11 12 18 27t7 34t-7 34t-18 27q-12 11 -27 18t-34 7h-86z" />
    <glyph glyph-name="uni0433" unicode="&#x433;" 
d="M86 664h328v-78h-250v-500h-78v578z" />
    <glyph glyph-name="uni0434" unicode="&#x434;" 
d="M86 0v664h328v-664h-78v86h-172v-86h-78zM164 164h172v422h-172v-422z" />
    <glyph glyph-name="uni0435" unicode="&#x435;" 
d="M86 664h328v-78h-250v-172h250v-78h-250v-172h250v-78h-328v578z" />
    <glyph glyph-name="uni0436" unicode="&#x436;" 
d="M6 250q0 42 14 69t43 56q-29 29 -43 56t-14 69v164h59v-164q0 -18 7 -33.5t18.5 -27t27 -18.5t33.5 -7h72v250h55v-250h71q18 0 33.5 7t27 18.5t18.5 27t7 33.5v164h59v-164q0 -42 -14 -69t-43 -56q29 -29 43 -56t14 -69v-164h-59v164q0 18 -7 33.5t-18.5 27t-27 18.5
t-33.5 7h-71v-250h-55v250h-72q-18 0 -33.5 -7t-27 -18.5t-18.5 -27t-7 -33.5v-164h-59v164z" />
    <glyph glyph-name="uni0437" unicode="&#x437;" 
d="M86 336v78h164q19 0 34 7t27 18q11 12 18 27t7 34t-7 34t-18 27q-12 11 -27 18t-34 7t-34 -7t-27 -18q-11 -12 -18 -27t-7 -34h-78q0 35 12.5 64.5t35 52t52.5 35t64 12.5q35 0 64.5 -12.5t52 -35t35 -52t12.5 -64.5q0 -42 -14 -69t-43 -56q29 -29 43 -56t14 -69
q0 -34 -12.5 -64t-35 -52.5t-52 -35t-64.5 -12.5q-34 0 -64 12.5t-52.5 35t-35 52.5t-12.5 64h78q0 -19 7 -34t18 -27q12 -11 27 -18t34 -7t34 7t27 18q11 12 18 27t7 34t-7 34t-18 27q-12 11 -27 18t-34 7h-164z" />
    <glyph glyph-name="uni0438" unicode="&#x438;" 
d="M0 664q42 0 69 -14t56 -43q29 29 56 43t69 14h164v-578h-78v500h-86q-19 0 -34 -7t-27 -18q-11 -12 -18 -27t-7 -34v-414h-78v414q0 19 -7 34t-18 27q-12 11 -27 18t-34 7v78z" />
    <glyph glyph-name="uni0439" unicode="&#x439;" 
d="M0 414q42 0 69 -14t56 -43q29 29 56 43t69 14h164v-328h-78v250h-86q-19 0 -34 -7t-27 -18q-11 -12 -18 -27t-7 -34v-164h-78v164q0 19 -7 34t-18 27q-12 11 -27 18t-34 7v78zM164 750q0 -19 7 -34t18 -27q12 -11 27 -18t34 -7t34 7t27 18q11 12 18 27t7 34h78
q0 -34 -12.5 -64t-35 -52.5t-52 -35t-64.5 -12.5q-34 0 -64 12.5t-52.5 35t-35 52.5t-12.5 64h78z" />
    <glyph glyph-name="uni043A" unicode="&#x43a;" 
d="M164 664v-250h86q19 0 34 7t27 18q11 12 18 27t7 34v164h78v-164q0 -42 -14 -69t-43 -56q29 -29 43 -56t14 -69v-164h-78v164q0 19 -7 34t-18 27q-12 11 -27 18t-34 7h-86v-250h-78v578h78z" />
    <glyph glyph-name="uni043B" unicode="&#x43b;" 
d="M0 86v78q19 0 34 7t27 18q11 12 18 27t7 34v414h328v-578h-78v500h-172v-336q0 -34 -12.5 -64t-35 -52.5t-52 -35t-64.5 -12.5z" />
    <glyph glyph-name="uni043C" unicode="&#x43c;" 
d="M40 523q0 61 27 101t88 40q38 0 60 -18.5t35 -50.5q13 32 35 50.5t60 18.5q61 0 88 -40t27 -101v-437h-66v414q0 35 -12.5 60.5t-47.5 25.5t-47.5 -25.5t-12.5 -60.5v-414h-48v414q0 35 -12.5 60.5t-47.5 25.5t-47.5 -25.5t-12.5 -60.5v-414h-66v437z" />
    <glyph glyph-name="uni043D" unicode="&#x43d;" 
d="M164 664v-250h172v250h78v-578h-78v250h-172v-250h-78v578h78z" />
    <glyph glyph-name="uni043E" unicode="&#x43e;" 
d="M86 500q0 35 12.5 64.5t35 52t52.5 35t64 12.5q35 0 64.5 -12.5t52 -35t35 -52t12.5 -64.5v-250q0 -34 -12.5 -64t-35 -52.5t-52 -35t-64.5 -12.5q-34 0 -64 12.5t-52.5 35t-35 52.5t-12.5 64v250zM164 250q0 -19 7 -34t18 -27q12 -11 27 -18t34 -7t34 7t27 18
q11 12 18 27t7 34v250q0 19 -7 34t-18 27q-12 11 -27 18t-34 7t-34 -7t-27 -18q-11 -12 -18 -27t-7 -34v-250z" />
    <glyph glyph-name="uni043F" unicode="&#x43f;" 
d="M86 86v578h328v-578h-78v500h-172v-500h-78z" />
    <glyph glyph-name="uni0440" unicode="&#x440;" 
d="M86 86v578h164q35 0 64.5 -12.5t52 -35t35 -52t12.5 -64.5q0 -34 -12.5 -64t-35 -52.5t-52 -35t-64.5 -12.5h-86v-250h-78zM250 414q19 0 34 7t27 18q11 12 18 27t7 34t-7 34t-18 27q-12 11 -27 18t-34 7h-86v-172h86z" />
    <glyph glyph-name="uni0441" unicode="&#x441;" 
d="M86 500q0 35 12.5 64.5t35 52t52.5 35t64 12.5q35 0 64.5 -12.5t52 -35t35 -52t12.5 -64.5h-78q0 19 -7 34t-18 27q-12 11 -27 18t-34 7t-34 -7t-27 -18q-11 -12 -18 -27t-7 -34v-250q0 -19 7 -34t18 -27q12 -11 27 -18t34 -7t34 7t27 18q11 12 18 27t7 34h78
q0 -34 -12.5 -64t-35 -52.5t-52 -35t-64.5 -12.5q-34 0 -64 12.5t-52.5 35t-35 52.5t-12.5 64v250z" />
    <glyph glyph-name="uni0442" unicode="&#x442;" 
d="M88 664h325v-78h-124v-500h-78v500h-123v78z" />
    <glyph glyph-name="uni0443" unicode="&#x443;" 
d="M86 164h164q19 0 34 7t27 18q11 12 18 27t7 34v86h-86q-34 0 -64 12.5t-52.5 35t-35 52.5t-12.5 64v164h78v-164q0 -19 7 -34t18 -27q12 -11 27 -18t34 -7h86v250h78v-414q0 -34 -12.5 -64t-35 -52.5t-52 -35t-64.5 -12.5h-164v78z" />
    <glyph glyph-name="uni0444" unicode="&#x444;" 
d="M69 400q0 33 11 61.5t31 50.5t47.5 35.5t60.5 15.5v113h62v-112q32 -2 59.5 -16t47.5 -36t31.5 -51t11.5 -61t-11.5 -61t-31.5 -51t-47.5 -36t-59.5 -16v-150h-62v151q-33 2 -60.5 15.5t-47.5 35.5t-31 50.5t-11 61.5zM286 314q18 0 33.5 7t27.5 18.5t19 27t7 33.5
t-7 33.5t-19 27t-27.5 18.5t-33.5 7h-5v-172h5zM128 400q0 -19 7 -34t18 -27q12 -11 27 -18t34 -7h5v172h-5q-19 0 -34 -7t-27 -18q-11 -12 -18 -27t-7 -34z" />
    <glyph glyph-name="uni0445" unicode="&#x445;" 
d="M86 664h78v-164q0 -19 7 -34t18 -27q12 -11 27 -18t34 -7t34 7t27 18q11 12 18 27t7 34v164h78v-164q0 -42 -14 -69t-43 -56q29 -29 43 -56t14 -69v-164h-78v164q0 19 -7 34t-18 27q-12 11 -27 18t-34 7t-34 -7t-27 -18q-11 -12 -18 -27t-7 -34v-164h-78v164q0 42 14 69
t43 56q-29 29 -43 56t-14 69v164z" />
    <glyph glyph-name="uni0446" unicode="&#x446;" 
d="M86 664h78v-500h172v500h78v-664h-78v86h-250v578z" />
    <glyph glyph-name="uni0447" unicode="&#x447;" 
d="M86 500v164h78v-164q0 -19 7 -34t18 -27q12 -11 27 -18t34 -7h86v250h78v-578h-78v250h-86q-34 0 -64 12.5t-52.5 35t-35 52.5t-12.5 64z" />
    <glyph glyph-name="uni0448" unicode="&#x448;" 
d="M28 86v578h62v-500h133v500h55v-500h132v500h63v-578h-445z" />
    <glyph glyph-name="uni0449" unicode="&#x449;" 
d="M28 86v578h62v-500h133v500h55v-500h132v500h63v-651h-63v73h-382z" />
    <glyph glyph-name="uni044A" unicode="&#x44a;" 
d="M-19 664h183v-250h86q35 0 64.5 -12.5t52 -35t35 -52t12.5 -64.5q0 -34 -12.5 -64t-35 -52.5t-52 -35t-64.5 -12.5h-164v500h-105v78zM164 336v-172h86q19 0 34 7t27 18q11 12 18 27t7 34t-7 34t-18 27q-12 11 -27 18t-34 7h-86z" />
    <glyph glyph-name="uni044B" unicode="&#x44b;" 
d="M74 86v578h67v-250q34 -1 62 -14.5t48.5 -35.5t31.5 -51.5t11 -62.5q0 -34 -12 -64t-33 -52.5t-50.5 -35t-64.5 -12.5h-60zM432 664v-578h-59v578h59zM141 336v-172h8q18 0 33.5 7t27.5 18.5t19 27t7 33.5t-7 33.5t-19 27t-27.5 18.5t-33.5 7h-8z" />
    <glyph glyph-name="uni044C" unicode="&#x44c;" 
d="M164 664v-250h86q35 0 64.5 -12.5t52 -35t35 -52t12.5 -64.5q0 -34 -12.5 -64t-35 -52.5t-52 -35t-64.5 -12.5h-164v578h78zM164 336v-172h86q19 0 34 7t27 18q11 12 18 27t7 34t-7 34t-18 27q-12 11 -27 18t-34 7h-86z" />
    <glyph glyph-name="uni044D" unicode="&#x44d;" 
d="M86 414h250v86q0 19 -7 34t-18 27q-12 11 -27 18t-34 7t-34 -7t-27 -18q-11 -12 -18 -27t-7 -34h-78q0 35 12.5 64.5t35 52t52.5 35t64 12.5q35 0 64.5 -12.5t52 -35t35 -52t12.5 -64.5v-250q0 -34 -12.5 -64t-35 -52.5t-52 -35t-64.5 -12.5q-34 0 -64 12.5t-52.5 35
t-35 52.5t-12.5 64h78q0 -19 7 -34t18 -27q12 -11 27 -18t34 -7t34 7t27 18q11 12 18 27t7 34v86h-250v78z" />
    <glyph glyph-name="uni044E" unicode="&#x44e;" 
d="M85 414h91v86q0 34 10 63.5t29 52t47 35.5t63 13t63 -13t47 -35.5t29 -52t10 -63.5v-250q0 -34 -10 -63.5t-29 -52t-47 -35.5t-63 -13t-63 13t-47 35.5t-29 52t-10 63.5v86h-91v-250h-59v578h59v-250zM239 500v-250q0 -19 7 -34t18 -27q12 -11 27 -18t34 -7t34 7t27 18
q11 12 18 27t7 34v250q0 19 -7 34t-18 27q-12 11 -27 18t-34 7t-34 -7t-27 -18q-11 -12 -18 -27t-7 -34z" />
    <glyph glyph-name="uni044F" unicode="&#x44f;" 
d="M86 86v164q0 42 14 69t43 56q-29 29 -43 56t-14 69q0 35 12.5 64.5t35 52t52.5 35t64 12.5h164v-578h-78v250h-86q-19 0 -34 -7t-27 -18q-11 -12 -18 -27t-7 -34v-164h-78zM164 500q0 -19 7 -34t18 -27q12 -11 27 -18t34 -7h86v172h-86q-19 0 -34 -7t-27 -18
q-11 -12 -18 -27t-7 -34z" />
    <glyph glyph-name="uni0450" unicode="&#x450;" 
d="M164 336v-172h250v-78h-328v414q0 42 14 69t43 56q-29 29 -43 56t-14 69h78q0 -19 7 -34t18 -27q12 -11 27 -18t34 -7h164v-78h-164q-19 0 -34 -7t-27 -18q-11 -12 -18 -27t-7 -34v-86h250v-78h-250z" />
    <glyph glyph-name="uni0451" unicode="&#x451;" 
d="M164 750v-86h172v86h78v-164h-250v-172h250v-78h-250v-172h250v-78h-328v664h78z" />
    <glyph glyph-name="uni0452" unicode="&#x452;" 
d="M-19 586v78h288v-78h-105v-172h86q35 0 64.5 -12.5t52 -35t35 -52t12.5 -64.5q0 -34 -12.5 -64t-35 -52.5t-52 -35t-64.5 -12.5v78q19 0 34 7t27 18q11 12 18 27t7 34t-7 34t-18 27q-12 11 -27 18t-34 7h-86v-250h-78v500h-105z" />
    <glyph glyph-name="uni0453" unicode="&#x453;" 
d="M86 86v578h164q19 0 34 7t27 18q11 12 18 27t7 34h78q0 -34 -12.5 -64t-35 -52.5t-52 -35t-64.5 -12.5h-86v-500h-78z" />
    <glyph glyph-name="uni0454" unicode="&#x454;" 
d="M86 500q0 35 12.5 64.5t35 52t52.5 35t64 12.5q35 0 64.5 -12.5t52 -35t35 -52t12.5 -64.5h-78q0 19 -7 34t-18 27q-12 11 -27 18t-34 7t-34 -7t-27 -18q-11 -12 -18 -27t-7 -34v-86h250v-78h-250v-86q0 -19 7 -34t18 -27q12 -11 27 -18t34 -7t34 7t27 18q11 12 18 27
t7 34h78q0 -34 -12.5 -64t-35 -52.5t-52 -35t-64.5 -12.5q-34 0 -64 12.5t-52.5 35t-35 52.5t-12.5 64v250z" />
    <glyph glyph-name="uni0455" unicode="&#x455;" 
d="M86 500q0 35 12.5 64.5t35 52t52.5 35t64 12.5q35 0 64.5 -12.5t52 -35t35 -52t12.5 -64.5h-78q0 19 -7 34t-18 27q-12 11 -27 18t-34 7t-34 -7t-27 -18q-11 -12 -18 -27t-7 -34t7 -34t18 -27q12 -11 27 -18t34 -7q35 0 64.5 -12.5t52 -35t35 -52t12.5 -64.5
q0 -34 -12.5 -64t-35 -52.5t-52 -35t-64.5 -12.5q-34 0 -64 12.5t-52.5 35t-35 52.5t-12.5 64h78q0 -19 7 -34t18 -27q12 -11 27 -18t34 -7t34 7t27 18q11 12 18 27t7 34t-7 34t-18 27q-12 11 -27 18t-34 7q-34 0 -64 12.5t-52.5 35t-35 52.5t-12.5 64z" />
    <glyph glyph-name="uni0456" unicode="&#x456;" 
d="M103 86v78h108v422h-108v78h295v-78h-109v-422h109v-78h-295z" />
    <glyph glyph-name="uni0457" unicode="&#x457;" 
d="M289 500v-414h-78v414h78zM125 586v78h250v-78h-250z" />
    <glyph glyph-name="uni0458" unicode="&#x458;" 
d="M164 250q0 -19 7 -34t18 -27q12 -11 27 -18t34 -7t34 7t27 18q11 12 18 27t7 34v336h-86v78h164v-414q0 -34 -12.5 -64t-35 -52.5t-52 -35t-64.5 -12.5q-34 0 -64 12.5t-52.5 35t-35 52.5t-12.5 64h78z" />
    <glyph glyph-name="uni0459" unicode="&#x459;" 
d="M4 164q18 0 33.5 7t27 18.5t18.5 27t7 33.5v414h184v-250h44q35 0 64.5 -12.5t51.5 -35t34.5 -52t12.5 -64.5q0 -34 -12.5 -64t-34.5 -52.5t-51.5 -35t-64.5 -12.5h-95v500h-70v-336q0 -34 -10 -63.5t-29 -52t-47 -35.5t-63 -13v78zM274 336v-172h44q18 0 33.5 7t27 18.5
t18.5 27t7 33.5t-7 33.5t-18.5 27t-27 18.5t-33.5 7h-44z" />
    <glyph glyph-name="uni045A" unicode="&#x45a;" 
d="M-5 86v578h59v-250h161v250h55v-500h75q19 0 34 7t27 18q11 12 18 27t7 34t-7 34t-18 27q-12 11 -27 18t-34 7v78q35 0 64.5 -12.5t52 -35t35 -52t12.5 -64.5q0 -34 -12.5 -64t-35 -52.5t-52 -35t-64.5 -12.5h-130v250h-161v-250h-59z" />
    <glyph glyph-name="uni045B" unicode="&#x45b;" 
d="M-19 664h288v-78h-105v-172h86q35 0 64.5 -12.5t52 -35t35 -52t12.5 -64.5v-164h-78v164q0 19 -7 34t-18 27q-12 11 -27 18t-34 7h-86v-250h-78v500h-105v78z" />
    <glyph glyph-name="uni045C" unicode="&#x45c;" 
d="M164 664v-250h86q19 0 34 7t27 18q11 12 18 27t7 34h78q0 -42 -14 -69t-43 -56q29 -29 43 -56t14 -69v-164h-78v164q0 19 -7 34t-18 27q-12 11 -27 18t-34 7h-86v-250h-78v578h78zM250 664q19 0 34 7t27 18q11 12 18 27t7 34h78q0 -34 -12.5 -64t-35 -52.5t-52 -35
t-64.5 -12.5v78z" />
    <glyph glyph-name="uni045D" unicode="&#x45d;" 
d="M0 414q42 0 69 -14t56 -43q29 29 56 43t69 14h164v-328h-78v250h-86q-19 0 -34 -7t-27 -18q-11 -12 -18 -27t-7 -34v-164h-78v164q0 19 -7 34t-18 27q-12 11 -27 18t-34 7v78zM164 750q0 -19 7 -34t18 -27q12 -11 27 -18t34 -7v-78q-34 0 -64 12.5t-52.5 35t-35 52.5
t-12.5 64h78z" />
    <glyph glyph-name="uni045E" unicode="&#x45e;" 
d="M250 164q19 0 34 7t27 18q11 12 18 27t7 34v86h-86q-34 0 -64 12.5t-52.5 35t-35 52.5t-12.5 64h78q0 -19 7 -34t18 -27q12 -11 27 -18t34 -7h86v86h78v-250q0 -34 -12.5 -64t-35 -52.5t-52 -35t-64.5 -12.5h-164v78h164zM164 750q0 -19 7 -34t18 -27q12 -11 27 -18
t34 -7t34 7t27 18q11 12 18 27t7 34h78q0 -34 -12.5 -64t-35 -52.5t-52 -35t-64.5 -12.5q-34 0 -64 12.5t-52.5 35t-35 52.5t-12.5 64h78z" />
    <glyph glyph-name="uni045F" unicode="&#x45f;" 
d="M164 664v-500h172v500h78v-578h-250v-86h-78v664h78z" />
    <glyph glyph-name="uni0460" unicode="&#x460;" 
d="M155 86q-30 0 -52 11t-36 30t-20.5 45t-6.5 56v436h66v-414q0 -35 12.5 -60.5t47.5 -25.5t47.5 25.5t12.5 60.5v414h48v-414q0 -35 12.5 -60.5t47.5 -25.5t47.5 25.5t12.5 60.5v414h66v-436q0 -30 -6.5 -56t-20.5 -45t-36 -30t-52 -11q-38 0 -59.5 18.5t-35.5 50.5
q-13 -32 -35 -50.5t-60 -18.5z" />
    <glyph glyph-name="uni0461" unicode="&#x461;" 
d="M155 86q-30 0 -52 11t-36 30t-20.5 45t-6.5 56v436h66v-414q0 -35 12.5 -60.5t47.5 -25.5t47.5 25.5t12.5 60.5v414h48v-414q0 -35 12.5 -60.5t47.5 -25.5t47.5 25.5t12.5 60.5v414h66v-436q0 -30 -6.5 -56t-20.5 -45t-36 -30t-52 -11q-38 0 -59.5 18.5t-35.5 50.5
q-13 -32 -35 -50.5t-60 -18.5z" />
    <glyph glyph-name="uni0462" unicode="&#x462;" 
d="M176 586v-172h87q35 0 64.5 -12.5t51.5 -35t34.5 -52t12.5 -64.5q0 -34 -12.5 -64t-34.5 -52.5t-51.5 -35t-64.5 -12.5h-164v500h-105v78h287v-78h-105zM176 336v-172h87q18 0 33.5 7t27 18.5t18.5 27t7 33.5t-7 33.5t-18.5 27t-27 18.5t-33.5 7h-87z" />
    <glyph glyph-name="uni0463" unicode="&#x463;" 
d="M176 586v-172h87q35 0 64.5 -12.5t51.5 -35t34.5 -52t12.5 -64.5q0 -34 -12.5 -64t-34.5 -52.5t-51.5 -35t-64.5 -12.5h-164v500h-105v78h287v-78h-105zM176 336v-172h87q18 0 33.5 7t27 18.5t18.5 27t7 33.5t-7 33.5t-18.5 27t-27 18.5t-33.5 7h-87z" />
    <glyph glyph-name="uni0472" unicode="&#x472;" 
d="M86 500q0 35 12.5 64.5t35 52t52.5 35t64 12.5q35 0 64.5 -12.5t52 -35t35 -52t12.5 -64.5v-250q0 -34 -12.5 -64t-35 -52.5t-52 -35t-64.5 -12.5q-34 0 -64 12.5t-52.5 35t-35 52.5t-12.5 64v250zM164 250q0 -19 7 -34t18 -27q12 -11 27 -18t34 -7t34 7t27 18
q11 12 18 27t7 34v86h-172v-86zM336 414v86q0 19 -7 34t-18 27q-12 11 -27 18t-34 7t-34 -7t-27 -18q-11 -12 -18 -27t-7 -34v-86h172z" />
    <glyph glyph-name="uni0473" unicode="&#x473;" 
d="M86 500q0 35 12.5 64.5t35 52t52.5 35t64 12.5q35 0 64.5 -12.5t52 -35t35 -52t12.5 -64.5v-250q0 -34 -12.5 -64t-35 -52.5t-52 -35t-64.5 -12.5q-34 0 -64 12.5t-52.5 35t-35 52.5t-12.5 64v250zM164 250q0 -19 7 -34t18 -27q12 -11 27 -18t34 -7t34 7t27 18
q11 12 18 27t7 34v86h-172v-86zM336 414v86q0 19 -7 34t-18 27q-12 11 -27 18t-34 7t-34 -7t-27 -18q-11 -12 -18 -27t-7 -34v-86h172z" />
    <glyph glyph-name="uni0474" unicode="&#x474;" 
d="M164 664v-500h86q19 0 34 7t27 18q11 12 18 27t7 34v414h164v-78h-86v-336q0 -34 -12.5 -64t-35 -52.5t-52 -35t-64.5 -12.5h-164v578h78z" />
    <glyph glyph-name="uni0475" unicode="&#x475;" 
d="M164 664v-500h86q19 0 34 7t27 18q11 12 18 27t7 34v414h164v-78h-86v-336q0 -34 -12.5 -64t-35 -52.5t-52 -35t-64.5 -12.5h-164v578h78z" />
    <glyph glyph-name="uni048A" unicode="&#x48a;" 
d="M0 414q42 0 69 -14t56 -43q29 29 56 43t69 14h164v-414h-78v336h-86q-19 0 -34 -7t-27 -18q-11 -12 -18 -27t-7 -34v-164h-78v164q0 19 -7 34t-18 27q-12 11 -27 18t-34 7v78zM164 750q0 -19 7 -34t18 -27q12 -11 27 -18t34 -7t34 7t27 18q11 12 18 27t7 34h78
q0 -34 -12.5 -64t-35 -52.5t-52 -35t-64.5 -12.5q-34 0 -64 12.5t-52.5 35t-35 52.5t-12.5 64h78z" />
    <glyph glyph-name="uni048B" unicode="&#x48b;" 
d="M0 414q42 0 69 -14t56 -43q29 29 56 43t69 14h164v-414h-78v336h-86q-19 0 -34 -7t-27 -18q-11 -12 -18 -27t-7 -34v-164h-78v164q0 19 -7 34t-18 27q-12 11 -27 18t-34 7v78zM164 750q0 -19 7 -34t18 -27q12 -11 27 -18t34 -7t34 7t27 18q11 12 18 27t7 34h78
q0 -34 -12.5 -64t-35 -52.5t-52 -35t-64.5 -12.5q-34 0 -64 12.5t-52.5 35t-35 52.5t-12.5 64h78z" />
    <glyph glyph-name="uni048C" unicode="&#x48c;" 
d="M176 586v-172h87q35 0 64.5 -12.5t51.5 -35t34.5 -52t12.5 -64.5q0 -34 -12.5 -64t-34.5 -52.5t-51.5 -35t-64.5 -12.5h-164v500h-105v78h287v-78h-105zM176 336v-172h87q18 0 33.5 7t27 18.5t18.5 27t7 33.5t-7 33.5t-18.5 27t-27 18.5t-33.5 7h-87z" />
    <glyph glyph-name="uni048D" unicode="&#x48d;" 
d="M176 586v-172h87q35 0 64.5 -12.5t51.5 -35t34.5 -52t12.5 -64.5q0 -34 -12.5 -64t-34.5 -52.5t-51.5 -35t-64.5 -12.5h-164v500h-105v78h287v-78h-105zM176 336v-172h87q18 0 33.5 7t27 18.5t18.5 27t7 33.5t-7 33.5t-18.5 27t-27 18.5t-33.5 7h-87z" />
    <glyph glyph-name="uni048E" unicode="&#x48e;" 
d="M86 86v578h164q35 0 64.5 -12.5t52 -35t35 -52t12.5 -64.5q0 -42 -14 -69t-43 -56q29 -29 43 -56t14 -69h-78q0 19 -7 34t-18 27q-12 11 -27 18t-34 7h-86v-250h-78zM250 414q19 0 34 7t27 18q11 12 18 27t7 34t-7 34t-18 27q-12 11 -27 18t-34 7h-86v-172h86z" />
    <glyph glyph-name="uni048F" unicode="&#x48f;" 
d="M86 86v578h164q35 0 64.5 -12.5t52 -35t35 -52t12.5 -64.5q0 -42 -14 -69t-43 -56q29 -29 43 -56t14 -69h-78q0 19 -7 34t-18 27q-12 11 -27 18t-34 7h-86v-250h-78zM250 414q19 0 34 7t27 18q11 12 18 27t7 34t-7 34t-18 27q-12 11 -27 18t-34 7h-86v-172h86z" />
    <glyph glyph-name="uni0490" unicode="&#x490;" 
d="M86 664h250v86h78v-164h-250v-500h-78v578z" />
    <glyph glyph-name="uni0491" unicode="&#x491;" 
d="M86 664h250v86h78v-164h-250v-500h-78v578z" />
    <glyph glyph-name="uni0492" unicode="&#x492;" 
d="M86 414v250h328v-78h-250v-500h-78v250h-86v78h86zM250 336v78h164v-78h-164z" />
    <glyph glyph-name="uni0493" unicode="&#x493;" 
d="M86 414v250h328v-78h-250v-500h-78v250h-86v78h86zM250 336v78h164v-78h-164z" />
    <glyph glyph-name="uni0494" unicode="&#x494;" 
d="M414 664v-78h-250v-172h86q35 0 64.5 -12.5t52 -35t35 -52t12.5 -64.5q0 -34 -12.5 -64t-35 -52.5t-52 -35t-64.5 -12.5h-164v78h164q19 0 34 7t27 18q11 12 18 27t7 34t-7 34t-18 27q-12 11 -27 18t-34 7h-86v-86h-78v414h328z" />
    <glyph glyph-name="uni0495" unicode="&#x495;" 
d="M414 664v-78h-250v-172h86q35 0 64.5 -12.5t52 -35t35 -52t12.5 -64.5q0 -34 -12.5 -64t-35 -52.5t-52 -35t-64.5 -12.5h-164v78h164q19 0 34 7t27 18q11 12 18 27t7 34t-7 34t-18 27q-12 11 -27 18t-34 7h-86v-86h-78v414h328z" />
    <glyph glyph-name="uni0496" unicode="&#x496;" 
d="M6 250q0 42 14 69t43 56q-29 29 -43 56t-14 69v164h59v-164q0 -18 7 -33.5t18.5 -27t27 -18.5t33.5 -7h72v250h55v-250h71q18 0 33.5 7t27 18.5t18.5 27t7 33.5v164h59v-164q0 -42 -14 -69t-43 -56q29 -29 43 -56t14 -69v-253h-59v253q0 18 -7 33.5t-18.5 27t-27 18.5
t-33.5 7h-71v-250h-55v250h-72q-18 0 -33.5 -7t-27 -18.5t-18.5 -27t-7 -33.5v-164h-59v164z" />
    <glyph glyph-name="uni0497" unicode="&#x497;" 
d="M6 250q0 42 14 69t43 56q-29 29 -43 56t-14 69v164h59v-164q0 -18 7 -33.5t18.5 -27t27 -18.5t33.5 -7h72v250h55v-250h71q18 0 33.5 7t27 18.5t18.5 27t7 33.5v164h59v-164q0 -42 -14 -69t-43 -56q29 -29 43 -56t14 -69v-253h-59v253q0 18 -7 33.5t-18.5 27t-27 18.5
t-33.5 7h-71v-250h-55v250h-72q-18 0 -33.5 -7t-27 -18.5t-18.5 -27t-7 -33.5v-164h-59v164z" />
    <glyph glyph-name="uni0498" unicode="&#x498;" 
d="M250 414q19 0 34 7t27 18q11 12 18 27t7 34t-7 34t-18 27q-12 11 -27 18t-34 7t-34 -7t-27 -18q-11 -12 -18 -27t-7 -34h-78q0 35 12.5 64.5t35 52t52.5 35t64 12.5q35 0 64.5 -12.5t52 -35t35 -52t12.5 -64.5q0 -42 -14 -69t-43 -56q29 -29 43 -56t14 -69t-14 -69
t-43 -56q29 -29 43 -56t14 -69h-78q0 19 -7 34t-18 27q-12 11 -27 18t-34 7q-34 0 -64 12.5t-52.5 35t-35 52.5t-12.5 64h78q0 -19 7 -34t18 -27q12 -11 27 -18t34 -7t34 7t27 18q11 12 18 27t7 34t-7 34t-18 27q-12 11 -27 18t-34 7h-164v78h164z" />
    <glyph glyph-name="uni0499" unicode="&#x499;" 
d="M250 414q19 0 34 7t27 18q11 12 18 27t7 34t-7 34t-18 27q-12 11 -27 18t-34 7t-34 -7t-27 -18q-11 -12 -18 -27t-7 -34h-78q0 35 12.5 64.5t35 52t52.5 35t64 12.5q35 0 64.5 -12.5t52 -35t35 -52t12.5 -64.5q0 -42 -14 -69t-43 -56q29 -29 43 -56t14 -69t-14 -69
t-43 -56q29 -29 43 -56t14 -69h-78q0 19 -7 34t-18 27q-12 11 -27 18t-34 7q-34 0 -64 12.5t-52.5 35t-35 52.5t-12.5 64h78q0 -19 7 -34t18 -27q12 -11 27 -18t34 -7t34 7t27 18q11 12 18 27t7 34t-7 34t-18 27q-12 11 -27 18t-34 7h-164v78h164z" />
    <glyph glyph-name="uni049A" unicode="&#x49a;" 
d="M164 664v-250h86q19 0 34 7t27 18q11 12 18 27t7 34v164h78v-164q0 -42 -14 -69t-43 -56q29 -29 43 -56t14 -69v-250h-78v250q0 19 -7 34t-18 27q-12 11 -27 18t-34 7h-86v-250h-78v578h78z" />
    <glyph glyph-name="uni049B" unicode="&#x49b;" 
d="M164 664v-250h86q19 0 34 7t27 18q11 12 18 27t7 34v164h78v-164q0 -42 -14 -69t-43 -56q29 -29 43 -56t14 -69v-250h-78v250q0 19 -7 34t-18 27q-12 11 -27 18t-34 7h-86v-250h-78v578h78z" />
    <glyph glyph-name="uni049C" unicode="&#x49c;" 
d="M135 664v-250h95v112h40v-112h1q38 0 66 22.5t28 63.5v164h70v-164q0 -35 -14 -69.5t-43 -55.5q29 -21 43 -55.5t14 -69.5v-164h-70v164q0 18 -7 33.5t-18.5 27t-27 18.5t-33.5 7h-9v-112h-40v112h-95v-250h-70v578h70z" />
    <glyph glyph-name="uni049D" unicode="&#x49d;" 
d="M135 664v-250h95v112h40v-112h1q38 0 66 22.5t28 63.5v164h70v-164q0 -35 -14 -69.5t-43 -55.5q29 -21 43 -55.5t14 -69.5v-164h-70v164q0 18 -7 33.5t-18.5 27t-27 18.5t-33.5 7h-9v-112h-40v112h-95v-250h-70v578h70z" />
    <glyph glyph-name="uni049E" unicode="&#x49e;" 
d="M0 586v78h250v-78h-86v-172h86q19 0 34 7t27 18q11 12 18 27t7 34v164h78v-164q0 -42 -14 -69t-43 -56q29 -29 43 -56t14 -69v-164h-78v164q0 19 -7 34t-18 27q-12 11 -27 18t-34 7h-86v-250h-78v500h-86z" />
    <glyph glyph-name="uni049F" unicode="&#x49f;" 
d="M0 586v78h250v-78h-86v-172h86q19 0 34 7t27 18q11 12 18 27t7 34v164h78v-164q0 -42 -14 -69t-43 -56q29 -29 43 -56t14 -69v-164h-78v164q0 19 -7 34t-18 27q-12 11 -27 18t-34 7h-86v-250h-78v500h-86z" />
    <glyph glyph-name="uni04A0" unicode="&#x4a0;" 
d="M0 664h164v-250h86q19 0 34 7t27 18q11 12 18 27t7 34v164h78v-164q0 -42 -14 -69t-43 -56q29 -29 43 -56t14 -69v-164h-78v164q0 19 -7 34t-18 27q-12 11 -27 18t-34 7h-86v-250h-78v500h-86v78z" />
    <glyph glyph-name="uni04A1" unicode="&#x4a1;" 
d="M0 664h164v-250h86q19 0 34 7t27 18q11 12 18 27t7 34v164h78v-164q0 -42 -14 -69t-43 -56q29 -29 43 -56t14 -69v-164h-78v164q0 19 -7 34t-18 27q-12 11 -27 18t-34 7h-86v-250h-78v500h-86v78z" />
    <glyph glyph-name="uni04A2" unicode="&#x4a2;" 
d="M164 664v-250h172v250h78v-664h-78v336h-172v-250h-78v578h78z" />
    <glyph glyph-name="uni04A3" unicode="&#x4a3;" 
d="M164 664v-250h172v250h78v-664h-78v336h-172v-250h-78v578h78z" />
    <glyph glyph-name="uni04A4" unicode="&#x4a4;" 
d="M86 86v578h78v-250h172v250h164v-78h-86v-500h-78v250h-172v-250h-78z" />
    <glyph glyph-name="uni04A5" unicode="&#x4a5;" 
d="M86 86v578h78v-250h172v250h164v-78h-86v-500h-78v250h-172v-250h-78z" />
    <glyph glyph-name="uni04A6" unicode="&#x4a6;" 
d="M289 664v-251q32 -2 59.5 -16t47.5 -35.5t31.5 -50.5t11.5 -61q0 -34 -12.5 -64t-35 -52.5t-52 -35t-64.5 -12.5h-52v500h-95v-500h-67v578h228zM336 311q-10 9 -21.5 15.5t-25.5 8.5v-170q14 2 25.5 8.5t21.5 15.5q11 12 18 27t7 34t-7 34t-18 27z" />
    <glyph glyph-name="uni04A7" unicode="&#x4a7;" 
d="M289 664v-251q32 -2 59.5 -16t47.5 -35.5t31.5 -50.5t11.5 -61q0 -34 -12.5 -64t-35 -52.5t-52 -35t-64.5 -12.5h-52v500h-95v-500h-67v578h228zM336 311q-10 9 -21.5 15.5t-25.5 8.5v-170q14 2 25.5 8.5t21.5 15.5q11 12 18 27t7 34t-7 34t-18 27z" />
    <glyph glyph-name="uni04A8" unicode="&#x4a8;" 
d="M30 500q0 29 7.5 58.5t23 53t39.5 38t58 14.5v-78q-18 0 -30 -7t-23 -18q-11 -12 -14.5 -27t-3.5 -34v-250q0 -19 3.5 -34t14.5 -27q11 -11 23 -18t30 -7h64v336q0 37 7.5 65.5t26.5 50.5q19 23 40 35.5t53 12.5q31 0 52.5 -12.5t40.5 -35.5q19 -22 26.5 -50.5t7.5 -65.5
v-250q0 -37 -7.5 -65.5t-26.5 -50.5q-19 -23 -40.5 -35.5t-52.5 -12.5h-191q-34 0 -58 14.5t-39.5 38t-23 53t-7.5 58.5v250zM349 164q18 0 31.5 7.5t22 19.5t12.5 27.5t4 31.5v250q0 16 -4 31.5t-12.5 27.5t-22 19.5t-31.5 7.5t-31.5 -7.5t-22 -19.5t-13 -27.5t-4.5 -31.5
v-336h71z" />
    <glyph glyph-name="uni04A9" unicode="&#x4a9;" 
d="M30 500q0 29 7.5 58.5t23 53t39.5 38t58 14.5v-78q-18 0 -30 -7t-23 -18q-11 -12 -14.5 -27t-3.5 -34v-250q0 -19 3.5 -34t14.5 -27q11 -11 23 -18t30 -7h64v336q0 37 7.5 65.5t26.5 50.5q19 23 40 35.5t53 12.5q31 0 52.5 -12.5t40.5 -35.5q19 -22 26.5 -50.5t7.5 -65.5
v-250q0 -37 -7.5 -65.5t-26.5 -50.5q-19 -23 -40.5 -35.5t-52.5 -12.5h-191q-34 0 -58 14.5t-39.5 38t-23 53t-7.5 58.5v250zM349 164q18 0 31.5 7.5t22 19.5t12.5 27.5t4 31.5v250q0 16 -4 31.5t-12.5 27.5t-22 19.5t-31.5 7.5t-31.5 -7.5t-22 -19.5t-13 -27.5t-4.5 -31.5
v-336h71z" />
    <glyph glyph-name="uni04AA" unicode="&#x4aa;" 
d="M86 500q0 35 12.5 64.5t35 52t52.5 35t64 12.5q35 0 64.5 -12.5t52 -35t35 -52t12.5 -64.5h-78q0 19 -7 34t-18 27q-12 11 -27 18t-34 7t-34 -7t-27 -18q-11 -12 -18 -27t-7 -34v-250q0 -19 7 -34t18 -27q12 -11 27 -18t34 -7t34 7t27 18q11 12 18 27t7 34h78
q0 -34 -12.5 -64t-35 -52.5t-52 -35t-64.5 -12.5q-19 0 -34 -7t-27 -18q-11 -12 -18 -27t-7 -34h-78q0 42 14 69t43 56q-29 29 -43 56t-14 69v250z" />
    <glyph glyph-name="uni04AB" unicode="&#x4ab;" 
d="M86 500q0 35 12.5 64.5t35 52t52.5 35t64 12.5q35 0 64.5 -12.5t52 -35t35 -52t12.5 -64.5h-78q0 19 -7 34t-18 27q-12 11 -27 18t-34 7t-34 -7t-27 -18q-11 -12 -18 -27t-7 -34v-250q0 -19 7 -34t18 -27q12 -11 27 -18t34 -7t34 7t27 18q11 12 18 27t7 34h78
q0 -34 -12.5 -64t-35 -52.5t-52 -35t-64.5 -12.5q-19 0 -34 -7t-27 -18q-11 -12 -18 -27t-7 -34h-78q0 42 14 69t43 56q-29 29 -43 56t-14 69v250z" />
    <glyph glyph-name="uni04AC" unicode="&#x4ac;" 
d="M88 664h325v-78h-124v-586h-78v586h-123v78z" />
    <glyph glyph-name="uni04AD" unicode="&#x4ad;" 
d="M88 664h325v-78h-124v-586h-78v586h-123v78z" />
    <glyph glyph-name="uni04AE" unicode="&#x4ae;" 
d="M86 500v164h78v-164q0 -19 7 -34t18 -27q12 -11 27 -18t34 -7h86v250h78v-578h-78v250h-86q-34 0 -64 12.5t-52.5 35t-35 52.5t-12.5 64z" />
    <glyph glyph-name="uni04AF" unicode="&#x4af;" 
d="M86 500v164h78v-164q0 -19 7 -34t18 -27q12 -11 27 -18t34 -7h86v250h78v-578h-78v250h-86q-34 0 -64 12.5t-52.5 35t-35 52.5t-12.5 64z" />
    <glyph glyph-name="uni04B0" unicode="&#x4b0;" 
d="M86 500v164h78v-164q0 -19 7 -34t18 -27q12 -11 27 -18t34 -7h86v250h78v-664h-78v86h-123v78h123v172h-86q-34 0 -64 12.5t-52.5 35t-35 52.5t-12.5 64z" />
    <glyph glyph-name="uni04B1" unicode="&#x4b1;" 
d="M86 500v164h78v-164q0 -19 7 -34t18 -27q12 -11 27 -18t34 -7h86v250h78v-664h-78v86h-123v78h123v172h-86q-34 0 -64 12.5t-52.5 35t-35 52.5t-12.5 64z" />
    <glyph glyph-name="uni04B2" unicode="&#x4b2;" 
d="M164 664v-164q0 -19 7 -34t18 -27q12 -11 27 -18t34 -7t34 7t27 18q11 12 18 27t7 34v164h78v-164q0 -42 -14 -69t-43 -56q29 -29 43 -56t14 -69v-250h-78v250q0 19 -7 34t-18 27q-12 11 -27 18t-34 7t-34 -7t-27 -18q-11 -12 -18 -27t-7 -34v-164h-78v164q0 42 14 69
t43 56q-29 29 -43 56t-14 69v164h78z" />
    <glyph glyph-name="uni04B3" unicode="&#x4b3;" 
d="M164 664v-164q0 -19 7 -34t18 -27q12 -11 27 -18t34 -7t34 7t27 18q11 12 18 27t7 34v164h78v-164q0 -42 -14 -69t-43 -56q29 -29 43 -56t14 -69v-250h-78v250q0 19 -7 34t-18 27q-12 11 -27 18t-34 7t-34 -7t-27 -18q-11 -12 -18 -27t-7 -34v-164h-78v164q0 42 14 69
t43 56q-29 29 -43 56t-14 69v164h78z" />
    <glyph glyph-name="uni04B4" unicode="&#x4b4;" 
d="M0 586v78h250v-78h-86v-422h172v500h78v-664h-78v86h-250v500h-86z" />
    <glyph glyph-name="uni04B5" unicode="&#x4b5;" 
d="M0 586v78h250v-78h-86v-422h172v500h78v-664h-78v86h-250v500h-86z" />
    <glyph glyph-name="uni04B6" unicode="&#x4b6;" 
d="M86 500v164h78v-164q0 -19 7 -34t18 -27q12 -11 27 -18t34 -7h86v250h78v-664h-78v336h-86q-34 0 -64 12.5t-52.5 35t-35 52.5t-12.5 64z" />
    <glyph glyph-name="uni04B7" unicode="&#x4b7;" 
d="M86 500v164h78v-164q0 -19 7 -34t18 -27q12 -11 27 -18t34 -7h86v250h78v-664h-78v336h-86q-34 0 -64 12.5t-52.5 35t-35 52.5t-12.5 64z" />
    <glyph glyph-name="uni04B8" unicode="&#x4b8;" 
d="M131 664v-164q0 -18 7 -33.5t19 -27t27.5 -18.5t33.5 -7h5v116h55v-116h91v250h77v-578h-77v250h-91v-112h-55v112h-5q-35 0 -65 12.5t-52 34.5t-34.5 52t-12.5 65v164h77z" />
    <glyph glyph-name="uni04B9" unicode="&#x4b9;" 
d="M131 664v-164q0 -18 7 -33.5t19 -27t27.5 -18.5t33.5 -7h5v116h55v-116h91v250h77v-578h-77v250h-91v-112h-55v112h-5q-35 0 -65 12.5t-52 34.5t-34.5 52t-12.5 65v164h77z" />
    <glyph glyph-name="uni04BA" unicode="&#x4ba;" 
d="M86 86v578h78v-250h86q35 0 64.5 -12.5t52 -35t35 -52t12.5 -64.5v-164h-78v164q0 19 -7 34t-18 27q-12 11 -27 18t-34 7h-86v-250h-78z" />
    <glyph glyph-name="uni04BB" unicode="&#x4bb;" 
d="M86 86v578h78v-250h86q35 0 64.5 -12.5t52 -35t35 -52t12.5 -64.5v-164h-78v164q0 19 -7 34t-18 27q-12 11 -27 18t-34 7h-86v-250h-78z" />
    <glyph glyph-name="uni04BC" unicode="&#x4bc;" 
d="M0 414h86v86q0 35 12.5 64.5t35 52t52.5 35t64 12.5q35 0 64.5 -12.5t52 -35t35 -52t12.5 -64.5v-164h-164v78h86v86q0 19 -7 34t-18 27q-12 11 -27 18t-34 7t-34 -7t-27 -18q-11 -12 -18 -27t-7 -34v-250q0 -19 7 -34t18 -27q12 -11 27 -18t34 -7t34 7t27 18
q11 12 18 27t7 34h78q0 -34 -12.5 -64t-35 -52.5t-52 -35t-64.5 -12.5q-34 0 -64 12.5t-52.5 35t-35 52.5t-12.5 64v86h-86v78z" />
    <glyph glyph-name="uni04BD" unicode="&#x4bd;" 
d="M0 414h86v86q0 35 12.5 64.5t35 52t52.5 35t64 12.5q35 0 64.5 -12.5t52 -35t35 -52t12.5 -64.5v-164h-164v78h86v86q0 19 -7 34t-18 27q-12 11 -27 18t-34 7t-34 -7t-27 -18q-11 -12 -18 -27t-7 -34v-250q0 -19 7 -34t18 -27q12 -11 27 -18t34 -7t34 7t27 18
q11 12 18 27t7 34h78q0 -34 -12.5 -64t-35 -52.5t-52 -35t-64.5 -12.5q-34 0 -64 12.5t-52.5 35t-35 52.5t-12.5 64v86h-86v78z" />
    <glyph glyph-name="uni04BE" unicode="&#x4be;" 
d="M86 414v86q0 35 12.5 64.5t35 52t52.5 35t64 12.5q35 0 64.5 -12.5t52 -35t35 -52t12.5 -64.5v-164h-164v78h86v86q0 19 -7 34t-18 27q-12 11 -27 18t-34 7t-34 -7t-27 -18q-11 -12 -18 -27t-7 -34v-250q0 -19 7 -34t18 -27q12 -11 27 -18t34 -7t34 7t27 18q11 12 18 27
t7 34h78q0 -34 -12.5 -64t-35 -52.5t-52 -35t-64.5 -12.5q-19 0 -34 -7t-27 -18q-11 -12 -18 -27t-7 -34h-78q0 42 14 69t43 56q-29 29 -43 56t-14 69v86h-86v78h86z" />
    <glyph glyph-name="uni04BF" unicode="&#x4bf;" 
d="M86 414v86q0 35 12.5 64.5t35 52t52.5 35t64 12.5q35 0 64.5 -12.5t52 -35t35 -52t12.5 -64.5v-164h-164v78h86v86q0 19 -7 34t-18 27q-12 11 -27 18t-34 7t-34 -7t-27 -18q-11 -12 -18 -27t-7 -34v-250q0 -19 7 -34t18 -27q12 -11 27 -18t34 -7t34 7t27 18q11 12 18 27
t7 34h78q0 -34 -12.5 -64t-35 -52.5t-52 -35t-64.5 -12.5q-19 0 -34 -7t-27 -18q-11 -12 -18 -27t-7 -34h-78q0 42 14 69t43 56q-29 29 -43 56t-14 69v86h-86v78h86z" />
    <glyph glyph-name="uni04C0" unicode="&#x4c0;" 
d="M103 86v78h108v422h-108v78h295v-78h-109v-422h109v-78h-295z" />
    <glyph glyph-name="uni04C1" unicode="&#x4c1;" 
d="M6 556h59v-110q0 -36 26 -60q24 -26 60 -26h72v118h55v-118h71q36 0 60 26q26 24 26 60v110h59v-110q0 -42 -14.5 -69.5t-42.5 -55.5q14 -9 24.5 -24t18 -32t11 -35t3.5 -34v-110h-59v110q0 17 -7 33t-18.5 28t-27 19t-33.5 7h-71v-197h-55v197h-72q-18 0 -33.5 -7
t-27 -19t-18.5 -28t-7 -33v-110h-59v110q0 16 3.5 34t11 35t18 32t24.5 24q-28 28 -42.5 55.5t-14.5 69.5v110zM125 664q41 0 74.5 -19.5t50.5 -52.5q17 33 50.5 52.5t74.5 19.5v-78q-18 0 -33.5 -7t-27 -18.5t-18.5 -27t-7 -33.5h-78q0 18 -7 33.5t-18.5 27t-27 18.5
t-33.5 7v78z" />
    <glyph glyph-name="uni04C2" unicode="&#x4c2;" 
d="M6 556h59v-110q0 -36 26 -60q24 -26 60 -26h72v118h55v-118h71q36 0 60 26q26 24 26 60v110h59v-110q0 -42 -14.5 -69.5t-42.5 -55.5q14 -9 24.5 -24t18 -32t11 -35t3.5 -34v-110h-59v110q0 17 -7 33t-18.5 28t-27 19t-33.5 7h-71v-197h-55v197h-72q-18 0 -33.5 -7
t-27 -19t-18.5 -28t-7 -33v-110h-59v110q0 16 3.5 34t11 35t18 32t24.5 24q-28 28 -42.5 55.5t-14.5 69.5v110zM125 664q41 0 74.5 -19.5t50.5 -52.5q17 33 50.5 52.5t74.5 19.5v-78q-18 0 -33.5 -7t-27 -18.5t-18.5 -27t-7 -33.5h-78q0 18 -7 33.5t-18.5 27t-27 18.5
t-33.5 7v78z" />
    <glyph glyph-name="uni04C3" unicode="&#x4c3;" 
d="M164 664v-250h86q19 0 34 7t27 18q11 12 18 27t7 34v164h78v-164q0 -42 -14 -69t-43 -56q29 -29 43 -56t14 -69q0 -34 -12.5 -64t-35 -52.5t-52 -35t-64.5 -12.5v78q19 0 34 7t27 18q11 12 18 27t7 34t-7 34t-18 27q-12 11 -27 18t-34 7h-86v-250h-78v578h78z" />
    <glyph glyph-name="uni04C4" unicode="&#x4c4;" 
d="M164 664v-250h86q19 0 34 7t27 18q11 12 18 27t7 34v164h78v-164q0 -42 -14 -69t-43 -56q29 -29 43 -56t14 -69q0 -34 -12.5 -64t-35 -52.5t-52 -35t-64.5 -12.5v78q19 0 34 7t27 18q11 12 18 27t7 34t-7 34t-18 27q-12 11 -27 18t-34 7h-86v-250h-78v578h78z" />
    <glyph glyph-name="uni04C5" unicode="&#x4c5;" 
d="M61 189q11 12 18 27t7 34v414h328v-664h-78v586h-172v-336q0 -34 -12.5 -64t-35 -52.5t-52 -35t-64.5 -12.5v78q19 0 34 7t27 18z" />
    <glyph glyph-name="uni04C6" unicode="&#x4c6;" 
d="M61 189q11 12 18 27t7 34v414h328v-664h-78v586h-172v-336q0 -34 -12.5 -64t-35 -52.5t-52 -35t-64.5 -12.5v78q19 0 34 7t27 18z" />
    <glyph glyph-name="uni04C7" unicode="&#x4c7;" 
d="M164 86h-78v578h78v-250h172v250h78v-414q0 -34 -12.5 -64t-35 -52.5t-52 -35t-64.5 -12.5v78q19 0 34 7t27 18q11 12 18 27t7 34v86h-172v-250z" />
    <glyph glyph-name="uni04C8" unicode="&#x4c8;" 
d="M164 86h-78v578h78v-250h172v250h78v-414q0 -34 -12.5 -64t-35 -52.5t-52 -35t-64.5 -12.5v78q19 0 34 7t27 18q11 12 18 27t7 34v86h-172v-250z" />
    <glyph glyph-name="uni04C9" unicode="&#x4c9;" 
d="M164 664v-250h172v250h78v-664h-78v336h-172v-250h-78v578h78z" />
    <glyph glyph-name="uni04CA" unicode="&#x4ca;" 
d="M164 664v-250h172v250h78v-664h-78v336h-172v-250h-78v578h78z" />
    <glyph glyph-name="uni04CB" unicode="&#x4cb;" 
d="M86 500v164h78v-164q0 -19 7 -34t18 -27q12 -11 27 -18t34 -7h86v250h78v-664h-78v336h-86q-34 0 -64 12.5t-52.5 35t-35 52.5t-12.5 64z" />
    <glyph glyph-name="uni04CC" unicode="&#x4cc;" 
d="M86 500v164h78v-164q0 -19 7 -34t18 -27q12 -11 27 -18t34 -7h86v250h78v-664h-78v336h-86q-34 0 -64 12.5t-52.5 35t-35 52.5t-12.5 64z" />
    <glyph glyph-name="uni04CD" unicode="&#x4cd;" 
d="M40 523q0 61 27 101t88 40q38 0 60 -18.5t35 -50.5q13 32 35 50.5t60 18.5q61 0 88 -40t27 -101v-537h-66v514q0 35 -12.5 60.5t-47.5 25.5t-47.5 -25.5t-12.5 -60.5v-414h-48v414q0 35 -12.5 60.5t-47.5 25.5t-47.5 -25.5t-12.5 -60.5v-414h-66v437z" />
    <glyph glyph-name="uni04CE" unicode="&#x4ce;" 
d="M40 523q0 61 27 101t88 40q38 0 60 -18.5t35 -50.5q13 32 35 50.5t60 18.5q61 0 88 -40t27 -101v-537h-66v514q0 35 -12.5 60.5t-47.5 25.5t-47.5 -25.5t-12.5 -60.5v-414h-48v414q0 35 -12.5 60.5t-47.5 25.5t-47.5 -25.5t-12.5 -60.5v-414h-66v437z" />
    <glyph glyph-name="uni04CF" unicode="&#x4cf;" 
d="M103 86v78h108v422h-108v78h295v-78h-109v-422h109v-78h-295z" />
    <glyph glyph-name="uni04D0" unicode="&#x4d0;" 
d="M86 500q0 42 14 69t43 56q-29 29 -43 56t-14 69h78q0 -19 7 -34t18 -27q12 -11 27 -18t34 -7t34 7t27 18q11 12 18 27t7 34h78q0 -42 -14 -69t-43 -56q29 -29 43 -56t14 -69v-414h-78v250h-172v-250h-78v414zM336 414v86q0 19 -7 34t-18 27q-12 11 -27 18t-34 7t-34 -7
t-27 -18q-11 -12 -18 -27t-7 -34v-86h172z" />
    <glyph glyph-name="uni04D1" unicode="&#x4d1;" 
d="M189 561q-11 -12 -18 -27t-7 -34v-86h172v86q0 19 -7 34t-18 27q-12 11 -27 18t-34 7t-34 -7t-27 -18zM143 625q-29 29 -43 56t-14 69h78q0 -19 7 -34t18 -27q12 -11 27 -18t34 -7t34 7t27 18q11 12 18 27t7 34h78q0 -42 -14 -69t-43 -56q29 -29 43 -56t14 -69v-414h-78
v250h-172v-250h-78v414q0 42 14 69t43 56z" />
    <glyph glyph-name="uni04D2" unicode="&#x4d2;" 
d="M86 250q0 20 5.5 40.5t15.5 39.5t24.5 34.5t32.5 25.5q36 24 86 24t86 -24q18 -10 32.5 -25.5t24.5 -34.5t15.5 -39.5t5.5 -40.5v-250h-78v86h-172v-86h-78v250zM336 164v86q0 19 -7 34t-18 27q-12 11 -27 18t-34 7t-34 -7t-27 -18q-11 -12 -18 -27t-7 -34v-86h172z
M336 500v164h78v-164h-78zM86 664h78v-164h-78v164z" />
    <glyph glyph-name="uni04D3" unicode="&#x4d3;" 
d="M86 250q0 20 5.5 40.5t15.5 39.5t24.5 34.5t32.5 25.5q36 24 86 24t86 -24q18 -10 32.5 -25.5t24.5 -34.5t15.5 -39.5t5.5 -40.5v-250h-78v86h-172v-86h-78v250zM336 164v86q0 19 -7 34t-18 27q-12 11 -27 18t-34 7t-34 -7t-27 -18q-11 -12 -18 -27t-7 -34v-86h172z
M336 500v164h78v-164h-78zM86 664h78v-164h-78v164z" />
    <glyph glyph-name="uni04D4" unicode="&#x4d4;" 
d="M30 500q0 35 12.5 65t34.5 52t52 34.5t65 12.5h276v-78h-181v-172h181v-78h-181v-172h181v-78h-232v250h-130v-250h-78v414zM238 414v172h-44q-19 0 -34 -7t-27 -18q-11 -12 -18 -27t-7 -34v-86h130z" />
    <glyph glyph-name="uni04D5" unicode="&#x4d5;" 
d="M30 500q0 35 12.5 65t34.5 52t52 34.5t65 12.5h276v-78h-181v-172h181v-78h-181v-172h181v-78h-232v250h-130v-250h-78v414zM238 414v172h-44q-19 0 -34 -7t-27 -18q-11 -12 -18 -27t-7 -34v-86h130z" />
    <glyph glyph-name="uni04D6" unicode="&#x4d6;" 
d="M164 750q0 -19 7 -34t18 -27q12 -11 27 -18t34 -7t34 7t27 18q11 12 18 27t7 34h78q0 -42 -14 -69t-43 -56q29 -29 43 -56t14 -69h-78q0 19 -7 34t-18 27q-12 11 -27 18t-34 7t-34 -7t-27 -18q-11 -12 -18 -27t-7 -34v-86h250v-78h-250v-172h250v-78h-328v414q0 42 14 69
t43 56q-29 29 -43 56t-14 69h78z" />
    <glyph glyph-name="uni04D7" unicode="&#x4d7;" 
d="M164 750q0 -19 7 -34t18 -27q12 -11 27 -18t34 -7t34 7t27 18q11 12 18 27t7 34h78q0 -42 -14 -69t-43 -56q29 -29 43 -56t14 -69h-78q0 19 -7 34t-18 27q-12 11 -27 18t-34 7t-34 -7t-27 -18q-11 -12 -18 -27t-7 -34v-86h250v-78h-250v-172h250v-78h-328v414q0 42 14 69
t43 56q-29 29 -43 56t-14 69h78z" />
    <glyph glyph-name="uni04D8" unicode="&#x4d8;" 
d="M86 500q0 35 12.5 64.5t35 52t52.5 35t64 12.5q35 0 64.5 -12.5t52 -35t35 -52t12.5 -64.5v-250q0 -34 -12.5 -64t-35 -52.5t-52 -35t-64.5 -12.5q-34 0 -64 12.5t-52.5 35t-35 52.5t-12.5 64v164h250v86q0 19 -7 34t-18 27q-12 11 -27 18t-34 7t-34 -7t-27 -18
q-11 -12 -18 -27t-7 -34h-78zM189 189q12 -11 27 -18t34 -7t34 7t27 18q11 12 18 27t7 34v86h-172v-86q0 -19 7 -34t18 -27z" />
    <glyph glyph-name="uni04D9" unicode="&#x4d9;" 
d="M86 500q0 35 12.5 64.5t35 52t52.5 35t64 12.5q35 0 64.5 -12.5t52 -35t35 -52t12.5 -64.5v-250q0 -34 -12.5 -64t-35 -52.5t-52 -35t-64.5 -12.5q-34 0 -64 12.5t-52.5 35t-35 52.5t-12.5 64v164h250v86q0 19 -7 34t-18 27q-12 11 -27 18t-34 7t-34 -7t-27 -18
q-11 -12 -18 -27t-7 -34h-78zM189 189q12 -11 27 -18t34 -7t34 7t27 18q11 12 18 27t7 34v86h-172v-86q0 -19 7 -34t18 -27z" />
    <glyph glyph-name="uni04DA" unicode="&#x4da;" 
d="M86 750h78q0 -19 7 -34t18 -27q12 -11 27 -18t34 -7t34 7t27 18q11 12 18 27t7 34h78q0 -42 -14 -69t-43 -56q29 -29 43 -56t14 -69v-250q0 -34 -12.5 -64t-35 -52.5t-52 -35t-64.5 -12.5q-34 0 -64 12.5t-52.5 35t-35 52.5t-12.5 64v164h250v86q0 19 -7 34t-18 27
q-12 11 -27 18t-34 7t-34 -7t-27 -18q-11 -12 -18 -27t-7 -34h-78q0 42 14 69t43 56q-29 29 -43 56t-14 69zM164 336v-86q0 -19 7 -34t18 -27q12 -11 27 -18t34 -7t34 7t27 18q11 12 18 27t7 34v86h-172z" />
    <glyph glyph-name="uni04DB" unicode="&#x4db;" 
d="M86 750h78q0 -19 7 -34t18 -27q12 -11 27 -18t34 -7t34 7t27 18q11 12 18 27t7 34h78q0 -42 -14 -69t-43 -56q29 -29 43 -56t14 -69v-250q0 -34 -12.5 -64t-35 -52.5t-52 -35t-64.5 -12.5q-34 0 -64 12.5t-52.5 35t-35 52.5t-12.5 64v164h250v86q0 19 -7 34t-18 27
q-12 11 -27 18t-34 7t-34 -7t-27 -18q-11 -12 -18 -27t-7 -34h-78q0 42 14 69t43 56q-29 29 -43 56t-14 69zM164 336v-86q0 -19 7 -34t18 -27q12 -11 27 -18t34 -7t34 7t27 18q11 12 18 27t7 34v86h-172z" />
    <glyph glyph-name="uni04DC" unicode="&#x4dc;" 
d="M6 556h59v-110q0 -36 26 -60q24 -26 60 -26h72v196h55v-196h71q36 0 60 26q26 24 26 60v110h59v-110q0 -42 -14.5 -69.5t-42.5 -55.5q14 -9 24.5 -24t18 -32t11 -35t3.5 -34v-110h-59v110q0 17 -7 33t-18.5 28t-27 19t-33.5 7h-71v-197h-55v197h-72q-18 0 -33.5 -7
t-27 -19t-18.5 -28t-7 -33v-110h-59v110q0 16 3.5 34t11 35t18 32t24.5 24q-28 28 -42.5 55.5t-14.5 69.5v110zM311 604v71h55v-71h-55zM134 604v71h55v-71h-55z" />
    <glyph glyph-name="uni04DD" unicode="&#x4dd;" 
d="M6 556h59v-110q0 -36 26 -60q24 -26 60 -26h72v196h55v-196h71q36 0 60 26q26 24 26 60v110h59v-110q0 -42 -14.5 -69.5t-42.5 -55.5q14 -9 24.5 -24t18 -32t11 -35t3.5 -34v-110h-59v110q0 17 -7 33t-18.5 28t-27 19t-33.5 7h-71v-197h-55v197h-72q-18 0 -33.5 -7
t-27 -19t-18.5 -28t-7 -33v-110h-59v110q0 16 3.5 34t11 35t18 32t24.5 24q-28 28 -42.5 55.5t-14.5 69.5v110zM311 604v71h55v-71h-55zM134 604v71h55v-71h-55z" />
    <glyph glyph-name="uni04DE" unicode="&#x4de;" 
d="M86 414h164q19 0 34 7t27 18q11 12 18 27t7 34t-7 34t-18 27q-12 11 -27 18t-34 7t-34 -7t-27 -18q-11 -12 -18 -27t-7 -34h-78q0 42 14 69t43 56q-29 29 -43 56t-14 69h78q0 -19 7 -34t18 -27q12 -11 27 -18t34 -7t34 7t27 18q11 12 18 27t7 34h78q0 -42 -14 -69
t-43 -56q29 -29 43 -56t14 -69t-14 -69t-43 -56q29 -29 43 -56t14 -69q0 -34 -12.5 -64t-35 -52.5t-52 -35t-64.5 -12.5q-34 0 -64 12.5t-52.5 35t-35 52.5t-12.5 64h78q0 -19 7 -34t18 -27q12 -11 27 -18t34 -7t34 7t27 18q11 12 18 27t7 34t-7 34t-18 27q-12 11 -27 18
t-34 7h-164v78z" />
    <glyph glyph-name="uni04DF" unicode="&#x4df;" 
d="M86 414h164q19 0 34 7t27 18q11 12 18 27t7 34t-7 34t-18 27q-12 11 -27 18t-34 7t-34 -7t-27 -18q-11 -12 -18 -27t-7 -34h-78q0 42 14 69t43 56q-29 29 -43 56t-14 69h78q0 -19 7 -34t18 -27q12 -11 27 -18t34 -7t34 7t27 18q11 12 18 27t7 34h78q0 -42 -14 -69
t-43 -56q29 -29 43 -56t14 -69t-14 -69t-43 -56q29 -29 43 -56t14 -69q0 -34 -12.5 -64t-35 -52.5t-52 -35t-64.5 -12.5q-34 0 -64 12.5t-52.5 35t-35 52.5t-12.5 64h78q0 -19 7 -34t18 -27q12 -11 27 -18t34 -7t34 7t27 18q11 12 18 27t7 34t-7 34t-18 27q-12 11 -27 18
t-34 7h-164v78z" />
    <glyph glyph-name="uni04E0" unicode="&#x4e0;" 
d="M86 414h164q19 0 34 7t27 18q11 12 18 27t7 34v86h-250v78h328v-164q0 -42 -14 -69t-43 -56q29 -29 43 -56t14 -69q0 -34 -12.5 -64t-35 -52.5t-52 -35t-64.5 -12.5q-34 0 -64 12.5t-52.5 35t-35 52.5t-12.5 64h78q0 -19 7 -34t18 -27q12 -11 27 -18t34 -7t34 7t27 18
q11 12 18 27t7 34t-7 34t-18 27q-12 11 -27 18t-34 7h-164v78z" />
    <glyph glyph-name="uni04E1" unicode="&#x4e1;" 
d="M86 414h164q19 0 34 7t27 18q11 12 18 27t7 34v86h-250v78h328v-164q0 -42 -14 -69t-43 -56q29 -29 43 -56t14 -69q0 -34 -12.5 -64t-35 -52.5t-52 -35t-64.5 -12.5q-34 0 -64 12.5t-52.5 35t-35 52.5t-12.5 64h78q0 -19 7 -34t18 -27q12 -11 27 -18t34 -7t34 7t27 18
q11 12 18 27t7 34t-7 34t-18 27q-12 11 -27 18t-34 7h-164v78z" />
    <glyph glyph-name="uni04E2" unicode="&#x4e2;" 
d="M86 390q8 -5 15.5 -11t14.5 -13l9 -9q29 29 56 43t69 14h164v-328h-78v250h-86q-19 0 -34 -7t-27 -18q-11 -12 -18 -27t-7 -34v-164h-78v164q0 19 -7 34t-18 27q-12 11 -27 18t-34 7v78q50 0 86 -24zM86 664h328v-78h-328v78z" />
    <glyph glyph-name="uni04E3" unicode="&#x4e3;" 
d="M86 390q8 -5 15.5 -11t14.5 -13l9 -9q29 29 56 43t69 14h164v-328h-78v250h-86q-19 0 -34 -7t-27 -18q-11 -12 -18 -27t-7 -34v-164h-78v164q0 19 -7 34t-18 27q-12 11 -27 18t-34 7v78q50 0 86 -24zM86 664h328v-78h-328v78z" />
    <glyph glyph-name="uni04E4" unicode="&#x4e4;" 
d="M61 311q-12 11 -27 18t-34 7v78q50 0 86 -24q8 -5 15.5 -11t14.5 -13l9 -9l9 9q7 7 14.5 13t15.5 11q36 24 86 24h164v-328h-78v250h-86q-19 0 -34 -7t-27 -18q-11 -12 -18 -27t-7 -34v-164h-78v164q0 19 -7 34t-18 27zM414 664v-164h-78v164h78zM86 664h78v-164h-78v164
z" />
    <glyph glyph-name="uni04E5" unicode="&#x4e5;" 
d="M61 311q-12 11 -27 18t-34 7v78q50 0 86 -24q8 -5 15.5 -11t14.5 -13l9 -9l9 9q7 7 14.5 13t15.5 11q36 24 86 24h164v-328h-78v250h-86q-19 0 -34 -7t-27 -18q-11 -12 -18 -27t-7 -34v-164h-78v164q0 19 -7 34t-18 27zM414 664v-164h-78v164h78zM86 664h78v-164h-78v164
z" />
    <glyph glyph-name="uni04E6" unicode="&#x4e6;" 
d="M86 250q0 35 12.5 64.5t35 52t52.5 35t64 12.5q35 0 64.5 -12.5t52 -35t35 -52t12.5 -64.5q0 -34 -12.5 -64t-35 -52.5t-52 -35t-64.5 -12.5q-34 0 -64 12.5t-52.5 35t-35 52.5t-12.5 64zM164 250q0 -19 7 -34t18 -27q12 -11 27 -18t34 -7t34 7t27 18q11 12 18 27t7 34
t-7 34t-18 27q-12 11 -27 18t-34 7t-34 -7t-27 -18q-11 -12 -18 -27t-7 -34zM336 500v164h78v-164h-78zM86 664h78v-164h-78v164z" />
    <glyph glyph-name="uni04E7" unicode="&#x4e7;" 
d="M86 250q0 35 12.5 64.5t35 52t52.5 35t64 12.5q35 0 64.5 -12.5t52 -35t35 -52t12.5 -64.5q0 -34 -12.5 -64t-35 -52.5t-52 -35t-64.5 -12.5q-34 0 -64 12.5t-52.5 35t-35 52.5t-12.5 64zM164 250q0 -19 7 -34t18 -27q12 -11 27 -18t34 -7t34 7t27 18q11 12 18 27t7 34
t-7 34t-18 27q-12 11 -27 18t-34 7t-34 -7t-27 -18q-11 -12 -18 -27t-7 -34zM336 500v164h78v-164h-78zM86 664h78v-164h-78v164z" />
    <glyph glyph-name="uni04E8" unicode="&#x4e8;" 
d="M86 500q0 35 12.5 64.5t35 52t52.5 35t64 12.5q35 0 64.5 -12.5t52 -35t35 -52t12.5 -64.5v-250q0 -34 -12.5 -64t-35 -52.5t-52 -35t-64.5 -12.5q-34 0 -64 12.5t-52.5 35t-35 52.5t-12.5 64v250zM164 250q0 -19 7 -34t18 -27q12 -11 27 -18t34 -7t34 7t27 18
q11 12 18 27t7 34v86h-172v-86zM336 414v86q0 19 -7 34t-18 27q-12 11 -27 18t-34 7t-34 -7t-27 -18q-11 -12 -18 -27t-7 -34v-86h172z" />
    <glyph glyph-name="uni04E9" unicode="&#x4e9;" 
d="M86 500q0 35 12.5 64.5t35 52t52.5 35t64 12.5q35 0 64.5 -12.5t52 -35t35 -52t12.5 -64.5v-250q0 -34 -12.5 -64t-35 -52.5t-52 -35t-64.5 -12.5q-34 0 -64 12.5t-52.5 35t-35 52.5t-12.5 64v250zM164 250q0 -19 7 -34t18 -27q12 -11 27 -18t34 -7t34 7t27 18
q11 12 18 27t7 34v86h-172v-86zM336 414v86q0 19 -7 34t-18 27q-12 11 -27 18t-34 7t-34 -7t-27 -18q-11 -12 -18 -27t-7 -34v-86h172z" />
    <glyph glyph-name="uni04EA" unicode="&#x4ea;" 
d="M336 250v86h-172v-86q0 -19 7 -34t18 -27q12 -11 27 -18t34 -7t34 7t27 18q11 12 18 27t7 34zM311 561q-12 11 -27 18t-34 7t-34 -7t-27 -18q-11 -12 -18 -27t-7 -34v-86h172v86q0 19 -7 34t-18 27zM357 625q29 -29 43 -56t14 -69v-250q0 -34 -12.5 -64t-35 -52.5
t-52 -35t-64.5 -12.5q-34 0 -64 12.5t-52.5 35t-35 52.5t-12.5 64v250q0 42 14 69t43 56q-29 29 -43 56t-14 69h78q0 -19 7 -34t18 -27q12 -11 27 -18t34 -7t34 7t27 18q11 12 18 27t7 34h78q0 -42 -14 -69t-43 -56z" />
    <glyph glyph-name="uni04EB" unicode="&#x4eb;" 
d="M86 750h78q0 -19 7 -34t18 -27q12 -11 27 -18t34 -7t34 7t27 18q11 12 18 27t7 34h78q0 -42 -14 -69t-43 -56q29 -29 43 -56t14 -69v-250q0 -34 -12.5 -64t-35 -52.5t-52 -35t-64.5 -12.5q-34 0 -64 12.5t-52.5 35t-35 52.5t-12.5 64v250q0 42 14 69t43 56q-29 29 -43 56
t-14 69zM164 336v-86q0 -19 7 -34t18 -27q12 -11 27 -18t34 -7t34 7t27 18q11 12 18 27t7 34v86h-172zM164 414h172v86q0 19 -7 34t-18 27q-12 11 -27 18t-34 7t-34 -7t-27 -18q-11 -12 -18 -27t-7 -34v-86z" />
    <glyph glyph-name="uni04EC" unicode="&#x4ec;" 
d="M86 414h250v86q0 19 -7 34t-18 27q-12 11 -27 18t-34 7t-34 -7t-27 -18q-11 -12 -18 -27t-7 -34h-78q0 42 14 69t43 56q-29 29 -43 56t-14 69h78q0 -19 7 -34t18 -27q12 -11 27 -18t34 -7t34 7t27 18q11 12 18 27t7 34h78q0 -42 -14 -69t-43 -56q29 -29 43 -56t14 -69
v-250q0 -34 -12.5 -64t-35 -52.5t-52 -35t-64.5 -12.5q-34 0 -64 12.5t-52.5 35t-35 52.5t-12.5 64h78q0 -19 7 -34t18 -27q12 -11 27 -18t34 -7t34 7t27 18q11 12 18 27t7 34v86h-250v78z" />
    <glyph glyph-name="uni04ED" unicode="&#x4ed;" 
d="M86 414h250v86q0 19 -7 34t-18 27q-12 11 -27 18t-34 7t-34 -7t-27 -18q-11 -12 -18 -27t-7 -34h-78q0 42 14 69t43 56q-29 29 -43 56t-14 69h78q0 -19 7 -34t18 -27q12 -11 27 -18t34 -7t34 7t27 18q11 12 18 27t7 34h78q0 -42 -14 -69t-43 -56q29 -29 43 -56t14 -69
v-250q0 -34 -12.5 -64t-35 -52.5t-52 -35t-64.5 -12.5q-34 0 -64 12.5t-52.5 35t-35 52.5t-12.5 64h78q0 -19 7 -34t18 -27q12 -11 27 -18t34 -7t34 7t27 18q11 12 18 27t7 34v86h-250v78z" />
    <glyph glyph-name="uni04EE" unicode="&#x4ee;" 
d="M164 414v-164q0 -19 7 -34t18 -27q12 -11 27 -18t34 -7h86v250h78v-414h-78v86h-86q-34 0 -64 12.5t-52.5 35t-35 52.5t-12.5 64v164h78zM86 664h328v-78h-328v78z" />
    <glyph glyph-name="uni04EF" unicode="&#x4ef;" 
d="M164 414v-164q0 -19 7 -34t18 -27q12 -11 27 -18t34 -7h86v250h78v-414h-78v86h-86q-34 0 -64 12.5t-52.5 35t-35 52.5t-12.5 64v164h78zM86 664h328v-78h-328v78z" />
    <glyph glyph-name="uni04F0" unicode="&#x4f0;" 
d="M86 414h78v-164q0 -19 7 -34t18 -27q12 -11 27 -18t34 -7h86v250h78v-414h-78v86h-86q-34 0 -64 12.5t-52.5 35t-35 52.5t-12.5 64v164zM336 500v164h78v-164h-78zM86 664h78v-164h-78v164z" />
    <glyph glyph-name="uni04F1" unicode="&#x4f1;" 
d="M86 414h78v-164q0 -19 7 -34t18 -27q12 -11 27 -18t34 -7h86v250h78v-414h-78v86h-86q-34 0 -64 12.5t-52.5 35t-35 52.5t-12.5 64v164zM336 500v164h78v-164h-78zM86 664h78v-164h-78v164z" />
    <glyph glyph-name="uni04F2" unicode="&#x4f2;" 
d="M164 414v-164q0 -19 7 -34t18 -27q12 -11 27 -18t34 -7h86v250h78v-414h-78v86h-86q-34 0 -64 12.5t-52.5 35t-35 52.5t-12.5 64v164h78zM250 586v78q19 0 34 7t27 18q11 12 18 27t7 34h78q0 -34 -12.5 -64t-35 -52.5t-52 -35t-64.5 -12.5zM0 586v78q19 0 34 7t27 18
q11 12 18 27t7 34h78q0 -34 -12.5 -64t-35 -52.5t-52 -35t-64.5 -12.5z" />
    <glyph glyph-name="uni04F3" unicode="&#x4f3;" 
d="M164 414v-164q0 -19 7 -34t18 -27q12 -11 27 -18t34 -7h86v250h78v-414h-78v86h-86q-34 0 -64 12.5t-52.5 35t-35 52.5t-12.5 64v164h78zM250 586v78q19 0 34 7t27 18q11 12 18 27t7 34h78q0 -34 -12.5 -64t-35 -52.5t-52 -35t-64.5 -12.5zM0 586v78q19 0 34 7t27 18
q11 12 18 27t7 34h78q0 -34 -12.5 -64t-35 -52.5t-52 -35t-64.5 -12.5z" />
    <glyph glyph-name="uni04F4" unicode="&#x4f4;" 
d="M86 414h78v-164q0 -19 7 -34t18 -27q12 -11 27 -18t34 -7h86v250h78v-414h-78v86h-86q-34 0 -64 12.5t-52.5 35t-35 52.5t-12.5 64v164zM336 500v164h78v-164h-78zM86 664h78v-164h-78v164z" />
    <glyph glyph-name="uni04F5" unicode="&#x4f5;" 
d="M86 414h78v-164q0 -19 7 -34t18 -27q12 -11 27 -18t34 -7h86v250h78v-414h-78v86h-86q-34 0 -64 12.5t-52.5 35t-35 52.5t-12.5 64v164zM336 500v164h78v-164h-78zM86 664h78v-164h-78v164z" />
    <glyph glyph-name="uni04F6" unicode="&#x4f6;" 
d="M86 0v664h328v-78h-250v-586h-78z" />
    <glyph glyph-name="uni04F7" unicode="&#x4f7;" 
d="M86 0v664h328v-78h-250v-586h-78z" />
    <glyph glyph-name="uni04F8" unicode="&#x4f8;" 
d="M74 86v429h67v-101q34 -1 62 -14.5t48.5 -35.5t31.5 -51.5t11 -62.5q0 -34 -12 -64t-33 -52.5t-50.5 -35t-64.5 -12.5h-60zM432 515v-429h-59v429h59zM141 336v-172h8q18 0 33.5 7t27.5 18.5t19 27t7 33.5t-7 33.5t-19 27t-27.5 18.5t-33.5 7h-8zM74 683h67v-78h-67v78z
M432 683v-78h-59v78h59z" />
    <glyph glyph-name="uni04F9" unicode="&#x4f9;" 
d="M74 86v429h67v-101q34 -1 62 -14.5t48.5 -35.5t31.5 -51.5t11 -62.5q0 -34 -12 -64t-33 -52.5t-50.5 -35t-64.5 -12.5h-60zM432 515v-429h-59v429h59zM141 336v-172h8q18 0 33.5 7t27.5 18.5t19 27t7 33.5t-7 33.5t-19 27t-27.5 18.5t-33.5 7h-8zM74 683h67v-78h-67v78z
M432 683v-78h-59v78h59z" />
    <glyph glyph-name="uni04FC" unicode="&#x4fc;" 
d="M86 664h78v-164q0 -19 7 -34t18 -27q12 -11 27 -18t34 -7t34 7t27 18q11 12 18 27t7 34v164h78v-164q0 -42 -14 -69t-43 -56q29 -29 43 -56t14 -69q0 -34 -12.5 -64t-35 -52.5t-52 -35t-64.5 -12.5v78q19 0 34 7t27 18q11 12 18 27t7 34t-7 34t-18 27q-12 11 -27 18
t-34 7t-34 -7t-27 -18q-11 -12 -18 -27t-7 -34v-164h-78v164q0 42 14 69t43 56q-29 29 -43 56t-14 69v164z" />
    <glyph glyph-name="uni04FD" unicode="&#x4fd;" 
d="M86 664h78v-164q0 -19 7 -34t18 -27q12 -11 27 -18t34 -7t34 7t27 18q11 12 18 27t7 34v164h78v-164q0 -42 -14 -69t-43 -56q29 -29 43 -56t14 -69q0 -34 -12.5 -64t-35 -52.5t-52 -35t-64.5 -12.5v78q19 0 34 7t27 18q11 12 18 27t7 34t-7 34t-18 27q-12 11 -27 18
t-34 7t-34 -7t-27 -18q-11 -12 -18 -27t-7 -34v-164h-78v164q0 42 14 69t43 56q-29 29 -43 56t-14 69v164z" />
    <glyph glyph-name="uni0510" unicode="&#x510;" 
d="M86 500q0 35 12.5 64.5t35 52t52.5 35t64 12.5q35 0 64.5 -12.5t52 -35t35 -52t12.5 -64.5h-78q0 19 -7 34t-18 27q-12 11 -27 18t-34 7t-34 -7t-27 -18q-11 -12 -18 -27t-7 -34t7 -34t18 -27q12 -11 27 -18t34 -7h164v-78h-164q-19 0 -34 -7t-27 -18q-11 -12 -18 -27
t-7 -34t7 -34t18 -27q12 -11 27 -18t34 -7t34 7t27 18q11 12 18 27t7 34h78q0 -34 -12.5 -64t-35 -52.5t-52 -35t-64.5 -12.5q-34 0 -64 12.5t-52.5 35t-35 52.5t-12.5 64q0 42 14 69t43 56q-29 29 -43 56t-14 69z" />
    <glyph glyph-name="uni0511" unicode="&#x511;" 
d="M86 500q0 35 12.5 64.5t35 52t52.5 35t64 12.5q35 0 64.5 -12.5t52 -35t35 -52t12.5 -64.5h-78q0 19 -7 34t-18 27q-12 11 -27 18t-34 7t-34 -7t-27 -18q-11 -12 -18 -27t-7 -34t7 -34t18 -27q12 -11 27 -18t34 -7h164v-78h-164q-19 0 -34 -7t-27 -18q-11 -12 -18 -27
t-7 -34t7 -34t18 -27q12 -11 27 -18t34 -7t34 7t27 18q11 12 18 27t7 34h78q0 -34 -12.5 -64t-35 -52.5t-52 -35t-64.5 -12.5q-34 0 -64 12.5t-52.5 35t-35 52.5t-12.5 64q0 42 14 69t43 56q-29 29 -43 56t-14 69z" />
    <glyph glyph-name="uni0512" unicode="&#x512;" 
d="M0 86v78q19 0 34 7t27 18q11 12 18 27t7 34v414h328v-414q0 -34 -12.5 -64t-35 -52.5t-52 -35t-64.5 -12.5v78q19 0 34 7t27 18q11 12 18 27t7 34v336h-172v-336q0 -34 -12.5 -64t-35 -52.5t-52 -35t-64.5 -12.5z" />
    <glyph glyph-name="uni0513" unicode="&#x513;" 
d="M0 86v78q19 0 34 7t27 18q11 12 18 27t7 34v414h328v-414q0 -34 -12.5 -64t-35 -52.5t-52 -35t-64.5 -12.5v78q19 0 34 7t27 18q11 12 18 27t7 34v336h-172v-336q0 -34 -12.5 -64t-35 -52.5t-52 -35t-64.5 -12.5z" />
    <glyph glyph-name="uni051C" unicode="&#x51c;" 
d="M155 86q-30 0 -52 11t-36 30t-20.5 45t-6.5 56v436h66v-414q0 -35 12.5 -60.5t47.5 -25.5t47.5 25.5t12.5 60.5v414h48v-414q0 -35 12.5 -60.5t47.5 -25.5t47.5 25.5t12.5 60.5v414h66v-436q0 -30 -6.5 -56t-20.5 -45t-36 -30t-52 -11q-38 0 -59.5 18.5t-35.5 50.5
q-13 -32 -35 -50.5t-60 -18.5z" />
    <glyph glyph-name="uni051D" unicode="&#x51d;" 
d="M155 86q-30 0 -52 11t-36 30t-20.5 45t-6.5 56v436h66v-414q0 -35 12.5 -60.5t47.5 -25.5t47.5 25.5t12.5 60.5v414h48v-414q0 -35 12.5 -60.5t47.5 -25.5t47.5 25.5t12.5 60.5v414h66v-436q0 -30 -6.5 -56t-20.5 -45t-36 -30t-52 -11q-38 0 -59.5 18.5t-35.5 50.5
q-13 -32 -35 -50.5t-60 -18.5z" />
    <glyph glyph-name="uni05BE" unicode="&#x5be;" 
d="M86 336v78h328v-78h-328z" />
    <glyph glyph-name="uni05C0" unicode="&#x5c0;" 
d="M289 664v-664h-78v664h78z" />
    <glyph glyph-name="uni05C3" unicode="&#x5c3;" 
d="M211 500h78v-164h-78v164zM211 250h78v-164h-78v164z" />
    <glyph glyph-name="uni05C6" unicode="&#x5c6;" 
d="M211 86v414q0 35 12.5 64.5t35 52t52.5 35t64 12.5v-78q-19 0 -34 -7t-27 -18q-11 -12 -18 -27t-7 -34v-336h86v-78h-164z" />
    <glyph glyph-name="uni05D0" unicode="&#x5d0;" 
d="M0 664q35 0 64.5 -12.5t52 -35t35 -52t12.5 -64.5q0 -19 7 -34t18 -27q12 -11 27 -18t34 -7t34 7t27 18q11 12 18 27t7 34v164h78v-164q0 -42 -14 -69t-43 -56q29 -29 43 -56t14 -69q0 -19 7 -34t18 -27q12 -11 27 -18t34 -7v-78q-34 0 -64 12.5t-52.5 35t-35 52.5
t-12.5 64q0 19 -7 34t-18 27q-12 11 -27 18t-34 7t-34 -7t-27 -18q-11 -12 -18 -27t-7 -34v-164h-78v164q0 42 14 69t43 56q-29 29 -43 56t-14 69q0 19 -7 34t-18 27q-12 11 -27 18t-34 7v78z" />
    <glyph glyph-name="uni05D1" unicode="&#x5d1;" 
d="M86 164h250v336q0 19 -7 34t-18 27q-12 11 -27 18t-34 7h-164v78h164q35 0 64.5 -12.5t52 -35t35 -52t12.5 -64.5v-336h86v-78h-414v78z" />
    <glyph glyph-name="uni05D2" unicode="&#x5d2;" 
d="M125 164q19 0 34 7t27 18q11 12 18 27t7 34v250q0 19 -7 34t-18 27q-12 11 -27 18t-34 7v78q35 0 64.5 -12.5t52 -35t35 -52t12.5 -64.5v-250q0 -19 7 -34t18 -27q12 -11 27 -18t34 -7v-78q-42 0 -69 14t-56 43q-29 -29 -56 -43t-69 -14v78z" />
    <glyph glyph-name="uni05D3" unicode="&#x5d3;" 
d="M86 586v78h414v-78h-86v-500h-78v500h-250z" />
    <glyph glyph-name="uni05D4" unicode="&#x5d4;" 
d="M86 664h164q35 0 64.5 -12.5t52 -35t35 -52t12.5 -64.5v-414h-78v414q0 19 -7 34t-18 27q-12 11 -27 18t-34 7h-164v78zM164 414v-328h-78v328h78z" />
    <glyph glyph-name="uni05D5" unicode="&#x5d5;" 
d="M125 664q35 0 64.5 -12.5t52 -35t35 -52t12.5 -64.5v-414h-78v414q0 19 -7 34t-18 27q-12 11 -27 18t-34 7v78z" />
    <glyph glyph-name="uni05D6" unicode="&#x5d6;" 
d="M211 86v414q0 42 14 69t43 56q-29 29 -43 56t-14 69h78q0 -19 7 -34t18 -27q12 -11 27 -18t34 -7v-78q-19 0 -34 -7t-27 -18q-11 -12 -18 -27t-7 -34v-414h-78z" />
    <glyph glyph-name="uni05D7" unicode="&#x5d7;" 
d="M86 86v578h164q35 0 64.5 -12.5t52 -35t35 -52t12.5 -64.5v-414h-78v414q0 19 -7 34t-18 27q-12 11 -27 18t-34 7h-86v-500h-78z" />
    <glyph glyph-name="uni05D8" unicode="&#x5d8;" 
d="M86 664h78v-414q0 -19 7 -34t18 -27q12 -11 27 -18t34 -7t34 7t27 18q11 12 18 27t7 34v250q0 19 -7 34t-18 27q-12 11 -27 18t-34 7v78q35 0 64.5 -12.5t52 -35t35 -52t12.5 -64.5v-250q0 -34 -12.5 -64t-35 -52.5t-52 -35t-64.5 -12.5q-34 0 -64 12.5t-52.5 35
t-35 52.5t-12.5 64v414z" />
    <glyph glyph-name="uni05D9" unicode="&#x5d9;" 
d="M125 664q35 0 64.5 -12.5t52 -35t35 -52t12.5 -64.5v-164h-78v164q0 19 -7 34t-18 27q-12 11 -27 18t-34 7v78z" />
    <glyph glyph-name="uni05DA" unicode="&#x5da;" 
d="M86 664h164q35 0 64.5 -12.5t52 -35t35 -52t12.5 -64.5v-500h-78v500q0 19 -7 34t-18 27q-12 11 -27 18t-34 7h-164v78z" />
    <glyph glyph-name="uni05DB" unicode="&#x5db;" 
d="M86 586v78h164q35 0 64.5 -12.5t52 -35t35 -52t12.5 -64.5v-250q0 -34 -12.5 -64t-35 -52.5t-52 -35t-64.5 -12.5h-164v78h164q19 0 34 7t27 18q11 12 18 27t7 34v250q0 19 -7 34t-18 27q-12 11 -27 18t-34 7h-164z" />
    <glyph glyph-name="uni05DC" unicode="&#x5dc;" 
d="M164 750v-86h250v-414q0 -34 -12.5 -64t-35 -52.5t-52 -35t-64.5 -12.5v78q19 0 34 7t27 18q11 12 18 27t7 34v336h-250v164h78z" />
    <glyph glyph-name="uni05DD" unicode="&#x5dd;" 
d="M86 86v578h164q35 0 64.5 -12.5t52 -35t35 -52t12.5 -64.5v-414h-328zM164 164h172v336q0 19 -7 34t-18 27q-12 11 -27 18t-34 7h-86v-422z" />
    <glyph glyph-name="uni05DE" unicode="&#x5de;" 
d="M0 664q42 0 69 -14t56 -43q29 29 56 43t69 14q35 0 64.5 -12.5t52 -35t35 -52t12.5 -64.5v-414h-164v78h86v336q0 19 -7 34t-18 27q-12 11 -27 18t-34 7t-34 -7t-27 -18q-11 -12 -18 -27t-7 -34v-414h-78v414q0 19 -7 34t-18 27q-12 11 -27 18t-34 7v78z" />
    <glyph glyph-name="uni05DF" unicode="&#x5df;" 
d="M125 664q35 0 64.5 -12.5t52 -35t35 -52t12.5 -64.5v-500h-78v500q0 19 -7 34t-18 27q-12 11 -27 18t-34 7v78z" />
    <glyph glyph-name="uni05E0" unicode="&#x5e0;" 
d="M125 164h86v336q0 19 -7 34t-18 27q-12 11 -27 18t-34 7v78q35 0 64.5 -12.5t52 -35t35 -52t12.5 -64.5v-414h-164v78z" />
    <glyph glyph-name="uni05E1" unicode="&#x5e1;" 
d="M0 586v78h250q35 0 64.5 -12.5t52 -35t35 -52t12.5 -64.5v-250q0 -34 -12.5 -64t-35 -52.5t-52 -35t-64.5 -12.5q-34 0 -64 12.5t-52.5 35t-35 52.5t-12.5 64v336h-86zM164 586v-336q0 -19 7 -34t18 -27q12 -11 27 -18t34 -7t34 7t27 18q11 12 18 27t7 34v250q0 19 -7 34
t-18 27q-12 11 -27 18t-34 7h-86z" />
    <glyph glyph-name="uni05E2" unicode="&#x5e2;" 
d="M250 164q19 0 34 7t27 18q11 12 18 27t7 34v414h78v-414q0 -34 -12.5 -64t-35 -52.5t-52 -35t-64.5 -12.5h-164v78h164zM86 664h78v-164q0 -19 7 -34t18 -27q12 -11 27 -18t34 -7v-78q-34 0 -64 12.5t-52.5 35t-35 52.5t-12.5 64v164z" />
    <glyph glyph-name="uni05E3" unicode="&#x5e3;" 
d="M86 664h164q35 0 64.5 -12.5t52 -35t35 -52t12.5 -64.5v-500h-78v500q0 19 -7 34t-18 27q-12 11 -27 18t-34 7h-86v-86q0 -19 7 -34t18 -27q12 -11 27 -18t34 -7v-78q-34 0 -64 12.5t-52.5 35t-35 52.5t-12.5 64v164z" />
    </font>
</defs>
</svg>
