<?xml version="1.0" standalone="no"?>
<!DOCTYPE svg PUBLIC "-//W3C//DTD SVG 1.1//EN" "http://www.w3.org/Graphics/SVG/1.1/DTD/svg11.dtd" >
<svg xmlns="http://www.w3.org/2000/svg" xmlns:xlink="http://www.w3.org/1999/xlink" version="1.1">
<metadata>
Created by FontForge 20170731 at Fri Mar 20 20:29:12 2020
 By Aleksey,,,
Copyright 2020 Mans Greback AB
</metadata>
<defs>
<font id="SicretMonoPERSONALExtLt" horiz-adv-x="500" >
  <font-face 
    font-family="Sicret Mono PERSONAL ExtLt"
    font-weight="250"
    font-stretch="normal"
    units-per-em="1000"
    panose-1="0 0 0 0 0 0 0 0 0 0"
    ascent="800"
    descent="-200"
    x-height="641"
    cap-height="641"
    bbox="-139 0 579 750"
    underline-thickness="32"
    underline-position="52"
    unicode-range="U+0002-F8FF"
  />
<missing-glyph 
 />
    <glyph glyph-name=".notdef" 
 />
    <glyph glyph-name="uni0000" 
 />
    <glyph glyph-name="uni0000" 
 />
    <glyph glyph-name="uni000D" unicode="&#xd;" 
 />
    <glyph glyph-name="uni0002" 
d="M109 500q0 30 11 55.5t30 44.5t44.5 30t55.5 11t55.5 -11t44.5 -30t30 -44.5t11 -55.5v-250q0 -30 -11 -55.5t-30 -44.5t-44.5 -30t-55.5 -11t-55.5 11t-44.5 30t-30 44.5t-11 55.5v250zM141 250q0 -22 8.5 -42t23.5 -35t35 -23.5t42 -8.5q23 0 42.5 8.5t34.5 23.5
t23.5 35t8.5 42v250q0 23 -8.5 42.5t-23.5 34.5t-34.5 23.5t-42.5 8.5q-22 0 -42 -8.5t-35 -23.5t-23.5 -34.5t-8.5 -42.5v-250z" />
    <glyph glyph-name="uni0009" unicode="&#x9;" 
 />
    <glyph glyph-name="uni000A" unicode="&#xa;" 
 />
    <glyph glyph-name="space" unicode=" " 
 />
    <glyph glyph-name="exclam" unicode="!" 
d="M234 641h32v-282h-32v282zM266 250v-141h-32v141h32z" />
    <glyph glyph-name="quotedbl" unicode="&#x22;" 
d="M359 641h32v-141h-32v141zM141 641v-141h-32v141h32z" />
    <glyph glyph-name="numbersign" unicode="#" 
d="M109 750h32v-109h218v109h32v-500h-32v109h-218v-109h-32v500zM141 391h218v218h-218v-218z" />
    <glyph glyph-name="dollar" unicode="$" 
d="M109 500q0 30 11 55.5t30 44.5t44.5 30t55.5 11q23 0 42.5 8.5t34.5 23.5t23.5 35t8.5 42h32q0 -32 -11 -57t-30 -43q-7 -8 -15.5 -14t-17.5 -11q9 -5 17.5 -11t15.5 -14q19 -18 30 -43t11 -57h-32q0 23 -8.5 42.5t-23.5 34.5t-34.5 23.5t-42.5 8.5q-22 0 -42 -8.5
t-35 -23.5t-23.5 -34.5t-8.5 -42.5q0 -22 8.5 -42t23.5 -35t35 -23.5t42 -8.5q30 0 55.5 -11t44.5 -30t30 -44.5t11 -55.5t-11 -55.5t-30 -44.5t-44.5 -30t-55.5 -11q-22 0 -42 -8.5t-35 -23.5t-23.5 -34.5t-8.5 -42.5h-32q0 32 11 57t30 43q7 8 15.5 14t17.5 11
q-9 5 -17.5 11t-15.5 14q-19 18 -30 43t-11 57h32q0 -22 8.5 -42t23.5 -35t35 -23.5t42 -8.5q23 0 42.5 8.5t34.5 23.5t23.5 35t8.5 42q0 23 -8.5 42.5t-23.5 34.5t-34.5 23.5t-42.5 8.5q-30 0 -55.5 11t-44.5 30t-30 44.5t-11 55.5z" />
    <glyph glyph-name="percent" unicode="%" 
d="M109 250q0 28 8.5 50.5t23.5 39.5q19 26 48.5 38.5t60.5 12.5q23 0 42.5 8.5t34.5 23.5t23.5 35t8.5 42v141h32v-141q0 -28 -8.5 -50.5t-23.5 -39.5q-19 -26 -48.5 -38.5t-60.5 -12.5q-22 0 -42 -8.5t-35 -23.5t-23.5 -34.5t-8.5 -42.5v-141h-32v141zM391 109h-32v141h32
v-141zM109 641h32v-141h-32v141z" />
    <glyph glyph-name="ampersand" unicode="&#x26;" 
d="M109 250q0 32 11 57t30 43q7 8 15.5 14t17.5 11q-9 5 -17.5 11t-15.5 14q-19 18 -30 43t-11 57q0 30 11 55.5t30 44.5t44.5 30t55.5 11t55.5 -11t44.5 -30t30 -44.5t11 -55.5h-32q0 23 -8.5 42.5t-23.5 34.5t-34.5 23.5t-42.5 8.5q-22 0 -42 -8.5t-35 -23.5t-23.5 -34.5
t-8.5 -42.5q0 -22 8.5 -42t23.5 -35t35 -23.5t42 -8.5h250v-32h-109v-109q0 -30 -11 -55.5t-30 -44.5t-44.5 -30t-55.5 -11t-55.5 11t-44.5 30t-30 44.5t-11 55.5zM141 250q0 -22 8.5 -42t23.5 -35t35 -23.5t42 -8.5q23 0 42.5 8.5t34.5 23.5t23.5 35t8.5 42v109h-109
q-22 0 -42 -8.5t-35 -23.5t-23.5 -34.5t-8.5 -42.5z" />
    <glyph glyph-name="quotesingle" unicode="'" 
d="M234 500v141h32v-141h-32z" />
    <glyph glyph-name="parenleft" unicode="(" 
d="M234 500q0 30 11 55.5t30 44.5t44.5 30t55.5 11v-32q-22 0 -42 -8.5t-35 -23.5t-23.5 -34.5t-8.5 -42.5v-250q0 -22 8.5 -42t23.5 -35t35 -23.5t42 -8.5v-32q-30 0 -55.5 11t-44.5 30t-30 44.5t-11 55.5v250z" />
    <glyph glyph-name="parenright" unicode=")" 
d="M125 141q23 0 42.5 8.5t34.5 23.5t23.5 35t8.5 42v250q0 23 -8.5 42.5t-23.5 34.5t-34.5 23.5t-42.5 8.5v32q30 0 55.5 -11t44.5 -30t30 -44.5t11 -55.5v-250q0 -30 -11 -55.5t-30 -44.5t-44.5 -30t-55.5 -11v32z" />
    <glyph glyph-name="asterisk" unicode="*" 
d="M109 750h32q0 -22 8.5 -42t23.5 -35t35 -23.5t42 -8.5q23 0 42.5 8.5t34.5 23.5t23.5 35t8.5 42h32q0 -32 -11 -57t-30 -43q-7 -8 -15.5 -14t-17.5 -11q9 -5 17.5 -11t15.5 -14q19 -18 30 -43t11 -57h-32q0 23 -8.5 42.5t-23.5 34.5t-34.5 23.5t-42.5 8.5q-22 0 -42 -8.5
t-35 -23.5t-23.5 -34.5t-8.5 -42.5h-32q0 32 11 57t30 43q7 8 15.5 14t17.5 11q-9 5 -17.5 11t-15.5 14q-19 18 -30 43t-11 57z" />
    <glyph glyph-name="plus" unicode="+" 
d="M266 359v-118h-32v118h-118v32h118v118h32v-118h118v-32h-118z" />
    <glyph glyph-name="comma" unicode="," 
d="M266 260v-260h-32v260h32z" />
    <glyph glyph-name="hyphen" unicode="-" 
d="M125 391h250v-32h-250v32z" />
    <glyph glyph-name="period" unicode="." 
d="M276 161v-52h-52v52h52z" />
    <glyph glyph-name="slash" unicode="/" 
d="M109 250q0 30 11 55.5t30 44.5t44.5 30t55.5 11q23 0 42.5 8.5t34.5 23.5t23.5 35t8.5 42v141h32v-141q0 -30 -11 -55.5t-30 -44.5t-44.5 -30t-55.5 -11q-22 0 -42 -8.5t-35 -23.5t-23.5 -34.5t-8.5 -42.5v-141h-32v141z" />
    <glyph glyph-name="zero" unicode="0" 
d="M109 500q0 30 11 55.5t30 44.5t44.5 30t55.5 11t55.5 -11t44.5 -30t30 -44.5t11 -55.5v-250q0 -30 -11 -55.5t-30 -44.5t-44.5 -30t-55.5 -11t-55.5 11t-44.5 30t-30 44.5t-11 55.5v250zM141 250q0 -22 8.5 -42t23.5 -35t35 -23.5t42 -8.5q23 0 42.5 8.5t34.5 23.5
t23.5 35t8.5 42v250q0 23 -8.5 42.5t-23.5 34.5t-34.5 23.5t-42.5 8.5q-22 0 -42 -8.5t-35 -23.5t-23.5 -34.5t-8.5 -42.5v-250z" />
    <glyph glyph-name="one" unicode="1" 
d="M116 141h118v468h-118v32h150v-500h118v-32h-268v32z" />
    <glyph glyph-name="two" unicode="2" 
d="M109 250q0 30 11 55.5t30 44.5t44.5 30t55.5 11q23 0 42.5 8.5t34.5 23.5t23.5 35t8.5 42q0 23 -8.5 42.5t-23.5 34.5t-34.5 23.5t-42.5 8.5q-22 0 -42 -8.5t-35 -23.5t-23.5 -34.5t-8.5 -42.5h-32q0 30 11 55.5t30 44.5t44.5 30t55.5 11t55.5 -11t44.5 -30t30 -44.5
t11 -55.5t-11 -55.5t-30 -44.5t-44.5 -30t-55.5 -11q-22 0 -42 -8.5t-35 -23.5t-23.5 -34.5t-8.5 -42.5v-109h250v-32h-282v141z" />
    <glyph glyph-name="three" unicode="3" 
d="M141 250q0 -22 8.5 -42t23.5 -35t35 -23.5t42 -8.5q23 0 42.5 8.5t34.5 23.5t23.5 35t8.5 42q0 23 -8.5 42.5t-23.5 34.5t-34.5 23.5t-42.5 8.5v32q23 0 42.5 8.5t34.5 23.5t23.5 35t8.5 42q0 23 -8.5 42.5t-23.5 34.5t-34.5 23.5t-42.5 8.5q-22 0 -42 -8.5t-35 -23.5
t-23.5 -34.5t-8.5 -42.5h-32q0 30 11 55.5t30 44.5t44.5 30t55.5 11t55.5 -11t44.5 -30t30 -44.5t11 -55.5q0 -32 -11 -57t-30 -43q-7 -8 -15.5 -14t-17.5 -11q9 -5 17.5 -11t15.5 -14q19 -18 30 -43t11 -57q0 -30 -11 -55.5t-30 -44.5t-44.5 -30t-55.5 -11t-55.5 11
t-44.5 30t-30 44.5t-11 55.5h32z" />
    <glyph glyph-name="four" unicode="4" 
d="M109 359v282h32v-250h218v250h32v-532h-32v250h-250z" />
    <glyph glyph-name="five" unicode="5" 
d="M141 250q0 -22 8.5 -42t23.5 -35t35 -23.5t42 -8.5q23 0 42.5 8.5t34.5 23.5t23.5 35t8.5 42q0 23 -8.5 42.5t-23.5 34.5t-34.5 23.5t-42.5 8.5h-141v282h282v-32h-250v-218h109q30 0 55.5 -11t44.5 -30t30 -44.5t11 -55.5t-11 -55.5t-30 -44.5t-44.5 -30t-55.5 -11
t-55.5 11t-44.5 30t-30 44.5t-11 55.5h32z" />
    <glyph glyph-name="six" unicode="6" 
d="M250 391q30 0 55.5 -11t44.5 -30t30 -44.5t11 -55.5t-11 -55.5t-30 -44.5t-44.5 -30t-55.5 -11t-55.5 11t-44.5 30t-30 44.5t-11 55.5v250q0 30 11 55.5t30 44.5t44.5 30t55.5 11t55.5 -11t44.5 -30t30 -44.5t11 -55.5h-32q0 23 -8.5 42.5t-23.5 34.5t-34.5 23.5
t-42.5 8.5q-22 0 -42 -8.5t-35 -23.5t-23.5 -34.5t-8.5 -42.5v-109h109zM141 359v-109q0 -22 8.5 -42t23.5 -35t35 -23.5t42 -8.5q23 0 42.5 8.5t34.5 23.5t23.5 35t8.5 42q0 23 -8.5 42.5t-23.5 34.5t-34.5 23.5t-42.5 8.5h-109z" />
    <glyph glyph-name="seven" unicode="7" 
d="M109 609v32h282v-532h-32v500h-250z" />
    <glyph glyph-name="eight" unicode="8" 
d="M150 400q-19 18 -30 43t-11 57q0 30 11 55.5t30 44.5t44.5 30t55.5 11t55.5 -11t44.5 -30t30 -44.5t11 -55.5q0 -32 -11 -57t-30 -43q-7 -8 -15.5 -14t-17.5 -11q9 -5 17.5 -11t15.5 -14q19 -18 30 -43t11 -57q0 -30 -11 -55.5t-30 -44.5t-44.5 -30t-55.5 -11t-55.5 11
t-44.5 30t-30 44.5t-11 55.5q0 32 11 57t30 43q7 8 15.5 14t17.5 11q-9 5 -17.5 11t-15.5 14zM141 250q0 -22 8.5 -42t23.5 -35t35 -23.5t42 -8.5q23 0 42.5 8.5t34.5 23.5t23.5 35t8.5 42q0 23 -8.5 42.5t-23.5 34.5t-34.5 23.5t-42.5 8.5q-22 0 -42 -8.5t-35 -23.5
t-23.5 -34.5t-8.5 -42.5zM141 500q0 -22 8.5 -42t23.5 -35t35 -23.5t42 -8.5q23 0 42.5 8.5t34.5 23.5t23.5 35t8.5 42q0 23 -8.5 42.5t-23.5 34.5t-34.5 23.5t-42.5 8.5q-22 0 -42 -8.5t-35 -23.5t-23.5 -34.5t-8.5 -42.5z" />
    <glyph glyph-name="nine" unicode="9" 
d="M141 250q0 -22 8.5 -42t23.5 -35t35 -23.5t42 -8.5q23 0 42.5 8.5t34.5 23.5t23.5 35t8.5 42v109h-109q-30 0 -55.5 11t-44.5 30t-30 44.5t-11 55.5t11 55.5t30 44.5t44.5 30t55.5 11t55.5 -11t44.5 -30t30 -44.5t11 -55.5v-250q0 -30 -11 -55.5t-30 -44.5t-44.5 -30
t-55.5 -11t-55.5 11t-44.5 30t-30 44.5t-11 55.5h32zM141 500q0 -22 8.5 -42t23.5 -35t35 -23.5t42 -8.5h109v109q0 23 -8.5 42.5t-23.5 34.5t-34.5 23.5t-42.5 8.5q-22 0 -42 -8.5t-35 -23.5t-23.5 -34.5t-8.5 -42.5z" />
    <glyph glyph-name="colon" unicode=":" 
d="M234 500h32v-141h-32v141zM234 250h32v-141h-32v141z" />
    <glyph glyph-name="semicolon" unicode=";" 
d="M234 250h32v-250h-32v250zM234 500h32v-141h-32v141z" />
    <glyph glyph-name="less" unicode="&#x3c;" 
d="M125 359v32q23 0 42.5 8.5t34.5 23.5t23.5 35t8.5 42h32q0 -32 -11 -57t-30 -43q-7 -8 -15.5 -14t-17.5 -11q9 -5 17.5 -11t15.5 -14q19 -18 30 -43t11 -57h-32q0 23 -8.5 42.5t-23.5 34.5t-34.5 23.5t-42.5 8.5z" />
    <glyph glyph-name="equal" unicode="=" 
d="M119 520h262v-32h-262v32zM381 270v-32h-262v32h262z" />
    <glyph glyph-name="greater" unicode="&#x3e;" 
d="M266 500q0 -22 8.5 -42t23.5 -35t35 -23.5t42 -8.5v-32q-22 0 -42 -8.5t-35 -23.5t-23.5 -34.5t-8.5 -42.5h-32q0 32 11 57t30 43q7 8 15.5 14t17.5 11q-9 5 -17.5 11t-15.5 14q-19 18 -30 43t-11 57h32z" />
    <glyph glyph-name="question" unicode="?" 
d="M109 250q0 30 11 55.5t30 44.5t44.5 30t55.5 11q23 0 42.5 8.5t34.5 23.5t23.5 35t8.5 42q0 23 -8.5 42.5t-23.5 34.5t-34.5 23.5t-42.5 8.5q-22 0 -42 -8.5t-35 -23.5t-23.5 -34.5t-8.5 -42.5h-32q0 30 11 55.5t30 44.5t44.5 30t55.5 11t55.5 -11t44.5 -30t30 -44.5
t11 -55.5t-11 -55.5t-30 -44.5t-44.5 -30t-55.5 -11q-22 0 -42 -8.5t-35 -23.5t-23.5 -34.5t-8.5 -42.5h-32zM141 141v-141h-32v141h32z" />
    <glyph glyph-name="at" unicode="@" 
d="M109 500q0 30 11 55.5t30 44.5t44.5 30t55.5 11t55.5 -11t44.5 -30t30 -44.5t11 -55.5v-250q0 -30 -11 -55.5t-30 -44.5t-44.5 -30t-55.5 -11t-55.5 11t-44.5 30t-30 44.5t-11 55.5t11 55.5t30 44.5t44.5 30t55.5 11h109v109q0 23 -8.5 42.5t-23.5 34.5t-34.5 23.5
t-42.5 8.5q-22 0 -42 -8.5t-35 -23.5t-23.5 -34.5t-8.5 -42.5h-32zM141 250q0 -22 8.5 -42t23.5 -35t35 -23.5t42 -8.5q23 0 42.5 8.5t34.5 23.5t23.5 35t8.5 42v109h-109q-22 0 -42 -8.5t-35 -23.5t-23.5 -34.5t-8.5 -42.5z" />
    <glyph glyph-name="A" unicode="A" 
d="M141 109h-32v391q0 30 11 55.5t30 44.5t44.5 30t55.5 11t55.5 -11t44.5 -30t30 -44.5t11 -55.5v-391h-32v250h-218v-250zM359 391v109q0 23 -8.5 42.5t-23.5 34.5t-34.5 23.5t-42.5 8.5q-22 0 -42 -8.5t-35 -23.5t-23.5 -34.5t-8.5 -42.5v-109h218z" />
    <glyph glyph-name="B" unicode="B" 
d="M109 109v532h141q30 0 55.5 -11t44.5 -30t30 -44.5t11 -55.5q0 -32 -11 -57t-30 -43q-7 -8 -15.5 -14t-17.5 -11q9 -5 17.5 -11t15.5 -14q19 -18 30 -43t11 -57q0 -30 -11 -55.5t-30 -44.5t-44.5 -30t-55.5 -11h-141zM250 391q23 0 42.5 8.5t34.5 23.5t23.5 35t8.5 42
q0 23 -8.5 42.5t-23.5 34.5t-34.5 23.5t-42.5 8.5h-109v-218h109zM141 359v-218h109q23 0 42.5 8.5t34.5 23.5t23.5 35t8.5 42q0 23 -8.5 42.5t-23.5 34.5t-34.5 23.5t-42.5 8.5h-109z" />
    <glyph glyph-name="C" unicode="C" 
d="M109 500q0 30 11 55.5t30 44.5t44.5 30t55.5 11t55.5 -11t44.5 -30t30 -44.5t11 -55.5h-32q0 23 -8.5 42.5t-23.5 34.5t-34.5 23.5t-42.5 8.5q-22 0 -42 -8.5t-35 -23.5t-23.5 -34.5t-8.5 -42.5v-250q0 -22 8.5 -42t23.5 -35t35 -23.5t42 -8.5q23 0 42.5 8.5t34.5 23.5
t23.5 35t8.5 42h32q0 -30 -11 -55.5t-30 -44.5t-44.5 -30t-55.5 -11t-55.5 11t-44.5 30t-30 44.5t-11 55.5v250z" />
    <glyph glyph-name="D" unicode="D" 
d="M250 641q30 0 55.5 -11t44.5 -30t30 -44.5t11 -55.5v-250q0 -30 -11 -55.5t-30 -44.5t-44.5 -30t-55.5 -11h-141v532h141zM141 609v-468h109q23 0 42.5 8.5t34.5 23.5t23.5 35t8.5 42v250q0 23 -8.5 42.5t-23.5 34.5t-34.5 23.5t-42.5 8.5h-109z" />
    <glyph glyph-name="E" unicode="E" 
d="M109 641h282v-32h-250v-218h250v-32h-250v-218h250v-32h-282v532z" />
    <glyph glyph-name="F" unicode="F" 
d="M109 109v532h282v-32h-250v-218h250v-32h-250v-250h-32z" />
    <glyph glyph-name="G" unicode="G" 
d="M109 500q0 30 11 55.5t30 44.5t44.5 30t55.5 11t55.5 -11t44.5 -30t30 -44.5t11 -55.5h-32q0 23 -8.5 42.5t-23.5 34.5t-34.5 23.5t-42.5 8.5q-22 0 -42 -8.5t-35 -23.5t-23.5 -34.5t-8.5 -42.5v-250q0 -22 8.5 -42t23.5 -35t35 -23.5t42 -8.5q23 0 42.5 8.5t34.5 23.5
t23.5 35t8.5 42v109h-109v32h141v-141q0 -30 -11 -55.5t-30 -44.5t-44.5 -30t-55.5 -11t-55.5 11t-44.5 30t-30 44.5t-11 55.5v250z" />
    <glyph glyph-name="H" unicode="H" 
d="M141 641v-250h218v250h32v-532h-32v250h-218v-250h-32v532h32z" />
    <glyph glyph-name="I" unicode="I" 
d="M118 109v32h116v468h-116v32h265v-32h-117v-468h117v-32h-265z" />
    <glyph glyph-name="J" unicode="J" 
d="M109 250h32q0 -22 8.5 -42t23.5 -35t35 -23.5t42 -8.5q23 0 42.5 8.5t34.5 23.5t23.5 35t8.5 42v359h-118v32h150v-391q0 -30 -11 -55.5t-30 -44.5t-44.5 -30t-55.5 -11t-55.5 11t-44.5 30t-30 44.5t-11 55.5z" />
    <glyph glyph-name="K" unicode="K" 
d="M141 641v-250h109q23 0 42.5 8.5t34.5 23.5t23.5 35t8.5 42v141h32v-141q0 -28 -8.5 -50.5t-23.5 -39.5q-3 -4 -9 -10q-7 -8 -15.5 -14t-17.5 -11q9 -5 17.5 -11t15.5 -14q6 -6 9 -10q15 -17 23.5 -39.5t8.5 -50.5v-141h-32v141q0 23 -8.5 42.5t-23.5 34.5t-34.5 23.5
t-42.5 8.5h-109v-250h-32v532h32z" />
    <glyph glyph-name="L" unicode="L" 
d="M109 641h32v-500h250v-32h-282v532z" />
    <glyph glyph-name="M" unicode="M" 
d="M50 508q0 28 6 52.5t18.5 42.5t32.5 28t48 10q42 0 64.5 -22.5t30.5 -59.5q8 38 30.5 60t64.5 22q28 0 48 -10t32.5 -28t18.5 -42.5t6 -52.5v-399h-29v391q0 23 -4 42.5t-13 34.5t-24.5 23.5t-38.5 8.5q-45 0 -62.5 -32t-17.5 -77v-391h-22v391q0 45 -17.5 77t-62.5 32
q-23 0 -38.5 -8.5t-24.5 -23.5t-13 -34.5t-4 -42.5v-391h-29v399z" />
    <glyph glyph-name="N" unicode="N" 
d="M109 109v532h141q30 0 55.5 -11t44.5 -30t30 -44.5t11 -55.5v-391h-32v391q0 23 -8.5 42.5t-23.5 34.5t-34.5 23.5t-42.5 8.5h-109v-500h-32z" />
    <glyph glyph-name="O" unicode="O" 
d="M109 500q0 30 11 55.5t30 44.5t44.5 30t55.5 11t55.5 -11t44.5 -30t30 -44.5t11 -55.5v-250q0 -30 -11 -55.5t-30 -44.5t-44.5 -30t-55.5 -11t-55.5 11t-44.5 30t-30 44.5t-11 55.5v250zM141 250q0 -22 8.5 -42t23.5 -35t35 -23.5t42 -8.5q23 0 42.5 8.5t34.5 23.5
t23.5 35t8.5 42v250q0 23 -8.5 42.5t-23.5 34.5t-34.5 23.5t-42.5 8.5q-22 0 -42 -8.5t-35 -23.5t-23.5 -34.5t-8.5 -42.5v-250z" />
    <glyph glyph-name="P" unicode="P" 
d="M109 109v532h141q30 0 55.5 -11t44.5 -30t30 -44.5t11 -55.5t-11 -55.5t-30 -44.5t-44.5 -30t-55.5 -11h-109v-250h-32zM250 391q23 0 42.5 8.5t34.5 23.5t23.5 35t8.5 42q0 23 -8.5 42.5t-23.5 34.5t-34.5 23.5t-42.5 8.5h-109v-218h109z" />
    <glyph glyph-name="Q" unicode="Q" 
d="M109 500q0 30 11 55.5t30 44.5t44.5 30t55.5 11t55.5 -11t44.5 -30t30 -44.5t11 -55.5v-250q0 -32 -11 -57t-30 -43q-7 -8 -15.5 -14t-17.5 -11q9 -5 17.5 -11t15.5 -14q19 -18 30 -43t11 -57h-32q0 23 -8.5 42.5t-23.5 34.5t-34.5 23.5t-42.5 8.5q-30 0 -55.5 11
t-44.5 30t-30 44.5t-11 55.5v250zM141 250q0 -22 8.5 -42t23.5 -35t35 -23.5t42 -8.5q23 0 42.5 8.5t34.5 23.5t23.5 35t8.5 42v250q0 23 -8.5 42.5t-23.5 34.5t-34.5 23.5t-42.5 8.5q-22 0 -42 -8.5t-35 -23.5t-23.5 -34.5t-8.5 -42.5v-250z" />
    <glyph glyph-name="R" unicode="R" 
d="M109 109v532h141q30 0 55.5 -11t44.5 -30t30 -44.5t11 -55.5q0 -32 -11 -57t-30 -43q-7 -8 -15.5 -14t-17.5 -11q9 -5 17.5 -11t15.5 -14q19 -18 30 -43t11 -57v-141h-32v141q0 23 -8.5 42.5t-23.5 34.5t-34.5 23.5t-42.5 8.5h-109v-250h-32zM250 391q23 0 42.5 8.5
t34.5 23.5t23.5 35t8.5 42q0 23 -8.5 42.5t-23.5 34.5t-34.5 23.5t-42.5 8.5h-109v-218h109z" />
    <glyph glyph-name="S" unicode="S" 
d="M109 500q0 30 11 55.5t30 44.5t44.5 30t55.5 11t55.5 -11t44.5 -30t30 -44.5t11 -55.5h-32q0 23 -8.5 42.5t-23.5 34.5t-34.5 23.5t-42.5 8.5q-22 0 -42 -8.5t-35 -23.5t-23.5 -34.5t-8.5 -42.5q0 -22 8.5 -42t23.5 -35t35 -23.5t42 -8.5q30 0 55.5 -11t44.5 -30
t30 -44.5t11 -55.5t-11 -55.5t-30 -44.5t-44.5 -30t-55.5 -11t-55.5 11t-44.5 30t-30 44.5t-11 55.5h32q0 -22 8.5 -42t23.5 -35t35 -23.5t42 -8.5q23 0 42.5 8.5t34.5 23.5t23.5 35t8.5 42q0 23 -8.5 42.5t-23.5 34.5t-34.5 23.5t-42.5 8.5q-30 0 -55.5 11t-44.5 30
t-30 44.5t-11 55.5z" />
    <glyph glyph-name="T" unicode="T" 
d="M113 641h275v-32h-122v-500h-32v500h-121v32z" />
    <glyph glyph-name="U" unicode="U" 
d="M141 641v-391q0 -22 8.5 -42t23.5 -35t35 -23.5t42 -8.5q23 0 42.5 8.5t34.5 23.5t23.5 35t8.5 42v391h32v-391q0 -30 -11 -55.5t-30 -44.5t-44.5 -30t-55.5 -11t-55.5 11t-44.5 30t-30 44.5t-11 55.5v391h32z" />
    <glyph glyph-name="V" unicode="V" 
d="M141 641v-500h109q23 0 42.5 8.5t34.5 23.5t23.5 35t8.5 42v391h32v-391q0 -30 -11 -55.5t-30 -44.5t-44.5 -30t-55.5 -11h-141v532h32z" />
    <glyph glyph-name="W" unicode="W" 
d="M155 109q-28 0 -48 10.5t-32.5 28.5t-18.5 42.5t-6 52.5v398h29v-391q0 -22 4 -42t13 -35t24.5 -23.5t38.5 -8.5q45 0 62.5 32t17.5 77v391h22v-391q0 -45 17.5 -77t62.5 -32q23 0 38.5 8.5t24.5 23.5t13 35t4 42v391h29v-398q0 -28 -6 -52.5t-18.5 -42.5t-32.5 -28.5
t-48 -10.5q-42 0 -64.5 22.5t-30.5 59.5q-8 -38 -30.5 -60t-64.5 -22z" />
    <glyph glyph-name="X" unicode="X" 
d="M109 641h32v-141q0 -22 8.5 -42t23.5 -35t35 -23.5t42 -8.5q23 0 42.5 8.5t34.5 23.5t23.5 35t8.5 42v141h32v-141q0 -28 -8.5 -50.5t-23.5 -39.5q-3 -4 -9 -10q-7 -8 -15.5 -14t-17.5 -11q9 -5 17.5 -11t15.5 -14q6 -6 9 -10q15 -17 23.5 -39.5t8.5 -50.5v-141h-32v141
q0 23 -8.5 42.5t-23.5 34.5t-34.5 23.5t-42.5 8.5q-22 0 -42 -8.5t-35 -23.5t-23.5 -34.5t-8.5 -42.5v-141h-32v141q0 28 8.5 50.5t23.5 39.5q3 4 9 10q7 8 15.5 14t17.5 11q-9 5 -17.5 11t-15.5 14q-6 6 -9 10q-15 17 -23.5 39.5t-8.5 50.5v141z" />
    <glyph glyph-name="Y" unicode="Y" 
d="M141 641v-141q0 -22 8.5 -42t23.5 -35t35 -23.5t42 -8.5h109v250h32v-532h-32v250h-109q-30 0 -55.5 11t-44.5 30t-30 44.5t-11 55.5v141h32z" />
    <glyph glyph-name="Z" unicode="Z" 
d="M109 641h282v-141q0 -30 -11 -55.5t-30 -44.5t-44.5 -30t-55.5 -11q-22 0 -42 -8.5t-35 -23.5t-23.5 -34.5t-8.5 -42.5v-109h250v-32h-282v141q0 30 11 55.5t30 44.5t44.5 30t55.5 11q23 0 42.5 8.5t34.5 23.5t23.5 35t8.5 42v109h-250v32z" />
    <glyph glyph-name="bracketleft" unicode="[" 
d="M234 641h141v-32h-109v-468h109v-32h-141v532z" />
    <glyph glyph-name="backslash" unicode="\" 
d="M109 500v141h32v-141q0 -22 8.5 -42t23.5 -35t35 -23.5t42 -8.5q30 0 55.5 -11t44.5 -30t30 -44.5t11 -55.5v-141h-32v141q0 23 -8.5 42.5t-23.5 34.5t-34.5 23.5t-42.5 8.5q-30 0 -55.5 11t-44.5 30t-30 44.5t-11 55.5z" />
    <glyph glyph-name="bracketright" unicode="]" 
d="M125 141h109v468h-109v32h141v-532h-141v32z" />
    <glyph glyph-name="asciicircum" unicode="^" 
d="M125 641q23 0 42.5 8.5t34.5 23.5t23.5 35t8.5 42h32q0 -22 8.5 -42t23.5 -35t35 -23.5t42 -8.5v-32q-32 0 -57 11t-43 30q-8 7 -14 15.5t-11 17.5q-5 -9 -11 -17.5t-14 -15.5q-18 -19 -43 -30t-57 -11v32z" />
    <glyph glyph-name="underscore" unicode="_" 
d="M125 141h250v-32h-250v32z" />
    <glyph glyph-name="grave" unicode="`" 
d="M109 750h32q0 -22 8.5 -42t23.5 -35t35 -23.5t42 -8.5v-32q-30 0 -55.5 11t-44.5 30t-30 44.5t-11 55.5z" />
    <glyph glyph-name="a" unicode="a" 
d="M141 109h-32v391q0 30 11 55.5t30 44.5t44.5 30t55.5 11t55.5 -11t44.5 -30t30 -44.5t11 -55.5v-391h-32v250h-218v-250zM359 391v109q0 23 -8.5 42.5t-23.5 34.5t-34.5 23.5t-42.5 8.5q-22 0 -42 -8.5t-35 -23.5t-23.5 -34.5t-8.5 -42.5v-109h218z" />
    <glyph glyph-name="b" unicode="b" 
d="M109 109v532h141q30 0 55.5 -11t44.5 -30t30 -44.5t11 -55.5q0 -32 -11 -57t-30 -43q-7 -8 -15.5 -14t-17.5 -11q9 -5 17.5 -11t15.5 -14q19 -18 30 -43t11 -57q0 -30 -11 -55.5t-30 -44.5t-44.5 -30t-55.5 -11h-141zM250 391q23 0 42.5 8.5t34.5 23.5t23.5 35t8.5 42
q0 23 -8.5 42.5t-23.5 34.5t-34.5 23.5t-42.5 8.5h-109v-218h109zM141 359v-218h109q23 0 42.5 8.5t34.5 23.5t23.5 35t8.5 42q0 23 -8.5 42.5t-23.5 34.5t-34.5 23.5t-42.5 8.5h-109z" />
    <glyph glyph-name="c" unicode="c" 
d="M109 500q0 30 11 55.5t30 44.5t44.5 30t55.5 11t55.5 -11t44.5 -30t30 -44.5t11 -55.5h-32q0 23 -8.5 42.5t-23.5 34.5t-34.5 23.5t-42.5 8.5q-22 0 -42 -8.5t-35 -23.5t-23.5 -34.5t-8.5 -42.5v-250q0 -22 8.5 -42t23.5 -35t35 -23.5t42 -8.5q23 0 42.5 8.5t34.5 23.5
t23.5 35t8.5 42h32q0 -30 -11 -55.5t-30 -44.5t-44.5 -30t-55.5 -11t-55.5 11t-44.5 30t-30 44.5t-11 55.5v250z" />
    <glyph glyph-name="d" unicode="d" 
d="M250 641q30 0 55.5 -11t44.5 -30t30 -44.5t11 -55.5v-250q0 -30 -11 -55.5t-30 -44.5t-44.5 -30t-55.5 -11h-141v532h141zM141 609v-468h109q23 0 42.5 8.5t34.5 23.5t23.5 35t8.5 42v250q0 23 -8.5 42.5t-23.5 34.5t-34.5 23.5t-42.5 8.5h-109z" />
    <glyph glyph-name="e" unicode="e" 
d="M109 641h282v-32h-250v-218h250v-32h-250v-218h250v-32h-282v532z" />
    <glyph glyph-name="f" unicode="f" 
d="M109 109v532h282v-32h-250v-218h250v-32h-250v-250h-32z" />
    <glyph glyph-name="g" unicode="g" 
d="M109 500q0 30 11 55.5t30 44.5t44.5 30t55.5 11t55.5 -11t44.5 -30t30 -44.5t11 -55.5h-32q0 23 -8.5 42.5t-23.5 34.5t-34.5 23.5t-42.5 8.5q-22 0 -42 -8.5t-35 -23.5t-23.5 -34.5t-8.5 -42.5v-250q0 -22 8.5 -42t23.5 -35t35 -23.5t42 -8.5q23 0 42.5 8.5t34.5 23.5
t23.5 35t8.5 42v109h-109v32h141v-141q0 -30 -11 -55.5t-30 -44.5t-44.5 -30t-55.5 -11t-55.5 11t-44.5 30t-30 44.5t-11 55.5v250z" />
    <glyph glyph-name="h" unicode="h" 
d="M141 641v-250h218v250h32v-532h-32v250h-218v-250h-32v532h32z" />
    <glyph glyph-name="i" unicode="i" 
d="M118 109v32h116v468h-116v32h265v-32h-117v-468h117v-32h-265z" />
    <glyph glyph-name="j" unicode="j" 
d="M109 250h32q0 -22 8.5 -42t23.5 -35t35 -23.5t42 -8.5q23 0 42.5 8.5t34.5 23.5t23.5 35t8.5 42v359h-118v32h150v-391q0 -30 -11 -55.5t-30 -44.5t-44.5 -30t-55.5 -11t-55.5 11t-44.5 30t-30 44.5t-11 55.5z" />
    <glyph glyph-name="k" unicode="k" 
d="M141 641v-250h109q23 0 42.5 8.5t34.5 23.5t23.5 35t8.5 42v141h32v-141q0 -28 -8.5 -50.5t-23.5 -39.5q-3 -4 -9 -10q-7 -8 -15.5 -14t-17.5 -11q9 -5 17.5 -11t15.5 -14q6 -6 9 -10q15 -17 23.5 -39.5t8.5 -50.5v-141h-32v141q0 23 -8.5 42.5t-23.5 34.5t-34.5 23.5
t-42.5 8.5h-109v-250h-32v532h32z" />
    <glyph glyph-name="l" unicode="l" 
d="M109 641h32v-500h250v-32h-282v532z" />
    <glyph glyph-name="m" unicode="m" 
d="M50 508q0 28 6 52.5t18.5 42.5t32.5 28t48 10q42 0 64.5 -22.5t30.5 -59.5q8 38 30.5 60t64.5 22q28 0 48 -10t32.5 -28t18.5 -42.5t6 -52.5v-399h-29v391q0 23 -4 42.5t-13 34.5t-24.5 23.5t-38.5 8.5q-45 0 -62.5 -32t-17.5 -77v-391h-22v391q0 45 -17.5 77t-62.5 32
q-23 0 -38.5 -8.5t-24.5 -23.5t-13 -34.5t-4 -42.5v-391h-29v399z" />
    <glyph glyph-name="n" unicode="n" 
d="M109 109v532h141q30 0 55.5 -11t44.5 -30t30 -44.5t11 -55.5v-391h-32v391q0 23 -8.5 42.5t-23.5 34.5t-34.5 23.5t-42.5 8.5h-109v-500h-32z" />
    <glyph glyph-name="o" unicode="o" 
d="M109 500q0 30 11 55.5t30 44.5t44.5 30t55.5 11t55.5 -11t44.5 -30t30 -44.5t11 -55.5v-250q0 -30 -11 -55.5t-30 -44.5t-44.5 -30t-55.5 -11t-55.5 11t-44.5 30t-30 44.5t-11 55.5v250zM141 250q0 -22 8.5 -42t23.5 -35t35 -23.5t42 -8.5q23 0 42.5 8.5t34.5 23.5
t23.5 35t8.5 42v250q0 23 -8.5 42.5t-23.5 34.5t-34.5 23.5t-42.5 8.5q-22 0 -42 -8.5t-35 -23.5t-23.5 -34.5t-8.5 -42.5v-250z" />
    <glyph glyph-name="p" unicode="p" 
d="M109 109v532h141q30 0 55.5 -11t44.5 -30t30 -44.5t11 -55.5t-11 -55.5t-30 -44.5t-44.5 -30t-55.5 -11h-109v-250h-32zM250 391q23 0 42.5 8.5t34.5 23.5t23.5 35t8.5 42q0 23 -8.5 42.5t-23.5 34.5t-34.5 23.5t-42.5 8.5h-109v-218h109z" />
    <glyph glyph-name="q" unicode="q" 
d="M109 500q0 30 11 55.5t30 44.5t44.5 30t55.5 11t55.5 -11t44.5 -30t30 -44.5t11 -55.5v-250q0 -32 -11 -57t-30 -43q-7 -8 -15.5 -14t-17.5 -11q9 -5 17.5 -11t15.5 -14q19 -18 30 -43t11 -57h-32q0 23 -8.5 42.5t-23.5 34.5t-34.5 23.5t-42.5 8.5q-30 0 -55.5 11
t-44.5 30t-30 44.5t-11 55.5v250zM141 250q0 -22 8.5 -42t23.5 -35t35 -23.5t42 -8.5q23 0 42.5 8.5t34.5 23.5t23.5 35t8.5 42v250q0 23 -8.5 42.5t-23.5 34.5t-34.5 23.5t-42.5 8.5q-22 0 -42 -8.5t-35 -23.5t-23.5 -34.5t-8.5 -42.5v-250z" />
    <glyph glyph-name="r" unicode="r" 
d="M109 109v532h141q30 0 55.5 -11t44.5 -30t30 -44.5t11 -55.5q0 -32 -11 -57t-30 -43q-7 -8 -15.5 -14t-17.5 -11q9 -5 17.5 -11t15.5 -14q19 -18 30 -43t11 -57v-141h-32v141q0 23 -8.5 42.5t-23.5 34.5t-34.5 23.5t-42.5 8.5h-109v-250h-32zM250 391q23 0 42.5 8.5
t34.5 23.5t23.5 35t8.5 42q0 23 -8.5 42.5t-23.5 34.5t-34.5 23.5t-42.5 8.5h-109v-218h109z" />
    <glyph glyph-name="s" unicode="s" 
d="M109 500q0 30 11 55.5t30 44.5t44.5 30t55.5 11t55.5 -11t44.5 -30t30 -44.5t11 -55.5h-32q0 23 -8.5 42.5t-23.5 34.5t-34.5 23.5t-42.5 8.5q-22 0 -42 -8.5t-35 -23.5t-23.5 -34.5t-8.5 -42.5q0 -22 8.5 -42t23.5 -35t35 -23.5t42 -8.5q30 0 55.5 -11t44.5 -30
t30 -44.5t11 -55.5t-11 -55.5t-30 -44.5t-44.5 -30t-55.5 -11t-55.5 11t-44.5 30t-30 44.5t-11 55.5h32q0 -22 8.5 -42t23.5 -35t35 -23.5t42 -8.5q23 0 42.5 8.5t34.5 23.5t23.5 35t8.5 42q0 23 -8.5 42.5t-23.5 34.5t-34.5 23.5t-42.5 8.5q-30 0 -55.5 11t-44.5 30
t-30 44.5t-11 55.5z" />
    <glyph glyph-name="t" unicode="t" 
d="M113 641h275v-32h-122v-500h-32v500h-121v32z" />
    <glyph glyph-name="u" unicode="u" 
d="M141 641v-391q0 -22 8.5 -42t23.5 -35t35 -23.5t42 -8.5q23 0 42.5 8.5t34.5 23.5t23.5 35t8.5 42v391h32v-391q0 -30 -11 -55.5t-30 -44.5t-44.5 -30t-55.5 -11t-55.5 11t-44.5 30t-30 44.5t-11 55.5v391h32z" />
    <glyph glyph-name="v" unicode="v" 
d="M141 641v-500h109q23 0 42.5 8.5t34.5 23.5t23.5 35t8.5 42v391h32v-391q0 -30 -11 -55.5t-30 -44.5t-44.5 -30t-55.5 -11h-141v532h32z" />
    <glyph glyph-name="w" unicode="w" 
d="M155 109q-28 0 -48 10.5t-32.5 28.5t-18.5 42.5t-6 52.5v398h29v-391q0 -22 4 -42t13 -35t24.5 -23.5t38.5 -8.5q45 0 62.5 32t17.5 77v391h22v-391q0 -45 17.5 -77t62.5 -32q23 0 38.5 8.5t24.5 23.5t13 35t4 42v391h29v-398q0 -28 -6 -52.5t-18.5 -42.5t-32.5 -28.5
t-48 -10.5q-42 0 -64.5 22.5t-30.5 59.5q-8 -38 -30.5 -60t-64.5 -22z" />
    <glyph glyph-name="x" unicode="x" 
d="M109 641h32v-141q0 -22 8.5 -42t23.5 -35t35 -23.5t42 -8.5q23 0 42.5 8.5t34.5 23.5t23.5 35t8.5 42v141h32v-141q0 -28 -8.5 -50.5t-23.5 -39.5q-3 -4 -9 -10q-7 -8 -15.5 -14t-17.5 -11q9 -5 17.5 -11t15.5 -14q6 -6 9 -10q15 -17 23.5 -39.5t8.5 -50.5v-141h-32v141
q0 23 -8.5 42.5t-23.5 34.5t-34.5 23.5t-42.5 8.5q-22 0 -42 -8.5t-35 -23.5t-23.5 -34.5t-8.5 -42.5v-141h-32v141q0 28 8.5 50.5t23.5 39.5q3 4 9 10q7 8 15.5 14t17.5 11q-9 5 -17.5 11t-15.5 14q-6 6 -9 10q-15 17 -23.5 39.5t-8.5 50.5v141z" />
    <glyph glyph-name="y" unicode="y" 
d="M141 641v-141q0 -22 8.5 -42t23.5 -35t35 -23.5t42 -8.5h109v250h32v-532h-32v250h-109q-30 0 -55.5 11t-44.5 30t-30 44.5t-11 55.5v141h32z" />
    <glyph glyph-name="z" unicode="z" 
d="M109 641h282v-141q0 -30 -11 -55.5t-30 -44.5t-44.5 -30t-55.5 -11q-22 0 -42 -8.5t-35 -23.5t-23.5 -34.5t-8.5 -42.5v-109h250v-32h-282v141q0 30 11 55.5t30 44.5t44.5 30t55.5 11q23 0 42.5 8.5t34.5 23.5t23.5 35t8.5 42v109h-250v32z" />
    <glyph glyph-name="braceleft" unicode="{" 
d="M192 375q9 -5 17.5 -11t15.5 -14q19 -18 30 -43t11 -57q0 -22 8.5 -42t23.5 -35t35 -23.5t42 -8.5v-32q-30 0 -55.5 11t-44.5 30t-30 44.5t-11 55.5q0 23 -8.5 42.5t-23.5 34.5t-34.5 23.5t-42.5 8.5v32q23 0 42.5 8.5t34.5 23.5t23.5 35t8.5 42q0 30 11 55.5t30 44.5
t44.5 30t55.5 11v-32q-22 0 -42 -8.5t-35 -23.5t-23.5 -34.5t-8.5 -42.5q0 -32 -11 -57t-30 -43q-7 -8 -15.5 -14t-17.5 -11z" />
    <glyph glyph-name="bar" unicode="|" 
d="M234 0v750h32v-750h-32z" />
    <glyph glyph-name="braceright" unicode="}" 
d="M125 141q23 0 42.5 8.5t34.5 23.5t23.5 35t8.5 42q0 32 11 57t30 43q7 8 15.5 14t17.5 11q-9 5 -17.5 11t-15.5 14q-19 18 -30 43t-11 57q0 23 -8.5 42.5t-23.5 34.5t-34.5 23.5t-42.5 8.5v32q30 0 55.5 -11t44.5 -30t30 -44.5t11 -55.5q0 -22 8.5 -42t23.5 -35t35 -23.5
t42 -8.5v-32q-22 0 -42 -8.5t-35 -23.5t-23.5 -34.5t-8.5 -42.5q0 -30 -11 -55.5t-30 -44.5t-44.5 -30t-55.5 -11v32z" />
    <glyph glyph-name="asciitilde" unicode="~" 
d="M109 250q0 30 11 55.5t30 44.5t44.5 30t55.5 11q23 0 42.5 8.5t34.5 23.5t23.5 35t8.5 42h32q0 -30 -11 -55.5t-30 -44.5t-44.5 -30t-55.5 -11q-22 0 -42 -8.5t-35 -23.5t-23.5 -34.5t-8.5 -42.5h-32z" />
    <glyph glyph-name="uni00A0" unicode="&#xa0;" 
 />
    <glyph glyph-name="exclamdown" unicode="&#xa1;" 
d="M234 391h32v-282h-32v282zM234 500v141h32v-141h-32z" />
    <glyph glyph-name="cent" unicode="&#xa2;" 
d="M109 0q0 32 11 57t30 43q7 8 15.5 14t17.5 11q-9 5 -17.5 11t-15.5 14q-19 18 -30 43t-11 57v250q0 30 11 55.5t30 44.5t44.5 30t55.5 11q23 0 42.5 8.5t34.5 23.5t23.5 35t8.5 42h32q0 -32 -11 -57t-30 -43q-7 -8 -15.5 -14t-17.5 -11q9 -5 17.5 -11t15.5 -14
q19 -18 30 -43t11 -57h-32q0 23 -8.5 42.5t-23.5 34.5t-34.5 23.5t-42.5 8.5q-22 0 -42 -8.5t-35 -23.5t-23.5 -34.5t-8.5 -42.5v-250q0 -22 8.5 -42t23.5 -35t35 -23.5t42 -8.5q23 0 42.5 8.5t34.5 23.5t23.5 35t8.5 42h32q0 -30 -11 -55.5t-30 -44.5t-44.5 -30t-55.5 -11
q-22 0 -42 -8.5t-35 -23.5t-23.5 -34.5t-8.5 -42.5h-32z" />
    <glyph glyph-name="sterling" unicode="&#xa3;" 
d="M109 500q0 30 11 55.5t30 44.5t44.5 30t55.5 11t55.5 -11t44.5 -30t30 -44.5t11 -55.5h-32q0 23 -8.5 42.5t-23.5 34.5t-34.5 23.5t-42.5 8.5q-22 0 -42 -8.5t-35 -23.5t-23.5 -34.5t-8.5 -42.5v-109h250v-32h-250v-218h250v-32h-282v391z" />
    <glyph glyph-name="currency" unicode="&#xa4;" 
d="M109 500h32q0 -22 8.5 -42t23.5 -35t35 -23.5t42 -8.5q23 0 42.5 8.5t34.5 23.5t23.5 35t8.5 42h32q0 -32 -11 -57t-30 -43q-7 -8 -15.5 -14t-17.5 -11q9 -5 17.5 -11t15.5 -14q19 -18 30 -43t11 -57t-11 -57t-30 -43q-7 -8 -15.5 -14t-17.5 -11q9 -5 17.5 -11t15.5 -14
q19 -18 30 -43t11 -57h-32q0 23 -8.5 42.5t-23.5 34.5t-34.5 23.5t-42.5 8.5q-22 0 -42 -8.5t-35 -23.5t-23.5 -34.5t-8.5 -42.5h-32q0 32 11 57t30 43q7 8 15.5 14t17.5 11q-9 5 -17.5 11t-15.5 14q-19 18 -30 43t-11 57t11 57t30 43q7 8 15.5 14t17.5 11q-9 5 -17.5 11
t-15.5 14q-19 18 -30 43t-11 57zM141 250q0 -22 8.5 -42t23.5 -35t35 -23.5t42 -8.5q23 0 42.5 8.5t34.5 23.5t23.5 35t8.5 42q0 23 -8.5 42.5t-23.5 34.5t-34.5 23.5t-42.5 8.5q-22 0 -42 -8.5t-35 -23.5t-23.5 -34.5t-8.5 -42.5z" />
    <glyph glyph-name="yen" unicode="&#xa5;" 
d="M109 641h32v-141q0 -22 8.5 -42t23.5 -35t35 -23.5t42 -8.5h109v250h32v-641h-32v109h-121v32h121v218h-109q-30 0 -55.5 11t-44.5 30t-30 44.5t-11 55.5v141z" />
    <glyph glyph-name="brokenbar" unicode="&#xa6;" 
d="M266 250v-250h-32v250h32zM234 500v250h32v-250h-32z" />
    <glyph glyph-name="section" unicode="&#xa7;" 
d="M109 250q0 32 11 57t30 43q7 8 15.5 14t17.5 11q-9 5 -17.5 11t-15.5 14q-19 18 -30 43t-11 57q0 30 11 55.5t30 44.5t44.5 30t55.5 11t55.5 -11t44.5 -30t30 -44.5t11 -55.5h-32q0 23 -8.5 42.5t-23.5 34.5t-34.5 23.5t-42.5 8.5q-22 0 -42 -8.5t-35 -23.5t-23.5 -34.5
t-8.5 -42.5q0 -22 8.5 -42t23.5 -35t35 -23.5t42 -8.5q30 0 55.5 -11t44.5 -30t30 -44.5t11 -55.5q0 -32 -11 -57t-30 -43q-7 -8 -15.5 -14t-17.5 -11q9 -5 17.5 -11t15.5 -14q19 -18 30 -43t11 -57h-32q0 23 -8.5 42.5t-23.5 34.5t-34.5 23.5t-42.5 8.5q-30 0 -55.5 11
t-44.5 30t-30 44.5t-11 55.5zM141 250q0 -22 8.5 -42t23.5 -35t35 -23.5t42 -8.5q23 0 42.5 8.5t34.5 23.5t23.5 35t8.5 42q0 23 -8.5 42.5t-23.5 34.5t-34.5 23.5t-42.5 8.5q-22 0 -42 -8.5t-35 -23.5t-23.5 -34.5t-8.5 -42.5z" />
    <glyph glyph-name="dieresis" unicode="&#xa8;" 
d="M359 750h32v-141h-32v141zM109 609v141h32v-141h-32z" />
    <glyph glyph-name="copyright" unicode="&#xa9;" 
d="M109 500q0 30 11 55.5t30 44.5t44.5 30t55.5 11t55.5 -11t44.5 -30t30 -44.5t11 -55.5h-32q0 23 -8.5 42.5t-23.5 34.5t-34.5 23.5t-42.5 8.5q-22 0 -42 -8.5t-35 -23.5t-23.5 -34.5t-8.5 -42.5v-250q0 -22 8.5 -42t23.5 -35t35 -23.5t42 -8.5q23 0 42.5 8.5t34.5 23.5
t23.5 35t8.5 42h32q0 -30 -11 -55.5t-30 -44.5t-44.5 -30t-55.5 -11t-55.5 11t-44.5 30t-30 44.5t-11 55.5v250z" />
    <glyph glyph-name="ordfeminine" unicode="&#xaa;" 
d="M109 500q0 30 11 55.5t30 44.5t44.5 30t55.5 11h141v-282h-141q-30 0 -55.5 11t-44.5 30t-30 44.5t-11 55.5zM141 500q0 -22 8.5 -42t23.5 -35t35 -23.5t42 -8.5h109v218h-109q-22 0 -42 -8.5t-35 -23.5t-23.5 -34.5t-8.5 -42.5z" />
    <glyph glyph-name="guillemotleft" unicode="&#xab;" 
d="M250 391q23 0 42.5 8.5t34.5 23.5t23.5 35t8.5 42h32q0 -32 -11 -57t-30 -43q-7 -8 -15.5 -14t-17.5 -11q9 -5 17.5 -11t15.5 -14q19 -18 30 -43t11 -57h-32q0 23 -8.5 42.5t-23.5 34.5t-34.5 23.5t-42.5 8.5v32zM0 359v32q23 0 42.5 8.5t34.5 23.5t23.5 35t8.5 42h32
q0 -32 -11 -57t-30 -43q-7 -8 -15.5 -14t-17.5 -11q9 -5 17.5 -11t15.5 -14q19 -18 30 -43t11 -57h-32q0 23 -8.5 42.5t-23.5 34.5t-34.5 23.5t-42.5 8.5z" />
    <glyph glyph-name="logicalnot" unicode="&#xac;" 
d="M391 391v-141h-32v109h-250v32h282z" />
    <glyph glyph-name="uni00AD" unicode="&#xad;" 
 />
    <glyph glyph-name="registered" unicode="&#xae;" 
d="M109 109v532h141q30 0 55.5 -11t44.5 -30t30 -44.5t11 -55.5q0 -32 -11 -57t-30 -43q-7 -8 -15.5 -14t-17.5 -11q9 -5 17.5 -11t15.5 -14q19 -18 30 -43t11 -57v-141h-32v141q0 23 -8.5 42.5t-23.5 34.5t-34.5 23.5t-42.5 8.5h-109v-250h-32zM250 391q23 0 42.5 8.5
t34.5 23.5t23.5 35t8.5 42q0 23 -8.5 42.5t-23.5 34.5t-34.5 23.5t-42.5 8.5h-109v-218h109z" />
    <glyph glyph-name="macron" unicode="&#xaf;" 
d="M125 641h250v-32h-250v32z" />
    <glyph glyph-name="degree" unicode="&#xb0;" 
d="M109 500q0 30 11 55.5t30 44.5t44.5 30t55.5 11t55.5 -11t44.5 -30t30 -44.5t11 -55.5t-11 -55.5t-30 -44.5t-44.5 -30t-55.5 -11t-55.5 11t-44.5 30t-30 44.5t-11 55.5zM141 500q0 -22 8.5 -42t23.5 -35t35 -23.5t42 -8.5q23 0 42.5 8.5t34.5 23.5t23.5 35t8.5 42
q0 23 -8.5 42.5t-23.5 34.5t-34.5 23.5t-42.5 8.5q-22 0 -42 -8.5t-35 -23.5t-23.5 -34.5t-8.5 -42.5z" />
    <glyph glyph-name="plusminus" unicode="&#xb1;" 
d="M116 491h118v118h32v-118h118v-32h-118v-118h-32v118h-118v32zM116 185h268v-32h-268v32z" />
    <glyph glyph-name="twosuperior" unicode="&#xb2;" 
d="M109 250q0 30 11 55.5t30 44.5t44.5 30t55.5 11q23 0 42.5 8.5t34.5 23.5t23.5 35t8.5 42q0 23 -8.5 42.5t-23.5 34.5t-34.5 23.5t-42.5 8.5q-22 0 -42 -8.5t-35 -23.5t-23.5 -34.5t-8.5 -42.5h-32q0 30 11 55.5t30 44.5t44.5 30t55.5 11t55.5 -11t44.5 -30t30 -44.5
t11 -55.5t-11 -55.5t-30 -44.5t-44.5 -30t-55.5 -11q-22 0 -42 -8.5t-35 -23.5t-23.5 -34.5t-8.5 -42.5v-109h250v-32h-282v141z" />
    <glyph glyph-name="threesuperior" unicode="&#xb3;" 
d="M141 250q0 -22 8.5 -42t23.5 -35t35 -23.5t42 -8.5q23 0 42.5 8.5t34.5 23.5t23.5 35t8.5 42q0 23 -8.5 42.5t-23.5 34.5t-34.5 23.5t-42.5 8.5v32q23 0 42.5 8.5t34.5 23.5t23.5 35t8.5 42q0 23 -8.5 42.5t-23.5 34.5t-34.5 23.5t-42.5 8.5q-22 0 -42 -8.5t-35 -23.5
t-23.5 -34.5t-8.5 -42.5h-32q0 30 11 55.5t30 44.5t44.5 30t55.5 11t55.5 -11t44.5 -30t30 -44.5t11 -55.5q0 -32 -11 -57t-30 -43q-7 -8 -15.5 -14t-17.5 -11q9 -5 17.5 -11t15.5 -14q19 -18 30 -43t11 -57q0 -30 -11 -55.5t-30 -44.5t-44.5 -30t-55.5 -11t-55.5 11
t-44.5 30t-30 44.5t-11 55.5h32z" />
    <glyph glyph-name="acute" unicode="&#xb4;" 
d="M250 641q23 0 42.5 8.5t34.5 23.5t23.5 35t8.5 42h32q0 -30 -11 -55.5t-30 -44.5t-44.5 -30t-55.5 -11v32z" />
    <glyph glyph-name="mu" unicode="&#xb5;" 
d="M141 641v-391q0 -22 8.5 -42t23.5 -35t35 -23.5t42 -8.5q23 0 42.5 8.5t34.5 23.5t23.5 35t8.5 42v391h32v-391q0 -30 -11 -55.5t-30 -44.5t-44.5 -30t-55.5 -11t-55.5 11t-44.5 30t-30 44.5t-11 55.5v391h32z" />
    <glyph glyph-name="paragraph" unicode="&#xb6;" 
d="M96 500q0 30 11 56t30.5 44.5t45 29.5t55.5 11h165v-532h-27v500h-125v-500h-26v251q-28 2 -51.5 13.5t-40.5 30.5t-27 44t-10 52zM129 500q0 -42 27 -72.5t69 -35.5v216q-42 -5 -69 -35.5t-27 -72.5z" />
    <glyph glyph-name="periodcentered" unicode="&#xb7;" 
d="M266 500v-141h-32v141h32z" />
    <glyph glyph-name="cedilla" unicode="&#xb8;" 
d="M234 0q0 30 11 55.5t30 44.5t44.5 30t55.5 11v-32q-22 0 -42 -8.5t-35 -23.5t-23.5 -34.5t-8.5 -42.5h-32z" />
    <glyph glyph-name="onesuperior" unicode="&#xb9;" 
d="M116 141h118v468h-118v32h150v-500h118v-32h-268v32z" />
    <glyph glyph-name="ordmasculine" unicode="&#xba;" 
d="M109 500q0 30 11 55.5t30 44.5t44.5 30t55.5 11t55.5 -11t44.5 -30t30 -44.5t11 -55.5t-11 -55.5t-30 -44.5t-44.5 -30t-55.5 -11t-55.5 11t-44.5 30t-30 44.5t-11 55.5zM141 500q0 -22 8.5 -42t23.5 -35t35 -23.5t42 -8.5q23 0 42.5 8.5t34.5 23.5t23.5 35t8.5 42
q0 23 -8.5 42.5t-23.5 34.5t-34.5 23.5t-42.5 8.5q-22 0 -42 -8.5t-35 -23.5t-23.5 -34.5t-8.5 -42.5z" />
    <glyph glyph-name="guillemotright" unicode="&#xbb;" 
d="M250 383q36 0 61 25t25 61h15q0 -31 -16.5 -57t-45.5 -37q29 -11 45.5 -37t16.5 -57h-15q0 18 -6.5 33.5t-18.5 27.5t-27.5 19t-33.5 7v15zM63 383q18 0 33.5 7t27 18.5t18.5 27t7 33.5h15q0 -30 -17 -56.5t-45 -37.5q28 -12 45 -38t17 -56h-15q0 17 -7 33t-19 28
t-27.5 19t-32.5 7v15z" />
    <glyph glyph-name="onequarter" unicode="&#xbc;" 
d="M109 250q0 30 11 55.5t30 44.5t44.5 30t55.5 11q23 0 42.5 8.5t34.5 23.5t23.5 35t8.5 42v141h32v-141q0 -30 -11 -55.5t-30 -44.5t-44.5 -30t-55.5 -11q-22 0 -42 -8.5t-35 -23.5t-23.5 -34.5t-8.5 -42.5v-141h-32v141zM283 250v-109h108v-32h-141v141h33zM111 456v185
h33v-185h-33z" />
    <glyph glyph-name="onehalf" unicode="&#xbd;" 
d="M109 250q0 30 11 55.5t30 44.5t44.5 30t55.5 11q23 0 42.5 8.5t34.5 23.5t23.5 35t8.5 42v141h32v-141q0 -30 -11 -55.5t-30 -44.5t-44.5 -30t-55.5 -11q-22 0 -42 -8.5t-35 -23.5t-23.5 -34.5t-8.5 -42.5v-141h-32v141zM250 250q30 0 55.5 -11t44.5 -30t30 -44.5
t11 -55.5h-32q0 23 -8.5 42.5t-23.5 34.5t-34.5 23.5t-42.5 8.5v32zM111 633h33v-159h-33v159z" />
    <glyph glyph-name="threequarters" unicode="&#xbe;" 
d="M109 109v141q0 30 11 55.5t30 44.5t44.5 30t55.5 11q23 0 42.5 8.5t34.5 23.5t23.5 35t8.5 42v141h32v-141q0 -30 -11 -55.5t-30 -44.5t-44.5 -30t-55.5 -11q-22 0 -42 -8.5t-35 -23.5t-23.5 -34.5t-8.5 -42.5v-141h-32zM250 250h33v-109h108v-32h-141v141zM109 533
q23 0 42.5 8.5t34.5 23t23.5 34t8.5 42.5h32q0 -29 -11 -55t-30 -45t-45 -30t-55 -11v33z" />
    <glyph glyph-name="questiondown" unicode="&#xbf;" 
d="M109 250q0 30 11 55.5t30 44.5t44.5 30t55.5 11q23 0 42.5 8.5t34.5 23.5t23.5 35t8.5 42q0 23 -8.5 42.5t-23.5 34.5t-34.5 23.5t-42.5 8.5q-22 0 -42 -8.5t-35 -23.5t-23.5 -34.5t-8.5 -42.5h-32q0 30 11 55.5t30 44.5t44.5 30t55.5 11t55.5 -11t44.5 -30t30 -44.5
t11 -55.5t-11 -55.5t-30 -44.5t-44.5 -30t-55.5 -11q-22 0 -42 -8.5t-35 -23.5t-23.5 -34.5t-8.5 -42.5h-32zM141 141v-141h-32v141h32z" />
    <glyph glyph-name="Agrave" unicode="&#xc0;" 
d="M109 500q0 32 11 57t30 43q7 8 15.5 14t17.5 11q-9 5 -17.5 11t-15.5 14q-19 18 -30 43t-11 57h32q0 -22 8.5 -42t23.5 -35t35 -23.5t42 -8.5q30 0 55.5 -11t44.5 -30t30 -44.5t11 -55.5v-391h-32v250h-218v-250h-32v391zM359 391v109q0 23 -8.5 42.5t-23.5 34.5
t-34.5 23.5t-42.5 8.5q-22 0 -42 -8.5t-35 -23.5t-23.5 -34.5t-8.5 -42.5v-109h218z" />
    <glyph glyph-name="Aacute" unicode="&#xc1;" 
d="M109 109v391q0 30 11 55.5t30 44.5t44.5 30t55.5 11q23 0 42.5 8.5t34.5 23.5t23.5 35t8.5 42h32q0 -32 -11 -57t-30 -43q-7 -8 -15.5 -14t-17.5 -11q9 -5 17.5 -11t15.5 -14q19 -18 30 -43t11 -57v-391h-32v250h-218v-250h-32zM359 391v109q0 23 -8.5 42.5t-23.5 34.5
t-34.5 23.5t-42.5 8.5q-22 0 -42 -8.5t-35 -23.5t-23.5 -34.5t-8.5 -42.5v-109h218z" />
    <glyph glyph-name="Acircumflex" unicode="&#xc2;" 
d="M109 250q0 30 11 55.5t30 44.5t44.5 30t55.5 11t55.5 -11t44.5 -30t30 -44.5t11 -55.5v-250h-32v109h-218v-109h-32v250zM359 141v109q0 23 -8.5 42.5t-23.5 34.5t-34.5 23.5t-42.5 8.5q-22 0 -42 -8.5t-35 -23.5t-23.5 -34.5t-8.5 -42.5v-109h218zM109 500q0 30 11 55.5
t30 44.5t44.5 30t55.5 11t55.5 -11t44.5 -30t30 -44.5t11 -55.5h-32q0 23 -8.5 42.5t-23.5 34.5t-34.5 23.5t-42.5 8.5q-22 0 -42 -8.5t-35 -23.5t-23.5 -34.5t-8.5 -42.5h-32z" />
    <glyph glyph-name="Atilde" unicode="&#xc3;" 
d="M109 0v250q0 30 11 55.5t30 44.5t44.5 30t55.5 11t55.5 -11t44.5 -30t30 -44.5t11 -55.5v-250h-32v109h-218v-109h-32zM359 141v109q0 23 -8.5 42.5t-23.5 34.5t-34.5 23.5t-42.5 8.5q-22 0 -42 -8.5t-35 -23.5t-23.5 -34.5t-8.5 -42.5v-109h218zM109 500q0 30 11 55.5
t30 44.5t44.5 30t55.5 11q23 0 42.5 8.5t34.5 23.5t23.5 35t8.5 42h32q0 -30 -11 -55.5t-30 -44.5t-44.5 -30t-55.5 -11q-22 0 -42 -8.5t-35 -23.5t-23.5 -34.5t-8.5 -42.5h-32z" />
    <glyph glyph-name="Adieresis" unicode="&#xc4;" 
d="M109 0v250q0 28 8.5 50.5t23.5 39.5q19 26 48.5 38.5t60.5 12.5t60.5 -12.5t48.5 -38.5q15 -17 23.5 -39.5t8.5 -50.5v-250h-32v109h-218v-109h-32zM359 141v109q0 23 -8.5 42.5t-23.5 34.5t-34.5 23.5t-42.5 8.5q-22 0 -42 -8.5t-35 -23.5t-23.5 -34.5t-8.5 -42.5v-109
h218zM359 500v141h32v-141h-32zM109 641h32v-141h-32v141z" />
    <glyph glyph-name="Aring" unicode="&#xc5;" 
d="M109 250q0 32 11 57t30 43q7 8 15.5 14t17.5 11q-9 5 -17.5 11t-15.5 14q-19 18 -30 43t-11 57q0 30 11 55.5t30 44.5t44.5 30t55.5 11t55.5 -11t44.5 -30t30 -44.5t11 -55.5q0 -32 -11 -57t-30 -43q-7 -8 -15.5 -14t-17.5 -11q9 -5 17.5 -11t15.5 -14q19 -18 30 -43
t11 -57v-250h-32v109h-218v-109h-32v250zM359 141v109q0 23 -8.5 42.5t-23.5 34.5t-34.5 23.5t-42.5 8.5q-22 0 -42 -8.5t-35 -23.5t-23.5 -34.5t-8.5 -42.5v-109h218zM141 500q0 -22 8.5 -42t23.5 -35t35 -23.5t42 -8.5q23 0 42.5 8.5t34.5 23.5t23.5 35t8.5 42
q0 23 -8.5 42.5t-23.5 34.5t-34.5 23.5t-42.5 8.5q-22 0 -42 -8.5t-35 -23.5t-23.5 -34.5t-8.5 -42.5z" />
    <glyph glyph-name="AE" unicode="&#xc6;" 
d="M40 500q0 30 11 55.5t30 44.5t44.5 30t55.5 11h279v-32h-194v-218h194v-32h-194v-218h194v-32h-217v250h-170v-250h-33v391zM243 391v218h-62q-23 0 -42.5 -8.5t-34 -23.5t-23 -34.5t-8.5 -42.5v-109h170z" />
    <glyph glyph-name="Ccedilla" unicode="&#xc7;" 
d="M109 500q0 30 11 55.5t30 44.5t44.5 30t55.5 11t55.5 -11t44.5 -30t30 -44.5t11 -55.5h-32q0 23 -8.5 42.5t-23.5 34.5t-34.5 23.5t-42.5 8.5q-22 0 -42 -8.5t-35 -23.5t-23.5 -34.5t-8.5 -42.5v-250q0 -22 8.5 -42t23.5 -35t35 -23.5t42 -8.5q23 0 42.5 8.5t34.5 23.5
t23.5 35t8.5 42h32q0 -30 -11 -55.5t-30 -44.5t-44.5 -30t-55.5 -11q-22 0 -42 -8.5t-35 -23.5t-23.5 -34.5t-8.5 -42.5h-32q0 32 11 57t30 43q7 8 15.5 14t17.5 11q-9 5 -17.5 11t-15.5 14q-19 18 -30 43t-11 57v250z" />
    <glyph glyph-name="Egrave" unicode="&#xc8;" 
d="M141 359v-218h250v-32h-282v391q0 32 11 57t30 43q7 8 15.5 14t17.5 11q-9 5 -17.5 11t-15.5 14q-19 18 -30 43t-11 57h32q0 -22 8.5 -42t23.5 -35t35 -23.5t42 -8.5h141v-32h-141q-22 0 -42 -8.5t-35 -23.5t-23.5 -34.5t-8.5 -42.5v-109h250v-32h-250z" />
    <glyph glyph-name="Eacute" unicode="&#xc9;" 
d="M109 109v532h141q23 0 42.5 8.5t34.5 23.5t23.5 35t8.5 42h32q0 -30 -11 -55.5t-30 -44.5t-44.5 -30t-55.5 -11h-109v-218h250v-32h-250v-218h250v-32h-282z" />
    <glyph glyph-name="Ecircumflex" unicode="&#xca;" 
d="M109 250q0 30 11 55.5t30 44.5t44.5 30t55.5 11t55.5 -11t44.5 -30t30 -44.5t11 -55.5v-141h-250v-109h-32v250zM141 141h218v109q0 23 -8.5 42.5t-23.5 34.5t-34.5 23.5t-42.5 8.5q-22 0 -42 -8.5t-35 -23.5t-23.5 -34.5t-8.5 -42.5v-109zM109 500q0 30 11 55.5t30 44.5
t44.5 30t55.5 11t55.5 -11t44.5 -30t30 -44.5t11 -55.5h-32q0 23 -8.5 42.5t-23.5 34.5t-34.5 23.5t-42.5 8.5q-22 0 -42 -8.5t-35 -23.5t-23.5 -34.5t-8.5 -42.5h-32z" />
    <glyph glyph-name="Edieresis" unicode="&#xcb;" 
d="M141 750v-109h218v109h32v-141h-250v-218h250v-32h-250v-218h250v-32h-282v641h32z" />
    <glyph glyph-name="Igrave" unicode="&#xcc;" 
d="M234 109v391h32v-391h-32zM266 750q0 -22 8.5 -42t23.5 -35t35 -23.5t42 -8.5v-32q-30 0 -55.5 11t-44.5 30t-30 44.5t-11 55.5h32z" />
    <glyph glyph-name="Iacute" unicode="&#xcd;" 
d="M234 500h32v-391h-32v391zM125 641q23 0 42.5 8.5t34.5 23.5t23.5 35t8.5 42h32q0 -30 -11 -55.5t-30 -44.5t-44.5 -30t-55.5 -11v32z" />
    <glyph glyph-name="Icircumflex" unicode="&#xce;" 
d="M266 500v-391h-32v391h32zM125 641q23 0 42.5 8.5t34.5 23.5t23.5 35t8.5 42h32q0 -22 8.5 -42t23.5 -35t35 -23.5t42 -8.5v-32q-32 0 -57 11t-43 30q-8 7 -14 15.5t-11 17.5q-5 -9 -11 -17.5t-14 -15.5q-18 -19 -43 -30t-57 -11v32z" />
    <glyph glyph-name="Idieresis" unicode="&#xcf;" 
d="M266 500v-391h-32v391h32zM125 609v32h250v-32h-250z" />
    <glyph glyph-name="Eth" unicode="&#xd0;" 
d="M109 109v532h141q30 0 55.5 -11t44.5 -30t30 -44.5t11 -55.5v-250q0 -30 -11 -55.5t-30 -44.5t-44.5 -30t-55.5 -11h-141zM141 359v-218h109q23 0 42.5 8.5t34.5 23.5t23.5 35t8.5 42v250q0 23 -8.5 42.5t-23.5 34.5t-34.5 23.5t-42.5 8.5h-109v-218h109v-32h-109z" />
    <glyph glyph-name="Ntilde" unicode="&#xd1;" 
d="M109 109v282h141q30 0 55.5 -11t44.5 -30t30 -44.5t11 -55.5v-141h-32v141q0 23 -8.5 42.5t-23.5 34.5t-34.5 23.5t-42.5 8.5h-109v-250h-32zM109 641h282v-32h-282v32z" />
    <glyph glyph-name="Ograve" unicode="&#xd2;" 
d="M109 500q0 32 11 57t30 43q7 8 15.5 14t17.5 11q-9 5 -17.5 11t-15.5 14q-19 18 -30 43t-11 57h32q0 -22 8.5 -42t23.5 -35t35 -23.5t42 -8.5q30 0 55.5 -11t44.5 -30t30 -44.5t11 -55.5v-250q0 -30 -11 -55.5t-30 -44.5t-44.5 -30t-55.5 -11t-55.5 11t-44.5 30t-30 44.5
t-11 55.5v250zM141 250q0 -22 8.5 -42t23.5 -35t35 -23.5t42 -8.5q23 0 42.5 8.5t34.5 23.5t23.5 35t8.5 42v250q0 23 -8.5 42.5t-23.5 34.5t-34.5 23.5t-42.5 8.5q-22 0 -42 -8.5t-35 -23.5t-23.5 -34.5t-8.5 -42.5v-250z" />
    <glyph glyph-name="Oacute" unicode="&#xd3;" 
d="M109 500q0 30 11 55.5t30 44.5t44.5 30t55.5 11q23 0 42.5 8.5t34.5 23.5t23.5 35t8.5 42h32q0 -32 -11 -57t-30 -43q-7 -8 -15.5 -14t-17.5 -11q9 -5 17.5 -11t15.5 -14q19 -18 30 -43t11 -57v-250q0 -30 -11 -55.5t-30 -44.5t-44.5 -30t-55.5 -11t-55.5 11t-44.5 30
t-30 44.5t-11 55.5v250zM141 250q0 -22 8.5 -42t23.5 -35t35 -23.5t42 -8.5q23 0 42.5 8.5t34.5 23.5t23.5 35t8.5 42v250q0 23 -8.5 42.5t-23.5 34.5t-34.5 23.5t-42.5 8.5q-22 0 -42 -8.5t-35 -23.5t-23.5 -34.5t-8.5 -42.5v-250z" />
    <glyph glyph-name="Ocircumflex" unicode="&#xd4;" 
d="M109 250q0 30 11 55.5t30 44.5t44.5 30t55.5 11t55.5 -11t44.5 -30t30 -44.5t11 -55.5t-11 -55.5t-30 -44.5t-44.5 -30t-55.5 -11t-55.5 11t-44.5 30t-30 44.5t-11 55.5zM141 250q0 -22 8.5 -42t23.5 -35t35 -23.5t42 -8.5q23 0 42.5 8.5t34.5 23.5t23.5 35t8.5 42
q0 23 -8.5 42.5t-23.5 34.5t-34.5 23.5t-42.5 8.5q-22 0 -42 -8.5t-35 -23.5t-23.5 -34.5t-8.5 -42.5zM109 500q0 30 11 55.5t30 44.5t44.5 30t55.5 11t55.5 -11t44.5 -30t30 -44.5t11 -55.5h-32q0 23 -8.5 42.5t-23.5 34.5t-34.5 23.5t-42.5 8.5q-22 0 -42 -8.5t-35 -23.5
t-23.5 -34.5t-8.5 -42.5h-32z" />
    <glyph glyph-name="Otilde" unicode="&#xd5;" 
d="M109 250q0 30 11 55.5t30 44.5t44.5 30t55.5 11t55.5 -11t44.5 -30t30 -44.5t11 -55.5t-11 -55.5t-30 -44.5t-44.5 -30t-55.5 -11t-55.5 11t-44.5 30t-30 44.5t-11 55.5zM141 250q0 -22 8.5 -42t23.5 -35t35 -23.5t42 -8.5q23 0 42.5 8.5t34.5 23.5t23.5 35t8.5 42
q0 23 -8.5 42.5t-23.5 34.5t-34.5 23.5t-42.5 8.5q-22 0 -42 -8.5t-35 -23.5t-23.5 -34.5t-8.5 -42.5zM109 500q0 30 11 55.5t30 44.5t44.5 30t55.5 11q23 0 42.5 8.5t34.5 23.5t23.5 35t8.5 42h32q0 -30 -11 -55.5t-30 -44.5t-44.5 -30t-55.5 -11q-22 0 -42 -8.5t-35 -23.5
t-23.5 -34.5t-8.5 -42.5h-32z" />
    <glyph glyph-name="Odieresis" unicode="&#xd6;" 
d="M109 250q0 30 11 55.5t30 44.5t44.5 30t55.5 11t55.5 -11t44.5 -30t30 -44.5t11 -55.5t-11 -55.5t-30 -44.5t-44.5 -30t-55.5 -11t-55.5 11t-44.5 30t-30 44.5t-11 55.5zM141 250q0 -22 8.5 -42t23.5 -35t35 -23.5t42 -8.5q23 0 42.5 8.5t34.5 23.5t23.5 35t8.5 42
q0 23 -8.5 42.5t-23.5 34.5t-34.5 23.5t-42.5 8.5q-22 0 -42 -8.5t-35 -23.5t-23.5 -34.5t-8.5 -42.5zM359 500v141h32v-141h-32zM141 641v-141h-32v141h32z" />
    <glyph glyph-name="multiply" unicode="&#xd7;" 
d="M109 500h32q0 -22 8.5 -42t23.5 -35t35 -23.5t42 -8.5q23 0 42.5 8.5t34.5 23.5t23.5 35t8.5 42h32q0 -32 -11 -57t-30 -43q-7 -8 -15.5 -14t-17.5 -11q9 -5 17.5 -11t15.5 -14q19 -18 30 -43t11 -57h-32q0 23 -8.5 42.5t-23.5 34.5t-34.5 23.5t-42.5 8.5q-22 0 -42 -8.5
t-35 -23.5t-23.5 -34.5t-8.5 -42.5h-32q0 32 11 57t30 43q7 8 15.5 14t17.5 11q-9 5 -17.5 11t-15.5 14q-19 18 -30 43t-11 57z" />
    <glyph glyph-name="Oslash" unicode="&#xd8;" 
d="M109 0q0 32 11 57t30 43q7 8 15.5 14t17.5 11q-9 5 -17.5 11t-15.5 14q-19 18 -30 43t-11 57v250q0 30 11 55.5t30 44.5t44.5 30t55.5 11q23 0 42.5 8.5t34.5 23.5t23.5 35t8.5 42h32q0 -32 -11 -57t-30 -43q-7 -8 -15.5 -14t-17.5 -11q9 -5 17.5 -11t15.5 -14
q19 -18 30 -43t11 -57v-250q0 -30 -11 -55.5t-30 -44.5t-44.5 -30t-55.5 -11q-22 0 -42 -8.5t-35 -23.5t-23.5 -34.5t-8.5 -42.5h-32zM141 250q0 -22 8.5 -42t23.5 -35t35 -23.5t42 -8.5q23 0 42.5 8.5t34.5 23.5t23.5 35t8.5 42v250q0 23 -8.5 42.5t-23.5 34.5t-34.5 23.5
t-42.5 8.5q-22 0 -42 -8.5t-35 -23.5t-23.5 -34.5t-8.5 -42.5v-250z" />
    <glyph glyph-name="Ugrave" unicode="&#xd9;" 
d="M109 500h32v-250q0 -22 8.5 -42t23.5 -35t35 -23.5t42 -8.5q23 0 42.5 8.5t34.5 23.5t23.5 35t8.5 42v250h32v-250q0 -30 -11 -55.5t-30 -44.5t-44.5 -30t-55.5 -11t-55.5 11t-44.5 30t-30 44.5t-11 55.5v250zM141 750q0 -22 8.5 -42t23.5 -35t35 -23.5t42 -8.5v-32
q-30 0 -55.5 11t-44.5 30t-30 44.5t-11 55.5h32z" />
    <glyph glyph-name="Uacute" unicode="&#xda;" 
d="M109 500h32v-250q0 -22 8.5 -42t23.5 -35t35 -23.5t42 -8.5q23 0 42.5 8.5t34.5 23.5t23.5 35t8.5 42v250h32v-250q0 -30 -11 -55.5t-30 -44.5t-44.5 -30t-55.5 -11t-55.5 11t-44.5 30t-30 44.5t-11 55.5v250zM250 641q23 0 42.5 8.5t34.5 23.5t23.5 35t8.5 42h32
q0 -30 -11 -55.5t-30 -44.5t-44.5 -30t-55.5 -11v32z" />
    <glyph glyph-name="Ucircumflex" unicode="&#xdb;" 
d="M109 391h32v-141q0 -22 8.5 -42t23.5 -35t35 -23.5t42 -8.5q23 0 42.5 8.5t34.5 23.5t23.5 35t8.5 42v141h32v-141q0 -30 -11 -55.5t-30 -44.5t-44.5 -30t-55.5 -11t-55.5 11t-44.5 30t-30 44.5t-11 55.5v141zM109 500q0 30 11 55.5t30 44.5t44.5 30t55.5 11t55.5 -11
t44.5 -30t30 -44.5t11 -55.5h-32q0 23 -8.5 42.5t-23.5 34.5t-34.5 23.5t-42.5 8.5q-22 0 -42 -8.5t-35 -23.5t-23.5 -34.5t-8.5 -42.5h-32z" />
    <glyph glyph-name="Udieresis" unicode="&#xdc;" 
d="M141 500v-250q0 -22 8.5 -42t23.5 -35t35 -23.5t42 -8.5q23 0 42.5 8.5t34.5 23.5t23.5 35t8.5 42v250h32v-250q0 -30 -11 -55.5t-30 -44.5t-44.5 -30t-55.5 -11t-55.5 11t-44.5 30t-30 44.5t-11 55.5v250h32zM359 750h32v-141h-32v141zM109 609v141h32v-141h-32z" />
    <glyph glyph-name="Yacute" unicode="&#xdd;" 
d="M109 250v250h32v-250q0 -22 8.5 -42t23.5 -35t35 -23.5t42 -8.5h109v359h32v-500h-32v109h-109q-30 0 -55.5 11t-44.5 30t-30 44.5t-11 55.5zM250 609v32q23 0 42.5 8.5t34.5 23.5t23.5 35t8.5 42h32q0 -30 -11 -55.5t-30 -44.5t-44.5 -30t-55.5 -11z" />
    <glyph glyph-name="Thorn" unicode="&#xde;" 
d="M141 641v-118h109q30 0 55.5 -11t44.5 -30.5t30 -45t11 -55.5t-11 -55.5t-30 -44.5t-44.5 -30t-55.5 -11h-109v-131h-32v532h32zM141 490v-217h109q23 0 42.5 8.5t34.5 23t23.5 34t8.5 42.5t-8.5 42.5t-23.5 34.5t-34.5 23.5t-42.5 8.5h-109z" />
    <glyph glyph-name="germandbls" unicode="&#xdf;" 
d="M109 500q0 30 11 55.5t30 44.5t44.5 30t55.5 11t55.5 -11t44.5 -30t30 -44.5t11 -55.5q0 -32 -11 -57t-30 -43q-7 -8 -15.5 -14t-17.5 -11q9 -5 17.5 -11t15.5 -14q19 -18 30 -43t11 -57q0 -30 -11 -55.5t-30 -44.5t-44.5 -30t-55.5 -11v32q23 0 42.5 8.5t34.5 23.5
t23.5 35t8.5 42q0 23 -8.5 42.5t-23.5 34.5t-34.5 23.5t-42.5 8.5v32q23 0 42.5 8.5t34.5 23.5t23.5 35t8.5 42q0 23 -8.5 42.5t-23.5 34.5t-34.5 23.5t-42.5 8.5q-22 0 -42 -8.5t-35 -23.5t-23.5 -34.5t-8.5 -42.5v-391h-32v391z" />
    <glyph glyph-name="agrave" unicode="&#xe0;" 
d="M109 500q0 32 11 57t30 43q7 8 15.5 14t17.5 11q-9 5 -17.5 11t-15.5 14q-19 18 -30 43t-11 57h32q0 -22 8.5 -42t23.5 -35t35 -23.5t42 -8.5q30 0 55.5 -11t44.5 -30t30 -44.5t11 -55.5v-391h-32v250h-218v-250h-32v391zM359 391v109q0 23 -8.5 42.5t-23.5 34.5
t-34.5 23.5t-42.5 8.5q-22 0 -42 -8.5t-35 -23.5t-23.5 -34.5t-8.5 -42.5v-109h218z" />
    <glyph glyph-name="aacute" unicode="&#xe1;" 
d="M109 109v391q0 30 11 55.5t30 44.5t44.5 30t55.5 11q23 0 42.5 8.5t34.5 23.5t23.5 35t8.5 42h32q0 -32 -11 -57t-30 -43q-7 -8 -15.5 -14t-17.5 -11q9 -5 17.5 -11t15.5 -14q19 -18 30 -43t11 -57v-391h-32v250h-218v-250h-32zM359 391v109q0 23 -8.5 42.5t-23.5 34.5
t-34.5 23.5t-42.5 8.5q-22 0 -42 -8.5t-35 -23.5t-23.5 -34.5t-8.5 -42.5v-109h218z" />
    <glyph glyph-name="acircumflex" unicode="&#xe2;" 
d="M109 250q0 30 11 55.5t30 44.5t44.5 30t55.5 11t55.5 -11t44.5 -30t30 -44.5t11 -55.5v-250h-32v109h-218v-109h-32v250zM359 141v109q0 23 -8.5 42.5t-23.5 34.5t-34.5 23.5t-42.5 8.5q-22 0 -42 -8.5t-35 -23.5t-23.5 -34.5t-8.5 -42.5v-109h218zM109 500q0 30 11 55.5
t30 44.5t44.5 30t55.5 11t55.5 -11t44.5 -30t30 -44.5t11 -55.5h-32q0 23 -8.5 42.5t-23.5 34.5t-34.5 23.5t-42.5 8.5q-22 0 -42 -8.5t-35 -23.5t-23.5 -34.5t-8.5 -42.5h-32z" />
    <glyph glyph-name="atilde" unicode="&#xe3;" 
d="M109 0v250q0 30 11 55.5t30 44.5t44.5 30t55.5 11t55.5 -11t44.5 -30t30 -44.5t11 -55.5v-250h-32v109h-218v-109h-32zM359 141v109q0 23 -8.5 42.5t-23.5 34.5t-34.5 23.5t-42.5 8.5q-22 0 -42 -8.5t-35 -23.5t-23.5 -34.5t-8.5 -42.5v-109h218zM109 500q0 30 11 55.5
t30 44.5t44.5 30t55.5 11q23 0 42.5 8.5t34.5 23.5t23.5 35t8.5 42h32q0 -30 -11 -55.5t-30 -44.5t-44.5 -30t-55.5 -11q-22 0 -42 -8.5t-35 -23.5t-23.5 -34.5t-8.5 -42.5h-32z" />
    <glyph glyph-name="adieresis" unicode="&#xe4;" 
d="M109 0v250q0 28 8.5 50.5t23.5 39.5q19 26 48.5 38.5t60.5 12.5t60.5 -12.5t48.5 -38.5q15 -17 23.5 -39.5t8.5 -50.5v-250h-32v109h-218v-109h-32zM359 141v109q0 23 -8.5 42.5t-23.5 34.5t-34.5 23.5t-42.5 8.5q-22 0 -42 -8.5t-35 -23.5t-23.5 -34.5t-8.5 -42.5v-109
h218zM359 500v141h32v-141h-32zM109 641h32v-141h-32v141z" />
    <glyph glyph-name="aring" unicode="&#xe5;" 
d="M109 250q0 32 11 57t30 43q7 8 15.5 14t17.5 11q-9 5 -17.5 11t-15.5 14q-19 18 -30 43t-11 57q0 30 11 55.5t30 44.5t44.5 30t55.5 11t55.5 -11t44.5 -30t30 -44.5t11 -55.5q0 -32 -11 -57t-30 -43q-7 -8 -15.5 -14t-17.5 -11q9 -5 17.5 -11t15.5 -14q19 -18 30 -43
t11 -57v-250h-32v109h-218v-109h-32v250zM359 141v109q0 23 -8.5 42.5t-23.5 34.5t-34.5 23.5t-42.5 8.5q-22 0 -42 -8.5t-35 -23.5t-23.5 -34.5t-8.5 -42.5v-109h218zM141 500q0 -22 8.5 -42t23.5 -35t35 -23.5t42 -8.5q23 0 42.5 8.5t34.5 23.5t23.5 35t8.5 42
q0 23 -8.5 42.5t-23.5 34.5t-34.5 23.5t-42.5 8.5q-22 0 -42 -8.5t-35 -23.5t-23.5 -34.5t-8.5 -42.5z" />
    <glyph glyph-name="ae" unicode="&#xe6;" 
d="M40 500q0 30 11 55.5t30 44.5t44.5 30t55.5 11h279v-32h-194v-218h194v-32h-194v-218h194v-32h-217v250h-170v-250h-33v391zM243 391v218h-62q-23 0 -42.5 -8.5t-34 -23.5t-23 -34.5t-8.5 -42.5v-109h170z" />
    <glyph glyph-name="ccedilla" unicode="&#xe7;" 
d="M109 500q0 30 11 55.5t30 44.5t44.5 30t55.5 11t55.5 -11t44.5 -30t30 -44.5t11 -55.5h-32q0 23 -8.5 42.5t-23.5 34.5t-34.5 23.5t-42.5 8.5q-22 0 -42 -8.5t-35 -23.5t-23.5 -34.5t-8.5 -42.5v-250q0 -22 8.5 -42t23.5 -35t35 -23.5t42 -8.5q23 0 42.5 8.5t34.5 23.5
t23.5 35t8.5 42h32q0 -30 -11 -55.5t-30 -44.5t-44.5 -30t-55.5 -11q-22 0 -42 -8.5t-35 -23.5t-23.5 -34.5t-8.5 -42.5h-32q0 32 11 57t30 43q7 8 15.5 14t17.5 11q-9 5 -17.5 11t-15.5 14q-19 18 -30 43t-11 57v250z" />
    <glyph glyph-name="egrave" unicode="&#xe8;" 
d="M141 359v-218h250v-32h-282v391q0 32 11 57t30 43q7 8 15.5 14t17.5 11q-9 5 -17.5 11t-15.5 14q-19 18 -30 43t-11 57h32q0 -22 8.5 -42t23.5 -35t35 -23.5t42 -8.5h141v-32h-141q-22 0 -42 -8.5t-35 -23.5t-23.5 -34.5t-8.5 -42.5v-109h250v-32h-250z" />
    <glyph glyph-name="eacute" unicode="&#xe9;" 
d="M109 109v532h141q23 0 42.5 8.5t34.5 23.5t23.5 35t8.5 42h32q0 -30 -11 -55.5t-30 -44.5t-44.5 -30t-55.5 -11h-109v-218h250v-32h-250v-218h250v-32h-282z" />
    <glyph glyph-name="ecircumflex" unicode="&#xea;" 
d="M109 250q0 30 11 55.5t30 44.5t44.5 30t55.5 11t55.5 -11t44.5 -30t30 -44.5t11 -55.5v-141h-250v-109h-32v250zM141 141h218v109q0 23 -8.5 42.5t-23.5 34.5t-34.5 23.5t-42.5 8.5q-22 0 -42 -8.5t-35 -23.5t-23.5 -34.5t-8.5 -42.5v-109zM109 500q0 30 11 55.5t30 44.5
t44.5 30t55.5 11t55.5 -11t44.5 -30t30 -44.5t11 -55.5h-32q0 23 -8.5 42.5t-23.5 34.5t-34.5 23.5t-42.5 8.5q-22 0 -42 -8.5t-35 -23.5t-23.5 -34.5t-8.5 -42.5h-32z" />
    <glyph glyph-name="edieresis" unicode="&#xeb;" 
d="M141 750v-109h218v109h32v-141h-250v-218h250v-32h-250v-218h250v-32h-282v641h32z" />
    <glyph glyph-name="igrave" unicode="&#xec;" 
d="M234 109v391h32v-391h-32zM266 750q0 -22 8.5 -42t23.5 -35t35 -23.5t42 -8.5v-32q-30 0 -55.5 11t-44.5 30t-30 44.5t-11 55.5h32z" />
    <glyph glyph-name="iacute" unicode="&#xed;" 
d="M234 500h32v-391h-32v391zM125 641q23 0 42.5 8.5t34.5 23.5t23.5 35t8.5 42h32q0 -30 -11 -55.5t-30 -44.5t-44.5 -30t-55.5 -11v32z" />
    <glyph glyph-name="icircumflex" unicode="&#xee;" 
d="M266 500v-391h-32v391h32zM125 641q23 0 42.5 8.5t34.5 23.5t23.5 35t8.5 42h32q0 -22 8.5 -42t23.5 -35t35 -23.5t42 -8.5v-32q-32 0 -57 11t-43 30q-8 7 -14 15.5t-11 17.5q-5 -9 -11 -17.5t-14 -15.5q-18 -19 -43 -30t-57 -11v32z" />
    <glyph glyph-name="idieresis" unicode="&#xef;" 
d="M266 500v-391h-32v391h32zM125 609v32h250v-32h-250z" />
    <glyph glyph-name="eth" unicode="&#xf0;" 
d="M109 109v532h141q30 0 55.5 -11t44.5 -30t30 -44.5t11 -55.5v-250q0 -30 -11 -55.5t-30 -44.5t-44.5 -30t-55.5 -11h-141zM141 359v-218h109q23 0 42.5 8.5t34.5 23.5t23.5 35t8.5 42v250q0 23 -8.5 42.5t-23.5 34.5t-34.5 23.5t-42.5 8.5h-109v-218h109v-32h-109z" />
    <glyph glyph-name="ntilde" unicode="&#xf1;" 
d="M109 109v282h141q30 0 55.5 -11t44.5 -30t30 -44.5t11 -55.5v-141h-32v141q0 23 -8.5 42.5t-23.5 34.5t-34.5 23.5t-42.5 8.5h-109v-250h-32zM109 641h282v-32h-282v32z" />
    <glyph glyph-name="ograve" unicode="&#xf2;" 
d="M109 500q0 32 11 57t30 43q7 8 15.5 14t17.5 11q-9 5 -17.5 11t-15.5 14q-19 18 -30 43t-11 57h32q0 -22 8.5 -42t23.5 -35t35 -23.5t42 -8.5q30 0 55.5 -11t44.5 -30t30 -44.5t11 -55.5v-250q0 -30 -11 -55.5t-30 -44.5t-44.5 -30t-55.5 -11t-55.5 11t-44.5 30t-30 44.5
t-11 55.5v250zM141 250q0 -22 8.5 -42t23.5 -35t35 -23.5t42 -8.5q23 0 42.5 8.5t34.5 23.5t23.5 35t8.5 42v250q0 23 -8.5 42.5t-23.5 34.5t-34.5 23.5t-42.5 8.5q-22 0 -42 -8.5t-35 -23.5t-23.5 -34.5t-8.5 -42.5v-250z" />
    <glyph glyph-name="oacute" unicode="&#xf3;" 
d="M109 500q0 30 11 55.5t30 44.5t44.5 30t55.5 11q23 0 42.5 8.5t34.5 23.5t23.5 35t8.5 42h32q0 -32 -11 -57t-30 -43q-7 -8 -15.5 -14t-17.5 -11q9 -5 17.5 -11t15.5 -14q19 -18 30 -43t11 -57v-250q0 -30 -11 -55.5t-30 -44.5t-44.5 -30t-55.5 -11t-55.5 11t-44.5 30
t-30 44.5t-11 55.5v250zM141 250q0 -22 8.5 -42t23.5 -35t35 -23.5t42 -8.5q23 0 42.5 8.5t34.5 23.5t23.5 35t8.5 42v250q0 23 -8.5 42.5t-23.5 34.5t-34.5 23.5t-42.5 8.5q-22 0 -42 -8.5t-35 -23.5t-23.5 -34.5t-8.5 -42.5v-250z" />
    <glyph glyph-name="ocircumflex" unicode="&#xf4;" 
d="M109 250q0 30 11 55.5t30 44.5t44.5 30t55.5 11t55.5 -11t44.5 -30t30 -44.5t11 -55.5t-11 -55.5t-30 -44.5t-44.5 -30t-55.5 -11t-55.5 11t-44.5 30t-30 44.5t-11 55.5zM141 250q0 -22 8.5 -42t23.5 -35t35 -23.5t42 -8.5q23 0 42.5 8.5t34.5 23.5t23.5 35t8.5 42
q0 23 -8.5 42.5t-23.5 34.5t-34.5 23.5t-42.5 8.5q-22 0 -42 -8.5t-35 -23.5t-23.5 -34.5t-8.5 -42.5zM109 500q0 30 11 55.5t30 44.5t44.5 30t55.5 11t55.5 -11t44.5 -30t30 -44.5t11 -55.5h-32q0 23 -8.5 42.5t-23.5 34.5t-34.5 23.5t-42.5 8.5q-22 0 -42 -8.5t-35 -23.5
t-23.5 -34.5t-8.5 -42.5h-32z" />
    <glyph glyph-name="otilde" unicode="&#xf5;" 
d="M109 250q0 30 11 55.5t30 44.5t44.5 30t55.5 11t55.5 -11t44.5 -30t30 -44.5t11 -55.5t-11 -55.5t-30 -44.5t-44.5 -30t-55.5 -11t-55.5 11t-44.5 30t-30 44.5t-11 55.5zM141 250q0 -22 8.5 -42t23.5 -35t35 -23.5t42 -8.5q23 0 42.5 8.5t34.5 23.5t23.5 35t8.5 42
q0 23 -8.5 42.5t-23.5 34.5t-34.5 23.5t-42.5 8.5q-22 0 -42 -8.5t-35 -23.5t-23.5 -34.5t-8.5 -42.5zM109 500q0 30 11 55.5t30 44.5t44.5 30t55.5 11q23 0 42.5 8.5t34.5 23.5t23.5 35t8.5 42h32q0 -30 -11 -55.5t-30 -44.5t-44.5 -30t-55.5 -11q-22 0 -42 -8.5t-35 -23.5
t-23.5 -34.5t-8.5 -42.5h-32z" />
    <glyph glyph-name="odieresis" unicode="&#xf6;" 
d="M109 250q0 30 11 55.5t30 44.5t44.5 30t55.5 11t55.5 -11t44.5 -30t30 -44.5t11 -55.5t-11 -55.5t-30 -44.5t-44.5 -30t-55.5 -11t-55.5 11t-44.5 30t-30 44.5t-11 55.5zM141 250q0 -22 8.5 -42t23.5 -35t35 -23.5t42 -8.5q23 0 42.5 8.5t34.5 23.5t23.5 35t8.5 42
q0 23 -8.5 42.5t-23.5 34.5t-34.5 23.5t-42.5 8.5q-22 0 -42 -8.5t-35 -23.5t-23.5 -34.5t-8.5 -42.5zM359 500v141h32v-141h-32zM141 641v-141h-32v141h32z" />
    <glyph glyph-name="divide" unicode="&#xf7;" 
d="M118 391h265v-32h-265v32zM234 500v138h32v-138h-32zM266 250v-137h-32v137h32z" />
    <glyph glyph-name="oslash" unicode="&#xf8;" 
d="M109 0q0 32 11 57t30 43q7 8 15.5 14t17.5 11q-9 5 -17.5 11t-15.5 14q-19 18 -30 43t-11 57v250q0 30 11 55.5t30 44.5t44.5 30t55.5 11q23 0 42.5 8.5t34.5 23.5t23.5 35t8.5 42h32q0 -32 -11 -57t-30 -43q-7 -8 -15.5 -14t-17.5 -11q9 -5 17.5 -11t15.5 -14
q19 -18 30 -43t11 -57v-250q0 -30 -11 -55.5t-30 -44.5t-44.5 -30t-55.5 -11q-22 0 -42 -8.5t-35 -23.5t-23.5 -34.5t-8.5 -42.5h-32zM141 250q0 -22 8.5 -42t23.5 -35t35 -23.5t42 -8.5q23 0 42.5 8.5t34.5 23.5t23.5 35t8.5 42v250q0 23 -8.5 42.5t-23.5 34.5t-34.5 23.5
t-42.5 8.5q-22 0 -42 -8.5t-35 -23.5t-23.5 -34.5t-8.5 -42.5v-250z" />
    <glyph glyph-name="ugrave" unicode="&#xf9;" 
d="M109 500h32v-250q0 -22 8.5 -42t23.5 -35t35 -23.5t42 -8.5q23 0 42.5 8.5t34.5 23.5t23.5 35t8.5 42v250h32v-250q0 -30 -11 -55.5t-30 -44.5t-44.5 -30t-55.5 -11t-55.5 11t-44.5 30t-30 44.5t-11 55.5v250zM141 750q0 -22 8.5 -42t23.5 -35t35 -23.5t42 -8.5v-32
q-30 0 -55.5 11t-44.5 30t-30 44.5t-11 55.5h32z" />
    <glyph glyph-name="uacute" unicode="&#xfa;" 
d="M109 500h32v-250q0 -22 8.5 -42t23.5 -35t35 -23.5t42 -8.5q23 0 42.5 8.5t34.5 23.5t23.5 35t8.5 42v250h32v-250q0 -30 -11 -55.5t-30 -44.5t-44.5 -30t-55.5 -11t-55.5 11t-44.5 30t-30 44.5t-11 55.5v250zM250 641q23 0 42.5 8.5t34.5 23.5t23.5 35t8.5 42h32
q0 -30 -11 -55.5t-30 -44.5t-44.5 -30t-55.5 -11v32z" />
    <glyph glyph-name="ucircumflex" unicode="&#xfb;" 
d="M109 391h32v-141q0 -22 8.5 -42t23.5 -35t35 -23.5t42 -8.5q23 0 42.5 8.5t34.5 23.5t23.5 35t8.5 42v141h32v-141q0 -30 -11 -55.5t-30 -44.5t-44.5 -30t-55.5 -11t-55.5 11t-44.5 30t-30 44.5t-11 55.5v141zM109 500q0 30 11 55.5t30 44.5t44.5 30t55.5 11t55.5 -11
t44.5 -30t30 -44.5t11 -55.5h-32q0 23 -8.5 42.5t-23.5 34.5t-34.5 23.5t-42.5 8.5q-22 0 -42 -8.5t-35 -23.5t-23.5 -34.5t-8.5 -42.5h-32z" />
    <glyph glyph-name="udieresis" unicode="&#xfc;" 
d="M141 500v-250q0 -22 8.5 -42t23.5 -35t35 -23.5t42 -8.5q23 0 42.5 8.5t34.5 23.5t23.5 35t8.5 42v250h32v-250q0 -30 -11 -55.5t-30 -44.5t-44.5 -30t-55.5 -11t-55.5 11t-44.5 30t-30 44.5t-11 55.5v250h32zM359 750h32v-141h-32v141zM109 609v141h32v-141h-32z" />
    <glyph glyph-name="yacute" unicode="&#xfd;" 
d="M109 250v250h32v-250q0 -22 8.5 -42t23.5 -35t35 -23.5t42 -8.5h109v359h32v-500h-32v109h-109q-30 0 -55.5 11t-44.5 30t-30 44.5t-11 55.5zM250 609v32q23 0 42.5 8.5t34.5 23.5t23.5 35t8.5 42h32q0 -30 -11 -55.5t-30 -44.5t-44.5 -30t-55.5 -11z" />
    <glyph glyph-name="thorn" unicode="&#xfe;" 
d="M141 641v-118h109q30 0 55.5 -11t44.5 -30.5t30 -45t11 -55.5t-11 -55.5t-30 -44.5t-44.5 -30t-55.5 -11h-109v-131h-32v532h32zM141 490v-217h109q23 0 42.5 8.5t34.5 23t23.5 34t8.5 42.5t-8.5 42.5t-23.5 34.5t-34.5 23.5t-42.5 8.5h-109z" />
    <glyph glyph-name="ydieresis" unicode="&#xff;" 
d="M109 391h32v-141q0 -22 8.5 -42t23.5 -35t35 -23.5t42 -8.5h109v250h32v-391h-32v109h-109q-30 0 -55.5 11t-44.5 30t-30 44.5t-11 55.5v141zM359 500v141h32v-141h-32zM109 641h32v-141h-32v141z" />
    <glyph glyph-name="Amacron" unicode="&#x100;" 
d="M109 250q0 30 11 55.5t30 44.5t44.5 30t55.5 11t55.5 -11t44.5 -30t30 -44.5t11 -55.5v-250h-32v109h-218v-109h-32v250zM359 141v109q0 23 -8.5 42.5t-23.5 34.5t-34.5 23.5t-42.5 8.5q-22 0 -42 -8.5t-35 -23.5t-23.5 -34.5t-8.5 -42.5v-109h218zM109 641h282v-32h-282
v32z" />
    <glyph glyph-name="amacron" unicode="&#x101;" 
d="M109 250q0 30 11 55.5t30 44.5t44.5 30t55.5 11t55.5 -11t44.5 -30t30 -44.5t11 -55.5v-250h-32v109h-218v-109h-32v250zM359 141v109q0 23 -8.5 42.5t-23.5 34.5t-34.5 23.5t-42.5 8.5q-22 0 -42 -8.5t-35 -23.5t-23.5 -34.5t-8.5 -42.5v-109h218zM109 641h282v-32h-282
v32z" />
    <glyph glyph-name="Abreve" unicode="&#x102;" 
d="M109 500q0 32 11 57t30 43q7 8 15.5 14t17.5 11q-9 5 -17.5 11t-15.5 14q-19 18 -30 43t-11 57h32q0 -22 8.5 -42t23.5 -35t35 -23.5t42 -8.5q23 0 42.5 8.5t34.5 23.5t23.5 35t8.5 42h32q0 -32 -11 -57t-30 -43q-7 -8 -15.5 -14t-17.5 -11q9 -5 17.5 -11t15.5 -14
q19 -18 30 -43t11 -57v-391h-32v250h-218v-250h-32v391zM359 391v109q0 23 -8.5 42.5t-23.5 34.5t-34.5 23.5t-42.5 8.5q-22 0 -42 -8.5t-35 -23.5t-23.5 -34.5t-8.5 -42.5v-109h218z" />
    <glyph glyph-name="abreve" unicode="&#x103;" 
d="M109 500q0 32 11 57t30 43q7 8 15.5 14t17.5 11q-9 5 -17.5 11t-15.5 14q-19 18 -30 43t-11 57h32q0 -22 8.5 -42t23.5 -35t35 -23.5t42 -8.5q23 0 42.5 8.5t34.5 23.5t23.5 35t8.5 42h32q0 -32 -11 -57t-30 -43q-7 -8 -15.5 -14t-17.5 -11q9 -5 17.5 -11t15.5 -14
q19 -18 30 -43t11 -57v-391h-32v250h-218v-250h-32v391zM359 391v109q0 23 -8.5 42.5t-23.5 34.5t-34.5 23.5t-42.5 8.5q-22 0 -42 -8.5t-35 -23.5t-23.5 -34.5t-8.5 -42.5v-109h218z" />
    <glyph glyph-name="Aogonek" unicode="&#x104;" 
d="M109 500q0 30 11 55.5t30 44.5t44.5 30t55.5 11t55.5 -11t44.5 -30t30 -44.5t11 -55.5v-500h-32v359h-218v-250h-32v391zM359 391v109q0 23 -8.5 42.5t-23.5 34.5t-34.5 23.5t-42.5 8.5q-22 0 -42 -8.5t-35 -23.5t-23.5 -34.5t-8.5 -42.5v-109h218z" />
    <glyph glyph-name="aogonek" unicode="&#x105;" 
d="M109 500q0 30 11 55.5t30 44.5t44.5 30t55.5 11t55.5 -11t44.5 -30t30 -44.5t11 -55.5v-500h-32v359h-218v-250h-32v391zM359 391v109q0 23 -8.5 42.5t-23.5 34.5t-34.5 23.5t-42.5 8.5q-22 0 -42 -8.5t-35 -23.5t-23.5 -34.5t-8.5 -42.5v-109h218z" />
    <glyph glyph-name="Cacute" unicode="&#x106;" 
d="M109 500q0 30 11 55.5t30 44.5t44.5 30t55.5 11q23 0 42.5 8.5t34.5 23.5t23.5 35t8.5 42h32q0 -32 -11 -57t-30 -43q-7 -8 -15.5 -14t-17.5 -11q9 -5 17.5 -11t15.5 -14q19 -18 30 -43t11 -57h-32q0 23 -8.5 42.5t-23.5 34.5t-34.5 23.5t-42.5 8.5q-22 0 -42 -8.5
t-35 -23.5t-23.5 -34.5t-8.5 -42.5v-250q0 -22 8.5 -42t23.5 -35t35 -23.5t42 -8.5q23 0 42.5 8.5t34.5 23.5t23.5 35t8.5 42h32q0 -30 -11 -55.5t-30 -44.5t-44.5 -30t-55.5 -11t-55.5 11t-44.5 30t-30 44.5t-11 55.5v250z" />
    <glyph glyph-name="cacute" unicode="&#x107;" 
d="M109 500q0 30 11 55.5t30 44.5t44.5 30t55.5 11q23 0 42.5 8.5t34.5 23.5t23.5 35t8.5 42h32q0 -32 -11 -57t-30 -43q-7 -8 -15.5 -14t-17.5 -11q9 -5 17.5 -11t15.5 -14q19 -18 30 -43t11 -57h-32q0 23 -8.5 42.5t-23.5 34.5t-34.5 23.5t-42.5 8.5q-22 0 -42 -8.5
t-35 -23.5t-23.5 -34.5t-8.5 -42.5v-250q0 -22 8.5 -42t23.5 -35t35 -23.5t42 -8.5q23 0 42.5 8.5t34.5 23.5t23.5 35t8.5 42h32q0 -30 -11 -55.5t-30 -44.5t-44.5 -30t-55.5 -11t-55.5 11t-44.5 30t-30 44.5t-11 55.5v250z" />
    <glyph glyph-name="Ccircumflex" unicode="&#x108;" 
d="M109 250q0 30 11 55.5t30 44.5t44.5 30t55.5 11t55.5 -11t44.5 -30t30 -44.5t11 -55.5h-32q0 23 -8.5 42.5t-23.5 34.5t-34.5 23.5t-42.5 8.5q-22 0 -42 -8.5t-35 -23.5t-23.5 -34.5t-8.5 -42.5q0 -22 8.5 -42t23.5 -35t35 -23.5t42 -8.5h141v-32h-141q-30 0 -55.5 11
t-44.5 30t-30 44.5t-11 55.5zM109 500q0 30 11 55.5t30 44.5t44.5 30t55.5 11t55.5 -11t44.5 -30t30 -44.5t11 -55.5h-32q0 23 -8.5 42.5t-23.5 34.5t-34.5 23.5t-42.5 8.5q-22 0 -42 -8.5t-35 -23.5t-23.5 -34.5t-8.5 -42.5h-32z" />
    <glyph glyph-name="ccircumflex" unicode="&#x109;" 
d="M109 250q0 30 11 55.5t30 44.5t44.5 30t55.5 11t55.5 -11t44.5 -30t30 -44.5t11 -55.5h-32q0 23 -8.5 42.5t-23.5 34.5t-34.5 23.5t-42.5 8.5q-22 0 -42 -8.5t-35 -23.5t-23.5 -34.5t-8.5 -42.5q0 -22 8.5 -42t23.5 -35t35 -23.5t42 -8.5h141v-32h-141q-30 0 -55.5 11
t-44.5 30t-30 44.5t-11 55.5zM109 500q0 30 11 55.5t30 44.5t44.5 30t55.5 11t55.5 -11t44.5 -30t30 -44.5t11 -55.5h-32q0 23 -8.5 42.5t-23.5 34.5t-34.5 23.5t-42.5 8.5q-22 0 -42 -8.5t-35 -23.5t-23.5 -34.5t-8.5 -42.5h-32z" />
    <glyph glyph-name="Cdotaccent" unicode="&#x10a;" 
d="M109 500q0 30 11 55.5t30 44.5t44.5 30t55.5 11h109v109h32v-141h-141q-22 0 -42 -8.5t-35 -23.5t-23.5 -34.5t-8.5 -42.5v-250q0 -22 8.5 -42t23.5 -35t35 -23.5t42 -8.5q23 0 42.5 8.5t34.5 23.5t23.5 35t8.5 42h32q0 -30 -11 -55.5t-30 -44.5t-44.5 -30t-55.5 -11
t-55.5 11t-44.5 30t-30 44.5t-11 55.5v250z" />
    <glyph glyph-name="cdotaccent" unicode="&#x10b;" 
d="M109 500q0 30 11 55.5t30 44.5t44.5 30t55.5 11h109v109h32v-141h-141q-22 0 -42 -8.5t-35 -23.5t-23.5 -34.5t-8.5 -42.5v-250q0 -22 8.5 -42t23.5 -35t35 -23.5t42 -8.5q23 0 42.5 8.5t34.5 23.5t23.5 35t8.5 42h32q0 -30 -11 -55.5t-30 -44.5t-44.5 -30t-55.5 -11
t-55.5 11t-44.5 30t-30 44.5t-11 55.5v250z" />
    <glyph glyph-name="Ccaron" unicode="&#x10c;" 
d="M109 500q0 32 11 57t30 43q7 8 15.5 14t17.5 11q-9 5 -17.5 11t-15.5 14q-19 18 -30 43t-11 57h32q0 -22 8.5 -42t23.5 -35t35 -23.5t42 -8.5q23 0 42.5 8.5t34.5 23.5t23.5 35t8.5 42h32q0 -32 -11 -57t-30 -43q-7 -8 -15.5 -14t-17.5 -11q9 -5 17.5 -11t15.5 -14
q19 -18 30 -43t11 -57h-32q0 23 -8.5 42.5t-23.5 34.5t-34.5 23.5t-42.5 8.5q-22 0 -42 -8.5t-35 -23.5t-23.5 -34.5t-8.5 -42.5v-250q0 -22 8.5 -42t23.5 -35t35 -23.5t42 -8.5q23 0 42.5 8.5t34.5 23.5t23.5 35t8.5 42h32q0 -30 -11 -55.5t-30 -44.5t-44.5 -30t-55.5 -11
t-55.5 11t-44.5 30t-30 44.5t-11 55.5v250z" />
    <glyph glyph-name="ccaron" unicode="&#x10d;" 
d="M109 500q0 32 11 57t30 43q7 8 15.5 14t17.5 11q-9 5 -17.5 11t-15.5 14q-19 18 -30 43t-11 57h32q0 -22 8.5 -42t23.5 -35t35 -23.5t42 -8.5q23 0 42.5 8.5t34.5 23.5t23.5 35t8.5 42h32q0 -32 -11 -57t-30 -43q-7 -8 -15.5 -14t-17.5 -11q9 -5 17.5 -11t15.5 -14
q19 -18 30 -43t11 -57h-32q0 23 -8.5 42.5t-23.5 34.5t-34.5 23.5t-42.5 8.5q-22 0 -42 -8.5t-35 -23.5t-23.5 -34.5t-8.5 -42.5v-250q0 -22 8.5 -42t23.5 -35t35 -23.5t42 -8.5q23 0 42.5 8.5t34.5 23.5t23.5 35t8.5 42h32q0 -30 -11 -55.5t-30 -44.5t-44.5 -30t-55.5 -11
t-55.5 11t-44.5 30t-30 44.5t-11 55.5v250z" />
    <glyph glyph-name="Dcaron" unicode="&#x10e;" 
d="M109 109v391q0 32 11 57t30 43q7 8 15.5 14t17.5 11q-9 5 -17.5 11t-15.5 14q-19 18 -30 43t-11 57h32q0 -22 8.5 -42t23.5 -35t35 -23.5t42 -8.5q23 0 42.5 8.5t34.5 23.5t23.5 35t8.5 42h32q0 -32 -11 -57t-30 -43q-7 -8 -15.5 -14t-17.5 -11q9 -5 17.5 -11t15.5 -14
q19 -18 30 -43t11 -57v-250q0 -30 -11 -55.5t-30 -44.5t-44.5 -30t-55.5 -11h-141zM141 141h109q23 0 42.5 8.5t34.5 23.5t23.5 35t8.5 42v250q0 23 -8.5 42.5t-23.5 34.5t-34.5 23.5t-42.5 8.5q-22 0 -42 -8.5t-35 -23.5t-23.5 -34.5t-8.5 -42.5v-359z" />
    <glyph glyph-name="dcaron" unicode="&#x10f;" 
d="M109 109v391q0 32 11 57t30 43q7 8 15.5 14t17.5 11q-9 5 -17.5 11t-15.5 14q-19 18 -30 43t-11 57h32q0 -22 8.5 -42t23.5 -35t35 -23.5t42 -8.5q23 0 42.5 8.5t34.5 23.5t23.5 35t8.5 42h32q0 -32 -11 -57t-30 -43q-7 -8 -15.5 -14t-17.5 -11q9 -5 17.5 -11t15.5 -14
q19 -18 30 -43t11 -57v-250q0 -30 -11 -55.5t-30 -44.5t-44.5 -30t-55.5 -11h-141zM141 141h109q23 0 42.5 8.5t34.5 23.5t23.5 35t8.5 42v250q0 23 -8.5 42.5t-23.5 34.5t-34.5 23.5t-42.5 8.5q-22 0 -42 -8.5t-35 -23.5t-23.5 -34.5t-8.5 -42.5v-359z" />
    <glyph glyph-name="Dcroat" unicode="&#x110;" 
d="M109 109v532h141q30 0 55.5 -11t44.5 -30t30 -44.5t11 -55.5v-250q0 -30 -11 -55.5t-30 -44.5t-44.5 -30t-55.5 -11h-141zM141 359v-218h109q23 0 42.5 8.5t34.5 23.5t23.5 35t8.5 42v250q0 23 -8.5 42.5t-23.5 34.5t-34.5 23.5t-42.5 8.5h-109v-218h109v-32h-109z" />
    <glyph glyph-name="dcroat" unicode="&#x111;" 
d="M109 109v532h141q30 0 55.5 -11t44.5 -30t30 -44.5t11 -55.5v-250q0 -30 -11 -55.5t-30 -44.5t-44.5 -30t-55.5 -11h-141zM141 359v-218h109q23 0 42.5 8.5t34.5 23.5t23.5 35t8.5 42v250q0 23 -8.5 42.5t-23.5 34.5t-34.5 23.5t-42.5 8.5h-109v-218h109v-32h-109z" />
    <glyph glyph-name="Emacron" unicode="&#x112;" 
d="M109 250q0 30 11 55.5t30 44.5t44.5 30t55.5 11t55.5 -11t44.5 -30t30 -44.5t11 -55.5v-141h-250v-109h-32v250zM141 141h218v109q0 23 -8.5 42.5t-23.5 34.5t-34.5 23.5t-42.5 8.5q-22 0 -42 -8.5t-35 -23.5t-23.5 -34.5t-8.5 -42.5v-109zM109 641h282v-32h-282v32z" />
    <glyph glyph-name="emacron" unicode="&#x113;" 
d="M109 250q0 30 11 55.5t30 44.5t44.5 30t55.5 11t55.5 -11t44.5 -30t30 -44.5t11 -55.5v-141h-250v-109h-32v250zM141 141h218v109q0 23 -8.5 42.5t-23.5 34.5t-34.5 23.5t-42.5 8.5q-22 0 -42 -8.5t-35 -23.5t-23.5 -34.5t-8.5 -42.5v-109zM109 641h282v-32h-282v32z" />
    <glyph glyph-name="Ebreve" unicode="&#x114;" 
d="M141 750q0 -22 8.5 -42t23.5 -35t35 -23.5t42 -8.5q23 0 42.5 8.5t34.5 23.5t23.5 35t8.5 42h32q0 -32 -11 -57t-30 -43q-7 -8 -15.5 -14t-17.5 -11q9 -5 17.5 -11t15.5 -14q19 -18 30 -43t11 -57h-32q0 23 -8.5 42.5t-23.5 34.5t-34.5 23.5t-42.5 8.5q-22 0 -42 -8.5
t-35 -23.5t-23.5 -34.5t-8.5 -42.5v-109h250v-32h-250v-218h250v-32h-282v391q0 32 11 57t30 43q7 8 15.5 14t17.5 11q-9 5 -17.5 11t-15.5 14q-19 18 -30 43t-11 57h32z" />
    <glyph glyph-name="ebreve" unicode="&#x115;" 
d="M141 750q0 -22 8.5 -42t23.5 -35t35 -23.5t42 -8.5q23 0 42.5 8.5t34.5 23.5t23.5 35t8.5 42h32q0 -32 -11 -57t-30 -43q-7 -8 -15.5 -14t-17.5 -11q9 -5 17.5 -11t15.5 -14q19 -18 30 -43t11 -57h-32q0 23 -8.5 42.5t-23.5 34.5t-34.5 23.5t-42.5 8.5q-22 0 -42 -8.5
t-35 -23.5t-23.5 -34.5t-8.5 -42.5v-109h250v-32h-250v-218h250v-32h-282v391q0 32 11 57t30 43q7 8 15.5 14t17.5 11q-9 5 -17.5 11t-15.5 14q-19 18 -30 43t-11 57h32z" />
    <glyph glyph-name="Edotaccent" unicode="&#x116;" 
d="M359 641v109h32v-141h-250v-218h250v-32h-250v-218h250v-32h-282v532h250z" />
    <glyph glyph-name="edotaccent" unicode="&#x117;" 
d="M359 641v109h32v-141h-250v-218h250v-32h-250v-218h250v-32h-282v532h250z" />
    <glyph glyph-name="Eogonek" unicode="&#x118;" 
d="M109 250v391h282v-32h-250v-218h250v-32h-250v-109q0 -22 8.5 -42t23.5 -35t35 -23.5t42 -8.5h141v-32h-141q-22 0 -42 -8.5t-35 -23.5t-23.5 -34.5t-8.5 -42.5h-32q0 32 11 57t30 43q7 8 15.5 14t17.5 11q-9 5 -17.5 11t-15.5 14q-19 18 -30 43t-11 57z" />
    <glyph glyph-name="eogonek" unicode="&#x119;" 
d="M109 250v391h282v-32h-250v-218h250v-32h-250v-109q0 -22 8.5 -42t23.5 -35t35 -23.5t42 -8.5h141v-32h-141q-22 0 -42 -8.5t-35 -23.5t-23.5 -34.5t-8.5 -42.5h-32q0 32 11 57t30 43q7 8 15.5 14t17.5 11q-9 5 -17.5 11t-15.5 14q-19 18 -30 43t-11 57z" />
    <glyph glyph-name="Ecaron" unicode="&#x11a;" 
d="M141 750q0 -22 8.5 -42t23.5 -35t35 -23.5t42 -8.5q23 0 42.5 8.5t34.5 23.5t23.5 35t8.5 42h32q0 -32 -11 -57t-30 -43q-7 -8 -15.5 -14t-17.5 -11q9 -5 17.5 -11t15.5 -14q19 -18 30 -43t11 -57h-32q0 23 -8.5 42.5t-23.5 34.5t-34.5 23.5t-42.5 8.5q-22 0 -42 -8.5
t-35 -23.5t-23.5 -34.5t-8.5 -42.5v-109h250v-32h-250v-218h250v-32h-282v391q0 32 11 57t30 43q7 8 15.5 14t17.5 11q-9 5 -17.5 11t-15.5 14q-19 18 -30 43t-11 57h32z" />
    <glyph glyph-name="ecaron" unicode="&#x11b;" 
d="M141 750q0 -22 8.5 -42t23.5 -35t35 -23.5t42 -8.5q23 0 42.5 8.5t34.5 23.5t23.5 35t8.5 42h32q0 -32 -11 -57t-30 -43q-7 -8 -15.5 -14t-17.5 -11q9 -5 17.5 -11t15.5 -14q19 -18 30 -43t11 -57h-32q0 23 -8.5 42.5t-23.5 34.5t-34.5 23.5t-42.5 8.5q-22 0 -42 -8.5
t-35 -23.5t-23.5 -34.5t-8.5 -42.5v-109h250v-32h-250v-218h250v-32h-282v391q0 32 11 57t30 43q7 8 15.5 14t17.5 11q-9 5 -17.5 11t-15.5 14q-19 18 -30 43t-11 57h32z" />
    <glyph glyph-name="Gcircumflex" unicode="&#x11c;" 
d="M109 250q0 30 11 55.5t30 44.5t44.5 30t55.5 11h141v-32h-141q-22 0 -42 -8.5t-35 -23.5t-23.5 -34.5t-8.5 -42.5q0 -22 8.5 -42t23.5 -35t35 -23.5t42 -8.5h109v109h32v-141h-141q-30 0 -55.5 11t-44.5 30t-30 44.5t-11 55.5zM109 500q0 30 11 55.5t30 44.5t44.5 30
t55.5 11t55.5 -11t44.5 -30t30 -44.5t11 -55.5h-32q0 23 -8.5 42.5t-23.5 34.5t-34.5 23.5t-42.5 8.5q-22 0 -42 -8.5t-35 -23.5t-23.5 -34.5t-8.5 -42.5h-32z" />
    <glyph glyph-name="gcircumflex" unicode="&#x11d;" 
d="M109 250q0 30 11 55.5t30 44.5t44.5 30t55.5 11h141v-32h-141q-22 0 -42 -8.5t-35 -23.5t-23.5 -34.5t-8.5 -42.5q0 -22 8.5 -42t23.5 -35t35 -23.5t42 -8.5h109v109h32v-141h-141q-30 0 -55.5 11t-44.5 30t-30 44.5t-11 55.5zM109 500q0 30 11 55.5t30 44.5t44.5 30
t55.5 11t55.5 -11t44.5 -30t30 -44.5t11 -55.5h-32q0 23 -8.5 42.5t-23.5 34.5t-34.5 23.5t-42.5 8.5q-22 0 -42 -8.5t-35 -23.5t-23.5 -34.5t-8.5 -42.5h-32z" />
    <glyph glyph-name="Gbreve" unicode="&#x11e;" 
d="M141 750q0 -22 8.5 -42t23.5 -35t35 -23.5t42 -8.5q23 0 42.5 8.5t34.5 23.5t23.5 35t8.5 42h32q0 -32 -11 -57t-30 -43q-7 -8 -15.5 -14t-17.5 -11q9 -5 17.5 -11t15.5 -14q19 -18 30 -43t11 -57h-32q0 23 -8.5 42.5t-23.5 34.5t-34.5 23.5t-42.5 8.5q-22 0 -42 -8.5
t-35 -23.5t-23.5 -34.5t-8.5 -42.5v-250q0 -22 8.5 -42t23.5 -35t35 -23.5t42 -8.5q23 0 42.5 8.5t34.5 23.5t23.5 35t8.5 42v109h-109v32h141v-141q0 -30 -11 -55.5t-30 -44.5t-44.5 -30t-55.5 -11t-55.5 11t-44.5 30t-30 44.5t-11 55.5v250q0 32 11 57t30 43q7 8 15.5 14
t17.5 11q-9 5 -17.5 11t-15.5 14q-19 18 -30 43t-11 57h32z" />
    <glyph glyph-name="gbreve" unicode="&#x11f;" 
d="M141 750q0 -22 8.5 -42t23.5 -35t35 -23.5t42 -8.5q23 0 42.5 8.5t34.5 23.5t23.5 35t8.5 42h32q0 -32 -11 -57t-30 -43q-7 -8 -15.5 -14t-17.5 -11q9 -5 17.5 -11t15.5 -14q19 -18 30 -43t11 -57h-32q0 23 -8.5 42.5t-23.5 34.5t-34.5 23.5t-42.5 8.5q-22 0 -42 -8.5
t-35 -23.5t-23.5 -34.5t-8.5 -42.5v-250q0 -22 8.5 -42t23.5 -35t35 -23.5t42 -8.5q23 0 42.5 8.5t34.5 23.5t23.5 35t8.5 42v109h-109v32h141v-141q0 -30 -11 -55.5t-30 -44.5t-44.5 -30t-55.5 -11t-55.5 11t-44.5 30t-30 44.5t-11 55.5v250q0 32 11 57t30 43q7 8 15.5 14
t17.5 11q-9 5 -17.5 11t-15.5 14q-19 18 -30 43t-11 57h32z" />
    <glyph glyph-name="Gdotaccent" unicode="&#x120;" 
d="M109 500q0 30 11 55.5t30 44.5t44.5 30t55.5 11q23 0 42.5 8.5t34.5 23.5t23.5 35t8.5 42h32q0 -32 -11 -57t-30 -43q-7 -8 -15.5 -14t-17.5 -11q9 -5 17.5 -11t15.5 -14q19 -18 30 -43t11 -57h-32q0 23 -8.5 42.5t-23.5 34.5t-34.5 23.5t-42.5 8.5q-22 0 -42 -8.5
t-35 -23.5t-23.5 -34.5t-8.5 -42.5v-250q0 -22 8.5 -42t23.5 -35t35 -23.5t42 -8.5q23 0 42.5 8.5t34.5 23.5t23.5 35t8.5 42v109h-109v32h141v-141q0 -30 -11 -55.5t-30 -44.5t-44.5 -30t-55.5 -11t-55.5 11t-44.5 30t-30 44.5t-11 55.5v250z" />
    <glyph glyph-name="gdotaccent" unicode="&#x121;" 
d="M109 500q0 30 11 55.5t30 44.5t44.5 30t55.5 11q23 0 42.5 8.5t34.5 23.5t23.5 35t8.5 42h32q0 -32 -11 -57t-30 -43q-7 -8 -15.5 -14t-17.5 -11q9 -5 17.5 -11t15.5 -14q19 -18 30 -43t11 -57h-32q0 23 -8.5 42.5t-23.5 34.5t-34.5 23.5t-42.5 8.5q-22 0 -42 -8.5
t-35 -23.5t-23.5 -34.5t-8.5 -42.5v-250q0 -22 8.5 -42t23.5 -35t35 -23.5t42 -8.5q23 0 42.5 8.5t34.5 23.5t23.5 35t8.5 42v109h-109v32h141v-141q0 -30 -11 -55.5t-30 -44.5t-44.5 -30t-55.5 -11t-55.5 11t-44.5 30t-30 44.5t-11 55.5v250z" />
    <glyph glyph-name="uni0122" unicode="&#x122;" 
d="M109 500q0 30 11 55.5t30 44.5t44.5 30t55.5 11t55.5 -11t44.5 -30t30 -44.5t11 -55.5h-32q0 23 -8.5 42.5t-23.5 34.5t-34.5 23.5t-42.5 8.5q-22 0 -42 -8.5t-35 -23.5t-23.5 -34.5t-8.5 -42.5v-250q0 -22 8.5 -42t23.5 -35t35 -23.5t42 -8.5q23 0 42.5 8.5t34.5 23.5
t23.5 35t8.5 42v109h-109v32h141v-141q0 -30 -11 -55.5t-30 -44.5t-44.5 -30t-55.5 -11q-22 0 -42 -8.5t-35 -23.5t-23.5 -34.5t-8.5 -42.5h-32q0 32 11 57t30 43q7 8 15.5 14t17.5 11q-9 5 -17.5 11t-15.5 14q-19 18 -30 43t-11 57v250z" />
    <glyph glyph-name="uni0123" unicode="&#x123;" 
d="M109 500q0 30 11 55.5t30 44.5t44.5 30t55.5 11t55.5 -11t44.5 -30t30 -44.5t11 -55.5h-32q0 23 -8.5 42.5t-23.5 34.5t-34.5 23.5t-42.5 8.5q-22 0 -42 -8.5t-35 -23.5t-23.5 -34.5t-8.5 -42.5v-250q0 -22 8.5 -42t23.5 -35t35 -23.5t42 -8.5q23 0 42.5 8.5t34.5 23.5
t23.5 35t8.5 42v109h-109v32h141v-141q0 -30 -11 -55.5t-30 -44.5t-44.5 -30t-55.5 -11q-22 0 -42 -8.5t-35 -23.5t-23.5 -34.5t-8.5 -42.5h-32q0 32 11 57t30 43q7 8 15.5 14t17.5 11q-9 5 -17.5 11t-15.5 14q-19 18 -30 43t-11 57v250z" />
    <glyph glyph-name="Hcircumflex" unicode="&#x124;" 
d="M141 391v-250h218v250h32v-391h-32v109h-218v-109h-32v391h32zM109 500q0 30 11 55.5t30 44.5t44.5 30t55.5 11t55.5 -11t44.5 -30t30 -44.5t11 -55.5h-32q0 23 -8.5 42.5t-23.5 34.5t-34.5 23.5t-42.5 8.5q-22 0 -42 -8.5t-35 -23.5t-23.5 -34.5t-8.5 -42.5h-32z" />
    <glyph glyph-name="hcircumflex" unicode="&#x125;" 
d="M141 391v-250h218v250h32v-391h-32v109h-218v-109h-32v391h32zM109 500q0 30 11 55.5t30 44.5t44.5 30t55.5 11t55.5 -11t44.5 -30t30 -44.5t11 -55.5h-32q0 23 -8.5 42.5t-23.5 34.5t-34.5 23.5t-42.5 8.5q-22 0 -42 -8.5t-35 -23.5t-23.5 -34.5t-8.5 -42.5h-32z" />
    <glyph glyph-name="Hbar" unicode="&#x126;" 
d="M109 109v641h32v-109h218v109h32v-641h-32v250h-218v-250h-32zM141 391h218v218h-218v-218z" />
    <glyph glyph-name="hbar" unicode="&#x127;" 
d="M109 109v641h32v-109h218v109h32v-641h-32v250h-218v-250h-32zM141 391h218v218h-218v-218z" />
    <glyph glyph-name="Itilde" unicode="&#x128;" 
d="M266 500v-391h-32v391h32zM125 609v32h250v-32h-250z" />
    <glyph glyph-name="itilde" unicode="&#x129;" 
d="M266 500v-391h-32v391h32zM125 609v32h250v-32h-250z" />
    <glyph glyph-name="Imacron" unicode="&#x12a;" 
d="M266 500v-391h-32v391h32zM125 609v32h250v-32h-250z" />
    <glyph glyph-name="imacron" unicode="&#x12b;" 
d="M266 500v-391h-32v391h32zM125 609v32h250v-32h-250z" />
    <glyph glyph-name="Ibreve" unicode="&#x12c;" 
d="M125 609v32q32 0 57 -11t43 -30q8 -7 14 -15.5t11 -17.5q5 9 11 17.5t14 15.5q18 19 43 30t57 11v-32q-22 0 -42 -8.5t-35 -23.5t-23.5 -34.5t-8.5 -42.5v-391h-32v391q0 23 -8.5 42.5t-23.5 34.5t-34.5 23.5t-42.5 8.5z" />
    <glyph glyph-name="ibreve" unicode="&#x12d;" 
d="M125 609v32q32 0 57 -11t43 -30q8 -7 14 -15.5t11 -17.5q5 9 11 17.5t14 15.5q18 19 43 30t57 11v-32q-22 0 -42 -8.5t-35 -23.5t-23.5 -34.5t-8.5 -42.5v-391h-32v391q0 23 -8.5 42.5t-23.5 34.5t-34.5 23.5t-42.5 8.5z" />
    <glyph glyph-name="Iogonek" unicode="&#x12e;" 
d="M266 641v-641h-32v641h32z" />
    <glyph glyph-name="iogonek" unicode="&#x12f;" 
d="M266 641v-641h-32v641h32z" />
    <glyph glyph-name="Idotaccent" unicode="&#x130;" 
d="M266 500v-391h-32v391h32zM234 609v141h32v-141h-32z" />
    <glyph glyph-name="dotlessi" unicode="&#x131;" 
d="M118 109v32h116v468h-116v32h265v-32h-117v-468h117v-32h-265z" />
    <glyph glyph-name="Jcircumflex" unicode="&#x134;" 
d="M109 250h32q0 -22 8.5 -42t23.5 -35t35 -23.5t42 -8.5q23 0 42.5 8.5t34.5 23.5t23.5 35t8.5 42v250h32v-250q0 -30 -11 -55.5t-30 -44.5t-44.5 -30t-55.5 -11t-55.5 11t-44.5 30t-30 44.5t-11 55.5zM250 641q23 0 42.5 8.5t34.5 23.5t23.5 35t8.5 42h32q0 -22 8.5 -42
t23.5 -35t35 -23.5t42 -8.5v-32q-32 0 -57 11t-43 30q-8 7 -14 15.5t-11 17.5q-5 -9 -11 -17.5t-14 -15.5q-18 -19 -43 -30t-57 -11v32z" />
    <glyph glyph-name="jcircumflex" unicode="&#x135;" 
d="M109 250h32q0 -22 8.5 -42t23.5 -35t35 -23.5t42 -8.5q23 0 42.5 8.5t34.5 23.5t23.5 35t8.5 42v250h32v-250q0 -30 -11 -55.5t-30 -44.5t-44.5 -30t-55.5 -11t-55.5 11t-44.5 30t-30 44.5t-11 55.5zM250 641q23 0 42.5 8.5t34.5 23.5t23.5 35t8.5 42h32q0 -22 8.5 -42
t23.5 -35t35 -23.5t42 -8.5v-32q-32 0 -57 11t-43 30q-8 7 -14 15.5t-11 17.5q-5 -9 -11 -17.5t-14 -15.5q-18 -19 -43 -30t-57 -11v32z" />
    <glyph glyph-name="uni0136" unicode="&#x136;" 
d="M141 641v-250h109q23 0 42.5 8.5t34.5 23.5t23.5 35t8.5 42v141h32v-141q0 -28 -8.5 -50.5t-23.5 -39.5q-3 -4 -9 -10q-7 -8 -15.5 -14t-17.5 -11q9 -5 17.5 -11t15.5 -14q6 -6 9 -10q15 -17 23.5 -39.5t8.5 -50.5v-141h-141v32h109v109q0 23 -8.5 42.5t-23.5 34.5
t-34.5 23.5t-42.5 8.5h-109v-250h-32v532h32z" />
    <glyph glyph-name="uni0137" unicode="&#x137;" 
d="M141 641v-250h109q23 0 42.5 8.5t34.5 23.5t23.5 35t8.5 42v141h32v-141q0 -28 -8.5 -50.5t-23.5 -39.5q-3 -4 -9 -10q-7 -8 -15.5 -14t-17.5 -11q9 -5 17.5 -11t15.5 -14q6 -6 9 -10q15 -17 23.5 -39.5t8.5 -50.5v-141h-141v32h109v109q0 23 -8.5 42.5t-23.5 34.5
t-34.5 23.5t-42.5 8.5h-109v-250h-32v532h32z" />
    <glyph glyph-name="kgreenlandic" unicode="&#x138;" 
d="M141 641v-250h109q23 0 42.5 8.5t34.5 23.5t23.5 35t8.5 42v141h32v-141q0 -28 -8.5 -50.5t-23.5 -39.5q-3 -4 -9 -10q-7 -8 -15.5 -14t-17.5 -11q9 -5 17.5 -11t15.5 -14q6 -6 9 -10q15 -17 23.5 -39.5t8.5 -50.5v-141h-32v141q0 23 -8.5 42.5t-23.5 34.5t-34.5 23.5
t-42.5 8.5h-109v-250h-32v532h32z" />
    <glyph glyph-name="Lacute" unicode="&#x139;" 
d="M141 641v-500h250v-32h-282v532h32zM250 641q23 0 42.5 8.5t34.5 23.5t23.5 35t8.5 42h32q0 -30 -11 -55.5t-30 -44.5t-44.5 -30t-55.5 -11v32z" />
    <glyph glyph-name="lacute" unicode="&#x13a;" 
d="M141 641v-500h250v-32h-282v532h32zM250 641q23 0 42.5 8.5t34.5 23.5t23.5 35t8.5 42h32q0 -30 -11 -55.5t-30 -44.5t-44.5 -30t-55.5 -11v32z" />
    <glyph glyph-name="uni013B" unicode="&#x13b;" 
d="M141 641v-391q0 -22 8.5 -42t23.5 -35t35 -23.5t42 -8.5h141v-32h-141q-22 0 -42 -8.5t-35 -23.5t-23.5 -34.5t-8.5 -42.5h-32q0 32 11 57t30 43q7 8 15.5 14t17.5 11q-9 5 -17.5 11t-15.5 14q-19 18 -30 43t-11 57v391h32z" />
    <glyph glyph-name="uni013C" unicode="&#x13c;" 
d="M141 641v-391q0 -22 8.5 -42t23.5 -35t35 -23.5t42 -8.5h141v-32h-141q-22 0 -42 -8.5t-35 -23.5t-23.5 -34.5t-8.5 -42.5h-32q0 32 11 57t30 43q7 8 15.5 14t17.5 11q-9 5 -17.5 11t-15.5 14q-19 18 -30 43t-11 57v391h32z" />
    <glyph glyph-name="Lcaron" unicode="&#x13d;" 
d="M141 641v-500h250v-32h-282v532h32zM359 500v141h32v-141h-32z" />
    <glyph glyph-name="lcaron" unicode="&#x13e;" 
d="M141 641v-500h250v-32h-282v532h32zM359 500v141h32v-141h-32z" />
    <glyph glyph-name="Ldot" unicode="&#x13f;" 
d="M109 641h32v-500h250v-32h-282v532zM359 500h32v-141h-32v141z" />
    <glyph glyph-name="ldot" unicode="&#x140;" 
d="M109 641h32v-500h250v-32h-282v532zM359 500h32v-141h-32v141z" />
    <glyph glyph-name="Lslash" unicode="&#x141;" 
d="M141 641v-250h122v-32h-122v-218h250v-32h-282v532h32z" />
    <glyph glyph-name="lslash" unicode="&#x142;" 
d="M141 641v-250h122v-32h-122v-218h250v-32h-282v532h32z" />
    <glyph glyph-name="Nacute" unicode="&#x143;" 
d="M250 641q23 0 42.5 8.5t34.5 23.5t23.5 35t8.5 42h32q0 -32 -11 -57t-30 -43q-7 -8 -15.5 -14t-17.5 -11q9 -5 17.5 -11t15.5 -14q19 -18 30 -43t11 -57v-391h-32v391q0 23 -8.5 42.5t-23.5 34.5t-34.5 23.5t-42.5 8.5h-109v-500h-32v532h141z" />
    <glyph glyph-name="nacute" unicode="&#x144;" 
d="M250 641q23 0 42.5 8.5t34.5 23.5t23.5 35t8.5 42h32q0 -32 -11 -57t-30 -43q-7 -8 -15.5 -14t-17.5 -11q9 -5 17.5 -11t15.5 -14q19 -18 30 -43t11 -57v-391h-32v391q0 23 -8.5 42.5t-23.5 34.5t-34.5 23.5t-42.5 8.5h-109v-500h-32v532h141z" />
    <glyph glyph-name="uni0145" unicode="&#x145;" 
d="M250 641q30 0 55.5 -11t44.5 -30t30 -44.5t11 -55.5v-391h-141v32h109v359q0 23 -8.5 42.5t-23.5 34.5t-34.5 23.5t-42.5 8.5h-109v-500h-32v532h141z" />
    <glyph glyph-name="uni0146" unicode="&#x146;" 
d="M250 641q30 0 55.5 -11t44.5 -30t30 -44.5t11 -55.5v-391h-141v32h109v359q0 23 -8.5 42.5t-23.5 34.5t-34.5 23.5t-42.5 8.5h-109v-500h-32v532h141z" />
    <glyph glyph-name="Ncaron" unicode="&#x147;" 
d="M150 650q-19 18 -30 43t-11 57h32q0 -22 8.5 -42t23.5 -35t35 -23.5t42 -8.5q23 0 42.5 8.5t34.5 23.5t23.5 35t8.5 42h32q0 -32 -11 -57t-30 -43q-7 -8 -15.5 -14t-17.5 -11q9 -5 17.5 -11t15.5 -14q19 -18 30 -43t11 -57v-391h-32v391q0 23 -8.5 42.5t-23.5 34.5
t-34.5 23.5t-42.5 8.5q-22 0 -42 -8.5t-35 -23.5t-23.5 -34.5t-8.5 -42.5v-391h-32v391q0 32 11 57t30 43q7 8 15.5 14t17.5 11q-9 5 -17.5 11t-15.5 14z" />
    <glyph glyph-name="ncaron" unicode="&#x148;" 
d="M150 650q-19 18 -30 43t-11 57h32q0 -22 8.5 -42t23.5 -35t35 -23.5t42 -8.5q23 0 42.5 8.5t34.5 23.5t23.5 35t8.5 42h32q0 -32 -11 -57t-30 -43q-7 -8 -15.5 -14t-17.5 -11q9 -5 17.5 -11t15.5 -14q19 -18 30 -43t11 -57v-391h-32v391q0 23 -8.5 42.5t-23.5 34.5
t-34.5 23.5t-42.5 8.5q-22 0 -42 -8.5t-35 -23.5t-23.5 -34.5t-8.5 -42.5v-391h-32v391q0 32 11 57t30 43q7 8 15.5 14t17.5 11q-9 5 -17.5 11t-15.5 14z" />
    <glyph glyph-name="napostrophe" unicode="&#x149;" 
d="M109 750h32v-109h109q30 0 55.5 -11t44.5 -30t30 -44.5t11 -55.5v-391h-32v391q0 23 -8.5 42.5t-23.5 34.5t-34.5 23.5t-42.5 8.5h-109v-500h-32v641z" />
    <glyph glyph-name="Eng" unicode="&#x14a;" 
d="M109 109v532h141q30 0 55.5 -11t44.5 -30t30 -44.5t11 -55.5v-250q0 -30 -11 -55.5t-30 -44.5t-44.5 -30t-55.5 -11v32q23 0 42.5 8.5t34.5 23.5t23.5 35t8.5 42v250q0 23 -8.5 42.5t-23.5 34.5t-34.5 23.5t-42.5 8.5h-109v-500h-32z" />
    <glyph glyph-name="eng" unicode="&#x14b;" 
d="M109 109v532h141q30 0 55.5 -11t44.5 -30t30 -44.5t11 -55.5v-250q0 -30 -11 -55.5t-30 -44.5t-44.5 -30t-55.5 -11v32q23 0 42.5 8.5t34.5 23.5t23.5 35t8.5 42v250q0 23 -8.5 42.5t-23.5 34.5t-34.5 23.5t-42.5 8.5h-109v-500h-32z" />
    <glyph glyph-name="Omacron" unicode="&#x14c;" 
d="M109 250q0 30 11 55.5t30 44.5t44.5 30t55.5 11t55.5 -11t44.5 -30t30 -44.5t11 -55.5t-11 -55.5t-30 -44.5t-44.5 -30t-55.5 -11t-55.5 11t-44.5 30t-30 44.5t-11 55.5zM141 250q0 -22 8.5 -42t23.5 -35t35 -23.5t42 -8.5q23 0 42.5 8.5t34.5 23.5t23.5 35t8.5 42
q0 23 -8.5 42.5t-23.5 34.5t-34.5 23.5t-42.5 8.5q-22 0 -42 -8.5t-35 -23.5t-23.5 -34.5t-8.5 -42.5zM109 609v32h282v-32h-282z" />
    <glyph glyph-name="omacron" unicode="&#x14d;" 
d="M109 250q0 30 11 55.5t30 44.5t44.5 30t55.5 11t55.5 -11t44.5 -30t30 -44.5t11 -55.5t-11 -55.5t-30 -44.5t-44.5 -30t-55.5 -11t-55.5 11t-44.5 30t-30 44.5t-11 55.5zM141 250q0 -22 8.5 -42t23.5 -35t35 -23.5t42 -8.5q23 0 42.5 8.5t34.5 23.5t23.5 35t8.5 42
q0 23 -8.5 42.5t-23.5 34.5t-34.5 23.5t-42.5 8.5q-22 0 -42 -8.5t-35 -23.5t-23.5 -34.5t-8.5 -42.5zM109 609v32h282v-32h-282z" />
    <glyph glyph-name="Obreve" unicode="&#x14e;" 
d="M150 650q-19 18 -30 43t-11 57h32q0 -22 8.5 -42t23.5 -35t35 -23.5t42 -8.5q23 0 42.5 8.5t34.5 23.5t23.5 35t8.5 42h32q0 -32 -11 -57t-30 -43q-7 -8 -15.5 -14t-17.5 -11q9 -5 17.5 -11t15.5 -14q19 -18 30 -43t11 -57v-250q0 -30 -11 -55.5t-30 -44.5t-44.5 -30
t-55.5 -11t-55.5 11t-44.5 30t-30 44.5t-11 55.5v250q0 32 11 57t30 43q7 8 15.5 14t17.5 11q-9 5 -17.5 11t-15.5 14zM141 250q0 -22 8.5 -42t23.5 -35t35 -23.5t42 -8.5q23 0 42.5 8.5t34.5 23.5t23.5 35t8.5 42v250q0 23 -8.5 42.5t-23.5 34.5t-34.5 23.5t-42.5 8.5
q-22 0 -42 -8.5t-35 -23.5t-23.5 -34.5t-8.5 -42.5v-250z" />
    <glyph glyph-name="obreve" unicode="&#x14f;" 
d="M150 650q-19 18 -30 43t-11 57h32q0 -22 8.5 -42t23.5 -35t35 -23.5t42 -8.5q23 0 42.5 8.5t34.5 23.5t23.5 35t8.5 42h32q0 -32 -11 -57t-30 -43q-7 -8 -15.5 -14t-17.5 -11q9 -5 17.5 -11t15.5 -14q19 -18 30 -43t11 -57v-250q0 -30 -11 -55.5t-30 -44.5t-44.5 -30
t-55.5 -11t-55.5 11t-44.5 30t-30 44.5t-11 55.5v250q0 32 11 57t30 43q7 8 15.5 14t17.5 11q-9 5 -17.5 11t-15.5 14zM141 250q0 -22 8.5 -42t23.5 -35t35 -23.5t42 -8.5q23 0 42.5 8.5t34.5 23.5t23.5 35t8.5 42v250q0 23 -8.5 42.5t-23.5 34.5t-34.5 23.5t-42.5 8.5
q-22 0 -42 -8.5t-35 -23.5t-23.5 -34.5t-8.5 -42.5v-250z" />
    <glyph glyph-name="Ohungarumlaut" unicode="&#x150;" 
d="M109 250q0 30 11 55.5t30 44.5t44.5 30t55.5 11t55.5 -11t44.5 -30t30 -44.5t11 -55.5t-11 -55.5t-30 -44.5t-44.5 -30t-55.5 -11t-55.5 11t-44.5 30t-30 44.5t-11 55.5zM141 250q0 -22 8.5 -42t23.5 -35t35 -23.5t42 -8.5q23 0 42.5 8.5t34.5 23.5t23.5 35t8.5 42
q0 23 -8.5 42.5t-23.5 34.5t-34.5 23.5t-42.5 8.5q-22 0 -42 -8.5t-35 -23.5t-23.5 -34.5t-8.5 -42.5zM250 641q23 0 42.5 8.5t34.5 23.5t23.5 35t8.5 42h32q0 -30 -11 -55.5t-30 -44.5t-44.5 -30t-55.5 -11v32zM0 641q23 0 42.5 8.5t34.5 23.5t23.5 35t8.5 42h32
q0 -30 -11 -55.5t-30 -44.5t-44.5 -30t-55.5 -11v32z" />
    <glyph glyph-name="ohungarumlaut" unicode="&#x151;" 
d="M109 250q0 30 11 55.5t30 44.5t44.5 30t55.5 11t55.5 -11t44.5 -30t30 -44.5t11 -55.5t-11 -55.5t-30 -44.5t-44.5 -30t-55.5 -11t-55.5 11t-44.5 30t-30 44.5t-11 55.5zM141 250q0 -22 8.5 -42t23.5 -35t35 -23.5t42 -8.5q23 0 42.5 8.5t34.5 23.5t23.5 35t8.5 42
q0 23 -8.5 42.5t-23.5 34.5t-34.5 23.5t-42.5 8.5q-22 0 -42 -8.5t-35 -23.5t-23.5 -34.5t-8.5 -42.5zM250 641q23 0 42.5 8.5t34.5 23.5t23.5 35t8.5 42h32q0 -30 -11 -55.5t-30 -44.5t-44.5 -30t-55.5 -11v32zM0 641q23 0 42.5 8.5t34.5 23.5t23.5 35t8.5 42h32
q0 -30 -11 -55.5t-30 -44.5t-44.5 -30t-55.5 -11v32z" />
    <glyph glyph-name="OE" unicode="&#x152;" 
d="M53 500q0 30 11 55.5t30 44.5t44.5 30t55.5 11h254v-32h-182v-218h182v-32h-182v-218h182v-32h-254q-30 0 -55.5 11t-44.5 30t-30 44.5t-11 55.5v250zM85 250q0 -22 8.5 -42t23.5 -35t35 -23.5t42 -8.5h52v468h-52q-22 0 -42 -8.5t-35 -23.5t-23.5 -34.5t-8.5 -42.5v-250
z" />
    <glyph glyph-name="oe" unicode="&#x153;" 
d="M53 500q0 30 11 55.5t30 44.5t44.5 30t55.5 11h254v-32h-182v-218h182v-32h-182v-218h182v-32h-254q-30 0 -55.5 11t-44.5 30t-30 44.5t-11 55.5v250zM85 250q0 -22 8.5 -42t23.5 -35t35 -23.5t42 -8.5h52v468h-52q-22 0 -42 -8.5t-35 -23.5t-23.5 -34.5t-8.5 -42.5v-250
z" />
    <glyph glyph-name="Racute" unicode="&#x154;" 
d="M109 109v532h141q23 0 42.5 8.5t34.5 23.5t23.5 35t8.5 42h32q0 -32 -11 -57t-30 -43q-7 -8 -15.5 -14t-17.5 -11q9 -5 17.5 -11t15.5 -14q19 -18 30 -43t11 -57t-11 -57t-30 -43q-7 -8 -15.5 -14t-17.5 -11q9 -5 17.5 -11t15.5 -14q19 -18 30 -43t11 -57v-141h-32v141
q0 23 -8.5 42.5t-23.5 34.5t-34.5 23.5t-42.5 8.5h-109v-250h-32zM250 391q23 0 42.5 8.5t34.5 23.5t23.5 35t8.5 42q0 23 -8.5 42.5t-23.5 34.5t-34.5 23.5t-42.5 8.5h-109v-218h109z" />
    <glyph glyph-name="racute" unicode="&#x155;" 
d="M109 109v532h141q23 0 42.5 8.5t34.5 23.5t23.5 35t8.5 42h32q0 -32 -11 -57t-30 -43q-7 -8 -15.5 -14t-17.5 -11q9 -5 17.5 -11t15.5 -14q19 -18 30 -43t11 -57t-11 -57t-30 -43q-7 -8 -15.5 -14t-17.5 -11q9 -5 17.5 -11t15.5 -14q19 -18 30 -43t11 -57v-141h-32v141
q0 23 -8.5 42.5t-23.5 34.5t-34.5 23.5t-42.5 8.5h-109v-250h-32zM250 391q23 0 42.5 8.5t34.5 23.5t23.5 35t8.5 42q0 23 -8.5 42.5t-23.5 34.5t-34.5 23.5t-42.5 8.5h-109v-218h109z" />
    <glyph glyph-name="uni0156" unicode="&#x156;" 
d="M141 359v-250h-32v532h141q30 0 55.5 -11t44.5 -30t30 -44.5t11 -55.5q0 -32 -11 -57t-30 -43q-7 -8 -15.5 -14t-17.5 -11q9 -5 17.5 -11t15.5 -14q19 -18 30 -43t11 -57v-141h-141v32h109v109q0 23 -8.5 42.5t-23.5 34.5t-34.5 23.5t-42.5 8.5h-109zM250 391
q23 0 42.5 8.5t34.5 23.5t23.5 35t8.5 42q0 23 -8.5 42.5t-23.5 34.5t-34.5 23.5t-42.5 8.5h-109v-218h109z" />
    <glyph glyph-name="uni0157" unicode="&#x157;" 
d="M141 359v-250h-32v532h141q30 0 55.5 -11t44.5 -30t30 -44.5t11 -55.5q0 -32 -11 -57t-30 -43q-7 -8 -15.5 -14t-17.5 -11q9 -5 17.5 -11t15.5 -14q19 -18 30 -43t11 -57v-141h-141v32h109v109q0 23 -8.5 42.5t-23.5 34.5t-34.5 23.5t-42.5 8.5h-109zM250 391
q23 0 42.5 8.5t34.5 23.5t23.5 35t8.5 42q0 23 -8.5 42.5t-23.5 34.5t-34.5 23.5t-42.5 8.5h-109v-218h109z" />
    <glyph glyph-name="Rcaron" unicode="&#x158;" 
d="M109 109v391q0 32 11 57t30 43q7 8 15.5 14t17.5 11q-9 5 -17.5 11t-15.5 14q-19 18 -30 43t-11 57h32q0 -22 8.5 -42t23.5 -35t35 -23.5t42 -8.5q23 0 42.5 8.5t34.5 23.5t23.5 35t8.5 42h32q0 -32 -11 -57t-30 -43q-7 -8 -15.5 -14t-17.5 -11q9 -5 17.5 -11t15.5 -14
q19 -18 30 -43t11 -57t-11 -57t-30 -43q-7 -8 -15.5 -14t-17.5 -11q9 -5 17.5 -11t15.5 -14q19 -18 30 -43t11 -57v-141h-32v141q0 23 -8.5 42.5t-23.5 34.5t-34.5 23.5t-42.5 8.5h-109v-250h-32zM250 391q23 0 42.5 8.5t34.5 23.5t23.5 35t8.5 42q0 23 -8.5 42.5
t-23.5 34.5t-34.5 23.5t-42.5 8.5q-22 0 -42 -8.5t-35 -23.5t-23.5 -34.5t-8.5 -42.5v-109h109z" />
    <glyph glyph-name="rcaron" unicode="&#x159;" 
d="M109 109v391q0 32 11 57t30 43q7 8 15.5 14t17.5 11q-9 5 -17.5 11t-15.5 14q-19 18 -30 43t-11 57h32q0 -22 8.5 -42t23.5 -35t35 -23.5t42 -8.5q23 0 42.5 8.5t34.5 23.5t23.5 35t8.5 42h32q0 -32 -11 -57t-30 -43q-7 -8 -15.5 -14t-17.5 -11q9 -5 17.5 -11t15.5 -14
q19 -18 30 -43t11 -57t-11 -57t-30 -43q-7 -8 -15.5 -14t-17.5 -11q9 -5 17.5 -11t15.5 -14q19 -18 30 -43t11 -57v-141h-32v141q0 23 -8.5 42.5t-23.5 34.5t-34.5 23.5t-42.5 8.5h-109v-250h-32zM250 391q23 0 42.5 8.5t34.5 23.5t23.5 35t8.5 42q0 23 -8.5 42.5
t-23.5 34.5t-34.5 23.5t-42.5 8.5q-22 0 -42 -8.5t-35 -23.5t-23.5 -34.5t-8.5 -42.5v-109h109z" />
    <glyph glyph-name="Sacute" unicode="&#x15a;" 
d="M141 250q0 -22 8.5 -42t23.5 -35t35 -23.5t42 -8.5q23 0 42.5 8.5t34.5 23.5t23.5 35t8.5 42q0 23 -8.5 42.5t-23.5 34.5t-34.5 23.5t-42.5 8.5q-30 0 -55.5 11t-44.5 30t-30 44.5t-11 55.5t11 55.5t30 44.5t44.5 30t55.5 11q23 0 42.5 8.5t34.5 23.5t23.5 35t8.5 42h32
q0 -32 -11 -57t-30 -43q-7 -8 -15.5 -14t-17.5 -11q9 -5 17.5 -11t15.5 -14q19 -18 30 -43t11 -57h-32q0 23 -8.5 42.5t-23.5 34.5t-34.5 23.5t-42.5 8.5q-22 0 -42 -8.5t-35 -23.5t-23.5 -34.5t-8.5 -42.5q0 -22 8.5 -42t23.5 -35t35 -23.5t42 -8.5q30 0 55.5 -11t44.5 -30
t30 -44.5t11 -55.5t-11 -55.5t-30 -44.5t-44.5 -30t-55.5 -11t-55.5 11t-44.5 30t-30 44.5t-11 55.5h32z" />
    <glyph glyph-name="sacute" unicode="&#x15b;" 
d="M141 250q0 -22 8.5 -42t23.5 -35t35 -23.5t42 -8.5q23 0 42.5 8.5t34.5 23.5t23.5 35t8.5 42q0 23 -8.5 42.5t-23.5 34.5t-34.5 23.5t-42.5 8.5q-30 0 -55.5 11t-44.5 30t-30 44.5t-11 55.5t11 55.5t30 44.5t44.5 30t55.5 11q23 0 42.5 8.5t34.5 23.5t23.5 35t8.5 42h32
q0 -32 -11 -57t-30 -43q-7 -8 -15.5 -14t-17.5 -11q9 -5 17.5 -11t15.5 -14q19 -18 30 -43t11 -57h-32q0 23 -8.5 42.5t-23.5 34.5t-34.5 23.5t-42.5 8.5q-22 0 -42 -8.5t-35 -23.5t-23.5 -34.5t-8.5 -42.5q0 -22 8.5 -42t23.5 -35t35 -23.5t42 -8.5q30 0 55.5 -11t44.5 -30
t30 -44.5t11 -55.5t-11 -55.5t-30 -44.5t-44.5 -30t-55.5 -11t-55.5 11t-44.5 30t-30 44.5t-11 55.5h32z" />
    <glyph glyph-name="Scircumflex" unicode="&#x15c;" 
d="M109 250q0 30 11 55.5t30 44.5t44.5 30t55.5 11t55.5 -11t44.5 -30t30 -44.5t11 -55.5h-32q0 23 -8.5 42.5t-23.5 34.5t-34.5 23.5t-42.5 8.5q-22 0 -42 -8.5t-35 -23.5t-23.5 -34.5t-8.5 -42.5q0 -22 8.5 -42t23.5 -35t35 -23.5t42 -8.5q30 0 55.5 -11t44.5 -30
t30 -44.5t11 -55.5h-32q0 23 -8.5 42.5t-23.5 34.5t-34.5 23.5t-42.5 8.5q-30 0 -55.5 11t-44.5 30t-30 44.5t-11 55.5zM109 500q0 30 11 55.5t30 44.5t44.5 30t55.5 11t55.5 -11t44.5 -30t30 -44.5t11 -55.5h-32q0 23 -8.5 42.5t-23.5 34.5t-34.5 23.5t-42.5 8.5
q-22 0 -42 -8.5t-35 -23.5t-23.5 -34.5t-8.5 -42.5h-32z" />
    <glyph glyph-name="scircumflex" unicode="&#x15d;" 
d="M109 250q0 30 11 55.5t30 44.5t44.5 30t55.5 11t55.5 -11t44.5 -30t30 -44.5t11 -55.5h-32q0 23 -8.5 42.5t-23.5 34.5t-34.5 23.5t-42.5 8.5q-22 0 -42 -8.5t-35 -23.5t-23.5 -34.5t-8.5 -42.5q0 -22 8.5 -42t23.5 -35t35 -23.5t42 -8.5q30 0 55.5 -11t44.5 -30
t30 -44.5t11 -55.5h-32q0 23 -8.5 42.5t-23.5 34.5t-34.5 23.5t-42.5 8.5q-30 0 -55.5 11t-44.5 30t-30 44.5t-11 55.5zM109 500q0 30 11 55.5t30 44.5t44.5 30t55.5 11t55.5 -11t44.5 -30t30 -44.5t11 -55.5h-32q0 23 -8.5 42.5t-23.5 34.5t-34.5 23.5t-42.5 8.5
q-22 0 -42 -8.5t-35 -23.5t-23.5 -34.5t-8.5 -42.5h-32z" />
    <glyph glyph-name="Scedilla" unicode="&#x15e;" 
d="M109 500q0 30 11 55.5t30 44.5t44.5 30t55.5 11t55.5 -11t44.5 -30t30 -44.5t11 -55.5h-32q0 23 -8.5 42.5t-23.5 34.5t-34.5 23.5t-42.5 8.5q-22 0 -42 -8.5t-35 -23.5t-23.5 -34.5t-8.5 -42.5q0 -22 8.5 -42t23.5 -35t35 -23.5t42 -8.5q30 0 55.5 -11t44.5 -30
t30 -44.5t11 -55.5t-11 -55.5t-30 -44.5t-44.5 -30t-55.5 -11q-22 0 -42 -8.5t-35 -23.5t-23.5 -34.5t-8.5 -42.5h-32q0 32 11 57t30 43q7 8 15.5 14t17.5 11q-9 5 -17.5 11t-15.5 14q-19 18 -30 43t-11 57h32q0 -22 8.5 -42t23.5 -35t35 -23.5t42 -8.5q23 0 42.5 8.5
t34.5 23.5t23.5 35t8.5 42q0 23 -8.5 42.5t-23.5 34.5t-34.5 23.5t-42.5 8.5q-30 0 -55.5 11t-44.5 30t-30 44.5t-11 55.5z" />
    <glyph glyph-name="scedilla" unicode="&#x15f;" 
d="M109 500q0 30 11 55.5t30 44.5t44.5 30t55.5 11t55.5 -11t44.5 -30t30 -44.5t11 -55.5h-32q0 23 -8.5 42.5t-23.5 34.5t-34.5 23.5t-42.5 8.5q-22 0 -42 -8.5t-35 -23.5t-23.5 -34.5t-8.5 -42.5q0 -22 8.5 -42t23.5 -35t35 -23.5t42 -8.5q30 0 55.5 -11t44.5 -30
t30 -44.5t11 -55.5t-11 -55.5t-30 -44.5t-44.5 -30t-55.5 -11q-22 0 -42 -8.5t-35 -23.5t-23.5 -34.5t-8.5 -42.5h-32q0 32 11 57t30 43q7 8 15.5 14t17.5 11q-9 5 -17.5 11t-15.5 14q-19 18 -30 43t-11 57h32q0 -22 8.5 -42t23.5 -35t35 -23.5t42 -8.5q23 0 42.5 8.5
t34.5 23.5t23.5 35t8.5 42q0 23 -8.5 42.5t-23.5 34.5t-34.5 23.5t-42.5 8.5q-30 0 -55.5 11t-44.5 30t-30 44.5t-11 55.5z" />
    <glyph glyph-name="Scaron" unicode="&#x160;" 
d="M109 250h32q0 -22 8.5 -42t23.5 -35t35 -23.5t42 -8.5q23 0 42.5 8.5t34.5 23.5t23.5 35t8.5 42q0 23 -8.5 42.5t-23.5 34.5t-34.5 23.5t-42.5 8.5q-30 0 -55.5 11t-44.5 30t-30 44.5t-11 55.5q0 32 11 57t30 43q7 8 15.5 14t17.5 11q-9 5 -17.5 11t-15.5 14
q-19 18 -30 43t-11 57h32q0 -22 8.5 -42t23.5 -35t35 -23.5t42 -8.5q23 0 42.5 8.5t34.5 23.5t23.5 35t8.5 42h32q0 -32 -11 -57t-30 -43q-7 -8 -15.5 -14t-17.5 -11q9 -5 17.5 -11t15.5 -14q19 -18 30 -43t11 -57h-32q0 23 -8.5 42.5t-23.5 34.5t-34.5 23.5t-42.5 8.5
q-22 0 -42 -8.5t-35 -23.5t-23.5 -34.5t-8.5 -42.5q0 -22 8.5 -42t23.5 -35t35 -23.5t42 -8.5q30 0 55.5 -11t44.5 -30t30 -44.5t11 -55.5t-11 -55.5t-30 -44.5t-44.5 -30t-55.5 -11t-55.5 11t-44.5 30t-30 44.5t-11 55.5z" />
    <glyph glyph-name="scaron" unicode="&#x161;" 
d="M109 250h32q0 -22 8.5 -42t23.5 -35t35 -23.5t42 -8.5q23 0 42.5 8.5t34.5 23.5t23.5 35t8.5 42q0 23 -8.5 42.5t-23.5 34.5t-34.5 23.5t-42.5 8.5q-30 0 -55.5 11t-44.5 30t-30 44.5t-11 55.5q0 32 11 57t30 43q7 8 15.5 14t17.5 11q-9 5 -17.5 11t-15.5 14
q-19 18 -30 43t-11 57h32q0 -22 8.5 -42t23.5 -35t35 -23.5t42 -8.5q23 0 42.5 8.5t34.5 23.5t23.5 35t8.5 42h32q0 -32 -11 -57t-30 -43q-7 -8 -15.5 -14t-17.5 -11q9 -5 17.5 -11t15.5 -14q19 -18 30 -43t11 -57h-32q0 23 -8.5 42.5t-23.5 34.5t-34.5 23.5t-42.5 8.5
q-22 0 -42 -8.5t-35 -23.5t-23.5 -34.5t-8.5 -42.5q0 -22 8.5 -42t23.5 -35t35 -23.5t42 -8.5q30 0 55.5 -11t44.5 -30t30 -44.5t11 -55.5t-11 -55.5t-30 -44.5t-44.5 -30t-55.5 -11t-55.5 11t-44.5 30t-30 44.5t-11 55.5z" />
    <glyph glyph-name="uni0162" unicode="&#x162;" 
d="M113 641h275v-32h-122v-609h-32v609h-121v32z" />
    <glyph glyph-name="uni0163" unicode="&#x163;" 
d="M113 641h275v-32h-122v-609h-32v609h-121v32z" />
    <glyph glyph-name="Tcaron" unicode="&#x164;" 
d="M113 359v32h275v-32h-122v-250h-32v250h-121zM125 641q32 0 57 -11t43 -30q8 -7 14 -15.5t11 -17.5q5 9 11 17.5t14 15.5q18 19 43 30t57 11v-32q-22 0 -42 -8.5t-35 -23.5t-23.5 -34.5t-8.5 -42.5h-32q0 23 -8.5 42.5t-23.5 34.5t-34.5 23.5t-42.5 8.5v32z" />
    <glyph glyph-name="tcaron" unicode="&#x165;" 
d="M113 359v32h275v-32h-122v-250h-32v250h-121zM125 641q32 0 57 -11t43 -30q8 -7 14 -15.5t11 -17.5q5 9 11 17.5t14 15.5q18 19 43 30t57 11v-32q-22 0 -42 -8.5t-35 -23.5t-23.5 -34.5t-8.5 -42.5h-32q0 23 -8.5 42.5t-23.5 34.5t-34.5 23.5t-42.5 8.5v32z" />
    <glyph glyph-name="Tbar" unicode="&#x166;" 
d="M113 641h275v-32h-122v-218h13v-32h-13v-250h-32v250h-118v32h118v218h-121v32z" />
    <glyph glyph-name="tbar" unicode="&#x167;" 
d="M113 641h275v-32h-122v-218h13v-32h-13v-250h-32v250h-118v32h118v218h-121v32z" />
    <glyph glyph-name="Utilde" unicode="&#x168;" 
d="M109 250v250h32v-250q0 -22 8.5 -42t23.5 -35t35 -23.5t42 -8.5q23 0 42.5 8.5t34.5 23.5t23.5 35t8.5 42v250h32v-250q0 -30 -11 -55.5t-30 -44.5t-44.5 -30t-55.5 -11t-55.5 11t-44.5 30t-30 44.5t-11 55.5zM109 609v32h282v-32h-282z" />
    <glyph glyph-name="utilde" unicode="&#x169;" 
d="M109 250v250h32v-250q0 -22 8.5 -42t23.5 -35t35 -23.5t42 -8.5q23 0 42.5 8.5t34.5 23.5t23.5 35t8.5 42v250h32v-250q0 -30 -11 -55.5t-30 -44.5t-44.5 -30t-55.5 -11t-55.5 11t-44.5 30t-30 44.5t-11 55.5zM109 609v32h282v-32h-282z" />
    <glyph glyph-name="Umacron" unicode="&#x16a;" 
d="M109 250v250h32v-250q0 -22 8.5 -42t23.5 -35t35 -23.5t42 -8.5q23 0 42.5 8.5t34.5 23.5t23.5 35t8.5 42v250h32v-250q0 -30 -11 -55.5t-30 -44.5t-44.5 -30t-55.5 -11t-55.5 11t-44.5 30t-30 44.5t-11 55.5zM109 609v32h282v-32h-282z" />
    <glyph glyph-name="umacron" unicode="&#x16b;" 
d="M109 250v250h32v-250q0 -22 8.5 -42t23.5 -35t35 -23.5t42 -8.5q23 0 42.5 8.5t34.5 23.5t23.5 35t8.5 42v250h32v-250q0 -30 -11 -55.5t-30 -44.5t-44.5 -30t-55.5 -11t-55.5 11t-44.5 30t-30 44.5t-11 55.5zM109 609v32h282v-32h-282z" />
    <glyph glyph-name="Ubreve" unicode="&#x16c;" 
d="M109 500h32v-250q0 -22 8.5 -42t23.5 -35t35 -23.5t42 -8.5q23 0 42.5 8.5t34.5 23.5t23.5 35t8.5 42v250h32v-250q0 -30 -11 -55.5t-30 -44.5t-44.5 -30t-55.5 -11t-55.5 11t-44.5 30t-30 44.5t-11 55.5v250zM141 750q0 -22 8.5 -42t23.5 -35t35 -23.5t42 -8.5
q23 0 42.5 8.5t34.5 23.5t23.5 35t8.5 42h32q0 -30 -11 -55.5t-30 -44.5t-44.5 -30t-55.5 -11t-55.5 11t-44.5 30t-30 44.5t-11 55.5h32z" />
    <glyph glyph-name="ubreve" unicode="&#x16d;" 
d="M109 500h32v-250q0 -22 8.5 -42t23.5 -35t35 -23.5t42 -8.5q23 0 42.5 8.5t34.5 23.5t23.5 35t8.5 42v250h32v-250q0 -30 -11 -55.5t-30 -44.5t-44.5 -30t-55.5 -11t-55.5 11t-44.5 30t-30 44.5t-11 55.5v250zM141 750q0 -22 8.5 -42t23.5 -35t35 -23.5t42 -8.5
q23 0 42.5 8.5t34.5 23.5t23.5 35t8.5 42h32q0 -30 -11 -55.5t-30 -44.5t-44.5 -30t-55.5 -11t-55.5 11t-44.5 30t-30 44.5t-11 55.5h32z" />
    <glyph glyph-name="Uring" unicode="&#x16e;" 
d="M109 500q0 30 11 55.5t30 44.5t44.5 30t55.5 11t55.5 -11t44.5 -30t30 -44.5t11 -55.5t-11 -55.5t-30 -44.5t-44.5 -30t-55.5 -11t-55.5 11t-44.5 30t-30 44.5t-11 55.5zM141 500q0 -22 8.5 -42t23.5 -35t35 -23.5t42 -8.5q23 0 42.5 8.5t34.5 23.5t23.5 35t8.5 42
q0 23 -8.5 42.5t-23.5 34.5t-34.5 23.5t-42.5 8.5q-22 0 -42 -8.5t-35 -23.5t-23.5 -34.5t-8.5 -42.5zM141 250q0 -22 8.5 -42t23.5 -35t35 -23.5t42 -8.5q23 0 42.5 8.5t34.5 23.5t23.5 35t8.5 42h32q0 -30 -11 -55.5t-30 -44.5t-44.5 -30t-55.5 -11t-55.5 11t-44.5 30
t-30 44.5t-11 55.5h32z" />
    <glyph glyph-name="uring" unicode="&#x16f;" 
d="M109 500q0 30 11 55.5t30 44.5t44.5 30t55.5 11t55.5 -11t44.5 -30t30 -44.5t11 -55.5t-11 -55.5t-30 -44.5t-44.5 -30t-55.5 -11t-55.5 11t-44.5 30t-30 44.5t-11 55.5zM141 500q0 -22 8.5 -42t23.5 -35t35 -23.5t42 -8.5q23 0 42.5 8.5t34.5 23.5t23.5 35t8.5 42
q0 23 -8.5 42.5t-23.5 34.5t-34.5 23.5t-42.5 8.5q-22 0 -42 -8.5t-35 -23.5t-23.5 -34.5t-8.5 -42.5zM141 250q0 -22 8.5 -42t23.5 -35t35 -23.5t42 -8.5q23 0 42.5 8.5t34.5 23.5t23.5 35t8.5 42h32q0 -30 -11 -55.5t-30 -44.5t-44.5 -30t-55.5 -11t-55.5 11t-44.5 30
t-30 44.5t-11 55.5h32z" />
    <glyph glyph-name="Uhungarumlaut" unicode="&#x170;" 
d="M109 500h32v-250q0 -22 8.5 -42t23.5 -35t35 -23.5t42 -8.5q23 0 42.5 8.5t34.5 23.5t23.5 35t8.5 42v250h32v-250q0 -30 -11 -55.5t-30 -44.5t-44.5 -30t-55.5 -11t-55.5 11t-44.5 30t-30 44.5t-11 55.5v250zM250 641q23 0 42.5 8.5t34.5 23.5t23.5 35t8.5 42h32
q0 -30 -11 -55.5t-30 -44.5t-44.5 -30t-55.5 -11v32zM0 641q23 0 42.5 8.5t34.5 23.5t23.5 35t8.5 42h32q0 -30 -11 -55.5t-30 -44.5t-44.5 -30t-55.5 -11v32z" />
    <glyph glyph-name="uhungarumlaut" unicode="&#x171;" 
d="M109 500h32v-250q0 -22 8.5 -42t23.5 -35t35 -23.5t42 -8.5q23 0 42.5 8.5t34.5 23.5t23.5 35t8.5 42v250h32v-250q0 -30 -11 -55.5t-30 -44.5t-44.5 -30t-55.5 -11t-55.5 11t-44.5 30t-30 44.5t-11 55.5v250zM250 641q23 0 42.5 8.5t34.5 23.5t23.5 35t8.5 42h32
q0 -30 -11 -55.5t-30 -44.5t-44.5 -30t-55.5 -11v32zM0 641q23 0 42.5 8.5t34.5 23.5t23.5 35t8.5 42h32q0 -30 -11 -55.5t-30 -44.5t-44.5 -30t-55.5 -11v32z" />
    <glyph glyph-name="Uogonek" unicode="&#x172;" 
d="M109 0q0 32 11 57t30 43q7 8 15.5 14t17.5 11q-9 5 -17.5 11t-15.5 14q-19 18 -30 43t-11 57v391h32v-391q0 -22 8.5 -42t23.5 -35t35 -23.5t42 -8.5q23 0 42.5 8.5t34.5 23.5t23.5 35t8.5 42v391h32v-391q0 -30 -11 -55.5t-30 -44.5t-44.5 -30t-55.5 -11q-22 0 -42 -8.5
t-35 -23.5t-23.5 -34.5t-8.5 -42.5h-32z" />
    <glyph glyph-name="uogonek" unicode="&#x173;" 
d="M109 0q0 32 11 57t30 43q7 8 15.5 14t17.5 11q-9 5 -17.5 11t-15.5 14q-19 18 -30 43t-11 57v391h32v-391q0 -22 8.5 -42t23.5 -35t35 -23.5t42 -8.5q23 0 42.5 8.5t34.5 23.5t23.5 35t8.5 42v391h32v-391q0 -30 -11 -55.5t-30 -44.5t-44.5 -30t-55.5 -11q-22 0 -42 -8.5
t-35 -23.5t-23.5 -34.5t-8.5 -42.5h-32z" />
    <glyph glyph-name="Wcircumflex" unicode="&#x174;" 
d="M79 529v-279q0 -22 4 -42t13 -35t24.5 -23.5t38.5 -8.5q45 0 62.5 32t17.5 77v279h22v-279q0 -45 17.5 -77t62.5 -32q23 0 38.5 8.5t24.5 23.5t13 35t4 42v279h29v-286q0 -28 -6 -52.5t-18.5 -42.5t-32.5 -28.5t-48 -10.5q-42 0 -64.5 22.5t-30.5 59.5q-8 -38 -30.5 -60
t-64.5 -22q-28 0 -48 10.5t-32.5 28.5t-18.5 42.5t-6 52.5v286h29zM125 641q23 0 42.5 8.5t34.5 23.5t23.5 35t8.5 42h32q0 -22 8.5 -42t23.5 -35t35 -23.5t42 -8.5v-32q-32 0 -57 11t-43 30q-8 7 -14 15.5t-11 17.5q-5 -9 -11 -17.5t-14 -15.5q-18 -19 -43 -30t-57 -11v32z
" />
    <glyph glyph-name="wcircumflex" unicode="&#x175;" 
d="M79 529v-279q0 -22 4 -42t13 -35t24.5 -23.5t38.5 -8.5q45 0 62.5 32t17.5 77v279h22v-279q0 -45 17.5 -77t62.5 -32q23 0 38.5 8.5t24.5 23.5t13 35t4 42v279h29v-286q0 -28 -6 -52.5t-18.5 -42.5t-32.5 -28.5t-48 -10.5q-42 0 -64.5 22.5t-30.5 59.5q-8 -38 -30.5 -60
t-64.5 -22q-28 0 -48 10.5t-32.5 28.5t-18.5 42.5t-6 52.5v286h29zM125 641q23 0 42.5 8.5t34.5 23.5t23.5 35t8.5 42h32q0 -22 8.5 -42t23.5 -35t35 -23.5t42 -8.5v-32q-32 0 -57 11t-43 30q-8 7 -14 15.5t-11 17.5q-5 -9 -11 -17.5t-14 -15.5q-18 -19 -43 -30t-57 -11v32z
" />
    <glyph glyph-name="Ycircumflex" unicode="&#x176;" 
d="M109 391h32v-141q0 -22 8.5 -42t23.5 -35t35 -23.5t42 -8.5h109v250h32v-391h-32v109h-109q-30 0 -55.5 11t-44.5 30t-30 44.5t-11 55.5v141zM109 500q0 30 11 55.5t30 44.5t44.5 30t55.5 11t55.5 -11t44.5 -30t30 -44.5t11 -55.5h-32q0 23 -8.5 42.5t-23.5 34.5
t-34.5 23.5t-42.5 8.5q-22 0 -42 -8.5t-35 -23.5t-23.5 -34.5t-8.5 -42.5h-32z" />
    <glyph glyph-name="ycircumflex" unicode="&#x177;" 
d="M109 391h32v-141q0 -22 8.5 -42t23.5 -35t35 -23.5t42 -8.5h109v250h32v-391h-32v109h-109q-30 0 -55.5 11t-44.5 30t-30 44.5t-11 55.5v141zM109 500q0 30 11 55.5t30 44.5t44.5 30t55.5 11t55.5 -11t44.5 -30t30 -44.5t11 -55.5h-32q0 23 -8.5 42.5t-23.5 34.5
t-34.5 23.5t-42.5 8.5q-22 0 -42 -8.5t-35 -23.5t-23.5 -34.5t-8.5 -42.5h-32z" />
    <glyph glyph-name="Ydieresis" unicode="&#x178;" 
d="M109 391h32v-141q0 -22 8.5 -42t23.5 -35t35 -23.5t42 -8.5h109v250h32v-391h-32v109h-109q-30 0 -55.5 11t-44.5 30t-30 44.5t-11 55.5v141zM359 500v141h32v-141h-32zM109 641h32v-141h-32v141z" />
    <glyph glyph-name="Zacute" unicode="&#x179;" 
d="M250 641q23 0 42.5 8.5t34.5 23.5t23.5 35t8.5 42h32q0 -32 -11 -57t-30 -43q-7 -8 -15.5 -14t-17.5 -11q9 -5 17.5 -11t15.5 -14q19 -18 30 -43t11 -57q0 -30 -11 -55.5t-30 -44.5t-44.5 -30t-55.5 -11q-22 0 -42 -8.5t-35 -23.5t-23.5 -34.5t-8.5 -42.5v-109h250v-32
h-282v141q0 30 11 55.5t30 44.5t44.5 30t55.5 11q23 0 42.5 8.5t34.5 23.5t23.5 35t8.5 42q0 23 -8.5 42.5t-23.5 34.5t-34.5 23.5t-42.5 8.5h-141v32h141z" />
    <glyph glyph-name="zacute" unicode="&#x17a;" 
d="M250 641q23 0 42.5 8.5t34.5 23.5t23.5 35t8.5 42h32q0 -32 -11 -57t-30 -43q-7 -8 -15.5 -14t-17.5 -11q9 -5 17.5 -11t15.5 -14q19 -18 30 -43t11 -57q0 -30 -11 -55.5t-30 -44.5t-44.5 -30t-55.5 -11q-22 0 -42 -8.5t-35 -23.5t-23.5 -34.5t-8.5 -42.5v-109h250v-32
h-282v141q0 30 11 55.5t30 44.5t44.5 30t55.5 11q23 0 42.5 8.5t34.5 23.5t23.5 35t8.5 42q0 23 -8.5 42.5t-23.5 34.5t-34.5 23.5t-42.5 8.5h-141v32h141z" />
    <glyph glyph-name="Zdotaccent" unicode="&#x17b;" 
d="M109 250q0 28 8.5 50.5t23.5 39.5q19 26 48.5 38.5t60.5 12.5q23 0 42.5 8.5t34.5 23.5t23.5 35t8.5 42v109h-250v141h32v-109h250v-141q0 -30 -11 -55.5t-30 -44.5t-44.5 -30t-55.5 -11q-22 0 -42 -8.5t-35 -23.5t-23.5 -34.5t-8.5 -42.5v-109h250v-32h-282v141z" />
    <glyph glyph-name="zdotaccent" unicode="&#x17c;" 
d="M109 250q0 28 8.5 50.5t23.5 39.5q19 26 48.5 38.5t60.5 12.5q23 0 42.5 8.5t34.5 23.5t23.5 35t8.5 42v109h-250v141h32v-109h250v-141q0 -30 -11 -55.5t-30 -44.5t-44.5 -30t-55.5 -11q-22 0 -42 -8.5t-35 -23.5t-23.5 -34.5t-8.5 -42.5v-109h250v-32h-282v141z" />
    <glyph glyph-name="Zcaron" unicode="&#x17d;" 
d="M141 750q0 -22 8.5 -42t23.5 -35t35 -23.5t42 -8.5q23 0 42.5 8.5t34.5 23.5t23.5 35t8.5 42h32q0 -32 -11 -57t-30 -43q-7 -8 -15.5 -14t-17.5 -11q9 -5 17.5 -11t15.5 -14q19 -18 30 -43t11 -57q0 -30 -11 -55.5t-30 -44.5t-44.5 -30t-55.5 -11q-22 0 -42 -8.5
t-35 -23.5t-23.5 -34.5t-8.5 -42.5v-109h250v-32h-282v141q0 30 11 55.5t30 44.5t44.5 30t55.5 11q23 0 42.5 8.5t34.5 23.5t23.5 35t8.5 42q0 23 -8.5 42.5t-23.5 34.5t-34.5 23.5t-42.5 8.5q-22 0 -42 -8.5t-35 -23.5t-23.5 -34.5t-8.5 -42.5h-32q0 32 11 57t30 43
q7 8 15.5 14t17.5 11q-9 5 -17.5 11t-15.5 14q-19 18 -30 43t-11 57h32z" />
    <glyph glyph-name="zcaron" unicode="&#x17e;" 
d="M141 750q0 -22 8.5 -42t23.5 -35t35 -23.5t42 -8.5q23 0 42.5 8.5t34.5 23.5t23.5 35t8.5 42h32q0 -32 -11 -57t-30 -43q-7 -8 -15.5 -14t-17.5 -11q9 -5 17.5 -11t15.5 -14q19 -18 30 -43t11 -57q0 -30 -11 -55.5t-30 -44.5t-44.5 -30t-55.5 -11q-22 0 -42 -8.5
t-35 -23.5t-23.5 -34.5t-8.5 -42.5v-109h250v-32h-282v141q0 30 11 55.5t30 44.5t44.5 30t55.5 11q23 0 42.5 8.5t34.5 23.5t23.5 35t8.5 42q0 23 -8.5 42.5t-23.5 34.5t-34.5 23.5t-42.5 8.5q-22 0 -42 -8.5t-35 -23.5t-23.5 -34.5t-8.5 -42.5h-32q0 32 11 57t30 43
q7 8 15.5 14t17.5 11q-9 5 -17.5 11t-15.5 14q-19 18 -30 43t-11 57h32z" />
    <glyph glyph-name="longs" unicode="&#x17f;" 
d="M234 500q0 30 11 55.5t30 44.5t44.5 30t55.5 11v-32q-22 0 -42 -8.5t-35 -23.5t-23.5 -34.5t-8.5 -42.5v-391h-32v391z" />
    <glyph glyph-name="florin" unicode="&#x192;" 
d="M125 141q23 0 42.5 8.5t34.5 23.5t23.5 35t8.5 42v250q0 30 11 55.5t30 44.5t44.5 30t55.5 11v-32q-22 0 -42 -8.5t-35 -23.5t-23.5 -34.5t-8.5 -42.5v-109h109v-32h-109v-109q0 -30 -11 -55.5t-30 -44.5t-44.5 -30t-55.5 -11v32z" />
    <glyph glyph-name="uni01F4" unicode="&#x1f4;" 
d="M109 500q0 30 11 55.5t30 44.5t44.5 30t55.5 11q23 0 42.5 8.5t34.5 23.5t23.5 35t8.5 42h32q0 -32 -11 -57t-30 -43q-7 -8 -15.5 -14t-17.5 -11q9 -5 17.5 -11t15.5 -14q19 -18 30 -43t11 -57h-32q0 23 -8.5 42.5t-23.5 34.5t-34.5 23.5t-42.5 8.5q-22 0 -42 -8.5
t-35 -23.5t-23.5 -34.5t-8.5 -42.5v-250q0 -22 8.5 -42t23.5 -35t35 -23.5t42 -8.5q23 0 42.5 8.5t34.5 23.5t23.5 35t8.5 42v109h-109v32h141v-141q0 -30 -11 -55.5t-30 -44.5t-44.5 -30t-55.5 -11t-55.5 11t-44.5 30t-30 44.5t-11 55.5v250z" />
    <glyph glyph-name="uni01F5" unicode="&#x1f5;" 
d="M109 500q0 30 11 55.5t30 44.5t44.5 30t55.5 11q23 0 42.5 8.5t34.5 23.5t23.5 35t8.5 42h32q0 -32 -11 -57t-30 -43q-7 -8 -15.5 -14t-17.5 -11q9 -5 17.5 -11t15.5 -14q19 -18 30 -43t11 -57h-32q0 23 -8.5 42.5t-23.5 34.5t-34.5 23.5t-42.5 8.5q-22 0 -42 -8.5
t-35 -23.5t-23.5 -34.5t-8.5 -42.5v-250q0 -22 8.5 -42t23.5 -35t35 -23.5t42 -8.5q23 0 42.5 8.5t34.5 23.5t23.5 35t8.5 42v109h-109v32h141v-141q0 -30 -11 -55.5t-30 -44.5t-44.5 -30t-55.5 -11t-55.5 11t-44.5 30t-30 44.5t-11 55.5v250z" />
    <glyph glyph-name="Aringacute" unicode="&#x1fa;" 
d="M109 250q0 32 11 57t30 43q7 8 15.5 14t17.5 11q-9 5 -17.5 11t-15.5 14q-19 18 -30 43t-11 57q0 30 11 55.5t30 44.5t44.5 30t55.5 11q23 0 42.5 8.5t34.5 23.5t23.5 35t8.5 42h32q0 -32 -11 -57t-30 -43q-7 -8 -15.5 -14t-17.5 -11q9 -5 17.5 -11t15.5 -14
q19 -18 30 -43t11 -57t-11 -57t-30 -43q-7 -8 -15.5 -14t-17.5 -11q9 -5 17.5 -11t15.5 -14q19 -18 30 -43t11 -57v-250h-32v109h-218v-109h-32v250zM359 141v109q0 23 -8.5 42.5t-23.5 34.5t-34.5 23.5t-42.5 8.5q-22 0 -42 -8.5t-35 -23.5t-23.5 -34.5t-8.5 -42.5v-109
h218zM141 500q0 -22 8.5 -42t23.5 -35t35 -23.5t42 -8.5q23 0 42.5 8.5t34.5 23.5t23.5 35t8.5 42q0 23 -8.5 42.5t-23.5 34.5t-34.5 23.5t-42.5 8.5q-22 0 -42 -8.5t-35 -23.5t-23.5 -34.5t-8.5 -42.5z" />
    <glyph glyph-name="aringacute" unicode="&#x1fb;" 
d="M109 250q0 32 11 57t30 43q7 8 15.5 14t17.5 11q-9 5 -17.5 11t-15.5 14q-19 18 -30 43t-11 57q0 30 11 55.5t30 44.5t44.5 30t55.5 11q23 0 42.5 8.5t34.5 23.5t23.5 35t8.5 42h32q0 -32 -11 -57t-30 -43q-7 -8 -15.5 -14t-17.5 -11q9 -5 17.5 -11t15.5 -14
q19 -18 30 -43t11 -57t-11 -57t-30 -43q-7 -8 -15.5 -14t-17.5 -11q9 -5 17.5 -11t15.5 -14q19 -18 30 -43t11 -57v-250h-32v109h-218v-109h-32v250zM359 141v109q0 23 -8.5 42.5t-23.5 34.5t-34.5 23.5t-42.5 8.5q-22 0 -42 -8.5t-35 -23.5t-23.5 -34.5t-8.5 -42.5v-109
h218zM141 500q0 -22 8.5 -42t23.5 -35t35 -23.5t42 -8.5q23 0 42.5 8.5t34.5 23.5t23.5 35t8.5 42q0 23 -8.5 42.5t-23.5 34.5t-34.5 23.5t-42.5 8.5q-22 0 -42 -8.5t-35 -23.5t-23.5 -34.5t-8.5 -42.5z" />
    <glyph glyph-name="AEacute" unicode="&#x1fc;" 
d="M40 402q0 29 11 54t30.5 43.5t45 29t54.5 10.5h62v101h23v-101h194v-29h-194v-172h194v-28h-194v-173h194v-28h-217v201h-170v-201h-33v293zM243 338v172h-62q-46 0 -77 -31t-31 -77v-64h170z" />
    <glyph glyph-name="aeacute" unicode="&#x1fd;" 
d="M40 402q0 29 11 54t30.5 43.5t45 29t54.5 10.5h62v101h23v-101h194v-29h-194v-172h194v-28h-194v-173h194v-28h-217v201h-170v-201h-33v293zM243 338v172h-62q-46 0 -77 -31t-31 -77v-64h170z" />
    <glyph glyph-name="Oslashacute" unicode="&#x1fe;" 
d="M109 0q0 32 11 57t30 43q7 8 15.5 14t17.5 11q-9 5 -17.5 11t-15.5 14q-19 18 -30 43t-11 57v250q0 32 11 57t30 43q7 8 15.5 14t17.5 11q-9 5 -17.5 11t-15.5 14q-19 18 -30 43t-11 57h32q0 -22 8.5 -42t23.5 -35t35 -23.5t42 -8.5q23 0 42.5 8.5t34.5 23.5t23.5 35
t8.5 42h32q0 -32 -11 -57t-30 -43q-7 -8 -15.5 -14t-17.5 -11q9 -5 17.5 -11t15.5 -14q19 -18 30 -43t11 -57v-250q0 -30 -11 -55.5t-30 -44.5t-44.5 -30t-55.5 -11q-22 0 -42 -8.5t-35 -23.5t-23.5 -34.5t-8.5 -42.5h-32zM141 250q0 -22 8.5 -42t23.5 -35t35 -23.5t42 -8.5
q23 0 42.5 8.5t34.5 23.5t23.5 35t8.5 42v250q0 23 -8.5 42.5t-23.5 34.5t-34.5 23.5t-42.5 8.5q-22 0 -42 -8.5t-35 -23.5t-23.5 -34.5t-8.5 -42.5v-250z" />
    <glyph glyph-name="oslashacute" unicode="&#x1ff;" 
d="M109 0q0 32 11 57t30 43q7 8 15.5 14t17.5 11q-9 5 -17.5 11t-15.5 14q-19 18 -30 43t-11 57v250q0 32 11 57t30 43q7 8 15.5 14t17.5 11q-9 5 -17.5 11t-15.5 14q-19 18 -30 43t-11 57h32q0 -22 8.5 -42t23.5 -35t35 -23.5t42 -8.5q23 0 42.5 8.5t34.5 23.5t23.5 35
t8.5 42h32q0 -32 -11 -57t-30 -43q-7 -8 -15.5 -14t-17.5 -11q9 -5 17.5 -11t15.5 -14q19 -18 30 -43t11 -57v-250q0 -30 -11 -55.5t-30 -44.5t-44.5 -30t-55.5 -11q-22 0 -42 -8.5t-35 -23.5t-23.5 -34.5t-8.5 -42.5h-32zM141 250q0 -22 8.5 -42t23.5 -35t35 -23.5t42 -8.5
q23 0 42.5 8.5t34.5 23.5t23.5 35t8.5 42v250q0 23 -8.5 42.5t-23.5 34.5t-34.5 23.5t-42.5 8.5q-22 0 -42 -8.5t-35 -23.5t-23.5 -34.5t-8.5 -42.5v-250z" />
    <glyph glyph-name="uni0218" unicode="&#x218;" 
d="M109 500q0 30 11 55.5t30 44.5t44.5 30t55.5 11t55.5 -11t44.5 -30t30 -44.5t11 -55.5h-32q0 23 -8.5 42.5t-23.5 34.5t-34.5 23.5t-42.5 8.5q-22 0 -42 -8.5t-35 -23.5t-23.5 -34.5t-8.5 -42.5q0 -22 8.5 -42t23.5 -35t35 -23.5t42 -8.5q30 0 55.5 -11t44.5 -30
t30 -44.5t11 -55.5t-11 -55.5t-30 -44.5t-44.5 -30t-55.5 -11q-22 0 -42 -8.5t-35 -23.5t-23.5 -34.5t-8.5 -42.5h-32q0 32 11 57t30 43q7 8 15.5 14t17.5 11q-9 5 -17.5 11t-15.5 14q-19 18 -30 43t-11 57h32q0 -22 8.5 -42t23.5 -35t35 -23.5t42 -8.5q23 0 42.5 8.5
t34.5 23.5t23.5 35t8.5 42q0 23 -8.5 42.5t-23.5 34.5t-34.5 23.5t-42.5 8.5q-30 0 -55.5 11t-44.5 30t-30 44.5t-11 55.5z" />
    <glyph glyph-name="uni0219" unicode="&#x219;" 
d="M109 500q0 30 11 55.5t30 44.5t44.5 30t55.5 11t55.5 -11t44.5 -30t30 -44.5t11 -55.5h-32q0 23 -8.5 42.5t-23.5 34.5t-34.5 23.5t-42.5 8.5q-22 0 -42 -8.5t-35 -23.5t-23.5 -34.5t-8.5 -42.5q0 -22 8.5 -42t23.5 -35t35 -23.5t42 -8.5q30 0 55.5 -11t44.5 -30
t30 -44.5t11 -55.5t-11 -55.5t-30 -44.5t-44.5 -30t-55.5 -11q-22 0 -42 -8.5t-35 -23.5t-23.5 -34.5t-8.5 -42.5h-32q0 32 11 57t30 43q7 8 15.5 14t17.5 11q-9 5 -17.5 11t-15.5 14q-19 18 -30 43t-11 57h32q0 -22 8.5 -42t23.5 -35t35 -23.5t42 -8.5q23 0 42.5 8.5
t34.5 23.5t23.5 35t8.5 42q0 23 -8.5 42.5t-23.5 34.5t-34.5 23.5t-42.5 8.5q-30 0 -55.5 11t-44.5 30t-30 44.5t-11 55.5z" />
    <glyph glyph-name="uni021A" unicode="&#x21a;" 
d="M113 641h275v-32h-122v-359h-32v359h-121v32zM234 0v141h32v-141h-32z" />
    <glyph glyph-name="uni021B" unicode="&#x21b;" 
d="M113 641h275v-32h-122v-359h-32v359h-121v32zM234 0v141h32v-141h-32z" />
    <glyph glyph-name="uni0237" unicode="&#x237;" 
d="M109 250h32q0 -22 8.5 -42t23.5 -35t35 -23.5t42 -8.5q23 0 42.5 8.5t34.5 23.5t23.5 35t8.5 42v359h-118v32h150v-391q0 -30 -11 -55.5t-30 -44.5t-44.5 -30t-55.5 -11t-55.5 11t-44.5 30t-30 44.5t-11 55.5z" />
    <glyph glyph-name="uni02BC" unicode="&#x2bc;" 
d="M266 750v-141h-32v141h32z" />
    <glyph glyph-name="circumflex" unicode="&#x2c6;" 
d="M125 641q23 0 42.5 8.5t34.5 23.5t23.5 35t8.5 42h32q0 -22 8.5 -42t23.5 -35t35 -23.5t42 -8.5v-32q-32 0 -57 11t-43 30q-8 7 -14 15.5t-11 17.5q-5 -9 -11 -17.5t-14 -15.5q-18 -19 -43 -30t-57 -11v32z" />
    <glyph glyph-name="caron" unicode="&#x2c7;" 
d="M125 609v32q32 0 57 -11t43 -30q8 -7 14 -15.5t11 -17.5q5 9 11 17.5t14 15.5q18 19 43 30t57 11v-32q-22 0 -42 -8.5t-35 -23.5t-23.5 -34.5t-8.5 -42.5h-32q0 23 -8.5 42.5t-23.5 34.5t-34.5 23.5t-42.5 8.5z" />
    <glyph glyph-name="uni02C9" unicode="&#x2c9;" 
d="M125 641h250v-32h-250v32z" />
    <glyph glyph-name="breve" unicode="&#x2d8;" 
d="M109 750h32q0 -22 8.5 -42t23.5 -35t35 -23.5t42 -8.5q23 0 42.5 8.5t34.5 23.5t23.5 35t8.5 42h32q0 -30 -11 -55.5t-30 -44.5t-44.5 -30t-55.5 -11t-55.5 11t-44.5 30t-30 44.5t-11 55.5z" />
    <glyph glyph-name="dotaccent" unicode="&#x2d9;" 
d="M266 750v-141h-32v141h32z" />
    <glyph glyph-name="ring" unicode="&#x2da;" 
d="M109 500q0 30 11 55.5t30 44.5t44.5 30t55.5 11t55.5 -11t44.5 -30t30 -44.5t11 -55.5t-11 -55.5t-30 -44.5t-44.5 -30t-55.5 -11t-55.5 11t-44.5 30t-30 44.5t-11 55.5zM141 500q0 -22 8.5 -42t23.5 -35t35 -23.5t42 -8.5q23 0 42.5 8.5t34.5 23.5t23.5 35t8.5 42
q0 23 -8.5 42.5t-23.5 34.5t-34.5 23.5t-42.5 8.5q-22 0 -42 -8.5t-35 -23.5t-23.5 -34.5t-8.5 -42.5z" />
    <glyph glyph-name="ogonek" unicode="&#x2db;" 
d="M234 0q0 30 11 55.5t30 44.5t44.5 30t55.5 11v-32q-22 0 -42 -8.5t-35 -23.5t-23.5 -34.5t-8.5 -42.5h-32z" />
    <glyph glyph-name="tilde" unicode="&#x2dc;" 
d="M109 500q0 30 11 55.5t30 44.5t44.5 30t55.5 11q23 0 42.5 8.5t34.5 23.5t23.5 35t8.5 42h32q0 -30 -11 -55.5t-30 -44.5t-44.5 -30t-55.5 -11q-22 0 -42 -8.5t-35 -23.5t-23.5 -34.5t-8.5 -42.5h-32z" />
    <glyph glyph-name="hungarumlaut" unicode="&#x2dd;" 
d="M250 641q23 0 42.5 8.5t34.5 23.5t23.5 35t8.5 42h32q0 -30 -11 -55.5t-30 -44.5t-44.5 -30t-55.5 -11v32zM0 641q23 0 42.5 8.5t34.5 23.5t23.5 35t8.5 42h32q0 -30 -11 -55.5t-30 -44.5t-44.5 -30t-55.5 -11v32z" />
    <glyph glyph-name="gravecomb" unicode="&#x300;" 
d="M109 750h32q0 -22 8.5 -42t23.5 -35t35 -23.5t42 -8.5v-32q-30 0 -55.5 11t-44.5 30t-30 44.5t-11 55.5z" />
    <glyph glyph-name="acutecomb" unicode="&#x301;" 
d="M250 641q23 0 42.5 8.5t34.5 23.5t23.5 35t8.5 42h32q0 -30 -11 -55.5t-30 -44.5t-44.5 -30t-55.5 -11v32z" />
    <glyph glyph-name="uni0302" unicode="&#x302;" 
d="M120 609v32q23 0 42.5 8.5t34.5 23.5t23.5 35t8.5 42h32q0 -22 8.5 -42t23.5 -35t35 -23.5t42 -8.5v-32q-32 0 -57 11t-43 30q-8 7 -14 15.5t-11 17.5q-5 -9 -11 -17.5t-14 -15.5q-18 -19 -43 -30t-57 -11z" />
    <glyph glyph-name="tildecomb" unicode="&#x303;" 
d="M109 500q0 30 11 55.5t30 44.5t44.5 30t55.5 11q23 0 42.5 8.5t34.5 23.5t23.5 35t8.5 42h32q0 -30 -11 -55.5t-30 -44.5t-44.5 -30t-55.5 -11q-22 0 -42 -8.5t-35 -23.5t-23.5 -34.5t-8.5 -42.5h-32z" />
    <glyph glyph-name="uni0304" unicode="&#x304;" 
d="M125 641h250v-32h-250v32z" />
    <glyph glyph-name="uni0306" unicode="&#x306;" 
d="M109 750h32q0 -22 8.5 -42t23.5 -35t35 -23.5t42 -8.5q23 0 42.5 8.5t34.5 23.5t23.5 35t8.5 42h32q0 -30 -11 -55.5t-30 -44.5t-44.5 -30t-55.5 -11t-55.5 11t-44.5 30t-30 44.5t-11 55.5z" />
    <glyph glyph-name="uni0307" unicode="&#x307;" 
d="M266 750v-141h-32v141h32z" />
    <glyph glyph-name="uni0308" unicode="&#x308;" 
d="M359 750h32v-141h-32v141zM109 609v141h32v-141h-32z" />
    <glyph glyph-name="uni030A" unicode="&#x30a;" 
d="M109 500q0 30 11 55.5t30 44.5t44.5 30t55.5 11t55.5 -11t44.5 -30t30 -44.5t11 -55.5t-11 -55.5t-30 -44.5t-44.5 -30t-55.5 -11t-55.5 11t-44.5 30t-30 44.5t-11 55.5zM141 500q0 -22 8.5 -42t23.5 -35t35 -23.5t42 -8.5q23 0 42.5 8.5t34.5 23.5t23.5 35t8.5 42
q0 23 -8.5 42.5t-23.5 34.5t-34.5 23.5t-42.5 8.5q-22 0 -42 -8.5t-35 -23.5t-23.5 -34.5t-8.5 -42.5z" />
    <glyph glyph-name="uni030B" unicode="&#x30b;" 
d="M250 641q23 0 42.5 8.5t34.5 23.5t23.5 35t8.5 42h32q0 -30 -11 -55.5t-30 -44.5t-44.5 -30t-55.5 -11v32zM0 641q23 0 42.5 8.5t34.5 23.5t23.5 35t8.5 42h32q0 -30 -11 -55.5t-30 -44.5t-44.5 -30t-55.5 -11v32z" />
    <glyph glyph-name="uni030C" unicode="&#x30c;" 
d="M125 609v32q32 0 57 -11t43 -30q8 -7 14 -15.5t11 -17.5q5 9 11 17.5t14 15.5q18 19 43 30t57 11v-32q-22 0 -42 -8.5t-35 -23.5t-23.5 -34.5t-8.5 -42.5h-32q0 23 -8.5 42.5t-23.5 34.5t-34.5 23.5t-42.5 8.5z" />
    <glyph glyph-name="uni0312" unicode="&#x312;" 
d="M266 750v-141h-32v141h32z" />
    <glyph glyph-name="uni0315" unicode="&#x315;" 
d="M266 750v-141h-32v141h32z" />
    <glyph glyph-name="uni0326" unicode="&#x326;" 
d="M266 250v-250h-32v250h32z" />
    <glyph glyph-name="uni0327" unicode="&#x327;" 
d="M234 0q0 30 11 55.5t30 44.5t44.5 30t55.5 11v-32q-22 0 -42 -8.5t-35 -23.5t-23.5 -34.5t-8.5 -42.5h-32z" />
    <glyph glyph-name="uni0328" unicode="&#x328;" 
d="M234 0q0 30 11 55.5t30 44.5t44.5 30t55.5 11v-32q-22 0 -42 -8.5t-35 -23.5t-23.5 -34.5t-8.5 -42.5h-32z" />
    <glyph glyph-name="uni0344" unicode="&#x344;" 
d="M125 641h109v109h32v-109h109v-32h-250v32zM-16 609v141h32v-141h-32z" />
    <glyph glyph-name="uni0370" unicode="&#x370;" 
d="M266 641v-250h109v-32h-109v-250h-32v532h32z" />
    <glyph glyph-name="uni0371" unicode="&#x371;" 
d="M266 641v-250h109v-32h-109v-250h-32v532h32z" />
    <glyph glyph-name="uni0372" unicode="&#x372;" 
d="M-4 500v141h508v-141h-25v109h-213v-500h-32v500h-213v-109h-25z" />
    <glyph glyph-name="uni0373" unicode="&#x373;" 
d="M-4 500v141h508v-141h-25v109h-213v-500h-32v500h-213v-109h-25z" />
    <glyph glyph-name="uni0374" unicode="&#x374;" 
d="M250 641q23 0 42.5 8.5t34.5 23.5t23.5 35t8.5 42h32q0 -30 -11 -55.5t-30 -44.5t-44.5 -30t-55.5 -11v32z" />
    <glyph glyph-name="uni0375" unicode="&#x375;" 
d="M234 0q0 30 11 55.5t30 44.5t44.5 30t55.5 11v-32q-22 0 -42 -8.5t-35 -23.5t-23.5 -34.5t-8.5 -42.5h-32z" />
    <glyph glyph-name="uni0376" unicode="&#x376;" 
d="M0 641q32 0 57 -11t43 -30q8 -7 14 -15.5t11 -17.5q5 9 11 17.5t14 15.5q18 19 43 30t57 11h141v-532h-32v500h-109q-22 0 -42 -8.5t-35 -23.5t-23.5 -34.5t-8.5 -42.5v-391h-32v391q0 23 -8.5 42.5t-23.5 34.5t-34.5 23.5t-42.5 8.5v32z" />
    <glyph glyph-name="uni0377" unicode="&#x377;" 
d="M0 641q32 0 57 -11t43 -30q8 -7 14 -15.5t11 -17.5q5 9 11 17.5t14 15.5q18 19 43 30t57 11h141v-532h-32v500h-109q-22 0 -42 -8.5t-35 -23.5t-23.5 -34.5t-8.5 -42.5v-391h-32v391q0 23 -8.5 42.5t-23.5 34.5t-34.5 23.5t-42.5 8.5v32z" />
    <glyph glyph-name="uni037A" unicode="&#x37a;" 
d="M266 250v-250h-32v250h32z" />
    <glyph glyph-name="uni037B" unicode="&#x37b;" 
d="M141 250q0 -22 8.5 -42t23.5 -35t35 -23.5t42 -8.5q23 0 42.5 8.5t34.5 23.5t23.5 35t8.5 42v250q0 23 -8.5 42.5t-23.5 34.5t-34.5 23.5t-42.5 8.5q-22 0 -42 -8.5t-35 -23.5t-23.5 -34.5t-8.5 -42.5h-32q0 30 11 55.5t30 44.5t44.5 30t55.5 11t55.5 -11t44.5 -30
t30 -44.5t11 -55.5v-250q0 -30 -11 -55.5t-30 -44.5t-44.5 -30t-55.5 -11t-55.5 11t-44.5 30t-30 44.5t-11 55.5h32z" />
    <glyph glyph-name="uni037C" unicode="&#x37c;" 
d="M109 500q0 30 11 55.5t30 44.5t44.5 30t55.5 11t55.5 -11t44.5 -30t30 -44.5t11 -55.5h-32q0 23 -8.5 42.5t-23.5 34.5t-34.5 23.5t-42.5 8.5q-22 0 -42 -8.5t-35 -23.5t-23.5 -34.5t-8.5 -42.5v-250q0 -22 8.5 -42t23.5 -35t35 -23.5t42 -8.5q23 0 42.5 8.5t34.5 23.5
t23.5 35t8.5 42h32q0 -30 -11 -55.5t-30 -44.5t-44.5 -30t-55.5 -11t-55.5 11t-44.5 30t-30 44.5t-11 55.5v250zM250 359v32h141v-32h-141z" />
    <glyph glyph-name="uni037D" unicode="&#x37d;" 
d="M109 500q0 30 11 55.5t30 44.5t44.5 30t55.5 11t55.5 -11t44.5 -30t30 -44.5t11 -55.5v-250q0 -30 -11 -55.5t-30 -44.5t-44.5 -30t-55.5 -11t-55.5 11t-44.5 30t-30 44.5t-11 55.5h32q0 -22 8.5 -42t23.5 -35t35 -23.5t42 -8.5q23 0 42.5 8.5t34.5 23.5t23.5 35t8.5 42
v250q0 23 -8.5 42.5t-23.5 34.5t-34.5 23.5t-42.5 8.5q-22 0 -42 -8.5t-35 -23.5t-23.5 -34.5t-8.5 -42.5h-32zM250 391v-32h-141v32h141z" />
    <glyph glyph-name="uni037E" unicode="&#x37e;" 
d="M234 250h32v-250h-32v250zM234 500h32v-141h-32v141z" />
    <glyph glyph-name="uni037F" unicode="&#x37f;" 
d="M109 250h32q0 -22 8.5 -42t23.5 -35t35 -23.5t42 -8.5q23 0 42.5 8.5t34.5 23.5t23.5 35t8.5 42v359h-109v32h141v-391q0 -30 -11 -55.5t-30 -44.5t-44.5 -30t-55.5 -11t-55.5 11t-44.5 30t-30 44.5t-11 55.5z" />
    <glyph glyph-name="tonos" unicode="&#x384;" 
d="M250 641q23 0 42.5 8.5t34.5 23.5t23.5 35t8.5 42h32q0 -30 -11 -55.5t-30 -44.5t-44.5 -30t-55.5 -11v32z" />
    <glyph glyph-name="dieresistonos" unicode="&#x385;" 
d="M125 641h109v109h32v-109h109v-32h-250v32zM-16 609v141h32v-141h-32z" />
    <glyph glyph-name="Alphatonos" unicode="&#x386;" 
d="M170 500q0 30 11 55.5t30 44.5t44.5 30t55.5 11t55.5 -11t45 -30t30.5 -44.5t11 -55.5v-391h-33v250h-217v-250h-33v391zM420 391v109q0 23 -8.5 42.5t-23.5 34.5t-34.5 23.5t-42.5 8.5t-42.5 -8.5t-34 -23.5t-23 -34.5t-8.5 -42.5v-109h217zM79 750v-141h-20v141h20z
" />
    <glyph glyph-name="anoteleia" unicode="&#x387;" 
d="M234 250v141h32v-141h-32z" />
    <glyph glyph-name="Epsilontonos" unicode="&#x388;" 
d="M107 109v532h282v-32h-250v-218h250v-32h-250v-218h250v-32h-282zM-5 750h20v-141h-20v141z" />
    <glyph glyph-name="Etatonos" unicode="&#x389;" 
d="M141 359v-250h-32v532h32v-250h218v250h32v-532h-32v250h-218zM15 750v-141h-20v141h20z" />
    <glyph glyph-name="Iotatonos" unicode="&#x38a;" 
d="M241 109v532h33v-532h-33zM138 750v-141h-20v141h20z" />
    <glyph glyph-name="Omicrontonos" unicode="&#x38c;" 
d="M109 500q0 30 11 55.5t30 44.5t44.5 30t55.5 11t55.5 -11t44.5 -30t30 -44.5t11 -55.5v-250q0 -30 -11 -55.5t-30 -44.5t-44.5 -30t-55.5 -11t-55.5 11t-44.5 30t-30 44.5t-11 55.5v250zM141 250q0 -22 8.5 -42t23.5 -35t35 -23.5t42 -8.5q23 0 42.5 8.5t34.5 23.5
t23.5 35t8.5 42v250q0 23 -8.5 42.5t-23.5 34.5t-34.5 23.5t-42.5 8.5q-22 0 -42 -8.5t-35 -23.5t-23.5 -34.5t-8.5 -42.5v-250zM79 750v-141h-20v141h20z" />
    <glyph glyph-name="Upsilontonos" unicode="&#x38e;" 
d="M109 500v141h32v-141q0 -22 8.5 -42t23.5 -35t35 -23.5t42 -8.5h109v250h32v-532h-32v250h-109q-30 0 -55.5 11t-44.5 30t-30 44.5t-11 55.5zM51 750v-141h-20v141h20z" />
    <glyph glyph-name="Omegatonos" unicode="&#x38f;" 
d="M0 141h109v359q0 30 11 55.5t30 44.5t44.5 30t55.5 11t55.5 -11t44.5 -30t30 -44.5t11 -55.5v-359h109v-32h-500v32zM359 141v359q0 23 -8.5 42.5t-23.5 34.5t-34.5 23.5t-42.5 8.5q-22 0 -42 -8.5t-35 -23.5t-23.5 -34.5t-8.5 -42.5v-359h218zM15 609v141h20v-141h-20z
" />
    <glyph glyph-name="iotadieresistonos" unicode="&#x390;" 
d="M234 109v391h32v-391h-32zM125 641h109v109h32v-109h109v-32h-250v32z" />
    <glyph glyph-name="Alpha" unicode="&#x391;" 
d="M141 109h-32v391q0 30 11 55.5t30 44.5t44.5 30t55.5 11t55.5 -11t44.5 -30t30 -44.5t11 -55.5v-391h-32v250h-218v-250zM359 391v109q0 23 -8.5 42.5t-23.5 34.5t-34.5 23.5t-42.5 8.5q-22 0 -42 -8.5t-35 -23.5t-23.5 -34.5t-8.5 -42.5v-109h218z" />
    <glyph glyph-name="Beta" unicode="&#x392;" 
d="M109 109v532h141q30 0 55.5 -11t44.5 -30t30 -44.5t11 -55.5q0 -32 -11 -57t-30 -43q-7 -8 -15.5 -14t-17.5 -11q9 -5 17.5 -11t15.5 -14q19 -18 30 -43t11 -57q0 -30 -11 -55.5t-30 -44.5t-44.5 -30t-55.5 -11h-141zM250 391q23 0 42.5 8.5t34.5 23.5t23.5 35t8.5 42
q0 23 -8.5 42.5t-23.5 34.5t-34.5 23.5t-42.5 8.5h-109v-218h109zM141 359v-218h109q23 0 42.5 8.5t34.5 23.5t23.5 35t8.5 42q0 23 -8.5 42.5t-23.5 34.5t-34.5 23.5t-42.5 8.5h-109z" />
    <glyph glyph-name="Gamma" unicode="&#x393;" 
d="M109 641h282v-32h-250v-500h-32v532z" />
    <glyph glyph-name="uni0394" unicode="&#x394;" 
d="M250 641q30 0 55.5 -11t44.5 -30t30 -44.5t11 -55.5v-391h-282v532h141zM141 141h218v359q0 23 -8.5 42.5t-23.5 34.5t-34.5 23.5t-42.5 8.5h-109v-468z" />
    <glyph glyph-name="Epsilon" unicode="&#x395;" 
d="M109 641h282v-32h-250v-218h250v-32h-250v-218h250v-32h-282v532z" />
    <glyph glyph-name="Zeta" unicode="&#x396;" 
d="M109 641h282v-141q0 -30 -11 -55.5t-30 -44.5t-44.5 -30t-55.5 -11q-22 0 -42 -8.5t-35 -23.5t-23.5 -34.5t-8.5 -42.5v-109h250v-32h-282v141q0 30 11 55.5t30 44.5t44.5 30t55.5 11q23 0 42.5 8.5t34.5 23.5t23.5 35t8.5 42v109h-250v32z" />
    <glyph glyph-name="Eta" unicode="&#x397;" 
d="M141 641v-250h218v250h32v-532h-32v250h-218v-250h-32v532h32z" />
    <glyph glyph-name="Theta" unicode="&#x398;" 
d="M109 500q0 30 11 55.5t30 44.5t44.5 30t55.5 11t55.5 -11t44.5 -30t30 -44.5t11 -55.5v-250q0 -30 -11 -55.5t-30 -44.5t-44.5 -30t-55.5 -11t-55.5 11t-44.5 30t-30 44.5t-11 55.5v250zM141 250q0 -22 8.5 -42t23.5 -35t35 -23.5t42 -8.5q23 0 42.5 8.5t34.5 23.5
t23.5 35t8.5 42v109h-218v-109zM359 391v109q0 23 -8.5 42.5t-23.5 34.5t-34.5 23.5t-42.5 8.5q-22 0 -42 -8.5t-35 -23.5t-23.5 -34.5t-8.5 -42.5v-109h218z" />
    <glyph glyph-name="Iota" unicode="&#x399;" 
d="M118 109v32h116v468h-116v32h265v-32h-117v-468h117v-32h-265z" />
    <glyph glyph-name="Kappa" unicode="&#x39a;" 
d="M141 641v-250h109q23 0 42.5 8.5t34.5 23.5t23.5 35t8.5 42v141h32v-141q0 -28 -8.5 -50.5t-23.5 -39.5q-3 -4 -9 -10q-7 -8 -15.5 -14t-17.5 -11q9 -5 17.5 -11t15.5 -14q6 -6 9 -10q15 -17 23.5 -39.5t8.5 -50.5v-141h-32v141q0 23 -8.5 42.5t-23.5 34.5t-34.5 23.5
t-42.5 8.5h-109v-250h-32v532h32z" />
    <glyph glyph-name="Lambda" unicode="&#x39b;" 
d="M109 500q0 30 11 55.5t30 44.5t44.5 30t55.5 11h141v-532h-32v500h-109q-22 0 -42 -8.5t-35 -23.5t-23.5 -34.5t-8.5 -42.5v-391h-32v391z" />
    <glyph glyph-name="Mu" unicode="&#x39c;" 
d="M50 508q0 28 6 52.5t18.5 42.5t32.5 28t48 10q42 0 64.5 -22.5t30.5 -59.5q8 38 30.5 60t64.5 22q28 0 48 -10t32.5 -28t18.5 -42.5t6 -52.5v-399h-29v391q0 23 -4 42.5t-13 34.5t-24.5 23.5t-38.5 8.5q-45 0 -62.5 -32t-17.5 -77v-391h-22v391q0 45 -17.5 77t-62.5 32
q-23 0 -38.5 -8.5t-24.5 -23.5t-13 -34.5t-4 -42.5v-391h-29v399z" />
    <glyph glyph-name="Nu" unicode="&#x39d;" 
d="M109 109v532h141q30 0 55.5 -11t44.5 -30t30 -44.5t11 -55.5v-391h-32v391q0 23 -8.5 42.5t-23.5 34.5t-34.5 23.5t-42.5 8.5h-109v-500h-32z" />
    <glyph glyph-name="Xi" unicode="&#x39e;" 
d="M109 141h282v-32h-282v32zM250 643v-2h141v-32h-141v2h-141v32h141zM109 393h141v-2h141v-32h-141v2h-141v32z" />
    <glyph glyph-name="Omicron" unicode="&#x39f;" 
d="M109 500q0 30 11 55.5t30 44.5t44.5 30t55.5 11t55.5 -11t44.5 -30t30 -44.5t11 -55.5v-250q0 -30 -11 -55.5t-30 -44.5t-44.5 -30t-55.5 -11t-55.5 11t-44.5 30t-30 44.5t-11 55.5v250zM141 250q0 -22 8.5 -42t23.5 -35t35 -23.5t42 -8.5q23 0 42.5 8.5t34.5 23.5
t23.5 35t8.5 42v250q0 23 -8.5 42.5t-23.5 34.5t-34.5 23.5t-42.5 8.5q-22 0 -42 -8.5t-35 -23.5t-23.5 -34.5t-8.5 -42.5v-250z" />
    <glyph glyph-name="Pi" unicode="&#x3a0;" 
d="M109 109v532h282v-532h-32v500h-218v-500h-32z" />
    <glyph glyph-name="Rho" unicode="&#x3a1;" 
d="M109 109v532h141q30 0 55.5 -11t44.5 -30t30 -44.5t11 -55.5t-11 -55.5t-30 -44.5t-44.5 -30t-55.5 -11h-109v-250h-32zM250 391q23 0 42.5 8.5t34.5 23.5t23.5 35t8.5 42q0 23 -8.5 42.5t-23.5 34.5t-34.5 23.5t-42.5 8.5h-109v-218h109z" />
    <glyph glyph-name="Sigma" unicode="&#x3a3;" 
d="M109 641h282v-32h-250v-109q0 -22 8.5 -42t23.5 -35t35 -23.5t42 -8.5h141v-32h-141q-22 0 -42 -8.5t-35 -23.5t-23.5 -34.5t-8.5 -42.5v-109h250v-32h-282v141q0 28 8.5 50.5t23.5 39.5q3 4 9 10q7 8 15.5 14t17.5 11q-9 5 -17.5 11t-15.5 14q-6 6 -9 10
q-15 17 -23.5 39.5t-8.5 50.5v141z" />
    <glyph glyph-name="Tau" unicode="&#x3a4;" 
d="M113 641h275v-32h-122v-500h-32v500h-121v32z" />
    <glyph glyph-name="Upsilon" unicode="&#x3a5;" 
d="M141 641v-141q0 -22 8.5 -42t23.5 -35t35 -23.5t42 -8.5h109v250h32v-532h-32v250h-109q-30 0 -55.5 11t-44.5 30t-30 44.5t-11 55.5v141h32z" />
    <glyph glyph-name="Phi" unicode="&#x3a6;" 
d="M86 400q0 30 11 56t30.5 44.5t45 29.5t55.5 11h8v118h28v-118h9q30 0 55.5 -11t44.5 -30t30 -44.5t11 -55.5t-11 -55.5t-30 -44.5t-44.5 -30t-55.5 -11h-9v-150h-28v150h-8q-30 0 -55.5 11t-45 29.5t-30.5 44.5t-11 56zM279 291q23 0 42.5 8.5t34.5 23.5t23.5 35t8.5 42
q0 23 -8.5 42.5t-23.5 34.5t-34.5 23.5t-42.5 8.5h-15v-218h15zM113 400q0 -22 8.5 -42t23 -35t34 -23.5t42.5 -8.5h15v218h-15q-23 0 -42.5 -8.5t-34 -23.5t-23 -34.5t-8.5 -42.5z" />
    <glyph glyph-name="Chi" unicode="&#x3a7;" 
d="M109 641h32v-141q0 -22 8.5 -42t23.5 -35t35 -23.5t42 -8.5q23 0 42.5 8.5t34.5 23.5t23.5 35t8.5 42v141h32v-141q0 -28 -8.5 -50.5t-23.5 -39.5q-3 -4 -9 -10q-7 -8 -15.5 -14t-17.5 -11q9 -5 17.5 -11t15.5 -14q6 -6 9 -10q15 -17 23.5 -39.5t8.5 -50.5v-141h-32v141
q0 23 -8.5 42.5t-23.5 34.5t-34.5 23.5t-42.5 8.5q-22 0 -42 -8.5t-35 -23.5t-23.5 -34.5t-8.5 -42.5v-141h-32v141q0 28 8.5 50.5t23.5 39.5q3 4 9 10q7 8 15.5 14t17.5 11q-9 5 -17.5 11t-15.5 14q-6 6 -9 10q-15 17 -23.5 39.5t-8.5 50.5v141z" />
    <glyph glyph-name="Psi" unicode="&#x3a8;" 
d="M141 641v-141q0 -22 8.5 -42t23.5 -35t35 -23.5t42 -8.5h109v250h32v-532h-32v250h-109q-30 0 -55.5 11t-44.5 30t-30 44.5t-11 55.5v141h32z" />
    <glyph glyph-name="uni03A9" unicode="&#x3a9;" 
d="M0 141h109v359q0 30 11 55.5t30 44.5t44.5 30t55.5 11t55.5 -11t44.5 -30t30 -44.5t11 -55.5v-359h109v-32h-500v32zM359 141v359q0 23 -8.5 42.5t-23.5 34.5t-34.5 23.5t-42.5 8.5q-22 0 -42 -8.5t-35 -23.5t-23.5 -34.5t-8.5 -42.5v-359h218z" />
    <glyph glyph-name="Iotadieresis" unicode="&#x3aa;" 
d="M266 500v-391h-32v391h32zM125 609v32h250v-32h-250z" />
    <glyph glyph-name="Upsilondieresis" unicode="&#x3ab;" 
d="M109 391h32v-141q0 -22 8.5 -42t23.5 -35t35 -23.5t42 -8.5h109v250h32v-391h-32v109h-109q-30 0 -55.5 11t-44.5 30t-30 44.5t-11 55.5v141zM359 500v141h32v-141h-32zM109 641h32v-141h-32v141z" />
    <glyph glyph-name="alphatonos" unicode="&#x3ac;" 
d="M170 500q0 30 11 55.5t30 44.5t44.5 30t55.5 11t55.5 -11t45 -30t30.5 -44.5t11 -55.5v-391h-33v250h-217v-250h-33v391zM420 391v109q0 23 -8.5 42.5t-23.5 34.5t-34.5 23.5t-42.5 8.5t-42.5 -8.5t-34 -23.5t-23 -34.5t-8.5 -42.5v-109h217zM79 750v-141h-20v141h20z
" />
    <glyph glyph-name="epsilontonos" unicode="&#x3ad;" 
d="M107 109v532h282v-32h-250v-218h250v-32h-250v-218h250v-32h-282zM-5 750h20v-141h-20v141z" />
    <glyph glyph-name="etatonos" unicode="&#x3ae;" 
d="M141 359v-250h-32v532h32v-250h218v250h32v-532h-32v250h-218zM15 750v-141h-20v141h20z" />
    <glyph glyph-name="iotatonos" unicode="&#x3af;" 
d="M241 109v532h33v-532h-33zM138 750v-141h-20v141h20z" />
    <glyph glyph-name="upsilondieresistonos" unicode="&#x3b0;" 
d="M109 250v141h32v-141q0 -22 8.5 -42t23.5 -35t35 -23.5t42 -8.5h109v250h32v-391h-32v109h-109q-30 0 -55.5 11t-44.5 30t-30 44.5t-11 55.5zM121 521v33h109v109h33v-109h108v-33h-250z" />
    <glyph glyph-name="alpha" unicode="&#x3b1;" 
d="M141 109h-32v391q0 30 11 55.5t30 44.5t44.5 30t55.5 11t55.5 -11t44.5 -30t30 -44.5t11 -55.5v-391h-32v250h-218v-250zM359 391v109q0 23 -8.5 42.5t-23.5 34.5t-34.5 23.5t-42.5 8.5q-22 0 -42 -8.5t-35 -23.5t-23.5 -34.5t-8.5 -42.5v-109h218z" />
    <glyph glyph-name="beta" unicode="&#x3b2;" 
d="M109 109v532h141q30 0 55.5 -11t44.5 -30t30 -44.5t11 -55.5q0 -32 -11 -57t-30 -43q-7 -8 -15.5 -14t-17.5 -11q9 -5 17.5 -11t15.5 -14q19 -18 30 -43t11 -57q0 -30 -11 -55.5t-30 -44.5t-44.5 -30t-55.5 -11h-141zM250 391q23 0 42.5 8.5t34.5 23.5t23.5 35t8.5 42
q0 23 -8.5 42.5t-23.5 34.5t-34.5 23.5t-42.5 8.5h-109v-218h109zM141 359v-218h109q23 0 42.5 8.5t34.5 23.5t23.5 35t8.5 42q0 23 -8.5 42.5t-23.5 34.5t-34.5 23.5t-42.5 8.5h-109z" />
    <glyph glyph-name="gamma" unicode="&#x3b3;" 
d="M109 641h282v-32h-250v-500h-32v532z" />
    <glyph glyph-name="delta" unicode="&#x3b4;" 
d="M250 641q30 0 55.5 -11t44.5 -30t30 -44.5t11 -55.5v-391h-282v532h141zM141 141h218v359q0 23 -8.5 42.5t-23.5 34.5t-34.5 23.5t-42.5 8.5h-109v-468z" />
    <glyph glyph-name="epsilon" unicode="&#x3b5;" 
d="M109 641h282v-32h-250v-218h250v-32h-250v-218h250v-32h-282v532z" />
    <glyph glyph-name="zeta" unicode="&#x3b6;" 
d="M109 641h282v-141q0 -30 -11 -55.5t-30 -44.5t-44.5 -30t-55.5 -11q-22 0 -42 -8.5t-35 -23.5t-23.5 -34.5t-8.5 -42.5v-109h250v-32h-282v141q0 30 11 55.5t30 44.5t44.5 30t55.5 11q23 0 42.5 8.5t34.5 23.5t23.5 35t8.5 42v109h-250v32z" />
    <glyph glyph-name="eta" unicode="&#x3b7;" 
d="M141 641v-250h218v250h32v-532h-32v250h-218v-250h-32v532h32z" />
    <glyph glyph-name="theta" unicode="&#x3b8;" 
d="M109 500q0 30 11 55.5t30 44.5t44.5 30t55.5 11t55.5 -11t44.5 -30t30 -44.5t11 -55.5v-250q0 -30 -11 -55.5t-30 -44.5t-44.5 -30t-55.5 -11t-55.5 11t-44.5 30t-30 44.5t-11 55.5v250zM141 250q0 -22 8.5 -42t23.5 -35t35 -23.5t42 -8.5q23 0 42.5 8.5t34.5 23.5
t23.5 35t8.5 42v109h-218v-109zM359 391v109q0 23 -8.5 42.5t-23.5 34.5t-34.5 23.5t-42.5 8.5q-22 0 -42 -8.5t-35 -23.5t-23.5 -34.5t-8.5 -42.5v-109h218z" />
    <glyph glyph-name="iota" unicode="&#x3b9;" 
d="M118 109v32h116v468h-116v32h265v-32h-117v-468h117v-32h-265z" />
    <glyph glyph-name="kappa" unicode="&#x3ba;" 
d="M141 641v-250h109q23 0 42.5 8.5t34.5 23.5t23.5 35t8.5 42v141h32v-141q0 -28 -8.5 -50.5t-23.5 -39.5q-3 -4 -9 -10q-7 -8 -15.5 -14t-17.5 -11q9 -5 17.5 -11t15.5 -14q6 -6 9 -10q15 -17 23.5 -39.5t8.5 -50.5v-141h-32v141q0 23 -8.5 42.5t-23.5 34.5t-34.5 23.5
t-42.5 8.5h-109v-250h-32v532h32z" />
    <glyph glyph-name="lambda" unicode="&#x3bb;" 
d="M109 500q0 30 11 55.5t30 44.5t44.5 30t55.5 11h141v-532h-32v500h-109q-22 0 -42 -8.5t-35 -23.5t-23.5 -34.5t-8.5 -42.5v-391h-32v391z" />
    <glyph glyph-name="uni03BC" unicode="&#x3bc;" 
d="M141 641v-391q0 -22 8.5 -42t23.5 -35t35 -23.5t42 -8.5q23 0 42.5 8.5t34.5 23.5t23.5 35t8.5 42v391h32v-391q0 -30 -11 -55.5t-30 -44.5t-44.5 -30t-55.5 -11t-55.5 11t-44.5 30t-30 44.5t-11 55.5v391h32z" />
    <glyph glyph-name="nu" unicode="&#x3bd;" 
d="M109 109v532h141q30 0 55.5 -11t44.5 -30t30 -44.5t11 -55.5v-391h-32v391q0 23 -8.5 42.5t-23.5 34.5t-34.5 23.5t-42.5 8.5h-109v-500h-32z" />
    <glyph glyph-name="xi" unicode="&#x3be;" 
d="M109 141h282v-32h-282v32zM250 643v-2h141v-32h-141v2h-141v32h141zM109 393h141v-2h141v-32h-141v2h-141v32z" />
    <glyph glyph-name="omicron" unicode="&#x3bf;" 
d="M109 500q0 30 11 55.5t30 44.5t44.5 30t55.5 11t55.5 -11t44.5 -30t30 -44.5t11 -55.5v-250q0 -30 -11 -55.5t-30 -44.5t-44.5 -30t-55.5 -11t-55.5 11t-44.5 30t-30 44.5t-11 55.5v250zM141 250q0 -22 8.5 -42t23.5 -35t35 -23.5t42 -8.5q23 0 42.5 8.5t34.5 23.5
t23.5 35t8.5 42v250q0 23 -8.5 42.5t-23.5 34.5t-34.5 23.5t-42.5 8.5q-22 0 -42 -8.5t-35 -23.5t-23.5 -34.5t-8.5 -42.5v-250z" />
    <glyph glyph-name="pi" unicode="&#x3c0;" 
d="M109 109v532h282v-532h-32v500h-218v-500h-32z" />
    <glyph glyph-name="rho" unicode="&#x3c1;" 
d="M109 109v532h141q30 0 55.5 -11t44.5 -30t30 -44.5t11 -55.5t-11 -55.5t-30 -44.5t-44.5 -30t-55.5 -11h-109v-250h-32zM250 391q23 0 42.5 8.5t34.5 23.5t23.5 35t8.5 42q0 23 -8.5 42.5t-23.5 34.5t-34.5 23.5t-42.5 8.5h-109v-218h109z" />
    <glyph glyph-name="sigma1" unicode="&#x3c2;" 
d="M109 641h282v-32h-250v-109q0 -22 8.5 -42t23.5 -35t35 -23.5t42 -8.5h141v-32h-141q-22 0 -42 -8.5t-35 -23.5t-23.5 -34.5t-8.5 -42.5v-109h250v-32h-282v141q0 28 8.5 50.5t23.5 39.5q3 4 9 10q7 8 15.5 14t17.5 11q-9 5 -17.5 11t-15.5 14q-6 6 -9 10
q-15 17 -23.5 39.5t-8.5 50.5v141z" />
    <glyph glyph-name="sigma" unicode="&#x3c3;" 
d="M109 641h282v-32h-250v-109q0 -22 8.5 -42t23.5 -35t35 -23.5t42 -8.5h141v-32h-141q-22 0 -42 -8.5t-35 -23.5t-23.5 -34.5t-8.5 -42.5v-109h250v-32h-282v141q0 28 8.5 50.5t23.5 39.5q3 4 9 10q7 8 15.5 14t17.5 11q-9 5 -17.5 11t-15.5 14q-6 6 -9 10
q-15 17 -23.5 39.5t-8.5 50.5v141z" />
    <glyph glyph-name="tau" unicode="&#x3c4;" 
d="M113 641h275v-32h-122v-500h-32v500h-121v32z" />
    <glyph glyph-name="upsilon" unicode="&#x3c5;" 
d="M141 641v-141q0 -22 8.5 -42t23.5 -35t35 -23.5t42 -8.5h109v250h32v-532h-32v250h-109q-30 0 -55.5 11t-44.5 30t-30 44.5t-11 55.5v141h32z" />
    <glyph glyph-name="phi" unicode="&#x3c6;" 
d="M86 400q0 30 11 56t30.5 44.5t45 29.5t55.5 11h8v118h28v-118h9q30 0 55.5 -11t44.5 -30t30 -44.5t11 -55.5t-11 -55.5t-30 -44.5t-44.5 -30t-55.5 -11h-9v-150h-28v150h-8q-30 0 -55.5 11t-45 29.5t-30.5 44.5t-11 56zM279 291q23 0 42.5 8.5t34.5 23.5t23.5 35t8.5 42
q0 23 -8.5 42.5t-23.5 34.5t-34.5 23.5t-42.5 8.5h-15v-218h15zM113 400q0 -22 8.5 -42t23 -35t34 -23.5t42.5 -8.5h15v218h-15q-23 0 -42.5 -8.5t-34 -23.5t-23 -34.5t-8.5 -42.5z" />
    <glyph glyph-name="chi" unicode="&#x3c7;" 
d="M109 641h32v-141q0 -22 8.5 -42t23.5 -35t35 -23.5t42 -8.5q23 0 42.5 8.5t34.5 23.5t23.5 35t8.5 42v141h32v-141q0 -28 -8.5 -50.5t-23.5 -39.5q-3 -4 -9 -10q-7 -8 -15.5 -14t-17.5 -11q9 -5 17.5 -11t15.5 -14q6 -6 9 -10q15 -17 23.5 -39.5t8.5 -50.5v-141h-32v141
q0 23 -8.5 42.5t-23.5 34.5t-34.5 23.5t-42.5 8.5q-22 0 -42 -8.5t-35 -23.5t-23.5 -34.5t-8.5 -42.5v-141h-32v141q0 28 8.5 50.5t23.5 39.5q3 4 9 10q7 8 15.5 14t17.5 11q-9 5 -17.5 11t-15.5 14q-6 6 -9 10q-15 17 -23.5 39.5t-8.5 50.5v141z" />
    <glyph glyph-name="psi" unicode="&#x3c8;" 
d="M141 641v-141q0 -22 8.5 -42t23.5 -35t35 -23.5t42 -8.5h109v250h32v-532h-32v250h-109q-30 0 -55.5 11t-44.5 30t-30 44.5t-11 55.5v141h32z" />
    <glyph glyph-name="omega" unicode="&#x3c9;" 
d="M0 141h109v359q0 30 11 55.5t30 44.5t44.5 30t55.5 11t55.5 -11t44.5 -30t30 -44.5t11 -55.5v-359h109v-32h-500v32zM359 141v359q0 23 -8.5 42.5t-23.5 34.5t-34.5 23.5t-42.5 8.5q-22 0 -42 -8.5t-35 -23.5t-23.5 -34.5t-8.5 -42.5v-359h218z" />
    <glyph glyph-name="iotadieresis" unicode="&#x3ca;" 
d="M266 500v-391h-32v391h32zM125 609v32h250v-32h-250z" />
    <glyph glyph-name="upsilondieresis" unicode="&#x3cb;" 
d="M109 391h32v-141q0 -22 8.5 -42t23.5 -35t35 -23.5t42 -8.5h109v250h32v-391h-32v109h-109q-30 0 -55.5 11t-44.5 30t-30 44.5t-11 55.5v141zM359 500v141h32v-141h-32zM109 641h32v-141h-32v141z" />
    <glyph glyph-name="omicrontonos" unicode="&#x3cc;" 
d="M109 500q0 30 11 55.5t30 44.5t44.5 30t55.5 11t55.5 -11t44.5 -30t30 -44.5t11 -55.5v-250q0 -30 -11 -55.5t-30 -44.5t-44.5 -30t-55.5 -11t-55.5 11t-44.5 30t-30 44.5t-11 55.5v250zM141 250q0 -22 8.5 -42t23.5 -35t35 -23.5t42 -8.5q23 0 42.5 8.5t34.5 23.5
t23.5 35t8.5 42v250q0 23 -8.5 42.5t-23.5 34.5t-34.5 23.5t-42.5 8.5q-22 0 -42 -8.5t-35 -23.5t-23.5 -34.5t-8.5 -42.5v-250zM79 750v-141h-20v141h20z" />
    <glyph glyph-name="upsilontonos" unicode="&#x3cd;" 
d="M109 500v141h32v-141q0 -22 8.5 -42t23.5 -35t35 -23.5t42 -8.5h109v250h32v-532h-32v250h-109q-30 0 -55.5 11t-44.5 30t-30 44.5t-11 55.5zM51 750v-141h-20v141h20z" />
    <glyph glyph-name="omegatonos" unicode="&#x3ce;" 
d="M0 141h109v359q0 30 11 55.5t30 44.5t44.5 30t55.5 11t55.5 -11t44.5 -30t30 -44.5t11 -55.5v-359h109v-32h-500v32zM359 141v359q0 23 -8.5 42.5t-23.5 34.5t-34.5 23.5t-42.5 8.5q-22 0 -42 -8.5t-35 -23.5t-23.5 -34.5t-8.5 -42.5v-359h218zM15 609v141h20v-141h-20z
" />
    <glyph glyph-name="theta1" unicode="&#x3d1;" 
d="M109 500q0 30 11 55.5t30 44.5t44.5 30t55.5 11t55.5 -11t44.5 -30t30 -44.5t11 -55.5v-250q0 -30 -11 -55.5t-30 -44.5t-44.5 -30t-55.5 -11t-55.5 11t-44.5 30t-30 44.5t-11 55.5v250zM141 250q0 -22 8.5 -42t23.5 -35t35 -23.5t42 -8.5q23 0 42.5 8.5t34.5 23.5
t23.5 35t8.5 42v109h-218v-109zM359 391v109q0 23 -8.5 42.5t-23.5 34.5t-34.5 23.5t-42.5 8.5q-22 0 -42 -8.5t-35 -23.5t-23.5 -34.5t-8.5 -42.5v-109h218z" />
    <glyph glyph-name="phi1" unicode="&#x3d5;" 
d="M86 400q0 30 11 56t30.5 44.5t45 29.5t55.5 11h8v118h28v-118h9q30 0 55.5 -11t44.5 -30t30 -44.5t11 -55.5t-11 -55.5t-30 -44.5t-44.5 -30t-55.5 -11h-9v-150h-28v150h-8q-30 0 -55.5 11t-45 29.5t-30.5 44.5t-11 56zM279 291q23 0 42.5 8.5t34.5 23.5t23.5 35t8.5 42
q0 23 -8.5 42.5t-23.5 34.5t-34.5 23.5t-42.5 8.5h-15v-218h15zM113 400q0 -22 8.5 -42t23 -35t34 -23.5t42.5 -8.5h15v218h-15q-23 0 -42.5 -8.5t-34 -23.5t-23 -34.5t-8.5 -42.5z" />
    <glyph glyph-name="omega1" unicode="&#x3d6;" 
d="M0 141h109v359q0 30 11 55.5t30 44.5t44.5 30t55.5 11t55.5 -11t44.5 -30t30 -44.5t11 -55.5v-359h109v-32h-500v32zM359 141v359q0 23 -8.5 42.5t-23.5 34.5t-34.5 23.5t-42.5 8.5q-22 0 -42 -8.5t-35 -23.5t-23.5 -34.5t-8.5 -42.5v-359h218z" />
    <glyph glyph-name="uni03F2" unicode="&#x3f2;" 
d="M109 500q0 30 11 55.5t30 44.5t44.5 30t55.5 11t55.5 -11t44.5 -30t30 -44.5t11 -55.5h-32q0 23 -8.5 42.5t-23.5 34.5t-34.5 23.5t-42.5 8.5q-22 0 -42 -8.5t-35 -23.5t-23.5 -34.5t-8.5 -42.5v-250q0 -22 8.5 -42t23.5 -35t35 -23.5t42 -8.5q23 0 42.5 8.5t34.5 23.5
t23.5 35t8.5 42h32q0 -30 -11 -55.5t-30 -44.5t-44.5 -30t-55.5 -11t-55.5 11t-44.5 30t-30 44.5t-11 55.5v250z" />
    <glyph glyph-name="uni03F3" unicode="&#x3f3;" 
d="M109 250h32q0 -22 8.5 -42t23.5 -35t35 -23.5t42 -8.5q23 0 42.5 8.5t34.5 23.5t23.5 35t8.5 42v359h-109v32h141v-391q0 -30 -11 -55.5t-30 -44.5t-44.5 -30t-55.5 -11t-55.5 11t-44.5 30t-30 44.5t-11 55.5z" />
    <glyph glyph-name="uni03F4" unicode="&#x3f4;" 
d="M109 500q0 30 11 55.5t30 44.5t44.5 30t55.5 11t55.5 -11t44.5 -30t30 -44.5t11 -55.5v-250q0 -30 -11 -55.5t-30 -44.5t-44.5 -30t-55.5 -11t-55.5 11t-44.5 30t-30 44.5t-11 55.5v250zM141 250q0 -22 8.5 -42t23.5 -35t35 -23.5t42 -8.5q23 0 42.5 8.5t34.5 23.5
t23.5 35t8.5 42v109h-218v-109zM359 391v109q0 23 -8.5 42.5t-23.5 34.5t-34.5 23.5t-42.5 8.5q-22 0 -42 -8.5t-35 -23.5t-23.5 -34.5t-8.5 -42.5v-109h218z" />
    <glyph glyph-name="uni03F5" unicode="&#x3f5;" 
d="M109 500q0 30 11 55.5t30 44.5t44.5 30t55.5 11t55.5 -11t44.5 -30t30 -44.5t11 -55.5h-32q0 23 -8.5 42.5t-23.5 34.5t-34.5 23.5t-42.5 8.5q-22 0 -42 -8.5t-35 -23.5t-23.5 -34.5t-8.5 -42.5v-109h250v-32h-250v-109q0 -22 8.5 -42t23.5 -35t35 -23.5t42 -8.5
q23 0 42.5 8.5t34.5 23.5t23.5 35t8.5 42h32q0 -30 -11 -55.5t-30 -44.5t-44.5 -30t-55.5 -11t-55.5 11t-44.5 30t-30 44.5t-11 55.5v250z" />
    <glyph glyph-name="uni03F6" unicode="&#x3f6;" 
d="M109 391h250v109q0 23 -8.5 42.5t-23.5 34.5t-34.5 23.5t-42.5 8.5q-22 0 -42 -8.5t-35 -23.5t-23.5 -34.5t-8.5 -42.5h-32q0 30 11 55.5t30 44.5t44.5 30t55.5 11t55.5 -11t44.5 -30t30 -44.5t11 -55.5v-250q0 -30 -11 -55.5t-30 -44.5t-44.5 -30t-55.5 -11t-55.5 11
t-44.5 30t-30 44.5t-11 55.5h32q0 -22 8.5 -42t23.5 -35t35 -23.5t42 -8.5q23 0 42.5 8.5t34.5 23.5t23.5 35t8.5 42v109h-250v32z" />
    <glyph glyph-name="uni03F7" unicode="&#x3f7;" 
d="M141 641v-118h109q30 0 55.5 -11t44.5 -30.5t30 -45t11 -55.5t-11 -55.5t-30 -44.5t-44.5 -30t-55.5 -11h-109v-131h-32v532h32zM141 490v-217h109q23 0 42.5 8.5t34.5 23t23.5 34t8.5 42.5t-8.5 42.5t-23.5 34.5t-34.5 23.5t-42.5 8.5h-109z" />
    <glyph glyph-name="uni03F8" unicode="&#x3f8;" 
d="M141 641v-118h109q30 0 55.5 -11t44.5 -30.5t30 -45t11 -55.5t-11 -55.5t-30 -44.5t-44.5 -30t-55.5 -11h-109v-131h-32v532h32zM141 490v-217h109q23 0 42.5 8.5t34.5 23t23.5 34t8.5 42.5t-8.5 42.5t-23.5 34.5t-34.5 23.5t-42.5 8.5h-109z" />
    <glyph glyph-name="uni03F9" unicode="&#x3f9;" 
d="M109 500q0 30 11 55.5t30 44.5t44.5 30t55.5 11t55.5 -11t44.5 -30t30 -44.5t11 -55.5h-32q0 23 -8.5 42.5t-23.5 34.5t-34.5 23.5t-42.5 8.5q-22 0 -42 -8.5t-35 -23.5t-23.5 -34.5t-8.5 -42.5v-250q0 -22 8.5 -42t23.5 -35t35 -23.5t42 -8.5q23 0 42.5 8.5t34.5 23.5
t23.5 35t8.5 42h32q0 -30 -11 -55.5t-30 -44.5t-44.5 -30t-55.5 -11t-55.5 11t-44.5 30t-30 44.5t-11 55.5v250z" />
    <glyph glyph-name="uni03FA" unicode="&#x3fa;" 
d="M50 508q0 28 6 52.5t18.5 42.5t32.5 28t48 10q42 0 64.5 -22.5t30.5 -59.5q8 38 30.5 60t64.5 22q28 0 48 -10t32.5 -28t18.5 -42.5t6 -52.5v-399h-29v391q0 23 -4 42.5t-13 34.5t-24.5 23.5t-38.5 8.5q-45 0 -62.5 -32t-17.5 -77v-391h-22v391q0 45 -17.5 77t-62.5 32
q-23 0 -38.5 -8.5t-24.5 -23.5t-13 -34.5t-4 -42.5v-391h-29v399z" />
    <glyph glyph-name="uni03FB" unicode="&#x3fb;" 
d="M50 508q0 28 6 52.5t18.5 42.5t32.5 28t48 10q42 0 64.5 -22.5t30.5 -59.5q8 38 30.5 60t64.5 22q28 0 48 -10t32.5 -28t18.5 -42.5t6 -52.5v-399h-29v391q0 23 -4 42.5t-13 34.5t-24.5 23.5t-38.5 8.5q-45 0 -62.5 -32t-17.5 -77v-391h-22v391q0 45 -17.5 77t-62.5 32
q-23 0 -38.5 -8.5t-24.5 -23.5t-13 -34.5t-4 -42.5v-391h-29v399z" />
    <glyph glyph-name="uni03FC" unicode="&#x3fc;" 
d="M250 641q30 0 55.5 -11t44.5 -30t30 -44.5t11 -55.5t-11 -55.5t-30 -44.5t-44.5 -30t-55.5 -11h-109v-218h109v-32h-109v-109h-32v641h141zM250 391q23 0 42.5 8.5t34.5 23.5t23.5 35t8.5 42q0 23 -8.5 42.5t-23.5 34.5t-34.5 23.5t-42.5 8.5h-109v-218h109z" />
    <glyph glyph-name="uni03FD" unicode="&#x3fd;" 
d="M141 250q0 -22 8.5 -42t23.5 -35t35 -23.5t42 -8.5q23 0 42.5 8.5t34.5 23.5t23.5 35t8.5 42v250q0 23 -8.5 42.5t-23.5 34.5t-34.5 23.5t-42.5 8.5q-22 0 -42 -8.5t-35 -23.5t-23.5 -34.5t-8.5 -42.5h-32q0 30 11 55.5t30 44.5t44.5 30t55.5 11t55.5 -11t44.5 -30
t30 -44.5t11 -55.5v-250q0 -30 -11 -55.5t-30 -44.5t-44.5 -30t-55.5 -11t-55.5 11t-44.5 30t-30 44.5t-11 55.5h32z" />
    <glyph glyph-name="uni03FE" unicode="&#x3fe;" 
d="M109 500q0 30 11 55.5t30 44.5t44.5 30t55.5 11t55.5 -11t44.5 -30t30 -44.5t11 -55.5h-32q0 23 -8.5 42.5t-23.5 34.5t-34.5 23.5t-42.5 8.5q-22 0 -42 -8.5t-35 -23.5t-23.5 -34.5t-8.5 -42.5v-250q0 -22 8.5 -42t23.5 -35t35 -23.5t42 -8.5q23 0 42.5 8.5t34.5 23.5
t23.5 35t8.5 42h32q0 -30 -11 -55.5t-30 -44.5t-44.5 -30t-55.5 -11t-55.5 11t-44.5 30t-30 44.5t-11 55.5v250zM250 359v32h141v-32h-141z" />
    <glyph glyph-name="uni03FF" unicode="&#x3ff;" 
d="M109 500q0 30 11 55.5t30 44.5t44.5 30t55.5 11t55.5 -11t44.5 -30t30 -44.5t11 -55.5v-250q0 -30 -11 -55.5t-30 -44.5t-44.5 -30t-55.5 -11t-55.5 11t-44.5 30t-30 44.5t-11 55.5h32q0 -22 8.5 -42t23.5 -35t35 -23.5t42 -8.5q23 0 42.5 8.5t34.5 23.5t23.5 35t8.5 42
v250q0 23 -8.5 42.5t-23.5 34.5t-34.5 23.5t-42.5 8.5q-22 0 -42 -8.5t-35 -23.5t-23.5 -34.5t-8.5 -42.5h-32zM250 391v-32h-141v32h141z" />
    <glyph glyph-name="uni0400" unicode="&#x400;" 
d="M141 359v-218h250v-32h-282v391q0 32 11 57t30 43q7 8 15.5 14t17.5 11q-9 5 -17.5 11t-15.5 14q-19 18 -30 43t-11 57h32q0 -22 8.5 -42t23.5 -35t35 -23.5t42 -8.5h141v-32h-141q-22 0 -42 -8.5t-35 -23.5t-23.5 -34.5t-8.5 -42.5v-109h250v-32h-250z" />
    <glyph glyph-name="uni0401" unicode="&#x401;" 
d="M141 750v-109h218v109h32v-141h-250v-218h250v-32h-250v-218h250v-32h-282v641h32z" />
    <glyph glyph-name="uni0402" unicode="&#x402;" 
d="M-6 609v32h262v-32h-115v-218h109q30 0 55.5 -11t44.5 -30t30 -44.5t11 -55.5t-11 -55.5t-30 -44.5t-44.5 -30t-55.5 -11v32q23 0 42.5 8.5t34.5 23.5t23.5 35t8.5 42q0 23 -8.5 42.5t-23.5 34.5t-34.5 23.5t-42.5 8.5h-109v-250h-32v500h-115z" />
    <glyph glyph-name="uni0403" unicode="&#x403;" 
d="M109 109v532h141q23 0 42.5 8.5t34.5 23.5t23.5 35t8.5 42h32q0 -30 -11 -55.5t-30 -44.5t-44.5 -30t-55.5 -11h-109v-500h-32z" />
    <glyph glyph-name="uni0404" unicode="&#x404;" 
d="M109 500q0 30 11 55.5t30 44.5t44.5 30t55.5 11t55.5 -11t44.5 -30t30 -44.5t11 -55.5h-32q0 23 -8.5 42.5t-23.5 34.5t-34.5 23.5t-42.5 8.5q-22 0 -42 -8.5t-35 -23.5t-23.5 -34.5t-8.5 -42.5v-109h250v-32h-250v-109q0 -22 8.5 -42t23.5 -35t35 -23.5t42 -8.5
q23 0 42.5 8.5t34.5 23.5t23.5 35t8.5 42h32q0 -30 -11 -55.5t-30 -44.5t-44.5 -30t-55.5 -11t-55.5 11t-44.5 30t-30 44.5t-11 55.5v250z" />
    <glyph glyph-name="uni0405" unicode="&#x405;" 
d="M109 500q0 30 11 55.5t30 44.5t44.5 30t55.5 11t55.5 -11t44.5 -30t30 -44.5t11 -55.5h-32q0 23 -8.5 42.5t-23.5 34.5t-34.5 23.5t-42.5 8.5q-22 0 -42 -8.5t-35 -23.5t-23.5 -34.5t-8.5 -42.5q0 -22 8.5 -42t23.5 -35t35 -23.5t42 -8.5q30 0 55.5 -11t44.5 -30
t30 -44.5t11 -55.5t-11 -55.5t-30 -44.5t-44.5 -30t-55.5 -11t-55.5 11t-44.5 30t-30 44.5t-11 55.5h32q0 -22 8.5 -42t23.5 -35t35 -23.5t42 -8.5q23 0 42.5 8.5t34.5 23.5t23.5 35t8.5 42q0 23 -8.5 42.5t-23.5 34.5t-34.5 23.5t-42.5 8.5q-30 0 -55.5 11t-44.5 30
t-30 44.5t-11 55.5z" />
    <glyph glyph-name="uni0406" unicode="&#x406;" 
d="M118 109v32h116v468h-116v32h265v-32h-117v-468h117v-32h-265z" />
    <glyph glyph-name="uni0407" unicode="&#x407;" 
d="M266 500v-391h-32v391h32zM125 609v32h250v-32h-250z" />
    <glyph glyph-name="uni0408" unicode="&#x408;" 
d="M109 250h32q0 -22 8.5 -42t23.5 -35t35 -23.5t42 -8.5q23 0 42.5 8.5t34.5 23.5t23.5 35t8.5 42v359h-118v32h150v-391q0 -30 -11 -55.5t-30 -44.5t-44.5 -30t-55.5 -11t-55.5 11t-44.5 30t-30 44.5t-11 55.5z" />
    <glyph glyph-name="uni0409" unicode="&#x409;" 
d="M11 141q23 0 42.5 8.5t34.5 23.5t23.5 35t8.5 42v391h141v-250h62q30 0 55.5 -11t44.5 -30t30 -44.5t11 -55.5t-11 -55.5t-30 -44.5t-44.5 -30t-55.5 -11h-85v500h-90v-359q0 -30 -10 -55.5t-28.5 -44.5t-43.5 -30t-55 -11v32zM261 359v-218h62q23 0 42.5 8.5t34 23.5
t23 35t8.5 42q0 23 -8.5 42.5t-23 34.5t-34 23.5t-42.5 8.5h-62z" />
    <glyph glyph-name="uni040A" unicode="&#x40a;" 
d="M-5 109v532h26v-250h214v250h25v-500h105q23 0 42.5 8.5t34.5 23.5t23.5 35t8.5 42q0 23 -8.5 42.5t-23.5 34.5t-34.5 23.5t-42.5 8.5v32q30 0 55.5 -11t44.5 -30t30 -44.5t11 -55.5t-11 -55.5t-30 -44.5t-44.5 -30t-55.5 -11h-130v250h-214v-250h-26z" />
    <glyph glyph-name="uni040B" unicode="&#x40b;" 
d="M-6 641h262v-32h-115v-218h109q30 0 55.5 -11t44.5 -30t30 -44.5t11 -55.5v-141h-32v141q0 23 -8.5 42.5t-23.5 34.5t-34.5 23.5t-42.5 8.5h-109v-250h-32v500h-115v32z" />
    <glyph glyph-name="uni040C" unicode="&#x40c;" 
d="M141 641v-250h109q23 0 42.5 8.5t34.5 23.5t23.5 35t8.5 42h32q0 -32 -11 -57t-30 -43q-7 -8 -15.5 -14t-17.5 -11q9 -5 17.5 -11t15.5 -14q19 -18 30 -43t11 -57v-141h-32v141q0 23 -8.5 42.5t-23.5 34.5t-34.5 23.5t-42.5 8.5h-109v-250h-32v532h32zM250 641
q23 0 42.5 8.5t34.5 23.5t23.5 35t8.5 42h32q0 -30 -11 -55.5t-30 -44.5t-44.5 -30t-55.5 -11v32z" />
    <glyph glyph-name="uni040D" unicode="&#x40d;" 
d="M0 391q32 0 57 -11t43 -30q8 -7 14 -15.5t11 -17.5q5 9 11 17.5t14 15.5q18 19 43 30t57 11h141v-282h-32v250h-109q-22 0 -42 -8.5t-35 -23.5t-23.5 -34.5t-8.5 -42.5v-141h-32v141q0 23 -8.5 42.5t-23.5 34.5t-34.5 23.5t-42.5 8.5v32zM141 750q0 -22 8.5 -42t23.5 -35
t35 -23.5t42 -8.5v-32q-30 0 -55.5 11t-44.5 30t-30 44.5t-11 55.5h32z" />
    <glyph glyph-name="uni040E" unicode="&#x40e;" 
d="M109 109v32h141q23 0 42.5 8.5t34.5 23.5t23.5 35t8.5 42v109h-109q-30 0 -55.5 11t-44.5 30t-30 44.5t-11 55.5h32q0 -22 8.5 -42t23.5 -35t35 -23.5t42 -8.5h109v109h32v-250q0 -30 -11 -55.5t-30 -44.5t-44.5 -30t-55.5 -11h-141zM109 750h32q0 -22 8.5 -42t23.5 -35
t35 -23.5t42 -8.5q23 0 42.5 8.5t34.5 23.5t23.5 35t8.5 42h32q0 -30 -11 -55.5t-30 -44.5t-44.5 -30t-55.5 -11t-55.5 11t-44.5 30t-30 44.5t-11 55.5z" />
    <glyph glyph-name="uni040F" unicode="&#x40f;" 
d="M141 641v-500h218v500h32v-532h-250v-109h-32v641h32z" />
    <glyph glyph-name="uni0410" unicode="&#x410;" 
d="M141 109h-32v391q0 30 11 55.5t30 44.5t44.5 30t55.5 11t55.5 -11t44.5 -30t30 -44.5t11 -55.5v-391h-32v250h-218v-250zM359 391v109q0 23 -8.5 42.5t-23.5 34.5t-34.5 23.5t-42.5 8.5q-22 0 -42 -8.5t-35 -23.5t-23.5 -34.5t-8.5 -42.5v-109h218z" />
    <glyph glyph-name="uni0411" unicode="&#x411;" 
d="M109 641h282v-32h-250v-218h109q30 0 55.5 -11t44.5 -30t30 -44.5t11 -55.5t-11 -55.5t-30 -44.5t-44.5 -30t-55.5 -11h-141v532zM141 359v-218h109q23 0 42.5 8.5t34.5 23.5t23.5 35t8.5 42q0 23 -8.5 42.5t-23.5 34.5t-34.5 23.5t-42.5 8.5h-109z" />
    <glyph glyph-name="uni0412" unicode="&#x412;" 
d="M109 109v532h141q30 0 55.5 -11t44.5 -30t30 -44.5t11 -55.5q0 -32 -11 -57t-30 -43q-7 -8 -15.5 -14t-17.5 -11q9 -5 17.5 -11t15.5 -14q19 -18 30 -43t11 -57q0 -30 -11 -55.5t-30 -44.5t-44.5 -30t-55.5 -11h-141zM250 391q23 0 42.5 8.5t34.5 23.5t23.5 35t8.5 42
q0 23 -8.5 42.5t-23.5 34.5t-34.5 23.5t-42.5 8.5h-109v-218h109zM141 359v-218h109q23 0 42.5 8.5t34.5 23.5t23.5 35t8.5 42q0 23 -8.5 42.5t-23.5 34.5t-34.5 23.5t-42.5 8.5h-109z" />
    <glyph glyph-name="uni0413" unicode="&#x413;" 
d="M109 641h282v-32h-250v-500h-32v532z" />
    <glyph glyph-name="uni0414" unicode="&#x414;" 
d="M109 0v641h282v-641h-32v109h-218v-109h-32zM141 141h218v468h-218v-468z" />
    <glyph glyph-name="uni0415" unicode="&#x415;" 
d="M109 641h282v-32h-250v-218h250v-32h-250v-218h250v-32h-282v532z" />
    <glyph glyph-name="uni0416" unicode="&#x416;" 
d="M-1 641h26v-141q0 -24 9 -44.5t25 -34.5t36.5 -22t44.5 -8h98v250h25v-250h97q24 0 44.5 8t36.5 22t25 34.5t9 44.5v141h26v-141q0 -25 -7 -45.5t-19 -37.5q-4 -5 -7.5 -9t-7.5 -8q-7 -8 -15.5 -14t-17.5 -11q9 -5 17.5 -11t15.5 -14q4 -4 7.5 -8t7.5 -9q12 -17 19 -37.5
t7 -45.5v-141h-26v141q0 23 -8.5 42.5t-23.5 34.5t-34.5 23.5t-42.5 8.5h-103v-250h-25v250h-104q-22 0 -42 -8.5t-35 -23.5t-23.5 -34.5t-8.5 -42.5v-141h-26v141q0 25 7 45.5t19 37.5q4 5 7.5 9t7.5 8q7 8 15.5 14t17.5 11q-9 5 -17.5 11t-15.5 14q-4 4 -7.5 8t-7.5 9
q-12 17 -19 37.5t-7 45.5v141z" />
    <glyph glyph-name="uni0417" unicode="&#x417;" 
d="M109 391h141q23 0 42.5 8.5t34.5 23.5t23.5 35t8.5 42q0 23 -8.5 42.5t-23.5 34.5t-34.5 23.5t-42.5 8.5q-22 0 -42 -8.5t-35 -23.5t-23.5 -34.5t-8.5 -42.5h-32q0 30 11 55.5t30 44.5t44.5 30t55.5 11t55.5 -11t44.5 -30t30 -44.5t11 -55.5q0 -32 -11 -57t-30 -43
q-7 -8 -15.5 -14t-17.5 -11q9 -5 17.5 -11t15.5 -14q19 -18 30 -43t11 -57q0 -30 -11 -55.5t-30 -44.5t-44.5 -30t-55.5 -11t-55.5 11t-44.5 30t-30 44.5t-11 55.5h32q0 -22 8.5 -42t23.5 -35t35 -23.5t42 -8.5q23 0 42.5 8.5t34.5 23.5t23.5 35t8.5 42q0 23 -8.5 42.5
t-23.5 34.5t-34.5 23.5t-42.5 8.5h-141v32z" />
    <glyph glyph-name="uni0418" unicode="&#x418;" 
d="M0 641q32 0 57 -11t43 -30q8 -7 14 -15.5t11 -17.5q5 9 11 17.5t14 15.5q18 19 43 30t57 11h141v-532h-32v500h-109q-22 0 -42 -8.5t-35 -23.5t-23.5 -34.5t-8.5 -42.5v-391h-32v391q0 23 -8.5 42.5t-23.5 34.5t-34.5 23.5t-42.5 8.5v32z" />
    <glyph glyph-name="uni0419" unicode="&#x419;" 
d="M0 391q32 0 57 -11t43 -30q8 -7 14 -15.5t11 -17.5q5 9 11 17.5t14 15.5q18 19 43 30t57 11h141v-282h-32v250h-109q-22 0 -42 -8.5t-35 -23.5t-23.5 -34.5t-8.5 -42.5v-141h-32v141q0 23 -8.5 42.5t-23.5 34.5t-34.5 23.5t-42.5 8.5v32zM141 750q0 -22 8.5 -42t23.5 -35
t35 -23.5t42 -8.5q23 0 42.5 8.5t34.5 23.5t23.5 35t8.5 42h32q0 -30 -11 -55.5t-30 -44.5t-44.5 -30t-55.5 -11t-55.5 11t-44.5 30t-30 44.5t-11 55.5h32z" />
    <glyph glyph-name="uni041A" unicode="&#x41a;" 
d="M141 641v-250h109q23 0 42.5 8.5t34.5 23.5t23.5 35t8.5 42v141h32v-141q0 -28 -8.5 -50.5t-23.5 -39.5q-3 -4 -9 -10q-7 -8 -15.5 -14t-17.5 -11q9 -5 17.5 -11t15.5 -14q6 -6 9 -10q15 -17 23.5 -39.5t8.5 -50.5v-141h-32v141q0 23 -8.5 42.5t-23.5 34.5t-34.5 23.5
t-42.5 8.5h-109v-250h-32v532h32z" />
    <glyph glyph-name="uni041B" unicode="&#x41b;" 
d="M0 109v32q23 0 42.5 8.5t34.5 23.5t23.5 35t8.5 42v391h282v-532h-32v500h-218v-359q0 -30 -11 -55.5t-30 -44.5t-44.5 -30t-55.5 -11z" />
    <glyph glyph-name="uni041C" unicode="&#x41c;" 
d="M50 508q0 28 6 52.5t18.5 42.5t32.5 28t48 10q42 0 64.5 -22.5t30.5 -59.5q8 38 30.5 60t64.5 22q28 0 48 -10t32.5 -28t18.5 -42.5t6 -52.5v-399h-29v391q0 23 -4 42.5t-13 34.5t-24.5 23.5t-38.5 8.5q-45 0 -62.5 -32t-17.5 -77v-391h-22v391q0 45 -17.5 77t-62.5 32
q-23 0 -38.5 -8.5t-24.5 -23.5t-13 -34.5t-4 -42.5v-391h-29v399z" />
    <glyph glyph-name="uni041D" unicode="&#x41d;" 
d="M141 641v-250h218v250h32v-532h-32v250h-218v-250h-32v532h32z" />
    <glyph glyph-name="uni041E" unicode="&#x41e;" 
d="M109 500q0 30 11 55.5t30 44.5t44.5 30t55.5 11t55.5 -11t44.5 -30t30 -44.5t11 -55.5v-250q0 -30 -11 -55.5t-30 -44.5t-44.5 -30t-55.5 -11t-55.5 11t-44.5 30t-30 44.5t-11 55.5v250zM141 250q0 -22 8.5 -42t23.5 -35t35 -23.5t42 -8.5q23 0 42.5 8.5t34.5 23.5
t23.5 35t8.5 42v250q0 23 -8.5 42.5t-23.5 34.5t-34.5 23.5t-42.5 8.5q-22 0 -42 -8.5t-35 -23.5t-23.5 -34.5t-8.5 -42.5v-250z" />
    <glyph glyph-name="uni041F" unicode="&#x41f;" 
d="M109 109v532h282v-532h-32v500h-218v-500h-32z" />
    <glyph glyph-name="uni0420" unicode="&#x420;" 
d="M109 109v532h141q30 0 55.5 -11t44.5 -30t30 -44.5t11 -55.5t-11 -55.5t-30 -44.5t-44.5 -30t-55.5 -11h-109v-250h-32zM250 391q23 0 42.5 8.5t34.5 23.5t23.5 35t8.5 42q0 23 -8.5 42.5t-23.5 34.5t-34.5 23.5t-42.5 8.5h-109v-218h109z" />
    <glyph glyph-name="uni0421" unicode="&#x421;" 
d="M109 500q0 30 11 55.5t30 44.5t44.5 30t55.5 11t55.5 -11t44.5 -30t30 -44.5t11 -55.5h-32q0 23 -8.5 42.5t-23.5 34.5t-34.5 23.5t-42.5 8.5q-22 0 -42 -8.5t-35 -23.5t-23.5 -34.5t-8.5 -42.5v-250q0 -22 8.5 -42t23.5 -35t35 -23.5t42 -8.5q23 0 42.5 8.5t34.5 23.5
t23.5 35t8.5 42h32q0 -30 -11 -55.5t-30 -44.5t-44.5 -30t-55.5 -11t-55.5 11t-44.5 30t-30 44.5t-11 55.5v250z" />
    <glyph glyph-name="uni0422" unicode="&#x422;" 
d="M113 641h275v-32h-122v-500h-32v500h-121v32z" />
    <glyph glyph-name="uni0423" unicode="&#x423;" 
d="M109 141h141q23 0 42.5 8.5t34.5 23.5t23.5 35t8.5 42v109h-109q-30 0 -55.5 11t-44.5 30t-30 44.5t-11 55.5v141h32v-141q0 -22 8.5 -42t23.5 -35t35 -23.5t42 -8.5h109v250h32v-391q0 -30 -11 -55.5t-30 -44.5t-44.5 -30t-55.5 -11h-141v32z" />
    <glyph glyph-name="uni0424" unicode="&#x424;" 
d="M86 400q0 30 11 56t30.5 44.5t45 29.5t55.5 11h8v118h28v-118h9q30 0 55.5 -11t44.5 -30t30 -44.5t11 -55.5t-11 -55.5t-30 -44.5t-44.5 -30t-55.5 -11h-9v-150h-28v150h-8q-30 0 -55.5 11t-45 29.5t-30.5 44.5t-11 56zM279 291q23 0 42.5 8.5t34.5 23.5t23.5 35t8.5 42
q0 23 -8.5 42.5t-23.5 34.5t-34.5 23.5t-42.5 8.5h-15v-218h15zM113 400q0 -22 8.5 -42t23 -35t34 -23.5t42.5 -8.5h15v218h-15q-23 0 -42.5 -8.5t-34 -23.5t-23 -34.5t-8.5 -42.5z" />
    <glyph glyph-name="uni0425" unicode="&#x425;" 
d="M109 641h32v-141q0 -22 8.5 -42t23.5 -35t35 -23.5t42 -8.5q23 0 42.5 8.5t34.5 23.5t23.5 35t8.5 42v141h32v-141q0 -28 -8.5 -50.5t-23.5 -39.5q-3 -4 -9 -10q-7 -8 -15.5 -14t-17.5 -11q9 -5 17.5 -11t15.5 -14q6 -6 9 -10q15 -17 23.5 -39.5t8.5 -50.5v-141h-32v141
q0 23 -8.5 42.5t-23.5 34.5t-34.5 23.5t-42.5 8.5q-22 0 -42 -8.5t-35 -23.5t-23.5 -34.5t-8.5 -42.5v-141h-32v141q0 28 8.5 50.5t23.5 39.5q3 4 9 10q7 8 15.5 14t17.5 11q-9 5 -17.5 11t-15.5 14q-6 6 -9 10q-15 17 -23.5 39.5t-8.5 50.5v141z" />
    <glyph glyph-name="uni0426" unicode="&#x426;" 
d="M109 641h32v-500h218v500h32v-641h-32v109h-250v532z" />
    <glyph glyph-name="uni0427" unicode="&#x427;" 
d="M141 641v-141q0 -22 8.5 -42t23.5 -35t35 -23.5t42 -8.5h109v250h32v-532h-32v250h-109q-30 0 -55.5 11t-44.5 30t-30 44.5t-11 55.5v141h32z" />
    <glyph glyph-name="uni0428" unicode="&#x428;" 
d="M60 641v-500h178v500h25v-500h177v500h28v-532h-435v532h27z" />
    <glyph glyph-name="uni0429" unicode="&#x429;" 
d="M60 641v-500h178v500h25v-500h177v500h28v-603h-28v71h-407v532h27z" />
    <glyph glyph-name="uni042A" unicode="&#x42a;" 
d="M-6 641h147v-250h109q30 0 55.5 -11t44.5 -30t30 -44.5t11 -55.5t-11 -55.5t-30 -44.5t-44.5 -30t-55.5 -11h-141v500h-115v32zM141 359v-218h109q23 0 42.5 8.5t34.5 23.5t23.5 35t8.5 42q0 23 -8.5 42.5t-23.5 34.5t-34.5 23.5t-42.5 8.5h-109z" />
    <glyph glyph-name="uni042B" unicode="&#x42b;" 
d="M98 109v532h29v-250h11q30 0 55.5 -11t44.5 -30t29.5 -44.5t10.5 -55.5t-10.5 -55.5t-29.5 -44.5t-44.5 -30t-55.5 -11h-40zM127 359v-218h16q23 0 42.5 8.5t34.5 23.5t23.5 35t8.5 42q0 23 -8.5 42.5t-23.5 34.5t-34.5 23.5t-42.5 8.5h-16zM411 641v-532h-27v532h27z
" />
    <glyph glyph-name="uni042C" unicode="&#x42c;" 
d="M141 641v-250h109q30 0 55.5 -11t44.5 -30t30 -44.5t11 -55.5t-11 -55.5t-30 -44.5t-44.5 -30t-55.5 -11h-141v532h32zM141 359v-218h109q23 0 42.5 8.5t34.5 23.5t23.5 35t8.5 42q0 23 -8.5 42.5t-23.5 34.5t-34.5 23.5t-42.5 8.5h-109z" />
    <glyph glyph-name="uni042D" unicode="&#x42d;" 
d="M109 391h250v109q0 23 -8.5 42.5t-23.5 34.5t-34.5 23.5t-42.5 8.5q-22 0 -42 -8.5t-35 -23.5t-23.5 -34.5t-8.5 -42.5h-32q0 30 11 55.5t30 44.5t44.5 30t55.5 11t55.5 -11t44.5 -30t30 -44.5t11 -55.5v-250q0 -30 -11 -55.5t-30 -44.5t-44.5 -30t-55.5 -11t-55.5 11
t-44.5 30t-30 44.5t-11 55.5h32q0 -22 8.5 -42t23.5 -35t35 -23.5t42 -8.5q23 0 42.5 8.5t34.5 23.5t23.5 35t8.5 42v109h-250v32z" />
    <glyph glyph-name="uni042E" unicode="&#x42e;" 
d="M65 391h124v109q0 30 10 55.5t28 44.5t43 30t55 11t55 -11t43 -30t28 -44.5t10 -55.5v-250q0 -30 -10 -55.5t-28 -44.5t-43 -30t-55 -11t-55 11t-43 30t-28 44.5t-10 55.5v109h-124v-250h-26v532h26v-250zM216 500v-250q0 -22 8.5 -42t23.5 -35t35 -23.5t42 -8.5
q23 0 42.5 8.5t34.5 23.5t23.5 35t8.5 42v250q0 23 -8.5 42.5t-23.5 34.5t-34.5 23.5t-42.5 8.5q-22 0 -42 -8.5t-35 -23.5t-23.5 -34.5t-8.5 -42.5z" />
    <glyph glyph-name="uni042F" unicode="&#x42f;" 
d="M109 250q0 32 11 57t30 43q7 8 15.5 14t17.5 11q-9 5 -17.5 11t-15.5 14q-19 18 -30 43t-11 57q0 30 11 55.5t30 44.5t44.5 30t55.5 11h141v-532h-32v250h-109q-22 0 -42 -8.5t-35 -23.5t-23.5 -34.5t-8.5 -42.5v-141h-32v141zM141 500q0 -22 8.5 -42t23.5 -35t35 -23.5
t42 -8.5h109v218h-109q-22 0 -42 -8.5t-35 -23.5t-23.5 -34.5t-8.5 -42.5z" />
    <glyph glyph-name="uni0430" unicode="&#x430;" 
d="M141 109h-32v391q0 30 11 55.5t30 44.5t44.5 30t55.5 11t55.5 -11t44.5 -30t30 -44.5t11 -55.5v-391h-32v250h-218v-250zM359 391v109q0 23 -8.5 42.5t-23.5 34.5t-34.5 23.5t-42.5 8.5q-22 0 -42 -8.5t-35 -23.5t-23.5 -34.5t-8.5 -42.5v-109h218z" />
    <glyph glyph-name="uni0431" unicode="&#x431;" 
d="M109 641h282v-32h-250v-218h109q30 0 55.5 -11t44.5 -30t30 -44.5t11 -55.5t-11 -55.5t-30 -44.5t-44.5 -30t-55.5 -11h-141v532zM141 359v-218h109q23 0 42.5 8.5t34.5 23.5t23.5 35t8.5 42q0 23 -8.5 42.5t-23.5 34.5t-34.5 23.5t-42.5 8.5h-109z" />
    <glyph glyph-name="uni0432" unicode="&#x432;" 
d="M109 109v532h141q30 0 55.5 -11t44.5 -30t30 -44.5t11 -55.5q0 -32 -11 -57t-30 -43q-7 -8 -15.5 -14t-17.5 -11q9 -5 17.5 -11t15.5 -14q19 -18 30 -43t11 -57q0 -30 -11 -55.5t-30 -44.5t-44.5 -30t-55.5 -11h-141zM250 391q23 0 42.5 8.5t34.5 23.5t23.5 35t8.5 42
q0 23 -8.5 42.5t-23.5 34.5t-34.5 23.5t-42.5 8.5h-109v-218h109zM141 359v-218h109q23 0 42.5 8.5t34.5 23.5t23.5 35t8.5 42q0 23 -8.5 42.5t-23.5 34.5t-34.5 23.5t-42.5 8.5h-109z" />
    <glyph glyph-name="uni0433" unicode="&#x433;" 
d="M109 641h282v-32h-250v-500h-32v532z" />
    <glyph glyph-name="uni0434" unicode="&#x434;" 
d="M109 0v641h282v-641h-32v109h-218v-109h-32zM141 141h218v468h-218v-468z" />
    <glyph glyph-name="uni0435" unicode="&#x435;" 
d="M109 641h282v-32h-250v-218h250v-32h-250v-218h250v-32h-282v532z" />
    <glyph glyph-name="uni0436" unicode="&#x436;" 
d="M-1 641h26v-141q0 -24 9 -44.5t25 -34.5t36.5 -22t44.5 -8h98v250h25v-250h97q24 0 44.5 8t36.5 22t25 34.5t9 44.5v141h26v-141q0 -25 -7 -45.5t-19 -37.5q-4 -5 -7.5 -9t-7.5 -8q-7 -8 -15.5 -14t-17.5 -11q9 -5 17.5 -11t15.5 -14q4 -4 7.5 -8t7.5 -9q12 -17 19 -37.5
t7 -45.5v-141h-26v141q0 23 -8.5 42.5t-23.5 34.5t-34.5 23.5t-42.5 8.5h-103v-250h-25v250h-104q-22 0 -42 -8.5t-35 -23.5t-23.5 -34.5t-8.5 -42.5v-141h-26v141q0 25 7 45.5t19 37.5q4 5 7.5 9t7.5 8q7 8 15.5 14t17.5 11q-9 5 -17.5 11t-15.5 14q-4 4 -7.5 8t-7.5 9
q-12 17 -19 37.5t-7 45.5v141z" />
    <glyph glyph-name="uni0437" unicode="&#x437;" 
d="M109 391h141q23 0 42.5 8.5t34.5 23.5t23.5 35t8.5 42q0 23 -8.5 42.5t-23.5 34.5t-34.5 23.5t-42.5 8.5q-22 0 -42 -8.5t-35 -23.5t-23.5 -34.5t-8.5 -42.5h-32q0 30 11 55.5t30 44.5t44.5 30t55.5 11t55.5 -11t44.5 -30t30 -44.5t11 -55.5q0 -32 -11 -57t-30 -43
q-7 -8 -15.5 -14t-17.5 -11q9 -5 17.5 -11t15.5 -14q19 -18 30 -43t11 -57q0 -30 -11 -55.5t-30 -44.5t-44.5 -30t-55.5 -11t-55.5 11t-44.5 30t-30 44.5t-11 55.5h32q0 -22 8.5 -42t23.5 -35t35 -23.5t42 -8.5q23 0 42.5 8.5t34.5 23.5t23.5 35t8.5 42q0 23 -8.5 42.5
t-23.5 34.5t-34.5 23.5t-42.5 8.5h-141v32z" />
    <glyph glyph-name="uni0438" unicode="&#x438;" 
d="M0 641q32 0 57 -11t43 -30q8 -7 14 -15.5t11 -17.5q5 9 11 17.5t14 15.5q18 19 43 30t57 11h141v-532h-32v500h-109q-22 0 -42 -8.5t-35 -23.5t-23.5 -34.5t-8.5 -42.5v-391h-32v391q0 23 -8.5 42.5t-23.5 34.5t-34.5 23.5t-42.5 8.5v32z" />
    <glyph glyph-name="uni0439" unicode="&#x439;" 
d="M0 391q32 0 57 -11t43 -30q8 -7 14 -15.5t11 -17.5q5 9 11 17.5t14 15.5q18 19 43 30t57 11h141v-282h-32v250h-109q-22 0 -42 -8.5t-35 -23.5t-23.5 -34.5t-8.5 -42.5v-141h-32v141q0 23 -8.5 42.5t-23.5 34.5t-34.5 23.5t-42.5 8.5v32zM141 750q0 -22 8.5 -42t23.5 -35
t35 -23.5t42 -8.5q23 0 42.5 8.5t34.5 23.5t23.5 35t8.5 42h32q0 -30 -11 -55.5t-30 -44.5t-44.5 -30t-55.5 -11t-55.5 11t-44.5 30t-30 44.5t-11 55.5h32z" />
    <glyph glyph-name="uni043A" unicode="&#x43a;" 
d="M141 641v-250h109q23 0 42.5 8.5t34.5 23.5t23.5 35t8.5 42v141h32v-141q0 -28 -8.5 -50.5t-23.5 -39.5q-3 -4 -9 -10q-7 -8 -15.5 -14t-17.5 -11q9 -5 17.5 -11t15.5 -14q6 -6 9 -10q15 -17 23.5 -39.5t8.5 -50.5v-141h-32v141q0 23 -8.5 42.5t-23.5 34.5t-34.5 23.5
t-42.5 8.5h-109v-250h-32v532h32z" />
    <glyph glyph-name="uni043B" unicode="&#x43b;" 
d="M0 109v32q23 0 42.5 8.5t34.5 23.5t23.5 35t8.5 42v391h282v-532h-32v500h-218v-359q0 -30 -11 -55.5t-30 -44.5t-44.5 -30t-55.5 -11z" />
    <glyph glyph-name="uni043C" unicode="&#x43c;" 
d="M50 508q0 28 6 52.5t18.5 42.5t32.5 28t48 10q42 0 64.5 -22.5t30.5 -59.5q8 38 30.5 60t64.5 22q28 0 48 -10t32.5 -28t18.5 -42.5t6 -52.5v-399h-29v391q0 23 -4 42.5t-13 34.5t-24.5 23.5t-38.5 8.5q-45 0 -62.5 -32t-17.5 -77v-391h-22v391q0 45 -17.5 77t-62.5 32
q-23 0 -38.5 -8.5t-24.5 -23.5t-13 -34.5t-4 -42.5v-391h-29v399z" />
    <glyph glyph-name="uni043D" unicode="&#x43d;" 
d="M141 641v-250h218v250h32v-532h-32v250h-218v-250h-32v532h32z" />
    <glyph glyph-name="uni043E" unicode="&#x43e;" 
d="M109 500q0 30 11 55.5t30 44.5t44.5 30t55.5 11t55.5 -11t44.5 -30t30 -44.5t11 -55.5v-250q0 -30 -11 -55.5t-30 -44.5t-44.5 -30t-55.5 -11t-55.5 11t-44.5 30t-30 44.5t-11 55.5v250zM141 250q0 -22 8.5 -42t23.5 -35t35 -23.5t42 -8.5q23 0 42.5 8.5t34.5 23.5
t23.5 35t8.5 42v250q0 23 -8.5 42.5t-23.5 34.5t-34.5 23.5t-42.5 8.5q-22 0 -42 -8.5t-35 -23.5t-23.5 -34.5t-8.5 -42.5v-250z" />
    <glyph glyph-name="uni043F" unicode="&#x43f;" 
d="M109 109v532h282v-532h-32v500h-218v-500h-32z" />
    <glyph glyph-name="uni0440" unicode="&#x440;" 
d="M109 109v532h141q30 0 55.5 -11t44.5 -30t30 -44.5t11 -55.5t-11 -55.5t-30 -44.5t-44.5 -30t-55.5 -11h-109v-250h-32zM250 391q23 0 42.5 8.5t34.5 23.5t23.5 35t8.5 42q0 23 -8.5 42.5t-23.5 34.5t-34.5 23.5t-42.5 8.5h-109v-218h109z" />
    <glyph glyph-name="uni0441" unicode="&#x441;" 
d="M109 500q0 30 11 55.5t30 44.5t44.5 30t55.5 11t55.5 -11t44.5 -30t30 -44.5t11 -55.5h-32q0 23 -8.5 42.5t-23.5 34.5t-34.5 23.5t-42.5 8.5q-22 0 -42 -8.5t-35 -23.5t-23.5 -34.5t-8.5 -42.5v-250q0 -22 8.5 -42t23.5 -35t35 -23.5t42 -8.5q23 0 42.5 8.5t34.5 23.5
t23.5 35t8.5 42h32q0 -30 -11 -55.5t-30 -44.5t-44.5 -30t-55.5 -11t-55.5 11t-44.5 30t-30 44.5t-11 55.5v250z" />
    <glyph glyph-name="uni0442" unicode="&#x442;" 
d="M113 641h275v-32h-122v-500h-32v500h-121v32z" />
    <glyph glyph-name="uni0443" unicode="&#x443;" 
d="M109 141h141q23 0 42.5 8.5t34.5 23.5t23.5 35t8.5 42v109h-109q-30 0 -55.5 11t-44.5 30t-30 44.5t-11 55.5v141h32v-141q0 -22 8.5 -42t23.5 -35t35 -23.5t42 -8.5h109v250h32v-391q0 -30 -11 -55.5t-30 -44.5t-44.5 -30t-55.5 -11h-141v32z" />
    <glyph glyph-name="uni0444" unicode="&#x444;" 
d="M86 400q0 30 11 56t30.5 44.5t45 29.5t55.5 11h8v118h28v-118h9q30 0 55.5 -11t44.5 -30t30 -44.5t11 -55.5t-11 -55.5t-30 -44.5t-44.5 -30t-55.5 -11h-9v-150h-28v150h-8q-30 0 -55.5 11t-45 29.5t-30.5 44.5t-11 56zM279 291q23 0 42.5 8.5t34.5 23.5t23.5 35t8.5 42
q0 23 -8.5 42.5t-23.5 34.5t-34.5 23.5t-42.5 8.5h-15v-218h15zM113 400q0 -22 8.5 -42t23 -35t34 -23.5t42.5 -8.5h15v218h-15q-23 0 -42.5 -8.5t-34 -23.5t-23 -34.5t-8.5 -42.5z" />
    <glyph glyph-name="uni0445" unicode="&#x445;" 
d="M109 641h32v-141q0 -22 8.5 -42t23.5 -35t35 -23.5t42 -8.5q23 0 42.5 8.5t34.5 23.5t23.5 35t8.5 42v141h32v-141q0 -28 -8.5 -50.5t-23.5 -39.5q-3 -4 -9 -10q-7 -8 -15.5 -14t-17.5 -11q9 -5 17.5 -11t15.5 -14q6 -6 9 -10q15 -17 23.5 -39.5t8.5 -50.5v-141h-32v141
q0 23 -8.5 42.5t-23.5 34.5t-34.5 23.5t-42.5 8.5q-22 0 -42 -8.5t-35 -23.5t-23.5 -34.5t-8.5 -42.5v-141h-32v141q0 28 8.5 50.5t23.5 39.5q3 4 9 10q7 8 15.5 14t17.5 11q-9 5 -17.5 11t-15.5 14q-6 6 -9 10q-15 17 -23.5 39.5t-8.5 50.5v141z" />
    <glyph glyph-name="uni0446" unicode="&#x446;" 
d="M109 641h32v-500h218v500h32v-641h-32v109h-250v532z" />
    <glyph glyph-name="uni0447" unicode="&#x447;" 
d="M141 641v-141q0 -22 8.5 -42t23.5 -35t35 -23.5t42 -8.5h109v250h32v-532h-32v250h-109q-30 0 -55.5 11t-44.5 30t-30 44.5t-11 55.5v141h32z" />
    <glyph glyph-name="uni0448" unicode="&#x448;" 
d="M60 641v-500h178v500h25v-500h177v500h28v-532h-435v532h27z" />
    <glyph glyph-name="uni0449" unicode="&#x449;" 
d="M60 641v-500h178v500h25v-500h177v500h28v-603h-28v71h-407v532h27z" />
    <glyph glyph-name="uni044A" unicode="&#x44a;" 
d="M-6 641h147v-250h109q30 0 55.5 -11t44.5 -30t30 -44.5t11 -55.5t-11 -55.5t-30 -44.5t-44.5 -30t-55.5 -11h-141v500h-115v32zM141 359v-218h109q23 0 42.5 8.5t34.5 23.5t23.5 35t8.5 42q0 23 -8.5 42.5t-23.5 34.5t-34.5 23.5t-42.5 8.5h-109z" />
    <glyph glyph-name="uni044B" unicode="&#x44b;" 
d="M98 109v532h29v-250h11q30 0 55.5 -11t44.5 -30t29.5 -44.5t10.5 -55.5t-10.5 -55.5t-29.5 -44.5t-44.5 -30t-55.5 -11h-40zM127 359v-218h16q23 0 42.5 8.5t34.5 23.5t23.5 35t8.5 42q0 23 -8.5 42.5t-23.5 34.5t-34.5 23.5t-42.5 8.5h-16zM411 641v-532h-27v532h27z
" />
    <glyph glyph-name="uni044C" unicode="&#x44c;" 
d="M141 641v-250h109q30 0 55.5 -11t44.5 -30t30 -44.5t11 -55.5t-11 -55.5t-30 -44.5t-44.5 -30t-55.5 -11h-141v532h32zM141 359v-218h109q23 0 42.5 8.5t34.5 23.5t23.5 35t8.5 42q0 23 -8.5 42.5t-23.5 34.5t-34.5 23.5t-42.5 8.5h-109z" />
    <glyph glyph-name="uni044D" unicode="&#x44d;" 
d="M109 391h250v109q0 23 -8.5 42.5t-23.5 34.5t-34.5 23.5t-42.5 8.5q-22 0 -42 -8.5t-35 -23.5t-23.5 -34.5t-8.5 -42.5h-32q0 30 11 55.5t30 44.5t44.5 30t55.5 11t55.5 -11t44.5 -30t30 -44.5t11 -55.5v-250q0 -30 -11 -55.5t-30 -44.5t-44.5 -30t-55.5 -11t-55.5 11
t-44.5 30t-30 44.5t-11 55.5h32q0 -22 8.5 -42t23.5 -35t35 -23.5t42 -8.5q23 0 42.5 8.5t34.5 23.5t23.5 35t8.5 42v109h-250v32z" />
    <glyph glyph-name="uni044E" unicode="&#x44e;" 
d="M65 391h124v109q0 30 10 55.5t28 44.5t43 30t55 11t55 -11t43 -30t28 -44.5t10 -55.5v-250q0 -30 -10 -55.5t-28 -44.5t-43 -30t-55 -11t-55 11t-43 30t-28 44.5t-10 55.5v109h-124v-250h-26v532h26v-250zM216 500v-250q0 -22 8.5 -42t23.5 -35t35 -23.5t42 -8.5
q23 0 42.5 8.5t34.5 23.5t23.5 35t8.5 42v250q0 23 -8.5 42.5t-23.5 34.5t-34.5 23.5t-42.5 8.5q-22 0 -42 -8.5t-35 -23.5t-23.5 -34.5t-8.5 -42.5z" />
    <glyph glyph-name="uni044F" unicode="&#x44f;" 
d="M109 250q0 32 11 57t30 43q7 8 15.5 14t17.5 11q-9 5 -17.5 11t-15.5 14q-19 18 -30 43t-11 57q0 30 11 55.5t30 44.5t44.5 30t55.5 11h141v-532h-32v250h-109q-22 0 -42 -8.5t-35 -23.5t-23.5 -34.5t-8.5 -42.5v-141h-32v141zM141 500q0 -22 8.5 -42t23.5 -35t35 -23.5
t42 -8.5h109v218h-109q-22 0 -42 -8.5t-35 -23.5t-23.5 -34.5t-8.5 -42.5z" />
    <glyph glyph-name="uni0450" unicode="&#x450;" 
d="M141 359v-218h250v-32h-282v391q0 32 11 57t30 43q7 8 15.5 14t17.5 11q-9 5 -17.5 11t-15.5 14q-19 18 -30 43t-11 57h32q0 -22 8.5 -42t23.5 -35t35 -23.5t42 -8.5h141v-32h-141q-22 0 -42 -8.5t-35 -23.5t-23.5 -34.5t-8.5 -42.5v-109h250v-32h-250z" />
    <glyph glyph-name="uni0451" unicode="&#x451;" 
d="M141 750v-109h218v109h32v-141h-250v-218h250v-32h-250v-218h250v-32h-282v641h32z" />
    <glyph glyph-name="uni0452" unicode="&#x452;" 
d="M-6 609v32h262v-32h-115v-218h109q30 0 55.5 -11t44.5 -30t30 -44.5t11 -55.5t-11 -55.5t-30 -44.5t-44.5 -30t-55.5 -11v32q23 0 42.5 8.5t34.5 23.5t23.5 35t8.5 42q0 23 -8.5 42.5t-23.5 34.5t-34.5 23.5t-42.5 8.5h-109v-250h-32v500h-115z" />
    <glyph glyph-name="uni0453" unicode="&#x453;" 
d="M109 109v532h141q23 0 42.5 8.5t34.5 23.5t23.5 35t8.5 42h32q0 -30 -11 -55.5t-30 -44.5t-44.5 -30t-55.5 -11h-109v-500h-32z" />
    <glyph glyph-name="uni0454" unicode="&#x454;" 
d="M109 500q0 30 11 55.5t30 44.5t44.5 30t55.5 11t55.5 -11t44.5 -30t30 -44.5t11 -55.5h-32q0 23 -8.5 42.5t-23.5 34.5t-34.5 23.5t-42.5 8.5q-22 0 -42 -8.5t-35 -23.5t-23.5 -34.5t-8.5 -42.5v-109h250v-32h-250v-109q0 -22 8.5 -42t23.5 -35t35 -23.5t42 -8.5
q23 0 42.5 8.5t34.5 23.5t23.5 35t8.5 42h32q0 -30 -11 -55.5t-30 -44.5t-44.5 -30t-55.5 -11t-55.5 11t-44.5 30t-30 44.5t-11 55.5v250z" />
    <glyph glyph-name="uni0455" unicode="&#x455;" 
d="M109 500q0 30 11 55.5t30 44.5t44.5 30t55.5 11t55.5 -11t44.5 -30t30 -44.5t11 -55.5h-32q0 23 -8.5 42.5t-23.5 34.5t-34.5 23.5t-42.5 8.5q-22 0 -42 -8.5t-35 -23.5t-23.5 -34.5t-8.5 -42.5q0 -22 8.5 -42t23.5 -35t35 -23.5t42 -8.5q30 0 55.5 -11t44.5 -30
t30 -44.5t11 -55.5t-11 -55.5t-30 -44.5t-44.5 -30t-55.5 -11t-55.5 11t-44.5 30t-30 44.5t-11 55.5h32q0 -22 8.5 -42t23.5 -35t35 -23.5t42 -8.5q23 0 42.5 8.5t34.5 23.5t23.5 35t8.5 42q0 23 -8.5 42.5t-23.5 34.5t-34.5 23.5t-42.5 8.5q-30 0 -55.5 11t-44.5 30
t-30 44.5t-11 55.5z" />
    <glyph glyph-name="uni0456" unicode="&#x456;" 
d="M118 109v32h116v468h-116v32h265v-32h-117v-468h117v-32h-265z" />
    <glyph glyph-name="uni0457" unicode="&#x457;" 
d="M266 500v-391h-32v391h32zM125 609v32h250v-32h-250z" />
    <glyph glyph-name="uni0458" unicode="&#x458;" 
d="M109 250h32q0 -22 8.5 -42t23.5 -35t35 -23.5t42 -8.5q23 0 42.5 8.5t34.5 23.5t23.5 35t8.5 42v359h-109v32h141v-391q0 -30 -11 -55.5t-30 -44.5t-44.5 -30t-55.5 -11t-55.5 11t-44.5 30t-30 44.5t-11 55.5z" />
    <glyph glyph-name="uni0459" unicode="&#x459;" 
d="M11 141q23 0 42.5 8.5t34.5 23.5t23.5 35t8.5 42v391h141v-250h62q30 0 55.5 -11t44.5 -30t30 -44.5t11 -55.5t-11 -55.5t-30 -44.5t-44.5 -30t-55.5 -11h-85v500h-90v-359q0 -30 -10 -55.5t-28.5 -44.5t-43.5 -30t-55 -11v32zM261 359v-218h62q23 0 42.5 8.5t34 23.5
t23 35t8.5 42q0 23 -8.5 42.5t-23 34.5t-34 23.5t-42.5 8.5h-62z" />
    <glyph glyph-name="uni045A" unicode="&#x45a;" 
d="M-5 109v532h26v-250h214v250h25v-500h105q23 0 42.5 8.5t34.5 23.5t23.5 35t8.5 42q0 23 -8.5 42.5t-23.5 34.5t-34.5 23.5t-42.5 8.5v32q30 0 55.5 -11t44.5 -30t30 -44.5t11 -55.5t-11 -55.5t-30 -44.5t-44.5 -30t-55.5 -11h-130v250h-214v-250h-26z" />
    <glyph glyph-name="uni045B" unicode="&#x45b;" 
d="M-6 641h262v-32h-115v-218h109q30 0 55.5 -11t44.5 -30t30 -44.5t11 -55.5v-141h-32v141q0 23 -8.5 42.5t-23.5 34.5t-34.5 23.5t-42.5 8.5h-109v-250h-32v500h-115v32z" />
    <glyph glyph-name="uni045C" unicode="&#x45c;" 
d="M141 641v-250h109q23 0 42.5 8.5t34.5 23.5t23.5 35t8.5 42h32q0 -32 -11 -57t-30 -43q-7 -8 -15.5 -14t-17.5 -11q9 -5 17.5 -11t15.5 -14q19 -18 30 -43t11 -57v-141h-32v141q0 23 -8.5 42.5t-23.5 34.5t-34.5 23.5t-42.5 8.5h-109v-250h-32v532h32zM250 641
q23 0 42.5 8.5t34.5 23.5t23.5 35t8.5 42h32q0 -30 -11 -55.5t-30 -44.5t-44.5 -30t-55.5 -11v32z" />
    <glyph glyph-name="uni045D" unicode="&#x45d;" 
d="M0 391q32 0 57 -11t43 -30q8 -7 14 -15.5t11 -17.5q5 9 11 17.5t14 15.5q18 19 43 30t57 11h141v-282h-32v250h-109q-22 0 -42 -8.5t-35 -23.5t-23.5 -34.5t-8.5 -42.5v-141h-32v141q0 23 -8.5 42.5t-23.5 34.5t-34.5 23.5t-42.5 8.5v32zM141 750q0 -22 8.5 -42t23.5 -35
t35 -23.5t42 -8.5v-32q-30 0 -55.5 11t-44.5 30t-30 44.5t-11 55.5h32z" />
    <glyph glyph-name="uni045E" unicode="&#x45e;" 
d="M109 109v32h141q23 0 42.5 8.5t34.5 23.5t23.5 35t8.5 42v109h-109q-30 0 -55.5 11t-44.5 30t-30 44.5t-11 55.5h32q0 -22 8.5 -42t23.5 -35t35 -23.5t42 -8.5h109v109h32v-250q0 -30 -11 -55.5t-30 -44.5t-44.5 -30t-55.5 -11h-141zM109 750h32q0 -22 8.5 -42t23.5 -35
t35 -23.5t42 -8.5q23 0 42.5 8.5t34.5 23.5t23.5 35t8.5 42h32q0 -30 -11 -55.5t-30 -44.5t-44.5 -30t-55.5 -11t-55.5 11t-44.5 30t-30 44.5t-11 55.5z" />
    <glyph glyph-name="uni045F" unicode="&#x45f;" 
d="M141 641v-500h218v500h32v-532h-250v-109h-32v641h32z" />
    <glyph glyph-name="uni0460" unicode="&#x460;" 
d="M155 109q-28 0 -48 10.5t-32.5 28.5t-18.5 42.5t-6 52.5v398h29v-391q0 -22 4 -42t13 -35t24.5 -23.5t38.5 -8.5q45 0 62.5 32t17.5 77v391h22v-391q0 -45 17.5 -77t62.5 -32q23 0 38.5 8.5t24.5 23.5t13 35t4 42v391h29v-398q0 -28 -6 -52.5t-18.5 -42.5t-32.5 -28.5
t-48 -10.5q-42 0 -64.5 22.5t-30.5 59.5q-8 -38 -30.5 -60t-64.5 -22z" />
    <glyph glyph-name="uni0461" unicode="&#x461;" 
d="M155 109q-28 0 -48 10.5t-32.5 28.5t-18.5 42.5t-6 52.5v398h29v-391q0 -22 4 -42t13 -35t24.5 -23.5t38.5 -8.5q45 0 62.5 32t17.5 77v391h22v-391q0 -45 17.5 -77t62.5 -32q23 0 38.5 8.5t24.5 23.5t13 35t4 42v391h29v-398q0 -28 -6 -52.5t-18.5 -42.5t-32.5 -28.5
t-48 -10.5q-42 0 -64.5 22.5t-30.5 59.5q-8 -38 -30.5 -60t-64.5 -22z" />
    <glyph glyph-name="uni0462" unicode="&#x462;" 
d="M11 641h263v-32h-115v-218h109q30 0 55.5 -11t44.5 -30t30 -44.5t11 -55.5t-11 -55.5t-30 -44.5t-44.5 -30t-55.5 -11h-142v500h-115v32zM159 359v-218h109q23 0 42.5 8.5t34 23.5t23 35t8.5 42q0 23 -8.5 42.5t-23 34.5t-34 23.5t-42.5 8.5h-109z" />
    <glyph glyph-name="uni0463" unicode="&#x463;" 
d="M11 641h263v-32h-115v-218h109q30 0 55.5 -11t44.5 -30t30 -44.5t11 -55.5t-11 -55.5t-30 -44.5t-44.5 -30t-55.5 -11h-142v500h-115v32zM159 359v-218h109q23 0 42.5 8.5t34 23.5t23 35t8.5 42q0 23 -8.5 42.5t-23 34.5t-34 23.5t-42.5 8.5h-109z" />
    <glyph glyph-name="uni0472" unicode="&#x472;" 
d="M109 500q0 30 11 55.5t30 44.5t44.5 30t55.5 11t55.5 -11t44.5 -30t30 -44.5t11 -55.5v-250q0 -30 -11 -55.5t-30 -44.5t-44.5 -30t-55.5 -11t-55.5 11t-44.5 30t-30 44.5t-11 55.5v250zM141 250q0 -22 8.5 -42t23.5 -35t35 -23.5t42 -8.5q23 0 42.5 8.5t34.5 23.5
t23.5 35t8.5 42v109h-218v-109zM359 391v109q0 23 -8.5 42.5t-23.5 34.5t-34.5 23.5t-42.5 8.5q-22 0 -42 -8.5t-35 -23.5t-23.5 -34.5t-8.5 -42.5v-109h218z" />
    <glyph glyph-name="uni0473" unicode="&#x473;" 
d="M109 500q0 30 11 55.5t30 44.5t44.5 30t55.5 11t55.5 -11t44.5 -30t30 -44.5t11 -55.5v-250q0 -30 -11 -55.5t-30 -44.5t-44.5 -30t-55.5 -11t-55.5 11t-44.5 30t-30 44.5t-11 55.5v250zM141 250q0 -22 8.5 -42t23.5 -35t35 -23.5t42 -8.5q23 0 42.5 8.5t34.5 23.5
t23.5 35t8.5 42v109h-218v-109zM359 391v109q0 23 -8.5 42.5t-23.5 34.5t-34.5 23.5t-42.5 8.5q-22 0 -42 -8.5t-35 -23.5t-23.5 -34.5t-8.5 -42.5v-109h218z" />
    <glyph glyph-name="uni0474" unicode="&#x474;" 
d="M141 641v-500h109q23 0 42.5 8.5t34.5 23.5t23.5 35t8.5 42v391h141v-32h-109v-359q0 -30 -11 -55.5t-30 -44.5t-44.5 -30t-55.5 -11h-141v532h32z" />
    <glyph glyph-name="uni0475" unicode="&#x475;" 
d="M141 641v-500h109q23 0 42.5 8.5t34.5 23.5t23.5 35t8.5 42v391h141v-32h-109v-359q0 -30 -11 -55.5t-30 -44.5t-44.5 -30t-55.5 -11h-141v532h32z" />
    <glyph glyph-name="uni048A" unicode="&#x48a;" 
d="M0 391q32 0 57 -11t43 -30q8 -7 14 -15.5t11 -17.5q5 9 11 17.5t14 15.5q18 19 43 30t57 11h141v-391h-32v359h-109q-22 0 -42 -8.5t-35 -23.5t-23.5 -34.5t-8.5 -42.5v-141h-32v141q0 23 -8.5 42.5t-23.5 34.5t-34.5 23.5t-42.5 8.5v32zM141 750q0 -22 8.5 -42t23.5 -35
t35 -23.5t42 -8.5q23 0 42.5 8.5t34.5 23.5t23.5 35t8.5 42h32q0 -30 -11 -55.5t-30 -44.5t-44.5 -30t-55.5 -11t-55.5 11t-44.5 30t-30 44.5t-11 55.5h32z" />
    <glyph glyph-name="uni048B" unicode="&#x48b;" 
d="M0 391q32 0 57 -11t43 -30q8 -7 14 -15.5t11 -17.5q5 9 11 17.5t14 15.5q18 19 43 30t57 11h141v-391h-32v359h-109q-22 0 -42 -8.5t-35 -23.5t-23.5 -34.5t-8.5 -42.5v-141h-32v141q0 23 -8.5 42.5t-23.5 34.5t-34.5 23.5t-42.5 8.5v32zM141 750q0 -22 8.5 -42t23.5 -35
t35 -23.5t42 -8.5q23 0 42.5 8.5t34.5 23.5t23.5 35t8.5 42h32q0 -30 -11 -55.5t-30 -44.5t-44.5 -30t-55.5 -11t-55.5 11t-44.5 30t-30 44.5t-11 55.5h32z" />
    <glyph glyph-name="uni048C" unicode="&#x48c;" 
d="M11 641h263v-32h-115v-218h109q30 0 55.5 -11t44.5 -30t30 -44.5t11 -55.5t-11 -55.5t-30 -44.5t-44.5 -30t-55.5 -11h-142v500h-115v32zM159 359v-218h109q23 0 42.5 8.5t34 23.5t23 35t8.5 42q0 23 -8.5 42.5t-23 34.5t-34 23.5t-42.5 8.5h-109z" />
    <glyph glyph-name="uni048D" unicode="&#x48d;" 
d="M11 641h263v-32h-115v-218h109q30 0 55.5 -11t44.5 -30t30 -44.5t11 -55.5t-11 -55.5t-30 -44.5t-44.5 -30t-55.5 -11h-142v500h-115v32zM159 359v-218h109q23 0 42.5 8.5t34 23.5t23 35t8.5 42q0 23 -8.5 42.5t-23 34.5t-34 23.5t-42.5 8.5h-109z" />
    <glyph glyph-name="uni048E" unicode="&#x48e;" 
d="M109 109v532h141q30 0 55.5 -11t44.5 -30t30 -44.5t11 -55.5q0 -32 -11 -57t-30 -43q-7 -8 -15.5 -14t-17.5 -11q9 -5 17.5 -11t15.5 -14q19 -18 30 -43t11 -57h-32q0 23 -8.5 42.5t-23.5 34.5t-34.5 23.5t-42.5 8.5h-109v-250h-32zM250 391q23 0 42.5 8.5t34.5 23.5
t23.5 35t8.5 42q0 23 -8.5 42.5t-23.5 34.5t-34.5 23.5t-42.5 8.5h-109v-218h109z" />
    <glyph glyph-name="uni048F" unicode="&#x48f;" 
d="M109 109v532h141q30 0 55.5 -11t44.5 -30t30 -44.5t11 -55.5q0 -32 -11 -57t-30 -43q-7 -8 -15.5 -14t-17.5 -11q9 -5 17.5 -11t15.5 -14q19 -18 30 -43t11 -57h-32q0 23 -8.5 42.5t-23.5 34.5t-34.5 23.5t-42.5 8.5h-109v-250h-32zM250 391q23 0 42.5 8.5t34.5 23.5
t23.5 35t8.5 42q0 23 -8.5 42.5t-23.5 34.5t-34.5 23.5t-42.5 8.5h-109v-218h109z" />
    <glyph glyph-name="uni0490" unicode="&#x490;" 
d="M109 641h250v109h32v-141h-250v-500h-32v532z" />
    <glyph glyph-name="uni0491" unicode="&#x491;" 
d="M109 641h250v109h32v-141h-250v-500h-32v532z" />
    <glyph glyph-name="uni0492" unicode="&#x492;" 
d="M109 391v250h282v-32h-250v-500h-32v250h-109v32h109zM391 391v-32h-141v32h141z" />
    <glyph glyph-name="uni0493" unicode="&#x493;" 
d="M109 391v250h282v-32h-250v-500h-32v250h-109v32h109zM391 391v-32h-141v32h141z" />
    <glyph glyph-name="uni0494" unicode="&#x494;" 
d="M391 641v-32h-250v-218h109q30 0 55.5 -11t44.5 -30t30 -44.5t11 -55.5t-11 -55.5t-30 -44.5t-44.5 -30t-55.5 -11h-141v32h141q23 0 42.5 8.5t34.5 23.5t23.5 35t8.5 42q0 23 -8.5 42.5t-23.5 34.5t-34.5 23.5t-42.5 8.5h-109v-109h-32v391h282z" />
    <glyph glyph-name="uni0495" unicode="&#x495;" 
d="M391 641v-32h-250v-218h109q30 0 55.5 -11t44.5 -30t30 -44.5t11 -55.5t-11 -55.5t-30 -44.5t-44.5 -30t-55.5 -11h-141v32h141q23 0 42.5 8.5t34.5 23.5t23.5 35t8.5 42q0 23 -8.5 42.5t-23.5 34.5t-34.5 23.5t-42.5 8.5h-109v-109h-32v391h282z" />
    <glyph glyph-name="uni0496" unicode="&#x496;" 
d="M-1 641h26v-141q0 -24 9 -44.5t25 -34.5t36.5 -22t44.5 -8h98v250h25v-250h97q24 0 44.5 8t36.5 22t25 34.5t9 44.5v141h26v-141q0 -25 -7 -45.5t-19 -37.5q-4 -5 -7.5 -9t-7.5 -8q-7 -8 -15.5 -14t-17.5 -11q9 -5 17.5 -11t15.5 -14q4 -4 7.5 -8t7.5 -9q12 -17 19 -37.5
t7 -45.5v-237h-26v237q0 23 -8.5 42.5t-23.5 34.5t-34.5 23.5t-42.5 8.5h-103v-250h-25v250h-104q-22 0 -42 -8.5t-35 -23.5t-23.5 -34.5t-8.5 -42.5v-141h-26v141q0 25 7 45.5t19 37.5q4 5 7.5 9t7.5 8q7 8 15.5 14t17.5 11q-9 5 -17.5 11t-15.5 14q-4 4 -7.5 8t-7.5 9
q-12 17 -19 37.5t-7 45.5v141z" />
    <glyph glyph-name="uni0497" unicode="&#x497;" 
d="M-1 641h26v-141q0 -24 9 -44.5t25 -34.5t36.5 -22t44.5 -8h98v250h25v-250h97q24 0 44.5 8t36.5 22t25 34.5t9 44.5v141h26v-141q0 -25 -7 -45.5t-19 -37.5q-4 -5 -7.5 -9t-7.5 -8q-7 -8 -15.5 -14t-17.5 -11q9 -5 17.5 -11t15.5 -14q4 -4 7.5 -8t7.5 -9q12 -17 19 -37.5
t7 -45.5v-237h-26v237q0 23 -8.5 42.5t-23.5 34.5t-34.5 23.5t-42.5 8.5h-103v-250h-25v250h-104q-22 0 -42 -8.5t-35 -23.5t-23.5 -34.5t-8.5 -42.5v-141h-26v141q0 25 7 45.5t19 37.5q4 5 7.5 9t7.5 8q7 8 15.5 14t17.5 11q-9 5 -17.5 11t-15.5 14q-4 4 -7.5 8t-7.5 9
q-12 17 -19 37.5t-7 45.5v141z" />
    <glyph glyph-name="uni0498" unicode="&#x498;" 
d="M109 391h141q23 0 42.5 8.5t34.5 23.5t23.5 35t8.5 42q0 23 -8.5 42.5t-23.5 34.5t-34.5 23.5t-42.5 8.5q-22 0 -42 -8.5t-35 -23.5t-23.5 -34.5t-8.5 -42.5h-32q0 30 11 55.5t30 44.5t44.5 30t55.5 11t55.5 -11t44.5 -30t30 -44.5t11 -55.5q0 -32 -11 -57t-30 -43
q-7 -8 -15.5 -14t-17.5 -11q9 -5 17.5 -11t15.5 -14q19 -18 30 -43t11 -57t-11 -57t-30 -43q-7 -8 -15.5 -14t-17.5 -11q9 -5 17.5 -11t15.5 -14q19 -18 30 -43t11 -57h-32q0 23 -8.5 42.5t-23.5 34.5t-34.5 23.5t-42.5 8.5q-30 0 -55.5 11t-44.5 30t-30 44.5t-11 55.5h32
q0 -22 8.5 -42t23.5 -35t35 -23.5t42 -8.5q23 0 42.5 8.5t34.5 23.5t23.5 35t8.5 42q0 23 -8.5 42.5t-23.5 34.5t-34.5 23.5t-42.5 8.5h-141v32z" />
    <glyph glyph-name="uni0499" unicode="&#x499;" 
d="M109 391h141q23 0 42.5 8.5t34.5 23.5t23.5 35t8.5 42q0 23 -8.5 42.5t-23.5 34.5t-34.5 23.5t-42.5 8.5q-22 0 -42 -8.5t-35 -23.5t-23.5 -34.5t-8.5 -42.5h-32q0 30 11 55.5t30 44.5t44.5 30t55.5 11t55.5 -11t44.5 -30t30 -44.5t11 -55.5q0 -32 -11 -57t-30 -43
q-7 -8 -15.5 -14t-17.5 -11q9 -5 17.5 -11t15.5 -14q19 -18 30 -43t11 -57t-11 -57t-30 -43q-7 -8 -15.5 -14t-17.5 -11q9 -5 17.5 -11t15.5 -14q19 -18 30 -43t11 -57h-32q0 23 -8.5 42.5t-23.5 34.5t-34.5 23.5t-42.5 8.5q-30 0 -55.5 11t-44.5 30t-30 44.5t-11 55.5h32
q0 -22 8.5 -42t23.5 -35t35 -23.5t42 -8.5q23 0 42.5 8.5t34.5 23.5t23.5 35t8.5 42q0 23 -8.5 42.5t-23.5 34.5t-34.5 23.5t-42.5 8.5h-141v32z" />
    <glyph glyph-name="uni049A" unicode="&#x49a;" 
d="M141 641v-250h109q23 0 42.5 8.5t34.5 23.5t23.5 35t8.5 42v141h32v-141q0 -28 -8.5 -50.5t-23.5 -39.5q-3 -4 -9 -10q-7 -8 -15.5 -14t-17.5 -11q9 -5 17.5 -11t15.5 -14q6 -6 9 -10q15 -17 23.5 -39.5t8.5 -50.5v-250h-32v250q0 23 -8.5 42.5t-23.5 34.5t-34.5 23.5
t-42.5 8.5h-109v-250h-32v532h32z" />
    <glyph glyph-name="uni049B" unicode="&#x49b;" 
d="M141 641v-250h109q23 0 42.5 8.5t34.5 23.5t23.5 35t8.5 42v141h32v-141q0 -28 -8.5 -50.5t-23.5 -39.5q-3 -4 -9 -10q-7 -8 -15.5 -14t-17.5 -11q9 -5 17.5 -11t15.5 -14q6 -6 9 -10q15 -17 23.5 -39.5t8.5 -50.5v-250h-32v250q0 23 -8.5 42.5t-23.5 34.5t-34.5 23.5
t-42.5 8.5h-109v-250h-32v532h32z" />
    <glyph glyph-name="uni049C" unicode="&#x49c;" 
d="M115 641v-250h125v118h20v-118h14q23 0 43 8.5t35 23t24 34.5t9 43v141h30v-141q0 -42 -19.5 -73.5t-54.5 -51.5q35 -20 54.5 -52t19.5 -73v-141h-30v141q0 23 -8.5 42.5t-23.5 34.5t-34.5 23.5t-42.5 8.5h-16v-118h-20v118h-125v-250h-30v532h30z" />
    <glyph glyph-name="uni049D" unicode="&#x49d;" 
d="M115 641v-250h125v118h20v-118h14q23 0 43 8.5t35 23t24 34.5t9 43v141h30v-141q0 -42 -19.5 -73.5t-54.5 -51.5q35 -20 54.5 -52t19.5 -73v-141h-30v141q0 23 -8.5 42.5t-23.5 34.5t-34.5 23.5t-42.5 8.5h-16v-118h-20v118h-125v-250h-30v532h30z" />
    <glyph glyph-name="uni049E" unicode="&#x49e;" 
d="M0 609v32h250v-32h-109v-218h109q23 0 42.5 8.5t34.5 23.5t23.5 35t8.5 42v141h32v-141q0 -28 -8.5 -50.5t-23.5 -39.5q-3 -4 -9 -10q-7 -8 -15.5 -14t-17.5 -11q9 -5 17.5 -11t15.5 -14q6 -6 9 -10q15 -17 23.5 -39.5t8.5 -50.5v-141h-32v141q0 23 -8.5 42.5t-23.5 34.5
t-34.5 23.5t-42.5 8.5h-109v-250h-32v500h-109z" />
    <glyph glyph-name="uni049F" unicode="&#x49f;" 
d="M0 609v32h250v-32h-109v-218h109q23 0 42.5 8.5t34.5 23.5t23.5 35t8.5 42v141h32v-141q0 -28 -8.5 -50.5t-23.5 -39.5q-3 -4 -9 -10q-7 -8 -15.5 -14t-17.5 -11q9 -5 17.5 -11t15.5 -14q6 -6 9 -10q15 -17 23.5 -39.5t8.5 -50.5v-141h-32v141q0 23 -8.5 42.5t-23.5 34.5
t-34.5 23.5t-42.5 8.5h-109v-250h-32v500h-109z" />
    <glyph glyph-name="uni04A0" unicode="&#x4a0;" 
d="M0 641h141v-250h109q23 0 42.5 8.5t34.5 23.5t23.5 35t8.5 42v141h32v-141q0 -28 -8.5 -50.5t-23.5 -39.5q-3 -4 -9 -10q-7 -8 -15.5 -14t-17.5 -11q9 -5 17.5 -11t15.5 -14q6 -6 9 -10q15 -17 23.5 -39.5t8.5 -50.5v-141h-32v141q0 23 -8.5 42.5t-23.5 34.5t-34.5 23.5
t-42.5 8.5h-109v-250h-32v500h-109v32z" />
    <glyph glyph-name="uni04A1" unicode="&#x4a1;" 
d="M0 641h141v-250h109q23 0 42.5 8.5t34.5 23.5t23.5 35t8.5 42v141h32v-141q0 -28 -8.5 -50.5t-23.5 -39.5q-3 -4 -9 -10q-7 -8 -15.5 -14t-17.5 -11q9 -5 17.5 -11t15.5 -14q6 -6 9 -10q15 -17 23.5 -39.5t8.5 -50.5v-141h-32v141q0 23 -8.5 42.5t-23.5 34.5t-34.5 23.5
t-42.5 8.5h-109v-250h-32v500h-109v32z" />
    <glyph glyph-name="uni04A2" unicode="&#x4a2;" 
d="M141 641v-250h218v250h32v-641h-32v359h-218v-250h-32v532h32z" />
    <glyph glyph-name="uni04A3" unicode="&#x4a3;" 
d="M141 641v-250h218v250h32v-641h-32v359h-218v-250h-32v532h32z" />
    <glyph glyph-name="uni04A4" unicode="&#x4a4;" 
d="M109 109v532h32v-250h218v250h141v-32h-109v-500h-32v250h-218v-250h-32z" />
    <glyph glyph-name="uni04A5" unicode="&#x4a5;" 
d="M109 109v532h32v-250h218v250h141v-32h-109v-500h-32v250h-218v-250h-32z" />
    <glyph glyph-name="uni04A6" unicode="&#x4a6;" 
d="M266 641v-250h9q30 0 55.5 -11t44.5 -30t30 -44.5t11 -55.5t-11 -55.5t-30 -44.5t-44.5 -30t-55.5 -11h-37v500h-125v-500h-29v532h182zM275 141q23 0 42.5 8.5t34.5 23.5t23.5 35t8.5 42q0 23 -8.5 42.5t-23.5 34.5t-34.5 23.5t-42.5 8.5h-9v-218h9z" />
    <glyph glyph-name="uni04A7" unicode="&#x4a7;" 
d="M266 641v-250h9q30 0 55.5 -11t44.5 -30t30 -44.5t11 -55.5t-11 -55.5t-30 -44.5t-44.5 -30t-55.5 -11h-37v500h-125v-500h-29v532h182zM275 141q23 0 42.5 8.5t34.5 23.5t23.5 35t8.5 42q0 23 -8.5 42.5t-23.5 34.5t-34.5 23.5t-42.5 8.5h-9v-218h9z" />
    <glyph glyph-name="uni04A8" unicode="&#x4a8;" 
d="M70 150q-17 18 -23.5 43t-6.5 57v250q0 32 6.5 57t23.5 43q17 19 36.5 30t49.5 11v-32q-23 0 -38.5 -9t-29.5 -23t-18 -33.5t-4 -43.5v-250q0 -24 4 -43.5t18 -33.5t29.5 -23t38.5 -9h81v359q0 32 6.5 57t23.5 43q17 19 36.5 30t49.5 11t49.5 -11t36.5 -30
q17 -18 23.5 -43t6.5 -57v-250q0 -32 -6.5 -57t-23.5 -43q-17 -19 -36.5 -30t-49.5 -11h-197q-30 0 -49.5 11t-36.5 30zM353 141q23 0 38 9t29 23t18.5 33.5t4.5 43.5v250q0 24 -4.5 43.5t-18.5 33.5t-29 23t-38 9t-38 -9t-29 -23t-18.5 -33.5t-4.5 -43.5v-359h90z" />
    <glyph glyph-name="uni04A9" unicode="&#x4a9;" 
d="M70 150q-17 18 -23.5 43t-6.5 57v250q0 32 6.5 57t23.5 43q17 19 36.5 30t49.5 11v-32q-23 0 -38.5 -9t-29.5 -23t-18 -33.5t-4 -43.5v-250q0 -24 4 -43.5t18 -33.5t29.5 -23t38.5 -9h81v359q0 32 6.5 57t23.5 43q17 19 36.5 30t49.5 11t49.5 -11t36.5 -30
q17 -18 23.5 -43t6.5 -57v-250q0 -32 -6.5 -57t-23.5 -43q-17 -19 -36.5 -30t-49.5 -11h-197q-30 0 -49.5 11t-36.5 30zM353 141q23 0 38 9t29 23t18.5 33.5t4.5 43.5v250q0 24 -4.5 43.5t-18.5 33.5t-29 23t-38 9t-38 -9t-29 -23t-18.5 -33.5t-4.5 -43.5v-359h90z" />
    <glyph glyph-name="uni04AA" unicode="&#x4aa;" 
d="M109 500q0 30 11 55.5t30 44.5t44.5 30t55.5 11t55.5 -11t44.5 -30t30 -44.5t11 -55.5h-32q0 23 -8.5 42.5t-23.5 34.5t-34.5 23.5t-42.5 8.5q-22 0 -42 -8.5t-35 -23.5t-23.5 -34.5t-8.5 -42.5v-250q0 -22 8.5 -42t23.5 -35t35 -23.5t42 -8.5q23 0 42.5 8.5t34.5 23.5
t23.5 35t8.5 42h32q0 -30 -11 -55.5t-30 -44.5t-44.5 -30t-55.5 -11q-22 0 -42 -8.5t-35 -23.5t-23.5 -34.5t-8.5 -42.5h-32q0 32 11 57t30 43q7 8 15.5 14t17.5 11q-9 5 -17.5 11t-15.5 14q-19 18 -30 43t-11 57v250z" />
    <glyph glyph-name="uni04AB" unicode="&#x4ab;" 
d="M109 500q0 30 11 55.5t30 44.5t44.5 30t55.5 11t55.5 -11t44.5 -30t30 -44.5t11 -55.5h-32q0 23 -8.5 42.5t-23.5 34.5t-34.5 23.5t-42.5 8.5q-22 0 -42 -8.5t-35 -23.5t-23.5 -34.5t-8.5 -42.5v-250q0 -22 8.5 -42t23.5 -35t35 -23.5t42 -8.5q23 0 42.5 8.5t34.5 23.5
t23.5 35t8.5 42h32q0 -30 -11 -55.5t-30 -44.5t-44.5 -30t-55.5 -11q-22 0 -42 -8.5t-35 -23.5t-23.5 -34.5t-8.5 -42.5h-32q0 32 11 57t30 43q7 8 15.5 14t17.5 11q-9 5 -17.5 11t-15.5 14q-19 18 -30 43t-11 57v250z" />
    <glyph glyph-name="uni04AC" unicode="&#x4ac;" 
d="M113 641h275v-32h-122v-609h-32v609h-121v32z" />
    <glyph glyph-name="uni04AD" unicode="&#x4ad;" 
d="M113 641h275v-32h-122v-609h-32v609h-121v32z" />
    <glyph glyph-name="uni04AE" unicode="&#x4ae;" 
d="M141 641v-141q0 -22 8.5 -42t23.5 -35t35 -23.5t42 -8.5h109v250h32v-532h-32v250h-109q-30 0 -55.5 11t-44.5 30t-30 44.5t-11 55.5v141h32z" />
    <glyph glyph-name="uni04AF" unicode="&#x4af;" 
d="M141 641v-141q0 -22 8.5 -42t23.5 -35t35 -23.5t42 -8.5h109v250h32v-532h-32v250h-109q-30 0 -55.5 11t-44.5 30t-30 44.5t-11 55.5v141h32z" />
    <glyph glyph-name="uni04B0" unicode="&#x4b0;" 
d="M109 641h32v-141q0 -22 8.5 -42t23.5 -35t35 -23.5t42 -8.5h109v250h32v-641h-32v109h-121v32h121v218h-109q-30 0 -55.5 11t-44.5 30t-30 44.5t-11 55.5v141z" />
    <glyph glyph-name="uni04B1" unicode="&#x4b1;" 
d="M109 641h32v-141q0 -22 8.5 -42t23.5 -35t35 -23.5t42 -8.5h109v250h32v-641h-32v109h-121v32h121v218h-109q-30 0 -55.5 11t-44.5 30t-30 44.5t-11 55.5v141z" />
    <glyph glyph-name="uni04B2" unicode="&#x4b2;" 
d="M141 641v-141q0 -22 8.5 -42t23.5 -35t35 -23.5t42 -8.5q23 0 42.5 8.5t34.5 23.5t23.5 35t8.5 42v141h32v-141q0 -28 -8.5 -50.5t-23.5 -39.5q-3 -4 -9 -10q-7 -8 -15.5 -14t-17.5 -11q9 -5 17.5 -11t15.5 -14q6 -6 9 -10q15 -17 23.5 -39.5t8.5 -50.5v-250h-32v250
q0 23 -8.5 42.5t-23.5 34.5t-34.5 23.5t-42.5 8.5q-22 0 -42 -8.5t-35 -23.5t-23.5 -34.5t-8.5 -42.5v-141h-32v141q0 28 8.5 50.5t23.5 39.5q3 4 9 10q7 8 15.5 14t17.5 11q-9 5 -17.5 11t-15.5 14q-6 6 -9 10q-15 17 -23.5 39.5t-8.5 50.5v141h32z" />
    <glyph glyph-name="uni04B3" unicode="&#x4b3;" 
d="M141 641v-141q0 -22 8.5 -42t23.5 -35t35 -23.5t42 -8.5q23 0 42.5 8.5t34.5 23.5t23.5 35t8.5 42v141h32v-141q0 -28 -8.5 -50.5t-23.5 -39.5q-3 -4 -9 -10q-7 -8 -15.5 -14t-17.5 -11q9 -5 17.5 -11t15.5 -14q6 -6 9 -10q15 -17 23.5 -39.5t8.5 -50.5v-250h-32v250
q0 23 -8.5 42.5t-23.5 34.5t-34.5 23.5t-42.5 8.5q-22 0 -42 -8.5t-35 -23.5t-23.5 -34.5t-8.5 -42.5v-141h-32v141q0 28 8.5 50.5t23.5 39.5q3 4 9 10q7 8 15.5 14t17.5 11q-9 5 -17.5 11t-15.5 14q-6 6 -9 10q-15 17 -23.5 39.5t-8.5 50.5v141h32z" />
    <glyph glyph-name="uni04B4" unicode="&#x4b4;" 
d="M0 609v32h250v-32h-109v-468h218v500h32v-641h-32v109h-250v500h-109z" />
    <glyph glyph-name="uni04B5" unicode="&#x4b5;" 
d="M0 609v32h250v-32h-109v-468h218v500h32v-641h-32v109h-250v500h-109z" />
    <glyph glyph-name="uni04B6" unicode="&#x4b6;" 
d="M141 641v-141q0 -22 8.5 -42t23.5 -35t35 -23.5t42 -8.5h109v250h32v-641h-32v359h-109q-30 0 -55.5 11t-44.5 30t-30 44.5t-11 55.5v141h32z" />
    <glyph glyph-name="uni04B7" unicode="&#x4b7;" 
d="M141 641v-141q0 -22 8.5 -42t23.5 -35t35 -23.5t42 -8.5h109v250h32v-641h-32v359h-109q-30 0 -55.5 11t-44.5 30t-30 44.5t-11 55.5v141h32z" />
    <glyph glyph-name="uni04B8" unicode="&#x4b8;" 
d="M114 641v-141q0 -22 8.5 -42t23.5 -35t35 -23.5t42 -8.5h15v119h25v-119h123v250h33v-532h-33v250h-123v-118h-25v118h-15q-30 0 -55.5 11t-45 29.5t-30.5 44.5t-11 56v141h33z" />
    <glyph glyph-name="uni04B9" unicode="&#x4b9;" 
d="M114 641v-141q0 -22 8.5 -42t23.5 -35t35 -23.5t42 -8.5h15v119h25v-119h123v250h33v-532h-33v250h-123v-118h-25v118h-15q-30 0 -55.5 11t-45 29.5t-30.5 44.5t-11 56v141h33z" />
    <glyph glyph-name="uni04BA" unicode="&#x4ba;" 
d="M109 109v532h32v-250h109q30 0 55.5 -11t44.5 -30t30 -44.5t11 -55.5v-141h-32v141q0 23 -8.5 42.5t-23.5 34.5t-34.5 23.5t-42.5 8.5h-109v-250h-32z" />
    <glyph glyph-name="uni04BB" unicode="&#x4bb;" 
d="M109 109v532h32v-250h109q30 0 55.5 -11t44.5 -30t30 -44.5t11 -55.5v-141h-32v141q0 23 -8.5 42.5t-23.5 34.5t-34.5 23.5t-42.5 8.5h-109v-250h-32z" />
    <glyph glyph-name="uni04BC" unicode="&#x4bc;" 
d="M0 391h109v109q0 30 11 55.5t30 44.5t44.5 30t55.5 11t55.5 -11t44.5 -30t30 -44.5t11 -55.5v-141h-141v32h109v109q0 23 -8.5 42.5t-23.5 34.5t-34.5 23.5t-42.5 8.5q-22 0 -42 -8.5t-35 -23.5t-23.5 -34.5t-8.5 -42.5v-250q0 -22 8.5 -42t23.5 -35t35 -23.5t42 -8.5
q23 0 42.5 8.5t34.5 23.5t23.5 35t8.5 42h32q0 -30 -11 -55.5t-30 -44.5t-44.5 -30t-55.5 -11t-55.5 11t-44.5 30t-30 44.5t-11 55.5v109h-109v32z" />
    <glyph glyph-name="uni04BD" unicode="&#x4bd;" 
d="M0 391h109v109q0 30 11 55.5t30 44.5t44.5 30t55.5 11t55.5 -11t44.5 -30t30 -44.5t11 -55.5v-141h-141v32h109v109q0 23 -8.5 42.5t-23.5 34.5t-34.5 23.5t-42.5 8.5q-22 0 -42 -8.5t-35 -23.5t-23.5 -34.5t-8.5 -42.5v-250q0 -22 8.5 -42t23.5 -35t35 -23.5t42 -8.5
q23 0 42.5 8.5t34.5 23.5t23.5 35t8.5 42h32q0 -30 -11 -55.5t-30 -44.5t-44.5 -30t-55.5 -11t-55.5 11t-44.5 30t-30 44.5t-11 55.5v109h-109v32z" />
    <glyph glyph-name="uni04BE" unicode="&#x4be;" 
d="M0 359v32h109v109q0 30 11 55.5t30 44.5t44.5 30t55.5 11t55.5 -11t44.5 -30t30 -44.5t11 -55.5v-141h-141v32h109v109q0 23 -8.5 42.5t-23.5 34.5t-34.5 23.5t-42.5 8.5q-22 0 -42 -8.5t-35 -23.5t-23.5 -34.5t-8.5 -42.5v-250q0 -22 8.5 -42t23.5 -35t35 -23.5t42 -8.5
q23 0 42.5 8.5t34.5 23.5t23.5 35t8.5 42h32q0 -30 -11 -55.5t-30 -44.5t-44.5 -30t-55.5 -11q-22 0 -42 -8.5t-35 -23.5t-23.5 -34.5t-8.5 -42.5h-32q0 32 11 57t30 43q7 8 15.5 14t17.5 11q-9 5 -17.5 11t-15.5 14q-19 18 -30 43t-11 57v109h-109z" />
    <glyph glyph-name="uni04BF" unicode="&#x4bf;" 
d="M0 359v32h109v109q0 30 11 55.5t30 44.5t44.5 30t55.5 11t55.5 -11t44.5 -30t30 -44.5t11 -55.5v-141h-141v32h109v109q0 23 -8.5 42.5t-23.5 34.5t-34.5 23.5t-42.5 8.5q-22 0 -42 -8.5t-35 -23.5t-23.5 -34.5t-8.5 -42.5v-250q0 -22 8.5 -42t23.5 -35t35 -23.5t42 -8.5
q23 0 42.5 8.5t34.5 23.5t23.5 35t8.5 42h32q0 -30 -11 -55.5t-30 -44.5t-44.5 -30t-55.5 -11q-22 0 -42 -8.5t-35 -23.5t-23.5 -34.5t-8.5 -42.5h-32q0 32 11 57t30 43q7 8 15.5 14t17.5 11q-9 5 -17.5 11t-15.5 14q-19 18 -30 43t-11 57v109h-109z" />
    <glyph glyph-name="uni04C0" unicode="&#x4c0;" 
d="M118 109v32h116v468h-116v32h265v-32h-117v-468h117v-32h-265z" />
    <glyph glyph-name="uni04C1" unicode="&#x4c1;" 
d="M25 366q-12 17 -19 37.5t-7 45.5v90h26v-90q0 -24 9 -44.5t25 -34.5t36.5 -22t44.5 -8h98v133h25v-133h97q24 0 44.5 8t36.5 22t25 34.5t9 44.5v90h26v-90q0 -25 -7 -45.5t-19 -37.5q-11 -12 -22.5 -23t-25.5 -19q35 -20 54.5 -52t19.5 -73v-90h-26v90q0 23 -8.5 42.5
t-23.5 34.5t-34.5 23.5t-42.5 8.5h-103v-199h-25v199h-104q-22 0 -42 -8.5t-35 -23.5t-23.5 -34.5t-8.5 -42.5v-90h-26v90q0 42 19.5 73.5t54.5 51.5q-14 8 -25.5 19t-22.5 23zM125 641q42 0 77 -23.5t48 -62.5q14 39 48.5 62.5t76.5 23.5v-32q-23 0 -43 -8.5t-34.5 -23.5
t-23 -34.5t-8.5 -42.5h-32q0 23 -8.5 42.5t-23 34.5t-34.5 23.5t-43 8.5v32z" />
    <glyph glyph-name="uni04C2" unicode="&#x4c2;" 
d="M25 366q-12 17 -19 37.5t-7 45.5v90h26v-90q0 -24 9 -44.5t25 -34.5t36.5 -22t44.5 -8h98v133h25v-133h97q24 0 44.5 8t36.5 22t25 34.5t9 44.5v90h26v-90q0 -25 -7 -45.5t-19 -37.5q-11 -12 -22.5 -23t-25.5 -19q35 -20 54.5 -52t19.5 -73v-90h-26v90q0 23 -8.5 42.5
t-23.5 34.5t-34.5 23.5t-42.5 8.5h-103v-199h-25v199h-104q-22 0 -42 -8.5t-35 -23.5t-23.5 -34.5t-8.5 -42.5v-90h-26v90q0 42 19.5 73.5t54.5 51.5q-14 8 -25.5 19t-22.5 23zM125 641q42 0 77 -23.5t48 -62.5q14 39 48.5 62.5t76.5 23.5v-32q-23 0 -43 -8.5t-34.5 -23.5
t-23 -34.5t-8.5 -42.5h-32q0 23 -8.5 42.5t-23 34.5t-34.5 23.5t-43 8.5v32z" />
    <glyph glyph-name="uni04C3" unicode="&#x4c3;" 
d="M141 641v-250h109q23 0 42.5 8.5t34.5 23.5t23.5 35t8.5 42v141h32v-141q0 -32 -11 -57t-30 -43q-7 -8 -15.5 -14t-17.5 -11q9 -5 17.5 -11t15.5 -14q19 -18 30 -43t11 -57q0 -30 -11 -55.5t-30 -44.5t-44.5 -30t-55.5 -11v32q23 0 42.5 8.5t34.5 23.5t23.5 35t8.5 42
q0 23 -8.5 42.5t-23.5 34.5t-34.5 23.5t-42.5 8.5h-109v-250h-32v532h32z" />
    <glyph glyph-name="uni04C4" unicode="&#x4c4;" 
d="M141 641v-250h109q23 0 42.5 8.5t34.5 23.5t23.5 35t8.5 42v141h32v-141q0 -32 -11 -57t-30 -43q-7 -8 -15.5 -14t-17.5 -11q9 -5 17.5 -11t15.5 -14q19 -18 30 -43t11 -57q0 -30 -11 -55.5t-30 -44.5t-44.5 -30t-55.5 -11v32q23 0 42.5 8.5t34.5 23.5t23.5 35t8.5 42
q0 23 -8.5 42.5t-23.5 34.5t-34.5 23.5t-42.5 8.5h-109v-250h-32v532h32z" />
    <glyph glyph-name="uni04C5" unicode="&#x4c5;" 
d="M0 109v32q23 0 42.5 8.5t34.5 23.5t23.5 35t8.5 42v391h282v-641h-32v609h-218v-359q0 -30 -11 -55.5t-30 -44.5t-44.5 -30t-55.5 -11z" />
    <glyph glyph-name="uni04C6" unicode="&#x4c6;" 
d="M0 109v32q23 0 42.5 8.5t34.5 23.5t23.5 35t8.5 42v391h282v-641h-32v609h-218v-359q0 -30 -11 -55.5t-30 -44.5t-44.5 -30t-55.5 -11z" />
    <glyph glyph-name="uni04C7" unicode="&#x4c7;" 
d="M141 109h-32v532h32v-250h218v250h32v-391q0 -30 -11 -55.5t-30 -44.5t-44.5 -30t-55.5 -11v32q23 0 42.5 8.5t34.5 23.5t23.5 35t8.5 42v109h-218v-250z" />
    <glyph glyph-name="uni04C8" unicode="&#x4c8;" 
d="M141 109h-32v532h32v-250h218v250h32v-391q0 -30 -11 -55.5t-30 -44.5t-44.5 -30t-55.5 -11v32q23 0 42.5 8.5t34.5 23.5t23.5 35t8.5 42v109h-218v-250z" />
    <glyph glyph-name="uni04C9" unicode="&#x4c9;" 
d="M141 641v-250h218v250h32v-641h-32v359h-218v-250h-32v532h32z" />
    <glyph glyph-name="uni04CA" unicode="&#x4ca;" 
d="M141 641v-250h218v250h32v-641h-32v359h-218v-250h-32v532h32z" />
    <glyph glyph-name="uni04CB" unicode="&#x4cb;" 
d="M141 641v-141q0 -22 8.5 -42t23.5 -35t35 -23.5t42 -8.5h109v250h32v-641h-32v359h-109q-30 0 -55.5 11t-44.5 30t-30 44.5t-11 55.5v141h32z" />
    <glyph glyph-name="uni04CC" unicode="&#x4cc;" 
d="M141 641v-141q0 -22 8.5 -42t23.5 -35t35 -23.5t42 -8.5h109v250h32v-641h-32v359h-109q-30 0 -55.5 11t-44.5 30t-30 44.5t-11 55.5v141h32z" />
    <glyph glyph-name="uni04CD" unicode="&#x4cd;" 
d="M50 508q0 28 6 52.5t18.5 42.5t32.5 28t48 10q42 0 64.5 -22.5t30.5 -59.5q8 38 30.5 60t64.5 22q28 0 48 -10t32.5 -28t18.5 -42.5t6 -52.5v-499h-29v491q0 23 -4 42.5t-13 34.5t-24.5 23.5t-38.5 8.5q-45 0 -62.5 -32t-17.5 -77v-391h-22v391q0 45 -17.5 77t-62.5 32
q-23 0 -38.5 -8.5t-24.5 -23.5t-13 -34.5t-4 -42.5v-391h-29v399z" />
    <glyph glyph-name="uni04CE" unicode="&#x4ce;" 
d="M50 508q0 28 6 52.5t18.5 42.5t32.5 28t48 10q42 0 64.5 -22.5t30.5 -59.5q8 38 30.5 60t64.5 22q28 0 48 -10t32.5 -28t18.5 -42.5t6 -52.5v-499h-29v491q0 23 -4 42.5t-13 34.5t-24.5 23.5t-38.5 8.5q-45 0 -62.5 -32t-17.5 -77v-391h-22v391q0 45 -17.5 77t-62.5 32
q-23 0 -38.5 -8.5t-24.5 -23.5t-13 -34.5t-4 -42.5v-391h-29v399z" />
    <glyph glyph-name="uni04CF" unicode="&#x4cf;" 
d="M118 109v32h116v468h-116v32h265v-32h-117v-468h117v-32h-265z" />
    <glyph glyph-name="uni04D0" unicode="&#x4d0;" 
d="M109 500q0 32 11 57t30 43q7 8 15.5 14t17.5 11q-9 5 -17.5 11t-15.5 14q-19 18 -30 43t-11 57h32q0 -22 8.5 -42t23.5 -35t35 -23.5t42 -8.5q23 0 42.5 8.5t34.5 23.5t23.5 35t8.5 42h32q0 -32 -11 -57t-30 -43q-7 -8 -15.5 -14t-17.5 -11q9 -5 17.5 -11t15.5 -14
q19 -18 30 -43t11 -57v-391h-32v250h-218v-250h-32v391zM359 391v109q0 23 -8.5 42.5t-23.5 34.5t-34.5 23.5t-42.5 8.5q-22 0 -42 -8.5t-35 -23.5t-23.5 -34.5t-8.5 -42.5v-109h218z" />
    </font>
</defs>
</svg>
