<?xml version="1.0" standalone="no"?>
<!DOCTYPE svg PUBLIC "-//W3C//DTD SVG 1.1//EN" "http://www.w3.org/Graphics/SVG/1.1/DTD/svg11.dtd" >
<svg xmlns="http://www.w3.org/2000/svg" xmlns:xlink="http://www.w3.org/1999/xlink" version="1.1">
<metadata>
Created by FontForge 20170731 at Fri Mar 20 20:29:11 2020
 By Aleksey,,,
Copyright 2020 Mans Greback AB
</metadata>
<defs>
<font id="SicretMonoPERSONALBlack" horiz-adv-x="500" >
  <font-face 
    font-family="Sicret Mono PERSONAL Black"
    font-weight="900"
    font-stretch="normal"
    units-per-em="1000"
    panose-1="0 0 0 0 0 0 0 0 0 0"
    ascent="800"
    descent="-200"
    x-height="720"
    cap-height="720"
    bbox="-95 -70 595 750"
    underline-thickness="190"
    underline-position="-185"
    unicode-range="U+0002-F8FF"
  />
<missing-glyph 
 />
    <glyph glyph-name=".notdef" 
 />
    <glyph glyph-name="uni0000" 
 />
    <glyph glyph-name="uni0000" 
 />
    <glyph glyph-name="uni000D" unicode="&#xd;" 
 />
    <glyph glyph-name="uni0002" 
d="M30 500q0 47 16.5 87.5t46 70t70 46t87.5 16.5t87.5 -16.5t70 -46t46 -70t16.5 -87.5v-250q0 -47 -16.5 -87.5t-46 -70t-70 -46t-87.5 -16.5t-87.5 16.5t-70 46t-46 70t-16.5 87.5v250zM220 250q0 -11 9.5 -20.5t20.5 -9.5t20.5 9.5t9.5 20.5v250q0 11 -9.5 20.5
t-20.5 9.5t-20.5 -9.5t-9.5 -20.5v-250z" />
    <glyph glyph-name="uni0009" unicode="&#x9;" 
 />
    <glyph glyph-name="uni000A" unicode="&#xa;" 
 />
    <glyph glyph-name="space" unicode=" " 
 />
    <glyph glyph-name="exclam" unicode="!" 
d="M155 720h190v-440h-190v440zM345 250v-220h-190v220h190z" />
    <glyph glyph-name="quotedbl" unicode="&#x22;" 
d="M280 720h190v-220h-190v220zM220 720v-220h-190v220h190z" />
    <glyph glyph-name="numbersign" unicode="#" 
d="M220 750v-30h60v30h190v-500h-190v30h-60v-30h-190v500h190zM220 470h60v60h-60v-60z" />
    <glyph glyph-name="dollar" unicode="$" 
d="M220 250q0 -11 9.5 -20.5t20.5 -9.5t20.5 9.5t9.5 20.5t-9.5 20.5t-20.5 9.5q-47 0 -87.5 16.5t-70 46t-46 70t-16.5 87.5t16.5 87.5t46 70t70 46t87.5 16.5q11 0 20.5 9.5t9.5 20.5h190q0 -72 -36 -125q36 -52 36 -125h-190q0 11 -9.5 20.5t-20.5 9.5t-20.5 -9.5
t-9.5 -20.5t9.5 -20.5t20.5 -9.5q47 0 87.5 -16.5t70 -46t46 -70t16.5 -87.5t-16.5 -87.5t-46 -70t-70 -46t-87.5 -16.5q-11 0 -20.5 -9.5t-9.5 -20.5h-190q0 73 36 125q-36 53 -36 125h190z" />
    <glyph glyph-name="percent" unicode="%" 
d="M30 250q0 48 16.5 88t46 69.5t70 46t87.5 16.5q11 0 20.5 9.5t9.5 20.5v220h190v-220q0 -48 -16.5 -88t-46 -69.5t-70 -46t-87.5 -16.5q-11 0 -20.5 -9.5t-9.5 -20.5v-220h-190v220zM280 30v220h190v-220h-190zM30 720h190v-220h-190v220z" />
    <glyph glyph-name="ampersand" unicode="&#x26;" 
d="M66 375q-36 53 -36 125q0 47 16.5 87.5t46 70t70 46t87.5 16.5t87.5 -16.5t70 -46t46 -70t16.5 -87.5h-190q0 11 -9.5 20.5t-20.5 9.5t-20.5 -9.5t-9.5 -20.5t9.5 -20.5t20.5 -9.5h250v-190h-30v-30q0 -47 -16.5 -87.5t-46 -70t-70 -46t-87.5 -16.5t-87.5 16.5t-70 46
t-46 70t-16.5 87.5q0 73 36 125zM220 250q0 -11 9.5 -20.5t20.5 -9.5t20.5 9.5t9.5 20.5v30h-30q-11 0 -20.5 -9.5t-9.5 -20.5z" />
    <glyph glyph-name="quotesingle" unicode="'" 
d="M155 500v220h190v-220h-190z" />
    <glyph glyph-name="parenleft" unicode="(" 
d="M155 500q0 47 16.5 87.5t46 70t70 46t87.5 16.5v-190q-11 0 -20.5 -9.5t-9.5 -20.5v-250q0 -11 9.5 -20.5t20.5 -9.5v-190q-47 0 -87.5 16.5t-70 46t-46 70t-16.5 87.5v250z" />
    <glyph glyph-name="parenright" unicode=")" 
d="M125 220q11 0 20.5 9.5t9.5 20.5v250q0 11 -9.5 20.5t-20.5 9.5v190q47 0 87.5 -16.5t70 -46t46 -70t16.5 -87.5v-250q0 -47 -16.5 -87.5t-46 -70t-70 -46t-87.5 -16.5v190z" />
    <glyph glyph-name="asterisk" unicode="*" 
d="M30 750h190q0 -11 9.5 -20.5t20.5 -9.5t20.5 9.5t9.5 20.5h190q0 -72 -36 -125q36 -52 36 -125h-190q0 11 -9.5 20.5t-20.5 9.5t-20.5 -9.5t-9.5 -20.5h-190q0 73 36 125q-36 53 -36 125z" />
    <glyph glyph-name="plus" unicode="+" 
d="M345 280v-100h-190v100h-100v190h100v100h190v-100h100v-190h-100z" />
    <glyph glyph-name="comma" unicode="," 
d="M345 330v-330h-190v330h190z" />
    <glyph glyph-name="hyphen" unicode="-" 
d="M125 470h250v-190h-250v190z" />
    <glyph glyph-name="period" unicode="." 
d="M355 240v-210h-210v210h210z" />
    <glyph glyph-name="slash" unicode="/" 
d="M30 250q0 47 16.5 87.5t46 70t70 46t87.5 16.5q11 0 20.5 9.5t9.5 20.5v220h190v-220q0 -47 -16.5 -87.5t-46 -70t-70 -46t-87.5 -16.5q-11 0 -20.5 -9.5t-9.5 -20.5v-220h-190v220z" />
    <glyph glyph-name="zero" unicode="0" 
d="M30 500q0 47 16.5 87.5t46 70t70 46t87.5 16.5t87.5 -16.5t70 -46t46 -70t16.5 -87.5v-250q0 -47 -16.5 -87.5t-46 -70t-70 -46t-87.5 -16.5t-87.5 16.5t-70 46t-46 70t-16.5 87.5v250zM220 250q0 -11 9.5 -20.5t20.5 -9.5t20.5 9.5t9.5 20.5v250q0 11 -9.5 20.5
t-20.5 9.5t-20.5 -9.5t-9.5 -20.5v-250z" />
    <glyph glyph-name="one" unicode="1" 
d="M55 220h100v310h-100v190h290v-500h100v-190h-390v190z" />
    <glyph glyph-name="two" unicode="2" 
d="M30 250q0 47 16.5 87.5t46 70t70 46t87.5 16.5q11 0 20.5 9.5t9.5 20.5t-9.5 20.5t-20.5 9.5t-20.5 -9.5t-9.5 -20.5h-190q0 47 16.5 87.5t46 70t70 46t87.5 16.5t87.5 -16.5t70 -46t46 -70t16.5 -87.5t-16.5 -87.5t-46 -70t-70 -46t-87.5 -16.5q-11 0 -20.5 -9.5
t-9.5 -20.5v-30h250v-190h-440v220z" />
    <glyph glyph-name="three" unicode="3" 
d="M220 500h-190q0 47 16.5 87.5t46 70t70 46t87.5 16.5t87.5 -16.5t70 -46t46 -70t16.5 -87.5q0 -72 -36 -125q36 -52 36 -125q0 -47 -16.5 -87.5t-46 -70t-70 -46t-87.5 -16.5t-87.5 16.5t-70 46t-46 70t-16.5 87.5h190q0 -11 9.5 -20.5t20.5 -9.5t20.5 9.5t9.5 20.5
t-9.5 20.5t-20.5 9.5v190q11 0 20.5 9.5t9.5 20.5t-9.5 20.5t-20.5 9.5t-20.5 -9.5t-9.5 -20.5z" />
    <glyph glyph-name="four" unicode="4" 
d="M30 280v440h190v-250h60v250h190v-690h-190v250h-250z" />
    <glyph glyph-name="five" unicode="5" 
d="M220 250q0 -11 9.5 -20.5t20.5 -9.5t20.5 9.5t9.5 20.5t-9.5 20.5t-20.5 9.5h-220v440h440v-190h-250v-60h30q47 0 87.5 -16.5t70 -46t46 -70t16.5 -87.5t-16.5 -87.5t-46 -70t-70 -46t-87.5 -16.5t-87.5 16.5t-70 46t-46 70t-16.5 87.5h190z" />
    <glyph glyph-name="six" unicode="6" 
d="M30 500q0 47 16.5 87.5t46 70t70 46t87.5 16.5t87.5 -16.5t70 -46t46 -70t16.5 -87.5h-190q0 11 -9.5 20.5t-20.5 9.5t-20.5 -9.5t-9.5 -20.5v-30h30q47 0 87.5 -16.5t70 -46t46 -70t16.5 -87.5t-16.5 -87.5t-46 -70t-70 -46t-87.5 -16.5t-87.5 16.5t-70 46t-46 70
t-16.5 87.5v250zM220 280v-30q0 -11 9.5 -20.5t20.5 -9.5t20.5 9.5t9.5 20.5t-9.5 20.5t-20.5 9.5h-30z" />
    <glyph glyph-name="seven" unicode="7" 
d="M30 530v190h440v-690h-190v500h-250z" />
    <glyph glyph-name="eight" unicode="8" 
d="M30 250q0 73 36 125q-36 53 -36 125q0 47 16.5 87.5t46 70t70 46t87.5 16.5t87.5 -16.5t70 -46t46 -70t16.5 -87.5q0 -72 -36 -125q36 -52 36 -125q0 -47 -16.5 -87.5t-46 -70t-70 -46t-87.5 -16.5t-87.5 16.5t-70 46t-46 70t-16.5 87.5zM220 500q0 -11 9.5 -20.5
t20.5 -9.5t20.5 9.5t9.5 20.5t-9.5 20.5t-20.5 9.5t-20.5 -9.5t-9.5 -20.5zM220 250q0 -11 9.5 -20.5t20.5 -9.5t20.5 9.5t9.5 20.5t-9.5 20.5t-20.5 9.5t-20.5 -9.5t-9.5 -20.5z" />
    <glyph glyph-name="nine" unicode="9" 
d="M220 250q0 -11 9.5 -20.5t20.5 -9.5t20.5 9.5t9.5 20.5v30h-30q-47 0 -87.5 16.5t-70 46t-46 70t-16.5 87.5t16.5 87.5t46 70t70 46t87.5 16.5t87.5 -16.5t70 -46t46 -70t16.5 -87.5v-250q0 -47 -16.5 -87.5t-46 -70t-70 -46t-87.5 -16.5t-87.5 16.5t-70 46t-46 70
t-16.5 87.5h190zM220 500q0 -11 9.5 -20.5t20.5 -9.5h30v30q0 11 -9.5 20.5t-20.5 9.5t-20.5 -9.5t-9.5 -20.5z" />
    <glyph glyph-name="colon" unicode=":" 
d="M155 500h190v-220h-190v220zM155 250h190v-220h-190v220z" />
    <glyph glyph-name="semicolon" unicode=";" 
d="M155 250h190v-250h-190v250zM155 500h190v-220h-190v220z" />
    <glyph glyph-name="less" unicode="&#x3c;" 
d="M125 470q11 0 20.5 9.5t9.5 20.5h190q0 -72 -36 -125q36 -52 36 -125h-190q0 11 -9.5 20.5t-20.5 9.5v190z" />
    <glyph glyph-name="equal" unicode="=" 
d="M75 590h350v-190h-350v190zM425 340v-190h-350v190h350z" />
    <glyph glyph-name="greater" unicode="&#x3e;" 
d="M345 500q0 -11 9.5 -20.5t20.5 -9.5v-190q-11 0 -20.5 -9.5t-9.5 -20.5h-190q0 73 36 125q-36 53 -36 125h190z" />
    <glyph glyph-name="question" unicode="?" 
d="M30 250q0 47 16.5 87.5t46 70t70 46t87.5 16.5q11 0 20.5 9.5t9.5 20.5t-9.5 20.5t-20.5 9.5t-20.5 -9.5t-9.5 -20.5h-190q0 47 16.5 87.5t46 70t70 46t87.5 16.5t87.5 -16.5t70 -46t46 -70t16.5 -87.5t-16.5 -87.5t-46 -70t-70 -46t-87.5 -16.5q-11 0 -20.5 -9.5
t-9.5 -20.5h-190zM30 0v220h190v-220h-190z" />
    <glyph glyph-name="at" unicode="@" 
d="M30 500q0 47 16.5 87.5t46 70t70 46t87.5 16.5t87.5 -16.5t70 -46t46 -70t16.5 -87.5v-250q0 -47 -16.5 -87.5t-46 -70t-70 -46t-87.5 -16.5t-87.5 16.5t-70 46t-46 70t-16.5 87.5t16.5 87.5t46 70t70 46t87.5 16.5h30v30q0 11 -9.5 20.5t-20.5 9.5t-20.5 -9.5
t-9.5 -20.5h-190zM220 250q0 -11 9.5 -20.5t20.5 -9.5t20.5 9.5t9.5 20.5v30h-30q-11 0 -20.5 -9.5t-9.5 -20.5z" />
    <glyph glyph-name="A" unicode="A" 
d="M30 500q0 47 16.5 87.5t46 70t70 46t87.5 16.5t87.5 -16.5t70 -46t46 -70t16.5 -87.5v-470h-190v250h-60v-250h-190v470zM280 470v30q0 11 -9.5 20.5t-20.5 9.5t-20.5 -9.5t-9.5 -20.5v-30h60z" />
    <glyph glyph-name="B" unicode="B" 
d="M30 30v690h220q47 0 87.5 -16.5t70 -46t46 -70t16.5 -87.5q0 -72 -36 -125q36 -52 36 -125q0 -47 -16.5 -87.5t-46 -70t-70 -46t-87.5 -16.5h-220zM250 470q11 0 20.5 9.5t9.5 20.5t-9.5 20.5t-20.5 9.5h-30v-60h30zM220 280v-60h30q11 0 20.5 9.5t9.5 20.5t-9.5 20.5
t-20.5 9.5h-30z" />
    <glyph glyph-name="C" unicode="C" 
d="M30 500q0 47 16.5 87.5t46 70t70 46t87.5 16.5t87.5 -16.5t70 -46t46 -70t16.5 -87.5h-190q0 11 -9.5 20.5t-20.5 9.5t-20.5 -9.5t-9.5 -20.5v-250q0 -11 9.5 -20.5t20.5 -9.5t20.5 9.5t9.5 20.5h190q0 -47 -16.5 -87.5t-46 -70t-70 -46t-87.5 -16.5t-87.5 16.5t-70 46
t-46 70t-16.5 87.5v250z" />
    <glyph glyph-name="D" unicode="D" 
d="M250 720q47 0 87.5 -16.5t70 -46t46 -70t16.5 -87.5v-250q0 -47 -16.5 -87.5t-46 -70t-70 -46t-87.5 -16.5h-220v690h220zM220 530v-310h30q11 0 20.5 9.5t9.5 20.5v250q0 11 -9.5 20.5t-20.5 9.5h-30z" />
    <glyph glyph-name="E" unicode="E" 
d="M30 720h440v-190h-250v-60h250v-190h-250v-60h250v-190h-440v690z" />
    <glyph glyph-name="F" unicode="F" 
d="M30 30v690h440v-190h-250v-60h250v-190h-250v-250h-190z" />
    <glyph glyph-name="G" unicode="G" 
d="M30 500q0 47 16.5 87.5t46 70t70 46t87.5 16.5t87.5 -16.5t70 -46t46 -70t16.5 -87.5h-190q0 11 -9.5 20.5t-20.5 9.5t-20.5 -9.5t-9.5 -20.5v-250q0 -11 9.5 -20.5t20.5 -9.5t20.5 9.5t9.5 20.5v30h-30v190h220v-220q0 -47 -16.5 -87.5t-46 -70t-70 -46t-87.5 -16.5
t-87.5 16.5t-70 46t-46 70t-16.5 87.5v250z" />
    <glyph glyph-name="H" unicode="H" 
d="M220 720v-250h60v250h190v-690h-190v250h-60v-250h-190v690h190z" />
    <glyph glyph-name="I" unicode="I" 
d="M65 30v190h90v310h-90v190h370v-190h-90v-310h90v-190h-370z" />
    <glyph glyph-name="J" unicode="J" 
d="M30 250h190q0 -11 9.5 -20.5t20.5 -9.5t20.5 9.5t9.5 20.5v280h-100v190h290v-470q0 -47 -16.5 -87.5t-46 -70t-70 -46t-87.5 -16.5t-87.5 16.5t-70 46t-46 70t-16.5 87.5z" />
    <glyph glyph-name="K" unicode="K" 
d="M220 720v-250h30q11 0 20.5 9.5t9.5 20.5v220h190v-220q0 -72 -36 -125q36 -52 36 -125v-220h-190v220q0 11 -9.5 20.5t-20.5 9.5h-30v-250h-190v690h190z" />
    <glyph glyph-name="L" unicode="L" 
d="M30 720h190v-500h250v-190h-440v690z" />
    <glyph glyph-name="M" unicode="M" 
d="M15 30v530q0 72 34 116t106 44q29 0 49 -9t46 -27q26 18 46 27t49 9q72 0 106 -44t34 -116v-530h-160v470q0 11 0.5 20.5t-10.5 9.5t-10.5 -9.5t0.5 -20.5v-470h-110v470q0 11 0.5 20.5t-10.5 9.5t-10.5 -9.5t0.5 -20.5v-470h-160z" />
    <glyph glyph-name="N" unicode="N" 
d="M30 30v690h220q47 0 87.5 -16.5t70 -46t46 -70t16.5 -87.5v-470h-190v470q0 11 -9.5 20.5t-20.5 9.5h-30v-500h-190z" />
    <glyph glyph-name="O" unicode="O" 
d="M30 500q0 47 16.5 87.5t46 70t70 46t87.5 16.5t87.5 -16.5t70 -46t46 -70t16.5 -87.5v-250q0 -47 -16.5 -87.5t-46 -70t-70 -46t-87.5 -16.5t-87.5 16.5t-70 46t-46 70t-16.5 87.5v250zM220 250q0 -11 9.5 -20.5t20.5 -9.5t20.5 9.5t9.5 20.5v250q0 11 -9.5 20.5
t-20.5 9.5t-20.5 -9.5t-9.5 -20.5v-250z" />
    <glyph glyph-name="P" unicode="P" 
d="M30 30v690h220q47 0 87.5 -16.5t70 -46t46 -70t16.5 -87.5t-16.5 -87.5t-46 -70t-70 -46t-87.5 -16.5h-30v-250h-190zM250 470q11 0 20.5 9.5t9.5 20.5t-9.5 20.5t-20.5 9.5h-30v-60h30z" />
    <glyph glyph-name="Q" unicode="Q" 
d="M250 220q11 0 20.5 9.5t9.5 20.5v250q0 11 -9.5 20.5t-20.5 9.5t-20.5 -9.5t-9.5 -20.5v-250q0 -11 9.5 -20.5t20.5 -9.5zM280 0q0 11 -9.5 20.5t-20.5 9.5q-47 0 -87.5 16.5t-70 46t-46 70t-16.5 87.5v250q0 47 16.5 87.5t46 70t70 46t87.5 16.5t87.5 -16.5t70 -46
t46 -70t16.5 -87.5v-250q0 -72 -36 -125q36 -52 36 -125h-190z" />
    <glyph glyph-name="R" unicode="R" 
d="M30 30v690h220q47 0 87.5 -16.5t70 -46t46 -70t16.5 -87.5q0 -72 -36 -125q36 -52 36 -125v-220h-190v220q0 11 -9.5 20.5t-20.5 9.5h-30v-250h-190zM250 470q11 0 20.5 9.5t9.5 20.5t-9.5 20.5t-20.5 9.5h-30v-60h30z" />
    <glyph glyph-name="S" unicode="S" 
d="M220 250q0 -11 9.5 -20.5t20.5 -9.5t20.5 9.5t9.5 20.5t-9.5 20.5t-20.5 9.5q-47 0 -87.5 16.5t-70 46t-46 70t-16.5 87.5t16.5 87.5t46 70t70 46t87.5 16.5t87.5 -16.5t70 -46t46 -70t16.5 -87.5h-190q0 11 -9.5 20.5t-20.5 9.5t-20.5 -9.5t-9.5 -20.5t9.5 -20.5
t20.5 -9.5q47 0 87.5 -16.5t70 -46t46 -70t16.5 -87.5t-16.5 -87.5t-46 -70t-70 -46t-87.5 -16.5t-87.5 16.5t-70 46t-46 70t-16.5 87.5h190z" />
    <glyph glyph-name="T" unicode="T" 
d="M25 720h450v-190h-130v-500h-190v500h-130v190z" />
    <glyph glyph-name="U" unicode="U" 
d="M220 720v-470q0 -11 9.5 -20.5t20.5 -9.5t20.5 9.5t9.5 20.5v470h190v-470q0 -47 -16.5 -87.5t-46 -70t-70 -46t-87.5 -16.5t-87.5 16.5t-70 46t-46 70t-16.5 87.5v470h190z" />
    <glyph glyph-name="V" unicode="V" 
d="M220 720v-500h30q11 0 20.5 9.5t9.5 20.5v470h190v-470q0 -47 -16.5 -87.5t-46 -70t-70 -46t-87.5 -16.5h-220v690h190z" />
    <glyph glyph-name="W" unicode="W" 
d="M15 720h160v-470q0 -11 -0.5 -20.5t10.5 -9.5t10.5 9.5t-0.5 20.5v470h110v-470q0 -11 -0.5 -20.5t10.5 -9.5t10.5 9.5t-0.5 20.5v470h160v-530q0 -72 -34 -116t-106 -44q-29 0 -49 9t-46 27q-26 -18 -46 -27t-49 -9q-72 0 -106 44t-34 116v530z" />
    <glyph glyph-name="X" unicode="X" 
d="M30 720h190v-220q0 -11 9.5 -20.5t20.5 -9.5t20.5 9.5t9.5 20.5v220h190v-220q0 -72 -36 -125q36 -52 36 -125v-220h-190v220q0 11 -9.5 20.5t-20.5 9.5t-20.5 -9.5t-9.5 -20.5v-220h-190v220q0 73 36 125q-36 53 -36 125v220z" />
    <glyph glyph-name="Y" unicode="Y" 
d="M30 500v220h190v-220q0 -11 9.5 -20.5t20.5 -9.5h30v250h190v-690h-190v250h-30q-47 0 -87.5 16.5t-70 46t-46 70t-16.5 87.5z" />
    <glyph glyph-name="Z" unicode="Z" 
d="M30 720h440v-220q0 -47 -16.5 -87.5t-46 -70t-70 -46t-87.5 -16.5q-11 0 -20.5 -9.5t-9.5 -20.5v-30h250v-190h-440v220q0 47 16.5 87.5t46 70t70 46t87.5 16.5q11 0 20.5 9.5t9.5 20.5v30h-250v190z" />
    <glyph glyph-name="bracketleft" unicode="[" 
d="M155 720h220v-190h-30v-310h30v-190h-220v690z" />
    <glyph glyph-name="backslash" unicode="\" 
d="M30 720h190v-220q0 -11 9.5 -20.5t20.5 -9.5q47 0 87.5 -16.5t70 -46t46 -70t16.5 -87.5v-220h-190v220q0 11 -9.5 20.5t-20.5 9.5q-47 0 -87.5 16.5t-70 46t-46 70t-16.5 87.5v220z" />
    <glyph glyph-name="bracketright" unicode="]" 
d="M125 220h30v310h-30v190h220v-690h-220v190z" />
    <glyph glyph-name="asciicircum" unicode="^" 
d="M125 720q11 0 20.5 9.5t9.5 20.5h190q0 -11 9.5 -20.5t20.5 -9.5v-190q-72 0 -125 36q-52 -36 -125 -36v190z" />
    <glyph glyph-name="underscore" unicode="_" 
d="M125 220h250v-190h-250v190z" />
    <glyph glyph-name="grave" unicode="`" 
d="M30 750h190q0 -11 9.5 -20.5t20.5 -9.5v-190q-47 0 -87.5 16.5t-70 46t-46 70t-16.5 87.5z" />
    <glyph glyph-name="a" unicode="a" 
d="M30 500q0 47 16.5 87.5t46 70t70 46t87.5 16.5t87.5 -16.5t70 -46t46 -70t16.5 -87.5v-470h-190v250h-60v-250h-190v470zM280 470v30q0 11 -9.5 20.5t-20.5 9.5t-20.5 -9.5t-9.5 -20.5v-30h60z" />
    <glyph glyph-name="b" unicode="b" 
d="M30 30v690h220q47 0 87.5 -16.5t70 -46t46 -70t16.5 -87.5q0 -72 -36 -125q36 -52 36 -125q0 -47 -16.5 -87.5t-46 -70t-70 -46t-87.5 -16.5h-220zM250 470q11 0 20.5 9.5t9.5 20.5t-9.5 20.5t-20.5 9.5h-30v-60h30zM220 280v-60h30q11 0 20.5 9.5t9.5 20.5t-9.5 20.5
t-20.5 9.5h-30z" />
    <glyph glyph-name="c" unicode="c" 
d="M30 500q0 47 16.5 87.5t46 70t70 46t87.5 16.5t87.5 -16.5t70 -46t46 -70t16.5 -87.5h-190q0 11 -9.5 20.5t-20.5 9.5t-20.5 -9.5t-9.5 -20.5v-250q0 -11 9.5 -20.5t20.5 -9.5t20.5 9.5t9.5 20.5h190q0 -47 -16.5 -87.5t-46 -70t-70 -46t-87.5 -16.5t-87.5 16.5t-70 46
t-46 70t-16.5 87.5v250z" />
    <glyph glyph-name="d" unicode="d" 
d="M250 720q47 0 87.5 -16.5t70 -46t46 -70t16.5 -87.5v-250q0 -47 -16.5 -87.5t-46 -70t-70 -46t-87.5 -16.5h-220v690h220zM220 530v-310h30q11 0 20.5 9.5t9.5 20.5v250q0 11 -9.5 20.5t-20.5 9.5h-30z" />
    <glyph glyph-name="e" unicode="e" 
d="M30 720h440v-190h-250v-60h250v-190h-250v-60h250v-190h-440v690z" />
    <glyph glyph-name="f" unicode="f" 
d="M30 30v690h440v-190h-250v-60h250v-190h-250v-250h-190z" />
    <glyph glyph-name="g" unicode="g" 
d="M30 500q0 47 16.5 87.5t46 70t70 46t87.5 16.5t87.5 -16.5t70 -46t46 -70t16.5 -87.5h-190q0 11 -9.5 20.5t-20.5 9.5t-20.5 -9.5t-9.5 -20.5v-250q0 -11 9.5 -20.5t20.5 -9.5t20.5 9.5t9.5 20.5v30h-30v190h220v-220q0 -47 -16.5 -87.5t-46 -70t-70 -46t-87.5 -16.5
t-87.5 16.5t-70 46t-46 70t-16.5 87.5v250z" />
    <glyph glyph-name="h" unicode="h" 
d="M220 720v-250h60v250h190v-690h-190v250h-60v-250h-190v690h190z" />
    <glyph glyph-name="i" unicode="i" 
d="M65 30v190h90v310h-90v190h370v-190h-90v-310h90v-190h-370z" />
    <glyph glyph-name="j" unicode="j" 
d="M30 250h190q0 -11 9.5 -20.5t20.5 -9.5t20.5 9.5t9.5 20.5v280h-100v190h290v-470q0 -47 -16.5 -87.5t-46 -70t-70 -46t-87.5 -16.5t-87.5 16.5t-70 46t-46 70t-16.5 87.5z" />
    <glyph glyph-name="k" unicode="k" 
d="M220 720v-250h30q11 0 20.5 9.5t9.5 20.5v220h190v-220q0 -72 -36 -125q36 -52 36 -125v-220h-190v220q0 11 -9.5 20.5t-20.5 9.5h-30v-250h-190v690h190z" />
    <glyph glyph-name="l" unicode="l" 
d="M30 720h190v-500h250v-190h-440v690z" />
    <glyph glyph-name="m" unicode="m" 
d="M15 30v530q0 72 34 116t106 44q29 0 49 -9t46 -27q26 18 46 27t49 9q72 0 106 -44t34 -116v-530h-160v470q0 11 0.5 20.5t-10.5 9.5t-10.5 -9.5t0.5 -20.5v-470h-110v470q0 11 0.5 20.5t-10.5 9.5t-10.5 -9.5t0.5 -20.5v-470h-160z" />
    <glyph glyph-name="n" unicode="n" 
d="M30 30v690h220q47 0 87.5 -16.5t70 -46t46 -70t16.5 -87.5v-470h-190v470q0 11 -9.5 20.5t-20.5 9.5h-30v-500h-190z" />
    <glyph glyph-name="o" unicode="o" 
d="M30 500q0 47 16.5 87.5t46 70t70 46t87.5 16.5t87.5 -16.5t70 -46t46 -70t16.5 -87.5v-250q0 -47 -16.5 -87.5t-46 -70t-70 -46t-87.5 -16.5t-87.5 16.5t-70 46t-46 70t-16.5 87.5v250zM220 250q0 -11 9.5 -20.5t20.5 -9.5t20.5 9.5t9.5 20.5v250q0 11 -9.5 20.5
t-20.5 9.5t-20.5 -9.5t-9.5 -20.5v-250z" />
    <glyph glyph-name="p" unicode="p" 
d="M30 30v690h220q47 0 87.5 -16.5t70 -46t46 -70t16.5 -87.5t-16.5 -87.5t-46 -70t-70 -46t-87.5 -16.5h-30v-250h-190zM250 470q11 0 20.5 9.5t9.5 20.5t-9.5 20.5t-20.5 9.5h-30v-60h30z" />
    <glyph glyph-name="q" unicode="q" 
d="M250 220q11 0 20.5 9.5t9.5 20.5v250q0 11 -9.5 20.5t-20.5 9.5t-20.5 -9.5t-9.5 -20.5v-250q0 -11 9.5 -20.5t20.5 -9.5zM280 0q0 11 -9.5 20.5t-20.5 9.5q-47 0 -87.5 16.5t-70 46t-46 70t-16.5 87.5v250q0 47 16.5 87.5t46 70t70 46t87.5 16.5t87.5 -16.5t70 -46
t46 -70t16.5 -87.5v-250q0 -72 -36 -125q36 -52 36 -125h-190z" />
    <glyph glyph-name="r" unicode="r" 
d="M30 30v690h220q47 0 87.5 -16.5t70 -46t46 -70t16.5 -87.5q0 -72 -36 -125q36 -52 36 -125v-220h-190v220q0 11 -9.5 20.5t-20.5 9.5h-30v-250h-190zM250 470q11 0 20.5 9.5t9.5 20.5t-9.5 20.5t-20.5 9.5h-30v-60h30z" />
    <glyph glyph-name="s" unicode="s" 
d="M220 250q0 -11 9.5 -20.5t20.5 -9.5t20.5 9.5t9.5 20.5t-9.5 20.5t-20.5 9.5q-47 0 -87.5 16.5t-70 46t-46 70t-16.5 87.5t16.5 87.5t46 70t70 46t87.5 16.5t87.5 -16.5t70 -46t46 -70t16.5 -87.5h-190q0 11 -9.5 20.5t-20.5 9.5t-20.5 -9.5t-9.5 -20.5t9.5 -20.5
t20.5 -9.5q47 0 87.5 -16.5t70 -46t46 -70t16.5 -87.5t-16.5 -87.5t-46 -70t-70 -46t-87.5 -16.5t-87.5 16.5t-70 46t-46 70t-16.5 87.5h190z" />
    <glyph glyph-name="t" unicode="t" 
d="M25 720h450v-190h-130v-500h-190v500h-130v190z" />
    <glyph glyph-name="u" unicode="u" 
d="M220 720v-470q0 -11 9.5 -20.5t20.5 -9.5t20.5 9.5t9.5 20.5v470h190v-470q0 -47 -16.5 -87.5t-46 -70t-70 -46t-87.5 -16.5t-87.5 16.5t-70 46t-46 70t-16.5 87.5v470h190z" />
    <glyph glyph-name="v" unicode="v" 
d="M220 720v-500h30q11 0 20.5 9.5t9.5 20.5v470h190v-470q0 -47 -16.5 -87.5t-46 -70t-70 -46t-87.5 -16.5h-220v690h190z" />
    <glyph glyph-name="w" unicode="w" 
d="M15 720h160v-470q0 -11 -0.5 -20.5t10.5 -9.5t10.5 9.5t-0.5 20.5v470h110v-470q0 -11 -0.5 -20.5t10.5 -9.5t10.5 9.5t-0.5 20.5v470h160v-530q0 -72 -34 -116t-106 -44q-29 0 -49 9t-46 27q-26 -18 -46 -27t-49 -9q-72 0 -106 44t-34 116v530z" />
    <glyph glyph-name="x" unicode="x" 
d="M30 720h190v-220q0 -11 9.5 -20.5t20.5 -9.5t20.5 9.5t9.5 20.5v220h190v-220q0 -72 -36 -125q36 -52 36 -125v-220h-190v220q0 11 -9.5 20.5t-20.5 9.5t-20.5 -9.5t-9.5 -20.5v-220h-190v220q0 73 36 125q-36 53 -36 125v220z" />
    <glyph glyph-name="y" unicode="y" 
d="M30 500v220h190v-220q0 -11 9.5 -20.5t20.5 -9.5h30v250h190v-690h-190v250h-30q-47 0 -87.5 16.5t-70 46t-46 70t-16.5 87.5z" />
    <glyph glyph-name="z" unicode="z" 
d="M30 720h440v-220q0 -47 -16.5 -87.5t-46 -70t-70 -46t-87.5 -16.5q-11 0 -20.5 -9.5t-9.5 -20.5v-30h250v-190h-440v220q0 47 16.5 87.5t46 70t70 46t87.5 16.5q11 0 20.5 9.5t9.5 20.5v30h-250v190z" />
    <glyph glyph-name="braceleft" unicode="{" 
d="M125 470q11 0 20.5 9.5t9.5 20.5q0 47 16.5 87.5t46 70t70 46t87.5 16.5v-190q-11 0 -20.5 -9.5t-9.5 -20.5q0 -72 -36 -125q36 -52 36 -125q0 -11 9.5 -20.5t20.5 -9.5v-190q-47 0 -87.5 16.5t-70 46t-46 70t-16.5 87.5q0 11 -9.5 20.5t-20.5 9.5v190z" />
    <glyph glyph-name="bar" unicode="|" 
d="M155 0v750h190v-750h-190z" />
    <glyph glyph-name="braceright" unicode="}" 
d="M125 220q11 0 20.5 9.5t9.5 20.5q0 73 36 125q-36 53 -36 125q0 11 -9.5 20.5t-20.5 9.5v190q47 0 87.5 -16.5t70 -46t46 -70t16.5 -87.5q0 -11 9.5 -20.5t20.5 -9.5v-190q-11 0 -20.5 -9.5t-9.5 -20.5q0 -47 -16.5 -87.5t-46 -70t-70 -46t-87.5 -16.5v190z" />
    <glyph glyph-name="asciitilde" unicode="~" 
d="M30 250q0 47 16.5 87.5t46 70t70 46t87.5 16.5q11 0 20.5 9.5t9.5 20.5h190q0 -47 -16.5 -87.5t-46 -70t-70 -46t-87.5 -16.5q-11 0 -20.5 -9.5t-9.5 -20.5h-190z" />
    <glyph glyph-name="uni00A0" unicode="&#xa0;" 
 />
    <glyph glyph-name="exclamdown" unicode="&#xa1;" 
d="M155 470h190v-440h-190v440zM155 500v220h190v-220h-190z" />
    <glyph glyph-name="cent" unicode="&#xa2;" 
d="M30 500q0 47 16.5 87.5t46 70t70 46t87.5 16.5q11 0 20.5 9.5t9.5 20.5h190q0 -72 -36 -125q36 -52 36 -125h-190q0 11 -9.5 20.5t-20.5 9.5t-20.5 -9.5t-9.5 -20.5v-250q0 -11 9.5 -20.5t20.5 -9.5t20.5 9.5t9.5 20.5h190q0 -47 -16.5 -87.5t-46 -70t-70 -46
t-87.5 -16.5q-11 0 -20.5 -9.5t-9.5 -20.5h-190q0 73 36 125q-36 53 -36 125v250z" />
    <glyph glyph-name="sterling" unicode="&#xa3;" 
d="M30 500q0 47 16.5 87.5t46 70t70 46t87.5 16.5t87.5 -16.5t70 -46t46 -70t16.5 -87.5h-190q0 11 -9.5 20.5t-20.5 9.5t-20.5 -9.5t-9.5 -20.5v-30h250v-190h-250v-60h250v-190h-440v470z" />
    <glyph glyph-name="currency" unicode="&#xa4;" 
d="M220 250q0 -11 9.5 -20.5t20.5 -9.5t20.5 9.5t9.5 20.5t-9.5 20.5t-20.5 9.5t-20.5 -9.5t-9.5 -20.5zM250 30q-11 0 -20.5 -9.5t-9.5 -20.5h-190q0 73 36 125q-36 53 -36 125q0 73 36 125q-36 53 -36 125h190q0 -11 9.5 -20.5t20.5 -9.5t20.5 9.5t9.5 20.5h190
q0 -72 -36 -125q36 -52 36 -125q0 -72 -36 -125q36 -52 36 -125h-190q0 11 -9.5 20.5t-20.5 9.5z" />
    <glyph glyph-name="yen" unicode="&#xa5;" 
d="M220 720v-220q0 -11 9.5 -20.5t20.5 -9.5h30v250h190v-720h-190v30h-130v190h130v60h-30q-47 0 -87.5 16.5t-70 46t-46 70t-16.5 87.5v220h190z" />
    <glyph glyph-name="brokenbar" unicode="&#xa6;" 
d="M345 250v-250h-190v250h190zM155 500v250h190v-250h-190z" />
    <glyph glyph-name="section" unicode="&#xa7;" 
d="M280 250q0 11 -9.5 20.5t-20.5 9.5t-20.5 -9.5t-9.5 -20.5t9.5 -20.5t20.5 -9.5t20.5 9.5t9.5 20.5zM250 30q-47 0 -87.5 16.5t-70 46t-46 70t-16.5 87.5q0 73 36 125q-36 53 -36 125q0 47 16.5 87.5t46 70t70 46t87.5 16.5t87.5 -16.5t70 -46t46 -70t16.5 -87.5h-190
q0 11 -9.5 20.5t-20.5 9.5t-20.5 -9.5t-9.5 -20.5t9.5 -20.5t20.5 -9.5q47 0 87.5 -16.5t70 -46t46 -70t16.5 -87.5q0 -72 -36 -125q36 -52 36 -125h-190q0 11 -9.5 20.5t-20.5 9.5z" />
    <glyph glyph-name="dieresis" unicode="&#xa8;" 
d="M280 750h190v-220h-190v220zM30 530v220h190v-220h-190z" />
    <glyph glyph-name="copyright" unicode="&#xa9;" 
d="M30 500q0 47 16.5 87.5t46 70t70 46t87.5 16.5t87.5 -16.5t70 -46t46 -70t16.5 -87.5h-190q0 11 -9.5 20.5t-20.5 9.5t-20.5 -9.5t-9.5 -20.5v-250q0 -11 9.5 -20.5t20.5 -9.5t20.5 9.5t9.5 20.5h190q0 -47 -16.5 -87.5t-46 -70t-70 -46t-87.5 -16.5t-87.5 16.5t-70 46
t-46 70t-16.5 87.5v250z" />
    <glyph glyph-name="ordfeminine" unicode="&#xaa;" 
d="M30 500q0 47 16.5 87.5t46 70t70 46t87.5 16.5h220v-440h-220q-47 0 -87.5 16.5t-70 46t-46 70t-16.5 87.5zM220 500q0 -11 9.5 -20.5t20.5 -9.5h30v60h-30q-11 0 -20.5 -9.5t-9.5 -20.5z" />
    <glyph glyph-name="guillemotleft" unicode="&#xab;" 
d="M0 470q11 0 20.5 9.5t9.5 20.5h190q0 -72 -36 -125q36 -52 36 -125h-190q0 11 -9.5 20.5t-20.5 9.5v190zM250 470q11 0 20.5 9.5t9.5 20.5h190q0 -72 -36 -125q36 -52 36 -125h-190q0 11 -9.5 20.5t-20.5 9.5v190z" />
    <glyph glyph-name="logicalnot" unicode="&#xac;" 
d="M470 470v-220h-190v30h-250v190h440z" />
    <glyph glyph-name="uni00AD" unicode="&#xad;" 
 />
    <glyph glyph-name="registered" unicode="&#xae;" 
d="M30 30v690h220q47 0 87.5 -16.5t70 -46t46 -70t16.5 -87.5q0 -72 -36 -125q36 -52 36 -125v-220h-190v220q0 11 -9.5 20.5t-20.5 9.5h-30v-250h-190zM250 470q11 0 20.5 9.5t9.5 20.5t-9.5 20.5t-20.5 9.5h-30v-60h30z" />
    <glyph glyph-name="macron" unicode="&#xaf;" 
d="M125 720h250v-190h-250v190z" />
    <glyph glyph-name="degree" unicode="&#xb0;" 
d="M30 500q0 47 16.5 87.5t46 70t70 46t87.5 16.5t87.5 -16.5t70 -46t46 -70t16.5 -87.5t-16.5 -87.5t-46 -70t-70 -46t-87.5 -16.5t-87.5 16.5t-70 46t-46 70t-16.5 87.5zM220 500q0 -11 9.5 -20.5t20.5 -9.5t20.5 9.5t9.5 20.5t-9.5 20.5t-20.5 9.5t-20.5 -9.5t-9.5 -20.5
z" />
    <glyph glyph-name="plusminus" unicode="&#xb1;" 
d="M55 570h100v100h190v-100h100v-190h-100v-100h-190v100h-100v190zM55 220h390v-190h-390v190z" />
    <glyph glyph-name="twosuperior" unicode="&#xb2;" 
d="M30 250q0 47 16.5 87.5t46 70t70 46t87.5 16.5q11 0 20.5 9.5t9.5 20.5t-9.5 20.5t-20.5 9.5t-20.5 -9.5t-9.5 -20.5h-190q0 47 16.5 87.5t46 70t70 46t87.5 16.5t87.5 -16.5t70 -46t46 -70t16.5 -87.5t-16.5 -87.5t-46 -70t-70 -46t-87.5 -16.5q-11 0 -20.5 -9.5
t-9.5 -20.5v-30h250v-190h-440v220z" />
    <glyph glyph-name="threesuperior" unicode="&#xb3;" 
d="M220 500h-190q0 47 16.5 87.5t46 70t70 46t87.5 16.5t87.5 -16.5t70 -46t46 -70t16.5 -87.5q0 -72 -36 -125q36 -52 36 -125q0 -47 -16.5 -87.5t-46 -70t-70 -46t-87.5 -16.5t-87.5 16.5t-70 46t-46 70t-16.5 87.5h190q0 -11 9.5 -20.5t20.5 -9.5t20.5 9.5t9.5 20.5
t-9.5 20.5t-20.5 9.5v190q11 0 20.5 9.5t9.5 20.5t-9.5 20.5t-20.5 9.5t-20.5 -9.5t-9.5 -20.5z" />
    <glyph glyph-name="acute" unicode="&#xb4;" 
d="M250 720q11 0 20.5 9.5t9.5 20.5h190q0 -47 -16.5 -87.5t-46 -70t-70 -46t-87.5 -16.5v190z" />
    <glyph glyph-name="mu" unicode="&#xb5;" 
d="M220 720v-470q0 -11 9.5 -20.5t20.5 -9.5t20.5 9.5t9.5 20.5v470h190v-470q0 -47 -16.5 -87.5t-46 -70t-70 -46t-87.5 -16.5t-87.5 16.5t-70 46t-46 70t-16.5 87.5v470h190z" />
    <glyph glyph-name="paragraph" unicode="&#xb6;" 
d="M35 500q0 47 16.5 87.5t46 70t70 46t87.5 16.5h200v-690h-140v500h-20v-500h-140v272q-58 28 -89 81.5t-31 116.5z" />
    <glyph glyph-name="periodcentered" unicode="&#xb7;" 
d="M345 500v-220h-190v220h190z" />
    <glyph glyph-name="cedilla" unicode="&#xb8;" 
d="M155 0q0 47 16.5 87.5t46 70t70 46t87.5 16.5v-190q-11 0 -20.5 -9.5t-9.5 -20.5h-190z" />
    <glyph glyph-name="onesuperior" unicode="&#xb9;" 
d="M55 220h100v310h-100v190h290v-500h100v-190h-390v190z" />
    <glyph glyph-name="ordmasculine" unicode="&#xba;" 
d="M30 500q0 47 16.5 87.5t46 70t70 46t87.5 16.5t87.5 -16.5t70 -46t46 -70t16.5 -87.5t-16.5 -87.5t-46 -70t-70 -46t-87.5 -16.5t-87.5 16.5t-70 46t-46 70t-16.5 87.5zM220 500q0 -11 9.5 -20.5t20.5 -9.5t20.5 9.5t9.5 20.5t-9.5 20.5t-20.5 9.5t-20.5 -9.5t-9.5 -20.5
z" />
    <glyph glyph-name="guillemotright" unicode="&#xbb;" 
d="M470 500q0 -11 9.5 -20.5t20.5 -9.5v-190q-11 0 -20.5 -9.5t-9.5 -20.5h-190q0 73 36 125q-36 53 -36 125h190zM220 500q0 -11 9.5 -20.5t20.5 -9.5v-190q-11 0 -20.5 -9.5t-9.5 -20.5h-190q0 73 36 125q-36 53 -36 125h190z" />
    <glyph glyph-name="onequarter" unicode="&#xbc;" 
d="M30 30v220q0 47 16.5 87.5t46 70t70 46t87.5 16.5q11 0 20.5 9.5t9.5 20.5v220h190v-220q0 -47 -16.5 -87.5t-46 -70t-70 -46t-87.5 -16.5q-11 0 -20.5 -9.5t-9.5 -20.5v-220h-190zM440 250v-30h30v-190h-220v220h190zM50 500v220h190v-220h-190z" />
    <glyph glyph-name="onehalf" unicode="&#xbd;" 
d="M30 30v220q0 47 16.5 87.5t46 70t70 46t87.5 16.5q11 0 20.5 9.5t9.5 20.5v220h190v-220q0 -47 -16.5 -87.5t-46 -70t-70 -46t-87.5 -16.5q-11 0 -20.5 -9.5t-9.5 -20.5v-220h-190zM250 250q47 0 87.5 -16.5t70 -46t46 -70t16.5 -87.5h-190q0 11 -9.5 20.5t-20.5 9.5v190
zM50 720h190v-220h-190v220z" />
    <glyph glyph-name="threequarters" unicode="&#xbe;" 
d="M30 30v220q0 47 16.5 87.5t46 70t70 46t87.5 16.5q11 0 20.5 9.5t9.5 20.5v220h190v-220q0 -47 -16.5 -87.5t-46 -70t-70 -46t-87.5 -16.5q-11 0 -20.5 -9.5t-9.5 -20.5v-220h-190zM250 30v220h190v-30h30v-190h-220zM30 690q11 0 20.5 9.5t9.5 20.5h190
q0 -47 -16.5 -87.5t-46 -70t-70 -46t-87.5 -16.5v190z" />
    <glyph glyph-name="questiondown" unicode="&#xbf;" 
d="M30 250q0 47 16.5 87.5t46 70t70 46t87.5 16.5q11 0 20.5 9.5t9.5 20.5t-9.5 20.5t-20.5 9.5t-20.5 -9.5t-9.5 -20.5h-190q0 47 16.5 87.5t46 70t70 46t87.5 16.5t87.5 -16.5t70 -46t46 -70t16.5 -87.5t-16.5 -87.5t-46 -70t-70 -46t-87.5 -16.5q-11 0 -20.5 -9.5
t-9.5 -20.5h-190zM30 0v220h190v-220h-190z" />
    <glyph glyph-name="Agrave" unicode="&#xc0;" 
d="M30 500q0 73 36 125q-36 53 -36 125h190q0 -11 9.5 -20.5t20.5 -9.5q47 0 87.5 -16.5t70 -46t46 -70t16.5 -87.5v-470h-190v250h-60v-250h-190v470zM280 470v30q0 11 -9.5 20.5t-20.5 9.5t-20.5 -9.5t-9.5 -20.5v-30h60z" />
    <glyph glyph-name="Aacute" unicode="&#xc1;" 
d="M30 500q0 47 16.5 87.5t46 70t70 46t87.5 16.5q11 0 20.5 9.5t9.5 20.5h190q0 -72 -36 -125q36 -52 36 -125v-470h-190v250h-60v-250h-190v470zM280 470v30q0 11 -9.5 20.5t-20.5 9.5t-20.5 -9.5t-9.5 -20.5v-30h60z" />
    <glyph glyph-name="Acircumflex" unicode="&#xc2;" 
d="M30 0v250q0 47 16.5 87.5t46 70t70 46t87.5 16.5t87.5 -16.5t70 -46t46 -70t16.5 -87.5v-250h-190v30h-60v-30h-190zM30 500q0 47 16.5 87.5t46 70t70 46t87.5 16.5t87.5 -16.5t70 -46t46 -70t16.5 -87.5h-190q0 11 -9.5 20.5t-20.5 9.5t-20.5 -9.5t-9.5 -20.5h-190z
M280 220v30q0 11 -9.5 20.5t-20.5 9.5t-20.5 -9.5t-9.5 -20.5v-30h60z" />
    <glyph glyph-name="Atilde" unicode="&#xc3;" 
d="M30 250q0 47 16.5 87.5t46 70t70 46t87.5 16.5t87.5 -16.5t70 -46t46 -70t16.5 -87.5v-250h-190v30h-60v-30h-190v250zM30 500q0 47 16.5 87.5t46 70t70 46t87.5 16.5q11 0 20.5 9.5t9.5 20.5h190q0 -47 -16.5 -87.5t-46 -70t-70 -46t-87.5 -16.5q-11 0 -20.5 -9.5
t-9.5 -20.5h-190zM280 220v30q0 11 -9.5 20.5t-20.5 9.5t-20.5 -9.5t-9.5 -20.5v-30h60z" />
    <glyph glyph-name="Adieresis" unicode="&#xc4;" 
d="M30 250q0 48 16.5 88t46 69.5t70 46t87.5 16.5t87.5 -16.5t70 -46t46 -70t16.5 -87.5v-250h-190v30h-60v-30h-190v250zM30 720h190v-220h-190v220zM280 500v220h190v-220h-190zM280 220v30q0 11 -9.5 20.5t-20.5 9.5t-20.5 -9.5t-9.5 -20.5v-30h60z" />
    <glyph glyph-name="Aring" unicode="&#xc5;" 
d="M30 250q0 73 36 125q-36 53 -36 125q0 47 16.5 87.5t46 70t70 46t87.5 16.5t87.5 -16.5t70 -46t46 -70t16.5 -87.5q0 -72 -36 -125q36 -52 36 -125v-250h-190v30h-60v-30h-190v250zM280 220v30q0 11 -9.5 20.5t-20.5 9.5t-20.5 -9.5t-9.5 -20.5v-30h60zM220 500
q0 -11 9.5 -20.5t20.5 -9.5t20.5 9.5t9.5 20.5t-9.5 20.5t-20.5 9.5t-20.5 -9.5t-9.5 -20.5z" />
    <glyph glyph-name="AE" unicode="&#xc6;" 
d="M5 30v470q0 47 16.5 87.5t46 70t70 46t87.5 16.5h270v-190h-150v-60h150v-190h-150v-60h150v-190h-270v250h-30v-250h-190zM225 470v60q-11 0 -20.5 -9.5t-9.5 -20.5v-30h30z" />
    <glyph glyph-name="Ccedilla" unicode="&#xc7;" 
d="M66 125q-36 53 -36 125v250q0 47 16.5 87.5t46 70t70 46t87.5 16.5t87.5 -16.5t70 -46t46 -70t16.5 -87.5h-190q0 11 -9.5 20.5t-20.5 9.5t-20.5 -9.5t-9.5 -20.5v-250q0 -11 9.5 -20.5t20.5 -9.5t20.5 9.5t9.5 20.5h190q0 -47 -16.5 -87.5t-46 -70t-70 -46t-87.5 -16.5
q-11 0 -20.5 -9.5t-9.5 -20.5h-190q0 73 36 125z" />
    <glyph glyph-name="Egrave" unicode="&#xc8;" 
d="M220 280v-60h250v-190h-440v470q0 73 36 125q-36 53 -36 125h190q0 -11 9.5 -20.5t20.5 -9.5h220v-190h-220q-11 0 -20.5 -9.5t-9.5 -20.5v-30h250v-190h-250z" />
    <glyph glyph-name="Eacute" unicode="&#xc9;" 
d="M30 30v690h220q11 0 20.5 9.5t9.5 20.5h190q0 -47 -16.5 -87.5t-46 -70t-70 -46t-87.5 -16.5h-30v-60h250v-190h-250v-60h250v-190h-440z" />
    <glyph glyph-name="Ecircumflex" unicode="&#xca;" 
d="M30 250q0 47 16.5 87.5t46 70t70 46t87.5 16.5t87.5 -16.5t70 -46t46 -70t16.5 -87.5v-220h-250v-30h-190v250zM30 500q0 47 16.5 87.5t46 70t70 46t87.5 16.5t87.5 -16.5t70 -46t46 -70t16.5 -87.5h-190q0 11 -9.5 20.5t-20.5 9.5t-20.5 -9.5t-9.5 -20.5h-190zM220 220
h60v30q0 11 -9.5 20.5t-20.5 9.5t-20.5 -9.5t-9.5 -20.5v-30z" />
    <glyph glyph-name="Edieresis" unicode="&#xcb;" 
d="M280 720v30h190v-220h-250v-60h250v-190h-250v-60h250v-190h-440v720h190v-30h60z" />
    <glyph glyph-name="Igrave" unicode="&#xcc;" 
d="M155 30v470h190v-470h-190zM345 750q0 -11 9.5 -20.5t20.5 -9.5v-190q-47 0 -87.5 16.5t-70 46t-46 70t-16.5 87.5h190z" />
    <glyph glyph-name="Iacute" unicode="&#xcd;" 
d="M155 500h190v-470h-190v470zM125 720q11 0 20.5 9.5t9.5 20.5h190q0 -47 -16.5 -87.5t-46 -70t-70 -46t-87.5 -16.5v190z" />
    <glyph glyph-name="Icircumflex" unicode="&#xce;" 
d="M345 500v-470h-190v470h190zM125 720q11 0 20.5 9.5t9.5 20.5h190q0 -11 9.5 -20.5t20.5 -9.5v-190q-72 0 -125 36q-52 -36 -125 -36v190z" />
    <glyph glyph-name="Idieresis" unicode="&#xcf;" 
d="M345 500v-470h-190v470h190zM125 530v190h250v-190h-250z" />
    <glyph glyph-name="Eth" unicode="&#xd0;" 
d="M30 30v690h220q47 0 87.5 -16.5t70 -46t46 -70t16.5 -87.5v-250q0 -47 -16.5 -87.5t-46 -70t-70 -46t-87.5 -16.5h-220zM220 280v-60h30q11 0 20.5 9.5t9.5 20.5v250q0 11 -9.5 20.5t-20.5 9.5h-30v-60h30v-190h-30z" />
    <glyph glyph-name="Ntilde" unicode="&#xd1;" 
d="M30 30v440h220q47 0 87.5 -16.5t70 -46t46 -70t16.5 -87.5v-220h-190v220q0 11 -9.5 20.5t-20.5 9.5h-30v-250h-190zM30 720h440v-190h-440v190z" />
    <glyph glyph-name="Ograve" unicode="&#xd2;" 
d="M30 500q0 73 36 125q-36 53 -36 125h190q0 -11 9.5 -20.5t20.5 -9.5q47 0 87.5 -16.5t70 -46t46 -70t16.5 -87.5v-250q0 -47 -16.5 -87.5t-46 -70t-70 -46t-87.5 -16.5t-87.5 16.5t-70 46t-46 70t-16.5 87.5v250zM220 250q0 -11 9.5 -20.5t20.5 -9.5t20.5 9.5t9.5 20.5
v250q0 11 -9.5 20.5t-20.5 9.5t-20.5 -9.5t-9.5 -20.5v-250z" />
    <glyph glyph-name="Oacute" unicode="&#xd3;" 
d="M30 500q0 47 16.5 87.5t46 70t70 46t87.5 16.5q11 0 20.5 9.5t9.5 20.5h190q0 -72 -36 -125q36 -52 36 -125v-250q0 -47 -16.5 -87.5t-46 -70t-70 -46t-87.5 -16.5t-87.5 16.5t-70 46t-46 70t-16.5 87.5v250zM220 250q0 -11 9.5 -20.5t20.5 -9.5t20.5 9.5t9.5 20.5v250
q0 11 -9.5 20.5t-20.5 9.5t-20.5 -9.5t-9.5 -20.5v-250z" />
    <glyph glyph-name="Ocircumflex" unicode="&#xd4;" 
d="M30 250q0 47 16.5 87.5t46 70t70 46t87.5 16.5t87.5 -16.5t70 -46t46 -70t16.5 -87.5t-16.5 -87.5t-46 -70t-70 -46t-87.5 -16.5t-87.5 16.5t-70 46t-46 70t-16.5 87.5zM30 500q0 47 16.5 87.5t46 70t70 46t87.5 16.5t87.5 -16.5t70 -46t46 -70t16.5 -87.5h-190
q0 11 -9.5 20.5t-20.5 9.5t-20.5 -9.5t-9.5 -20.5h-190zM220 250q0 -11 9.5 -20.5t20.5 -9.5t20.5 9.5t9.5 20.5t-9.5 20.5t-20.5 9.5t-20.5 -9.5t-9.5 -20.5z" />
    <glyph glyph-name="Otilde" unicode="&#xd5;" 
d="M30 250q0 47 16.5 87.5t46 70t70 46t87.5 16.5t87.5 -16.5t70 -46t46 -70t16.5 -87.5t-16.5 -87.5t-46 -70t-70 -46t-87.5 -16.5t-87.5 16.5t-70 46t-46 70t-16.5 87.5zM30 500q0 47 16.5 87.5t46 70t70 46t87.5 16.5q11 0 20.5 9.5t9.5 20.5h190q0 -47 -16.5 -87.5
t-46 -70t-70 -46t-87.5 -16.5q-11 0 -20.5 -9.5t-9.5 -20.5h-190zM220 250q0 -11 9.5 -20.5t20.5 -9.5t20.5 9.5t9.5 20.5t-9.5 20.5t-20.5 9.5t-20.5 -9.5t-9.5 -20.5z" />
    <glyph glyph-name="Odieresis" unicode="&#xd6;" 
d="M30 250q0 47 16.5 87.5t46 70t70 46t87.5 16.5t87.5 -16.5t70 -46t46 -70t16.5 -87.5t-16.5 -87.5t-46 -70t-70 -46t-87.5 -16.5t-87.5 16.5t-70 46t-46 70t-16.5 87.5zM30 720h190v-220h-190v220zM280 500v220h190v-220h-190zM220 250q0 -11 9.5 -20.5t20.5 -9.5
t20.5 9.5t9.5 20.5t-9.5 20.5t-20.5 9.5t-20.5 -9.5t-9.5 -20.5z" />
    <glyph glyph-name="multiply" unicode="&#xd7;" 
d="M30 500h190q0 -11 9.5 -20.5t20.5 -9.5t20.5 9.5t9.5 20.5h190q0 -72 -36 -125q36 -52 36 -125h-190q0 11 -9.5 20.5t-20.5 9.5t-20.5 -9.5t-9.5 -20.5h-190q0 73 36 125q-36 53 -36 125z" />
    <glyph glyph-name="Oslash" unicode="&#xd8;" 
d="M30 0q0 73 36 125q-36 53 -36 125v250q0 47 16.5 87.5t46 70t70 46t87.5 16.5q11 0 20.5 9.5t9.5 20.5h190q0 -72 -36 -125q36 -52 36 -125v-250q0 -47 -16.5 -87.5t-46 -70t-70 -46t-87.5 -16.5q-11 0 -20.5 -9.5t-9.5 -20.5h-190zM220 250q0 -11 9.5 -20.5t20.5 -9.5
t20.5 9.5t9.5 20.5v250q0 11 -9.5 20.5t-20.5 9.5t-20.5 -9.5t-9.5 -20.5v-250z" />
    <glyph glyph-name="Ugrave" unicode="&#xd9;" 
d="M220 500v-250q0 -11 9.5 -20.5t20.5 -9.5t20.5 9.5t9.5 20.5v250h190v-250q0 -47 -16.5 -87.5t-46 -70t-70 -46t-87.5 -16.5t-87.5 16.5t-70 46t-46 70t-16.5 87.5v250h190zM220 750q0 -11 9.5 -20.5t20.5 -9.5v-190q-47 0 -87.5 16.5t-70 46t-46 70t-16.5 87.5h190z" />
    <glyph glyph-name="Uacute" unicode="&#xda;" 
d="M30 500h190v-250q0 -11 9.5 -20.5t20.5 -9.5t20.5 9.5t9.5 20.5v250h190v-250q0 -47 -16.5 -87.5t-46 -70t-70 -46t-87.5 -16.5t-87.5 16.5t-70 46t-46 70t-16.5 87.5v250zM250 720q11 0 20.5 9.5t9.5 20.5h190q0 -47 -16.5 -87.5t-46 -70t-70 -46t-87.5 -16.5v190z" />
    <glyph glyph-name="Ucircumflex" unicode="&#xdb;" 
d="M30 470h190v-220q0 -11 9.5 -20.5t20.5 -9.5t20.5 9.5t9.5 20.5v220h190v-220q0 -47 -16.5 -87.5t-46 -70t-70 -46t-87.5 -16.5t-87.5 16.5t-70 46t-46 70t-16.5 87.5v220zM30 500q0 47 16.5 87.5t46 70t70 46t87.5 16.5t87.5 -16.5t70 -46t46 -70t16.5 -87.5h-190
q0 11 -9.5 20.5t-20.5 9.5t-20.5 -9.5t-9.5 -20.5h-190z" />
    <glyph glyph-name="Udieresis" unicode="&#xdc;" 
d="M30 500h190v-250q0 -11 9.5 -20.5t20.5 -9.5t20.5 9.5t9.5 20.5v250h190v-250q0 -47 -16.5 -87.5t-46 -70t-70 -46t-87.5 -16.5t-87.5 16.5t-70 46t-46 70t-16.5 87.5v250zM280 750h190v-220h-190v220zM30 530v220h190v-220h-190z" />
    <glyph glyph-name="Yacute" unicode="&#xdd;" 
d="M30 250v250h190v-250q0 -11 9.5 -20.5t20.5 -9.5h30v280h190v-500h-190v30h-30q-47 0 -87.5 16.5t-70 46t-46 70t-16.5 87.5zM250 530v190q11 0 20.5 9.5t9.5 20.5h190q0 -47 -16.5 -87.5t-46 -70t-70 -46t-87.5 -16.5z" />
    <glyph glyph-name="Thorn" unicode="&#xde;" 
d="M220 720v-110h30q47 0 87.5 -16.5t70 -46t46 -70t16.5 -87.5t-16.5 -87.5t-46 -70t-70 -46t-87.5 -16.5h-30v-140h-190v690h190zM220 420v-60h30q11 0 20.5 9.5t9.5 20.5t-9.5 20.5t-20.5 9.5h-30z" />
    <glyph glyph-name="germandbls" unicode="&#xdf;" 
d="M30 500q0 47 16.5 87.5t46 70t70 46t87.5 16.5t87.5 -16.5t70 -46t46 -70t16.5 -87.5q0 -72 -36 -125q36 -52 36 -125q0 -47 -16.5 -87.5t-46 -70t-70 -46t-87.5 -16.5v190q11 0 20.5 9.5t9.5 20.5t-9.5 20.5t-20.5 9.5v190q11 0 20.5 9.5t9.5 20.5t-9.5 20.5t-20.5 9.5
t-20.5 -9.5t-9.5 -20.5v-470h-190v470z" />
    <glyph glyph-name="agrave" unicode="&#xe0;" 
d="M30 500q0 73 36 125q-36 53 -36 125h190q0 -11 9.5 -20.5t20.5 -9.5q47 0 87.5 -16.5t70 -46t46 -70t16.5 -87.5v-470h-190v250h-60v-250h-190v470zM280 470v30q0 11 -9.5 20.5t-20.5 9.5t-20.5 -9.5t-9.5 -20.5v-30h60z" />
    <glyph glyph-name="aacute" unicode="&#xe1;" 
d="M30 500q0 47 16.5 87.5t46 70t70 46t87.5 16.5q11 0 20.5 9.5t9.5 20.5h190q0 -72 -36 -125q36 -52 36 -125v-470h-190v250h-60v-250h-190v470zM280 470v30q0 11 -9.5 20.5t-20.5 9.5t-20.5 -9.5t-9.5 -20.5v-30h60z" />
    <glyph glyph-name="acircumflex" unicode="&#xe2;" 
d="M30 0v250q0 47 16.5 87.5t46 70t70 46t87.5 16.5t87.5 -16.5t70 -46t46 -70t16.5 -87.5v-250h-190v30h-60v-30h-190zM30 500q0 47 16.5 87.5t46 70t70 46t87.5 16.5t87.5 -16.5t70 -46t46 -70t16.5 -87.5h-190q0 11 -9.5 20.5t-20.5 9.5t-20.5 -9.5t-9.5 -20.5h-190z
M280 220v30q0 11 -9.5 20.5t-20.5 9.5t-20.5 -9.5t-9.5 -20.5v-30h60z" />
    <glyph glyph-name="atilde" unicode="&#xe3;" 
d="M30 250q0 47 16.5 87.5t46 70t70 46t87.5 16.5t87.5 -16.5t70 -46t46 -70t16.5 -87.5v-250h-190v30h-60v-30h-190v250zM30 500q0 47 16.5 87.5t46 70t70 46t87.5 16.5q11 0 20.5 9.5t9.5 20.5h190q0 -47 -16.5 -87.5t-46 -70t-70 -46t-87.5 -16.5q-11 0 -20.5 -9.5
t-9.5 -20.5h-190zM280 220v30q0 11 -9.5 20.5t-20.5 9.5t-20.5 -9.5t-9.5 -20.5v-30h60z" />
    <glyph glyph-name="adieresis" unicode="&#xe4;" 
d="M30 250q0 48 16.5 88t46 69.5t70 46t87.5 16.5t87.5 -16.5t70 -46t46 -70t16.5 -87.5v-250h-190v30h-60v-30h-190v250zM30 720h190v-220h-190v220zM280 500v220h190v-220h-190zM280 220v30q0 11 -9.5 20.5t-20.5 9.5t-20.5 -9.5t-9.5 -20.5v-30h60z" />
    <glyph glyph-name="aring" unicode="&#xe5;" 
d="M30 250q0 73 36 125q-36 53 -36 125q0 47 16.5 87.5t46 70t70 46t87.5 16.5t87.5 -16.5t70 -46t46 -70t16.5 -87.5q0 -72 -36 -125q36 -52 36 -125v-250h-190v30h-60v-30h-190v250zM280 220v30q0 11 -9.5 20.5t-20.5 9.5t-20.5 -9.5t-9.5 -20.5v-30h60zM220 500
q0 -11 9.5 -20.5t20.5 -9.5t20.5 9.5t9.5 20.5t-9.5 20.5t-20.5 9.5t-20.5 -9.5t-9.5 -20.5z" />
    <glyph glyph-name="ae" unicode="&#xe6;" 
d="M5 30v470q0 47 16.5 87.5t46 70t70 46t87.5 16.5h270v-190h-150v-60h150v-190h-150v-60h150v-190h-270v250h-30v-250h-190zM225 470v60q-11 0 -20.5 -9.5t-9.5 -20.5v-30h30z" />
    <glyph glyph-name="ccedilla" unicode="&#xe7;" 
d="M66 125q-36 53 -36 125v250q0 47 16.5 87.5t46 70t70 46t87.5 16.5t87.5 -16.5t70 -46t46 -70t16.5 -87.5h-190q0 11 -9.5 20.5t-20.5 9.5t-20.5 -9.5t-9.5 -20.5v-250q0 -11 9.5 -20.5t20.5 -9.5t20.5 9.5t9.5 20.5h190q0 -47 -16.5 -87.5t-46 -70t-70 -46t-87.5 -16.5
q-11 0 -20.5 -9.5t-9.5 -20.5h-190q0 73 36 125z" />
    <glyph glyph-name="egrave" unicode="&#xe8;" 
d="M220 280v-60h250v-190h-440v470q0 73 36 125q-36 53 -36 125h190q0 -11 9.5 -20.5t20.5 -9.5h220v-190h-220q-11 0 -20.5 -9.5t-9.5 -20.5v-30h250v-190h-250z" />
    <glyph glyph-name="eacute" unicode="&#xe9;" 
d="M30 30v690h220q11 0 20.5 9.5t9.5 20.5h190q0 -47 -16.5 -87.5t-46 -70t-70 -46t-87.5 -16.5h-30v-60h250v-190h-250v-60h250v-190h-440z" />
    <glyph glyph-name="ecircumflex" unicode="&#xea;" 
d="M30 250q0 47 16.5 87.5t46 70t70 46t87.5 16.5t87.5 -16.5t70 -46t46 -70t16.5 -87.5v-220h-250v-30h-190v250zM30 500q0 47 16.5 87.5t46 70t70 46t87.5 16.5t87.5 -16.5t70 -46t46 -70t16.5 -87.5h-190q0 11 -9.5 20.5t-20.5 9.5t-20.5 -9.5t-9.5 -20.5h-190zM220 220
h60v30q0 11 -9.5 20.5t-20.5 9.5t-20.5 -9.5t-9.5 -20.5v-30z" />
    <glyph glyph-name="edieresis" unicode="&#xeb;" 
d="M280 720v30h190v-220h-250v-60h250v-190h-250v-60h250v-190h-440v720h190v-30h60z" />
    <glyph glyph-name="igrave" unicode="&#xec;" 
d="M155 30v470h190v-470h-190zM345 750q0 -11 9.5 -20.5t20.5 -9.5v-190q-47 0 -87.5 16.5t-70 46t-46 70t-16.5 87.5h190z" />
    <glyph glyph-name="iacute" unicode="&#xed;" 
d="M155 500h190v-470h-190v470zM125 720q11 0 20.5 9.5t9.5 20.5h190q0 -47 -16.5 -87.5t-46 -70t-70 -46t-87.5 -16.5v190z" />
    <glyph glyph-name="icircumflex" unicode="&#xee;" 
d="M345 500v-470h-190v470h190zM125 720q11 0 20.5 9.5t9.5 20.5h190q0 -11 9.5 -20.5t20.5 -9.5v-190q-72 0 -125 36q-52 -36 -125 -36v190z" />
    <glyph glyph-name="idieresis" unicode="&#xef;" 
d="M345 500v-470h-190v470h190zM125 530v190h250v-190h-250z" />
    <glyph glyph-name="eth" unicode="&#xf0;" 
d="M30 30v690h220q47 0 87.5 -16.5t70 -46t46 -70t16.5 -87.5v-250q0 -47 -16.5 -87.5t-46 -70t-70 -46t-87.5 -16.5h-220zM220 280v-60h30q11 0 20.5 9.5t9.5 20.5v250q0 11 -9.5 20.5t-20.5 9.5h-30v-60h30v-190h-30z" />
    <glyph glyph-name="ntilde" unicode="&#xf1;" 
d="M30 30v440h220q47 0 87.5 -16.5t70 -46t46 -70t16.5 -87.5v-220h-190v220q0 11 -9.5 20.5t-20.5 9.5h-30v-250h-190zM30 720h440v-190h-440v190z" />
    <glyph glyph-name="ograve" unicode="&#xf2;" 
d="M30 500q0 73 36 125q-36 53 -36 125h190q0 -11 9.5 -20.5t20.5 -9.5q47 0 87.5 -16.5t70 -46t46 -70t16.5 -87.5v-250q0 -47 -16.5 -87.5t-46 -70t-70 -46t-87.5 -16.5t-87.5 16.5t-70 46t-46 70t-16.5 87.5v250zM220 250q0 -11 9.5 -20.5t20.5 -9.5t20.5 9.5t9.5 20.5
v250q0 11 -9.5 20.5t-20.5 9.5t-20.5 -9.5t-9.5 -20.5v-250z" />
    <glyph glyph-name="oacute" unicode="&#xf3;" 
d="M30 500q0 47 16.5 87.5t46 70t70 46t87.5 16.5q11 0 20.5 9.5t9.5 20.5h190q0 -72 -36 -125q36 -52 36 -125v-250q0 -47 -16.5 -87.5t-46 -70t-70 -46t-87.5 -16.5t-87.5 16.5t-70 46t-46 70t-16.5 87.5v250zM220 250q0 -11 9.5 -20.5t20.5 -9.5t20.5 9.5t9.5 20.5v250
q0 11 -9.5 20.5t-20.5 9.5t-20.5 -9.5t-9.5 -20.5v-250z" />
    <glyph glyph-name="ocircumflex" unicode="&#xf4;" 
d="M30 250q0 47 16.5 87.5t46 70t70 46t87.5 16.5t87.5 -16.5t70 -46t46 -70t16.5 -87.5t-16.5 -87.5t-46 -70t-70 -46t-87.5 -16.5t-87.5 16.5t-70 46t-46 70t-16.5 87.5zM30 500q0 47 16.5 87.5t46 70t70 46t87.5 16.5t87.5 -16.5t70 -46t46 -70t16.5 -87.5h-190
q0 11 -9.5 20.5t-20.5 9.5t-20.5 -9.5t-9.5 -20.5h-190zM220 250q0 -11 9.5 -20.5t20.5 -9.5t20.5 9.5t9.5 20.5t-9.5 20.5t-20.5 9.5t-20.5 -9.5t-9.5 -20.5z" />
    <glyph glyph-name="otilde" unicode="&#xf5;" 
d="M30 250q0 47 16.5 87.5t46 70t70 46t87.5 16.5t87.5 -16.5t70 -46t46 -70t16.5 -87.5t-16.5 -87.5t-46 -70t-70 -46t-87.5 -16.5t-87.5 16.5t-70 46t-46 70t-16.5 87.5zM30 500q0 47 16.5 87.5t46 70t70 46t87.5 16.5q11 0 20.5 9.5t9.5 20.5h190q0 -47 -16.5 -87.5
t-46 -70t-70 -46t-87.5 -16.5q-11 0 -20.5 -9.5t-9.5 -20.5h-190zM220 250q0 -11 9.5 -20.5t20.5 -9.5t20.5 9.5t9.5 20.5t-9.5 20.5t-20.5 9.5t-20.5 -9.5t-9.5 -20.5z" />
    <glyph glyph-name="odieresis" unicode="&#xf6;" 
d="M30 250q0 47 16.5 87.5t46 70t70 46t87.5 16.5t87.5 -16.5t70 -46t46 -70t16.5 -87.5t-16.5 -87.5t-46 -70t-70 -46t-87.5 -16.5t-87.5 16.5t-70 46t-46 70t-16.5 87.5zM30 720h190v-220h-190v220zM280 500v220h190v-220h-190zM220 250q0 -11 9.5 -20.5t20.5 -9.5
t20.5 9.5t9.5 20.5t-9.5 20.5t-20.5 9.5t-20.5 -9.5t-9.5 -20.5z" />
    <glyph glyph-name="divide" unicode="&#xf7;" 
d="M65 470h370v-190h-370v190zM345 250v-190h-190v190h190zM155 500v190h190v-190h-190z" />
    <glyph glyph-name="oslash" unicode="&#xf8;" 
d="M30 0q0 73 36 125q-36 53 -36 125v250q0 47 16.5 87.5t46 70t70 46t87.5 16.5q11 0 20.5 9.5t9.5 20.5h190q0 -72 -36 -125q36 -52 36 -125v-250q0 -47 -16.5 -87.5t-46 -70t-70 -46t-87.5 -16.5q-11 0 -20.5 -9.5t-9.5 -20.5h-190zM220 250q0 -11 9.5 -20.5t20.5 -9.5
t20.5 9.5t9.5 20.5v250q0 11 -9.5 20.5t-20.5 9.5t-20.5 -9.5t-9.5 -20.5v-250z" />
    <glyph glyph-name="ugrave" unicode="&#xf9;" 
d="M220 500v-250q0 -11 9.5 -20.5t20.5 -9.5t20.5 9.5t9.5 20.5v250h190v-250q0 -47 -16.5 -87.5t-46 -70t-70 -46t-87.5 -16.5t-87.5 16.5t-70 46t-46 70t-16.5 87.5v250h190zM220 750q0 -11 9.5 -20.5t20.5 -9.5v-190q-47 0 -87.5 16.5t-70 46t-46 70t-16.5 87.5h190z" />
    <glyph glyph-name="uacute" unicode="&#xfa;" 
d="M30 500h190v-250q0 -11 9.5 -20.5t20.5 -9.5t20.5 9.5t9.5 20.5v250h190v-250q0 -47 -16.5 -87.5t-46 -70t-70 -46t-87.5 -16.5t-87.5 16.5t-70 46t-46 70t-16.5 87.5v250zM250 720q11 0 20.5 9.5t9.5 20.5h190q0 -47 -16.5 -87.5t-46 -70t-70 -46t-87.5 -16.5v190z" />
    <glyph glyph-name="ucircumflex" unicode="&#xfb;" 
d="M30 470h190v-220q0 -11 9.5 -20.5t20.5 -9.5t20.5 9.5t9.5 20.5v220h190v-220q0 -47 -16.5 -87.5t-46 -70t-70 -46t-87.5 -16.5t-87.5 16.5t-70 46t-46 70t-16.5 87.5v220zM30 500q0 47 16.5 87.5t46 70t70 46t87.5 16.5t87.5 -16.5t70 -46t46 -70t16.5 -87.5h-190
q0 11 -9.5 20.5t-20.5 9.5t-20.5 -9.5t-9.5 -20.5h-190z" />
    <glyph glyph-name="udieresis" unicode="&#xfc;" 
d="M30 500h190v-250q0 -11 9.5 -20.5t20.5 -9.5t20.5 9.5t9.5 20.5v250h190v-250q0 -47 -16.5 -87.5t-46 -70t-70 -46t-87.5 -16.5t-87.5 16.5t-70 46t-46 70t-16.5 87.5v250zM280 750h190v-220h-190v220zM30 530v220h190v-220h-190z" />
    <glyph glyph-name="yacute" unicode="&#xfd;" 
d="M30 250v250h190v-250q0 -11 9.5 -20.5t20.5 -9.5h30v280h190v-500h-190v30h-30q-47 0 -87.5 16.5t-70 46t-46 70t-16.5 87.5zM250 530v190q11 0 20.5 9.5t9.5 20.5h190q0 -47 -16.5 -87.5t-46 -70t-70 -46t-87.5 -16.5z" />
    <glyph glyph-name="thorn" unicode="&#xfe;" 
d="M220 720v-110h30q47 0 87.5 -16.5t70 -46t46 -70t16.5 -87.5t-16.5 -87.5t-46 -70t-70 -46t-87.5 -16.5h-30v-140h-190v690h190zM220 420v-60h30q11 0 20.5 9.5t9.5 20.5t-9.5 20.5t-20.5 9.5h-30z" />
    <glyph glyph-name="ydieresis" unicode="&#xff;" 
d="M220 470v-220q0 -11 9.5 -20.5t20.5 -9.5h30v250h190v-470h-190v30h-30q-47 0 -87.5 16.5t-70 46t-46 70t-16.5 87.5v220h190zM280 500v220h190v-220h-190zM220 720v-220h-190v220h190z" />
    <glyph glyph-name="Amacron" unicode="&#x100;" 
d="M30 250q0 47 16.5 87.5t46 70t70 46t87.5 16.5t87.5 -16.5t70 -46t46 -70t16.5 -87.5v-250h-190v30h-60v-30h-190v250zM30 720h440v-190h-440v190zM280 220v30q0 11 -9.5 20.5t-20.5 9.5t-20.5 -9.5t-9.5 -20.5v-30h60z" />
    <glyph glyph-name="amacron" unicode="&#x101;" 
d="M30 250q0 47 16.5 87.5t46 70t70 46t87.5 16.5t87.5 -16.5t70 -46t46 -70t16.5 -87.5v-250h-190v30h-60v-30h-190v250zM30 720h440v-190h-440v190zM280 220v30q0 11 -9.5 20.5t-20.5 9.5t-20.5 -9.5t-9.5 -20.5v-30h60z" />
    <glyph glyph-name="Abreve" unicode="&#x102;" 
d="M30 500q0 73 36 125q-36 53 -36 125h190q0 -11 9.5 -20.5t20.5 -9.5t20.5 9.5t9.5 20.5h190q0 -72 -36 -125q36 -52 36 -125v-470h-190v250h-60v-250h-190v470zM280 470v30q0 11 -9.5 20.5t-20.5 9.5t-20.5 -9.5t-9.5 -20.5v-30h60z" />
    <glyph glyph-name="abreve" unicode="&#x103;" 
d="M30 500q0 73 36 125q-36 53 -36 125h190q0 -11 9.5 -20.5t20.5 -9.5t20.5 9.5t9.5 20.5h190q0 -72 -36 -125q36 -52 36 -125v-470h-190v250h-60v-250h-190v470zM280 470v30q0 11 -9.5 20.5t-20.5 9.5t-20.5 -9.5t-9.5 -20.5v-30h60z" />
    <glyph glyph-name="Aogonek" unicode="&#x104;" 
d="M30 500q0 47 16.5 87.5t46 70t70 46t87.5 16.5t87.5 -16.5t70 -46t46 -70t16.5 -87.5v-500h-190v280h-60v-250h-190v470zM280 470v30q0 11 -9.5 20.5t-20.5 9.5t-20.5 -9.5t-9.5 -20.5v-30h60z" />
    <glyph glyph-name="aogonek" unicode="&#x105;" 
d="M30 500q0 47 16.5 87.5t46 70t70 46t87.5 16.5t87.5 -16.5t70 -46t46 -70t16.5 -87.5v-500h-190v280h-60v-250h-190v470zM280 470v30q0 11 -9.5 20.5t-20.5 9.5t-20.5 -9.5t-9.5 -20.5v-30h60z" />
    <glyph glyph-name="Cacute" unicode="&#x106;" 
d="M30 500q0 47 16.5 87.5t46 70t70 46t87.5 16.5q11 0 20.5 9.5t9.5 20.5h190q0 -72 -36 -125q36 -52 36 -125h-190q0 11 -9.5 20.5t-20.5 9.5t-20.5 -9.5t-9.5 -20.5v-250q0 -11 9.5 -20.5t20.5 -9.5t20.5 9.5t9.5 20.5h190q0 -47 -16.5 -87.5t-46 -70t-70 -46
t-87.5 -16.5t-87.5 16.5t-70 46t-46 70t-16.5 87.5v250z" />
    <glyph glyph-name="cacute" unicode="&#x107;" 
d="M30 500q0 47 16.5 87.5t46 70t70 46t87.5 16.5q11 0 20.5 9.5t9.5 20.5h190q0 -72 -36 -125q36 -52 36 -125h-190q0 11 -9.5 20.5t-20.5 9.5t-20.5 -9.5t-9.5 -20.5v-250q0 -11 9.5 -20.5t20.5 -9.5t20.5 9.5t9.5 20.5h190q0 -47 -16.5 -87.5t-46 -70t-70 -46
t-87.5 -16.5t-87.5 16.5t-70 46t-46 70t-16.5 87.5v250z" />
    <glyph glyph-name="Ccircumflex" unicode="&#x108;" 
d="M30 250q0 47 16.5 87.5t46 70t70 46t87.5 16.5t87.5 -16.5t70 -46t46 -70t16.5 -87.5h-190q0 11 -9.5 20.5t-20.5 9.5t-20.5 -9.5t-9.5 -20.5t9.5 -20.5t20.5 -9.5h220v-190h-220q-47 0 -87.5 16.5t-70 46t-46 70t-16.5 87.5zM30 500q0 47 16.5 87.5t46 70t70 46
t87.5 16.5t87.5 -16.5t70 -46t46 -70t16.5 -87.5h-190q0 11 -9.5 20.5t-20.5 9.5t-20.5 -9.5t-9.5 -20.5h-190z" />
    <glyph glyph-name="ccircumflex" unicode="&#x109;" 
d="M30 250q0 47 16.5 87.5t46 70t70 46t87.5 16.5t87.5 -16.5t70 -46t46 -70t16.5 -87.5h-190q0 11 -9.5 20.5t-20.5 9.5t-20.5 -9.5t-9.5 -20.5t9.5 -20.5t20.5 -9.5h220v-190h-220q-47 0 -87.5 16.5t-70 46t-46 70t-16.5 87.5zM30 500q0 47 16.5 87.5t46 70t70 46
t87.5 16.5t87.5 -16.5t70 -46t46 -70t16.5 -87.5h-190q0 11 -9.5 20.5t-20.5 9.5t-20.5 -9.5t-9.5 -20.5h-190z" />
    <glyph glyph-name="Cdotaccent" unicode="&#x10a;" 
d="M30 500q0 47 16.5 87.5t46 70t70 46t87.5 16.5h30v30h190v-220h-220q-11 0 -20.5 -9.5t-9.5 -20.5v-250q0 -11 9.5 -20.5t20.5 -9.5t20.5 9.5t9.5 20.5h190q0 -47 -16.5 -87.5t-46 -70t-70 -46t-87.5 -16.5t-87.5 16.5t-70 46t-46 70t-16.5 87.5v250z" />
    <glyph glyph-name="cdotaccent" unicode="&#x10b;" 
d="M30 500q0 47 16.5 87.5t46 70t70 46t87.5 16.5h30v30h190v-220h-220q-11 0 -20.5 -9.5t-9.5 -20.5v-250q0 -11 9.5 -20.5t20.5 -9.5t20.5 9.5t9.5 20.5h190q0 -47 -16.5 -87.5t-46 -70t-70 -46t-87.5 -16.5t-87.5 16.5t-70 46t-46 70t-16.5 87.5v250z" />
    <glyph glyph-name="Ccaron" unicode="&#x10c;" 
d="M66 625q-36 53 -36 125h190q0 -11 9.5 -20.5t20.5 -9.5t20.5 9.5t9.5 20.5h190q0 -72 -36 -125q36 -52 36 -125h-190q0 11 -9.5 20.5t-20.5 9.5t-20.5 -9.5t-9.5 -20.5v-250q0 -11 9.5 -20.5t20.5 -9.5t20.5 9.5t9.5 20.5h190q0 -47 -16.5 -87.5t-46 -70t-70 -46
t-87.5 -16.5t-87.5 16.5t-70 46t-46 70t-16.5 87.5v250q0 73 36 125z" />
    <glyph glyph-name="ccaron" unicode="&#x10d;" 
d="M66 625q-36 53 -36 125h190q0 -11 9.5 -20.5t20.5 -9.5t20.5 9.5t9.5 20.5h190q0 -72 -36 -125q36 -52 36 -125h-190q0 11 -9.5 20.5t-20.5 9.5t-20.5 -9.5t-9.5 -20.5v-250q0 -11 9.5 -20.5t20.5 -9.5t20.5 9.5t9.5 20.5h190q0 -47 -16.5 -87.5t-46 -70t-70 -46
t-87.5 -16.5t-87.5 16.5t-70 46t-46 70t-16.5 87.5v250q0 73 36 125z" />
    <glyph glyph-name="Dcaron" unicode="&#x10e;" 
d="M30 30v470q0 73 36 125q-36 53 -36 125h190q0 -11 9.5 -20.5t20.5 -9.5t20.5 9.5t9.5 20.5h190q0 -72 -36 -125q36 -52 36 -125v-250q0 -47 -16.5 -87.5t-46 -70t-70 -46t-87.5 -16.5h-220zM220 220h30q11 0 20.5 9.5t9.5 20.5v250q0 11 -9.5 20.5t-20.5 9.5t-20.5 -9.5
t-9.5 -20.5v-280z" />
    <glyph glyph-name="dcaron" unicode="&#x10f;" 
d="M30 30v470q0 73 36 125q-36 53 -36 125h190q0 -11 9.5 -20.5t20.5 -9.5t20.5 9.5t9.5 20.5h190q0 -72 -36 -125q36 -52 36 -125v-250q0 -47 -16.5 -87.5t-46 -70t-70 -46t-87.5 -16.5h-220zM220 220h30q11 0 20.5 9.5t9.5 20.5v250q0 11 -9.5 20.5t-20.5 9.5t-20.5 -9.5
t-9.5 -20.5v-280z" />
    <glyph glyph-name="Dcroat" unicode="&#x110;" 
d="M30 30v690h220q47 0 87.5 -16.5t70 -46t46 -70t16.5 -87.5v-250q0 -47 -16.5 -87.5t-46 -70t-70 -46t-87.5 -16.5h-220zM220 280v-60h30q11 0 20.5 9.5t9.5 20.5v250q0 11 -9.5 20.5t-20.5 9.5h-30v-60h30v-190h-30z" />
    <glyph glyph-name="dcroat" unicode="&#x111;" 
d="M30 30v690h220q47 0 87.5 -16.5t70 -46t46 -70t16.5 -87.5v-250q0 -47 -16.5 -87.5t-46 -70t-70 -46t-87.5 -16.5h-220zM220 280v-60h30q11 0 20.5 9.5t9.5 20.5v250q0 11 -9.5 20.5t-20.5 9.5h-30v-60h30v-190h-30z" />
    <glyph glyph-name="Emacron" unicode="&#x112;" 
d="M30 250q0 47 16.5 87.5t46 70t70 46t87.5 16.5t87.5 -16.5t70 -46t46 -70t16.5 -87.5v-220h-250v-30h-190v250zM30 530v190h440v-190h-440zM220 220h60v30q0 11 -9.5 20.5t-20.5 9.5t-20.5 -9.5t-9.5 -20.5v-30z" />
    <glyph glyph-name="emacron" unicode="&#x113;" 
d="M30 250q0 47 16.5 87.5t46 70t70 46t87.5 16.5t87.5 -16.5t70 -46t46 -70t16.5 -87.5v-220h-250v-30h-190v250zM30 530v190h440v-190h-440zM220 220h60v30q0 11 -9.5 20.5t-20.5 9.5t-20.5 -9.5t-9.5 -20.5v-30z" />
    <glyph glyph-name="Ebreve" unicode="&#x114;" 
d="M220 750q0 -11 9.5 -20.5t20.5 -9.5t20.5 9.5t9.5 20.5h190q0 -72 -36 -125q36 -52 36 -125h-190q0 11 -9.5 20.5t-20.5 9.5t-20.5 -9.5t-9.5 -20.5v-30h250v-190h-250v-60h250v-190h-440v470q0 73 36 125q-36 53 -36 125h190z" />
    <glyph glyph-name="ebreve" unicode="&#x115;" 
d="M220 750q0 -11 9.5 -20.5t20.5 -9.5t20.5 9.5t9.5 20.5h190q0 -72 -36 -125q36 -52 36 -125h-190q0 11 -9.5 20.5t-20.5 9.5t-20.5 -9.5t-9.5 -20.5v-30h250v-190h-250v-60h250v-190h-440v470q0 73 36 125q-36 53 -36 125h190z" />
    <glyph glyph-name="Edotaccent" unicode="&#x116;" 
d="M280 720v30h190v-220h-250v-60h250v-190h-250v-60h250v-190h-440v690h250z" />
    <glyph glyph-name="edotaccent" unicode="&#x117;" 
d="M280 720v30h190v-220h-250v-60h250v-190h-250v-60h250v-190h-440v690h250z" />
    <glyph glyph-name="Eogonek" unicode="&#x118;" 
d="M30 720h440v-190h-250v-60h250v-190h-250v-30q0 -11 9.5 -20.5t20.5 -9.5h220v-190h-220q-11 0 -20.5 -9.5t-9.5 -20.5h-190q0 73 36 125q-36 53 -36 125v470z" />
    <glyph glyph-name="eogonek" unicode="&#x119;" 
d="M30 720h440v-190h-250v-60h250v-190h-250v-30q0 -11 9.5 -20.5t20.5 -9.5h220v-190h-220q-11 0 -20.5 -9.5t-9.5 -20.5h-190q0 73 36 125q-36 53 -36 125v470z" />
    <glyph glyph-name="Ecaron" unicode="&#x11a;" 
d="M220 750q0 -11 9.5 -20.5t20.5 -9.5t20.5 9.5t9.5 20.5h190q0 -72 -36 -125q36 -52 36 -125h-190q0 11 -9.5 20.5t-20.5 9.5t-20.5 -9.5t-9.5 -20.5v-30h250v-190h-250v-60h250v-190h-440v470q0 73 36 125q-36 53 -36 125h190z" />
    <glyph glyph-name="ecaron" unicode="&#x11b;" 
d="M220 750q0 -11 9.5 -20.5t20.5 -9.5t20.5 9.5t9.5 20.5h190q0 -72 -36 -125q36 -52 36 -125h-190q0 11 -9.5 20.5t-20.5 9.5t-20.5 -9.5t-9.5 -20.5v-30h250v-190h-250v-60h250v-190h-440v470q0 73 36 125q-36 53 -36 125h190z" />
    <glyph glyph-name="Gcircumflex" unicode="&#x11c;" 
d="M30 250q0 47 16.5 87.5t46 70t70 46t87.5 16.5h220v-190h-220q-11 0 -20.5 -9.5t-9.5 -20.5t9.5 -20.5t20.5 -9.5h30v30h190v-220h-220q-47 0 -87.5 16.5t-70 46t-46 70t-16.5 87.5zM30 500q0 47 16.5 87.5t46 70t70 46t87.5 16.5t87.5 -16.5t70 -46t46 -70t16.5 -87.5
h-190q0 11 -9.5 20.5t-20.5 9.5t-20.5 -9.5t-9.5 -20.5h-190z" />
    <glyph glyph-name="gcircumflex" unicode="&#x11d;" 
d="M30 250q0 47 16.5 87.5t46 70t70 46t87.5 16.5h220v-190h-220q-11 0 -20.5 -9.5t-9.5 -20.5t9.5 -20.5t20.5 -9.5h30v30h190v-220h-220q-47 0 -87.5 16.5t-70 46t-46 70t-16.5 87.5zM30 500q0 47 16.5 87.5t46 70t70 46t87.5 16.5t87.5 -16.5t70 -46t46 -70t16.5 -87.5
h-190q0 11 -9.5 20.5t-20.5 9.5t-20.5 -9.5t-9.5 -20.5h-190z" />
    <glyph glyph-name="Gbreve" unicode="&#x11e;" 
d="M220 750q0 -11 9.5 -20.5t20.5 -9.5t20.5 9.5t9.5 20.5h190q0 -72 -36 -125q36 -52 36 -125h-190q0 11 -9.5 20.5t-20.5 9.5t-20.5 -9.5t-9.5 -20.5v-250q0 -11 9.5 -20.5t20.5 -9.5t20.5 9.5t9.5 20.5v30h-30v190h220v-220q0 -47 -16.5 -87.5t-46 -70t-70 -46
t-87.5 -16.5t-87.5 16.5t-70 46t-46 70t-16.5 87.5v250q0 73 36 125q-36 53 -36 125h190z" />
    <glyph glyph-name="gbreve" unicode="&#x11f;" 
d="M220 750q0 -11 9.5 -20.5t20.5 -9.5t20.5 9.5t9.5 20.5h190q0 -72 -36 -125q36 -52 36 -125h-190q0 11 -9.5 20.5t-20.5 9.5t-20.5 -9.5t-9.5 -20.5v-250q0 -11 9.5 -20.5t20.5 -9.5t20.5 9.5t9.5 20.5v30h-30v190h220v-220q0 -47 -16.5 -87.5t-46 -70t-70 -46
t-87.5 -16.5t-87.5 16.5t-70 46t-46 70t-16.5 87.5v250q0 73 36 125q-36 53 -36 125h190z" />
    <glyph glyph-name="Gdotaccent" unicode="&#x120;" 
d="M30 500q0 47 16.5 87.5t46 70t70 46t87.5 16.5q11 0 20.5 9.5t9.5 20.5h190q0 -72 -36 -125q36 -52 36 -125h-190q0 11 -9.5 20.5t-20.5 9.5t-20.5 -9.5t-9.5 -20.5v-250q0 -11 9.5 -20.5t20.5 -9.5t20.5 9.5t9.5 20.5v30h-30v190h220v-220q0 -47 -16.5 -87.5t-46 -70
t-70 -46t-87.5 -16.5t-87.5 16.5t-70 46t-46 70t-16.5 87.5v250z" />
    <glyph glyph-name="gdotaccent" unicode="&#x121;" 
d="M30 500q0 47 16.5 87.5t46 70t70 46t87.5 16.5q11 0 20.5 9.5t9.5 20.5h190q0 -72 -36 -125q36 -52 36 -125h-190q0 11 -9.5 20.5t-20.5 9.5t-20.5 -9.5t-9.5 -20.5v-250q0 -11 9.5 -20.5t20.5 -9.5t20.5 9.5t9.5 20.5v30h-30v190h220v-220q0 -47 -16.5 -87.5t-46 -70
t-70 -46t-87.5 -16.5t-87.5 16.5t-70 46t-46 70t-16.5 87.5v250z" />
    <glyph glyph-name="uni0122" unicode="&#x122;" 
d="M30 0q0 73 36 125q-36 53 -36 125v250q0 47 16.5 87.5t46 70t70 46t87.5 16.5t87.5 -16.5t70 -46t46 -70t16.5 -87.5h-190q0 11 -9.5 20.5t-20.5 9.5t-20.5 -9.5t-9.5 -20.5v-250q0 -11 9.5 -20.5t20.5 -9.5t20.5 9.5t9.5 20.5v30h-30v190h220v-220q0 -47 -16.5 -87.5
t-46 -70t-70 -46t-87.5 -16.5q-11 0 -20.5 -9.5t-9.5 -20.5h-190z" />
    <glyph glyph-name="uni0123" unicode="&#x123;" 
d="M30 0q0 73 36 125q-36 53 -36 125v250q0 47 16.5 87.5t46 70t70 46t87.5 16.5t87.5 -16.5t70 -46t46 -70t16.5 -87.5h-190q0 11 -9.5 20.5t-20.5 9.5t-20.5 -9.5t-9.5 -20.5v-250q0 -11 9.5 -20.5t20.5 -9.5t20.5 9.5t9.5 20.5v30h-30v190h220v-220q0 -47 -16.5 -87.5
t-46 -70t-70 -46t-87.5 -16.5q-11 0 -20.5 -9.5t-9.5 -20.5h-190z" />
    <glyph glyph-name="Hcircumflex" unicode="&#x124;" 
d="M220 470v-250h60v250h190v-470h-190v30h-60v-30h-190v470h190zM30 500q0 47 16.5 87.5t46 70t70 46t87.5 16.5t87.5 -16.5t70 -46t46 -70t16.5 -87.5h-190q0 11 -9.5 20.5t-20.5 9.5t-20.5 -9.5t-9.5 -20.5h-190z" />
    <glyph glyph-name="hcircumflex" unicode="&#x125;" 
d="M220 470v-250h60v250h190v-470h-190v30h-60v-30h-190v470h190zM30 500q0 47 16.5 87.5t46 70t70 46t87.5 16.5t87.5 -16.5t70 -46t46 -70t16.5 -87.5h-190q0 11 -9.5 20.5t-20.5 9.5t-20.5 -9.5t-9.5 -20.5h-190z" />
    <glyph glyph-name="Hbar" unicode="&#x126;" 
d="M220 750v-30h60v30h190v-720h-190v250h-60v-250h-190v720h190zM220 470h60v60h-60v-60z" />
    <glyph glyph-name="hbar" unicode="&#x127;" 
d="M220 750v-30h60v30h190v-720h-190v250h-60v-250h-190v720h190zM220 470h60v60h-60v-60z" />
    <glyph glyph-name="Itilde" unicode="&#x128;" 
d="M345 500v-470h-190v470h190zM125 530v190h250v-190h-250z" />
    <glyph glyph-name="itilde" unicode="&#x129;" 
d="M345 500v-470h-190v470h190zM125 530v190h250v-190h-250z" />
    <glyph glyph-name="Imacron" unicode="&#x12a;" 
d="M345 500v-470h-190v470h190zM125 530v190h250v-190h-250z" />
    <glyph glyph-name="imacron" unicode="&#x12b;" 
d="M345 500v-470h-190v470h190zM125 530v190h250v-190h-250z" />
    <glyph glyph-name="Ibreve" unicode="&#x12c;" 
d="M345 500v-470h-190v470q0 11 -9.5 20.5t-20.5 9.5v190q73 0 125 -36q53 36 125 36v-190q-11 0 -20.5 -9.5t-9.5 -20.5z" />
    <glyph glyph-name="ibreve" unicode="&#x12d;" 
d="M345 500v-470h-190v470q0 11 -9.5 20.5t-20.5 9.5v190q73 0 125 -36q53 36 125 36v-190q-11 0 -20.5 -9.5t-9.5 -20.5z" />
    <glyph glyph-name="Iogonek" unicode="&#x12e;" 
d="M345 720v-720h-190v720h190z" />
    <glyph glyph-name="iogonek" unicode="&#x12f;" 
d="M345 720v-720h-190v720h190z" />
    <glyph glyph-name="Idotaccent" unicode="&#x130;" 
d="M345 500v-470h-190v470h190zM155 530v220h190v-220h-190z" />
    <glyph glyph-name="dotlessi" unicode="&#x131;" 
d="M65 30v190h90v310h-90v190h370v-190h-90v-310h90v-190h-370z" />
    <glyph glyph-name="Jcircumflex" unicode="&#x134;" 
d="M30 250h190q0 -11 9.5 -20.5t20.5 -9.5t20.5 9.5t9.5 20.5v250h190v-250q0 -47 -16.5 -87.5t-46 -70t-70 -46t-87.5 -16.5t-87.5 16.5t-70 46t-46 70t-16.5 87.5zM250 720q11 0 20.5 9.5t9.5 20.5h190q0 -11 9.5 -20.5t20.5 -9.5v-190q-72 0 -125 36q-52 -36 -125 -36
v190z" />
    <glyph glyph-name="jcircumflex" unicode="&#x135;" 
d="M30 250h190q0 -11 9.5 -20.5t20.5 -9.5t20.5 9.5t9.5 20.5v250h190v-250q0 -47 -16.5 -87.5t-46 -70t-70 -46t-87.5 -16.5t-87.5 16.5t-70 46t-46 70t-16.5 87.5zM250 720q11 0 20.5 9.5t9.5 20.5h190q0 -11 9.5 -20.5t20.5 -9.5v-190q-72 0 -125 36q-52 -36 -125 -36
v190z" />
    <glyph glyph-name="uni0136" unicode="&#x136;" 
d="M220 720v-250h30q11 0 20.5 9.5t9.5 20.5v220h190v-220q0 -72 -36 -125q36 -52 36 -125v-220h-220v190h30v30q0 11 -9.5 20.5t-20.5 9.5h-30v-250h-190v690h190z" />
    <glyph glyph-name="uni0137" unicode="&#x137;" 
d="M220 720v-250h30q11 0 20.5 9.5t9.5 20.5v220h190v-220q0 -72 -36 -125q36 -52 36 -125v-220h-220v190h30v30q0 11 -9.5 20.5t-20.5 9.5h-30v-250h-190v690h190z" />
    <glyph glyph-name="kgreenlandic" unicode="&#x138;" 
d="M220 720v-250h30q11 0 20.5 9.5t9.5 20.5v220h190v-220q0 -72 -36 -125q36 -52 36 -125v-220h-190v220q0 11 -9.5 20.5t-20.5 9.5h-30v-250h-190v690h190z" />
    <glyph glyph-name="Lacute" unicode="&#x139;" 
d="M220 720v-500h250v-190h-440v690h190zM250 720q11 0 20.5 9.5t9.5 20.5h190q0 -47 -16.5 -87.5t-46 -70t-70 -46t-87.5 -16.5v190z" />
    <glyph glyph-name="lacute" unicode="&#x13a;" 
d="M220 720v-500h250v-190h-440v690h190zM250 720q11 0 20.5 9.5t9.5 20.5h190q0 -47 -16.5 -87.5t-46 -70t-70 -46t-87.5 -16.5v190z" />
    <glyph glyph-name="uni013B" unicode="&#x13b;" 
d="M220 720v-470q0 -11 9.5 -20.5t20.5 -9.5h220v-190h-220q-11 0 -20.5 -9.5t-9.5 -20.5h-190q0 73 36 125q-36 53 -36 125v470h190z" />
    <glyph glyph-name="uni013C" unicode="&#x13c;" 
d="M220 720v-470q0 -11 9.5 -20.5t20.5 -9.5h220v-190h-220q-11 0 -20.5 -9.5t-9.5 -20.5h-190q0 73 36 125q-36 53 -36 125v470h190z" />
    <glyph glyph-name="Lcaron" unicode="&#x13d;" 
d="M220 720v-500h250v-190h-440v690h190zM280 500v220h190v-220h-190z" />
    <glyph glyph-name="lcaron" unicode="&#x13e;" 
d="M220 720v-500h250v-190h-440v690h190zM280 500v220h190v-220h-190z" />
    <glyph glyph-name="Ldot" unicode="&#x13f;" 
d="M30 720h190v-500h250v-190h-440v690zM280 500h190v-220h-190v220z" />
    <glyph glyph-name="ldot" unicode="&#x140;" 
d="M30 720h190v-500h250v-190h-440v690zM280 500h190v-220h-190v220z" />
    <glyph glyph-name="Lslash" unicode="&#x141;" 
d="M220 720v-250h130v-190h-130v-60h250v-190h-440v690h190z" />
    <glyph glyph-name="lslash" unicode="&#x142;" 
d="M220 720v-250h130v-190h-130v-60h250v-190h-440v690h190z" />
    <glyph glyph-name="Nacute" unicode="&#x143;" 
d="M250 720q11 0 20.5 9.5t9.5 20.5h190q0 -72 -36 -125q36 -52 36 -125v-470h-190v470q0 11 -9.5 20.5t-20.5 9.5h-30v-500h-190v690h220z" />
    <glyph glyph-name="nacute" unicode="&#x144;" 
d="M250 720q11 0 20.5 9.5t9.5 20.5h190q0 -72 -36 -125q36 -52 36 -125v-470h-190v470q0 11 -9.5 20.5t-20.5 9.5h-30v-500h-190v690h220z" />
    <glyph glyph-name="uni0145" unicode="&#x145;" 
d="M250 720q47 0 87.5 -16.5t70 -46t46 -70t16.5 -87.5v-470h-220v190h30v280q0 11 -9.5 20.5t-20.5 9.5h-30v-500h-190v690h220z" />
    <glyph glyph-name="uni0146" unicode="&#x146;" 
d="M250 720q47 0 87.5 -16.5t70 -46t46 -70t16.5 -87.5v-470h-220v190h30v280q0 11 -9.5 20.5t-20.5 9.5h-30v-500h-190v690h220z" />
    <glyph glyph-name="Ncaron" unicode="&#x147;" 
d="M66 625q-36 53 -36 125h190q0 -11 9.5 -20.5t20.5 -9.5t20.5 9.5t9.5 20.5h190q0 -72 -36 -125q36 -52 36 -125v-470h-190v470q0 11 -9.5 20.5t-20.5 9.5t-20.5 -9.5t-9.5 -20.5v-470h-190v470q0 73 36 125z" />
    <glyph glyph-name="ncaron" unicode="&#x148;" 
d="M66 625q-36 53 -36 125h190q0 -11 9.5 -20.5t20.5 -9.5t20.5 9.5t9.5 20.5h190q0 -72 -36 -125q36 -52 36 -125v-470h-190v470q0 11 -9.5 20.5t-20.5 9.5t-20.5 -9.5t-9.5 -20.5v-470h-190v470q0 73 36 125z" />
    <glyph glyph-name="napostrophe" unicode="&#x149;" 
d="M30 750h190v-30h30q47 0 87.5 -16.5t70 -46t46 -70t16.5 -87.5v-470h-190v470q0 11 -9.5 20.5t-20.5 9.5h-30v-500h-190v720z" />
    <glyph glyph-name="Eng" unicode="&#x14a;" 
d="M30 30v690h220q47 0 87.5 -16.5t70 -46t46 -70t16.5 -87.5v-250q0 -47 -16.5 -87.5t-46 -70t-70 -46t-87.5 -16.5v190q11 0 20.5 9.5t9.5 20.5v250q0 11 -9.5 20.5t-20.5 9.5h-30v-500h-190z" />
    <glyph glyph-name="eng" unicode="&#x14b;" 
d="M30 30v690h220q47 0 87.5 -16.5t70 -46t46 -70t16.5 -87.5v-250q0 -47 -16.5 -87.5t-46 -70t-70 -46t-87.5 -16.5v190q11 0 20.5 9.5t9.5 20.5v250q0 11 -9.5 20.5t-20.5 9.5h-30v-500h-190z" />
    <glyph glyph-name="Omacron" unicode="&#x14c;" 
d="M30 250q0 47 16.5 87.5t46 70t70 46t87.5 16.5t87.5 -16.5t70 -46t46 -70t16.5 -87.5t-16.5 -87.5t-46 -70t-70 -46t-87.5 -16.5t-87.5 16.5t-70 46t-46 70t-16.5 87.5zM30 530v190h440v-190h-440zM220 250q0 -11 9.5 -20.5t20.5 -9.5t20.5 9.5t9.5 20.5t-9.5 20.5
t-20.5 9.5t-20.5 -9.5t-9.5 -20.5z" />
    <glyph glyph-name="omacron" unicode="&#x14d;" 
d="M30 250q0 47 16.5 87.5t46 70t70 46t87.5 16.5t87.5 -16.5t70 -46t46 -70t16.5 -87.5t-16.5 -87.5t-46 -70t-70 -46t-87.5 -16.5t-87.5 16.5t-70 46t-46 70t-16.5 87.5zM30 530v190h440v-190h-440zM220 250q0 -11 9.5 -20.5t20.5 -9.5t20.5 9.5t9.5 20.5t-9.5 20.5
t-20.5 9.5t-20.5 -9.5t-9.5 -20.5z" />
    <glyph glyph-name="Obreve" unicode="&#x14e;" 
d="M66 625q-36 53 -36 125h190q0 -11 9.5 -20.5t20.5 -9.5t20.5 9.5t9.5 20.5h190q0 -72 -36 -125q36 -52 36 -125v-250q0 -47 -16.5 -87.5t-46 -70t-70 -46t-87.5 -16.5t-87.5 16.5t-70 46t-46 70t-16.5 87.5v250q0 73 36 125zM220 250q0 -11 9.5 -20.5t20.5 -9.5t20.5 9.5
t9.5 20.5v250q0 11 -9.5 20.5t-20.5 9.5t-20.5 -9.5t-9.5 -20.5v-250z" />
    <glyph glyph-name="obreve" unicode="&#x14f;" 
d="M66 625q-36 53 -36 125h190q0 -11 9.5 -20.5t20.5 -9.5t20.5 9.5t9.5 20.5h190q0 -72 -36 -125q36 -52 36 -125v-250q0 -47 -16.5 -87.5t-46 -70t-70 -46t-87.5 -16.5t-87.5 16.5t-70 46t-46 70t-16.5 87.5v250q0 73 36 125zM220 250q0 -11 9.5 -20.5t20.5 -9.5t20.5 9.5
t9.5 20.5v250q0 11 -9.5 20.5t-20.5 9.5t-20.5 -9.5t-9.5 -20.5v-250z" />
    <glyph glyph-name="Ohungarumlaut" unicode="&#x150;" 
d="M30 250q0 47 16.5 87.5t46 70t70 46t87.5 16.5t87.5 -16.5t70 -46t46 -70t16.5 -87.5t-16.5 -87.5t-46 -70t-70 -46t-87.5 -16.5t-87.5 16.5t-70 46t-46 70t-16.5 87.5zM0 720q11 0 20.5 9.5t9.5 20.5h190q0 -47 -16.5 -87.5t-46 -70t-70 -46t-87.5 -16.5v190zM250 720
q11 0 20.5 9.5t9.5 20.5h190q0 -47 -16.5 -87.5t-46 -70t-70 -46t-87.5 -16.5v190zM220 250q0 -11 9.5 -20.5t20.5 -9.5t20.5 9.5t9.5 20.5t-9.5 20.5t-20.5 9.5t-20.5 -9.5t-9.5 -20.5z" />
    <glyph glyph-name="ohungarumlaut" unicode="&#x151;" 
d="M30 250q0 47 16.5 87.5t46 70t70 46t87.5 16.5t87.5 -16.5t70 -46t46 -70t16.5 -87.5t-16.5 -87.5t-46 -70t-70 -46t-87.5 -16.5t-87.5 16.5t-70 46t-46 70t-16.5 87.5zM0 720q11 0 20.5 9.5t9.5 20.5h190q0 -47 -16.5 -87.5t-46 -70t-70 -46t-87.5 -16.5v190zM250 720
q11 0 20.5 9.5t9.5 20.5h190q0 -47 -16.5 -87.5t-46 -70t-70 -46t-87.5 -16.5v190zM220 250q0 -11 9.5 -20.5t20.5 -9.5t20.5 9.5t9.5 20.5t-9.5 20.5t-20.5 9.5t-20.5 -9.5t-9.5 -20.5z" />
    <glyph glyph-name="OE" unicode="&#x152;" 
d="M35 500q0 47 16.5 87.5t46 70t70 46t87.5 16.5h210v-190h-120v-60h120v-190h-120v-60h120v-190h-210q-47 0 -87.5 16.5t-70 46t-46 70t-16.5 87.5v250zM225 250q0 -11 9.5 -20.5t20.5 -9.5v310q-11 0 -20.5 -9.5t-9.5 -20.5v-250z" />
    <glyph glyph-name="oe" unicode="&#x153;" 
d="M35 500q0 47 16.5 87.5t46 70t70 46t87.5 16.5h210v-190h-120v-60h120v-190h-120v-60h120v-190h-210q-47 0 -87.5 16.5t-70 46t-46 70t-16.5 87.5v250zM225 250q0 -11 9.5 -20.5t20.5 -9.5v310q-11 0 -20.5 -9.5t-9.5 -20.5v-250z" />
    <glyph glyph-name="Racute" unicode="&#x154;" 
d="M30 30v690h220q11 0 20.5 9.5t9.5 20.5h190q0 -72 -36 -125q36 -52 36 -125q0 -72 -36 -125q36 -52 36 -125v-220h-190v220q0 11 -9.5 20.5t-20.5 9.5h-30v-250h-190zM250 470q11 0 20.5 9.5t9.5 20.5t-9.5 20.5t-20.5 9.5h-30v-60h30z" />
    <glyph glyph-name="racute" unicode="&#x155;" 
d="M30 30v690h220q11 0 20.5 9.5t9.5 20.5h190q0 -72 -36 -125q36 -52 36 -125q0 -72 -36 -125q36 -52 36 -125v-220h-190v220q0 11 -9.5 20.5t-20.5 9.5h-30v-250h-190zM250 470q11 0 20.5 9.5t9.5 20.5t-9.5 20.5t-20.5 9.5h-30v-60h30z" />
    <glyph glyph-name="uni0156" unicode="&#x156;" 
d="M30 30v690h220q47 0 87.5 -16.5t70 -46t46 -70t16.5 -87.5q0 -72 -36 -125q36 -52 36 -125v-220h-220v190h30v30q0 11 -9.5 20.5t-20.5 9.5h-30v-250h-190zM250 470q11 0 20.5 9.5t9.5 20.5t-9.5 20.5t-20.5 9.5h-30v-60h30z" />
    <glyph glyph-name="uni0157" unicode="&#x157;" 
d="M30 30v690h220q47 0 87.5 -16.5t70 -46t46 -70t16.5 -87.5q0 -72 -36 -125q36 -52 36 -125v-220h-220v190h30v30q0 11 -9.5 20.5t-20.5 9.5h-30v-250h-190zM250 470q11 0 20.5 9.5t9.5 20.5t-9.5 20.5t-20.5 9.5h-30v-60h30z" />
    <glyph glyph-name="Rcaron" unicode="&#x158;" 
d="M220 750q0 -11 9.5 -20.5t20.5 -9.5t20.5 9.5t9.5 20.5h190q0 -72 -36 -125q36 -52 36 -125q0 -72 -36 -125q36 -52 36 -125v-220h-190v220q0 11 -9.5 20.5t-20.5 9.5h-30v-250h-190v470q0 73 36 125q-36 53 -36 125h190zM250 470q11 0 20.5 9.5t9.5 20.5t-9.5 20.5
t-20.5 9.5t-20.5 -9.5t-9.5 -20.5v-30h30z" />
    <glyph glyph-name="rcaron" unicode="&#x159;" 
d="M220 750q0 -11 9.5 -20.5t20.5 -9.5t20.5 9.5t9.5 20.5h190q0 -72 -36 -125q36 -52 36 -125q0 -72 -36 -125q36 -52 36 -125v-220h-190v220q0 11 -9.5 20.5t-20.5 9.5h-30v-250h-190v470q0 73 36 125q-36 53 -36 125h190zM250 470q11 0 20.5 9.5t9.5 20.5t-9.5 20.5
t-20.5 9.5t-20.5 -9.5t-9.5 -20.5v-30h30z" />
    <glyph glyph-name="Sacute" unicode="&#x15a;" 
d="M30 500q0 47 16.5 87.5t46 70t70 46t87.5 16.5q11 0 20.5 9.5t9.5 20.5h190q0 -72 -36 -125q36 -52 36 -125h-190q0 11 -9.5 20.5t-20.5 9.5t-20.5 -9.5t-9.5 -20.5t9.5 -20.5t20.5 -9.5q47 0 87.5 -16.5t70 -46t46 -70t16.5 -87.5t-16.5 -87.5t-46 -70t-70 -46
t-87.5 -16.5t-87.5 16.5t-70 46t-46 70t-16.5 87.5h190q0 -11 9.5 -20.5t20.5 -9.5t20.5 9.5t9.5 20.5t-9.5 20.5t-20.5 9.5q-47 0 -87.5 16.5t-70 46t-46 70t-16.5 87.5z" />
    <glyph glyph-name="sacute" unicode="&#x15b;" 
d="M30 500q0 47 16.5 87.5t46 70t70 46t87.5 16.5q11 0 20.5 9.5t9.5 20.5h190q0 -72 -36 -125q36 -52 36 -125h-190q0 11 -9.5 20.5t-20.5 9.5t-20.5 -9.5t-9.5 -20.5t9.5 -20.5t20.5 -9.5q47 0 87.5 -16.5t70 -46t46 -70t16.5 -87.5t-16.5 -87.5t-46 -70t-70 -46
t-87.5 -16.5t-87.5 16.5t-70 46t-46 70t-16.5 87.5h190q0 -11 9.5 -20.5t20.5 -9.5t20.5 9.5t9.5 20.5t-9.5 20.5t-20.5 9.5q-47 0 -87.5 16.5t-70 46t-46 70t-16.5 87.5z" />
    <glyph glyph-name="Scircumflex" unicode="&#x15c;" 
d="M30 250q0 47 16.5 87.5t46 70t70 46t87.5 16.5t87.5 -16.5t70 -46t46 -70t16.5 -87.5h-190q0 11 -9.5 20.5t-20.5 9.5t-20.5 -9.5t-9.5 -20.5t9.5 -20.5t20.5 -9.5q47 0 87.5 -16.5t70 -46t46 -70t16.5 -87.5h-190q0 11 -9.5 20.5t-20.5 9.5q-47 0 -87.5 16.5t-70 46
t-46 70t-16.5 87.5zM30 500q0 47 16.5 87.5t46 70t70 46t87.5 16.5t87.5 -16.5t70 -46t46 -70t16.5 -87.5h-190q0 11 -9.5 20.5t-20.5 9.5t-20.5 -9.5t-9.5 -20.5h-190z" />
    <glyph glyph-name="scircumflex" unicode="&#x15d;" 
d="M30 250q0 47 16.5 87.5t46 70t70 46t87.5 16.5t87.5 -16.5t70 -46t46 -70t16.5 -87.5h-190q0 11 -9.5 20.5t-20.5 9.5t-20.5 -9.5t-9.5 -20.5t9.5 -20.5t20.5 -9.5q47 0 87.5 -16.5t70 -46t46 -70t16.5 -87.5h-190q0 11 -9.5 20.5t-20.5 9.5q-47 0 -87.5 16.5t-70 46
t-46 70t-16.5 87.5zM30 500q0 47 16.5 87.5t46 70t70 46t87.5 16.5t87.5 -16.5t70 -46t46 -70t16.5 -87.5h-190q0 11 -9.5 20.5t-20.5 9.5t-20.5 -9.5t-9.5 -20.5h-190z" />
    <glyph glyph-name="Scedilla" unicode="&#x15e;" 
d="M220 250q0 -11 9.5 -20.5t20.5 -9.5t20.5 9.5t9.5 20.5t-9.5 20.5t-20.5 9.5q-47 0 -87.5 16.5t-70 46t-46 70t-16.5 87.5t16.5 87.5t46 70t70 46t87.5 16.5t87.5 -16.5t70 -46t46 -70t16.5 -87.5h-190q0 11 -9.5 20.5t-20.5 9.5t-20.5 -9.5t-9.5 -20.5t9.5 -20.5
t20.5 -9.5q47 0 87.5 -16.5t70 -46t46 -70t16.5 -87.5t-16.5 -87.5t-46 -70t-70 -46t-87.5 -16.5q-11 0 -20.5 -9.5t-9.5 -20.5h-190q0 73 36 125q-36 53 -36 125h190z" />
    <glyph glyph-name="scedilla" unicode="&#x15f;" 
d="M220 250q0 -11 9.5 -20.5t20.5 -9.5t20.5 9.5t9.5 20.5t-9.5 20.5t-20.5 9.5q-47 0 -87.5 16.5t-70 46t-46 70t-16.5 87.5t16.5 87.5t46 70t70 46t87.5 16.5t87.5 -16.5t70 -46t46 -70t16.5 -87.5h-190q0 11 -9.5 20.5t-20.5 9.5t-20.5 -9.5t-9.5 -20.5t9.5 -20.5
t20.5 -9.5q47 0 87.5 -16.5t70 -46t46 -70t16.5 -87.5t-16.5 -87.5t-46 -70t-70 -46t-87.5 -16.5q-11 0 -20.5 -9.5t-9.5 -20.5h-190q0 73 36 125q-36 53 -36 125h190z" />
    <glyph glyph-name="Scaron" unicode="&#x160;" 
d="M66 625q-36 53 -36 125h190q0 -11 9.5 -20.5t20.5 -9.5t20.5 9.5t9.5 20.5h190q0 -72 -36 -125q36 -52 36 -125h-190q0 11 -9.5 20.5t-20.5 9.5t-20.5 -9.5t-9.5 -20.5t9.5 -20.5t20.5 -9.5q47 0 87.5 -16.5t70 -46t46 -70t16.5 -87.5t-16.5 -87.5t-46 -70t-70 -46
t-87.5 -16.5t-87.5 16.5t-70 46t-46 70t-16.5 87.5h190q0 -11 9.5 -20.5t20.5 -9.5t20.5 9.5t9.5 20.5t-9.5 20.5t-20.5 9.5q-47 0 -87.5 16.5t-70 46t-46 70t-16.5 87.5q0 73 36 125z" />
    <glyph glyph-name="scaron" unicode="&#x161;" 
d="M66 625q-36 53 -36 125h190q0 -11 9.5 -20.5t20.5 -9.5t20.5 9.5t9.5 20.5h190q0 -72 -36 -125q36 -52 36 -125h-190q0 11 -9.5 20.5t-20.5 9.5t-20.5 -9.5t-9.5 -20.5t9.5 -20.5t20.5 -9.5q47 0 87.5 -16.5t70 -46t46 -70t16.5 -87.5t-16.5 -87.5t-46 -70t-70 -46
t-87.5 -16.5t-87.5 16.5t-70 46t-46 70t-16.5 87.5h190q0 -11 9.5 -20.5t20.5 -9.5t20.5 9.5t9.5 20.5t-9.5 20.5t-20.5 9.5q-47 0 -87.5 16.5t-70 46t-46 70t-16.5 87.5q0 73 36 125z" />
    <glyph glyph-name="uni0162" unicode="&#x162;" 
d="M25 720h450v-190h-130v-530h-190v530h-130v190z" />
    <glyph glyph-name="uni0163" unicode="&#x163;" 
d="M25 720h450v-190h-130v-530h-190v530h-130v190z" />
    <glyph glyph-name="Tcaron" unicode="&#x164;" 
d="M25 280v190h450v-190h-130v-250h-190v250h-130zM125 720q73 0 125 -36q53 36 125 36v-190q-11 0 -20.5 -9.5t-9.5 -20.5h-190q0 11 -9.5 20.5t-20.5 9.5v190z" />
    <glyph glyph-name="tcaron" unicode="&#x165;" 
d="M25 280v190h450v-190h-130v-250h-190v250h-130zM125 720q73 0 125 -36q53 36 125 36v-190q-11 0 -20.5 -9.5t-9.5 -20.5h-190q0 11 -9.5 20.5t-20.5 9.5v190z" />
    <glyph glyph-name="Tbar" unicode="&#x166;" 
d="M25 720h450v-190h-130v-60h100v-190h-100v-250h-190v250h-100v190h100v60h-130v190z" />
    <glyph glyph-name="tbar" unicode="&#x167;" 
d="M25 720h450v-190h-130v-60h100v-190h-100v-250h-190v250h-100v190h100v60h-130v190z" />
    <glyph glyph-name="Utilde" unicode="&#x168;" 
d="M30 500h190v-250q0 -11 9.5 -20.5t20.5 -9.5t20.5 9.5t9.5 20.5v250h190v-250q0 -47 -16.5 -87.5t-46 -70t-70 -46t-87.5 -16.5t-87.5 16.5t-70 46t-46 70t-16.5 87.5v250zM30 720h440v-190h-440v190z" />
    <glyph glyph-name="utilde" unicode="&#x169;" 
d="M30 500h190v-250q0 -11 9.5 -20.5t20.5 -9.5t20.5 9.5t9.5 20.5v250h190v-250q0 -47 -16.5 -87.5t-46 -70t-70 -46t-87.5 -16.5t-87.5 16.5t-70 46t-46 70t-16.5 87.5v250zM30 720h440v-190h-440v190z" />
    <glyph glyph-name="Umacron" unicode="&#x16a;" 
d="M30 500h190v-250q0 -11 9.5 -20.5t20.5 -9.5t20.5 9.5t9.5 20.5v250h190v-250q0 -47 -16.5 -87.5t-46 -70t-70 -46t-87.5 -16.5t-87.5 16.5t-70 46t-46 70t-16.5 87.5v250zM30 720h440v-190h-440v190z" />
    <glyph glyph-name="umacron" unicode="&#x16b;" 
d="M30 500h190v-250q0 -11 9.5 -20.5t20.5 -9.5t20.5 9.5t9.5 20.5v250h190v-250q0 -47 -16.5 -87.5t-46 -70t-70 -46t-87.5 -16.5t-87.5 16.5t-70 46t-46 70t-16.5 87.5v250zM30 720h440v-190h-440v190z" />
    <glyph glyph-name="Ubreve" unicode="&#x16c;" 
d="M220 500v-250q0 -11 9.5 -20.5t20.5 -9.5t20.5 9.5t9.5 20.5v250h190v-250q0 -47 -16.5 -87.5t-46 -70t-70 -46t-87.5 -16.5t-87.5 16.5t-70 46t-46 70t-16.5 87.5v250h190zM220 750q0 -11 9.5 -20.5t20.5 -9.5t20.5 9.5t9.5 20.5h190q0 -47 -16.5 -87.5t-46 -70t-70 -46
t-87.5 -16.5t-87.5 16.5t-70 46t-46 70t-16.5 87.5h190z" />
    <glyph glyph-name="ubreve" unicode="&#x16d;" 
d="M220 500v-250q0 -11 9.5 -20.5t20.5 -9.5t20.5 9.5t9.5 20.5v250h190v-250q0 -47 -16.5 -87.5t-46 -70t-70 -46t-87.5 -16.5t-87.5 16.5t-70 46t-46 70t-16.5 87.5v250h190zM220 750q0 -11 9.5 -20.5t20.5 -9.5t20.5 9.5t9.5 20.5h190q0 -47 -16.5 -87.5t-46 -70t-70 -46
t-87.5 -16.5t-87.5 16.5t-70 46t-46 70t-16.5 87.5h190z" />
    <glyph glyph-name="Uring" unicode="&#x16e;" 
d="M30 500q0 47 16.5 87.5t46 70t70 46t87.5 16.5t87.5 -16.5t70 -46t46 -70t16.5 -87.5t-16.5 -87.5t-46 -70t-70 -46t-87.5 -16.5t-87.5 16.5t-70 46t-46 70t-16.5 87.5zM30 250h190q0 -11 9.5 -20.5t20.5 -9.5t20.5 9.5t9.5 20.5h190q0 -47 -16.5 -87.5t-46 -70t-70 -46
t-87.5 -16.5t-87.5 16.5t-70 46t-46 70t-16.5 87.5zM220 500q0 -11 9.5 -20.5t20.5 -9.5t20.5 9.5t9.5 20.5t-9.5 20.5t-20.5 9.5t-20.5 -9.5t-9.5 -20.5z" />
    <glyph glyph-name="uring" unicode="&#x16f;" 
d="M30 500q0 47 16.5 87.5t46 70t70 46t87.5 16.5t87.5 -16.5t70 -46t46 -70t16.5 -87.5t-16.5 -87.5t-46 -70t-70 -46t-87.5 -16.5t-87.5 16.5t-70 46t-46 70t-16.5 87.5zM30 250h190q0 -11 9.5 -20.5t20.5 -9.5t20.5 9.5t9.5 20.5h190q0 -47 -16.5 -87.5t-46 -70t-70 -46
t-87.5 -16.5t-87.5 16.5t-70 46t-46 70t-16.5 87.5zM220 500q0 -11 9.5 -20.5t20.5 -9.5t20.5 9.5t9.5 20.5t-9.5 20.5t-20.5 9.5t-20.5 -9.5t-9.5 -20.5z" />
    <glyph glyph-name="Uhungarumlaut" unicode="&#x170;" 
d="M220 500v-250q0 -11 9.5 -20.5t20.5 -9.5t20.5 9.5t9.5 20.5v250h190v-250q0 -47 -16.5 -87.5t-46 -70t-70 -46t-87.5 -16.5t-87.5 16.5t-70 46t-46 70t-16.5 87.5v250h190zM250 720q11 0 20.5 9.5t9.5 20.5h190q0 -47 -16.5 -87.5t-46 -70t-70 -46t-87.5 -16.5v190z
M0 720q11 0 20.5 9.5t9.5 20.5h190q0 -47 -16.5 -87.5t-46 -70t-70 -46t-87.5 -16.5v190z" />
    <glyph glyph-name="uhungarumlaut" unicode="&#x171;" 
d="M220 500v-250q0 -11 9.5 -20.5t20.5 -9.5t20.5 9.5t9.5 20.5v250h190v-250q0 -47 -16.5 -87.5t-46 -70t-70 -46t-87.5 -16.5t-87.5 16.5t-70 46t-46 70t-16.5 87.5v250h190zM250 720q11 0 20.5 9.5t9.5 20.5h190q0 -47 -16.5 -87.5t-46 -70t-70 -46t-87.5 -16.5v190z
M0 720q11 0 20.5 9.5t9.5 20.5h190q0 -47 -16.5 -87.5t-46 -70t-70 -46t-87.5 -16.5v190z" />
    <glyph glyph-name="Uogonek" unicode="&#x172;" 
d="M30 720h190v-470q0 -11 9.5 -20.5t20.5 -9.5t20.5 9.5t9.5 20.5v470h190v-470q0 -47 -16.5 -87.5t-46 -70t-70 -46t-87.5 -16.5q-11 0 -20.5 -9.5t-9.5 -20.5h-190q0 73 36 125q-36 53 -36 125v470z" />
    <glyph glyph-name="uogonek" unicode="&#x173;" 
d="M30 720h190v-470q0 -11 9.5 -20.5t20.5 -9.5t20.5 9.5t9.5 20.5v470h190v-470q0 -47 -16.5 -87.5t-46 -70t-70 -46t-87.5 -16.5q-11 0 -20.5 -9.5t-9.5 -20.5h-190q0 73 36 125q-36 53 -36 125v470z" />
    <glyph glyph-name="Wcircumflex" unicode="&#x174;" 
d="M175 520v-270q0 -11 -0.5 -20.5t10.5 -9.5t10.5 9.5t-0.5 20.5v270h110v-270q0 -11 -0.5 -20.5t10.5 -9.5t10.5 9.5t-0.5 20.5v270h160v-330q0 -72 -34 -116t-106 -44q-29 0 -49 9t-46 27q-26 -18 -46 -27t-49 -9q-72 0 -106 44t-34 116v330h160zM125 720q11 0 20.5 9.5
t9.5 20.5h190q0 -11 9.5 -20.5t20.5 -9.5v-190q-72 0 -125 36q-52 -36 -125 -36v190z" />
    <glyph glyph-name="wcircumflex" unicode="&#x175;" 
d="M175 520v-270q0 -11 -0.5 -20.5t10.5 -9.5t10.5 9.5t-0.5 20.5v270h110v-270q0 -11 -0.5 -20.5t10.5 -9.5t10.5 9.5t-0.5 20.5v270h160v-330q0 -72 -34 -116t-106 -44q-29 0 -49 9t-46 27q-26 -18 -46 -27t-49 -9q-72 0 -106 44t-34 116v330h160zM125 720q11 0 20.5 9.5
t9.5 20.5h190q0 -11 9.5 -20.5t20.5 -9.5v-190q-72 0 -125 36q-52 -36 -125 -36v190z" />
    <glyph glyph-name="Ycircumflex" unicode="&#x176;" 
d="M30 470h190v-220q0 -11 9.5 -20.5t20.5 -9.5h30v250h190v-470h-190v30h-30q-47 0 -87.5 16.5t-70 46t-46 70t-16.5 87.5v220zM30 500q0 47 16.5 87.5t46 70t70 46t87.5 16.5t87.5 -16.5t70 -46t46 -70t16.5 -87.5h-190q0 11 -9.5 20.5t-20.5 9.5t-20.5 -9.5t-9.5 -20.5
h-190z" />
    <glyph glyph-name="ycircumflex" unicode="&#x177;" 
d="M30 470h190v-220q0 -11 9.5 -20.5t20.5 -9.5h30v250h190v-470h-190v30h-30q-47 0 -87.5 16.5t-70 46t-46 70t-16.5 87.5v220zM30 500q0 47 16.5 87.5t46 70t70 46t87.5 16.5t87.5 -16.5t70 -46t46 -70t16.5 -87.5h-190q0 11 -9.5 20.5t-20.5 9.5t-20.5 -9.5t-9.5 -20.5
h-190z" />
    <glyph glyph-name="Ydieresis" unicode="&#x178;" 
d="M220 470v-220q0 -11 9.5 -20.5t20.5 -9.5h30v250h190v-470h-190v30h-30q-47 0 -87.5 16.5t-70 46t-46 70t-16.5 87.5v220h190zM280 500v220h190v-220h-190zM220 720v-220h-190v220h190z" />
    <glyph glyph-name="Zacute" unicode="&#x179;" 
d="M30 530v190h220q11 0 20.5 9.5t9.5 20.5h190q0 -72 -36 -125q36 -52 36 -125q0 -47 -16.5 -87.5t-46 -70t-70 -46t-87.5 -16.5q-11 0 -20.5 -9.5t-9.5 -20.5v-30h250v-190h-440v220q0 47 16.5 87.5t46 70t70 46t87.5 16.5q11 0 20.5 9.5t9.5 20.5t-9.5 20.5t-20.5 9.5
h-220z" />
    <glyph glyph-name="zacute" unicode="&#x17a;" 
d="M30 530v190h220q11 0 20.5 9.5t9.5 20.5h190q0 -72 -36 -125q36 -52 36 -125q0 -47 -16.5 -87.5t-46 -70t-70 -46t-87.5 -16.5q-11 0 -20.5 -9.5t-9.5 -20.5v-30h250v-190h-440v220q0 47 16.5 87.5t46 70t70 46t87.5 16.5q11 0 20.5 9.5t9.5 20.5t-9.5 20.5t-20.5 9.5
h-220z" />
    <glyph glyph-name="Zdotaccent" unicode="&#x17b;" 
d="M30 250q0 48 16.5 88t46 69.5t70 46t87.5 16.5q11 0 20.5 9.5t9.5 20.5v30h-250v220h190v-30h250v-220q0 -47 -16.5 -87.5t-46 -70t-70 -46t-87.5 -16.5q-11 0 -20.5 -9.5t-9.5 -20.5v-30h250v-190h-440v220z" />
    <glyph glyph-name="zdotaccent" unicode="&#x17c;" 
d="M30 250q0 48 16.5 88t46 69.5t70 46t87.5 16.5q11 0 20.5 9.5t9.5 20.5v30h-250v220h190v-30h250v-220q0 -47 -16.5 -87.5t-46 -70t-70 -46t-87.5 -16.5q-11 0 -20.5 -9.5t-9.5 -20.5v-30h250v-190h-440v220z" />
    <glyph glyph-name="Zcaron" unicode="&#x17d;" 
d="M66 625q-36 53 -36 125h190q0 -11 9.5 -20.5t20.5 -9.5t20.5 9.5t9.5 20.5h190q0 -72 -36 -125q36 -52 36 -125q0 -47 -16.5 -87.5t-46 -70t-70 -46t-87.5 -16.5q-11 0 -20.5 -9.5t-9.5 -20.5v-30h250v-190h-440v220q0 47 16.5 87.5t46 70t70 46t87.5 16.5q11 0 20.5 9.5
t9.5 20.5t-9.5 20.5t-20.5 9.5t-20.5 -9.5t-9.5 -20.5h-190q0 73 36 125z" />
    <glyph glyph-name="zcaron" unicode="&#x17e;" 
d="M66 625q-36 53 -36 125h190q0 -11 9.5 -20.5t20.5 -9.5t20.5 9.5t9.5 20.5h190q0 -72 -36 -125q36 -52 36 -125q0 -47 -16.5 -87.5t-46 -70t-70 -46t-87.5 -16.5q-11 0 -20.5 -9.5t-9.5 -20.5v-30h250v-190h-440v220q0 47 16.5 87.5t46 70t70 46t87.5 16.5q11 0 20.5 9.5
t9.5 20.5t-9.5 20.5t-20.5 9.5t-20.5 -9.5t-9.5 -20.5h-190q0 73 36 125z" />
    <glyph glyph-name="longs" unicode="&#x17f;" 
d="M155 500q0 47 16.5 87.5t46 70t70 46t87.5 16.5v-190q-11 0 -20.5 -9.5t-9.5 -20.5v-470h-190v470z" />
    <glyph glyph-name="florin" unicode="&#x192;" 
d="M125 220q11 0 20.5 9.5t9.5 20.5v250q0 47 16.5 87.5t46 70t70 46t87.5 16.5v-190q-11 0 -20.5 -9.5t-9.5 -20.5v-30h30v-190h-30v-30q0 -47 -16.5 -87.5t-46 -70t-70 -46t-87.5 -16.5v190z" />
    <glyph glyph-name="uni01F4" unicode="&#x1f4;" 
d="M30 500q0 47 16.5 87.5t46 70t70 46t87.5 16.5q11 0 20.5 9.5t9.5 20.5h190q0 -72 -36 -125q36 -52 36 -125h-190q0 11 -9.5 20.5t-20.5 9.5t-20.5 -9.5t-9.5 -20.5v-250q0 -11 9.5 -20.5t20.5 -9.5t20.5 9.5t9.5 20.5v30h-30v190h220v-220q0 -47 -16.5 -87.5t-46 -70
t-70 -46t-87.5 -16.5t-87.5 16.5t-70 46t-46 70t-16.5 87.5v250z" />
    <glyph glyph-name="uni01F5" unicode="&#x1f5;" 
d="M30 500q0 47 16.5 87.5t46 70t70 46t87.5 16.5q11 0 20.5 9.5t9.5 20.5h190q0 -72 -36 -125q36 -52 36 -125h-190q0 11 -9.5 20.5t-20.5 9.5t-20.5 -9.5t-9.5 -20.5v-250q0 -11 9.5 -20.5t20.5 -9.5t20.5 9.5t9.5 20.5v30h-30v190h220v-220q0 -47 -16.5 -87.5t-46 -70
t-70 -46t-87.5 -16.5t-87.5 16.5t-70 46t-46 70t-16.5 87.5v250z" />
    <glyph glyph-name="Aringacute" unicode="&#x1fa;" 
d="M30 250q0 73 36 125q-36 53 -36 125q0 47 16.5 87.5t46 70t70 46t87.5 16.5q11 0 20.5 9.5t9.5 20.5h190q0 -72 -36 -125q36 -52 36 -125q0 -72 -36 -125q36 -52 36 -125v-250h-190v30h-60v-30h-190v250zM280 220v30q0 11 -9.5 20.5t-20.5 9.5t-20.5 -9.5t-9.5 -20.5v-30
h60zM220 500q0 -11 9.5 -20.5t20.5 -9.5t20.5 9.5t9.5 20.5t-9.5 20.5t-20.5 9.5t-20.5 -9.5t-9.5 -20.5z" />
    <glyph glyph-name="aringacute" unicode="&#x1fb;" 
d="M30 250q0 73 36 125q-36 53 -36 125q0 47 16.5 87.5t46 70t70 46t87.5 16.5q11 0 20.5 9.5t9.5 20.5h190q0 -72 -36 -125q36 -52 36 -125q0 -72 -36 -125q36 -52 36 -125v-250h-190v30h-60v-30h-190v250zM280 220v30q0 11 -9.5 20.5t-20.5 9.5t-20.5 -9.5t-9.5 -20.5v-30
h60zM220 500q0 -11 9.5 -20.5t20.5 -9.5t20.5 9.5t9.5 20.5t-9.5 20.5t-20.5 9.5t-20.5 -9.5t-9.5 -20.5z" />
    <glyph glyph-name="AEacute" unicode="&#x1fc;" 
d="M5 30v388q0 45 19.5 78.5t50.5 56.5t70.5 34.5t79.5 11.5v108h120v-108h150v-156h-150v-50h150v-157h-150v-50h150v-156h-270v206h-30v-206h-190zM225 393v50q-11 0 -20 -9q-10 -7 -10 -16v-25h30z" />
    <glyph glyph-name="aeacute" unicode="&#x1fd;" 
d="M5 30v388q0 45 19.5 78.5t50.5 56.5t70.5 34.5t79.5 11.5v108h120v-108h150v-156h-150v-50h150v-157h-150v-50h150v-156h-270v206h-30v-206h-190zM225 393v50q-11 0 -20 -9q-10 -7 -10 -16v-25h30z" />
    <glyph glyph-name="Oslashacute" unicode="&#x1fe;" 
d="M30 0q0 73 36 125q-36 53 -36 125v250q0 73 36 125q-36 53 -36 125h190q0 -11 9.5 -20.5t20.5 -9.5t20.5 9.5t9.5 20.5h190q0 -72 -36 -125q36 -52 36 -125v-250q0 -47 -16.5 -87.5t-46 -70t-70 -46t-87.5 -16.5q-11 0 -20.5 -9.5t-9.5 -20.5h-190zM220 250
q0 -11 9.5 -20.5t20.5 -9.5t20.5 9.5t9.5 20.5v250q0 11 -9.5 20.5t-20.5 9.5t-20.5 -9.5t-9.5 -20.5v-250z" />
    <glyph glyph-name="oslashacute" unicode="&#x1ff;" 
d="M30 0q0 73 36 125q-36 53 -36 125v250q0 73 36 125q-36 53 -36 125h190q0 -11 9.5 -20.5t20.5 -9.5t20.5 9.5t9.5 20.5h190q0 -72 -36 -125q36 -52 36 -125v-250q0 -47 -16.5 -87.5t-46 -70t-70 -46t-87.5 -16.5q-11 0 -20.5 -9.5t-9.5 -20.5h-190zM220 250
q0 -11 9.5 -20.5t20.5 -9.5t20.5 9.5t9.5 20.5v250q0 11 -9.5 20.5t-20.5 9.5t-20.5 -9.5t-9.5 -20.5v-250z" />
    <glyph glyph-name="uni0218" unicode="&#x218;" 
d="M220 250q0 -11 9.5 -20.5t20.5 -9.5t20.5 9.5t9.5 20.5t-9.5 20.5t-20.5 9.5q-47 0 -87.5 16.5t-70 46t-46 70t-16.5 87.5t16.5 87.5t46 70t70 46t87.5 16.5t87.5 -16.5t70 -46t46 -70t16.5 -87.5h-190q0 11 -9.5 20.5t-20.5 9.5t-20.5 -9.5t-9.5 -20.5t9.5 -20.5
t20.5 -9.5q47 0 87.5 -16.5t70 -46t46 -70t16.5 -87.5t-16.5 -87.5t-46 -70t-70 -46t-87.5 -16.5q-11 0 -20.5 -9.5t-9.5 -20.5h-190q0 73 36 125q-36 53 -36 125h190z" />
    <glyph glyph-name="uni0219" unicode="&#x219;" 
d="M220 250q0 -11 9.5 -20.5t20.5 -9.5t20.5 9.5t9.5 20.5t-9.5 20.5t-20.5 9.5q-47 0 -87.5 16.5t-70 46t-46 70t-16.5 87.5t16.5 87.5t46 70t70 46t87.5 16.5t87.5 -16.5t70 -46t46 -70t16.5 -87.5h-190q0 11 -9.5 20.5t-20.5 9.5t-20.5 -9.5t-9.5 -20.5t9.5 -20.5
t20.5 -9.5q47 0 87.5 -16.5t70 -46t46 -70t16.5 -87.5t-16.5 -87.5t-46 -70t-70 -46t-87.5 -16.5q-11 0 -20.5 -9.5t-9.5 -20.5h-190q0 73 36 125q-36 53 -36 125h190z" />
    <glyph glyph-name="uni021A" unicode="&#x21a;" 
d="M25 720h450v-190h-130v-280h-190v280h-130v190zM155 0v220h190v-220h-190z" />
    <glyph glyph-name="uni021B" unicode="&#x21b;" 
d="M25 720h450v-190h-130v-280h-190v280h-130v190zM155 0v220h190v-220h-190z" />
    <glyph glyph-name="uni0237" unicode="&#x237;" 
d="M30 250h190q0 -11 9.5 -20.5t20.5 -9.5t20.5 9.5t9.5 20.5v280h-100v190h290v-470q0 -47 -16.5 -87.5t-46 -70t-70 -46t-87.5 -16.5t-87.5 16.5t-70 46t-46 70t-16.5 87.5z" />
    <glyph glyph-name="uni02BC" unicode="&#x2bc;" 
d="M345 750v-220h-190v220h190z" />
    <glyph glyph-name="circumflex" unicode="&#x2c6;" 
d="M125 720q11 0 20.5 9.5t9.5 20.5h190q0 -11 9.5 -20.5t20.5 -9.5v-190q-72 0 -125 36q-52 -36 -125 -36v190z" />
    <glyph glyph-name="caron" unicode="&#x2c7;" 
d="M155 500q0 11 -9.5 20.5t-20.5 9.5v190q73 0 125 -36q53 36 125 36v-190q-11 0 -20.5 -9.5t-9.5 -20.5h-190z" />
    <glyph glyph-name="uni02C9" unicode="&#x2c9;" 
d="M125 720h250v-190h-250v190z" />
    <glyph glyph-name="breve" unicode="&#x2d8;" 
d="M220 750q0 -11 9.5 -20.5t20.5 -9.5t20.5 9.5t9.5 20.5h190q0 -47 -16.5 -87.5t-46 -70t-70 -46t-87.5 -16.5t-87.5 16.5t-70 46t-46 70t-16.5 87.5h190z" />
    <glyph glyph-name="dotaccent" unicode="&#x2d9;" 
d="M345 750v-220h-190v220h190z" />
    <glyph glyph-name="ring" unicode="&#x2da;" 
d="M30 500q0 47 16.5 87.5t46 70t70 46t87.5 16.5t87.5 -16.5t70 -46t46 -70t16.5 -87.5t-16.5 -87.5t-46 -70t-70 -46t-87.5 -16.5t-87.5 16.5t-70 46t-46 70t-16.5 87.5zM220 500q0 -11 9.5 -20.5t20.5 -9.5t20.5 9.5t9.5 20.5t-9.5 20.5t-20.5 9.5t-20.5 -9.5t-9.5 -20.5
z" />
    <glyph glyph-name="ogonek" unicode="&#x2db;" 
d="M155 0q0 47 16.5 87.5t46 70t70 46t87.5 16.5v-190q-11 0 -20.5 -9.5t-9.5 -20.5h-190z" />
    <glyph glyph-name="tilde" unicode="&#x2dc;" 
d="M30 500q0 47 16.5 87.5t46 70t70 46t87.5 16.5q11 0 20.5 9.5t9.5 20.5h190q0 -47 -16.5 -87.5t-46 -70t-70 -46t-87.5 -16.5q-11 0 -20.5 -9.5t-9.5 -20.5h-190z" />
    <glyph glyph-name="hungarumlaut" unicode="&#x2dd;" 
d="M250 720q11 0 20.5 9.5t9.5 20.5h190q0 -47 -16.5 -87.5t-46 -70t-70 -46t-87.5 -16.5v190zM0 720q11 0 20.5 9.5t9.5 20.5h190q0 -47 -16.5 -87.5t-46 -70t-70 -46t-87.5 -16.5v190z" />
    <glyph glyph-name="gravecomb" unicode="&#x300;" 
d="M30 750h190q0 -11 9.5 -20.5t20.5 -9.5v-190q-47 0 -87.5 16.5t-70 46t-46 70t-16.5 87.5z" />
    <glyph glyph-name="acutecomb" unicode="&#x301;" 
d="M250 720q11 0 20.5 9.5t9.5 20.5h190q0 -47 -16.5 -87.5t-46 -70t-70 -46t-87.5 -16.5v190z" />
    <glyph glyph-name="uni0302" unicode="&#x302;" 
d="M120 530v190q11 0 20.5 9.5t9.5 20.5h190q0 -11 9.5 -20.5t20.5 -9.5v-190q-72 0 -125 36q-52 -36 -125 -36z" />
    <glyph glyph-name="tildecomb" unicode="&#x303;" 
d="M30 500q0 47 16.5 87.5t46 70t70 46t87.5 16.5q11 0 20.5 9.5t9.5 20.5h190q0 -47 -16.5 -87.5t-46 -70t-70 -46t-87.5 -16.5q-11 0 -20.5 -9.5t-9.5 -20.5h-190z" />
    <glyph glyph-name="uni0304" unicode="&#x304;" 
d="M125 720h250v-190h-250v190z" />
    <glyph glyph-name="uni0306" unicode="&#x306;" 
d="M220 750q0 -11 9.5 -20.5t20.5 -9.5t20.5 9.5t9.5 20.5h190q0 -47 -16.5 -87.5t-46 -70t-70 -46t-87.5 -16.5t-87.5 16.5t-70 46t-46 70t-16.5 87.5h190z" />
    <glyph glyph-name="uni0307" unicode="&#x307;" 
d="M345 750v-220h-190v220h190z" />
    <glyph glyph-name="uni0308" unicode="&#x308;" 
d="M280 750h190v-220h-190v220zM30 530v220h190v-220h-190z" />
    <glyph glyph-name="uni030A" unicode="&#x30a;" 
d="M30 500q0 47 16.5 87.5t46 70t70 46t87.5 16.5t87.5 -16.5t70 -46t46 -70t16.5 -87.5t-16.5 -87.5t-46 -70t-70 -46t-87.5 -16.5t-87.5 16.5t-70 46t-46 70t-16.5 87.5zM220 500q0 -11 9.5 -20.5t20.5 -9.5t20.5 9.5t9.5 20.5t-9.5 20.5t-20.5 9.5t-20.5 -9.5t-9.5 -20.5
z" />
    <glyph glyph-name="uni030B" unicode="&#x30b;" 
d="M250 720q11 0 20.5 9.5t9.5 20.5h190q0 -47 -16.5 -87.5t-46 -70t-70 -46t-87.5 -16.5v190zM0 720q11 0 20.5 9.5t9.5 20.5h190q0 -47 -16.5 -87.5t-46 -70t-70 -46t-87.5 -16.5v190z" />
    <glyph glyph-name="uni030C" unicode="&#x30c;" 
d="M155 500q0 11 -9.5 20.5t-20.5 9.5v190q73 0 125 -36q53 36 125 36v-190q-11 0 -20.5 -9.5t-9.5 -20.5h-190z" />
    <glyph glyph-name="uni0312" unicode="&#x312;" 
d="M345 750v-220h-190v220h190z" />
    <glyph glyph-name="uni0315" unicode="&#x315;" 
d="M345 750v-220h-190v220h190z" />
    <glyph glyph-name="uni0326" unicode="&#x326;" 
d="M345 250v-250h-190v250h190z" />
    <glyph glyph-name="uni0327" unicode="&#x327;" 
d="M155 0q0 47 16.5 87.5t46 70t70 46t87.5 16.5v-190q-11 0 -20.5 -9.5t-9.5 -20.5h-190z" />
    <glyph glyph-name="uni0328" unicode="&#x328;" 
d="M155 0q0 47 16.5 87.5t46 70t70 46t87.5 16.5v-190q-11 0 -20.5 -9.5t-9.5 -20.5h-190z" />
    <glyph glyph-name="uni0344" unicode="&#x344;" 
d="M125 720h30v30h190v-30h30v-190h-250v190zM-95 530v220h190v-220h-190z" />
    <glyph glyph-name="uni0370" unicode="&#x370;" 
d="M345 720v-250h30v-190h-30v-250h-190v690h190z" />
    <glyph glyph-name="uni0371" unicode="&#x371;" 
d="M345 720v-250h30v-190h-30v-250h-190v690h190z" />
    <glyph glyph-name="uni0372" unicode="&#x372;" 
d="M5 500v220h490v-220h-130v30h-20v-500h-190v500h-20v-30h-130z" />
    <glyph glyph-name="uni0373" unicode="&#x373;" 
d="M5 500v220h490v-220h-130v30h-20v-500h-190v500h-20v-30h-130z" />
    <glyph glyph-name="uni0374" unicode="&#x374;" 
d="M250 720q11 0 20.5 9.5t9.5 20.5h190q0 -47 -16.5 -87.5t-46 -70t-70 -46t-87.5 -16.5v190z" />
    <glyph glyph-name="uni0375" unicode="&#x375;" 
d="M155 0q0 47 16.5 87.5t46 70t70 46t87.5 16.5v-190q-11 0 -20.5 -9.5t-9.5 -20.5h-190z" />
    <glyph glyph-name="uni0376" unicode="&#x376;" 
d="M0 720q73 0 125 -36q53 36 125 36h220v-690h-190v470h-60v-470h-190v470q0 11 -9.5 20.5t-20.5 9.5v190z" />
    <glyph glyph-name="uni0377" unicode="&#x377;" 
d="M0 720q73 0 125 -36q53 36 125 36h220v-690h-190v470h-60v-470h-190v470q0 11 -9.5 20.5t-20.5 9.5v190z" />
    <glyph glyph-name="uni037A" unicode="&#x37a;" 
d="M345 250v-250h-190v250h190z" />
    <glyph glyph-name="uni037B" unicode="&#x37b;" 
d="M220 250q0 -11 9.5 -20.5t20.5 -9.5t20.5 9.5t9.5 20.5v250q0 11 -9.5 20.5t-20.5 9.5t-20.5 -9.5t-9.5 -20.5h-190q0 47 16.5 87.5t46 70t70 46t87.5 16.5t87.5 -16.5t70 -46t46 -70t16.5 -87.5v-250q0 -47 -16.5 -87.5t-46 -70t-70 -46t-87.5 -16.5t-87.5 16.5t-70 46
t-46 70t-16.5 87.5h190z" />
    <glyph glyph-name="uni037C" unicode="&#x37c;" 
d="M30 500q0 47 16.5 87.5t46 70t70 46t87.5 16.5t87.5 -16.5t70 -46t46 -70t16.5 -87.5h-190q0 11 -9.5 20.5t-20.5 9.5t-20.5 -9.5t-9.5 -20.5v-250q0 -11 9.5 -20.5t20.5 -9.5t20.5 9.5t9.5 20.5h190q0 -47 -16.5 -87.5t-46 -70t-70 -46t-87.5 -16.5t-87.5 16.5t-70 46
t-46 70t-16.5 87.5v250zM250 280v190h220v-190h-220z" />
    <glyph glyph-name="uni037D" unicode="&#x37d;" 
d="M220 250q0 -11 9.5 -20.5t20.5 -9.5t20.5 9.5t9.5 20.5v250q0 11 -9.5 20.5t-20.5 9.5t-20.5 -9.5t-9.5 -20.5h-190q0 47 16.5 87.5t46 70t70 46t87.5 16.5t87.5 -16.5t70 -46t46 -70t16.5 -87.5v-250q0 -47 -16.5 -87.5t-46 -70t-70 -46t-87.5 -16.5t-87.5 16.5t-70 46
t-46 70t-16.5 87.5h190zM30 470h220v-190h-220v190z" />
    <glyph glyph-name="uni037E" unicode="&#x37e;" 
d="M155 250h190v-250h-190v250zM155 500h190v-220h-190v220z" />
    <glyph glyph-name="uni037F" unicode="&#x37f;" 
d="M220 250q0 -11 9.5 -20.5t20.5 -9.5t20.5 9.5t9.5 20.5v280h-30v190h220v-470q0 -47 -16.5 -87.5t-46 -70t-70 -46t-87.5 -16.5t-87.5 16.5t-70 46t-46 70t-16.5 87.5h190z" />
    <glyph glyph-name="tonos" unicode="&#x384;" 
d="M250 720q11 0 20.5 9.5t9.5 20.5h190q0 -47 -16.5 -87.5t-46 -70t-70 -46t-87.5 -16.5v190z" />
    <glyph glyph-name="dieresistonos" unicode="&#x385;" 
d="M125 720h30v30h190v-30h30v-190h-250v190zM-95 530v220h190v-220h-190z" />
    <glyph glyph-name="Alphatonos" unicode="&#x386;" 
d="M-20 530v220h90v-120q32 45 78.5 67.5t101.5 22.5q47 0 87.5 -16.5t70 -46t46 -70t16.5 -87.5v-470h-190v250h-60v-250h-190v470q0 8 0.5 15t1.5 15h-52zM280 470v30q0 11 -9.5 20.5t-20.5 9.5t-20.5 -9.5t-9.5 -20.5v-30h60z" />
    <glyph glyph-name="anoteleia" unicode="&#x387;" 
d="M155 250v220h190v-220h-190z" />
    <glyph glyph-name="Epsilontonos" unicode="&#x388;" 
d="M-42 530v220h90v-30h420v-190h-250v-60h250v-190h-250v-60h250v-190h-440v500h-70z" />
    <glyph glyph-name="Etatonos" unicode="&#x389;" 
d="M-40 750h90v-30h170v-250h60v250h190v-690h-190v250h-60v-250h-190v500h-70v220z" />
    <glyph glyph-name="Iotatonos" unicode="&#x38a;" horiz-adv-x="498" 
d="M65 750h90v-30h180v-690h-190v500h-80v220z" />
    <glyph glyph-name="Omicrontonos" unicode="&#x38c;" 
d="M-20 530v220h90v-120q32 45 78.5 67.5t101.5 22.5q47 0 87.5 -16.5t70 -46t46 -70t16.5 -87.5v-250q0 -47 -16.5 -87.5t-46 -70t-70 -46t-87.5 -16.5t-87.5 16.5t-70 46t-46 70t-16.5 87.5v250q0 8 0.5 15t1.5 15h-52zM220 250q0 -11 9.5 -20.5t20.5 -9.5t20.5 9.5
t9.5 20.5v250q0 11 -9.5 20.5t-20.5 9.5t-20.5 -9.5t-9.5 -20.5v-250z" />
    <glyph glyph-name="Upsilontonos" unicode="&#x38e;" 
d="M-30 750h90v-30h160v-220q0 -11 9.5 -20.5t20.5 -9.5h30v250h190v-690h-190v250h-30q-47 0 -87.5 16.5t-70 46t-46 70t-16.5 87.5v30h-60v220z" />
    <glyph glyph-name="Omegatonos" unicode="&#x38f;" 
d="M-20 530v220h90v-120q32 45 78.5 67.5t101.5 22.5q47 0 87.5 -16.5t70 -46t46 -70t16.5 -87.5v-280h30v-190h-500v190h30v280q0 8 0.5 15t1.5 15h-52zM280 220v280q0 11 -9.5 20.5t-20.5 9.5t-20.5 -9.5t-9.5 -20.5v-280h60z" />
    <glyph glyph-name="iotadieresistonos" unicode="&#x390;" 
d="M155 30v470h190v-470h-190zM125 720h30v30h190v-30h30v-190h-250v190z" />
    <glyph glyph-name="Alpha" unicode="&#x391;" 
d="M30 500q0 47 16.5 87.5t46 70t70 46t87.5 16.5t87.5 -16.5t70 -46t46 -70t16.5 -87.5v-470h-190v250h-60v-250h-190v470zM280 470v30q0 11 -9.5 20.5t-20.5 9.5t-20.5 -9.5t-9.5 -20.5v-30h60z" />
    <glyph glyph-name="Beta" unicode="&#x392;" 
d="M30 30v690h220q47 0 87.5 -16.5t70 -46t46 -70t16.5 -87.5q0 -72 -36 -125q36 -52 36 -125q0 -47 -16.5 -87.5t-46 -70t-70 -46t-87.5 -16.5h-220zM250 470q11 0 20.5 9.5t9.5 20.5t-9.5 20.5t-20.5 9.5h-30v-60h30zM220 280v-60h30q11 0 20.5 9.5t9.5 20.5t-9.5 20.5
t-20.5 9.5h-30z" />
    <glyph glyph-name="Gamma" unicode="&#x393;" 
d="M30 720h440v-190h-250v-500h-190v690z" />
    <glyph glyph-name="uni0394" unicode="&#x394;" 
d="M250 720q47 0 87.5 -16.5t70 -46t46 -70t16.5 -87.5v-470h-440v690h220zM220 220h60v280q0 11 -9.5 20.5t-20.5 9.5h-30v-310z" />
    <glyph glyph-name="Epsilon" unicode="&#x395;" 
d="M30 720h440v-190h-250v-60h250v-190h-250v-60h250v-190h-440v690z" />
    <glyph glyph-name="Zeta" unicode="&#x396;" 
d="M30 720h440v-220q0 -47 -16.5 -87.5t-46 -70t-70 -46t-87.5 -16.5q-11 0 -20.5 -9.5t-9.5 -20.5v-30h250v-190h-440v220q0 47 16.5 87.5t46 70t70 46t87.5 16.5q11 0 20.5 9.5t9.5 20.5v30h-250v190z" />
    <glyph glyph-name="Eta" unicode="&#x397;" 
d="M220 720v-250h60v250h190v-690h-190v250h-60v-250h-190v690h190z" />
    <glyph glyph-name="Theta" unicode="&#x398;" 
d="M30 500q0 47 16.5 87.5t46 70t70 46t87.5 16.5t87.5 -16.5t70 -46t46 -70t16.5 -87.5v-250q0 -47 -16.5 -87.5t-46 -70t-70 -46t-87.5 -16.5t-87.5 16.5t-70 46t-46 70t-16.5 87.5v250zM220 250q0 -11 9.5 -20.5t20.5 -9.5t20.5 9.5t9.5 20.5v30h-60v-30zM280 470v30
q0 11 -9.5 20.5t-20.5 9.5t-20.5 -9.5t-9.5 -20.5v-30h60z" />
    <glyph glyph-name="Iota" unicode="&#x399;" 
d="M65 30v190h90v310h-90v190h370v-190h-90v-310h90v-190h-370z" />
    <glyph glyph-name="Kappa" unicode="&#x39a;" 
d="M220 720v-250h30q11 0 20.5 9.5t9.5 20.5v220h190v-220q0 -72 -36 -125q36 -52 36 -125v-220h-190v220q0 11 -9.5 20.5t-20.5 9.5h-30v-250h-190v690h190z" />
    <glyph glyph-name="Lambda" unicode="&#x39b;" 
d="M30 30v470q0 47 16.5 87.5t46 70t70 46t87.5 16.5h220v-690h-190v500h-30q-11 0 -20.5 -9.5t-9.5 -20.5v-470h-190z" />
    <glyph glyph-name="Mu" unicode="&#x39c;" 
d="M15 30v530q0 72 34 116t106 44q29 0 49 -9t46 -27q26 18 46 27t49 9q72 0 106 -44t34 -116v-530h-160v470q0 11 0.5 20.5t-10.5 9.5t-10.5 -9.5t0.5 -20.5v-470h-110v470q0 11 0.5 20.5t-10.5 9.5t-10.5 -9.5t0.5 -20.5v-470h-160z" />
    <glyph glyph-name="Nu" unicode="&#x39d;" 
d="M30 30v690h220q47 0 87.5 -16.5t70 -46t46 -70t16.5 -87.5v-470h-190v470q0 11 -9.5 20.5t-20.5 9.5h-30v-500h-190z" />
    <glyph glyph-name="Xi" unicode="&#x39e;" 
d="M30 220h440v-190h-440v190zM250 722v-2h220v-190h-220v2h-220v190h220zM30 472h220v-2h220v-190h-220v2h-220v190z" />
    <glyph glyph-name="Omicron" unicode="&#x39f;" 
d="M30 500q0 47 16.5 87.5t46 70t70 46t87.5 16.5t87.5 -16.5t70 -46t46 -70t16.5 -87.5v-250q0 -47 -16.5 -87.5t-46 -70t-70 -46t-87.5 -16.5t-87.5 16.5t-70 46t-46 70t-16.5 87.5v250zM220 250q0 -11 9.5 -20.5t20.5 -9.5t20.5 9.5t9.5 20.5v250q0 11 -9.5 20.5
t-20.5 9.5t-20.5 -9.5t-9.5 -20.5v-250z" />
    <glyph glyph-name="Pi" unicode="&#x3a0;" 
d="M30 30v690h440v-690h-190v500h-60v-500h-190z" />
    <glyph glyph-name="Rho" unicode="&#x3a1;" 
d="M30 30v690h220q47 0 87.5 -16.5t70 -46t46 -70t16.5 -87.5t-16.5 -87.5t-46 -70t-70 -46t-87.5 -16.5h-30v-250h-190zM250 470q11 0 20.5 9.5t9.5 20.5t-9.5 20.5t-20.5 9.5h-30v-60h30z" />
    <glyph glyph-name="Sigma" unicode="&#x3a3;" 
d="M30 250q0 73 36 125q-36 53 -36 125v220h440v-190h-250v-30q0 -11 9.5 -20.5t20.5 -9.5h220v-190h-220q-11 0 -20.5 -9.5t-9.5 -20.5v-30h250v-190h-440v220z" />
    <glyph glyph-name="Tau" unicode="&#x3a4;" 
d="M25 720h450v-190h-130v-500h-190v500h-130v190z" />
    <glyph glyph-name="Upsilon" unicode="&#x3a5;" 
d="M30 500v220h190v-220q0 -11 9.5 -20.5t20.5 -9.5h30v250h190v-690h-190v250h-30q-47 0 -87.5 16.5t-70 46t-46 70t-16.5 87.5z" />
    <glyph glyph-name="Phi" unicode="&#x3a6;" 
d="M25 400q0 36 10.5 69.5t30 61t47 48.5t62.5 31v110h150v-110q35 -10 62.5 -31t47 -48.5t30 -61t10.5 -69.5t-10.5 -69.5t-30 -61t-47 -48t-62.5 -31.5v-160h-150v160q-35 11 -62.5 31.5t-47 48t-30 61t-10.5 69.5zM335 400q0 10 -10 20v-40q10 10 10 20zM175 420
q-10 -10 -10 -20t10 -20v40z" />
    <glyph glyph-name="Chi" unicode="&#x3a7;" 
d="M30 720h190v-220q0 -11 9.5 -20.5t20.5 -9.5t20.5 9.5t9.5 20.5v220h190v-220q0 -72 -36 -125q36 -52 36 -125v-220h-190v220q0 11 -9.5 20.5t-20.5 9.5t-20.5 -9.5t-9.5 -20.5v-220h-190v220q0 73 36 125q-36 53 -36 125v220z" />
    <glyph glyph-name="Psi" unicode="&#x3a8;" 
d="M30 500v220h190v-220q0 -11 9.5 -20.5t20.5 -9.5h30v250h190v-690h-190v250h-30q-47 0 -87.5 16.5t-70 46t-46 70t-16.5 87.5z" />
    <glyph glyph-name="uni03A9" unicode="&#x3a9;" 
d="M0 220h30v280q0 47 16.5 87.5t46 70t70 46t87.5 16.5t87.5 -16.5t70 -46t46 -70t16.5 -87.5v-280h30v-190h-500v190zM280 220v280q0 11 -9.5 20.5t-20.5 9.5t-20.5 -9.5t-9.5 -20.5v-280h60z" />
    <glyph glyph-name="Iotadieresis" unicode="&#x3aa;" 
d="M345 500v-470h-190v470h190zM125 530v190h250v-190h-250z" />
    <glyph glyph-name="Upsilondieresis" unicode="&#x3ab;" 
d="M220 470v-220q0 -11 9.5 -20.5t20.5 -9.5h30v250h190v-470h-190v30h-30q-47 0 -87.5 16.5t-70 46t-46 70t-16.5 87.5v220h190zM280 500v220h190v-220h-190zM220 720v-220h-190v220h190z" />
    <glyph glyph-name="alphatonos" unicode="&#x3ac;" 
d="M-20 530v220h90v-120q32 45 78.5 67.5t101.5 22.5q47 0 87.5 -16.5t70 -46t46 -70t16.5 -87.5v-470h-190v250h-60v-250h-190v470q0 8 0.5 15t1.5 15h-52zM280 470v30q0 11 -9.5 20.5t-20.5 9.5t-20.5 -9.5t-9.5 -20.5v-30h60z" />
    <glyph glyph-name="epsilontonos" unicode="&#x3ad;" 
d="M-42 530v220h90v-30h420v-190h-250v-60h250v-190h-250v-60h250v-190h-440v500h-70z" />
    <glyph glyph-name="etatonos" unicode="&#x3ae;" 
d="M-40 750h90v-30h170v-250h60v250h190v-690h-190v250h-60v-250h-190v500h-70v220z" />
    <glyph glyph-name="iotatonos" unicode="&#x3af;" horiz-adv-x="498" 
d="M65 750h90v-30h180v-690h-190v500h-80v220z" />
    <glyph glyph-name="upsilondieresistonos" unicode="&#x3b0;" 
d="M220 470v-220q0 -11 9.5 -20.5t20.5 -9.5h30v250h190v-470h-190v30h-30q-47 0 -87.5 16.5t-70 46t-46 70t-16.5 87.5v220h190zM130 720h30v30h190v-30h30v-190h-250v190z" />
    <glyph glyph-name="alpha" unicode="&#x3b1;" 
d="M30 500q0 47 16.5 87.5t46 70t70 46t87.5 16.5t87.5 -16.5t70 -46t46 -70t16.5 -87.5v-470h-190v250h-60v-250h-190v470zM280 470v30q0 11 -9.5 20.5t-20.5 9.5t-20.5 -9.5t-9.5 -20.5v-30h60z" />
    <glyph glyph-name="beta" unicode="&#x3b2;" 
d="M30 30v690h220q47 0 87.5 -16.5t70 -46t46 -70t16.5 -87.5q0 -72 -36 -125q36 -52 36 -125q0 -47 -16.5 -87.5t-46 -70t-70 -46t-87.5 -16.5h-220zM250 470q11 0 20.5 9.5t9.5 20.5t-9.5 20.5t-20.5 9.5h-30v-60h30zM220 280v-60h30q11 0 20.5 9.5t9.5 20.5t-9.5 20.5
t-20.5 9.5h-30z" />
    <glyph glyph-name="gamma" unicode="&#x3b3;" 
d="M30 720h440v-190h-250v-500h-190v690z" />
    <glyph glyph-name="delta" unicode="&#x3b4;" 
d="M250 720q47 0 87.5 -16.5t70 -46t46 -70t16.5 -87.5v-470h-440v690h220zM220 220h60v280q0 11 -9.5 20.5t-20.5 9.5h-30v-310z" />
    <glyph glyph-name="epsilon" unicode="&#x3b5;" 
d="M30 720h440v-190h-250v-60h250v-190h-250v-60h250v-190h-440v690z" />
    <glyph glyph-name="zeta" unicode="&#x3b6;" 
d="M30 720h440v-220q0 -47 -16.5 -87.5t-46 -70t-70 -46t-87.5 -16.5q-11 0 -20.5 -9.5t-9.5 -20.5v-30h250v-190h-440v220q0 47 16.5 87.5t46 70t70 46t87.5 16.5q11 0 20.5 9.5t9.5 20.5v30h-250v190z" />
    <glyph glyph-name="eta" unicode="&#x3b7;" 
d="M220 720v-250h60v250h190v-690h-190v250h-60v-250h-190v690h190z" />
    <glyph glyph-name="theta" unicode="&#x3b8;" 
d="M30 500q0 47 16.5 87.5t46 70t70 46t87.5 16.5t87.5 -16.5t70 -46t46 -70t16.5 -87.5v-250q0 -47 -16.5 -87.5t-46 -70t-70 -46t-87.5 -16.5t-87.5 16.5t-70 46t-46 70t-16.5 87.5v250zM220 250q0 -11 9.5 -20.5t20.5 -9.5t20.5 9.5t9.5 20.5v30h-60v-30zM280 470v30
q0 11 -9.5 20.5t-20.5 9.5t-20.5 -9.5t-9.5 -20.5v-30h60z" />
    <glyph glyph-name="iota" unicode="&#x3b9;" 
d="M65 30v190h90v310h-90v190h370v-190h-90v-310h90v-190h-370z" />
    <glyph glyph-name="kappa" unicode="&#x3ba;" 
d="M220 720v-250h30q11 0 20.5 9.5t9.5 20.5v220h190v-220q0 -72 -36 -125q36 -52 36 -125v-220h-190v220q0 11 -9.5 20.5t-20.5 9.5h-30v-250h-190v690h190z" />
    <glyph glyph-name="lambda" unicode="&#x3bb;" 
d="M30 30v470q0 47 16.5 87.5t46 70t70 46t87.5 16.5h220v-690h-190v500h-30q-11 0 -20.5 -9.5t-9.5 -20.5v-470h-190z" />
    <glyph glyph-name="uni03BC" unicode="&#x3bc;" 
d="M220 720v-470q0 -11 9.5 -20.5t20.5 -9.5t20.5 9.5t9.5 20.5v470h190v-470q0 -47 -16.5 -87.5t-46 -70t-70 -46t-87.5 -16.5t-87.5 16.5t-70 46t-46 70t-16.5 87.5v470h190z" />
    <glyph glyph-name="nu" unicode="&#x3bd;" 
d="M30 30v690h220q47 0 87.5 -16.5t70 -46t46 -70t16.5 -87.5v-470h-190v470q0 11 -9.5 20.5t-20.5 9.5h-30v-500h-190z" />
    <glyph glyph-name="xi" unicode="&#x3be;" 
d="M30 220h440v-190h-440v190zM250 722v-2h220v-190h-220v2h-220v190h220zM30 472h220v-2h220v-190h-220v2h-220v190z" />
    <glyph glyph-name="omicron" unicode="&#x3bf;" 
d="M30 500q0 47 16.5 87.5t46 70t70 46t87.5 16.5t87.5 -16.5t70 -46t46 -70t16.5 -87.5v-250q0 -47 -16.5 -87.5t-46 -70t-70 -46t-87.5 -16.5t-87.5 16.5t-70 46t-46 70t-16.5 87.5v250zM220 250q0 -11 9.5 -20.5t20.5 -9.5t20.5 9.5t9.5 20.5v250q0 11 -9.5 20.5
t-20.5 9.5t-20.5 -9.5t-9.5 -20.5v-250z" />
    <glyph glyph-name="pi" unicode="&#x3c0;" 
d="M30 30v690h440v-690h-190v500h-60v-500h-190z" />
    <glyph glyph-name="rho" unicode="&#x3c1;" 
d="M30 30v690h220q47 0 87.5 -16.5t70 -46t46 -70t16.5 -87.5t-16.5 -87.5t-46 -70t-70 -46t-87.5 -16.5h-30v-250h-190zM250 470q11 0 20.5 9.5t9.5 20.5t-9.5 20.5t-20.5 9.5h-30v-60h30z" />
    <glyph glyph-name="sigma1" unicode="&#x3c2;" 
d="M30 250q0 73 36 125q-36 53 -36 125v220h440v-190h-250v-30q0 -11 9.5 -20.5t20.5 -9.5h220v-190h-220q-11 0 -20.5 -9.5t-9.5 -20.5v-30h250v-190h-440v220z" />
    <glyph glyph-name="sigma" unicode="&#x3c3;" 
d="M30 250q0 73 36 125q-36 53 -36 125v220h440v-190h-250v-30q0 -11 9.5 -20.5t20.5 -9.5h220v-190h-220q-11 0 -20.5 -9.5t-9.5 -20.5v-30h250v-190h-440v220z" />
    <glyph glyph-name="tau" unicode="&#x3c4;" 
d="M25 720h450v-190h-130v-500h-190v500h-130v190z" />
    <glyph glyph-name="upsilon" unicode="&#x3c5;" 
d="M30 500v220h190v-220q0 -11 9.5 -20.5t20.5 -9.5h30v250h190v-690h-190v250h-30q-47 0 -87.5 16.5t-70 46t-46 70t-16.5 87.5z" />
    <glyph glyph-name="phi" unicode="&#x3c6;" 
d="M25 400q0 36 10.5 69.5t30 61t47 48.5t62.5 31v110h150v-110q35 -10 62.5 -31t47 -48.5t30 -61t10.5 -69.5t-10.5 -69.5t-30 -61t-47 -48t-62.5 -31.5v-160h-150v160q-35 11 -62.5 31.5t-47 48t-30 61t-10.5 69.5zM335 400q0 10 -10 20v-40q10 10 10 20zM175 420
q-10 -10 -10 -20t10 -20v40z" />
    <glyph glyph-name="chi" unicode="&#x3c7;" 
d="M30 720h190v-220q0 -11 9.5 -20.5t20.5 -9.5t20.5 9.5t9.5 20.5v220h190v-220q0 -72 -36 -125q36 -52 36 -125v-220h-190v220q0 11 -9.5 20.5t-20.5 9.5t-20.5 -9.5t-9.5 -20.5v-220h-190v220q0 73 36 125q-36 53 -36 125v220z" />
    <glyph glyph-name="psi" unicode="&#x3c8;" 
d="M30 500v220h190v-220q0 -11 9.5 -20.5t20.5 -9.5h30v250h190v-690h-190v250h-30q-47 0 -87.5 16.5t-70 46t-46 70t-16.5 87.5z" />
    <glyph glyph-name="omega" unicode="&#x3c9;" 
d="M0 220h30v280q0 47 16.5 87.5t46 70t70 46t87.5 16.5t87.5 -16.5t70 -46t46 -70t16.5 -87.5v-280h30v-190h-500v190zM280 220v280q0 11 -9.5 20.5t-20.5 9.5t-20.5 -9.5t-9.5 -20.5v-280h60z" />
    <glyph glyph-name="iotadieresis" unicode="&#x3ca;" 
d="M345 500v-470h-190v470h190zM125 530v190h250v-190h-250z" />
    <glyph glyph-name="upsilondieresis" unicode="&#x3cb;" 
d="M220 470v-220q0 -11 9.5 -20.5t20.5 -9.5h30v250h190v-470h-190v30h-30q-47 0 -87.5 16.5t-70 46t-46 70t-16.5 87.5v220h190zM280 500v220h190v-220h-190zM220 720v-220h-190v220h190z" />
    <glyph glyph-name="omicrontonos" unicode="&#x3cc;" 
d="M-20 530v220h90v-120q32 45 78.5 67.5t101.5 22.5q47 0 87.5 -16.5t70 -46t46 -70t16.5 -87.5v-250q0 -47 -16.5 -87.5t-46 -70t-70 -46t-87.5 -16.5t-87.5 16.5t-70 46t-46 70t-16.5 87.5v250q0 8 0.5 15t1.5 15h-52zM220 250q0 -11 9.5 -20.5t20.5 -9.5t20.5 9.5
t9.5 20.5v250q0 11 -9.5 20.5t-20.5 9.5t-20.5 -9.5t-9.5 -20.5v-250z" />
    <glyph glyph-name="upsilontonos" unicode="&#x3cd;" 
d="M-30 750h90v-30h160v-220q0 -11 9.5 -20.5t20.5 -9.5h30v250h190v-690h-190v250h-30q-47 0 -87.5 16.5t-70 46t-46 70t-16.5 87.5v30h-60v220z" />
    <glyph glyph-name="omegatonos" unicode="&#x3ce;" 
d="M-20 530v220h90v-120q32 45 78.5 67.5t101.5 22.5q47 0 87.5 -16.5t70 -46t46 -70t16.5 -87.5v-280h30v-190h-500v190h30v280q0 8 0.5 15t1.5 15h-52zM280 220v280q0 11 -9.5 20.5t-20.5 9.5t-20.5 -9.5t-9.5 -20.5v-280h60z" />
    <glyph glyph-name="theta1" unicode="&#x3d1;" 
d="M30 500q0 47 16.5 87.5t46 70t70 46t87.5 16.5t87.5 -16.5t70 -46t46 -70t16.5 -87.5v-250q0 -47 -16.5 -87.5t-46 -70t-70 -46t-87.5 -16.5t-87.5 16.5t-70 46t-46 70t-16.5 87.5v250zM220 250q0 -11 9.5 -20.5t20.5 -9.5t20.5 9.5t9.5 20.5v30h-60v-30zM280 470v30
q0 11 -9.5 20.5t-20.5 9.5t-20.5 -9.5t-9.5 -20.5v-30h60z" />
    <glyph glyph-name="phi1" unicode="&#x3d5;" 
d="M25 400q0 36 10.5 69.5t30 61t47 48.5t62.5 31v110h150v-110q35 -10 62.5 -31t47 -48.5t30 -61t10.5 -69.5t-10.5 -69.5t-30 -61t-47 -48t-62.5 -31.5v-160h-150v160q-35 11 -62.5 31.5t-47 48t-30 61t-10.5 69.5zM335 400q0 10 -10 20v-40q10 10 10 20zM175 420
q-10 -10 -10 -20t10 -20v40z" />
    <glyph glyph-name="omega1" unicode="&#x3d6;" 
d="M0 220h30v280q0 47 16.5 87.5t46 70t70 46t87.5 16.5t87.5 -16.5t70 -46t46 -70t16.5 -87.5v-280h30v-190h-500v190zM280 220v280q0 11 -9.5 20.5t-20.5 9.5t-20.5 -9.5t-9.5 -20.5v-280h60z" />
    <glyph glyph-name="uni03F2" unicode="&#x3f2;" 
d="M30 500q0 47 16.5 87.5t46 70t70 46t87.5 16.5t87.5 -16.5t70 -46t46 -70t16.5 -87.5h-190q0 11 -9.5 20.5t-20.5 9.5t-20.5 -9.5t-9.5 -20.5v-250q0 -11 9.5 -20.5t20.5 -9.5t20.5 9.5t9.5 20.5h190q0 -47 -16.5 -87.5t-46 -70t-70 -46t-87.5 -16.5t-87.5 16.5t-70 46
t-46 70t-16.5 87.5v250z" />
    <glyph glyph-name="uni03F3" unicode="&#x3f3;" 
d="M220 250q0 -11 9.5 -20.5t20.5 -9.5t20.5 9.5t9.5 20.5v280h-30v190h220v-470q0 -47 -16.5 -87.5t-46 -70t-70 -46t-87.5 -16.5t-87.5 16.5t-70 46t-46 70t-16.5 87.5h190z" />
    <glyph glyph-name="uni03F4" unicode="&#x3f4;" 
d="M30 500q0 47 16.5 87.5t46 70t70 46t87.5 16.5t87.5 -16.5t70 -46t46 -70t16.5 -87.5v-250q0 -47 -16.5 -87.5t-46 -70t-70 -46t-87.5 -16.5t-87.5 16.5t-70 46t-46 70t-16.5 87.5v250zM220 250q0 -11 9.5 -20.5t20.5 -9.5t20.5 9.5t9.5 20.5v30h-60v-30zM280 470v30
q0 11 -9.5 20.5t-20.5 9.5t-20.5 -9.5t-9.5 -20.5v-30h60z" />
    <glyph glyph-name="uni03F5" unicode="&#x3f5;" 
d="M30 500q0 47 16.5 87.5t46 70t70 46t87.5 16.5t87.5 -16.5t70 -46t46 -70t16.5 -87.5h-190q0 11 -9.5 20.5t-20.5 9.5t-20.5 -9.5t-9.5 -20.5v-30h250v-190h-250v-30q0 -11 9.5 -20.5t20.5 -9.5t20.5 9.5t9.5 20.5h190q0 -47 -16.5 -87.5t-46 -70t-70 -46t-87.5 -16.5
t-87.5 16.5t-70 46t-46 70t-16.5 87.5v250z" />
    <glyph glyph-name="uni03F6" unicode="&#x3f6;" 
d="M30 470h250v30q0 11 -9.5 20.5t-20.5 9.5t-20.5 -9.5t-9.5 -20.5h-190q0 47 16.5 87.5t46 70t70 46t87.5 16.5t87.5 -16.5t70 -46t46 -70t16.5 -87.5v-250q0 -47 -16.5 -87.5t-46 -70t-70 -46t-87.5 -16.5t-87.5 16.5t-70 46t-46 70t-16.5 87.5h190q0 -11 9.5 -20.5
t20.5 -9.5t20.5 9.5t9.5 20.5v30h-250v190z" />
    <glyph glyph-name="uni03F7" unicode="&#x3f7;" 
d="M220 720v-110h30q47 0 87.5 -16.5t70 -46t46 -70t16.5 -87.5t-16.5 -87.5t-46 -70t-70 -46t-87.5 -16.5h-30v-140h-190v690h190zM220 420v-60h30q11 0 20.5 9.5t9.5 20.5t-9.5 20.5t-20.5 9.5h-30z" />
    <glyph glyph-name="uni03F8" unicode="&#x3f8;" 
d="M220 720v-110h30q47 0 87.5 -16.5t70 -46t46 -70t16.5 -87.5t-16.5 -87.5t-46 -70t-70 -46t-87.5 -16.5h-30v-140h-190v690h190zM220 420v-60h30q11 0 20.5 9.5t9.5 20.5t-9.5 20.5t-20.5 9.5h-30z" />
    <glyph glyph-name="uni03F9" unicode="&#x3f9;" 
d="M30 500q0 47 16.5 87.5t46 70t70 46t87.5 16.5t87.5 -16.5t70 -46t46 -70t16.5 -87.5h-190q0 11 -9.5 20.5t-20.5 9.5t-20.5 -9.5t-9.5 -20.5v-250q0 -11 9.5 -20.5t20.5 -9.5t20.5 9.5t9.5 20.5h190q0 -47 -16.5 -87.5t-46 -70t-70 -46t-87.5 -16.5t-87.5 16.5t-70 46
t-46 70t-16.5 87.5v250z" />
    <glyph glyph-name="uni03FA" unicode="&#x3fa;" 
d="M15 30v530q0 72 34 116t106 44q29 0 49 -9t46 -27q26 18 46 27t49 9q72 0 106 -44t34 -116v-530h-160v470q0 11 0.5 20.5t-10.5 9.5t-10.5 -9.5t0.5 -20.5v-470h-110v470q0 11 0.5 20.5t-10.5 9.5t-10.5 -9.5t0.5 -20.5v-470h-160z" />
    <glyph glyph-name="uni03FB" unicode="&#x3fb;" 
d="M15 30v530q0 72 34 116t106 44q29 0 49 -9t46 -27q26 18 46 27t49 9q72 0 106 -44t34 -116v-530h-160v470q0 11 0.5 20.5t-10.5 9.5t-10.5 -9.5t0.5 -20.5v-470h-110v470q0 11 0.5 20.5t-10.5 9.5t-10.5 -9.5t0.5 -20.5v-470h-160z" />
    <glyph glyph-name="uni03FC" unicode="&#x3fc;" 
d="M250 720q47 0 87.5 -16.5t70 -46t46 -70t16.5 -87.5t-16.5 -87.5t-46 -70t-70 -46t-87.5 -16.5h-30v-60h30v-190h-30v-30h-190v720h220zM250 470q11 0 20.5 9.5t9.5 20.5t-9.5 20.5t-20.5 9.5h-30v-60h30z" />
    <glyph glyph-name="uni03FD" unicode="&#x3fd;" 
d="M220 250q0 -11 9.5 -20.5t20.5 -9.5t20.5 9.5t9.5 20.5v250q0 11 -9.5 20.5t-20.5 9.5t-20.5 -9.5t-9.5 -20.5h-190q0 47 16.5 87.5t46 70t70 46t87.5 16.5t87.5 -16.5t70 -46t46 -70t16.5 -87.5v-250q0 -47 -16.5 -87.5t-46 -70t-70 -46t-87.5 -16.5t-87.5 16.5t-70 46
t-46 70t-16.5 87.5h190z" />
    <glyph glyph-name="uni03FE" unicode="&#x3fe;" 
d="M30 500q0 47 16.5 87.5t46 70t70 46t87.5 16.5t87.5 -16.5t70 -46t46 -70t16.5 -87.5h-190q0 11 -9.5 20.5t-20.5 9.5t-20.5 -9.5t-9.5 -20.5v-250q0 -11 9.5 -20.5t20.5 -9.5t20.5 9.5t9.5 20.5h190q0 -47 -16.5 -87.5t-46 -70t-70 -46t-87.5 -16.5t-87.5 16.5t-70 46
t-46 70t-16.5 87.5v250zM250 280v190h220v-190h-220z" />
    <glyph glyph-name="uni03FF" unicode="&#x3ff;" 
d="M220 250q0 -11 9.5 -20.5t20.5 -9.5t20.5 9.5t9.5 20.5v250q0 11 -9.5 20.5t-20.5 9.5t-20.5 -9.5t-9.5 -20.5h-190q0 47 16.5 87.5t46 70t70 46t87.5 16.5t87.5 -16.5t70 -46t46 -70t16.5 -87.5v-250q0 -47 -16.5 -87.5t-46 -70t-70 -46t-87.5 -16.5t-87.5 16.5t-70 46
t-46 70t-16.5 87.5h190zM30 470h220v-190h-220v190z" />
    <glyph glyph-name="uni0400" unicode="&#x400;" 
d="M220 280v-60h250v-190h-440v470q0 73 36 125q-36 53 -36 125h190q0 -11 9.5 -20.5t20.5 -9.5h220v-190h-220q-11 0 -20.5 -9.5t-9.5 -20.5v-30h250v-190h-250z" />
    <glyph glyph-name="uni0401" unicode="&#x401;" 
d="M280 720v30h190v-220h-250v-60h250v-190h-250v-60h250v-190h-440v720h190v-30h60z" />
    <glyph glyph-name="uni0402" unicode="&#x402;" 
d="M-50 530v190h350v-190h-80v-60h30q47 0 87.5 -16.5t70 -46t46 -70t16.5 -87.5t-16.5 -87.5t-46 -70t-70 -46t-87.5 -16.5v190q11 0 20.5 9.5t9.5 20.5t-9.5 20.5t-20.5 9.5h-30v-250h-190v500h-80z" />
    <glyph glyph-name="uni0403" unicode="&#x403;" 
d="M30 30v690h220q11 0 20.5 9.5t9.5 20.5h190q0 -47 -16.5 -87.5t-46 -70t-70 -46t-87.5 -16.5h-30v-500h-190z" />
    <glyph glyph-name="uni0404" unicode="&#x404;" 
d="M30 500q0 47 16.5 87.5t46 70t70 46t87.5 16.5t87.5 -16.5t70 -46t46 -70t16.5 -87.5h-190q0 11 -9.5 20.5t-20.5 9.5t-20.5 -9.5t-9.5 -20.5v-30h250v-190h-250v-30q0 -11 9.5 -20.5t20.5 -9.5t20.5 9.5t9.5 20.5h190q0 -47 -16.5 -87.5t-46 -70t-70 -46t-87.5 -16.5
t-87.5 16.5t-70 46t-46 70t-16.5 87.5v250z" />
    <glyph glyph-name="uni0405" unicode="&#x405;" 
d="M220 250q0 -11 9.5 -20.5t20.5 -9.5t20.5 9.5t9.5 20.5t-9.5 20.5t-20.5 9.5q-47 0 -87.5 16.5t-70 46t-46 70t-16.5 87.5t16.5 87.5t46 70t70 46t87.5 16.5t87.5 -16.5t70 -46t46 -70t16.5 -87.5h-190q0 11 -9.5 20.5t-20.5 9.5t-20.5 -9.5t-9.5 -20.5t9.5 -20.5
t20.5 -9.5q47 0 87.5 -16.5t70 -46t46 -70t16.5 -87.5t-16.5 -87.5t-46 -70t-70 -46t-87.5 -16.5t-87.5 16.5t-70 46t-46 70t-16.5 87.5h190z" />
    <glyph glyph-name="uni0406" unicode="&#x406;" 
d="M65 30v190h90v310h-90v190h370v-190h-90v-310h90v-190h-370z" />
    <glyph glyph-name="uni0407" unicode="&#x407;" 
d="M345 500v-470h-190v470h190zM125 530v190h250v-190h-250z" />
    <glyph glyph-name="uni0408" unicode="&#x408;" 
d="M30 250h190q0 -11 9.5 -20.5t20.5 -9.5t20.5 9.5t9.5 20.5v280h-100v190h290v-470q0 -47 -16.5 -87.5t-46 -70t-70 -46t-87.5 -16.5t-87.5 16.5t-70 46t-46 70t-16.5 87.5z" />
    <glyph glyph-name="uni0409" unicode="&#x409;" 
d="M-15 30v190q11 0 20.5 9.5t9.5 20.5v470h290v-250q47 0 87.5 -16.5t70 -46t46 -70t16.5 -87.5t-16.5 -87.5t-46 -70t-70 -46t-87.5 -16.5h-120v500h-20v-280q0 -24 -1 -46t-5 -41.5t-12.5 -36.5t-24.5 -33t-30 -27.5t-30 -19.5t-34.5 -12t-42.5 -4zM305 280v-60
q11 0 20.5 9.5t9.5 20.5t-9.5 20.5t-20.5 9.5z" />
    <glyph glyph-name="uni040A" unicode="&#x40a;" 
d="M-5 30v690h140v-250h30v250h130v-250q47 0 87.5 -16.5t70 -46t46 -70t16.5 -87.5t-16.5 -87.5t-46 -70t-70 -46t-87.5 -16.5h-130v250h-30v-250h-140zM295 220q11 0 20.5 9.5t9.5 20.5t-9.5 20.5t-20.5 9.5v-60z" />
    <glyph glyph-name="uni040B" unicode="&#x40b;" 
d="M-50 720h350v-190h-80v-60h30q47 0 87.5 -16.5t70 -46t46 -70t16.5 -87.5v-220h-190v220q0 11 -9.5 20.5t-20.5 9.5h-30v-250h-190v500h-80v190z" />
    <glyph glyph-name="uni040C" unicode="&#x40c;" 
d="M220 720v-250h30q11 0 20.5 9.5t9.5 20.5h190q0 -72 -36 -125q36 -52 36 -125v-220h-190v220q0 11 -9.5 20.5t-20.5 9.5h-30v-250h-190v690h190zM250 720q11 0 20.5 9.5t9.5 20.5h190q0 -47 -16.5 -87.5t-46 -70t-70 -46t-87.5 -16.5v190z" />
    <glyph glyph-name="uni040D" unicode="&#x40d;" 
d="M0 470q73 0 125 -36q53 36 125 36h220v-440h-190v250h-30q-11 0 -20.5 -9.5t-9.5 -20.5v-220h-190v220q0 11 -9.5 20.5t-20.5 9.5v190zM220 750q0 -11 9.5 -20.5t20.5 -9.5v-190q-47 0 -87.5 16.5t-70 46t-46 70t-16.5 87.5h190z" />
    <glyph glyph-name="uni040E" unicode="&#x40e;" 
d="M250 220q11 0 20.5 9.5t9.5 20.5v30h-30q-47 0 -87.5 16.5t-70 46t-46 70t-16.5 87.5h190q0 -11 9.5 -20.5t20.5 -9.5h30v30h190v-250q0 -47 -16.5 -87.5t-46 -70t-70 -46t-87.5 -16.5h-220v190h220zM220 750q0 -11 9.5 -20.5t20.5 -9.5t20.5 9.5t9.5 20.5h190
q0 -47 -16.5 -87.5t-46 -70t-70 -46t-87.5 -16.5t-87.5 16.5t-70 46t-46 70t-16.5 87.5h190z" />
    <glyph glyph-name="uni040F" unicode="&#x40f;" 
d="M280 220v500h190v-690h-250v-30h-190v720h190v-500h60z" />
    <glyph glyph-name="uni0410" unicode="&#x410;" 
d="M30 500q0 47 16.5 87.5t46 70t70 46t87.5 16.5t87.5 -16.5t70 -46t46 -70t16.5 -87.5v-470h-190v250h-60v-250h-190v470zM280 470v30q0 11 -9.5 20.5t-20.5 9.5t-20.5 -9.5t-9.5 -20.5v-30h60z" />
    <glyph glyph-name="uni0411" unicode="&#x411;" 
d="M30 720h440v-190h-250v-60h30q47 0 87.5 -16.5t70 -46t46 -70t16.5 -87.5t-16.5 -87.5t-46 -70t-70 -46t-87.5 -16.5h-220v690zM220 280v-60h30q11 0 20.5 9.5t9.5 20.5t-9.5 20.5t-20.5 9.5h-30z" />
    <glyph glyph-name="uni0412" unicode="&#x412;" 
d="M30 30v690h220q47 0 87.5 -16.5t70 -46t46 -70t16.5 -87.5q0 -72 -36 -125q36 -52 36 -125q0 -47 -16.5 -87.5t-46 -70t-70 -46t-87.5 -16.5h-220zM250 470q11 0 20.5 9.5t9.5 20.5t-9.5 20.5t-20.5 9.5h-30v-60h30zM220 280v-60h30q11 0 20.5 9.5t9.5 20.5t-9.5 20.5
t-20.5 9.5h-30z" />
    <glyph glyph-name="uni0413" unicode="&#x413;" 
d="M30 720h440v-190h-250v-500h-190v690z" />
    <glyph glyph-name="uni0414" unicode="&#x414;" 
d="M30 0v720h440v-720h-190v30h-60v-30h-190zM220 220h60v310h-60v-310z" />
    <glyph glyph-name="uni0415" unicode="&#x415;" 
d="M30 720h440v-190h-250v-60h250v-190h-250v-60h250v-190h-440v690z" />
    <glyph glyph-name="uni0416" unicode="&#x416;" 
d="M61 375q-36 53 -36 125v220h140v-220q0 -8 6.5 -16t13.5 -12v248h130v-248q7 4 13.5 12t6.5 16v220h140v-220q0 -72 -36 -125q36 -52 36 -125v-220h-140v220q0 8 -6.5 16t-13.5 12v-248h-130v248q-7 -4 -13.5 -12t-6.5 -16v-220h-140v220q0 73 36 125z" />
    <glyph glyph-name="uni0417" unicode="&#x417;" 
d="M220 500h-190q0 47 16.5 87.5t46 70t70 46t87.5 16.5t87.5 -16.5t70 -46t46 -70t16.5 -87.5q0 -72 -36 -125q36 -52 36 -125q0 -47 -16.5 -87.5t-46 -70t-70 -46t-87.5 -16.5t-87.5 16.5t-70 46t-46 70t-16.5 87.5h190q0 -11 9.5 -20.5t20.5 -9.5t20.5 9.5t9.5 20.5
t-9.5 20.5t-20.5 9.5h-220v190h220q11 0 20.5 9.5t9.5 20.5t-9.5 20.5t-20.5 9.5t-20.5 -9.5t-9.5 -20.5z" />
    <glyph glyph-name="uni0418" unicode="&#x418;" 
d="M30 500q0 11 -9.5 20.5t-20.5 9.5v190q73 0 125 -36q53 36 125 36h220v-690h-190v500h-30q-11 0 -20.5 -9.5t-9.5 -20.5v-470h-190v470z" />
    <glyph glyph-name="uni0419" unicode="&#x419;" 
d="M0 470q73 0 125 -36q53 36 125 36h220v-440h-190v250h-30q-11 0 -20.5 -9.5t-9.5 -20.5v-220h-190v220q0 11 -9.5 20.5t-20.5 9.5v190zM220 750q0 -11 9.5 -20.5t20.5 -9.5t20.5 9.5t9.5 20.5h190q0 -47 -16.5 -87.5t-46 -70t-70 -46t-87.5 -16.5t-87.5 16.5t-70 46
t-46 70t-16.5 87.5h190z" />
    <glyph glyph-name="uni041A" unicode="&#x41a;" 
d="M220 720v-250h30q11 0 20.5 9.5t9.5 20.5v220h190v-220q0 -72 -36 -125q36 -52 36 -125v-220h-190v220q0 11 -9.5 20.5t-20.5 9.5h-30v-250h-190v690h190z" />
    <glyph glyph-name="uni041B" unicode="&#x41b;" 
d="M0 30v190q11 0 20.5 9.5t9.5 20.5v470h440v-690h-190v500h-60v-280q0 -47 -16.5 -87.5t-46 -70t-70 -46t-87.5 -16.5z" />
    <glyph glyph-name="uni041C" unicode="&#x41c;" 
d="M15 30v530q0 72 34 116t106 44q29 0 49 -9t46 -27q26 18 46 27t49 9q72 0 106 -44t34 -116v-530h-160v470q0 11 0.5 20.5t-10.5 9.5t-10.5 -9.5t0.5 -20.5v-470h-110v470q0 11 0.5 20.5t-10.5 9.5t-10.5 -9.5t0.5 -20.5v-470h-160z" />
    <glyph glyph-name="uni041D" unicode="&#x41d;" 
d="M220 720v-250h60v250h190v-690h-190v250h-60v-250h-190v690h190z" />
    <glyph glyph-name="uni041E" unicode="&#x41e;" 
d="M30 500q0 47 16.5 87.5t46 70t70 46t87.5 16.5t87.5 -16.5t70 -46t46 -70t16.5 -87.5v-250q0 -47 -16.5 -87.5t-46 -70t-70 -46t-87.5 -16.5t-87.5 16.5t-70 46t-46 70t-16.5 87.5v250zM220 250q0 -11 9.5 -20.5t20.5 -9.5t20.5 9.5t9.5 20.5v250q0 11 -9.5 20.5
t-20.5 9.5t-20.5 -9.5t-9.5 -20.5v-250z" />
    <glyph glyph-name="uni041F" unicode="&#x41f;" 
d="M30 30v690h440v-690h-190v500h-60v-500h-190z" />
    <glyph glyph-name="uni0420" unicode="&#x420;" 
d="M30 30v690h220q47 0 87.5 -16.5t70 -46t46 -70t16.5 -87.5t-16.5 -87.5t-46 -70t-70 -46t-87.5 -16.5h-30v-250h-190zM250 470q11 0 20.5 9.5t9.5 20.5t-9.5 20.5t-20.5 9.5h-30v-60h30z" />
    <glyph glyph-name="uni0421" unicode="&#x421;" 
d="M30 500q0 47 16.5 87.5t46 70t70 46t87.5 16.5t87.5 -16.5t70 -46t46 -70t16.5 -87.5h-190q0 11 -9.5 20.5t-20.5 9.5t-20.5 -9.5t-9.5 -20.5v-250q0 -11 9.5 -20.5t20.5 -9.5t20.5 9.5t9.5 20.5h190q0 -47 -16.5 -87.5t-46 -70t-70 -46t-87.5 -16.5t-87.5 16.5t-70 46
t-46 70t-16.5 87.5v250z" />
    <glyph glyph-name="uni0422" unicode="&#x422;" 
d="M25 720h450v-190h-130v-500h-190v500h-130v190z" />
    <glyph glyph-name="uni0423" unicode="&#x423;" 
d="M30 220h220q11 0 20.5 9.5t9.5 20.5v30h-30q-47 0 -87.5 16.5t-70 46t-46 70t-16.5 87.5v220h190v-220q0 -11 9.5 -20.5t20.5 -9.5h30v250h190v-470q0 -47 -16.5 -87.5t-46 -70t-70 -46t-87.5 -16.5h-220v190z" />
    <glyph glyph-name="uni0424" unicode="&#x424;" 
d="M25 400q0 36 10.5 69.5t30 61t47 48.5t62.5 31v110h150v-110q35 -10 62.5 -31t47 -48.5t30 -61t10.5 -69.5t-10.5 -69.5t-30 -61t-47 -48t-62.5 -31.5v-160h-150v160q-35 11 -62.5 31.5t-47 48t-30 61t-10.5 69.5zM335 400q0 10 -10 20v-40q10 10 10 20zM175 420
q-10 -10 -10 -20t10 -20v40z" />
    <glyph glyph-name="uni0425" unicode="&#x425;" 
d="M30 720h190v-220q0 -11 9.5 -20.5t20.5 -9.5t20.5 9.5t9.5 20.5v220h190v-220q0 -72 -36 -125q36 -52 36 -125v-220h-190v220q0 11 -9.5 20.5t-20.5 9.5t-20.5 -9.5t-9.5 -20.5v-220h-190v220q0 73 36 125q-36 53 -36 125v220z" />
    <glyph glyph-name="uni0426" unicode="&#x426;" 
d="M30 720h190v-500h60v500h190v-720h-190v30h-250v690z" />
    <glyph glyph-name="uni0427" unicode="&#x427;" 
d="M30 500v220h190v-220q0 -11 9.5 -20.5t20.5 -9.5h30v250h190v-690h-190v250h-30q-47 0 -87.5 16.5t-70 46t-46 70t-16.5 87.5z" />
    <glyph glyph-name="uni0428" unicode="&#x428;" 
d="M15 30v690h150v-500h20v500h130v-500h20v500h150v-690h-470z" />
    <glyph glyph-name="uni0429" unicode="&#x429;" 
d="M15 30v690h150v-500h20v500h130v-500h20v500h150v-770h-150v80h-320z" />
    <glyph glyph-name="uni042A" unicode="&#x42a;" 
d="M-50 720h270v-250h30q47 0 87.5 -16.5t70 -46t46 -70t16.5 -87.5t-16.5 -87.5t-46 -70t-70 -46t-87.5 -16.5h-220v500h-80v190zM220 280v-60h30q11 0 20.5 9.5t9.5 20.5t-9.5 20.5t-20.5 9.5h-30z" />
    <glyph glyph-name="uni042B" unicode="&#x42b;" 
d="M15 720h160v-255q30 -6 54.5 -20.5t47.5 -37.5q32 -32 45 -70t13 -87q0 -47 -15 -87t-42 -69.5t-66 -46.5t-87 -17h-110v690zM485 720v-690h-140v690h140zM175 222q7 4 13.5 12t6.5 16t-6.5 16t-13.5 12v-56z" />
    <glyph glyph-name="uni042C" unicode="&#x42c;" 
d="M220 720v-250h30q47 0 87.5 -16.5t70 -46t46 -70t16.5 -87.5t-16.5 -87.5t-46 -70t-70 -46t-87.5 -16.5h-220v690h190zM220 280v-60h30q11 0 20.5 9.5t9.5 20.5t-9.5 20.5t-20.5 9.5h-30z" />
    <glyph glyph-name="uni042D" unicode="&#x42d;" 
d="M30 470h250v30q0 11 -9.5 20.5t-20.5 9.5t-20.5 -9.5t-9.5 -20.5h-190q0 47 16.5 87.5t46 70t70 46t87.5 16.5t87.5 -16.5t70 -46t46 -70t16.5 -87.5v-250q0 -47 -16.5 -87.5t-46 -70t-70 -46t-87.5 -16.5t-87.5 16.5t-70 46t-46 70t-16.5 87.5h190q0 -11 9.5 -20.5
t20.5 -9.5t20.5 9.5t9.5 20.5v30h-250v190z" />
    <glyph glyph-name="uni042E" unicode="&#x42e;" 
d="M-5 30v690h140v-250h10v30q0 24 1 46t5 41.5t12.5 36.5t24.5 33t30 27.5t30 19.5t34.5 12t42.5 4t42.5 -4t34.5 -12t30 -19.5t30 -27.5t24.5 -33t12.5 -36.5t5 -41.5t1 -46v-250q0 -24 -1 -46t-5 -41.5t-12.5 -36.5t-24.5 -33t-30 -27.5t-30 -19.5t-34.5 -12t-42.5 -4
t-42.5 4t-34.5 12t-30 19.5t-30 27.5q-31 32 -37 70t-6 87v30h-10v-250h-140zM295 500v-250q0 -11 9.5 -20.5t20.5 -9.5t20.5 9.5t9.5 20.5v250q0 11 -9.5 20.5t-20.5 9.5t-20.5 -9.5t-9.5 -20.5z" />
    <glyph glyph-name="uni042F" unicode="&#x42f;" 
d="M30 250q0 73 36 125q-36 53 -36 125q0 47 16.5 87.5t46 70t70 46t87.5 16.5h220v-690h-190v250h-30q-11 0 -20.5 -9.5t-9.5 -20.5v-220h-190v220zM220 500q0 -11 9.5 -20.5t20.5 -9.5h30v60h-30q-11 0 -20.5 -9.5t-9.5 -20.5z" />
    <glyph glyph-name="uni0430" unicode="&#x430;" 
d="M30 500q0 47 16.5 87.5t46 70t70 46t87.5 16.5t87.5 -16.5t70 -46t46 -70t16.5 -87.5v-470h-190v250h-60v-250h-190v470zM280 470v30q0 11 -9.5 20.5t-20.5 9.5t-20.5 -9.5t-9.5 -20.5v-30h60z" />
    <glyph glyph-name="uni0431" unicode="&#x431;" 
d="M30 720h440v-190h-250v-60h30q47 0 87.5 -16.5t70 -46t46 -70t16.5 -87.5t-16.5 -87.5t-46 -70t-70 -46t-87.5 -16.5h-220v690zM220 280v-60h30q11 0 20.5 9.5t9.5 20.5t-9.5 20.5t-20.5 9.5h-30z" />
    <glyph glyph-name="uni0432" unicode="&#x432;" 
d="M30 30v690h220q47 0 87.5 -16.5t70 -46t46 -70t16.5 -87.5q0 -72 -36 -125q36 -52 36 -125q0 -47 -16.5 -87.5t-46 -70t-70 -46t-87.5 -16.5h-220zM250 470q11 0 20.5 9.5t9.5 20.5t-9.5 20.5t-20.5 9.5h-30v-60h30zM220 280v-60h30q11 0 20.5 9.5t9.5 20.5t-9.5 20.5
t-20.5 9.5h-30z" />
    <glyph glyph-name="uni0433" unicode="&#x433;" 
d="M30 720h440v-190h-250v-500h-190v690z" />
    <glyph glyph-name="uni0434" unicode="&#x434;" 
d="M30 0v720h440v-720h-190v30h-60v-30h-190zM220 220h60v310h-60v-310z" />
    <glyph glyph-name="uni0435" unicode="&#x435;" 
d="M30 720h440v-190h-250v-60h250v-190h-250v-60h250v-190h-440v690z" />
    <glyph glyph-name="uni0436" unicode="&#x436;" 
d="M61 375q-36 53 -36 125v220h140v-220q0 -8 6.5 -16t13.5 -12v248h130v-248q7 4 13.5 12t6.5 16v220h140v-220q0 -72 -36 -125q36 -52 36 -125v-220h-140v220q0 8 -6.5 16t-13.5 12v-248h-130v248q-7 -4 -13.5 -12t-6.5 -16v-220h-140v220q0 73 36 125z" />
    <glyph glyph-name="uni0437" unicode="&#x437;" 
d="M220 500h-190q0 47 16.5 87.5t46 70t70 46t87.5 16.5t87.5 -16.5t70 -46t46 -70t16.5 -87.5q0 -72 -36 -125q36 -52 36 -125q0 -47 -16.5 -87.5t-46 -70t-70 -46t-87.5 -16.5t-87.5 16.5t-70 46t-46 70t-16.5 87.5h190q0 -11 9.5 -20.5t20.5 -9.5t20.5 9.5t9.5 20.5
t-9.5 20.5t-20.5 9.5h-220v190h220q11 0 20.5 9.5t9.5 20.5t-9.5 20.5t-20.5 9.5t-20.5 -9.5t-9.5 -20.5z" />
    <glyph glyph-name="uni0438" unicode="&#x438;" 
d="M30 500q0 11 -9.5 20.5t-20.5 9.5v190q73 0 125 -36q53 36 125 36h220v-690h-190v500h-30q-11 0 -20.5 -9.5t-9.5 -20.5v-470h-190v470z" />
    <glyph glyph-name="uni0439" unicode="&#x439;" 
d="M0 470q73 0 125 -36q53 36 125 36h220v-440h-190v250h-30q-11 0 -20.5 -9.5t-9.5 -20.5v-220h-190v220q0 11 -9.5 20.5t-20.5 9.5v190zM220 750q0 -11 9.5 -20.5t20.5 -9.5t20.5 9.5t9.5 20.5h190q0 -47 -16.5 -87.5t-46 -70t-70 -46t-87.5 -16.5t-87.5 16.5t-70 46
t-46 70t-16.5 87.5h190z" />
    <glyph glyph-name="uni043A" unicode="&#x43a;" 
d="M220 720v-250h30q11 0 20.5 9.5t9.5 20.5v220h190v-220q0 -72 -36 -125q36 -52 36 -125v-220h-190v220q0 11 -9.5 20.5t-20.5 9.5h-30v-250h-190v690h190z" />
    <glyph glyph-name="uni043B" unicode="&#x43b;" 
d="M0 30v190q11 0 20.5 9.5t9.5 20.5v470h440v-690h-190v500h-60v-280q0 -47 -16.5 -87.5t-46 -70t-70 -46t-87.5 -16.5z" />
    <glyph glyph-name="uni043C" unicode="&#x43c;" 
d="M15 30v530q0 72 34 116t106 44q29 0 49 -9t46 -27q26 18 46 27t49 9q72 0 106 -44t34 -116v-530h-160v470q0 11 0.5 20.5t-10.5 9.5t-10.5 -9.5t0.5 -20.5v-470h-110v470q0 11 0.5 20.5t-10.5 9.5t-10.5 -9.5t0.5 -20.5v-470h-160z" />
    <glyph glyph-name="uni043D" unicode="&#x43d;" 
d="M220 720v-250h60v250h190v-690h-190v250h-60v-250h-190v690h190z" />
    <glyph glyph-name="uni043E" unicode="&#x43e;" 
d="M30 500q0 47 16.5 87.5t46 70t70 46t87.5 16.5t87.5 -16.5t70 -46t46 -70t16.5 -87.5v-250q0 -47 -16.5 -87.5t-46 -70t-70 -46t-87.5 -16.5t-87.5 16.5t-70 46t-46 70t-16.5 87.5v250zM220 250q0 -11 9.5 -20.5t20.5 -9.5t20.5 9.5t9.5 20.5v250q0 11 -9.5 20.5
t-20.5 9.5t-20.5 -9.5t-9.5 -20.5v-250z" />
    <glyph glyph-name="uni043F" unicode="&#x43f;" 
d="M30 30v690h440v-690h-190v500h-60v-500h-190z" />
    <glyph glyph-name="uni0440" unicode="&#x440;" 
d="M30 30v690h220q47 0 87.5 -16.5t70 -46t46 -70t16.5 -87.5t-16.5 -87.5t-46 -70t-70 -46t-87.5 -16.5h-30v-250h-190zM250 470q11 0 20.5 9.5t9.5 20.5t-9.5 20.5t-20.5 9.5h-30v-60h30z" />
    <glyph glyph-name="uni0441" unicode="&#x441;" 
d="M30 500q0 47 16.5 87.5t46 70t70 46t87.5 16.5t87.5 -16.5t70 -46t46 -70t16.5 -87.5h-190q0 11 -9.5 20.5t-20.5 9.5t-20.5 -9.5t-9.5 -20.5v-250q0 -11 9.5 -20.5t20.5 -9.5t20.5 9.5t9.5 20.5h190q0 -47 -16.5 -87.5t-46 -70t-70 -46t-87.5 -16.5t-87.5 16.5t-70 46
t-46 70t-16.5 87.5v250z" />
    <glyph glyph-name="uni0442" unicode="&#x442;" 
d="M25 720h450v-190h-130v-500h-190v500h-130v190z" />
    <glyph glyph-name="uni0443" unicode="&#x443;" 
d="M30 220h220q11 0 20.5 9.5t9.5 20.5v30h-30q-47 0 -87.5 16.5t-70 46t-46 70t-16.5 87.5v220h190v-220q0 -11 9.5 -20.5t20.5 -9.5h30v250h190v-470q0 -47 -16.5 -87.5t-46 -70t-70 -46t-87.5 -16.5h-220v190z" />
    <glyph glyph-name="uni0444" unicode="&#x444;" 
d="M25 400q0 36 10.5 69.5t30 61t47 48.5t62.5 31v110h150v-110q35 -10 62.5 -31t47 -48.5t30 -61t10.5 -69.5t-10.5 -69.5t-30 -61t-47 -48t-62.5 -31.5v-160h-150v160q-35 11 -62.5 31.5t-47 48t-30 61t-10.5 69.5zM335 400q0 10 -10 20v-40q10 10 10 20zM175 420
q-10 -10 -10 -20t10 -20v40z" />
    <glyph glyph-name="uni0445" unicode="&#x445;" 
d="M30 720h190v-220q0 -11 9.5 -20.5t20.5 -9.5t20.5 9.5t9.5 20.5v220h190v-220q0 -72 -36 -125q36 -52 36 -125v-220h-190v220q0 11 -9.5 20.5t-20.5 9.5t-20.5 -9.5t-9.5 -20.5v-220h-190v220q0 73 36 125q-36 53 -36 125v220z" />
    <glyph glyph-name="uni0446" unicode="&#x446;" 
d="M30 720h190v-500h60v500h190v-720h-190v30h-250v690z" />
    <glyph glyph-name="uni0447" unicode="&#x447;" 
d="M30 500v220h190v-220q0 -11 9.5 -20.5t20.5 -9.5h30v250h190v-690h-190v250h-30q-47 0 -87.5 16.5t-70 46t-46 70t-16.5 87.5z" />
    <glyph glyph-name="uni0448" unicode="&#x448;" 
d="M15 30v690h150v-500h20v500h130v-500h20v500h150v-690h-470z" />
    <glyph glyph-name="uni0449" unicode="&#x449;" 
d="M15 30v690h150v-500h20v500h130v-500h20v500h150v-770h-150v80h-320z" />
    <glyph glyph-name="uni044A" unicode="&#x44a;" 
d="M-50 720h270v-250h30q47 0 87.5 -16.5t70 -46t46 -70t16.5 -87.5t-16.5 -87.5t-46 -70t-70 -46t-87.5 -16.5h-220v500h-80v190zM220 280v-60h30q11 0 20.5 9.5t9.5 20.5t-9.5 20.5t-20.5 9.5h-30z" />
    <glyph glyph-name="uni044B" unicode="&#x44b;" 
d="M15 720h160v-255q30 -6 54.5 -20.5t47.5 -37.5q32 -32 45 -70t13 -87q0 -47 -15 -87t-42 -69.5t-66 -46.5t-87 -17h-110v690zM485 720v-690h-140v690h140zM175 222q7 4 13.5 12t6.5 16t-6.5 16t-13.5 12v-56z" />
    <glyph glyph-name="uni044C" unicode="&#x44c;" 
d="M220 720v-250h30q47 0 87.5 -16.5t70 -46t46 -70t16.5 -87.5t-16.5 -87.5t-46 -70t-70 -46t-87.5 -16.5h-220v690h190zM220 280v-60h30q11 0 20.5 9.5t9.5 20.5t-9.5 20.5t-20.5 9.5h-30z" />
    <glyph glyph-name="uni044D" unicode="&#x44d;" 
d="M30 470h250v30q0 11 -9.5 20.5t-20.5 9.5t-20.5 -9.5t-9.5 -20.5h-190q0 47 16.5 87.5t46 70t70 46t87.5 16.5t87.5 -16.5t70 -46t46 -70t16.5 -87.5v-250q0 -47 -16.5 -87.5t-46 -70t-70 -46t-87.5 -16.5t-87.5 16.5t-70 46t-46 70t-16.5 87.5h190q0 -11 9.5 -20.5
t20.5 -9.5t20.5 9.5t9.5 20.5v30h-250v190z" />
    <glyph glyph-name="uni044E" unicode="&#x44e;" 
d="M-5 30v690h140v-250h10v30q0 24 1 46t5 41.5t12.5 36.5t24.5 33t30 27.5t30 19.5t34.5 12t42.5 4t42.5 -4t34.5 -12t30 -19.5t30 -27.5t24.5 -33t12.5 -36.5t5 -41.5t1 -46v-250q0 -24 -1 -46t-5 -41.5t-12.5 -36.5t-24.5 -33t-30 -27.5t-30 -19.5t-34.5 -12t-42.5 -4
t-42.5 4t-34.5 12t-30 19.5t-30 27.5q-31 32 -37 70t-6 87v30h-10v-250h-140zM295 500v-250q0 -11 9.5 -20.5t20.5 -9.5t20.5 9.5t9.5 20.5v250q0 11 -9.5 20.5t-20.5 9.5t-20.5 -9.5t-9.5 -20.5z" />
    <glyph glyph-name="uni044F" unicode="&#x44f;" 
d="M30 250q0 73 36 125q-36 53 -36 125q0 47 16.5 87.5t46 70t70 46t87.5 16.5h220v-690h-190v250h-30q-11 0 -20.5 -9.5t-9.5 -20.5v-220h-190v220zM220 500q0 -11 9.5 -20.5t20.5 -9.5h30v60h-30q-11 0 -20.5 -9.5t-9.5 -20.5z" />
    <glyph glyph-name="uni0450" unicode="&#x450;" 
d="M220 280v-60h250v-190h-440v470q0 73 36 125q-36 53 -36 125h190q0 -11 9.5 -20.5t20.5 -9.5h220v-190h-220q-11 0 -20.5 -9.5t-9.5 -20.5v-30h250v-190h-250z" />
    <glyph glyph-name="uni0451" unicode="&#x451;" 
d="M280 720v30h190v-220h-250v-60h250v-190h-250v-60h250v-190h-440v720h190v-30h60z" />
    <glyph glyph-name="uni0452" unicode="&#x452;" 
d="M-50 530v190h350v-190h-80v-60h30q47 0 87.5 -16.5t70 -46t46 -70t16.5 -87.5t-16.5 -87.5t-46 -70t-70 -46t-87.5 -16.5v190q11 0 20.5 9.5t9.5 20.5t-9.5 20.5t-20.5 9.5h-30v-250h-190v500h-80z" />
    <glyph glyph-name="uni0453" unicode="&#x453;" 
d="M30 30v690h220q11 0 20.5 9.5t9.5 20.5h190q0 -47 -16.5 -87.5t-46 -70t-70 -46t-87.5 -16.5h-30v-500h-190z" />
    <glyph glyph-name="uni0454" unicode="&#x454;" 
d="M30 500q0 47 16.5 87.5t46 70t70 46t87.5 16.5t87.5 -16.5t70 -46t46 -70t16.5 -87.5h-190q0 11 -9.5 20.5t-20.5 9.5t-20.5 -9.5t-9.5 -20.5v-30h250v-190h-250v-30q0 -11 9.5 -20.5t20.5 -9.5t20.5 9.5t9.5 20.5h190q0 -47 -16.5 -87.5t-46 -70t-70 -46t-87.5 -16.5
t-87.5 16.5t-70 46t-46 70t-16.5 87.5v250z" />
    <glyph glyph-name="uni0455" unicode="&#x455;" 
d="M220 250q0 -11 9.5 -20.5t20.5 -9.5t20.5 9.5t9.5 20.5t-9.5 20.5t-20.5 9.5q-47 0 -87.5 16.5t-70 46t-46 70t-16.5 87.5t16.5 87.5t46 70t70 46t87.5 16.5t87.5 -16.5t70 -46t46 -70t16.5 -87.5h-190q0 11 -9.5 20.5t-20.5 9.5t-20.5 -9.5t-9.5 -20.5t9.5 -20.5
t20.5 -9.5q47 0 87.5 -16.5t70 -46t46 -70t16.5 -87.5t-16.5 -87.5t-46 -70t-70 -46t-87.5 -16.5t-87.5 16.5t-70 46t-46 70t-16.5 87.5h190z" />
    <glyph glyph-name="uni0456" unicode="&#x456;" 
d="M65 30v190h90v310h-90v190h370v-190h-90v-310h90v-190h-370z" />
    <glyph glyph-name="uni0457" unicode="&#x457;" 
d="M345 500v-470h-190v470h190zM125 530v190h250v-190h-250z" />
    <glyph glyph-name="uni0458" unicode="&#x458;" 
d="M220 250q0 -11 9.5 -20.5t20.5 -9.5t20.5 9.5t9.5 20.5v280h-30v190h220v-470q0 -47 -16.5 -87.5t-46 -70t-70 -46t-87.5 -16.5t-87.5 16.5t-70 46t-46 70t-16.5 87.5h190z" />
    <glyph glyph-name="uni0459" unicode="&#x459;" 
d="M-15 30v190q11 0 20.5 9.5t9.5 20.5v470h290v-250q47 0 87.5 -16.5t70 -46t46 -70t16.5 -87.5t-16.5 -87.5t-46 -70t-70 -46t-87.5 -16.5h-120v500h-20v-280q0 -24 -1 -46t-5 -41.5t-12.5 -36.5t-24.5 -33t-30 -27.5t-30 -19.5t-34.5 -12t-42.5 -4zM305 280v-60
q11 0 20.5 9.5t9.5 20.5t-9.5 20.5t-20.5 9.5z" />
    <glyph glyph-name="uni045A" unicode="&#x45a;" 
d="M-5 30v690h140v-250h30v250h130v-250q47 0 87.5 -16.5t70 -46t46 -70t16.5 -87.5t-16.5 -87.5t-46 -70t-70 -46t-87.5 -16.5h-130v250h-30v-250h-140zM295 220q11 0 20.5 9.5t9.5 20.5t-9.5 20.5t-20.5 9.5v-60z" />
    <glyph glyph-name="uni045B" unicode="&#x45b;" 
d="M-50 720h350v-190h-80v-60h30q47 0 87.5 -16.5t70 -46t46 -70t16.5 -87.5v-220h-190v220q0 11 -9.5 20.5t-20.5 9.5h-30v-250h-190v500h-80v190z" />
    <glyph glyph-name="uni045C" unicode="&#x45c;" 
d="M220 720v-250h30q11 0 20.5 9.5t9.5 20.5h190q0 -72 -36 -125q36 -52 36 -125v-220h-190v220q0 11 -9.5 20.5t-20.5 9.5h-30v-250h-190v690h190zM250 720q11 0 20.5 9.5t9.5 20.5h190q0 -47 -16.5 -87.5t-46 -70t-70 -46t-87.5 -16.5v190z" />
    <glyph glyph-name="uni045D" unicode="&#x45d;" 
d="M0 470q73 0 125 -36q53 36 125 36h220v-440h-190v250h-30q-11 0 -20.5 -9.5t-9.5 -20.5v-220h-190v220q0 11 -9.5 20.5t-20.5 9.5v190zM220 750q0 -11 9.5 -20.5t20.5 -9.5v-190q-47 0 -87.5 16.5t-70 46t-46 70t-16.5 87.5h190z" />
    <glyph glyph-name="uni045E" unicode="&#x45e;" 
d="M250 220q11 0 20.5 9.5t9.5 20.5v30h-30q-47 0 -87.5 16.5t-70 46t-46 70t-16.5 87.5h190q0 -11 9.5 -20.5t20.5 -9.5h30v30h190v-250q0 -47 -16.5 -87.5t-46 -70t-70 -46t-87.5 -16.5h-220v190h220zM220 750q0 -11 9.5 -20.5t20.5 -9.5t20.5 9.5t9.5 20.5h190
q0 -47 -16.5 -87.5t-46 -70t-70 -46t-87.5 -16.5t-87.5 16.5t-70 46t-46 70t-16.5 87.5h190z" />
    <glyph glyph-name="uni045F" unicode="&#x45f;" 
d="M280 220v500h190v-690h-250v-30h-190v720h190v-500h60z" />
    <glyph glyph-name="uni0460" unicode="&#x460;" 
d="M15 720h160v-470q0 -11 -0.5 -20.5t10.5 -9.5t10.5 9.5t-0.5 20.5v470h110v-470q0 -11 -0.5 -20.5t10.5 -9.5t10.5 9.5t-0.5 20.5v470h160v-530q0 -72 -34 -116t-106 -44q-29 0 -49 9t-46 27q-26 -18 -46 -27t-49 -9q-72 0 -106 44t-34 116v530z" />
    <glyph glyph-name="uni0461" unicode="&#x461;" 
d="M15 720h160v-470q0 -11 -0.5 -20.5t10.5 -9.5t10.5 9.5t-0.5 20.5v470h110v-470q0 -11 -0.5 -20.5t10.5 -9.5t10.5 9.5t-0.5 20.5v470h160v-530q0 -72 -34 -116t-106 -44q-29 0 -49 9t-46 27q-26 -18 -46 -27t-49 -9q-72 0 -106 44t-34 116v530z" />
    <glyph glyph-name="uni0462" unicode="&#x462;" 
d="M-50 720h350v-190h-80v-60h30q47 0 87.5 -16.5t70 -46t46 -70t16.5 -87.5t-16.5 -87.5t-46 -70t-70 -46t-87.5 -16.5h-220v500h-80v190zM220 280v-60h30q11 0 20.5 9.5t9.5 20.5t-9.5 20.5t-20.5 9.5h-30z" />
    <glyph glyph-name="uni0463" unicode="&#x463;" 
d="M-50 720h350v-190h-80v-60h30q47 0 87.5 -16.5t70 -46t46 -70t16.5 -87.5t-16.5 -87.5t-46 -70t-70 -46t-87.5 -16.5h-220v500h-80v190zM220 280v-60h30q11 0 20.5 9.5t9.5 20.5t-9.5 20.5t-20.5 9.5h-30z" />
    <glyph glyph-name="uni0472" unicode="&#x472;" 
d="M30 500q0 47 16.5 87.5t46 70t70 46t87.5 16.5t87.5 -16.5t70 -46t46 -70t16.5 -87.5v-250q0 -47 -16.5 -87.5t-46 -70t-70 -46t-87.5 -16.5t-87.5 16.5t-70 46t-46 70t-16.5 87.5v250zM220 250q0 -11 9.5 -20.5t20.5 -9.5t20.5 9.5t9.5 20.5v30h-60v-30zM280 470v30
q0 11 -9.5 20.5t-20.5 9.5t-20.5 -9.5t-9.5 -20.5v-30h60z" />
    <glyph glyph-name="uni0473" unicode="&#x473;" 
d="M30 500q0 47 16.5 87.5t46 70t70 46t87.5 16.5t87.5 -16.5t70 -46t46 -70t16.5 -87.5v-250q0 -47 -16.5 -87.5t-46 -70t-70 -46t-87.5 -16.5t-87.5 16.5t-70 46t-46 70t-16.5 87.5v250zM220 250q0 -11 9.5 -20.5t20.5 -9.5t20.5 9.5t9.5 20.5v30h-60v-30zM280 470v30
q0 11 -9.5 20.5t-20.5 9.5t-20.5 -9.5t-9.5 -20.5v-30h60z" />
    <glyph glyph-name="uni0474" unicode="&#x474;" 
d="M220 720v-500h30q11 0 20.5 9.5t9.5 20.5v470h220v-190h-30v-280q0 -47 -16.5 -87.5t-46 -70t-70 -46t-87.5 -16.5h-220v690h190z" />
    <glyph glyph-name="uni0475" unicode="&#x475;" 
d="M220 720v-500h30q11 0 20.5 9.5t9.5 20.5v470h220v-190h-30v-280q0 -47 -16.5 -87.5t-46 -70t-70 -46t-87.5 -16.5h-220v690h190z" />
    <glyph glyph-name="uni048A" unicode="&#x48a;" 
d="M0 470q73 0 125 -36q53 36 125 36h220v-470h-190v280h-30q-11 0 -20.5 -9.5t-9.5 -20.5v-220h-190v220q0 11 -9.5 20.5t-20.5 9.5v190zM220 750q0 -11 9.5 -20.5t20.5 -9.5t20.5 9.5t9.5 20.5h190q0 -47 -16.5 -87.5t-46 -70t-70 -46t-87.5 -16.5t-87.5 16.5t-70 46
t-46 70t-16.5 87.5h190z" />
    <glyph glyph-name="uni048B" unicode="&#x48b;" 
d="M0 470q73 0 125 -36q53 36 125 36h220v-470h-190v280h-30q-11 0 -20.5 -9.5t-9.5 -20.5v-220h-190v220q0 11 -9.5 20.5t-20.5 9.5v190zM220 750q0 -11 9.5 -20.5t20.5 -9.5t20.5 9.5t9.5 20.5h190q0 -47 -16.5 -87.5t-46 -70t-70 -46t-87.5 -16.5t-87.5 16.5t-70 46
t-46 70t-16.5 87.5h190z" />
    <glyph glyph-name="uni048C" unicode="&#x48c;" 
d="M-50 720h350v-190h-80v-60h30q47 0 87.5 -16.5t70 -46t46 -70t16.5 -87.5t-16.5 -87.5t-46 -70t-70 -46t-87.5 -16.5h-220v500h-80v190zM220 280v-60h30q11 0 20.5 9.5t9.5 20.5t-9.5 20.5t-20.5 9.5h-30z" />
    <glyph glyph-name="uni048D" unicode="&#x48d;" 
d="M-50 720h350v-190h-80v-60h30q47 0 87.5 -16.5t70 -46t46 -70t16.5 -87.5t-16.5 -87.5t-46 -70t-70 -46t-87.5 -16.5h-220v500h-80v190zM220 280v-60h30q11 0 20.5 9.5t9.5 20.5t-9.5 20.5t-20.5 9.5h-30z" />
    <glyph glyph-name="uni048E" unicode="&#x48e;" 
d="M30 30v690h220q47 0 87.5 -16.5t70 -46t46 -70t16.5 -87.5q0 -72 -36 -125q36 -52 36 -125h-190q0 11 -9.5 20.5t-20.5 9.5h-30v-250h-190zM250 470q11 0 20.5 9.5t9.5 20.5t-9.5 20.5t-20.5 9.5h-30v-60h30z" />
    <glyph glyph-name="uni048F" unicode="&#x48f;" 
d="M30 30v690h220q47 0 87.5 -16.5t70 -46t46 -70t16.5 -87.5q0 -72 -36 -125q36 -52 36 -125h-190q0 11 -9.5 20.5t-20.5 9.5h-30v-250h-190zM250 470q11 0 20.5 9.5t9.5 20.5t-9.5 20.5t-20.5 9.5h-30v-60h30z" />
    <glyph glyph-name="uni0490" unicode="&#x490;" 
d="M30 720h250v30h190v-220h-250v-500h-190v690z" />
    <glyph glyph-name="uni0491" unicode="&#x491;" 
d="M30 720h250v30h190v-220h-250v-500h-190v690z" />
    <glyph glyph-name="uni0492" unicode="&#x492;" 
d="M30 470v250h440v-190h-250v-500h-190v250h-30v190h30zM250 280v190h220v-190h-220z" />
    <glyph glyph-name="uni0493" unicode="&#x493;" 
d="M30 470v250h440v-190h-250v-500h-190v250h-30v190h30zM250 280v190h220v-190h-220z" />
    <glyph glyph-name="uni0494" unicode="&#x494;" 
d="M470 720v-190h-250v-60h30q47 0 87.5 -16.5t70 -46t46 -70t16.5 -87.5t-16.5 -87.5t-46 -70t-70 -46t-87.5 -16.5h-220v190h220q11 0 20.5 9.5t9.5 20.5t-9.5 20.5t-20.5 9.5h-30v-30h-190v470h440z" />
    <glyph glyph-name="uni0495" unicode="&#x495;" 
d="M470 720v-190h-250v-60h30q47 0 87.5 -16.5t70 -46t46 -70t16.5 -87.5t-16.5 -87.5t-46 -70t-70 -46t-87.5 -16.5h-220v190h220q11 0 20.5 9.5t9.5 20.5t-9.5 20.5t-20.5 9.5h-30v-30h-190v470h440z" />
    <glyph glyph-name="uni0496" unicode="&#x496;" 
d="M61 375q-36 53 -36 125v220h140v-220q0 -8 6.5 -16t13.5 -12v248h130v-248q7 4 13.5 12t6.5 16v220h140v-220q0 -72 -36 -125q36 -52 36 -125v-290h-140v290q0 8 -6.5 16t-13.5 12v-248h-130v248q-7 -4 -13.5 -12t-6.5 -16v-220h-140v220q0 73 36 125z" />
    <glyph glyph-name="uni0497" unicode="&#x497;" 
d="M61 375q-36 53 -36 125v220h140v-220q0 -8 6.5 -16t13.5 -12v248h130v-248q7 4 13.5 12t6.5 16v220h140v-220q0 -72 -36 -125q36 -52 36 -125v-290h-140v290q0 8 -6.5 16t-13.5 12v-248h-130v248q-7 -4 -13.5 -12t-6.5 -16v-220h-140v220q0 73 36 125z" />
    <glyph glyph-name="uni0498" unicode="&#x498;" 
d="M250 30q-47 0 -87.5 16.5t-70 46t-46 70t-16.5 87.5h190q0 -11 9.5 -20.5t20.5 -9.5t20.5 9.5t9.5 20.5t-9.5 20.5t-20.5 9.5h-220v190h220q11 0 20.5 9.5t9.5 20.5t-9.5 20.5t-20.5 9.5t-20.5 -9.5t-9.5 -20.5h-190q0 47 16.5 87.5t46 70t70 46t87.5 16.5t87.5 -16.5
t70 -46t46 -70t16.5 -87.5q0 -72 -36 -125q36 -52 36 -125q0 -72 -36 -125q36 -52 36 -125h-190q0 11 -9.5 20.5t-20.5 9.5z" />
    <glyph glyph-name="uni0499" unicode="&#x499;" 
d="M250 30q-47 0 -87.5 16.5t-70 46t-46 70t-16.5 87.5h190q0 -11 9.5 -20.5t20.5 -9.5t20.5 9.5t9.5 20.5t-9.5 20.5t-20.5 9.5h-220v190h220q11 0 20.5 9.5t9.5 20.5t-9.5 20.5t-20.5 9.5t-20.5 -9.5t-9.5 -20.5h-190q0 47 16.5 87.5t46 70t70 46t87.5 16.5t87.5 -16.5
t70 -46t46 -70t16.5 -87.5q0 -72 -36 -125q36 -52 36 -125q0 -72 -36 -125q36 -52 36 -125h-190q0 11 -9.5 20.5t-20.5 9.5z" />
    <glyph glyph-name="uni049A" unicode="&#x49a;" 
d="M220 720v-250h30q11 0 20.5 9.5t9.5 20.5v220h190v-220q0 -72 -36 -125q36 -52 36 -125v-250h-190v250q0 11 -9.5 20.5t-20.5 9.5h-30v-250h-190v690h190z" />
    <glyph glyph-name="uni049B" unicode="&#x49b;" 
d="M220 720v-250h30q11 0 20.5 9.5t9.5 20.5v220h190v-220q0 -72 -36 -125q36 -52 36 -125v-250h-190v250q0 11 -9.5 20.5t-20.5 9.5h-30v-250h-190v690h190z" />
    <glyph glyph-name="uni049C" unicode="&#x49c;" 
d="M15 30v690h170v-250h20v100h90v-98q7 4 13.5 12t6.5 16v220h170v-220q0 -72 -36 -125q36 -52 36 -125v-220h-170v220q0 8 -6.5 16t-13.5 12v-98h-90v100h-20v-250h-170z" />
    <glyph glyph-name="uni049D" unicode="&#x49d;" 
d="M15 30v690h170v-250h20v100h90v-98q7 4 13.5 12t6.5 16v220h170v-220q0 -72 -36 -125q36 -52 36 -125v-220h-170v220q0 8 -6.5 16t-13.5 12v-98h-90v100h-20v-250h-170z" />
    <glyph glyph-name="uni049E" unicode="&#x49e;" 
d="M0 530v190h250v-190h-30v-60h30q11 0 20.5 9.5t9.5 20.5v220h190v-220q0 -72 -36 -125q36 -52 36 -125v-220h-190v220q0 11 -9.5 20.5t-20.5 9.5h-30v-250h-190v500h-30z" />
    <glyph glyph-name="uni049F" unicode="&#x49f;" 
d="M0 530v190h250v-190h-30v-60h30q11 0 20.5 9.5t9.5 20.5v220h190v-220q0 -72 -36 -125q36 -52 36 -125v-220h-190v220q0 11 -9.5 20.5t-20.5 9.5h-30v-250h-190v500h-30z" />
    <glyph glyph-name="uni04A0" unicode="&#x4a0;" 
d="M0 720h220v-250h30q11 0 20.5 9.5t9.5 20.5v220h190v-220q0 -72 -36 -125q36 -52 36 -125v-220h-190v220q0 11 -9.5 20.5t-20.5 9.5h-30v-250h-190v500h-30v190z" />
    <glyph glyph-name="uni04A1" unicode="&#x4a1;" 
d="M0 720h220v-250h30q11 0 20.5 9.5t9.5 20.5v220h190v-220q0 -72 -36 -125q36 -52 36 -125v-220h-190v220q0 11 -9.5 20.5t-20.5 9.5h-30v-250h-190v500h-30v190z" />
    <glyph glyph-name="uni04A2" unicode="&#x4a2;" 
d="M220 720v-250h60v250h190v-720h-190v280h-60v-250h-190v690h190z" />
    <glyph glyph-name="uni04A3" unicode="&#x4a3;" 
d="M220 720v-250h60v250h190v-720h-190v280h-60v-250h-190v690h190z" />
    <glyph glyph-name="uni04A4" unicode="&#x4a4;" 
d="M30 30v690h190v-250h60v250h220v-190h-30v-500h-190v250h-60v-250h-190z" />
    <glyph glyph-name="uni04A5" unicode="&#x4a5;" 
d="M30 30v690h190v-250h60v250h220v-190h-30v-500h-190v250h-60v-250h-190z" />
    <glyph glyph-name="uni04A6" unicode="&#x4a6;" 
d="M345 720v-260q35 -10 62.5 -31t47 -48.5t30 -61t10.5 -69.5q0 -47 -16.5 -87.5t-46 -70t-70 -46t-87.5 -16.5h-90v500h-20v-500h-160v690h340z" />
    <glyph glyph-name="uni04A7" unicode="&#x4a7;" 
d="M345 720v-260q35 -10 62.5 -31t47 -48.5t30 -61t10.5 -69.5q0 -47 -16.5 -87.5t-46 -70t-70 -46t-87.5 -16.5h-90v500h-20v-500h-160v690h340z" />
    <glyph glyph-name="uni04A8" unicode="&#x4a8;" 
d="M6 500q0 35 8.5 73.5t27.5 71t48.5 54t71.5 21.5v-190q-7 0 -15 -10q-7 -10 -7 -20v-250q0 -6 2 -10.5t5 -9.5q8 -10 15 -10h21v280q0 35 8.5 73.5t27.5 71t48 54t71 21.5t71.5 -21.5t48.5 -54t27.5 -71t8.5 -73.5v-250q0 -35 -8.5 -73.5t-27.5 -71t-48.5 -54
t-71.5 -21.5h-176q-42 0 -71.5 21.5t-48.5 54t-27.5 71t-8.5 73.5v250zM338 220q7 0 15 10q3 5 5 9.5t2 10.5v250q0 10 -7 20q-8 10 -15 10q-6 0 -14 -10q-7 -10 -7 -20v-280h21z" />
    <glyph glyph-name="uni04A9" unicode="&#x4a9;" 
d="M6 500q0 35 8.5 73.5t27.5 71t48.5 54t71.5 21.5v-190q-7 0 -15 -10q-7 -10 -7 -20v-250q0 -6 2 -10.5t5 -9.5q8 -10 15 -10h21v280q0 35 8.5 73.5t27.5 71t48 54t71 21.5t71.5 -21.5t48.5 -54t27.5 -71t8.5 -73.5v-250q0 -35 -8.5 -73.5t-27.5 -71t-48.5 -54
t-71.5 -21.5h-176q-42 0 -71.5 21.5t-48.5 54t-27.5 71t-8.5 73.5v250zM338 220q7 0 15 10q3 5 5 9.5t2 10.5v250q0 10 -7 20q-8 10 -15 10q-6 0 -14 -10q-7 -10 -7 -20v-280h21z" />
    <glyph glyph-name="uni04AA" unicode="&#x4aa;" 
d="M66 125q-36 53 -36 125v250q0 47 16.5 87.5t46 70t70 46t87.5 16.5t87.5 -16.5t70 -46t46 -70t16.5 -87.5h-190q0 11 -9.5 20.5t-20.5 9.5t-20.5 -9.5t-9.5 -20.5v-250q0 -11 9.5 -20.5t20.5 -9.5t20.5 9.5t9.5 20.5h190q0 -47 -16.5 -87.5t-46 -70t-70 -46t-87.5 -16.5
q-11 0 -20.5 -9.5t-9.5 -20.5h-190q0 73 36 125z" />
    <glyph glyph-name="uni04AB" unicode="&#x4ab;" 
d="M66 125q-36 53 -36 125v250q0 47 16.5 87.5t46 70t70 46t87.5 16.5t87.5 -16.5t70 -46t46 -70t16.5 -87.5h-190q0 11 -9.5 20.5t-20.5 9.5t-20.5 -9.5t-9.5 -20.5v-250q0 -11 9.5 -20.5t20.5 -9.5t20.5 9.5t9.5 20.5h190q0 -47 -16.5 -87.5t-46 -70t-70 -46t-87.5 -16.5
q-11 0 -20.5 -9.5t-9.5 -20.5h-190q0 73 36 125z" />
    <glyph glyph-name="uni04AC" unicode="&#x4ac;" 
d="M25 720h450v-190h-130v-530h-190v530h-130v190z" />
    <glyph glyph-name="uni04AD" unicode="&#x4ad;" 
d="M25 720h450v-190h-130v-530h-190v530h-130v190z" />
    <glyph glyph-name="uni04AE" unicode="&#x4ae;" 
d="M30 500v220h190v-220q0 -11 9.5 -20.5t20.5 -9.5h30v250h190v-690h-190v250h-30q-47 0 -87.5 16.5t-70 46t-46 70t-16.5 87.5z" />
    <glyph glyph-name="uni04AF" unicode="&#x4af;" 
d="M30 500v220h190v-220q0 -11 9.5 -20.5t20.5 -9.5h30v250h190v-690h-190v250h-30q-47 0 -87.5 16.5t-70 46t-46 70t-16.5 87.5z" />
    <glyph glyph-name="uni04B0" unicode="&#x4b0;" 
d="M220 720v-220q0 -11 9.5 -20.5t20.5 -9.5h30v250h190v-720h-190v30h-130v190h130v60h-30q-47 0 -87.5 16.5t-70 46t-46 70t-16.5 87.5v220h190z" />
    <glyph glyph-name="uni04B1" unicode="&#x4b1;" 
d="M220 720v-220q0 -11 9.5 -20.5t20.5 -9.5h30v250h190v-720h-190v30h-130v190h130v60h-30q-47 0 -87.5 16.5t-70 46t-46 70t-16.5 87.5v220h190z" />
    <glyph glyph-name="uni04B2" unicode="&#x4b2;" 
d="M220 720v-220q0 -11 9.5 -20.5t20.5 -9.5t20.5 9.5t9.5 20.5v220h190v-220q0 -72 -36 -125q36 -52 36 -125v-250h-190v250q0 11 -9.5 20.5t-20.5 9.5t-20.5 -9.5t-9.5 -20.5v-220h-190v220q0 73 36 125q-36 53 -36 125v220h190z" />
    <glyph glyph-name="uni04B3" unicode="&#x4b3;" 
d="M220 720v-220q0 -11 9.5 -20.5t20.5 -9.5t20.5 9.5t9.5 20.5v220h190v-220q0 -72 -36 -125q36 -52 36 -125v-250h-190v250q0 11 -9.5 20.5t-20.5 9.5t-20.5 -9.5t-9.5 -20.5v-220h-190v220q0 73 36 125q-36 53 -36 125v220h190z" />
    <glyph glyph-name="uni04B4" unicode="&#x4b4;" 
d="M0 530v190h250v-190h-30v-310h60v500h190v-720h-190v30h-250v500h-30z" />
    <glyph glyph-name="uni04B5" unicode="&#x4b5;" 
d="M0 530v190h250v-190h-30v-310h60v500h190v-720h-190v30h-250v500h-30z" />
    <glyph glyph-name="uni04B6" unicode="&#x4b6;" 
d="M30 500v220h190v-220q0 -11 9.5 -20.5t20.5 -9.5h30v250h190v-720h-190v280h-30q-47 0 -87.5 16.5t-70 46t-46 70t-16.5 87.5z" />
    <glyph glyph-name="uni04B7" unicode="&#x4b7;" 
d="M30 500v220h190v-220q0 -11 9.5 -20.5t20.5 -9.5h30v250h190v-720h-190v280h-30q-47 0 -87.5 16.5t-70 46t-46 70t-16.5 87.5z" />
    <glyph glyph-name="uni04B8" unicode="&#x4b8;" 
d="M-15 720h190v-220q0 -10 10 -20v100h130v-110h10v250h190v-690h-190v250h-10v-100h-130v101q-44 3 -81 21.5t-63.5 47.5t-41 67.5t-14.5 82.5v220z" />
    <glyph glyph-name="uni04B9" unicode="&#x4b9;" 
d="M-15 720h190v-220q0 -10 10 -20v100h130v-110h10v250h190v-690h-190v250h-10v-100h-130v101q-44 3 -81 21.5t-63.5 47.5t-41 67.5t-14.5 82.5v220z" />
    <glyph glyph-name="uni04BA" unicode="&#x4ba;" 
d="M30 30v690h190v-250h30q47 0 87.5 -16.5t70 -46t46 -70t16.5 -87.5v-220h-190v220q0 11 -9.5 20.5t-20.5 9.5h-30v-250h-190z" />
    <glyph glyph-name="uni04BB" unicode="&#x4bb;" 
d="M30 30v690h190v-250h30q47 0 87.5 -16.5t70 -46t46 -70t16.5 -87.5v-220h-190v220q0 11 -9.5 20.5t-20.5 9.5h-30v-250h-190z" />
    <glyph glyph-name="uni04BC" unicode="&#x4bc;" 
d="M0 470h30v30q0 47 16.5 87.5t46 70t70 46t87.5 16.5t87.5 -16.5t70 -46t46 -70t16.5 -87.5v-220h-220v190h30v30q0 11 -9.5 20.5t-20.5 9.5t-20.5 -9.5t-9.5 -20.5v-250q0 -11 9.5 -20.5t20.5 -9.5t20.5 9.5t9.5 20.5h190q0 -47 -16.5 -87.5t-46 -70t-70 -46t-87.5 -16.5
t-87.5 16.5t-70 46t-46 70t-16.5 87.5v30h-30v190z" />
    <glyph glyph-name="uni04BD" unicode="&#x4bd;" 
d="M0 470h30v30q0 47 16.5 87.5t46 70t70 46t87.5 16.5t87.5 -16.5t70 -46t46 -70t16.5 -87.5v-220h-220v190h30v30q0 11 -9.5 20.5t-20.5 9.5t-20.5 -9.5t-9.5 -20.5v-250q0 -11 9.5 -20.5t20.5 -9.5t20.5 9.5t9.5 20.5h190q0 -47 -16.5 -87.5t-46 -70t-70 -46t-87.5 -16.5
t-87.5 16.5t-70 46t-46 70t-16.5 87.5v30h-30v190z" />
    <glyph glyph-name="uni04BE" unicode="&#x4be;" 
d="M30 470v30q0 47 16.5 87.5t46 70t70 46t87.5 16.5t87.5 -16.5t70 -46t46 -70t16.5 -87.5v-220h-220v190h30v30q0 11 -9.5 20.5t-20.5 9.5t-20.5 -9.5t-9.5 -20.5v-250q0 -11 9.5 -20.5t20.5 -9.5t20.5 9.5t9.5 20.5h190q0 -47 -16.5 -87.5t-46 -70t-70 -46t-87.5 -16.5
q-11 0 -20.5 -9.5t-9.5 -20.5h-190q0 73 36 125q-36 53 -36 125v30h-30v190h30z" />
    <glyph glyph-name="uni04BF" unicode="&#x4bf;" 
d="M30 470v30q0 47 16.5 87.5t46 70t70 46t87.5 16.5t87.5 -16.5t70 -46t46 -70t16.5 -87.5v-220h-220v190h30v30q0 11 -9.5 20.5t-20.5 9.5t-20.5 -9.5t-9.5 -20.5v-250q0 -11 9.5 -20.5t20.5 -9.5t20.5 9.5t9.5 20.5h190q0 -47 -16.5 -87.5t-46 -70t-70 -46t-87.5 -16.5
q-11 0 -20.5 -9.5t-9.5 -20.5h-190q0 73 36 125q-36 53 -36 125v30h-30v190h30z" />
    <glyph glyph-name="uni04C0" unicode="&#x4c0;" 
d="M65 30v190h90v310h-90v190h370v-190h-90v-310h90v-190h-370z" />
    <glyph glyph-name="uni04C1" unicode="&#x4c1;" 
d="M25 600h100v120q73 0 125 -36q53 36 125 36v-120h100v-160q0 -72 -36 -125q36 -52 36 -125v-160h-140v160q0 8 -6.5 16t-13.5 12v-188h-130v188q-7 -4 -13.5 -12t-6.5 -16v-160h-140v160q0 73 36 125q-36 53 -36 125v160zM165 500v-60q0 -8 6.5 -16t13.5 -12v78h130v-78
q7 4 13.5 12t6.5 16v60h-170z" />
    <glyph glyph-name="uni04C2" unicode="&#x4c2;" 
d="M25 600h100v120q73 0 125 -36q53 36 125 36v-120h100v-160q0 -72 -36 -125q36 -52 36 -125v-160h-140v160q0 8 -6.5 16t-13.5 12v-188h-130v188q-7 -4 -13.5 -12t-6.5 -16v-160h-140v160q0 73 36 125q-36 53 -36 125v160zM165 500v-60q0 -8 6.5 -16t13.5 -12v78h130v-78
q7 4 13.5 12t6.5 16v60h-170z" />
    <glyph glyph-name="uni04C3" unicode="&#x4c3;" 
d="M220 720v-250h30q11 0 20.5 9.5t9.5 20.5v220h190v-220q0 -72 -36 -125q36 -52 36 -125q0 -47 -16.5 -87.5t-46 -70t-70 -46t-87.5 -16.5v190q11 0 20.5 9.5t9.5 20.5t-9.5 20.5t-20.5 9.5h-30v-250h-190v690h190z" />
    <glyph glyph-name="uni04C4" unicode="&#x4c4;" 
d="M220 720v-250h30q11 0 20.5 9.5t9.5 20.5v220h190v-220q0 -72 -36 -125q36 -52 36 -125q0 -47 -16.5 -87.5t-46 -70t-70 -46t-87.5 -16.5v190q11 0 20.5 9.5t9.5 20.5t-9.5 20.5t-20.5 9.5h-30v-250h-190v690h190z" />
    <glyph glyph-name="uni04C5" unicode="&#x4c5;" 
d="M0 220q11 0 20.5 9.5t9.5 20.5v470h440v-720h-190v530h-60v-280q0 -47 -16.5 -87.5t-46 -70t-70 -46t-87.5 -16.5v190z" />
    <glyph glyph-name="uni04C6" unicode="&#x4c6;" 
d="M0 220q11 0 20.5 9.5t9.5 20.5v470h440v-720h-190v530h-60v-280q0 -47 -16.5 -87.5t-46 -70t-70 -46t-87.5 -16.5v190z" />
    <glyph glyph-name="uni04C7" unicode="&#x4c7;" 
d="M220 30h-190v690h190v-250h60v250h190v-470q0 -47 -16.5 -87.5t-46 -70t-70 -46t-87.5 -16.5v190q11 0 20.5 9.5t9.5 20.5v30h-60v-250z" />
    <glyph glyph-name="uni04C8" unicode="&#x4c8;" 
d="M220 30h-190v690h190v-250h60v250h190v-470q0 -47 -16.5 -87.5t-46 -70t-70 -46t-87.5 -16.5v190q11 0 20.5 9.5t9.5 20.5v30h-60v-250z" />
    <glyph glyph-name="uni04C9" unicode="&#x4c9;" 
d="M220 720v-250h60v250h190v-720h-190v280h-60v-250h-190v690h190z" />
    <glyph glyph-name="uni04CA" unicode="&#x4ca;" 
d="M220 720v-250h60v250h190v-720h-190v280h-60v-250h-190v690h190z" />
    <glyph glyph-name="uni04CB" unicode="&#x4cb;" 
d="M30 500v220h190v-220q0 -11 9.5 -20.5t20.5 -9.5h30v250h190v-720h-190v280h-30q-47 0 -87.5 16.5t-70 46t-46 70t-16.5 87.5z" />
    <glyph glyph-name="uni04CC" unicode="&#x4cc;" 
d="M30 500v220h190v-220q0 -11 9.5 -20.5t20.5 -9.5h30v250h190v-720h-190v280h-30q-47 0 -87.5 16.5t-70 46t-46 70t-16.5 87.5z" />
    <glyph glyph-name="uni04CD" unicode="&#x4cd;" 
d="M15 560q0 72 34 116t106 44q29 0 49 -9t46 -27q26 18 46 27t49 9q72 0 106 -44t34 -116v-630h-160v570q0 11 0.5 20.5t-10.5 9.5t-10.5 -9.5t0.5 -20.5v-470h-110v470q0 11 0.5 20.5t-10.5 9.5t-10.5 -9.5t0.5 -20.5v-470h-160v530z" />
    <glyph glyph-name="uni04CE" unicode="&#x4ce;" 
d="M15 560q0 72 34 116t106 44q29 0 49 -9t46 -27q26 18 46 27t49 9q72 0 106 -44t34 -116v-630h-160v570q0 11 0.5 20.5t-10.5 9.5t-10.5 -9.5t0.5 -20.5v-470h-110v470q0 11 0.5 20.5t-10.5 9.5t-10.5 -9.5t0.5 -20.5v-470h-160v530z" />
    <glyph glyph-name="uni04CF" unicode="&#x4cf;" 
d="M65 30v190h90v310h-90v190h370v-190h-90v-310h90v-190h-370z" />
    <glyph glyph-name="uni04D0" unicode="&#x4d0;" 
d="M30 500q0 73 36 125q-36 53 -36 125h190q0 -11 9.5 -20.5t20.5 -9.5t20.5 9.5t9.5 20.5h190q0 -72 -36 -125q36 -52 36 -125v-470h-190v250h-60v-250h-190v470zM280 470v30q0 11 -9.5 20.5t-20.5 9.5t-20.5 -9.5t-9.5 -20.5v-30h60z" />
    <glyph glyph-name="uni04D1" unicode="&#x4d1;" 
d="M30 500q0 73 36 125q-36 53 -36 125h190q0 -11 9.5 -20.5t20.5 -9.5t20.5 9.5t9.5 20.5h190q0 -72 -36 -125q36 -52 36 -125v-470h-190v250h-60v-250h-190v470zM280 470v30q0 11 -9.5 20.5t-20.5 9.5t-20.5 -9.5t-9.5 -20.5v-30h60z" />
    <glyph glyph-name="uni04D2" unicode="&#x4d2;" 
d="M30 250q0 48 16.5 88t46 69.5t70 46t87.5 16.5t87.5 -16.5t70 -46t46 -70t16.5 -87.5v-250h-190v30h-60v-30h-190v250zM30 720h190v-220h-190v220zM280 500v220h190v-220h-190zM280 220v30q0 11 -9.5 20.5t-20.5 9.5t-20.5 -9.5t-9.5 -20.5v-30h60z" />
    <glyph glyph-name="uni04D3" unicode="&#x4d3;" 
d="M30 250q0 48 16.5 88t46 69.5t70 46t87.5 16.5t87.5 -16.5t70 -46t46 -70t16.5 -87.5v-250h-190v30h-60v-30h-190v250zM30 720h190v-220h-190v220zM280 500v220h190v-220h-190zM280 220v30q0 11 -9.5 20.5t-20.5 9.5t-20.5 -9.5t-9.5 -20.5v-30h60z" />
    <glyph glyph-name="uni04D4" unicode="&#x4d4;" 
d="M5 30v470q0 47 16.5 87.5t46 70t70 46t87.5 16.5h270v-190h-150v-60h150v-190h-150v-60h150v-190h-270v250h-30v-250h-190zM225 470v60q-11 0 -20.5 -9.5t-9.5 -20.5v-30h30z" />
    <glyph glyph-name="uni04D5" unicode="&#x4d5;" 
d="M5 30v470q0 47 16.5 87.5t46 70t70 46t87.5 16.5h270v-190h-150v-60h150v-190h-150v-60h150v-190h-270v250h-30v-250h-190zM225 470v60q-11 0 -20.5 -9.5t-9.5 -20.5v-30h30z" />
    <glyph glyph-name="uni04D6" unicode="&#x4d6;" 
d="M220 750q0 -11 9.5 -20.5t20.5 -9.5t20.5 9.5t9.5 20.5h190q0 -72 -36 -125q36 -52 36 -125h-190q0 11 -9.5 20.5t-20.5 9.5t-20.5 -9.5t-9.5 -20.5v-30h250v-190h-250v-60h250v-190h-440v470q0 73 36 125q-36 53 -36 125h190z" />
    <glyph glyph-name="uni04D7" unicode="&#x4d7;" 
d="M220 750q0 -11 9.5 -20.5t20.5 -9.5t20.5 9.5t9.5 20.5h190q0 -72 -36 -125q36 -52 36 -125h-190q0 11 -9.5 20.5t-20.5 9.5t-20.5 -9.5t-9.5 -20.5v-30h250v-190h-250v-60h250v-190h-440v470q0 73 36 125q-36 53 -36 125h190z" />
    <glyph glyph-name="uni04D8" unicode="&#x4d8;" 
d="M30 500q0 47 16.5 87.5t46 70t70 46t87.5 16.5t87.5 -16.5t70 -46t46 -70t16.5 -87.5v-250q0 -47 -16.5 -87.5t-46 -70t-70 -46t-87.5 -16.5t-87.5 16.5t-70 46t-46 70t-16.5 87.5v220h250v30q0 11 -9.5 20.5t-20.5 9.5t-20.5 -9.5t-9.5 -20.5h-190zM220 280v-30
q0 -11 9.5 -20.5t20.5 -9.5t20.5 9.5t9.5 20.5v30h-60z" />
    <glyph glyph-name="uni04D9" unicode="&#x4d9;" 
d="M30 500q0 47 16.5 87.5t46 70t70 46t87.5 16.5t87.5 -16.5t70 -46t46 -70t16.5 -87.5v-250q0 -47 -16.5 -87.5t-46 -70t-70 -46t-87.5 -16.5t-87.5 16.5t-70 46t-46 70t-16.5 87.5v220h250v30q0 11 -9.5 20.5t-20.5 9.5t-20.5 -9.5t-9.5 -20.5h-190zM220 280v-30
q0 -11 9.5 -20.5t20.5 -9.5t20.5 9.5t9.5 20.5v30h-60z" />
    <glyph glyph-name="uni04DA" unicode="&#x4da;" 
d="M220 750q0 -11 9.5 -20.5t20.5 -9.5t20.5 9.5t9.5 20.5h190q0 -72 -36 -125q36 -52 36 -125v-250q0 -47 -16.5 -87.5t-46 -70t-70 -46t-87.5 -16.5t-87.5 16.5t-70 46t-46 70t-16.5 87.5v220h250v30q0 11 -9.5 20.5t-20.5 9.5t-20.5 -9.5t-9.5 -20.5h-190q0 73 36 125
q-36 53 -36 125h190zM220 280v-30q0 -11 9.5 -20.5t20.5 -9.5t20.5 9.5t9.5 20.5v30h-60z" />
    <glyph glyph-name="uni04DB" unicode="&#x4db;" 
d="M220 750q0 -11 9.5 -20.5t20.5 -9.5t20.5 9.5t9.5 20.5h190q0 -72 -36 -125q36 -52 36 -125v-250q0 -47 -16.5 -87.5t-46 -70t-70 -46t-87.5 -16.5t-87.5 16.5t-70 46t-46 70t-16.5 87.5v220h250v30q0 11 -9.5 20.5t-20.5 9.5t-20.5 -9.5t-9.5 -20.5h-190q0 73 36 125
q-36 53 -36 125h190zM220 280v-30q0 -11 9.5 -20.5t20.5 -9.5t20.5 9.5t9.5 20.5v30h-60z" />
    <glyph glyph-name="uni04DC" unicode="&#x4dc;" 
d="M61 315q-36 53 -36 125v160h140v-160q0 -8 6.5 -16t13.5 -12v188h130v-188q7 4 13.5 12t6.5 16v160h140v-160q0 -72 -36 -125q36 -52 36 -125v-160h-140v160q0 8 -6.5 16t-13.5 12v-188h-130v188q-7 -4 -13.5 -12t-6.5 -16v-160h-140v160q0 73 36 125zM255 610v140h130
v-140h-130zM115 610v140h130v-140h-130z" />
    <glyph glyph-name="uni04DD" unicode="&#x4dd;" 
d="M61 315q-36 53 -36 125v160h140v-160q0 -8 6.5 -16t13.5 -12v188h130v-188q7 4 13.5 12t6.5 16v160h140v-160q0 -72 -36 -125q36 -52 36 -125v-160h-140v160q0 8 -6.5 16t-13.5 12v-188h-130v188q-7 -4 -13.5 -12t-6.5 -16v-160h-140v160q0 73 36 125zM255 610v140h130
v-140h-130zM115 610v140h130v-140h-130z" />
    <glyph glyph-name="uni04DE" unicode="&#x4de;" 
d="M220 500h-190q0 73 36 125q-36 53 -36 125h190q0 -11 9.5 -20.5t20.5 -9.5t20.5 9.5t9.5 20.5h190q0 -72 -36 -125q36 -52 36 -125q0 -72 -36 -125q36 -52 36 -125q0 -47 -16.5 -87.5t-46 -70t-70 -46t-87.5 -16.5t-87.5 16.5t-70 46t-46 70t-16.5 87.5h190
q0 -11 9.5 -20.5t20.5 -9.5t20.5 9.5t9.5 20.5t-9.5 20.5t-20.5 9.5h-220v190h220q11 0 20.5 9.5t9.5 20.5t-9.5 20.5t-20.5 9.5t-20.5 -9.5t-9.5 -20.5z" />
    <glyph glyph-name="uni04DF" unicode="&#x4df;" 
d="M220 500h-190q0 73 36 125q-36 53 -36 125h190q0 -11 9.5 -20.5t20.5 -9.5t20.5 9.5t9.5 20.5h190q0 -72 -36 -125q36 -52 36 -125q0 -72 -36 -125q36 -52 36 -125q0 -47 -16.5 -87.5t-46 -70t-70 -46t-87.5 -16.5t-87.5 16.5t-70 46t-46 70t-16.5 87.5h190
q0 -11 9.5 -20.5t20.5 -9.5t20.5 9.5t9.5 20.5t-9.5 20.5t-20.5 9.5h-220v190h220q11 0 20.5 9.5t9.5 20.5t-9.5 20.5t-20.5 9.5t-20.5 -9.5t-9.5 -20.5z" />
    <glyph glyph-name="uni04E0" unicode="&#x4e0;" 
d="M30 530v190h440v-220q0 -72 -36 -125q36 -52 36 -125q0 -47 -16.5 -87.5t-46 -70t-70 -46t-87.5 -16.5t-87.5 16.5t-70 46t-46 70t-16.5 87.5h190q0 -11 9.5 -20.5t20.5 -9.5t20.5 9.5t9.5 20.5t-9.5 20.5t-20.5 9.5h-220v190h220q11 0 20.5 9.5t9.5 20.5v30h-250z" />
    <glyph glyph-name="uni04E1" unicode="&#x4e1;" 
d="M30 530v190h440v-220q0 -72 -36 -125q36 -52 36 -125q0 -47 -16.5 -87.5t-46 -70t-70 -46t-87.5 -16.5t-87.5 16.5t-70 46t-46 70t-16.5 87.5h190q0 -11 9.5 -20.5t20.5 -9.5t20.5 9.5t9.5 20.5t-9.5 20.5t-20.5 9.5h-220v190h220q11 0 20.5 9.5t9.5 20.5v30h-250z" />
    <glyph glyph-name="uni04E2" unicode="&#x4e2;" 
d="M0 470q33 0 65 -8.5t60 -27.5q53 36 125 36h220v-440h-190v250h-30q-11 0 -20.5 -9.5t-9.5 -20.5v-220h-190v220q0 11 -9.5 20.5t-20.5 9.5v190zM30 720h440v-190h-440v190z" />
    <glyph glyph-name="uni04E3" unicode="&#x4e3;" 
d="M0 470q33 0 65 -8.5t60 -27.5q53 36 125 36h220v-440h-190v250h-30q-11 0 -20.5 -9.5t-9.5 -20.5v-220h-190v220q0 11 -9.5 20.5t-20.5 9.5v190zM30 720h440v-190h-440v190z" />
    <glyph glyph-name="uni04E4" unicode="&#x4e4;" 
d="M125 434q28 19 60 27.5t65 8.5h220v-440h-190v250h-30q-11 0 -20.5 -9.5t-9.5 -20.5v-220h-190v220q0 11 -9.5 20.5t-20.5 9.5v190q33 0 65 -8.5t60 -27.5zM470 720v-220h-190v220h190zM30 500v220h190v-220h-190z" />
    <glyph glyph-name="uni04E5" unicode="&#x4e5;" 
d="M125 434q28 19 60 27.5t65 8.5h220v-440h-190v250h-30q-11 0 -20.5 -9.5t-9.5 -20.5v-220h-190v220q0 11 -9.5 20.5t-20.5 9.5v190q33 0 65 -8.5t60 -27.5zM470 720v-220h-190v220h190zM30 500v220h190v-220h-190z" />
    <glyph glyph-name="uni04E6" unicode="&#x4e6;" 
d="M30 250q0 47 16.5 87.5t46 70t70 46t87.5 16.5t87.5 -16.5t70 -46t46 -70t16.5 -87.5t-16.5 -87.5t-46 -70t-70 -46t-87.5 -16.5t-87.5 16.5t-70 46t-46 70t-16.5 87.5zM30 720h190v-220h-190v220zM280 500v220h190v-220h-190zM220 250q0 -11 9.5 -20.5t20.5 -9.5
t20.5 9.5t9.5 20.5t-9.5 20.5t-20.5 9.5t-20.5 -9.5t-9.5 -20.5z" />
    <glyph glyph-name="uni04E7" unicode="&#x4e7;" 
d="M30 250q0 47 16.5 87.5t46 70t70 46t87.5 16.5t87.5 -16.5t70 -46t46 -70t16.5 -87.5t-16.5 -87.5t-46 -70t-70 -46t-87.5 -16.5t-87.5 16.5t-70 46t-46 70t-16.5 87.5zM30 720h190v-220h-190v220zM280 500v220h190v-220h-190zM220 250q0 -11 9.5 -20.5t20.5 -9.5
t20.5 9.5t9.5 20.5t-9.5 20.5t-20.5 9.5t-20.5 -9.5t-9.5 -20.5z" />
    <glyph glyph-name="uni04E8" unicode="&#x4e8;" 
d="M30 500q0 47 16.5 87.5t46 70t70 46t87.5 16.5t87.5 -16.5t70 -46t46 -70t16.5 -87.5v-250q0 -47 -16.5 -87.5t-46 -70t-70 -46t-87.5 -16.5t-87.5 16.5t-70 46t-46 70t-16.5 87.5v250zM220 250q0 -11 9.5 -20.5t20.5 -9.5t20.5 9.5t9.5 20.5v30h-60v-30zM280 470v30
q0 11 -9.5 20.5t-20.5 9.5t-20.5 -9.5t-9.5 -20.5v-30h60z" />
    <glyph glyph-name="uni04E9" unicode="&#x4e9;" 
d="M30 500q0 47 16.5 87.5t46 70t70 46t87.5 16.5t87.5 -16.5t70 -46t46 -70t16.5 -87.5v-250q0 -47 -16.5 -87.5t-46 -70t-70 -46t-87.5 -16.5t-87.5 16.5t-70 46t-46 70t-16.5 87.5v250zM220 250q0 -11 9.5 -20.5t20.5 -9.5t20.5 9.5t9.5 20.5v30h-60v-30zM280 470v30
q0 11 -9.5 20.5t-20.5 9.5t-20.5 -9.5t-9.5 -20.5v-30h60z" />
    <glyph glyph-name="uni04EA" unicode="&#x4ea;" 
d="M30 750h190q0 -11 9.5 -20.5t20.5 -9.5t20.5 9.5t9.5 20.5h190q0 -72 -36 -125q36 -52 36 -125v-250q0 -47 -16.5 -87.5t-46 -70t-70 -46t-87.5 -16.5t-87.5 16.5t-70 46t-46 70t-16.5 87.5v250q0 73 36 125q-36 53 -36 125zM220 280v-30q0 -11 9.5 -20.5t20.5 -9.5
t20.5 9.5t9.5 20.5v30h-60zM220 470h60v30q0 11 -9.5 20.5t-20.5 9.5t-20.5 -9.5t-9.5 -20.5v-30z" />
    <glyph glyph-name="uni04EB" unicode="&#x4eb;" 
d="M30 750h190q0 -11 9.5 -20.5t20.5 -9.5t20.5 9.5t9.5 20.5h190q0 -72 -36 -125q36 -52 36 -125v-250q0 -47 -16.5 -87.5t-46 -70t-70 -46t-87.5 -16.5t-87.5 16.5t-70 46t-46 70t-16.5 87.5v250q0 73 36 125q-36 53 -36 125zM220 280v-30q0 -11 9.5 -20.5t20.5 -9.5
t20.5 9.5t9.5 20.5v30h-60zM220 470h60v30q0 11 -9.5 20.5t-20.5 9.5t-20.5 -9.5t-9.5 -20.5v-30z" />
    <glyph glyph-name="uni04EC" unicode="&#x4ec;" 
d="M220 500h-190q0 73 36 125q-36 53 -36 125h190q0 -11 9.5 -20.5t20.5 -9.5t20.5 9.5t9.5 20.5h190q0 -72 -36 -125q36 -52 36 -125v-250q0 -47 -16.5 -87.5t-46 -70t-70 -46t-87.5 -16.5t-87.5 16.5t-70 46t-46 70t-16.5 87.5h190q0 -11 9.5 -20.5t20.5 -9.5t20.5 9.5
t9.5 20.5v30h-250v190h250v30q0 11 -9.5 20.5t-20.5 9.5t-20.5 -9.5t-9.5 -20.5z" />
    <glyph glyph-name="uni04ED" unicode="&#x4ed;" 
d="M220 500h-190q0 73 36 125q-36 53 -36 125h190q0 -11 9.5 -20.5t20.5 -9.5t20.5 9.5t9.5 20.5h190q0 -72 -36 -125q36 -52 36 -125v-250q0 -47 -16.5 -87.5t-46 -70t-70 -46t-87.5 -16.5t-87.5 16.5t-70 46t-46 70t-16.5 87.5h190q0 -11 9.5 -20.5t20.5 -9.5t20.5 9.5
t9.5 20.5v30h-250v190h250v30q0 11 -9.5 20.5t-20.5 9.5t-20.5 -9.5t-9.5 -20.5z" />
    <glyph glyph-name="uni04EE" unicode="&#x4ee;" 
d="M220 470v-220q0 -11 9.5 -20.5t20.5 -9.5h30v250h190v-470h-190v30h-30q-47 0 -87.5 16.5t-70 46t-46 70t-16.5 87.5v220h190zM30 720h440v-190h-440v190z" />
    <glyph glyph-name="uni04EF" unicode="&#x4ef;" 
d="M220 470v-220q0 -11 9.5 -20.5t20.5 -9.5h30v250h190v-470h-190v30h-30q-47 0 -87.5 16.5t-70 46t-46 70t-16.5 87.5v220h190zM30 720h440v-190h-440v190z" />
    <glyph glyph-name="uni04F0" unicode="&#x4f0;" 
d="M220 470v-220q0 -11 9.5 -20.5t20.5 -9.5h30v250h190v-470h-190v30h-30q-47 0 -87.5 16.5t-70 46t-46 70t-16.5 87.5v220h190zM280 500v220h190v-220h-190zM220 720v-220h-190v220h190z" />
    <glyph glyph-name="uni04F1" unicode="&#x4f1;" 
d="M220 470v-220q0 -11 9.5 -20.5t20.5 -9.5h30v250h190v-470h-190v30h-30q-47 0 -87.5 16.5t-70 46t-46 70t-16.5 87.5v220h190zM280 500v220h190v-220h-190zM220 720v-220h-190v220h190z" />
    <glyph glyph-name="uni04F2" unicode="&#x4f2;" 
d="M220 470v-220q0 -11 9.5 -20.5t20.5 -9.5h30v250h190v-470h-190v30h-30q-47 0 -87.5 16.5t-70 46t-46 70t-16.5 87.5v220h190zM250 720q11 0 20.5 9.5t9.5 20.5h190q0 -47 -16.5 -87.5t-46 -70t-70 -46t-87.5 -16.5v190zM0 530v190q11 0 20.5 9.5t9.5 20.5h190
q0 -47 -16.5 -87.5t-46 -70t-70 -46t-87.5 -16.5z" />
    <glyph glyph-name="uni04F3" unicode="&#x4f3;" 
d="M220 470v-220q0 -11 9.5 -20.5t20.5 -9.5h30v250h190v-470h-190v30h-30q-47 0 -87.5 16.5t-70 46t-46 70t-16.5 87.5v220h190zM250 720q11 0 20.5 9.5t9.5 20.5h190q0 -47 -16.5 -87.5t-46 -70t-70 -46t-87.5 -16.5v190zM0 530v190q11 0 20.5 9.5t9.5 20.5h190
q0 -47 -16.5 -87.5t-46 -70t-70 -46t-87.5 -16.5z" />
    <glyph glyph-name="uni04F4" unicode="&#x4f4;" 
d="M220 470v-220q0 -11 9.5 -20.5t20.5 -9.5h30v250h190v-470h-190v30h-30q-47 0 -87.5 16.5t-70 46t-46 70t-16.5 87.5v220h190zM280 500v220h190v-220h-190zM220 720v-220h-190v220h190z" />
    <glyph glyph-name="uni04F5" unicode="&#x4f5;" 
d="M220 470v-220q0 -11 9.5 -20.5t20.5 -9.5h30v250h190v-470h-190v30h-30q-47 0 -87.5 16.5t-70 46t-46 70t-16.5 87.5v220h190zM280 500v220h190v-220h-190zM220 720v-220h-190v220h190z" />
    <glyph glyph-name="uni04F6" unicode="&#x4f6;" 
d="M30 0v720h440v-190h-250v-530h-190z" />
    <glyph glyph-name="uni04F7" unicode="&#x4f7;" 
d="M30 0v720h440v-190h-250v-530h-190z" />
    <glyph glyph-name="uni04F8" unicode="&#x4f8;" 
d="M15 540h160v-75q35 -7 60 -24t49 -41q28 -31 39.5 -67.5t11.5 -82.5q0 -47 -15 -87t-42 -69.5t-66 -46.5t-87 -17h-110v510zM485 540v-510h-140v510h140zM15 720h160v-140h-160v140zM485 720v-140h-140v140h140zM175 222q7 4 13.5 12t6.5 16t-6.5 16t-13.5 12v-56z" />
    <glyph glyph-name="uni04F9" unicode="&#x4f9;" 
d="M15 540h160v-75q35 -7 60 -24t49 -41q28 -31 39.5 -67.5t11.5 -82.5q0 -47 -15 -87t-42 -69.5t-66 -46.5t-87 -17h-110v510zM485 540v-510h-140v510h140zM15 720h160v-140h-160v140zM485 720v-140h-140v140h140zM175 222q7 4 13.5 12t6.5 16t-6.5 16t-13.5 12v-56z" />
    <glyph glyph-name="uni04FC" unicode="&#x4fc;" 
d="M30 720h190v-220q0 -11 9.5 -20.5t20.5 -9.5t20.5 9.5t9.5 20.5v220h190v-220q0 -72 -36 -125q36 -52 36 -125q0 -47 -16.5 -87.5t-46 -70t-70 -46t-87.5 -16.5v190q11 0 20.5 9.5t9.5 20.5t-9.5 20.5t-20.5 9.5t-20.5 -9.5t-9.5 -20.5v-220h-190v220q0 73 36 125
q-36 53 -36 125v220z" />
    <glyph glyph-name="uni04FD" unicode="&#x4fd;" 
d="M30 720h190v-220q0 -11 9.5 -20.5t20.5 -9.5t20.5 9.5t9.5 20.5v220h190v-220q0 -72 -36 -125q36 -52 36 -125q0 -47 -16.5 -87.5t-46 -70t-70 -46t-87.5 -16.5v190q11 0 20.5 9.5t9.5 20.5t-9.5 20.5t-20.5 9.5t-20.5 -9.5t-9.5 -20.5v-220h-190v220q0 73 36 125
q-36 53 -36 125v220z" />
    <glyph glyph-name="uni0510" unicode="&#x510;" 
d="M30 250q0 73 36 125q-36 53 -36 125q0 47 16.5 87.5t46 70t70 46t87.5 16.5t87.5 -16.5t70 -46t46 -70t16.5 -87.5h-190q0 11 -9.5 20.5t-20.5 9.5t-20.5 -9.5t-9.5 -20.5t9.5 -20.5t20.5 -9.5h220v-190h-220q-11 0 -20.5 -9.5t-9.5 -20.5t9.5 -20.5t20.5 -9.5t20.5 9.5
t9.5 20.5h190q0 -47 -16.5 -87.5t-46 -70t-70 -46t-87.5 -16.5t-87.5 16.5t-70 46t-46 70t-16.5 87.5z" />
    <glyph glyph-name="uni0511" unicode="&#x511;" 
d="M30 250q0 73 36 125q-36 53 -36 125q0 47 16.5 87.5t46 70t70 46t87.5 16.5t87.5 -16.5t70 -46t46 -70t16.5 -87.5h-190q0 11 -9.5 20.5t-20.5 9.5t-20.5 -9.5t-9.5 -20.5t9.5 -20.5t20.5 -9.5h220v-190h-220q-11 0 -20.5 -9.5t-9.5 -20.5t9.5 -20.5t20.5 -9.5t20.5 9.5
t9.5 20.5h190q0 -47 -16.5 -87.5t-46 -70t-70 -46t-87.5 -16.5t-87.5 16.5t-70 46t-46 70t-16.5 87.5z" />
    <glyph glyph-name="uni0512" unicode="&#x512;" 
d="M0 30v190q11 0 20.5 9.5t9.5 20.5v470h440v-470q0 -47 -16.5 -87.5t-46 -70t-70 -46t-87.5 -16.5v190q11 0 20.5 9.5t9.5 20.5v280h-60v-280q0 -47 -16.5 -87.5t-46 -70t-70 -46t-87.5 -16.5z" />
    <glyph glyph-name="uni0513" unicode="&#x513;" 
d="M0 30v190q11 0 20.5 9.5t9.5 20.5v470h440v-470q0 -47 -16.5 -87.5t-46 -70t-70 -46t-87.5 -16.5v190q11 0 20.5 9.5t9.5 20.5v280h-60v-280q0 -47 -16.5 -87.5t-46 -70t-70 -46t-87.5 -16.5z" />
    <glyph glyph-name="uni051C" unicode="&#x51c;" 
d="M15 720h160v-470q0 -11 -0.5 -20.5t10.5 -9.5t10.5 9.5t-0.5 20.5v470h110v-470q0 -11 -0.5 -20.5t10.5 -9.5t10.5 9.5t-0.5 20.5v470h160v-530q0 -72 -34 -116t-106 -44q-29 0 -49 9t-46 27q-26 -18 -46 -27t-49 -9q-72 0 -106 44t-34 116v530z" />
    <glyph glyph-name="uni051D" unicode="&#x51d;" 
d="M15 720h160v-470q0 -11 -0.5 -20.5t10.5 -9.5t10.5 9.5t-0.5 20.5v470h110v-470q0 -11 -0.5 -20.5t10.5 -9.5t10.5 9.5t-0.5 20.5v470h160v-530q0 -72 -34 -116t-106 -44q-29 0 -49 9t-46 27q-26 -18 -46 -27t-49 -9q-72 0 -106 44t-34 116v530z" />
    <glyph glyph-name="uni05BE" unicode="&#x5be;" 
d="M30 280v190h440v-190h-440z" />
    <glyph glyph-name="uni05C0" unicode="&#x5c0;" 
d="M345 720v-720h-190v720h190z" />
    <glyph glyph-name="uni05C3" unicode="&#x5c3;" 
d="M155 500h190v-220h-190v220zM155 250h190v-220h-190v220z" />
    <glyph glyph-name="uni05C6" unicode="&#x5c6;" 
d="M155 30v470q0 47 16.5 87.5t46 70t70 46t87.5 16.5v-190q-11 0 -20.5 -9.5t-9.5 -20.5v-280h30v-190h-220z" />
    <glyph glyph-name="uni05D0" unicode="&#x5d0;" 
d="M0 720q47 0 87.5 -16.5t70 -46t46 -70t16.5 -87.5q0 -11 9.5 -20.5t20.5 -9.5t20.5 9.5t9.5 20.5v220h190v-220q0 -72 -36 -125q36 -52 36 -125q0 -11 9.5 -20.5t20.5 -9.5v-190q-47 0 -87.5 16.5t-70 46t-46 70t-16.5 87.5q0 11 -9.5 20.5t-20.5 9.5t-20.5 -9.5
t-9.5 -20.5v-220h-190v220q0 73 36 125q-36 53 -36 125q0 11 -9.5 20.5t-20.5 9.5v190z" />
    <glyph glyph-name="uni05D1" unicode="&#x5d1;" 
d="M30 220h250v280q0 11 -9.5 20.5t-20.5 9.5h-220v190h220q47 0 87.5 -16.5t70 -46t46 -70t16.5 -87.5v-280h30v-190h-470v190z" />
    <glyph glyph-name="uni05D2" unicode="&#x5d2;" 
d="M125 220q11 0 20.5 9.5t9.5 20.5v250q0 11 -9.5 20.5t-20.5 9.5v190q47 0 87.5 -16.5t70 -46t46 -70t16.5 -87.5v-250q0 -11 9.5 -20.5t20.5 -9.5v-190q-72 0 -125 36q-52 -36 -125 -36v190z" />
    <glyph glyph-name="uni05D3" unicode="&#x5d3;" 
d="M30 720h470v-190h-30v-500h-190v500h-250v190z" />
    <glyph glyph-name="uni05D4" unicode="&#x5d4;" 
d="M30 720h220q47 0 87.5 -16.5t70 -46t46 -70t16.5 -87.5v-470h-190v470q0 11 -9.5 20.5t-20.5 9.5h-220v190zM220 470v-440h-190v440h190z" />
    <glyph glyph-name="uni05D5" unicode="&#x5d5;" 
d="M125 720q47 0 87.5 -16.5t70 -46t46 -70t16.5 -87.5v-470h-190v470q0 11 -9.5 20.5t-20.5 9.5v190z" />
    <glyph glyph-name="uni05D6" unicode="&#x5d6;" 
d="M155 30v470q0 73 36 125q-36 53 -36 125h190q0 -11 9.5 -20.5t20.5 -9.5v-190q-11 0 -20.5 -9.5t-9.5 -20.5v-470h-190z" />
    <glyph glyph-name="uni05D7" unicode="&#x5d7;" 
d="M30 30v690h220q47 0 87.5 -16.5t70 -46t46 -70t16.5 -87.5v-470h-190v470q0 11 -9.5 20.5t-20.5 9.5h-30v-500h-190z" />
    <glyph glyph-name="uni05D8" unicode="&#x5d8;" 
d="M30 720h190v-470q0 -11 9.5 -20.5t20.5 -9.5t20.5 9.5t9.5 20.5v250q0 11 -9.5 20.5t-20.5 9.5v190q47 0 87.5 -16.5t70 -46t46 -70t16.5 -87.5v-250q0 -47 -16.5 -87.5t-46 -70t-70 -46t-87.5 -16.5t-87.5 16.5t-70 46t-46 70t-16.5 87.5v470z" />
    <glyph glyph-name="uni05D9" unicode="&#x5d9;" 
d="M125 720q47 0 87.5 -16.5t70 -46t46 -70t16.5 -87.5v-220h-190v220q0 11 -9.5 20.5t-20.5 9.5v190z" />
    <glyph glyph-name="uni05DA" unicode="&#x5da;" 
d="M30 720h220q47 0 87.5 -16.5t70 -46t46 -70t16.5 -87.5v-500h-190v500q0 11 -9.5 20.5t-20.5 9.5h-220v190z" />
    <glyph glyph-name="uni05DB" unicode="&#x5db;" 
d="M30 530v190h220q47 0 87.5 -16.5t70 -46t46 -70t16.5 -87.5v-250q0 -47 -16.5 -87.5t-46 -70t-70 -46t-87.5 -16.5h-220v190h220q11 0 20.5 9.5t9.5 20.5v250q0 11 -9.5 20.5t-20.5 9.5h-220z" />
    <glyph glyph-name="uni05DC" unicode="&#x5dc;" 
d="M220 750v-30h250v-470q0 -47 -16.5 -87.5t-46 -70t-70 -46t-87.5 -16.5v190q11 0 20.5 9.5t9.5 20.5v280h-250v220h190z" />
    <glyph glyph-name="uni05DD" unicode="&#x5dd;" 
d="M30 30v690h220q47 0 87.5 -16.5t70 -46t46 -70t16.5 -87.5v-470h-440zM220 220h60v280q0 11 -9.5 20.5t-20.5 9.5h-30v-310z" />
    <glyph glyph-name="uni05DE" unicode="&#x5de;" 
d="M0 720q73 0 125 -36q53 36 125 36q47 0 87.5 -16.5t70 -46t46 -70t16.5 -87.5v-470h-220v190h30v280q0 11 -9.5 20.5t-20.5 9.5v-30h-30v-470h-190v470q0 11 -9.5 20.5t-20.5 9.5v190z" />
    <glyph glyph-name="uni05DF" unicode="&#x5df;" 
d="M125 720q47 0 87.5 -16.5t70 -46t46 -70t16.5 -87.5v-500h-190v500q0 11 -9.5 20.5t-20.5 9.5v190z" />
    <glyph glyph-name="uni05E0" unicode="&#x5e0;" 
d="M125 220h30v280q0 11 -9.5 20.5t-20.5 9.5v190q47 0 87.5 -16.5t70 -46t46 -70t16.5 -87.5v-470h-220v190z" />
    <glyph glyph-name="uni05E1" unicode="&#x5e1;" 
d="M0 530v190h250q47 0 87.5 -16.5t70 -46t46 -70t16.5 -87.5v-250q0 -47 -16.5 -87.5t-46 -70t-70 -46t-87.5 -16.5t-87.5 16.5t-70 46t-46 70t-16.5 87.5v280h-30zM220 530v-280q0 -11 9.5 -20.5t20.5 -9.5t20.5 9.5t9.5 20.5v250q0 11 -9.5 20.5t-20.5 9.5h-30z" />
    <glyph glyph-name="uni05E2" unicode="&#x5e2;" 
d="M250 220q11 0 20.5 9.5t9.5 20.5v470h190v-470q0 -47 -16.5 -87.5t-46 -70t-70 -46t-87.5 -16.5h-220v190h220zM30 720h190v-220q0 -11 9.5 -20.5t20.5 -9.5v-190q-47 0 -87.5 16.5t-70 46t-46 70t-16.5 87.5v220z" />
    <glyph glyph-name="uni05E3" unicode="&#x5e3;" 
d="M30 720h220q47 0 87.5 -16.5t70 -46t46 -70t16.5 -87.5v-500h-190v500q0 11 -9.5 20.5t-20.5 9.5h-30v-30q0 -11 9.5 -20.5t20.5 -9.5v-190q-47 0 -87.5 16.5t-70 46t-46 70t-16.5 87.5v220z" />
    <glyph glyph-name="uni05E4" unicode="&#x5e4;" 
d="M30 500v220h220q47 0 87.5 -16.5t70 -46t46 -70t16.5 -87.5v-250q0 -47 -16.5 -87.5t-46 -70t-70 -46t-87.5 -16.5h-220v190h220q11 0 20.5 9.5t9.5 20.5v250q0 11 -9.5 20.5t-20.5 9.5h-30v-30q0 -11 9.5 -20.5t20.5 -9.5v-190q-47 0 -87.5 16.5t-70 46t-46 70
t-16.5 87.5z" />
    <glyph glyph-name="uni05E5" unicode="&#x5e5;" 
d="M30 250q0 73 36 125q-36 53 -36 125v220h190v-220q0 -11 9.5 -20.5t20.5 -9.5t20.5 9.5t9.5 20.5v220h190v-220q0 -47 -16.5 -87.5t-46 -70t-70 -46t-87.5 -16.5q-11 0 -20.5 -9.5t-9.5 -20.5v-220h-190v220z" />
    <glyph glyph-name="uni05E6" unicode="&#x5e6;" 
d="M30 30v190h250v30q0 11 -9.5 20.5t-20.5 9.5q-47 0 -87.5 16.5t-70 46t-46 70t-16.5 87.5v220h190v-220q0 -11 9.5 -20.5t20.5 -9.5t20.5 9.5t9.5 20.5v220h190v-220q0 -72 -36 -125q36 -52 36 -125v-220h-440z" />
    <glyph glyph-name="uni05E7" unicode="&#x5e7;" 
d="M30 530v190h220q47 0 87.5 -16.5t70 -46t46 -70t16.5 -87.5v-250q0 -47 -16.5 -87.5t-46 -70t-70 -46t-87.5 -16.5v190q11 0 20.5 9.5t9.5 20.5v250q0 11 -9.5 20.5t-20.5 9.5h-220zM30 0v500h190v-500h-190z" />
    <glyph glyph-name="uni05E8" unicode="&#x5e8;" 
d="M30 720h220q47 0 87.5 -16.5t70 -46t46 -70t16.5 -87.5v-470h-190v470q0 11 -9.5 20.5t-20.5 9.5h-220v190z" />
    <glyph glyph-name="uni05E9" unicode="&#x5e9;" 
d="M20 720h140v-248q7 4 13.5 12t6.5 16v220h140v-220q0 -37 -11 -71.5t-32 -63t-50.5 -49t-66.5 -29.5v-67h150q11 0 20.5 9.5t9.5 20.5v470h140v-470q0 -47 -16.5 -87.5t-46 -70t-70 -46t-87.5 -16.5h-240v690z" />
    <glyph glyph-name="uni05EA" unicode="&#x5ea;" 
d="M0 220q11 0 20.5 9.5t9.5 20.5v280h-30v190h250q47 0 87.5 -16.5t70 -46t46 -70t16.5 -87.5v-470h-190v470q0 11 -9.5 20.5t-20.5 9.5h-30v-280q0 -47 -16.5 -87.5t-46 -70t-70 -46t-87.5 -16.5v190z" />
    <glyph glyph-name="uni05EF" unicode="&#x5ef;" 
d="M125 720q47 0 87.5 -16.5t70 -46t46 -70t16.5 -87.5v-220h-190v220q0 11 -9.5 20.5t-20.5 9.5v190z" />
    <glyph glyph-name="uni05F0" unicode="&#x5f0;" 
d="M250 720q47 0 87.5 -16.5t70 -46t46 -70t16.5 -87.5v-470h-190v470q0 11 -9.5 20.5t-20.5 9.5v190zM0 720q47 0 87.5 -16.5t70 -46t46 -70t16.5 -87.5v-470h-190v470q0 11 -9.5 20.5t-20.5 9.5v190z" />
    <glyph glyph-name="uni05F1" unicode="&#x5f1;" 
d="M250 720q47 0 87.5 -16.5t70 -46t46 -70t16.5 -87.5v-470h-190v470q0 11 -9.5 20.5t-20.5 9.5v190zM0 530v190q47 0 87.5 -16.5t70 -46t46 -70t16.5 -87.5v-220h-190v220q0 11 -9.5 20.5t-20.5 9.5z" />
    <glyph glyph-name="uni05F2" unicode="&#x5f2;" 
d="M250 720q47 0 87.5 -16.5t70 -46t46 -70t16.5 -87.5v-220h-190v220q0 11 -9.5 20.5t-20.5 9.5v190zM0 720q47 0 87.5 -16.5t70 -46t46 -70t16.5 -87.5v-220h-190v220q0 11 -9.5 20.5t-20.5 9.5v190z" />
    <glyph glyph-name="uni05F3" unicode="&#x5f3;" 
d="M155 500v220h190v-220h-190z" />
    <glyph glyph-name="uni05F4" unicode="&#x5f4;" 
d="M280 720h190v-220h-190v220zM220 720v-220h-190v220h190z" />
    <glyph glyph-name="uni1E30" unicode="&#x1e30;" 
d="M220 720v-250h30q11 0 20.5 9.5t9.5 20.5h190q0 -72 -36 -125q36 -52 36 -125v-220h-190v220q0 11 -9.5 20.5t-20.5 9.5h-30v-250h-190v690h190zM250 720q11 0 20.5 9.5t9.5 20.5h190q0 -47 -16.5 -87.5t-46 -70t-70 -46t-87.5 -16.5v190z" />
    <glyph glyph-name="uni1E31" unicode="&#x1e31;" 
d="M220 720v-250h30q11 0 20.5 9.5t9.5 20.5h190q0 -72 -36 -125q36 -52 36 -125v-220h-190v220q0 11 -9.5 20.5t-20.5 9.5h-30v-250h-190v690h190zM250 720q11 0 20.5 9.5t9.5 20.5h190q0 -47 -16.5 -87.5t-46 -70t-70 -46t-87.5 -16.5v190z" />
    <glyph glyph-name="uni1E3E" unicode="&#x1e3e;" 
d="M15 340q0 72 34 116t106 44q29 0 49 -9t46 -27q26 18 46 27t49 9q72 0 106 -44t34 -116v-310h-160v250q0 11 0.5 20.5t-10.5 9.5t-10.5 -9.5t0.5 -20.5v-250h-110v250q0 11 0.5 20.5t-10.5 9.5t-10.5 -9.5t0.5 -20.5v-250h-160v310zM345 750q0 -11 9.5 -20.5t20.5 -9.5
v-190q-47 0 -87.5 16.5t-70 46t-46 70t-16.5 87.5h190z" />
    <glyph glyph-name="uni1E3F" unicode="&#x1e3f;" 
d="M15 340q0 72 34 116t106 44q29 0 49 -9t46 -27q26 18 46 27t49 9q72 0 106 -44t34 -116v-310h-160v250q0 11 0.5 20.5t-10.5 9.5t-10.5 -9.5t0.5 -20.5v-250h-110v250q0 11 0.5 20.5t-10.5 9.5t-10.5 -9.5t0.5 -20.5v-250h-160v310zM345 750q0 -11 9.5 -20.5t20.5 -9.5
v-190q-47 0 -87.5 16.5t-70 46t-46 70t-16.5 87.5h190z" />
    <glyph glyph-name="uni1E54" unicode="&#x1e54;" 
d="M250 720q11 0 20.5 9.5t9.5 20.5h190q0 -72 -36 -125q36 -52 36 -125q0 -47 -16.5 -87.5t-46 -70t-70 -46t-87.5 -16.5h-30v-250h-190v690h220zM250 470q11 0 20.5 9.5t9.5 20.5t-9.5 20.5t-20.5 9.5h-30v-60h30z" />
    <glyph glyph-name="uni1E55" unicode="&#x1e55;" 
d="M250 720q11 0 20.5 9.5t9.5 20.5h190q0 -72 -36 -125q36 -52 36 -125q0 -47 -16.5 -87.5t-46 -70t-70 -46t-87.5 -16.5h-30v-250h-190v690h220zM250 470q11 0 20.5 9.5t9.5 20.5t-9.5 20.5t-20.5 9.5h-30v-60h30z" />
    <glyph glyph-name="Wgrave" unicode="&#x1e80;" 
d="M175 520v-270q0 -11 -0.5 -20.5t10.5 -9.5t10.5 9.5t-0.5 20.5v270h110v-270q0 -11 -0.5 -20.5t10.5 -9.5t10.5 9.5t-0.5 20.5v270h160v-330q0 -72 -34 -116t-106 -44q-29 0 -49 9t-46 27q-26 -18 -46 -27t-49 -9q-72 0 -106 44t-34 116v330h160zM345 750
q0 -11 9.5 -20.5t20.5 -9.5v-190q-47 0 -87.5 16.5t-70 46t-46 70t-16.5 87.5h190z" />
    <glyph glyph-name="wgrave" unicode="&#x1e81;" 
d="M175 520v-270q0 -11 -0.5 -20.5t10.5 -9.5t10.5 9.5t-0.5 20.5v270h110v-270q0 -11 -0.5 -20.5t10.5 -9.5t10.5 9.5t-0.5 20.5v270h160v-330q0 -72 -34 -116t-106 -44q-29 0 -49 9t-46 27q-26 -18 -46 -27t-49 -9q-72 0 -106 44t-34 116v330h160zM345 750
q0 -11 9.5 -20.5t20.5 -9.5v-190q-47 0 -87.5 16.5t-70 46t-46 70t-16.5 87.5h190z" />
    <glyph glyph-name="Wacute" unicode="&#x1e82;" 
d="M175 520v-270q0 -11 -0.5 -20.5t10.5 -9.5t10.5 9.5t-0.5 20.5v270h110v-270q0 -11 -0.5 -20.5t10.5 -9.5t10.5 9.5t-0.5 20.5v270h160v-330q0 -72 -34 -116t-106 -44q-29 0 -49 9t-46 27q-26 -18 -46 -27t-49 -9q-72 0 -106 44t-34 116v330h160zM155 720q11 0 20.5 9.5
t9.5 20.5h190q0 -47 -16.5 -87.5t-46 -70t-70 -46t-87.5 -16.5v190z" />
    <glyph glyph-name="wacute" unicode="&#x1e83;" 
d="M175 520v-270q0 -11 -0.5 -20.5t10.5 -9.5t10.5 9.5t-0.5 20.5v270h110v-270q0 -11 -0.5 -20.5t10.5 -9.5t10.5 9.5t-0.5 20.5v270h160v-330q0 -72 -34 -116t-106 -44q-29 0 -49 9t-46 27q-26 -18 -46 -27t-49 -9q-72 0 -106 44t-34 116v330h160zM155 720q11 0 20.5 9.5
t9.5 20.5h190q0 -47 -16.5 -87.5t-46 -70t-70 -46t-87.5 -16.5v190z" />
    <glyph glyph-name="Wdieresis" unicode="&#x1e84;" 
d="M15 520h160v-270q0 -11 -0.5 -20.5t10.5 -9.5t10.5 9.5t-0.5 20.5v270h110v-270q0 -11 -0.5 -20.5t10.5 -9.5t10.5 9.5t-0.5 20.5v270h160v-330q0 -72 -34 -116t-106 -44q-29 0 -49 9t-46 27q-26 -18 -46 -27t-49 -9q-72 0 -106 44t-34 116v330zM259 693h150v-150h-150
v150zM89 543v150h150v-150h-150z" />
    <glyph glyph-name="wdieresis" unicode="&#x1e85;" 
d="M15 520h160v-270q0 -11 -0.5 -20.5t10.5 -9.5t10.5 9.5t-0.5 20.5v270h110v-270q0 -11 -0.5 -20.5t10.5 -9.5t10.5 9.5t-0.5 20.5v270h160v-330q0 -72 -34 -116t-106 -44q-29 0 -49 9t-46 27q-26 -18 -46 -27t-49 -9q-72 0 -106 44t-34 116v330zM259 693h150v-150h-150
v150zM89 543v150h150v-150h-150z" />
    <glyph glyph-name="Germandbls" unicode="&#x1e9e;" 
d="M30 500q0 47 16.5 87.5t46 70t70 46t87.5 16.5t87.5 -16.5t70 -46t46 -70t16.5 -87.5q0 -72 -36 -125q36 -52 36 -125q0 -47 -16.5 -87.5t-46 -70t-70 -46t-87.5 -16.5v190q11 0 20.5 9.5t9.5 20.5t-9.5 20.5t-20.5 9.5v190q11 0 20.5 9.5t9.5 20.5t-9.5 20.5t-20.5 9.5
t-20.5 -9.5t-9.5 -20.5v-470h-190v470z" />
    <glyph glyph-name="Ygrave" unicode="&#x1ef2;" 
d="M30 250v250h190v-250q0 -11 9.5 -20.5t20.5 -9.5h30v280h190v-500h-190v30h-30q-47 0 -87.5 16.5t-70 46t-46 70t-16.5 87.5zM30 750h190q0 -11 9.5 -20.5t20.5 -9.5v-190q-47 0 -87.5 16.5t-70 46t-46 70t-16.5 87.5z" />
    <glyph glyph-name="ygrave" unicode="&#x1ef3;" 
d="M30 250v250h190v-250q0 -11 9.5 -20.5t20.5 -9.5h30v280h190v-500h-190v30h-30q-47 0 -87.5 16.5t-70 46t-46 70t-16.5 87.5zM30 750h190q0 -11 9.5 -20.5t20.5 -9.5v-190q-47 0 -87.5 16.5t-70 46t-46 70t-16.5 87.5z" />
    <glyph glyph-name="endash" unicode="&#x2013;" 
d="M30 280v190h440v-190h-440z" />
    <glyph glyph-name="emdash" unicode="&#x2014;" 
d="M30 280v190h440v-190h-440z" />
    <glyph glyph-name="uni2015" unicode="&#x2015;" 
d="M30 280v190h440v-190h-440z" />
    <glyph glyph-name="quoteleft" unicode="&#x2018;" 
d="M155 750h190q0 -11 9.5 -20.5t20.5 -9.5v-190q-47 0 -87.5 16.5t-70 46t-46 70t-16.5 87.5z" />
    <glyph glyph-name="quoteright" unicode="&#x2019;" 
d="M125 720q11 0 20.5 9.5t9.5 20.5h190q0 -47 -16.5 -87.5t-46 -70t-70 -46t-87.5 -16.5v190z" />
    <glyph glyph-name="quotesinglbase" unicode="&#x201a;" 
d="M155 250h190q0 -11 9.5 -20.5t20.5 -9.5v-190q-47 0 -87.5 16.5t-70 46t-46 70t-16.5 87.5z" />
    <glyph glyph-name="quotedblleft" unicode="&#x201c;" 
d="M470 750q0 -11 9.5 -20.5t20.5 -9.5v-190q-47 0 -87.5 16.5t-70 46t-46 70t-16.5 87.5h190zM30 750h190q0 -11 9.5 -20.5t20.5 -9.5v-190q-47 0 -87.5 16.5t-70 46t-46 70t-16.5 87.5z" />
    <glyph glyph-name="quotedblright" unicode="&#x201d;" 
d="M250 720q11 0 20.5 9.5t9.5 20.5h190q0 -47 -16.5 -87.5t-46 -70t-70 -46t-87.5 -16.5v190zM0 720q11 0 20.5 9.5t9.5 20.5h190q0 -47 -16.5 -87.5t-46 -70t-70 -46t-87.5 -16.5v190z" />
    <glyph glyph-name="quotedblbase" unicode="&#x201e;" 
d="M470 250q0 -11 9.5 -20.5t20.5 -9.5v-190q-47 0 -87.5 16.5t-70 46t-46 70t-16.5 87.5h190zM30 250h190q0 -11 9.5 -20.5t20.5 -9.5v-190q-47 0 -87.5 16.5t-70 46t-46 70t-16.5 87.5z" />
    <glyph glyph-name="dagger" unicode="&#x2020;" 
d="M345 500v-500h-190v500h190zM155 720v30h190v-30h30v-190h-250v190h30z" />
    <glyph glyph-name="daggerdbl" unicode="&#x2021;" 
d="M125 220h250v-190h-30v-30h-190v30h-30v190zM125 530v190h30v30h190v-30h30v-190h-250zM155 250v250h190v-250h-190z" />
    <glyph glyph-name="bullet" unicode="&#x2022;" 
d="M30 250q0 47 16.5 87.5t46 70t70 46t87.5 16.5t87.5 -16.5t70 -46t46 -70t16.5 -87.5t-16.5 -87.5t-46 -70t-70 -46t-87.5 -16.5t-87.5 16.5t-70 46t-46 70t-16.5 87.5zM220 250q0 -11 9.5 -20.5t20.5 -9.5t20.5 9.5t9.5 20.5t-9.5 20.5t-20.5 9.5t-20.5 -9.5t-9.5 -20.5
z" />
    <glyph glyph-name="perthousand" unicode="&#x2030;" 
d="M30 250q0 48 16.5 88t46 69.5t70 46t87.5 16.5q11 0 20.5 9.5t9.5 20.5v220h190v-220q0 -47 -16.5 -87.5t-46 -70t-70 -46t-87.5 -16.5q-11 0 -20.5 -9.5t-9.5 -20.5v-220h-190v220zM30 720h190v-220h-190v220zM470 30h-100v220h100v-220zM250 30v220h100v-220h-100z" />
    <glyph glyph-name="guilsinglleft" unicode="&#x2039;" 
d="M125 470q11 0 20.5 9.5t9.5 20.5h190q0 -72 -36 -125q36 -52 36 -125h-190q0 11 -9.5 20.5t-20.5 9.5v190z" />
    <glyph glyph-name="guilsinglright" unicode="&#x203a;" 
d="M345 500q0 -11 9.5 -20.5t20.5 -9.5v-190q-11 0 -20.5 -9.5t-9.5 -20.5h-190q0 73 36 125q-36 53 -36 125h190z" />
    <glyph glyph-name="fraction" unicode="&#x2044;" 
d="M30 250q0 47 16.5 87.5t46 70t70 46t87.5 16.5q11 0 20.5 9.5t9.5 20.5v220h190v-220q0 -47 -16.5 -87.5t-46 -70t-70 -46t-87.5 -16.5q-11 0 -20.5 -9.5t-9.5 -20.5v-220h-190v220z" />
    <glyph glyph-name="uni2070" unicode="&#x2070;" 
d="M30 500q0 47 16.5 87.5t46 70t70 46t87.5 16.5t87.5 -16.5t70 -46t46 -70t16.5 -87.5v-250q0 -47 -16.5 -87.5t-46 -70t-70 -46t-87.5 -16.5t-87.5 16.5t-70 46t-46 70t-16.5 87.5v250zM220 250q0 -11 9.5 -20.5t20.5 -9.5t20.5 9.5t9.5 20.5v250q0 11 -9.5 20.5
t-20.5 9.5t-20.5 -9.5t-9.5 -20.5v-250z" />
    <glyph glyph-name="uni2074" unicode="&#x2074;" 
d="M30 280v440h190v-250h60v250h190v-690h-190v250h-250z" />
    <glyph glyph-name="uni2075" unicode="&#x2075;" 
d="M220 250q0 -11 9.5 -20.5t20.5 -9.5t20.5 9.5t9.5 20.5t-9.5 20.5t-20.5 9.5h-220v440h440v-190h-250v-60h30q47 0 87.5 -16.5t70 -46t46 -70t16.5 -87.5t-16.5 -87.5t-46 -70t-70 -46t-87.5 -16.5t-87.5 16.5t-70 46t-46 70t-16.5 87.5h190z" />
    <glyph glyph-name="uni2076" unicode="&#x2076;" 
d="M30 500q0 47 16.5 87.5t46 70t70 46t87.5 16.5t87.5 -16.5t70 -46t46 -70t16.5 -87.5h-190q0 11 -9.5 20.5t-20.5 9.5t-20.5 -9.5t-9.5 -20.5v-30h30q47 0 87.5 -16.5t70 -46t46 -70t16.5 -87.5t-16.5 -87.5t-46 -70t-70 -46t-87.5 -16.5t-87.5 16.5t-70 46t-46 70
t-16.5 87.5v250zM220 280v-30q0 -11 9.5 -20.5t20.5 -9.5t20.5 9.5t9.5 20.5t-9.5 20.5t-20.5 9.5h-30z" />
    <glyph glyph-name="uni2077" unicode="&#x2077;" 
d="M30 530v190h440v-690h-190v500h-250z" />
    <glyph glyph-name="uni2078" unicode="&#x2078;" 
d="M30 250q0 73 36 125q-36 53 -36 125q0 47 16.5 87.5t46 70t70 46t87.5 16.5t87.5 -16.5t70 -46t46 -70t16.5 -87.5q0 -72 -36 -125q36 -52 36 -125q0 -47 -16.5 -87.5t-46 -70t-70 -46t-87.5 -16.5t-87.5 16.5t-70 46t-46 70t-16.5 87.5zM220 500q0 -11 9.5 -20.5
t20.5 -9.5t20.5 9.5t9.5 20.5t-9.5 20.5t-20.5 9.5t-20.5 -9.5t-9.5 -20.5zM220 250q0 -11 9.5 -20.5t20.5 -9.5t20.5 9.5t9.5 20.5t-9.5 20.5t-20.5 9.5t-20.5 -9.5t-9.5 -20.5z" />
    <glyph glyph-name="uni2079" unicode="&#x2079;" 
d="M220 250q0 -11 9.5 -20.5t20.5 -9.5t20.5 9.5t9.5 20.5v30h-30q-47 0 -87.5 16.5t-70 46t-46 70t-16.5 87.5t16.5 87.5t46 70t70 46t87.5 16.5t87.5 -16.5t70 -46t46 -70t16.5 -87.5v-250q0 -47 -16.5 -87.5t-46 -70t-70 -46t-87.5 -16.5t-87.5 16.5t-70 46t-46 70
t-16.5 87.5h190zM220 500q0 -11 9.5 -20.5t20.5 -9.5h30v30q0 11 -9.5 20.5t-20.5 9.5t-20.5 -9.5t-9.5 -20.5z" />
    <glyph glyph-name="uni2080" unicode="&#x2080;" 
d="M30 500q0 47 16.5 87.5t46 70t70 46t87.5 16.5t87.5 -16.5t70 -46t46 -70t16.5 -87.5v-250q0 -47 -16.5 -87.5t-46 -70t-70 -46t-87.5 -16.5t-87.5 16.5t-70 46t-46 70t-16.5 87.5v250zM220 250q0 -11 9.5 -20.5t20.5 -9.5t20.5 9.5t9.5 20.5v250q0 11 -9.5 20.5
t-20.5 9.5t-20.5 -9.5t-9.5 -20.5v-250z" />
    <glyph glyph-name="uni2081" unicode="&#x2081;" 
d="M55 220h100v310h-100v190h290v-500h100v-190h-390v190z" />
    <glyph glyph-name="uni2082" unicode="&#x2082;" 
d="M30 250q0 47 16.5 87.5t46 70t70 46t87.5 16.5q11 0 20.5 9.5t9.5 20.5t-9.5 20.5t-20.5 9.5t-20.5 -9.5t-9.5 -20.5h-190q0 47 16.5 87.5t46 70t70 46t87.5 16.5t87.5 -16.5t70 -46t46 -70t16.5 -87.5t-16.5 -87.5t-46 -70t-70 -46t-87.5 -16.5q-11 0 -20.5 -9.5
t-9.5 -20.5v-30h250v-190h-440v220z" />
    <glyph glyph-name="uni2083" unicode="&#x2083;" 
d="M220 500h-190q0 47 16.5 87.5t46 70t70 46t87.5 16.5t87.5 -16.5t70 -46t46 -70t16.5 -87.5q0 -72 -36 -125q36 -52 36 -125q0 -47 -16.5 -87.5t-46 -70t-70 -46t-87.5 -16.5t-87.5 16.5t-70 46t-46 70t-16.5 87.5h190q0 -11 9.5 -20.5t20.5 -9.5t20.5 9.5t9.5 20.5
t-9.5 20.5t-20.5 9.5v190q11 0 20.5 9.5t9.5 20.5t-9.5 20.5t-20.5 9.5t-20.5 -9.5t-9.5 -20.5z" />
    <glyph glyph-name="uni2084" unicode="&#x2084;" 
d="M30 280v440h190v-250h60v250h190v-690h-190v250h-250z" />
    <glyph glyph-name="uni2085" unicode="&#x2085;" 
d="M220 250q0 -11 9.5 -20.5t20.5 -9.5t20.5 9.5t9.5 20.5t-9.5 20.5t-20.5 9.5h-220v440h440v-190h-250v-60h30q47 0 87.5 -16.5t70 -46t46 -70t16.5 -87.5t-16.5 -87.5t-46 -70t-70 -46t-87.5 -16.5t-87.5 16.5t-70 46t-46 70t-16.5 87.5h190z" />
    <glyph glyph-name="uni2086" unicode="&#x2086;" 
d="M30 500q0 47 16.5 87.5t46 70t70 46t87.5 16.5t87.5 -16.5t70 -46t46 -70t16.5 -87.5h-190q0 11 -9.5 20.5t-20.5 9.5t-20.5 -9.5t-9.5 -20.5v-30h30q47 0 87.5 -16.5t70 -46t46 -70t16.5 -87.5t-16.5 -87.5t-46 -70t-70 -46t-87.5 -16.5t-87.5 16.5t-70 46t-46 70
t-16.5 87.5v250zM220 280v-30q0 -11 9.5 -20.5t20.5 -9.5t20.5 9.5t9.5 20.5t-9.5 20.5t-20.5 9.5h-30z" />
    <glyph glyph-name="uni2087" unicode="&#x2087;" 
d="M30 530v190h440v-690h-190v500h-250z" />
    <glyph glyph-name="uni2088" unicode="&#x2088;" 
d="M30 250q0 73 36 125q-36 53 -36 125q0 47 16.5 87.5t46 70t70 46t87.5 16.5t87.5 -16.5t70 -46t46 -70t16.5 -87.5q0 -72 -36 -125q36 -52 36 -125q0 -47 -16.5 -87.5t-46 -70t-70 -46t-87.5 -16.5t-87.5 16.5t-70 46t-46 70t-16.5 87.5zM220 500q0 -11 9.5 -20.5
t20.5 -9.5t20.5 9.5t9.5 20.5t-9.5 20.5t-20.5 9.5t-20.5 -9.5t-9.5 -20.5zM220 250q0 -11 9.5 -20.5t20.5 -9.5t20.5 9.5t9.5 20.5t-9.5 20.5t-20.5 9.5t-20.5 -9.5t-9.5 -20.5z" />
    <glyph glyph-name="uni2089" unicode="&#x2089;" 
d="M220 250q0 -11 9.5 -20.5t20.5 -9.5t20.5 9.5t9.5 20.5v30h-30q-47 0 -87.5 16.5t-70 46t-46 70t-16.5 87.5t16.5 87.5t46 70t70 46t87.5 16.5t87.5 -16.5t70 -46t46 -70t16.5 -87.5v-250q0 -47 -16.5 -87.5t-46 -70t-70 -46t-87.5 -16.5t-87.5 16.5t-70 46t-46 70
t-16.5 87.5h190zM220 500q0 -11 9.5 -20.5t20.5 -9.5h30v30q0 11 -9.5 20.5t-20.5 9.5t-20.5 -9.5t-9.5 -20.5z" />
    <glyph glyph-name="uni208A" unicode="&#x208a;" 
d="M345 280v-100h-190v100h-100v190h100v100h190v-100h100v-190h-100z" />
    <glyph glyph-name="uni208B" unicode="&#x208b;" 
d="M30 280v190h440v-190h-440z" />
    <glyph glyph-name="uni208C" unicode="&#x208c;" 
d="M75 590h350v-190h-350v190zM425 340v-190h-350v190h350z" />
    <glyph glyph-name="uni208D" unicode="&#x208d;" 
d="M155 500q0 47 16.5 87.5t46 70t70 46t87.5 16.5v-190q-11 0 -20.5 -9.5t-9.5 -20.5v-250q0 -11 9.5 -20.5t20.5 -9.5v-190q-47 0 -87.5 16.5t-70 46t-46 70t-16.5 87.5v250z" />
    <glyph glyph-name="uni208E" unicode="&#x208e;" 
d="M125 220q11 0 20.5 9.5t9.5 20.5v250q0 11 -9.5 20.5t-20.5 9.5v190q47 0 87.5 -16.5t70 -46t46 -70t16.5 -87.5v-250q0 -47 -16.5 -87.5t-46 -70t-70 -46t-87.5 -16.5v190z" />
    <glyph glyph-name="franc" unicode="&#x20a3;" 
d="M30 30v690h440v-190h-250v-60h250v-190h-250v-250h-190z" />
    <glyph glyph-name="lira" unicode="&#x20a4;" 
d="M30 500q0 47 16.5 87.5t46 70t70 46t87.5 16.5t87.5 -16.5t70 -46t46 -70t16.5 -87.5h-190q0 11 -9.5 20.5t-20.5 9.5t-20.5 -9.5t-9.5 -20.5v-30h250v-190h-250v-60h250v-190h-440v470z" />
    <glyph glyph-name="Euro" unicode="&#x20ac;" 
d="M220 250q0 -11 9.5 -20.5t20.5 -9.5t20.5 9.5t9.5 20.5h190q0 -47 -16.5 -87.5t-46 -70t-70 -46t-87.5 -16.5t-87.5 16.5t-70 46t-46 70t-16.5 87.5v250q0 47 16.5 87.5t46 70t70 46t87.5 16.5t87.5 -16.5t70 -46t46 -70t16.5 -87.5h-190q0 11 -9.5 20.5t-20.5 9.5
t-20.5 -9.5t-9.5 -20.5v-30h250v-190h-250v-30z" />
    <glyph glyph-name="uni20B4" unicode="&#x20b4;" 
d="M30 250q0 47 16.5 87.5t46 70t70 46t87.5 16.5q11 0 20.5 9.5t9.5 20.5t-9.5 20.5t-20.5 9.5t-20.5 -9.5t-9.5 -20.5h-190q0 47 16.5 87.5t46 70t70 46t87.5 16.5t87.5 -16.5t70 -46t46 -70t16.5 -87.5t-16.5 -87.5t-46 -70t-70 -46t-87.5 -16.5q-11 0 -20.5 -9.5
t-9.5 -20.5t9.5 -20.5t20.5 -9.5t20.5 9.5t9.5 20.5h190q0 -47 -16.5 -87.5t-46 -70t-70 -46t-87.5 -16.5t-87.5 16.5t-70 46t-46 70t-16.5 87.5z" />
    <glyph glyph-name="uni2113" unicode="&#x2113;" 
d="M30 720h190v-500h250v-190h-440v690z" />
    <glyph glyph-name="uni2117" unicode="&#x2117;" 
d="M30 30v690h220q47 0 87.5 -16.5t70 -46t46 -70t16.5 -87.5t-16.5 -87.5t-46 -70t-70 -46t-87.5 -16.5h-30v-250h-190zM250 470q11 0 20.5 9.5t9.5 20.5t-9.5 20.5t-20.5 9.5h-30v-60h30z" />
    <glyph glyph-name="trademark" unicode="&#x2122;" 
d="M145 280v215q0 25 5.5 57.5t18.5 61.5t34.5 49t53.5 20q38 0 65 -31q27 31 64 31q32 0 54 -20t35.5 -49t19 -61.5t5.5 -57.5v-215h-98v215q0 8 -5 16q-4 9 -11 9q-4 0 -9 -9q-6 -7 -6 -16v-215h-98v215q0 8 -5 16q-4 9 -11 9q-6 0 -9 -9q-5 -8 -5 -16v-215h-98zM-60 520
v163h189v-163h-45v-240h-98v240h-46z" />
    <glyph glyph-name="estimated" unicode="&#x212e;" 
d="M30 500q0 47 16.5 87.5t46 70t70 46t87.5 16.5t87.5 -16.5t70 -46t46 -70t16.5 -87.5v-220h-250v-30q0 -11 9.5 -20.5t20.5 -9.5t20.5 9.5t9.5 20.5h190q0 -47 -16.5 -87.5t-46 -70t-70 -46t-87.5 -16.5t-87.5 16.5t-70 46t-46 70t-16.5 87.5v250zM220 470h60v30
q0 11 -9.5 20.5t-20.5 9.5t-20.5 -9.5t-9.5 -20.5v-30z" />
    <glyph glyph-name="partialdiff" unicode="&#x2202;" 
d="M30 250q0 47 16.5 87.5t46 70t70 46t87.5 16.5h30v30q0 11 -9.5 20.5t-20.5 9.5h-220v190h220q47 0 87.5 -16.5t70 -46t46 -70t16.5 -87.5v-250q0 -47 -16.5 -87.5t-46 -70t-70 -46t-87.5 -16.5t-87.5 16.5t-70 46t-46 70t-16.5 87.5zM220 250q0 -11 9.5 -20.5t20.5 -9.5
t20.5 9.5t9.5 20.5v30h-30q-11 0 -20.5 -9.5t-9.5 -20.5z" />
    <glyph glyph-name="product" unicode="&#x220f;" 
d="M30 30v690h440v-690h-190v500h-60v-500h-190z" />
    <glyph glyph-name="summation" unicode="&#x2211;" 
d="M30 250q0 73 36 125q-36 53 -36 125v220h440v-190h-250v-30q0 -11 9.5 -20.5t20.5 -9.5h220v-190h-220q-11 0 -20.5 -9.5t-9.5 -20.5v-30h250v-190h-440v220z" />
    <glyph glyph-name="minus" unicode="&#x2212;" 
d="M30 280v190h440v-190h-440z" />
    <glyph glyph-name="uni2215" unicode="&#x2215;" 
d="M30 250q0 47 16.5 87.5t46 70t70 46t87.5 16.5q11 0 20.5 9.5t9.5 20.5v220h190v-220q0 -47 -16.5 -87.5t-46 -70t-70 -46t-87.5 -16.5q-11 0 -20.5 -9.5t-9.5 -20.5v-220h-190v220z" />
    <glyph glyph-name="uni2219" unicode="&#x2219;" 
d="M155 250v220h190v-220h-190z" />
    <glyph glyph-name="radical" unicode="&#x221a;" 
d="M0 470h220v-250h30q11 0 20.5 9.5t9.5 20.5v470h190v-470q0 -47 -16.5 -87.5t-46 -70t-70 -46t-87.5 -16.5h-220v250h-30v190z" />
    <glyph glyph-name="infinity" unicode="&#x221e;" 
d="M-95 250q0 47 16.5 87.5t46 70t70 46t87.5 16.5q73 0 125 -36q53 36 125 36q47 0 87.5 -16.5t70 -46t46 -70t16.5 -87.5t-16.5 -87.5t-46 -70t-70 -46t-87.5 -16.5q-72 0 -125 36q-52 -36 -125 -36q-47 0 -87.5 16.5t-70 46t-46 70t-16.5 87.5zM345 250q0 -11 9.5 -20.5
t20.5 -9.5t20.5 9.5t9.5 20.5t-9.5 20.5t-20.5 9.5t-20.5 -9.5t-9.5 -20.5zM95 250q0 -11 9.5 -20.5t20.5 -9.5t20.5 9.5t9.5 20.5t-9.5 20.5t-20.5 9.5t-20.5 -9.5t-9.5 -20.5z" />
    <glyph glyph-name="integral" unicode="&#x222b;" 
d="M125 220q11 0 20.5 9.5t9.5 20.5v250q0 47 16.5 87.5t46 70t70 46t87.5 16.5v-190q-11 0 -20.5 -9.5t-9.5 -20.5v-250q0 -47 -16.5 -87.5t-46 -70t-70 -46t-87.5 -16.5v190z" />
    <glyph glyph-name="approxequal" unicode="&#x2248;" 
d="M30 250q0 47 16.5 87.5t46 70t70 46t87.5 16.5q11 0 20.5 9.5t9.5 20.5h190q0 -47 -16.5 -87.5t-46 -70t-70 -46t-87.5 -16.5q-11 0 -20.5 -9.5t-9.5 -20.5h-190zM30 0q0 47 16.5 87.5t46 70t70 46t87.5 16.5q11 0 20.5 9.5t9.5 20.5h190q0 -47 -16.5 -87.5t-46 -70
t-70 -46t-87.5 -16.5q-11 0 -20.5 -9.5t-9.5 -20.5h-190z" />
    <glyph glyph-name="notequal" unicode="&#x2260;" 
d="M125 470h30v30h190v-30h30v-190h-250v190zM375 220v-190h-30v-30h-190v30h-30v190h250z" />
    <glyph glyph-name="lessequal" unicode="&#x2264;" 
d="M125 30v190h250v-190h-250zM125 470q11 0 20.5 9.5t9.5 20.5h190q0 -72 -36 -125q36 -52 36 -125h-190q0 11 -9.5 20.5t-20.5 9.5v190z" />
    <glyph glyph-name="greaterequal" unicode="&#x2265;" 
d="M155 250q0 73 36 125q-36 53 -36 125h190q0 -11 9.5 -20.5t20.5 -9.5v-190q-11 0 -20.5 -9.5t-9.5 -20.5h-190zM375 220v-190h-250v190h250z" />
    <glyph glyph-name="lozenge" unicode="&#x25ca;" 
d="M30 720h220q47 0 87.5 -16.5t70 -46t46 -70t16.5 -87.5v-470h-220q-47 0 -87.5 16.5t-70 46t-46 70t-16.5 87.5v470zM220 250q0 -11 9.5 -20.5t20.5 -9.5h30v280q0 11 -9.5 20.5t-20.5 9.5h-30v-280z" />
    <glyph glyph-name="uni2C67" unicode="&#x2c67;" 
d="M220 720v-250h60v250h190v-720h-190v280h-60v-250h-190v690h190z" />
    <glyph glyph-name="uni2C68" unicode="&#x2c68;" 
d="M220 720v-250h60v250h190v-720h-190v280h-60v-250h-190v690h190z" />
    <glyph glyph-name="uniF8FF" unicode="&#xf8ff;" 
 />
    <glyph glyph-name="parenleft.case" 
d="M155 500q0 47 16.5 87.5t46 70t70 46t87.5 16.5v-190q-11 0 -20.5 -9.5t-9.5 -20.5v-250q0 -11 9.5 -20.5t20.5 -9.5v-190q-47 0 -87.5 16.5t-70 46t-46 70t-16.5 87.5v250z" />
    <glyph glyph-name="parenright.case" 
d="M125 220q11 0 20.5 9.5t9.5 20.5v250q0 11 -9.5 20.5t-20.5 9.5v190q47 0 87.5 -16.5t70 -46t46 -70t16.5 -87.5v-250q0 -47 -16.5 -87.5t-46 -70t-70 -46t-87.5 -16.5v190z" />
    <glyph glyph-name="hyphen.case" 
d="M30 280v190h440v-190h-440z" />
    <glyph glyph-name="zero.dnom" 
d="M30 500q0 47 16.5 87.5t46 70t70 46t87.5 16.5t87.5 -16.5t70 -46t46 -70t16.5 -87.5v-250q0 -47 -16.5 -87.5t-46 -70t-70 -46t-87.5 -16.5t-87.5 16.5t-70 46t-46 70t-16.5 87.5v250zM220 250q0 -11 9.5 -20.5t20.5 -9.5t20.5 9.5t9.5 20.5v250q0 11 -9.5 20.5
t-20.5 9.5t-20.5 -9.5t-9.5 -20.5v-250z" />
    <glyph glyph-name="zero.numr" 
d="M30 500q0 47 16.5 87.5t46 70t70 46t87.5 16.5t87.5 -16.5t70 -46t46 -70t16.5 -87.5v-250q0 -47 -16.5 -87.5t-46 -70t-70 -46t-87.5 -16.5t-87.5 16.5t-70 46t-46 70t-16.5 87.5v250zM220 250q0 -11 9.5 -20.5t20.5 -9.5t20.5 9.5t9.5 20.5v250q0 11 -9.5 20.5
t-20.5 9.5t-20.5 -9.5t-9.5 -20.5v-250z" />
    <glyph glyph-name="zero.onum" 
d="M30 500q0 47 16.5 87.5t46 70t70 46t87.5 16.5t87.5 -16.5t70 -46t46 -70t16.5 -87.5v-250q0 -47 -16.5 -87.5t-46 -70t-70 -46t-87.5 -16.5t-87.5 16.5t-70 46t-46 70t-16.5 87.5v250zM220 250q0 -11 9.5 -20.5t20.5 -9.5t20.5 9.5t9.5 20.5v250q0 11 -9.5 20.5
t-20.5 9.5t-20.5 -9.5t-9.5 -20.5v-250z" />
    <glyph glyph-name="zero.onum.pnum" 
d="M30 500q0 47 16.5 87.5t46 70t70 46t87.5 16.5t87.5 -16.5t70 -46t46 -70t16.5 -87.5v-250q0 -47 -16.5 -87.5t-46 -70t-70 -46t-87.5 -16.5t-87.5 16.5t-70 46t-46 70t-16.5 87.5v250zM220 250q0 -11 9.5 -20.5t20.5 -9.5t20.5 9.5t9.5 20.5v250q0 11 -9.5 20.5
t-20.5 9.5t-20.5 -9.5t-9.5 -20.5v-250z" />
    <glyph glyph-name="zero.pnum" 
d="M30 500q0 47 16.5 87.5t46 70t70 46t87.5 16.5t87.5 -16.5t70 -46t46 -70t16.5 -87.5v-250q0 -47 -16.5 -87.5t-46 -70t-70 -46t-87.5 -16.5t-87.5 16.5t-70 46t-46 70t-16.5 87.5v250zM220 250q0 -11 9.5 -20.5t20.5 -9.5t20.5 9.5t9.5 20.5v250q0 11 -9.5 20.5
t-20.5 9.5t-20.5 -9.5t-9.5 -20.5v-250z" />
    <glyph glyph-name="one.dnom" 
d="M55 220h100v310h-100v190h290v-500h100v-190h-390v190z" />
    <glyph glyph-name="one.numr" 
d="M55 220h100v310h-100v190h290v-500h100v-190h-390v190z" />
    <glyph glyph-name="one.onum" 
d="M55 220h100v310h-100v190h290v-500h100v-190h-390v190z" />
    <glyph glyph-name="one.onum.pnum" 
d="M55 220h100v310h-100v190h290v-500h100v-190h-390v190z" />
    <glyph glyph-name="one.pnum" 
d="M55 220h100v310h-100v190h290v-500h100v-190h-390v190z" />
    <glyph glyph-name="two.dnom" 
d="M30 250q0 47 16.5 87.5t46 70t70 46t87.5 16.5q11 0 20.5 9.5t9.5 20.5t-9.5 20.5t-20.5 9.5t-20.5 -9.5t-9.5 -20.5h-190q0 47 16.5 87.5t46 70t70 46t87.5 16.5t87.5 -16.5t70 -46t46 -70t16.5 -87.5t-16.5 -87.5t-46 -70t-70 -46t-87.5 -16.5q-11 0 -20.5 -9.5
t-9.5 -20.5v-30h250v-190h-440v220z" />
    <glyph glyph-name="two.numr" 
d="M30 250q0 47 16.5 87.5t46 70t70 46t87.5 16.5q11 0 20.5 9.5t9.5 20.5t-9.5 20.5t-20.5 9.5t-20.5 -9.5t-9.5 -20.5h-190q0 47 16.5 87.5t46 70t70 46t87.5 16.5t87.5 -16.5t70 -46t46 -70t16.5 -87.5t-16.5 -87.5t-46 -70t-70 -46t-87.5 -16.5q-11 0 -20.5 -9.5
t-9.5 -20.5v-30h250v-190h-440v220z" />
    <glyph glyph-name="two.onum" 
d="M30 250q0 47 16.5 87.5t46 70t70 46t87.5 16.5q11 0 20.5 9.5t9.5 20.5t-9.5 20.5t-20.5 9.5t-20.5 -9.5t-9.5 -20.5h-190q0 47 16.5 87.5t46 70t70 46t87.5 16.5t87.5 -16.5t70 -46t46 -70t16.5 -87.5t-16.5 -87.5t-46 -70t-70 -46t-87.5 -16.5q-11 0 -20.5 -9.5
t-9.5 -20.5v-30h250v-190h-440v220z" />
    <glyph glyph-name="two.onum.pnum" 
d="M30 250q0 47 16.5 87.5t46 70t70 46t87.5 16.5q11 0 20.5 9.5t9.5 20.5t-9.5 20.5t-20.5 9.5t-20.5 -9.5t-9.5 -20.5h-190q0 47 16.5 87.5t46 70t70 46t87.5 16.5t87.5 -16.5t70 -46t46 -70t16.5 -87.5t-16.5 -87.5t-46 -70t-70 -46t-87.5 -16.5q-11 0 -20.5 -9.5
t-9.5 -20.5v-30h250v-190h-440v220z" />
    <glyph glyph-name="two.pnum" 
d="M30 250q0 47 16.5 87.5t46 70t70 46t87.5 16.5q11 0 20.5 9.5t9.5 20.5t-9.5 20.5t-20.5 9.5t-20.5 -9.5t-9.5 -20.5h-190q0 47 16.5 87.5t46 70t70 46t87.5 16.5t87.5 -16.5t70 -46t46 -70t16.5 -87.5t-16.5 -87.5t-46 -70t-70 -46t-87.5 -16.5q-11 0 -20.5 -9.5
t-9.5 -20.5v-30h250v-190h-440v220z" />
    <glyph glyph-name="three.onum.pnum" 
d="M220 500h-190q0 47 16.5 87.5t46 70t70 46t87.5 16.5t87.5 -16.5t70 -46t46 -70t16.5 -87.5q0 -72 -36 -125q36 -52 36 -125q0 -47 -16.5 -87.5t-46 -70t-70 -46t-87.5 -16.5t-87.5 16.5t-70 46t-46 70t-16.5 87.5h190q0 -11 9.5 -20.5t20.5 -9.5t20.5 9.5t9.5 20.5
t-9.5 20.5t-20.5 9.5v190q11 0 20.5 9.5t9.5 20.5t-9.5 20.5t-20.5 9.5t-20.5 -9.5t-9.5 -20.5z" />
    <glyph glyph-name="three.pnum" 
d="M220 500h-190q0 47 16.5 87.5t46 70t70 46t87.5 16.5t87.5 -16.5t70 -46t46 -70t16.5 -87.5q0 -72 -36 -125q36 -52 36 -125q0 -47 -16.5 -87.5t-46 -70t-70 -46t-87.5 -16.5t-87.5 16.5t-70 46t-46 70t-16.5 87.5h190q0 -11 9.5 -20.5t20.5 -9.5t20.5 9.5t9.5 20.5
t-9.5 20.5t-20.5 9.5v190q11 0 20.5 9.5t9.5 20.5t-9.5 20.5t-20.5 9.5t-20.5 -9.5t-9.5 -20.5z" />
    <glyph glyph-name="four.dnom" 
d="M30 280v440h190v-250h60v250h190v-690h-190v250h-250z" />
    <glyph glyph-name="four.numr" 
d="M30 280v440h190v-250h60v250h190v-690h-190v250h-250z" />
    <glyph glyph-name="four.onum" 
d="M30 280v440h190v-250h60v250h190v-690h-190v250h-250z" />
    <glyph glyph-name="four.onum.pnum" 
d="M30 280v440h190v-250h60v250h190v-690h-190v250h-250z" />
    <glyph glyph-name="four.pnum" 
d="M30 280v440h190v-250h60v250h190v-690h-190v250h-250z" />
    </font>
</defs>
</svg>
